<svg width="95" height="48" viewBox="0 0 95 48" fill="none" xmlns="http://www.w3.org/2000/svg">
<g id="Flag_of_Cyprus 1">
<g clip-path="url(#clip0_877_7106)">
<path id="Vector" d="M95 0H0V64.2336H95V0Z" fill="white"/>
<g id="Group 482761">
<path id="branch" d="M45.7263 42.4215C45.7144 42.4164 45.7038 42.4087 45.6951 42.3991L45.6838 42.3884C45.6337 42.341 45.5861 42.2908 45.5412 42.2382C45.4212 42.1 45.2601 41.8975 45.1186 41.7186C44.8379 41.3637 44.6059 41.058 44.5622 41.0004L44.4907 40.9061L43.7908 40.6872L43.2797 40.4455L43.5528 40.1342L44.4907 40.5415L45.1907 40.6872L46.485 41.6527L46.484 41.6536C46.4814 41.6558 46.2958 41.8124 46.1113 41.9826C46.029 42.0585 45.9253 42.1563 45.852 42.237C45.8219 42.2698 45.7938 42.3046 45.7682 42.3412C45.7528 42.3671 45.7389 42.394 45.7263 42.4216M40.9194 40.9574C40.288 40.9515 39.6693 40.7759 39.1265 40.4486H39.1259V40.4478C39.1919 40.3361 39.2803 40.2396 39.3852 40.1645C39.5602 40.0342 39.8757 39.8786 40.3856 39.8766H40.3961C40.9999 39.8766 41.7389 40.0848 42.5926 40.4954C42.0864 40.8004 41.5081 40.9601 40.9194 40.9574L40.9203 40.9583L40.9194 40.9574ZM38.2726 40.3624C38.1647 40.3645 38.061 40.3202 37.987 40.2405C37.9231 40.1652 37.8791 40.0746 37.859 39.9774C37.8302 39.8512 37.8194 39.7213 37.8274 39.592C37.8719 39.5724 37.9196 39.5614 37.9681 39.5596H37.9782C38.2045 39.5596 38.3829 39.7587 38.4593 39.956C38.5009 40.0433 38.5097 40.1429 38.484 40.2363C38.4456 40.3179 38.362 40.3675 38.2731 40.3615L38.2726 40.3624ZM42.93 39.8149C41.3656 39.5883 40.7025 39.0147 40.4217 38.5734C40.2439 38.3056 40.1603 37.985 40.1843 37.6631V37.6618H40.1855C40.2641 37.6435 40.3445 37.6345 40.425 37.635C40.8412 37.635 41.9057 37.8473 42.9303 39.8141L42.9309 39.8154L42.9291 39.8145L42.93 39.8149ZM39.7235 39.5005C39.0552 39.5005 38.5464 39.3835 38.2112 39.1531C38.0686 39.0606 37.9538 38.9301 37.879 38.7761C37.8517 38.7177 37.8337 38.6553 37.8255 38.5912C38.0482 38.4996 38.2851 38.4486 38.5252 38.4404C38.5598 38.4388 38.5945 38.4378 38.631 38.4377C39.1476 38.4377 39.9331 38.6086 40.762 39.423L40.7628 39.4238H40.7618C40.4175 39.4719 40.0703 39.4975 39.7227 39.5006L39.7235 39.5005ZM36.4874 39.3743C35.7827 39.3743 34.8145 39.1561 34.2107 38.5438L34.2101 38.5431H34.2119C34.6709 38.4331 35.1395 38.3699 35.6108 38.3546C35.6548 38.3535 35.6991 38.3529 35.7437 38.3529C36.4045 38.3529 36.9102 38.4828 37.2471 38.739C37.3412 38.7963 37.4111 38.887 37.4434 38.9934C37.4508 39.0719 37.414 39.1479 37.3482 39.1899C37.1965 39.3061 36.9254 39.368 36.5421 39.3742L36.488 39.3761L36.4874 39.3743ZM34.2038 38.1861C34.1174 38.1863 34.0354 38.1471 33.9804 38.0795C33.9296 38.0118 33.8953 37.9328 33.8805 37.849C33.8576 37.7387 33.8487 37.6258 33.8543 37.5132V37.5115C33.8887 37.4954 33.9261 37.4868 33.964 37.4864C34.0524 37.4897 34.136 37.5276 34.1973 37.5922C34.2655 37.66 34.3175 37.7427 34.3494 37.834C34.3813 37.9101 34.3871 37.9949 34.3656 38.0748C34.3393 38.1422 34.2749 38.1861 34.2034 38.1854L34.2038 38.1861ZM39.4784 38.0655C39.3705 38.0676 39.2667 38.0234 39.1927 37.9437C39.1289 37.8683 39.0848 37.7779 39.0646 37.6806C39.0358 37.5544 39.025 37.4245 39.033 37.2952C39.0775 37.2756 39.1253 37.2647 39.1737 37.2628H39.1838C39.4101 37.2628 39.5885 37.4619 39.6649 37.6592C39.7065 37.7465 39.7153 37.8461 39.6896 37.9395C39.6513 38.0212 39.5676 38.0708 39.4787 38.0648L39.4784 38.0655ZM36.9091 37.9576C35.491 37.907 34.7553 37.4982 34.3873 37.164C34.2299 37.0242 34.1002 36.8552 34.0052 36.6662C33.9698 36.5952 33.9424 36.5205 33.9233 36.4433L33.9252 36.4425C34.0388 36.4076 34.1568 36.3898 34.2753 36.3896H34.3085C34.7868 36.3896 35.7604 36.5933 36.9086 37.9574V37.9583L36.9091 37.9576ZM38.4493 37.8123C37.3083 37.6361 36.6619 37.1393 36.3205 36.7535C36.1098 36.524 35.9497 36.2518 35.8507 35.9548C35.9661 35.928 36.0838 35.9136 36.2022 35.9119C36.2174 35.9119 36.2333 35.9113 36.2494 35.9113C36.2655 35.9113 36.2823 35.9113 36.2992 35.9119C36.8731 35.9246 37.9154 36.1882 38.449 37.8117H38.4499L38.4493 37.8123ZM32.5916 37.2566C32.2284 37.2578 31.8664 37.2138 31.5138 37.1257C30.9164 36.9742 30.6601 36.7429 30.5503 36.5754C30.503 36.506 30.4714 36.427 30.4574 36.3438C30.4524 36.3114 30.4514 36.2785 30.4546 36.2457L30.4574 36.2447C30.766 36.1671 31.0825 36.1264 31.4004 36.1233C31.4219 36.1233 31.4436 36.1228 31.4657 36.1228C31.7248 36.1223 31.9834 36.1478 32.2375 36.1987C32.814 36.3209 33.3277 36.65 33.6842 37.1255V37.1263H33.683C33.3256 37.2149 32.9587 37.2585 32.5908 37.2561L32.5916 37.2566ZM35.2402 36.2805C35.1326 36.2834 35.0288 36.2403 34.9543 36.1616C34.8902 36.0854 34.8462 35.994 34.8263 35.8959C34.7974 35.7706 34.7868 35.6418 34.7947 35.5133C34.8392 35.4938 34.887 35.4828 34.9355 35.481H34.9456C35.1714 35.481 35.35 35.6802 35.4267 35.8775C35.4675 35.964 35.4753 36.0628 35.4486 36.1548C35.412 36.2369 35.329 36.2871 35.2404 36.2809L35.2402 36.2805ZM33.2485 36.0035C32.8693 35.8947 32.5066 35.734 32.1701 35.526C31.6705 35.214 31.0593 34.6622 30.9848 33.8049H30.986C31.024 33.7967 31.0624 33.792 31.1012 33.7908C31.1102 33.7908 31.1208 33.7903 31.1313 33.7903C31.2805 33.7903 31.586 33.8329 31.9556 34.1179C32.426 34.4816 32.8604 35.1159 33.2488 36.0053L33.2485 36.0035ZM34.5489 35.9551C34.2395 35.8125 33.9521 35.6252 33.6956 35.399C33.0328 34.8204 32.5162 34.0893 32.1892 33.2667C32.2708 33.2278 32.3592 33.2056 32.4493 33.201C32.4583 33.2004 32.4673 33.2002 32.4769 33.2002C32.4904 33.2002 32.5043 33.2002 32.5186 33.201C32.7359 33.2073 33.0668 33.2988 33.4336 33.7004C33.855 34.1616 34.2312 34.9196 34.5511 35.9534L34.552 35.9564L34.5493 35.9554L34.5489 35.9551ZM31.1794 35.8555C30.745 35.8555 30.5963 35.6164 30.5525 35.5136C30.5088 35.4065 30.4917 35.2902 30.5025 35.1748V35.173C30.5733 35.1551 30.6459 35.1455 30.7188 35.1443H30.7337C31.0177 35.1372 31.2882 35.2675 31.4622 35.4953C31.4852 35.53 31.5557 35.6502 31.4974 35.744C31.4505 35.8181 31.3442 35.8556 31.1792 35.8556L31.1794 35.8555ZM30.217 34.6242C29.8805 34.625 29.5445 34.5959 29.2129 34.5372C28.826 34.4658 28.6066 34.1321 28.4908 33.8649C28.413 33.6822 28.3584 33.49 28.3286 33.2933H28.3297C29.5266 33.3289 30.092 33.6836 30.3554 33.9748C30.5186 34.1471 30.6203 34.3699 30.6443 34.6075H30.6435C30.6417 34.6075 30.4732 34.6239 30.2163 34.6239L30.217 34.6242ZM31.4633 33.3611C31.4617 33.3591 31.325 33.1874 31.19 32.9746C31.0482 32.7512 30.9171 32.5176 30.9171 32.3272C30.9171 32.1429 30.8744 31.7545 30.8489 31.5394C30.8166 31.2666 30.784 31.033 30.7813 31.0132H30.7824C30.8128 31.0245 31.5312 31.2978 31.5312 31.9812C31.5312 32.6646 31.4646 33.3535 31.464 33.3603V33.3614H31.4631L31.4633 33.3611ZM30.5324 33.2962C30.5248 33.2962 30.5173 33.2955 30.5098 33.2943C30.2975 33.2583 29.9241 33.0937 29.512 32.8539C29.054 32.5876 28.6821 32.3022 28.4648 32.0504C28.2665 31.8208 28.1494 31.4602 28.1151 30.9787C28.1 30.7606 28.1027 30.5416 28.123 30.324C28.1613 30.3114 28.2013 30.3052 28.2415 30.3057C28.4004 30.3083 28.5701 30.3809 28.7992 30.541C29.008 30.6917 29.2037 30.8603 29.3841 31.0449C29.6132 31.2757 29.8297 31.5189 30.0329 31.7735L30.0358 31.7771C30.0597 31.8205 30.2644 32.1949 30.424 32.5593C30.5037 32.727 30.5649 32.9032 30.6064 33.0845C30.622 33.1376 30.622 33.1942 30.6064 33.2473C30.5997 33.2645 30.5874 33.2789 30.5717 33.2882C30.5591 33.2937 30.5456 33.2965 30.532 33.2965L30.5324 33.2962Z" fill="#4E5B31"/>
<path id="branch_2" d="M43.3635 42.4215C43.3754 42.4164 43.386 42.4087 43.3948 42.3991L43.406 42.3884C43.4562 42.341 43.5037 42.2908 43.5486 42.2382C43.6687 42.1 43.8297 41.8975 43.9713 41.7186C44.252 41.3637 44.484 41.058 44.5277 41.0004L44.5991 40.9061L45.2991 40.6872L45.8101 40.4455L45.5371 40.1342L44.5991 40.5415L43.8992 40.6872L42.6048 41.6527L42.6058 41.6536C42.6084 41.6558 42.7941 41.8124 42.9785 41.9826C43.0608 42.0585 43.1645 42.1563 43.2378 42.237C43.268 42.2698 43.296 42.3046 43.3216 42.3412C43.337 42.3671 43.351 42.394 43.3635 42.4216M48.1704 40.9574C48.8019 40.9515 49.4205 40.7759 49.9633 40.4486H49.964V40.4478C49.8979 40.3361 49.8096 40.2396 49.7046 40.1645C49.5297 40.0342 49.2142 39.8786 48.7043 39.8766H48.6937C48.09 39.8766 47.351 40.0848 46.4973 40.4954C47.0034 40.8004 47.5818 40.9601 48.1704 40.9574L48.1695 40.9583L48.1704 40.9574ZM50.8172 40.3624C50.9252 40.3645 51.0289 40.3202 51.1029 40.2405C51.1668 40.1652 51.2108 40.0746 51.2308 39.9774C51.2597 39.8512 51.2704 39.7213 51.2625 39.592C51.218 39.5724 51.1702 39.5614 51.1217 39.5596H51.1116C50.8853 39.5596 50.707 39.7587 50.6306 39.956C50.5889 40.0433 50.5801 40.1429 50.6059 40.2363C50.6443 40.3179 50.7278 40.3675 50.8168 40.3615L50.8172 40.3624ZM46.1599 39.8149C47.7242 39.5883 48.3873 39.0147 48.6682 38.5734C48.846 38.3056 48.9296 37.985 48.9055 37.6631V37.6618H48.9044C48.8258 37.6435 48.7454 37.6345 48.6648 37.635C48.2487 37.635 47.1842 37.8473 46.1595 39.8141L46.1589 39.8154L46.1607 39.8145L46.1599 39.8149ZM49.3663 39.5005C50.0346 39.5005 50.5434 39.3835 50.8787 39.1531C51.0212 39.0606 51.136 38.9301 51.2108 38.7761C51.2381 38.7177 51.2562 38.6553 51.2644 38.5912C51.0417 38.4996 50.8048 38.4486 50.5646 38.4404C50.5301 38.4388 50.4953 38.4378 50.4588 38.4377C49.9422 38.4377 49.1568 38.6086 48.3279 39.423L48.3271 39.4238H48.328C48.6724 39.4719 49.0195 39.4975 49.3671 39.5006L49.3663 39.5005ZM52.6025 39.3743C53.3072 39.3743 54.2753 39.1561 54.8791 38.5438L54.8797 38.5431H54.8779C54.419 38.4331 53.9504 38.3699 53.479 38.3546C53.4351 38.3535 53.3907 38.3529 53.3461 38.3529C52.6854 38.3529 52.1796 38.4828 51.8428 38.739C51.7487 38.7963 51.6787 38.887 51.6465 38.9934C51.639 39.0719 51.6759 39.1479 51.7416 39.1899C51.8933 39.3061 52.1645 39.368 52.5477 39.3742L52.6018 39.3761L52.6025 39.3743ZM54.8861 38.1861C54.9725 38.1863 55.0545 38.1471 55.1095 38.0795C55.1603 38.0118 55.1945 37.9328 55.2093 37.849C55.2323 37.7387 55.2411 37.6258 55.2355 37.5132V37.5115C55.2011 37.4954 55.1637 37.4868 55.1259 37.4864C55.0374 37.4897 54.9538 37.5276 54.8925 37.5922C54.8243 37.66 54.7723 37.7427 54.7404 37.834C54.7085 37.9101 54.7027 37.9949 54.7242 38.0748C54.7505 38.1422 54.8149 38.1861 54.8864 38.1854L54.8861 38.1861ZM49.6114 38.0655C49.7194 38.0676 49.8231 38.0234 49.8971 37.9437C49.961 37.8683 50.0051 37.7779 50.0252 37.6806C50.0541 37.5544 50.0648 37.4245 50.0569 37.2952C50.0124 37.2756 49.9646 37.2647 49.9161 37.2628H49.906C49.6797 37.2628 49.5014 37.4619 49.425 37.6592C49.3833 37.7465 49.3745 37.8461 49.4003 37.9395C49.4386 38.0212 49.5222 38.0708 49.6111 38.0648L49.6114 38.0655ZM52.1807 37.9576C53.5989 37.907 54.3345 37.4982 54.7026 37.164C54.8599 37.0242 54.9896 36.8552 55.0847 36.6662C55.1201 36.5952 55.1475 36.5205 55.1665 36.4433L55.1646 36.4425C55.0511 36.4076 54.9331 36.3898 54.8145 36.3896H54.7813C54.3031 36.3896 53.3294 36.5933 52.1812 37.9574V37.9583L52.1807 37.9576ZM50.6406 37.8123C51.7816 37.6361 52.428 37.1393 52.7693 36.7535C52.98 36.524 53.1402 36.2518 53.2391 35.9548C53.1238 35.928 53.006 35.9136 52.8877 35.9119C52.8724 35.9119 52.8566 35.9113 52.8405 35.9113C52.8243 35.9113 52.8076 35.9113 52.7906 35.9119C52.2167 35.9246 51.1744 36.1882 50.6408 37.8117H50.6399L50.6406 37.8123ZM56.4983 37.2566C56.8614 37.2578 57.2235 37.2138 57.5761 37.1257C58.1735 36.9742 58.4298 36.7429 58.5395 36.5754C58.5869 36.506 58.6185 36.427 58.6325 36.3438C58.6374 36.3114 58.6384 36.2785 58.6352 36.2457L58.6325 36.2447C58.3239 36.1671 58.0074 36.1264 57.6895 36.1233C57.6679 36.1233 57.6462 36.1228 57.6241 36.1228C57.365 36.1223 57.1065 36.1478 56.8523 36.1987C56.2759 36.3209 55.7622 36.65 55.4057 37.1255V37.1263H55.4068C55.7643 37.2149 56.1311 37.2585 56.4991 37.2561L56.4983 37.2566ZM53.8497 36.2805C53.9572 36.2834 54.061 36.2403 54.1355 36.1616C54.1996 36.0854 54.2437 35.994 54.2635 35.8959C54.2924 35.7706 54.3031 35.6418 54.2951 35.5133C54.2506 35.4938 54.2029 35.4828 54.1544 35.481H54.1443C53.9184 35.481 53.7398 35.6802 53.6631 35.8775C53.6223 35.964 53.6146 36.0628 53.6412 36.1548C53.6778 36.2369 53.7608 36.2871 53.8494 36.2809L53.8497 36.2805ZM55.8413 36.0035C56.2205 35.8947 56.5833 35.734 56.9198 35.526C57.4194 35.214 58.0306 34.6622 58.1051 33.8049H58.1038C58.0659 33.7967 58.0274 33.792 57.9886 33.7908C57.9796 33.7908 57.9691 33.7903 57.9585 33.7903C57.8093 33.7903 57.5038 33.8329 57.1342 34.1179C56.6638 34.4816 56.2294 35.1159 55.841 36.0053L55.8413 36.0035ZM54.5409 35.9551C54.8504 35.8125 55.1377 35.6252 55.3942 35.399C56.057 34.8204 56.5736 34.0893 56.9006 33.2667C56.819 33.2278 56.7307 33.2056 56.6406 33.201C56.6316 33.2004 56.6225 33.2002 56.613 33.2002C56.5995 33.2002 56.5855 33.2002 56.5713 33.201C56.354 33.2073 56.0231 33.2988 55.6562 33.7004C55.2348 34.1616 54.8587 34.9196 54.5387 35.9534L54.5378 35.9564L54.5405 35.9554L54.5409 35.9551ZM57.9104 35.8555C58.3449 35.8555 58.4936 35.6164 58.5374 35.5136C58.581 35.4065 58.5981 35.2902 58.5873 35.1748V35.173C58.5166 35.1551 58.4439 35.1455 58.371 35.1443H58.3561C58.0721 35.1372 57.8017 35.2675 57.6276 35.4953C57.6047 35.53 57.5342 35.6502 57.5925 35.744C57.6393 35.8181 57.7457 35.8556 57.9106 35.8556L57.9104 35.8555ZM58.8729 34.6242C59.2094 34.625 59.5454 34.5959 59.8769 34.5372C60.2639 34.4658 60.4832 34.1321 60.599 33.8649C60.6769 33.6822 60.7314 33.49 60.7612 33.2933H60.7601C59.5632 33.3289 58.9979 33.6836 58.7345 33.9748C58.5713 34.1471 58.4695 34.3699 58.4455 34.6075H58.4464C58.4482 34.6075 58.6167 34.6239 58.8735 34.6239L58.8729 34.6242ZM57.6266 33.3611C57.6282 33.3591 57.7649 33.1874 57.8999 32.9746C58.0416 32.7512 58.1728 32.5176 58.1728 32.3272C58.1728 32.1429 58.2155 31.7545 58.241 31.5394C58.2732 31.2666 58.3059 31.033 58.3086 31.0132H58.3074C58.277 31.0245 57.5587 31.2978 57.5587 31.9812C57.5587 32.6646 57.6252 33.3535 57.6258 33.3603V33.3614H57.6267L57.6266 33.3611ZM58.5575 33.2962C58.565 33.2962 58.5725 33.2955 58.58 33.2943C58.7923 33.2583 59.1658 33.0937 59.5779 32.8539C60.0359 32.5876 60.4078 32.3022 60.6251 32.0504C60.8233 31.8208 60.9405 31.4602 60.9747 30.9787C60.9899 30.7606 60.9872 30.5416 60.9669 30.324C60.9286 30.3114 60.8886 30.3052 60.8484 30.3057C60.6894 30.3083 60.5197 30.3809 60.2906 30.541C60.0818 30.6917 59.8862 30.8603 59.7058 31.0449C59.4767 31.2757 59.2601 31.5189 59.0569 31.7735L59.054 31.7771C59.0301 31.8205 58.8254 32.1949 58.6659 32.5593C58.5861 32.727 58.5249 32.9032 58.4835 33.0845C58.4678 33.1376 58.4678 33.1942 58.4835 33.2473C58.4902 33.2645 58.5024 33.2789 58.5182 33.2882C58.5307 33.2937 58.5442 33.2965 58.5578 33.2965L58.5575 33.2962Z" fill="#4E5B31"/>
<path id="Vector_2" d="M69.5191 5.6083L69.3068 5.69403L69.2237 5.72767L68.9665 5.71332L68.7256 5.83059L68.2984 6.12663L68.2796 6.14034L68.1203 6.18247L67.9725 6.11776L67.8885 6.15652L67.8595 6.332L67.7796 6.45804L67.6812 6.52815L67.3403 6.56352L67.0528 6.71387L66.6788 6.61232L66.5051 6.68133L66.1356 7.01878L65.9468 7.10945L65.8808 7.10561L65.6305 7.09254L65.5248 7.12763L65.3669 7.28237L65.0681 7.30595L64.975 7.3713L64.8292 7.66927L64.6712 7.83452L64.5811 7.85389L64.4832 7.81733L64.4095 7.8305L64.3762 8.02115L64.3047 8.10104L64.1048 8.17087L63.945 8.30586L63.8048 8.37898L63.6169 8.37423H63.5738L63.3867 8.47897L63.0352 8.51023L62.8889 8.65181L62.8566 8.68206L62.7883 8.72392L62.6766 8.79156L62.6495 8.80838L62.5143 8.78397L62.3566 8.84731L62.2928 8.74778L62.1837 8.81423L62.0395 8.82053L61.8593 8.73928L61.7221 8.67731L61.6218 8.69203L61.5869 8.86934L61.5834 8.88817L61.478 9.03048L61.2812 9.1514L61.2541 9.18677L61.0302 9.47998L60.6046 9.93387L60.2448 10.1192L59.8718 10.2343L59.6105 10.4518L58.9256 10.7961L57.8446 11.3421L57.6235 11.4139L57.3063 11.4653L56.7406 11.6766L56.2414 11.8293L56.2136 11.8379L56.1145 11.8682L55.4107 12.0842L55.0831 12.0491L54.8891 12.1206L54.384 12.0637L54.0325 12.0708L53.8102 12.1177L53.3923 12.3209L52.6869 12.6648L52.4539 12.881L52.091 13.073L51.6661 13.2094L51.6671 13.0284L51.6645 13.0207L51.5171 13.068L51.4107 13.102L51.066 13.156H50.8742L50.7552 13.1209L50.7371 13.1272L50.0326 13.362L49.2468 13.4389L48.8537 13.5669L48.5599 13.5622L48.3762 13.6175L48.0157 13.6622L47.887 13.6274L47.858 13.6194L46.7991 13.666L46.315 13.6105L46.084 13.6638L45.6964 13.5316L45.1315 13.4652L44.9995 13.4251L44.7021 13.3357L44.5677 13.4142L44.4671 13.4251L44.2268 13.3367L44.1403 13.3345L43.942 13.4076L43.8278 13.3779L43.7218 13.2922L43.473 13.2546L43.3214 13.1254L42.4743 13.2392L42.2444 13.1707L41.4735 12.9429L41.3508 12.9492L41.1976 13.0654L40.968 13.1503L40.7687 13.2029L40.4972 13.212L40.1818 13.1281L39.8569 12.9683L39.7367 12.9394L39.4687 12.9668L39.3867 12.9743L38.8941 12.7063L38.2595 12.3041L37.8289 12.0939L37.6673 12.0673L37.6455 12.1453L37.7257 12.4012L37.7528 12.6547L37.7446 12.889L37.7402 13.034L37.7804 13.1643L37.9358 13.339L38.0006 13.5145L38.048 13.9975L38.0475 14.4876L37.9719 15.2691L37.9464 15.3879L37.8562 15.7928L37.7739 16.1647L37.4543 17.1549L37.3665 17.2776L37.1511 17.4267L36.6627 17.7638L36.3031 17.974L36.1893 18.0218L35.8974 18.0442L35.7156 18.0351L35.4891 17.9107L35.2668 17.8526L34.9755 17.6402L34.6511 17.5722L34.2959 17.364L34.2035 17.2513L34.0101 17.233L33.7419 17.1514V17.1509L33.6434 17.1211L33.5753 17.101L33.2329 17.0918L32.9139 16.9425L32.7459 16.9013L32.5164 16.8895L32.2761 17.0028L32.1544 17.0603L32.0005 16.9983L31.8892 17.0053L31.7631 17.1987L31.7476 17.2282L31.6607 17.2748L31.5525 17.2732L31.4679 17.271L31.3764 17.3115L31.2531 17.3657L31.1442 17.4139L31.091 17.4372L31.0901 17.4363L31.0574 17.443L30.9993 17.4532L30.9272 17.4672L30.8001 17.3919L30.7326 17.3515L30.6193 17.3281L30.5583 17.3728L30.5463 17.583L30.4906 17.7089L30.3139 17.8674L30.1343 18.0278L30.0091 18.2149L29.6778 18.9818L29.4705 19.2912L29.4061 19.3633L29.1882 19.6064L28.9957 19.7578L28.5521 20.1065L28.1323 20.2657L27.7706 20.3406L27.5948 20.3413L27.2614 20.2964L26.9619 20.2031L26.633 19.9946L26.2725 19.7005L25.7504 19.1774L25.6765 19.1323L25.6611 19.1219L25.4966 19.0152L25.3746 19.0184L25.3268 19.0983L25.3007 19.2137L25.2786 19.3161L25.2188 19.898L25.2232 19.9318L25.2546 20.1714L25.6511 20.7335L25.7735 21.0321L25.7936 21.0662L25.8754 21.2056L25.9377 21.3119L25.9439 21.3227L26.0791 21.7329L25.9839 21.9645L26.032 22.1199L25.9116 22.2147L25.8895 22.3486L26.2456 22.8013L26.3232 23.001L26.2365 23.2778L26.098 23.4305L26.0594 23.4723L26.0788 23.5893L26.2427 23.7387L26.5211 23.9901L26.6695 24.3635L26.7824 24.4641L26.9136 24.4358L26.9866 24.4922L27.0973 24.4903L27.2061 24.6007L27.2766 24.6354L27.388 24.6917L27.476 24.8079L27.4955 25.1654L27.6597 25.6096L27.6622 25.8504L27.6631 25.8846L27.7653 26.0627L27.7974 26.2032L27.7433 26.5751L27.8735 26.6945L28.0148 26.6653L28.106 26.6799L28.2525 26.8036L28.4299 27.0778L28.6035 27.0521L28.7136 27.1059L29.2453 27.5934L29.366 27.6552L29.3727 27.659L29.4595 27.7032L29.5676 27.8136L29.7349 27.701L29.7534 27.6991L29.9353 27.6828L30.0151 27.7376L30.1683 27.8427L30.3696 27.84L30.8062 27.9757L30.9971 28.0254L31.3811 28.2674L31.5443 28.3698L31.6409 28.4494L31.7693 28.5555L32.0257 28.6674L32.2456 28.7207L32.3647 28.7494L32.4548 28.7845L32.4571 28.7789H32.4583L32.4562 28.7846L32.9323 28.9695L33.1903 29.0306L33.4289 29.1197L33.6026 29.1837L33.73 29.1858L33.9102 29.032L34.0848 29.0218L34.2298 29.0584L34.3713 29.0343L34.5952 28.8944L34.6389 28.8287L34.7977 28.752L35.3334 28.6845L35.4899 28.7361L35.8918 28.5588L36.1611 28.6347L36.3995 28.549L36.9203 28.6664L37.0587 28.7652L37.2134 28.9448L37.2323 28.9456L37.4047 28.949L37.3326 29.0706L37.5599 29.3125L37.7653 29.6274L37.7792 29.669L37.9285 30.1136L38.0395 30.2711L38.1172 30.4909L38.121 30.6342L38.0002 30.7276L37.9804 30.7809L37.9736 30.8006L37.9981 30.8605L38.0437 30.8353L38.1305 30.7865L38.2361 30.7699L38.4223 30.79L38.5452 30.8031L38.7393 30.7054L38.8679 30.6405L39.0745 30.7307L39.3016 30.7281L39.397 30.7712L39.6673 30.8953L39.8051 30.9085L39.8561 30.8746L39.8885 30.7963L39.8718 30.7049L39.7681 30.5844L39.54 30.3158L39.4466 30.1778L39.3755 29.978L39.3536 29.7225L39.3379 29.5502L39.3662 29.3238L39.4275 29.243L39.4725 29.0631H39.4733L39.4849 29.0161L39.6117 28.8455L39.9473 28.6268L40.3077 28.2994L40.5927 28.1088L40.8865 27.9798L40.8943 27.9432L40.927 27.9565L41.6743 27.6989L41.6866 27.6974L42.0193 27.6387L44.2651 27.7991L44.3484 27.7736V27.773L44.4232 27.5601L44.4634 27.5206L44.4905 27.4948L44.7374 27.3846L44.8528 27.3678L45.1733 27.4481L45.3045 27.4809L45.5147 27.3614L45.6637 27.364L45.9717 27.1935L46.1619 27.1983L46.234 27.169L46.6046 26.8989L46.9615 26.7951L47.0543 26.7451L47.0871 26.7268L47.4529 26.5308L47.6854 26.3497L47.886 26.2416L48.1057 26.1841L48.6806 26.1431L48.7962 25.9477L49.0435 25.9142L49.1929 25.7433L49.3641 25.6728L49.4866 25.4939L49.5892 25.3439L49.7326 25.2597L50.1922 25.2305L50.737 25.2989L50.809 25.2546L50.9321 24.809L51.061 24.7254L51.4081 24.2125L51.4092 24.0256V23.8694L51.4663 23.6472L51.4275 23.2458L51.4735 22.8395L51.6892 22.3231L51.8793 22.1148L52.1857 21.9045L52.3415 21.8357L52.5622 21.7981V21.7981L52.5947 21.7926L52.6509 21.7828L53.4109 21.7722C53.4214 21.7642 53.6872 21.7684 53.6872 21.7684L53.9407 21.7649L54.5819 21.8804L54.6275 21.8885L54.8438 21.9597L55.0938 22.1568L55.3586 22.419L55.4082 22.4679L55.5795 22.541L55.6313 22.564L55.7729 22.541L55.9745 22.4346L56.1266 22.3041L56.3338 22.1892L56.3389 22.1819L56.4556 22.0039L56.4591 22.0002L56.4616 22.0009V21.9999H56.4597L56.5057 21.929L56.9065 21.7706L57.3778 21.7432L57.4308 21.7142L57.4602 21.6982L57.5848 21.5498L57.7015 21.5489L57.984 21.6525L58.1823 21.6125L58.34 21.6765L58.4625 21.6618L58.6937 21.6344L58.9419 21.8114L59.0865 21.8297L59.5964 22.1322L59.6229 22.1366L59.6366 22.1392L59.6658 22.1441L59.7263 22.1258L59.8164 22.0994L59.8283 22.0958L59.8396 22.1118L59.8976 22.1947L59.9771 22.2062L60.0711 22.0789L60.0337 22.0212L60.0196 22.0001L59.8375 21.9626L59.6739 21.6792L59.8296 21.5091L59.5853 21.2051L59.5448 21.1548L59.531 21.1334L59.4465 21.0033L59.0188 20.3421L58.4617 19.891L58.2666 19.7327L58.2654 19.7318L58.197 19.677L57.8997 19.37L57.6872 19.084L57.6593 19.0224L57.6154 18.9253L57.4881 18.644L57.2662 18.4703L57.0854 18.27L57.0764 18.2583L56.7033 17.744L56.642 17.6578L56.5539 17.6062L56.3677 17.6049L56.3497 17.5866L56.3393 17.5756L56.3456 17.5688L56.4349 17.4788L56.5344 17.4534L56.5773 17.3539L56.3874 16.7963L56.3861 16.7769L56.372 16.5986L56.5268 15.7893L56.5466 15.6907L56.8105 15.1461L56.974 15.0103L57.1524 14.6546L57.3056 14.4272L57.452 14.2826L57.4776 14.2672L57.742 14.1049L57.9642 14.0732L58.1758 14.0429L58.5453 14.1584L58.8967 14.1515L58.9653 14.1441L59.1248 14.1258L59.3871 14.042L59.511 13.9645L59.5752 13.8646L59.7092 13.4088L59.7523 13.2637L59.8349 13.1062L60.3131 12.5479L60.6746 12.2088L61.4874 11.6044L61.8852 11.3632L62.0884 11.2401L63.9021 10.4224L64.3734 9.93798L64.619 9.6859L65.0534 9.39023L65.5618 9.179L65.9992 8.82785L66.0947 8.70592L66.2151 8.3129L66.3154 8.28832L66.4056 8.08961L66.4313 8.03313L66.7883 7.77794L66.8287 7.75756L68.2154 7.05287L68.4169 7.08093L68.5251 6.91705L68.9285 6.84841L69.0028 6.83561L69.1019 6.78525L69.1865 6.63901V6.61013L69.1982 6.21958L69.2843 6.11402L69.3313 5.85663L69.3755 5.79722L69.4217 5.73544L69.536 5.654L69.5162 5.60547L69.5191 5.6083Z" fill="#D57800"/>
</g>
</g>
</g>
<defs>
<clipPath id="clip0_877_7106">
<rect width="95" height="48" rx="5" fill="white"/>
</clipPath>
</defs>
</svg>
