<svg width="95" height="48" viewBox="0 0 95 48" fill="none" xmlns="http://www.w3.org/2000/svg">
<g id="Flag_of_Georgia 1" clip-path="url(#clip0_877_7146)">
<path id="Vector" d="M0 -6.85742H96V57.0223H0V-6.85742Z" fill="white"/>
<path id="Vector_2" d="M41.6 -6.85742H54.4V57.0223H41.6V-6.85742ZM0 18.6945H96V31.4704H0V18.6945Z" fill="#FF0000"/>
<g id="c">
<g id="b">
<path id="a" d="M18.6758 3.24805C20.0048 3.42227 21.3509 3.42227 22.6799 3.24805C21.9084 7.0859 21.9084 11.0385 22.6799 14.8764C21.3509 14.7021 20.0048 14.7021 18.6758 14.8764C19.4473 11.0385 19.4473 7.0859 18.6758 3.24805Z" fill="#FF0000"/>
<path id="a_2" d="M26.5 7.06445C26.3254 8.39095 26.3254 9.73454 26.5 11.061C22.6549 10.291 18.6949 10.291 14.8498 11.061C15.0243 9.73454 15.0243 8.39095 14.8498 7.06445C18.6949 7.83453 22.6549 7.83453 26.5 7.06445Z" fill="#FF0000"/>
</g>
<g id="b_2">
<path id="a_3" d="M73.3789 3.24805C74.7079 3.42227 76.054 3.42227 77.383 3.24805C76.6115 7.0859 76.6115 11.0385 77.383 14.8764C76.054 14.7021 74.7079 14.7021 73.3789 14.8764C74.1504 11.0385 74.1504 7.0859 73.3789 3.24805Z" fill="#FF0000"/>
<path id="a_4" d="M81.2031 7.06445C81.0286 8.39095 81.0286 9.73454 81.2031 11.061C77.358 10.291 73.398 10.291 69.5529 11.061C69.7275 9.73454 69.7275 8.39095 69.5529 7.06445C73.398 7.83453 77.358 7.83453 81.2031 7.06445Z" fill="#FF0000"/>
</g>
</g>
<g id="c_2">
<g id="b_3">
<path id="a_5" d="M18.6758 33.4854C20.0048 33.6596 21.3509 33.6596 22.6799 33.4854C21.9084 37.3232 21.9084 41.2758 22.6799 45.1137C21.3509 44.9394 20.0048 44.9394 18.6758 45.1137C19.4473 41.2758 19.4473 37.3232 18.6758 33.4854Z" fill="#FF0000"/>
<path id="a_6" d="M26.5 37.3018C26.3254 38.6283 26.3254 39.9718 26.5 41.2983C22.6549 40.5283 18.6949 40.5283 14.8498 41.2983C15.0243 39.9718 15.0243 38.6283 14.8498 37.3018C18.6949 38.0718 22.6549 38.0718 26.5 37.3018Z" fill="#FF0000"/>
</g>
<g id="b_4">
<path id="a_7" d="M73.5391 33.4854C74.8681 33.6596 76.2142 33.6596 77.5432 33.4854C76.7717 37.3232 76.7717 41.2758 77.5432 45.1137C76.2142 44.9394 74.8681 44.9394 73.5391 45.1137C74.3106 41.2758 74.3106 37.3232 73.5391 33.4854Z" fill="#FF0000"/>
<path id="a_8" d="M81.3633 37.3018C81.1887 38.6283 81.1887 39.9718 81.3633 41.2983C77.5182 40.5283 73.5582 40.5283 69.7131 41.2983C69.8876 39.9718 69.8876 38.6283 69.7131 37.3018C73.5582 38.0718 77.5182 38.0718 81.3633 37.3018Z" fill="#FF0000"/>
</g>
</g>
</g>
<defs>
<clipPath id="clip0_877_7146">
<rect width="96" height="48" fill="white"/>
</clipPath>
</defs>
</svg>
