<svg width="95" height="48" viewBox="0 0 95 48" fill="none" xmlns="http://www.w3.org/2000/svg">
<g id="Flag_of_Belarus 1" clip-path="url(#clip0_877_7239)">
<path id="Vector" d="M0 0H96V48H0V0Z" fill="#CE1720"/>
<g id="Clip path group">
<mask id="mask0_877_7239" style="mask-type:luminance" maskUnits="userSpaceOnUse" x="-1" y="-2" width="13" height="52">
<g id="p">
<path id="Vector_2" d="M-0.726562 -1.88574H10.7782V33.0886H11.2383V49.4253L10.7782 49.8855H-0.726562V-1.88574Z" fill="white"/>
</g>
</mask>
<g mask="url(#mask0_877_7239)">
<g id="Group">
<g id="b">
<path id="a" d="M1.34354 -1.88574V-1.08041H0.825825V-0.275082H0.193066V0.645295H-0.267123V1.3931H-1.1875V-0.505177H-0.267123V-1.5406H-1.1875V-1.88574H1.34354ZM2.83915 2.54357V3.40643H2.37896V4.09671H1.91877V3.40643H1.45858V2.54357H0.998396V1.3931H1.45858V0.530248H1.91877V-0.160035H2.37896V0.530248H2.83915V1.3931H3.29934V2.54357H2.83915ZM1.86125 2.48605H2.43649V1.45062H1.86125V2.48605ZM0.365637 8.64107H0.825825V7.60565H0.365637V8.64107ZM3.47191 8.64107H3.9321V7.60565H3.47191V8.64107ZM-1.1875 15.6589H-0.38217V16.4068H-0.0370283V17.3271H0.480684V18.19H1.17097V17.3271H1.68868V16.4068H2.14887V15.6589H1.45858V14.7961H2.66658V15.3713H3.41439V16.3492H4.04715V17.4422H3.58696V18.2475H3.18429V18.9953H2.83915V19.8006H2.32144V20.4909H1.91877V21.1237H1.40106V21.929H0.653255V21.0662H0.135542V20.2608H-0.267123V19.7431H-1.1875V18.4201H-0.267123V17.2696H-1.1875V15.6589Z" fill="white"/>
<path id="a_2" d="M8.70724 -1.88574V-1.08041H9.22496V-0.275082H9.85772V0.645295H10.3179V1.3931H11.2383V-0.505177H10.3179V-1.5406H11.2383V-1.88574H8.70724ZM7.21163 2.54357V3.40643H7.67182V4.09671H8.13201V3.40643H8.5922V2.54357H9.05239V1.3931H8.5922V0.530248H8.13201V-0.160035H7.67182V0.530248H7.21163V1.3931H6.75144V2.54357H7.21163ZM8.18953 2.48605H7.6143V1.45062H8.18953V2.48605ZM9.68514 8.64107H9.22496V7.60565H9.68514V8.64107ZM6.57887 8.64107H6.11868V7.60565H6.57887V8.64107ZM11.2383 15.6589H10.433V16.4068H10.0878V17.3271H9.5701V18.19H8.87981V17.3271H8.3621V16.4068H7.90191V15.6589H8.5922V14.7961H7.3842V15.3713H6.63639V16.3492H6.00364V17.4422H6.46382V18.2475H6.86649V18.9953H7.21163V19.8006H7.72934V20.4909H8.13201V21.1237H8.64972V21.929H9.39753V21.0662H9.91524V20.2608H10.3179V19.7431H11.2383V18.4201H10.3179V17.2696H11.2383V15.6589Z" fill="white"/>
<path id="Vector_3" d="M4.79495 -1.88574V-0.0449874H5.25514V-1.88574H7.0959V-1.08041H6.63571V-0.275082H5.94542V0.645296H5.48524V1.3931H4.56486V0.645296H4.10467V-0.275082H3.41439V-1.08041H2.9542V-1.88574H4.79495ZM4.67991 13.8757V13.243H4.33476V12.4952H3.9321V11.6898H3.47191V10.8845H3.01172V10.3093H2.49401V9.50393H1.80373V10.3093H1.28601V10.8845H0.883349V11.6898H0.42316V12.4952H0.0780188V13.243H-0.267123V14.2209H-1.1875V11.6898H-0.267123V10.5394H-1.1875V8.64107H-0.267123V9.4464H0.308113V10.2517H0.883349V9.4464H1.45858V8.64107H1.91877V7.60565H1.45858V6.80032H0.883349V5.99499H0.308113V6.80032H-0.267123V7.60565H-1.1875V5.24718H-0.267123V4.15423H-1.1875V2.54357H-0.267123V3.29138H0.193066V4.21176H0.825825V4.95956H1.34354V5.82242H1.7462V6.5127H2.55153V5.82242H2.9542V4.95956H3.47191V4.21176H4.10467V3.29138H4.56486V2.54357H5.48524V3.29138H5.94542V4.21176H6.57818V4.95956H7.0959V5.82242H7.49856V6.5127H8.30389V5.82242H8.70656V4.95956H9.22427V4.21176H9.85703V3.29138H10.3172V2.54357H11.2376V4.15423H10.3172V5.24718H11.2376V7.60565H10.3172V6.80032H9.74198V5.99499H9.16675V6.80032H8.59151V7.60565H8.13132V8.64107H8.59151V9.4464H9.16675V10.2517H9.74198V9.4464H10.3172V8.64107H11.2376V10.5394H10.3172V11.6898H11.2376V14.2209H10.3172V13.243H9.97207V12.4952H9.62693V11.6898H9.16675V10.8845H8.76408V10.3093H8.24637V9.50393H7.55608V10.3093H7.03837V10.8845H6.57818V11.6898H6.11799V12.4952H5.71533V13.243H5.37019V13.8757H4.67991ZM4.79495 4.26928V5.82242H5.25514V4.26928H4.79495ZM4.56486 7.60565V6.80032H3.98962V5.99499H3.41439V6.80032H2.83915V7.60565H2.37896V8.64107H2.83915V9.4464H3.41439V10.2517H3.98962V9.4464H4.56486V8.64107H5.48524V9.4464H6.06047V10.2517H6.63571V9.4464H7.21094V8.64107H7.67113V7.60565H7.21094V6.80032H6.63571V5.99499H6.06047V6.80032H5.48524V7.60565H4.56486ZM4.79495 10.2517V11.8049H5.25514V10.2517H4.79495Z" fill="white"/>
</g>
<g id="b_2">
<path id="a_3" d="M1.34354 49.8857V49.0804H0.825825V48.2751H0.193066V47.3547H-0.267123V46.6069H-1.1875V48.5052H-0.267123V49.5406H-1.1875V49.8857H1.34354ZM2.83915 45.4564V44.5936H2.37896V43.9033H1.91877V44.5936H1.45858V45.4564H0.998396V46.6069H1.45858V47.4698H1.91877V48.16H2.37896V47.4698H2.83915V46.6069H3.29934V45.4564H2.83915ZM1.86125 45.514H2.43649V46.5494H1.86125V45.514ZM0.365637 39.3589H0.825825V40.3944H0.365637V39.3589ZM3.47191 39.3589H3.9321V40.3944H3.47191V39.3589ZM-1.1875 32.3411H-0.38217V31.5932H-0.0370283V30.6729H0.480684V29.81H1.17097V30.6729H1.68868V31.5932H2.14887V32.3411H1.45858V33.2039H2.66658V32.6287H3.41439V31.6508H4.04715V30.5578H3.58696V29.7525H3.18429V29.0047H2.83915V28.1994H2.32144V27.5091H1.91877V26.8763H1.40106V26.071H0.653255V26.9338H0.135542V27.7392H-0.267123V28.2569H-1.1875V29.5799H-0.267123V30.7304H-1.1875V32.3411Z" fill="white"/>
<path id="a_4" d="M8.70724 49.8857V49.0804H9.22496V48.2751H9.85772V47.3547H10.3179V46.6069H11.2383V48.5052H10.3179V49.5406H11.2383V49.8857H8.70724ZM7.21163 45.4564V44.5936H7.67182V43.9033H8.13201V44.5936H8.5922V45.4564H9.05239V46.6069H8.5922V47.4698H8.13201V48.16H7.67182V47.4698H7.21163V46.6069H6.75144V45.4564H7.21163ZM8.18953 45.514H7.6143V46.5494H8.18953V45.514ZM9.68514 39.3589H9.22496V40.3944H9.68514V39.3589ZM6.57887 39.3589H6.11868V40.3944H6.57887V39.3589ZM11.2383 32.3411H10.433V31.5932H10.0878V30.6729H9.5701V29.81H8.87981V30.6729H8.3621V31.5932H7.90191V32.3411H8.5922V33.2039H7.3842V32.6287H6.63639V31.6508H6.00364V30.5578H6.46382V29.7525H6.86649V29.0047H7.21163V28.1994H7.72934V27.5091H8.13201V26.8763H8.64972V26.071H9.39753V26.9338H9.91524V27.7392H10.3179V28.2569H11.2383V29.5799H10.3179V30.7304H11.2383V32.3411Z" fill="white"/>
<path id="Vector_4" d="M4.79495 49.8857V48.045H5.25514V49.8857H7.0959V49.0804H6.63571V48.2751H5.94542V47.3547H5.48524V46.6069H4.56486V47.3547H4.10467V48.2751H3.41439V49.0804H2.9542V49.8857H4.79495ZM4.67991 34.1243V34.757H4.33476V35.5048H3.9321V36.3102H3.47191V37.1155H3.01172V37.6907H2.49401V38.4961H1.80373V37.6907H1.28601V37.1155H0.883349V36.3102H0.42316V35.5048H0.0780188V34.757H-0.267123V33.7791H-1.1875V36.3102H-0.267123V37.4606H-1.1875V39.3589H-0.267123V38.5536H0.308113V37.7483H0.883349V38.5536H1.45858V39.3589H1.91877V40.3944H1.45858V41.1997H0.883349V42.005H0.308113V41.1997H-0.267123V40.3944H-1.1875V42.7528H-0.267123V43.8458H-1.1875V45.4564H-0.267123V44.7086H0.193066V43.7882H0.825825V43.0404H1.34354V42.1776H1.7462V41.4873H2.55153V42.1776H2.9542V43.0404H3.47191V43.7882H4.10467V44.7086H4.56486V45.4564H5.48524V44.7086H5.94542V43.7882H6.57818V43.0404H7.0959V42.1776H7.49856V41.4873H8.30389V42.1776H8.70656V43.0404H9.22427V43.7882H9.85703V44.7086H10.3172V45.4564H11.2376V43.8458H10.3172V42.7528H11.2376V40.3944H10.3172V41.1997H9.74198V42.005H9.16675V41.1997H8.59151V40.3944H8.13132V39.3589H8.59151V38.5536H9.16675V37.7483H9.74198V38.5536H10.3172V39.3589H11.2376V37.4606H10.3172V36.3102H11.2376V33.7791H10.3172V34.757H9.97207V35.5048H9.62693V36.3102H9.16675V37.1155H8.76408V37.6907H8.24637V38.4961H7.55608V37.6907H7.03837V37.1155H6.57818V36.3102H6.11799V35.5048H5.71533V34.757H5.37019V34.1243H4.67991ZM4.79495 43.7307V42.1776H5.25514V43.7307H4.79495ZM4.56486 40.3944V41.1997H3.98962V42.005H3.41439V41.1997H2.83915V40.3944H2.37896V39.3589H2.83915V38.5536H3.41439V37.7483H3.98962V38.5536H4.56486V39.3589H5.48524V38.5536H6.06047V37.7483H6.63571V38.5536H7.21094V39.3589H7.67113V40.3944H7.21094V41.1997H6.63571V42.005H6.06047V41.1997H5.48524V40.3944H4.56486ZM4.79495 37.7483V36.1951H5.25514V37.7483H4.79495Z" fill="white"/>
</g>
<path id="Vector_5" d="M-1.1875 21.5837H-0.267123V22.389H0.135542V22.8492H0.595731V23.6546H0.998396V24.3449H0.595731V25.1502H0.135542V25.6104H-0.267123V26.4157H-1.1875V21.5837ZM11.2376 21.5837V26.4157H10.3172V25.6104H9.91455V25.1502H9.45436V24.3449H9.0517V23.6546H9.45436V22.8492H9.91455V22.389H10.3172V21.5837H11.2376ZM2.83915 24.5174H3.29934V23.482H2.83915V24.5174ZM7.21094 24.5174V23.482H6.75075V24.5174H7.21094ZM4.79495 21.1235H5.25514V20.0881H4.79495V21.1235ZM4.79495 26.8759V27.9113H5.25514V26.8759H4.79495ZM1.91877 22.5616H2.7241V21.9289H3.29934V21.3536H3.58696V20.7784H3.9321V19.9731H4.39229V19.1677H4.62238V18.4199H5.42771V19.1677H5.65781V19.9731H6.11799V20.7784H6.46314V21.3536H6.75075V21.9289H7.32599V22.5616H8.13132V25.4378H7.32599V26.0706H6.75075V26.6458H6.46314V27.221H6.11799V28.0264H5.65781V28.8317H5.42771V29.5795H4.62238V28.8317H4.39229V28.0264H3.9321V27.221H3.58696V26.6458H3.29934V26.0706H2.7241V25.4378H1.91877V22.5616ZM4.79495 23.0793V22.2165H4.33476V21.6412H3.87458V23.0793H4.33476V23.597H4.62238V24.4024H4.33476V24.9201H3.87458V26.3582H4.33476V25.7829H4.79495V24.9201H5.25514V25.7829H5.71533V26.3582H6.17552V24.9201H5.71533V24.4024H5.42771V23.597H5.71533V23.0793H6.17552V21.6412H5.71533V22.2165H5.25514V23.0793H4.79495Z" fill="white"/>
</g>
</g>
</g>
<path id="Vector_6" d="M11.1758 32H96.0012V48H11.1758V32Z" fill="#007C30"/>
</g>
<defs>
<clipPath id="clip0_877_7239">
<rect width="96" height="48" fill="white"/>
</clipPath>
</defs>
</svg>
