<svg width="117" height="96" viewBox="0 0 117 96" fill="none" xmlns="http://www.w3.org/2000/svg">
<path d="M116.111 20.3202C116.047 20.3202 115.978 20.3139 115.914 20.3139C115.28 20.3139 114.646 20.3139 114.012 20.3139C113.854 20.3139 113.854 20.3139 113.803 20.1554C113.67 19.718 113.531 19.2742 113.398 18.8368C113.34 18.6593 113.34 18.653 113.157 18.653C112.377 18.653 111.597 18.653 110.817 18.653C110.792 18.653 110.767 18.653 110.741 18.653C110.659 18.653 110.615 18.691 110.589 18.7734C110.532 18.9826 110.469 19.1918 110.405 19.401C110.329 19.6609 110.247 19.9272 110.171 20.1871C110.133 20.3139 110.133 20.3139 110.006 20.3139C109.347 20.3139 108.687 20.3139 108.028 20.3139C107.996 20.3139 107.958 20.3075 107.914 20.3012C107.927 20.2568 107.927 20.2188 107.939 20.1807C108.789 17.6704 109.645 15.16 110.5 12.6497C110.551 12.4912 110.551 12.4912 110.729 12.4912C111.584 12.4912 112.44 12.4912 113.296 12.4912C113.467 12.4912 113.467 12.4912 113.518 12.6497C114.317 15.0206 115.115 17.3851 115.914 19.756C115.965 19.9145 116.016 20.073 116.073 20.2314C116.079 20.2568 116.098 20.2758 116.111 20.2948C116.111 20.3012 116.111 20.3139 116.111 20.3202ZM112.827 16.9921C112.745 16.6624 112.637 16.3645 112.548 16.0602C112.459 15.7623 112.364 15.458 112.269 15.16C112.174 14.8621 112.098 14.5578 111.978 14.2472C111.895 14.3676 111.16 16.8146 111.147 16.9921C111.705 16.9921 112.256 16.9921 112.827 16.9921Z" fill="#946D47"/>
<path d="M66.5128 4.88345C66.5128 4.94684 66.5064 5.01023 66.5064 5.07363C66.5064 6.88031 66.5064 8.687 66.5064 10.5C66.5064 10.7219 66.5064 10.7219 66.2845 10.7219C65.4668 10.7219 64.649 10.7219 63.8376 10.7219C63.8249 10.7219 63.8059 10.7219 63.7932 10.7219C63.6094 10.7219 63.6094 10.7156 63.6094 10.5317C63.6094 7.1529 63.6094 3.77408 63.6094 0.395256C63.6094 0.338203 63.6157 0.287488 63.6221 0.217757C63.6854 0.211417 63.7298 0.205078 63.7805 0.205078C64.6554 0.205078 65.5365 0.205078 66.4113 0.205078C66.5254 0.205078 66.5825 0.243114 66.6395 0.338203C67.7743 2.17025 68.9153 4.00229 70.0564 5.83434C70.1198 5.93577 70.1768 6.03085 70.2402 6.13228C70.2656 6.17032 70.291 6.20201 70.3353 6.25907C70.348 6.19568 70.3607 6.17032 70.367 6.13862C70.3734 6.08791 70.367 6.03719 70.367 5.98648C70.367 4.13542 70.367 2.29069 70.367 0.439631C70.367 0.369899 70.3734 0.300167 70.3734 0.224096C71.3369 0.224096 72.2878 0.224096 73.245 0.224096C73.2514 0.262131 73.2641 0.293828 73.2641 0.325524C73.2704 0.369899 73.2641 0.414274 73.2641 0.464988C73.2641 3.79944 73.2641 7.12755 73.2641 10.462C73.2641 10.7219 73.3021 10.7219 73.0105 10.7219C72.1484 10.7219 71.2862 10.7219 70.4241 10.7219C70.2846 10.7219 70.2022 10.6839 70.1325 10.5634C68.9851 8.7187 67.8313 6.88031 66.6776 5.03559C66.6395 4.97854 66.6015 4.92148 66.5635 4.86443C66.5445 4.87077 66.5318 4.87711 66.5128 4.88345Z" fill="#946D47"/>
<path d="M85.5613 5.46706C85.574 6.33554 85.4472 7.16598 85.1175 7.95839C84.5216 9.38472 83.463 10.2912 81.9796 10.7033C81.4661 10.8491 80.94 10.9125 80.4075 10.9188C79.6975 10.9315 79.0001 10.8618 78.3218 10.6526C76.7497 10.1644 75.7164 9.12481 75.2029 7.57169C75.0444 7.08357 74.9557 6.58277 74.9177 6.06929C74.8796 5.54313 74.886 5.01697 74.9557 4.49715C75.0952 3.4385 75.4565 2.47493 76.1665 1.66351C76.8004 0.94083 77.5992 0.490743 78.5247 0.243512C78.8987 0.142084 79.2854 0.0850305 79.6784 0.0533342C80.604 -0.0163976 81.5105 0.0660127 82.3853 0.382976C83.818 0.902795 84.7562 1.91074 85.2443 3.34341C85.4789 4.03439 85.574 4.75072 85.5613 5.46706ZM77.8527 5.52411C77.8464 6.01224 77.9098 6.53839 78.1 7.05187C78.2902 7.55901 78.5881 7.98375 79.0762 8.24999C79.558 8.52258 80.0842 8.5733 80.623 8.50356C81.4344 8.40214 81.9986 7.95205 82.3219 7.20402C82.5184 6.76027 82.6008 6.28482 82.6199 5.80304C82.6389 5.40367 82.6325 5.00429 82.5628 4.60492C82.4994 4.20555 82.3853 3.82519 82.1888 3.47019C81.9479 3.03912 81.6056 2.71582 81.1428 2.53832C80.7561 2.39252 80.3504 2.34181 79.932 2.39252C79.6277 2.43056 79.3361 2.50663 79.0699 2.65877C78.6134 2.91868 78.3218 3.31805 78.1317 3.7935C77.9225 4.33867 77.8527 4.89653 77.8527 5.52411Z" fill="#946D47"/>
<path d="M113.046 0.211736C113.128 0.211736 113.179 0.211736 113.23 0.211736C114.079 0.211736 114.923 0.211736 115.772 0.211736C115.785 0.211736 115.804 0.211736 115.816 0.211736C115.943 0.218075 115.949 0.218075 115.956 0.3512C115.956 0.389235 115.956 0.43361 115.956 0.471646C115.956 3.79342 115.956 7.11519 115.956 10.437C115.956 10.4877 115.956 10.5384 115.956 10.5891C115.949 10.6969 115.937 10.7095 115.829 10.7095C115.747 10.7159 115.664 10.7095 115.588 10.7095C114.821 10.7095 114.054 10.7095 113.293 10.7095C113.027 10.7095 113.059 10.7032 113.059 10.4813C113.059 9.28321 113.059 8.07875 113.059 6.88063C113.059 6.81724 113.059 6.74751 113.059 6.67144C112.995 6.6651 112.951 6.65876 112.9 6.65876C111.797 6.65876 110.701 6.65876 109.598 6.65876C109.559 6.65876 109.528 6.6651 109.49 6.6651C109.433 6.73483 109.452 6.8109 109.452 6.88697C109.452 8.06607 109.452 9.24518 109.452 10.4243C109.452 10.7286 109.49 10.7095 109.166 10.7159C108.387 10.7159 107.607 10.7159 106.827 10.7159C106.796 10.7159 106.764 10.7159 106.739 10.7159C106.555 10.7159 106.555 10.7159 106.555 10.532C106.555 7.14688 106.555 3.76806 106.555 0.382896C106.555 0.332182 106.561 0.281468 106.561 0.237093C106.681 0.205397 109.23 0.192718 109.445 0.224415C109.452 0.287807 109.458 0.357539 109.458 0.420932C109.458 1.58735 109.458 2.74744 109.458 3.91386C109.458 3.98993 109.464 4.05966 109.471 4.14208C110.669 4.14208 111.854 4.14208 113.052 4.14208C113.059 4.066 113.065 4.00261 113.065 3.93922C113.065 2.76012 113.065 1.58102 113.065 0.401914C113.046 0.357539 113.046 0.294146 113.046 0.211736Z" fill="#946D47"/>
<path d="M87.2092 0.224346C87.2662 0.224346 87.3106 0.218007 87.355 0.218007C88.7559 0.218007 90.1632 0.205329 91.5642 0.224346C92.3947 0.237025 93.2061 0.382828 93.9541 0.769522C94.7592 1.18791 95.3234 1.8155 95.5326 2.703C95.7608 3.65388 95.6847 4.58575 95.1839 5.44789C94.9367 5.87262 94.5944 6.20226 94.176 6.46217C94.1126 6.50021 94.0492 6.54458 93.9858 6.58262C93.9795 6.58262 93.9795 6.58896 93.9668 6.60798C93.9858 6.65235 94.0048 6.70941 94.0302 6.76012C94.531 7.7427 95.0381 8.72529 95.5389 9.70787C95.6847 9.99314 95.8306 10.2784 95.9764 10.5573C95.9954 10.5954 96.0144 10.6397 96.0334 10.6968C95.9827 10.7031 95.9447 10.7158 95.913 10.7158C94.9874 10.7158 94.0682 10.7158 93.1427 10.7158C93.0286 10.7158 92.9842 10.6651 92.9335 10.5764C92.3947 9.51136 91.8495 8.44636 91.3107 7.38137C91.298 7.35601 91.279 7.33065 91.2663 7.29896C91.2282 7.20387 91.1649 7.16583 91.0571 7.16583C90.7908 7.17217 90.5183 7.16583 90.252 7.16583C90.2076 7.16583 90.1632 7.17217 90.1062 7.17217C90.0999 7.25458 90.0935 7.33065 90.0935 7.40672C90.0935 8.42734 90.0935 9.4543 90.0935 10.4749C90.0935 10.7095 90.0935 10.7095 89.859 10.7095C89.0412 10.7095 88.2298 10.7095 87.412 10.7095C87.3486 10.7095 87.2852 10.7031 87.2218 10.7031C87.1838 10.5764 87.1584 2.69666 87.1901 0.36381C87.1901 0.325774 87.2028 0.27506 87.2092 0.224346ZM90.1189 4.89004C90.1823 4.89004 90.233 4.89638 90.2837 4.89638C90.5816 4.89638 90.8796 4.89638 91.1839 4.89638C91.4121 4.89638 91.6403 4.86468 91.8558 4.79495C92.3503 4.64281 92.6546 4.33218 92.7116 3.80603C92.756 3.41933 92.6356 2.98192 92.2045 2.73469C92.0397 2.63326 91.8558 2.57621 91.6657 2.53817C91.1839 2.44309 90.6958 2.48746 90.2076 2.48112C90.1379 2.48112 90.1062 2.51282 90.0999 2.58255C90.0999 2.62058 90.0935 2.65228 90.0935 2.69032C90.0935 3.36228 90.0935 4.04058 90.0935 4.71254C90.0999 4.76325 90.1125 4.82031 90.1189 4.89004Z" fill="#946D47"/>
<path d="M74.1522 14.7348C74.1522 16.5859 74.1522 18.4369 74.1522 20.2753C74.0317 20.3197 72.206 20.326 72.0349 20.2943C71.9968 20.1739 71.9905 12.6555 72.0349 12.5034C72.0729 12.4971 72.1173 12.4907 72.1616 12.4907C73.1379 12.4907 74.1205 12.4907 75.0967 12.4907C75.2425 12.4907 75.2425 12.4907 75.2806 12.6302C75.6863 14.1389 76.0856 15.6477 76.4914 17.1564C76.5421 17.3466 76.5928 17.5368 76.6435 17.7269C76.6562 17.7713 76.6752 17.822 76.6942 17.8727C76.7766 17.841 76.7703 17.765 76.783 17.7143C76.9161 17.2198 77.0492 16.7253 77.1823 16.2372C77.4993 15.0391 77.8226 13.841 78.1396 12.6429C78.1839 12.4844 78.1839 12.4844 78.3424 12.4844C79.3123 12.4844 80.2822 12.4844 81.2458 12.4844C81.2965 12.4844 81.3472 12.4907 81.3916 12.4907C81.4233 12.6112 81.436 20.0915 81.4043 20.2753C81.3029 20.3134 79.5025 20.326 79.2679 20.288C79.2616 20.2309 79.2553 20.1676 79.2553 20.1042C79.2553 19.185 79.2553 18.2721 79.2553 17.3529C79.2553 16.5352 79.2553 15.7237 79.2553 14.906C79.2553 14.8489 79.2553 14.7855 79.2553 14.7095C79.1729 14.7475 79.1729 14.8172 79.1538 14.8679C79.0144 15.3497 78.8813 15.8315 78.7418 16.3133C78.3741 17.6002 78.0128 18.8807 77.6451 20.1676C77.6324 20.2119 77.6134 20.25 77.6007 20.3007C76.9858 20.3007 76.3836 20.3007 75.756 20.3007C75.2362 18.4369 74.7227 16.5795 74.2029 14.7221C74.1839 14.7285 74.1648 14.7285 74.1522 14.7348Z" fill="#946D47"/>
<path d="M105.245 2.53208C105.182 2.53208 105.119 2.53208 105.062 2.53208C104.256 2.53208 103.451 2.53208 102.64 2.53208C102.615 2.53208 102.589 2.53208 102.564 2.53208C102.38 2.53208 102.38 2.53208 102.38 2.72226C102.38 5.15019 102.38 7.57179 102.38 9.99972C102.38 10.1962 102.38 10.3928 102.38 10.5893C102.38 10.697 102.367 10.7097 102.26 10.7161C102.203 10.7161 102.145 10.7161 102.095 10.7161C101.309 10.7161 100.523 10.7161 99.7365 10.7161C99.6985 10.7161 99.6541 10.7161 99.6161 10.7161C99.4957 10.7097 99.483 10.697 99.483 10.5829C99.483 10.5322 99.483 10.4815 99.483 10.4308C99.483 7.89509 99.483 5.35305 99.483 2.81735C99.483 2.48137 99.4766 2.53208 99.1914 2.53208C98.3926 2.53208 97.6002 2.53208 96.8015 2.53208C96.7444 2.53208 96.681 2.53208 96.605 2.53208C96.5986 2.46235 96.5859 2.41164 96.5859 2.36092C96.5859 1.70164 96.5859 1.04236 96.5859 0.383074C96.5859 0.211914 96.5859 0.211914 96.7571 0.211914C97.8982 0.211914 99.0392 0.211914 100.18 0.211914C101.809 0.211914 103.439 0.211914 105.062 0.211914C105.125 0.211914 105.182 0.211914 105.233 0.211914C105.245 0.230932 105.252 0.230932 105.252 0.237271C105.258 0.24361 105.258 0.24361 105.258 0.24995C105.264 0.281646 105.271 0.307003 105.271 0.338699C105.271 1.0487 105.271 1.75869 105.271 2.46869C105.264 2.48137 105.258 2.49405 105.245 2.53208Z" fill="#946D47"/>
<path d="M91.4799 20.3014C90.7572 20.3014 90.0599 20.3014 89.3689 20.3014C89.3309 20.181 89.3245 12.7006 89.3562 12.5041C89.3943 12.4978 89.4386 12.4914 89.483 12.4914C90.5607 12.4914 91.632 12.4788 92.7097 12.4978C93.2929 12.5105 93.8571 12.6309 94.3769 12.9035C95.0742 13.2712 95.499 13.8354 95.6004 14.6278C95.6765 15.2173 95.6194 15.7879 95.3215 16.3204C95.1313 16.6627 94.8587 16.9353 94.5291 17.1445C94.4784 17.1762 94.4276 17.2078 94.3579 17.2522C94.8777 18.2665 95.3912 19.2744 95.9174 20.3014C95.854 20.3077 95.8096 20.3141 95.7716 20.3141C95.125 20.3141 94.472 20.3141 93.8254 20.3204C93.705 20.3204 93.6416 20.2824 93.5909 20.1746C93.1978 19.3949 92.7921 18.6152 92.4054 17.8291C92.342 17.7087 92.2786 17.6516 92.1392 17.6643C91.9743 17.677 91.8032 17.6643 91.6384 17.6706C91.5052 17.6706 91.4926 17.6833 91.4926 17.8228C91.4926 18.1524 91.4926 18.482 91.4926 18.8117C91.4926 19.2554 91.4926 19.6928 91.4926 20.1366C91.4862 20.181 91.4799 20.238 91.4799 20.3014ZM91.5052 14.1967C91.4989 14.2221 91.4862 14.2538 91.4862 14.2918C91.4862 14.8116 91.4862 15.3314 91.4862 15.8576C91.4862 15.9654 91.5052 15.9844 91.6257 15.9844C91.8539 15.9844 92.0821 15.9907 92.3103 15.9844C92.5132 15.978 92.7097 15.9463 92.9062 15.8703C93.2549 15.7308 93.4514 15.4392 93.4514 15.0525C93.4514 14.6975 93.2612 14.4249 92.9126 14.2855C92.8682 14.2664 92.8175 14.2474 92.7667 14.2411C92.361 14.1397 91.9426 14.184 91.5306 14.1904C91.5243 14.184 91.5243 14.1904 91.5052 14.1967Z" fill="#946D47"/>
<path d="M71.0707 20.3012C71.0073 20.3075 70.9629 20.3139 70.9186 20.3139C70.272 20.3139 69.6317 20.3139 68.9851 20.3139C68.8266 20.3139 68.8266 20.3139 68.7822 20.1554C68.6428 19.7053 68.5096 19.2552 68.3702 18.8051C68.3258 18.6593 68.3258 18.653 68.1673 18.653C67.3686 18.653 66.5762 18.653 65.7774 18.653C65.6063 18.653 65.6063 18.653 65.5555 18.8178C65.4224 19.2489 65.2956 19.6799 65.1689 20.111C65.1562 20.149 65.1435 20.1871 65.1372 20.2251C65.1245 20.2822 65.0864 20.3139 65.0294 20.3075C65.004 20.3075 64.9787 20.3075 64.9533 20.3075C64.3131 20.3075 63.6791 20.3075 63.0389 20.3075C62.9945 20.3075 62.9501 20.3012 62.8867 20.3012C62.9057 20.2378 62.9184 20.1871 62.9374 20.1364C63.6221 18.1205 64.3067 16.1046 64.9914 14.0887C65.1562 13.6069 65.321 13.1188 65.4858 12.637C65.5365 12.4912 65.5365 12.4912 65.6887 12.4912C66.5571 12.4912 67.4193 12.4912 68.2878 12.4912C68.4462 12.4912 68.4462 12.4912 68.497 12.6434C69.0929 14.4057 69.6887 16.168 70.2783 17.9366C70.5255 18.672 70.7728 19.401 71.02 20.1364C71.039 20.1807 71.0517 20.2314 71.0707 20.3012ZM66.1134 16.9731C66.1578 16.9857 66.1705 16.9921 66.1831 16.9921C66.6966 16.9921 67.2038 16.9921 67.7172 16.9921C67.7426 16.9921 67.7679 16.9731 67.7996 16.9604C67.7806 16.8907 67.7679 16.8336 67.7489 16.7765C67.6475 16.4406 67.5397 16.0982 67.4383 15.7623C67.2988 15.3058 67.1594 14.8558 67.0199 14.3993C67.0072 14.3486 67.0072 14.2916 66.9248 14.2535C66.6522 15.1664 66.386 16.0602 66.1134 16.9731Z" fill="#946D47"/>
<path d="M107.761 15.3188C107.698 15.3252 107.653 15.3252 107.609 15.3252C106.981 15.3252 106.354 15.3252 105.726 15.3252C105.568 15.3252 105.574 15.3252 105.511 15.173C105.454 15.0272 105.397 14.8814 105.314 14.7483C105.023 14.2729 104.598 14.0637 104.034 14.108C103.476 14.1524 103.051 14.406 102.778 14.8941C102.69 15.0526 102.614 15.2238 102.569 15.3949C102.392 16.0605 102.392 16.7325 102.563 17.4045C102.62 17.6263 102.715 17.8355 102.842 18.0257C103.102 18.3997 103.463 18.6089 103.913 18.6723C104.122 18.704 104.325 18.6977 104.528 18.647C104.877 18.5582 105.13 18.3427 105.308 18.0384C105.371 17.9306 105.422 17.8102 105.466 17.6961C105.492 17.6327 105.523 17.601 105.599 17.601C106.278 17.601 106.956 17.601 107.634 17.601C107.66 17.601 107.685 17.6073 107.717 17.62C107.717 17.6517 107.723 17.6834 107.717 17.7151C107.52 18.5138 107.146 19.2048 106.493 19.731C106.03 20.0986 105.504 20.3142 104.927 20.4156C104.585 20.4727 104.243 20.4853 103.9 20.4727C103.19 20.4346 102.512 20.2698 101.897 19.8831C101.124 19.3886 100.655 18.6787 100.414 17.8102C100.249 17.2143 100.211 16.6057 100.255 15.9908C100.293 15.49 100.389 15.0082 100.585 14.5518C101.041 13.4741 101.859 12.8148 102.981 12.5169C103.381 12.4091 103.786 12.3711 104.198 12.3711C104.737 12.3774 105.263 12.4598 105.764 12.6817C106.652 13.0748 107.229 13.7467 107.565 14.6405C107.634 14.8371 107.685 15.0399 107.742 15.2364C107.761 15.2428 107.755 15.2681 107.761 15.3188Z" fill="#946D47"/>
<path d="M85.0943 15.5658C85.1641 15.5658 85.2274 15.5658 85.2845 15.5658C85.9818 15.5658 86.6855 15.5658 87.3828 15.5658C87.4208 15.5658 87.4525 15.5658 87.4906 15.5658C87.611 15.5721 87.6173 15.5721 87.6237 15.6926C87.6237 15.8067 87.6237 15.9271 87.6237 16.0412C87.6237 16.3582 87.6237 16.6688 87.6237 16.9858C87.6237 17.0428 87.6237 17.0936 87.6237 17.1696C87.4462 17.1886 87.2814 17.176 87.1165 17.1823C86.9517 17.1823 86.7806 17.1823 86.6157 17.1823C86.4509 17.1823 86.2798 17.1823 86.1149 17.1823C85.9501 17.1823 85.779 17.1823 85.6141 17.1823C85.4493 17.1823 85.2782 17.1823 85.1007 17.1823C85.0943 17.252 85.0816 17.3091 85.0816 17.3661C85.0816 17.7148 85.0816 18.0635 85.0816 18.4121C85.0816 18.596 85.088 18.6023 85.2718 18.6023C86.1466 18.6023 87.0151 18.6023 87.8899 18.6023C88.1055 18.6023 88.1055 18.6023 88.1055 18.8178C88.1055 19.2489 88.1055 19.68 88.1055 20.111C88.1055 20.1491 88.1055 20.1934 88.1055 20.2315C88.0991 20.2885 88.0738 20.3139 88.0167 20.3139C87.9787 20.3139 87.9343 20.3139 87.8963 20.3139C86.3178 20.3139 84.733 20.3139 83.1545 20.3139C83.0975 20.3139 83.0341 20.3139 82.958 20.3139C82.9517 20.2378 82.9453 20.1744 82.9453 20.111C82.9453 19.1158 82.9453 18.1269 82.9453 17.1316C82.9453 15.6609 82.9453 14.1965 82.9453 12.7258C82.9453 12.6561 82.9453 12.5863 82.9453 12.5229C83.0721 12.4849 87.649 12.4722 87.8709 12.5103C87.8773 12.5546 87.8836 12.599 87.8836 12.6497C87.8836 13.1062 87.8836 13.5626 87.8836 14.019C87.8836 14.1838 87.8773 14.1902 87.7124 14.1902C86.9327 14.1902 86.153 14.1902 85.3733 14.1902C85.069 14.1902 85.1007 14.1965 85.1007 14.4628C85.1007 14.767 85.1007 15.0713 85.1007 15.3756C85.0753 15.4263 85.088 15.4897 85.0943 15.5658Z" fill="#946D47"/>
<path d="M96.8989 12.498C97.6025 12.498 98.3062 12.498 98.9972 12.498C99.0099 12.5107 99.0162 12.5107 99.0162 12.5171C99.0162 12.5234 99.0225 12.5234 99.0225 12.5297C99.0289 12.5678 99.0352 12.6122 99.0352 12.6502C99.0352 15.1796 99.0352 17.7153 99.0352 20.2446C99.0352 20.2573 99.0289 20.27 99.0225 20.2827C98.9084 20.3144 97.0764 20.3207 96.8989 20.2953C96.8925 20.289 96.8925 20.289 96.8862 20.2827C96.8862 20.2763 96.8799 20.2763 96.8799 20.27C96.8735 20.2256 96.8672 20.1812 96.8672 20.1368C96.8672 17.6075 96.8672 15.0718 96.8735 12.5424C96.8735 12.5361 96.8799 12.5297 96.8989 12.498Z" fill="#946D47"/>
<path d="M14.0654 23.8767C14.0654 24.105 14.0654 24.3332 14.0654 24.5614C14.059 25.0178 13.7674 25.3094 13.311 25.3158C12.8673 25.3158 12.4172 25.3158 11.9734 25.3158C11.7262 25.3158 11.5043 25.2333 11.3205 25.0685C11.1683 24.9291 11.0859 24.7579 11.0859 24.5424C11.0859 24.0923 11.0859 23.6422 11.0859 23.1921C11.0859 22.761 11.4853 22.349 11.9164 22.3426C12.3982 22.3363 12.8799 22.3363 13.3617 22.3426C13.5519 22.3426 13.7167 22.4251 13.8372 22.5709C13.983 22.7357 14.0527 22.9322 14.059 23.1541C14.0654 23.3886 14.0654 23.6295 14.0654 23.8767Z" fill="#B8916D"/>
<path d="M10.4483 23.8764C10.4483 24.0919 10.4483 24.3138 10.4483 24.5293C10.4483 24.8653 10.2835 25.0998 9.97919 25.2266C9.86508 25.2773 9.73829 25.3027 9.61151 25.3027C9.16142 25.309 8.71133 25.309 8.26125 25.3027C7.79214 25.3027 7.4625 24.9731 7.46884 24.5103C7.47518 24.0729 7.46884 23.6291 7.46884 23.1917C7.46884 22.9698 7.53223 22.7733 7.67804 22.6022C7.83018 22.4247 8.02036 22.3232 8.26125 22.3232C8.71133 22.3232 9.16142 22.3232 9.61151 22.3232C10.0553 22.3232 10.4356 22.6973 10.4483 23.141C10.4546 23.3946 10.4483 23.6355 10.4483 23.8764Z" fill="#B8916D"/>
<path d="M57.6981 23.8574C57.6981 23.6228 57.6981 23.3946 57.6981 23.16C57.6981 22.9508 57.7552 22.7607 57.882 22.5958C58.0151 22.4247 58.1863 22.3359 58.4018 22.3359C58.8646 22.3359 59.3273 22.3359 59.7837 22.3359C60.2085 22.3359 60.6839 22.7416 60.6712 23.2171C60.6586 23.6291 60.6712 24.0349 60.6712 24.4469C60.6712 24.878 60.4494 25.1696 60.0373 25.271C59.9422 25.2964 59.8345 25.309 59.7394 25.309C59.3083 25.3154 58.8772 25.309 58.4462 25.309C57.9897 25.309 57.7045 25.0301 57.6981 24.5737C57.6918 24.3328 57.6981 24.0983 57.6981 23.8574Z" fill="#B8916D"/>
<path d="M24.077 23.8637C24.077 23.6482 24.0896 23.4263 24.077 23.2107C24.0453 22.7924 24.4827 22.3423 24.9328 22.3296C25.4145 22.3169 25.8963 22.3232 26.3781 22.3296C26.6063 22.3296 26.7838 22.45 26.9043 22.6402C27.0057 22.7987 27.0501 22.9762 27.0501 23.16C27.0501 23.6228 27.0501 24.0919 27.0501 24.5547C27.0501 24.7005 27.0184 24.8399 26.9486 24.9604C26.8218 25.1823 26.619 25.29 26.3718 25.2964C25.89 25.3027 25.4082 25.3027 24.9264 25.2964C24.6982 25.29 24.489 25.2076 24.3178 25.0555C24.1594 24.916 24.0643 24.7448 24.0706 24.523C24.077 24.3074 24.077 24.0856 24.077 23.8637Z" fill="#B8916D"/>
<path d="M56.8482 12.7387C56.8482 12.9796 56.8545 13.2141 56.8482 13.455C56.8418 13.8163 56.601 14.1333 56.2713 14.2221C56.2016 14.2411 56.1318 14.2474 56.0621 14.2474C55.6184 14.2474 55.1683 14.2411 54.7245 14.2538C54.2808 14.2664 53.8687 13.8607 53.8751 13.4043C53.8814 12.9605 53.8751 12.5168 53.8751 12.0667C53.8751 11.6864 54.1286 11.3821 54.5027 11.2997C54.5851 11.2806 54.6738 11.2743 54.7562 11.2743C55.1746 11.2743 55.5994 11.268 56.0177 11.2743C56.1192 11.2743 56.2206 11.287 56.3157 11.3123C56.6263 11.4011 56.8355 11.6737 56.8418 11.997C56.8545 12.2442 56.8482 12.4914 56.8482 12.7387Z" fill="#B8916D"/>
<path d="M2.99287 12.726C2.99287 12.9542 2.98653 13.1824 2.99287 13.4106C3.00554 13.8227 2.63153 14.2601 2.15608 14.2474C1.72501 14.2347 1.29394 14.2284 0.862875 14.2474C0.431806 14.2664 0.0324329 13.9304 0.0134151 13.4233C0.000736622 12.9605 0.000736622 12.4914 0.0134151 12.0287C0.0197544 11.5976 0.349396 11.287 0.805822 11.2743C1.09109 11.268 1.37002 11.2743 1.65528 11.2743C1.83278 11.2743 2.01028 11.268 2.18778 11.2743C2.57447 11.287 2.87242 11.5025 2.96751 11.8385C2.98653 11.9082 2.99287 11.978 2.99287 12.0477C2.99921 12.2759 2.99287 12.5041 2.99287 12.726Z" fill="#B8916D"/>
<path d="M14.0647 12.7382C14.0647 12.9727 14.0647 13.2009 14.0647 13.4355C14.0647 13.6257 14.0076 13.8032 13.8935 13.9616C13.7604 14.1455 13.5829 14.2469 13.3483 14.2469C12.8792 14.2469 12.4165 14.2406 11.9473 14.2469C11.529 14.2533 11.0599 13.8412 11.0789 13.3658C11.0979 12.9474 11.0979 12.5226 11.0789 12.1042C11.0599 11.6542 11.4085 11.3689 11.7382 11.2928C11.8269 11.2738 11.9157 11.2675 12.0107 11.2675C12.4291 11.2675 12.8539 11.2611 13.2723 11.2675C13.3737 11.2675 13.4751 11.2801 13.5702 11.3055C13.8618 11.3943 14.0456 11.6605 14.052 11.9901C14.0647 12.2437 14.0647 12.4909 14.0647 12.7382Z" fill="#B8916D"/>
<path d="M1.49267 17.8606C1.25812 17.8606 1.02357 17.8606 0.795353 17.8606C0.326249 17.8543 0.015625 17.5437 0.015625 17.0809C0.015625 16.6498 0.015625 16.2188 0.015625 15.7877C0.015625 15.5405 0.0980353 15.3186 0.269195 15.1411C0.421337 14.9763 0.611515 14.8875 0.833389 14.8939C1.27714 14.8939 1.71455 14.9002 2.15829 14.8939C2.64642 14.8875 2.98874 15.3313 2.99508 15.6926C3.00141 16.1934 3.00775 16.6942 2.99508 17.195C2.98874 17.5564 2.6591 17.8543 2.25972 17.867C1.99981 17.867 1.74624 17.8606 1.49267 17.8606Z" fill="#B8916D"/>
<path d="M57.7008 5.29044C57.7008 5.07491 57.7008 4.85304 57.7008 4.6375C57.7008 4.56143 57.7071 4.48536 57.7262 4.40929C57.8022 4.04161 58.0495 3.83875 58.4235 3.83875C58.8799 3.83242 59.3363 3.83875 59.7928 3.83875C59.8435 3.83875 59.8942 3.84509 59.9449 3.85143C60.1858 3.88947 60.3823 4.00358 60.5345 4.19375C60.6422 4.32688 60.6866 4.47902 60.6866 4.64384C60.6866 5.08125 60.6803 5.51232 60.6866 5.94973C60.6993 6.42517 60.2555 6.76749 59.9069 6.79919C59.8435 6.80553 59.7864 6.80553 59.723 6.80553C59.311 6.80553 58.9053 6.80553 58.4932 6.80553C58.0241 6.80553 57.7262 6.52026 57.7071 6.04482C57.6945 5.79758 57.7008 5.54401 57.7008 5.29044Z" fill="#B8916D"/>
<path d="M44.2374 14.2469C44.0218 14.2469 43.8 14.2406 43.5844 14.2469C43.1724 14.2659 42.8934 13.949 42.8237 13.613C42.811 13.5369 42.8047 13.4608 42.8047 13.3848C42.8047 12.941 42.8047 12.4973 42.8047 12.0472C42.8047 11.8824 42.8364 11.7239 42.9315 11.5844C43.0709 11.3752 43.2738 11.2674 43.521 11.2674C44.0028 11.2611 44.4846 11.2611 44.9664 11.2674C45.1882 11.2738 45.3911 11.3562 45.5559 11.5147C45.7017 11.6541 45.7841 11.819 45.7841 12.0282C45.7841 12.4909 45.7778 12.9474 45.7841 13.4101C45.7905 13.8348 45.3721 14.2406 44.96 14.2406C44.7128 14.2469 44.4782 14.2469 44.2374 14.2469Z" fill="#B8916D"/>
<path d="M14.9208 23.8642C14.9208 23.6233 14.9208 23.3887 14.9208 23.1478C14.9208 22.945 14.9905 22.7611 15.1173 22.6027C15.2631 22.4252 15.4469 22.3301 15.6815 22.3301C16.1379 22.3301 16.5943 22.3301 17.0508 22.3301C17.4882 22.3301 17.8812 22.7104 17.8939 23.1478C17.9066 23.6233 17.9002 24.0987 17.8939 24.5742C17.8939 24.8214 17.7671 25.0052 17.5706 25.1447C17.4185 25.2525 17.241 25.3032 17.0571 25.3095C16.5943 25.3095 16.1379 25.3159 15.6752 25.3095C15.2314 25.3032 14.9271 24.9989 14.9208 24.5488C14.9144 24.3206 14.9208 24.0924 14.9208 23.8642Z" fill="#B8916D"/>
<path d="M44.2338 17.8611C43.9993 17.8611 43.7647 17.8611 43.5365 17.8611C43.0991 17.8547 42.8075 17.5758 42.8075 17.1384C42.8012 16.6756 42.8075 16.2065 42.8075 15.7437C42.8075 15.5599 42.8582 15.3824 42.9596 15.2303C43.1055 15.0084 43.3146 14.8879 43.5872 14.8879C44.0246 14.8879 44.4557 14.8943 44.8931 14.8879C45.3749 14.8753 45.7996 15.3444 45.787 15.7754C45.7743 16.2002 45.787 16.6249 45.7806 17.0496C45.7806 17.5187 45.47 17.842 45.0009 17.8547C44.741 17.8674 44.4874 17.8611 44.2338 17.8611Z" fill="#B8916D"/>
<path d="M20.454 20.1549C20.454 19.9394 20.4603 19.7175 20.454 19.502C20.435 19.0899 20.7329 18.7349 21.1893 18.7223C21.6901 18.7033 22.1909 18.7033 22.6917 18.7223C23.1418 18.7413 23.4398 19.0773 23.4334 19.502C23.4271 19.9394 23.4334 20.3832 23.4334 20.8206C23.4334 21.1502 23.2876 21.4038 23.0087 21.5813C22.8883 21.6573 22.7488 21.689 22.603 21.689C22.1656 21.689 21.7345 21.6764 21.2971 21.689C20.8153 21.7017 20.4603 21.2643 20.4603 20.8649C20.454 20.6304 20.454 20.3958 20.454 20.1549Z" fill="#B8916D"/>
<path d="M6.61867 23.8704C6.61867 24.0859 6.61867 24.3078 6.61867 24.5233C6.61867 24.6058 6.61233 24.6882 6.59331 24.7642C6.51724 25.0939 6.27635 25.3031 5.93403 25.3094C5.45225 25.3158 4.97046 25.3158 4.48868 25.3094C4.27948 25.3031 4.08931 25.2333 3.92448 25.1002C3.73431 24.9481 3.63288 24.7579 3.63288 24.5107C3.63922 24.0733 3.63922 23.6422 3.63288 23.2048C3.62654 22.742 4.07663 22.3363 4.50136 22.33C4.97046 22.3236 5.44591 22.33 5.91501 22.33C6.13055 22.33 6.30171 22.4314 6.43483 22.6026C6.54894 22.7547 6.60599 22.9259 6.61233 23.1097C6.61867 23.3633 6.61233 23.6168 6.61867 23.8704C6.61233 23.8704 6.61233 23.8704 6.61867 23.8704Z" fill="#B8916D"/>
<path d="M51.6637 14.2474C51.4418 14.2474 51.2199 14.2474 50.998 14.2474C50.6874 14.2474 50.4782 14.0953 50.3451 13.8353C50.2754 13.7022 50.25 13.5564 50.25 13.4106C50.25 12.9542 50.25 12.4978 50.25 12.0413C50.25 11.9589 50.2627 11.8702 50.288 11.7878C50.3704 11.4771 50.6304 11.2806 50.979 11.2743C51.4418 11.2679 51.8982 11.2679 52.361 11.2743C52.5955 11.2743 52.8111 11.3567 52.9822 11.5152C53.1407 11.6546 53.2295 11.8321 53.2295 12.0477C53.2295 12.4978 53.2231 12.9478 53.2295 13.3979C53.2358 13.8417 52.7984 14.2411 52.399 14.2474C52.1518 14.2474 51.9045 14.2474 51.6637 14.2474Z" fill="#B8916D"/>
<path d="M20.4559 12.7326C20.4559 12.517 20.4623 12.2951 20.4559 12.0796C20.4369 11.6866 20.7159 11.2999 21.2103 11.2809C21.6984 11.2618 22.1802 11.2618 22.6683 11.2809C23.1374 11.2935 23.4417 11.6549 23.4354 12.0923C23.4291 12.5297 23.4354 12.9734 23.4354 13.4109C23.4291 13.7975 23.1818 14.1272 22.8268 14.2223C22.7634 14.2413 22.7 14.2476 22.6303 14.2476C22.1739 14.2476 21.7175 14.2413 21.261 14.2476C20.8236 14.254 20.4623 13.8546 20.4559 13.4552C20.4496 13.2143 20.4559 12.9734 20.4559 12.7326Z" fill="#B8916D"/>
<path d="M55.7828 20.1547C55.7828 19.9328 55.7828 19.711 55.7828 19.4891C55.7892 19.0263 56.0871 18.722 56.5562 18.7157C57.019 18.7094 57.4754 18.7157 57.9382 18.7157C58.122 18.7157 58.2868 18.7664 58.439 18.8678C58.6418 19.0073 58.7623 19.2038 58.7623 19.4574C58.7623 19.9202 58.7623 20.3893 58.7623 20.852C58.7623 21.2831 58.3629 21.7015 57.9128 21.6888C57.4881 21.6825 57.0634 21.6698 56.6386 21.6888C56.1188 21.7142 55.8019 21.2768 55.7892 20.8647C55.7765 20.6302 55.7828 20.3956 55.7828 20.1547Z" fill="#B8916D"/>
<path d="M1.49986 10.4185C1.25263 10.4185 1.0054 10.4185 0.758166 10.4185C0.682095 10.4185 0.606024 10.4058 0.536292 10.3805C0.219329 10.2854 0.0228124 10.0381 0.0164732 9.70849C0.0101339 9.24573 0.0101339 8.77662 0.0164732 8.31385C0.0228124 8.08564 0.105223 7.88278 0.263704 7.70529C0.415846 7.53413 0.606024 7.44538 0.840576 7.44538C1.27799 7.44538 1.70905 7.45172 2.14646 7.44538C2.65994 7.43904 2.98324 7.90814 2.98958 8.24412C3.00226 8.7576 3.00226 9.26474 2.98958 9.77822C2.98324 10.1205 2.67262 10.3868 2.29227 10.4121C2.26057 10.4121 2.22887 10.4185 2.20352 10.4185C1.96262 10.4185 1.73441 10.4185 1.49986 10.4185Z" fill="#B8916D"/>
<path d="M21.9404 10.4188C21.6742 10.4188 21.4143 10.4251 21.148 10.4188C20.8184 10.4061 20.5521 10.1906 20.476 9.89899C20.457 9.8356 20.457 9.7722 20.457 9.70247C20.457 9.24605 20.457 8.78962 20.457 8.33319C20.457 8.06694 20.5648 7.84507 20.755 7.66123C20.8944 7.52811 21.0656 7.45204 21.2621 7.45204C21.7122 7.45204 22.1623 7.4457 22.6124 7.45204C22.9864 7.45838 23.316 7.74364 23.4048 8.13034C23.4238 8.20641 23.4301 8.28882 23.4301 8.37123C23.4301 8.80864 23.4301 9.23971 23.4301 9.67712C23.4301 10.0955 23.1512 10.3998 22.7265 10.4188C22.4666 10.4251 22.2003 10.4188 21.9404 10.4188Z" fill="#B8916D"/>
<path d="M33.0766 14.2473C32.8547 14.2473 32.6328 14.2473 32.4109 14.2473C31.9101 14.241 31.5298 13.8606 31.5234 13.3598C31.5234 12.9605 31.5234 12.5611 31.5234 12.1617C31.5234 11.6482 31.8341 11.2996 32.3602 11.2806C32.8483 11.2615 33.3301 11.2679 33.8182 11.2806C34.1923 11.2932 34.4395 11.5341 34.4902 11.9018C34.4965 11.9652 34.5029 12.0349 34.5029 12.0983C34.5029 12.5167 34.5092 12.9414 34.5029 13.3598C34.5029 13.4993 34.4775 13.6451 34.4332 13.7782C34.3571 14.0191 34.1225 14.2727 33.7485 14.2537C33.7422 14.2537 33.7358 14.2537 33.7358 14.2537C33.5076 14.2473 33.2921 14.2473 33.0766 14.2473Z" fill="#B8916D"/>
<path d="M29.3693 14.2468C29.1474 14.2468 28.9255 14.2405 28.6973 14.2468C28.2409 14.2595 27.9239 13.8601 27.9049 13.4988C27.9049 13.4608 27.8986 13.4291 27.8986 13.391C27.8986 12.9473 27.9049 12.4972 27.8986 12.0534C27.8922 11.6794 28.1458 11.2864 28.6402 11.2737C29.1284 11.2547 29.6165 11.2674 30.0983 11.2737C30.168 11.2737 30.2377 11.2927 30.3075 11.3118C30.6498 11.4132 30.8717 11.6858 30.878 12.0534C30.8843 12.5035 30.8843 12.9536 30.878 13.4037C30.8717 13.7967 30.6244 14.1137 30.2631 14.2151C30.1934 14.2341 30.111 14.2405 30.0412 14.2405C29.8193 14.2468 29.5975 14.2468 29.3693 14.2468Z" fill="#B8916D"/>
<path d="M8.93069 14.2469C8.72149 14.2469 8.51229 14.2342 8.30944 14.2469C7.79596 14.2786 7.47266 13.8412 7.47266 13.4228C7.47266 13.0932 7.47266 12.7635 7.47266 12.4339C7.47266 12.3071 7.47266 12.1803 7.47266 12.0535C7.479 11.5908 7.77694 11.2865 8.23971 11.2675C8.49328 11.2611 8.74685 11.2675 9.00042 11.2675C9.19693 11.2675 9.39345 11.2675 9.58997 11.2675C9.76747 11.2675 9.94497 11.3055 10.0971 11.4069C10.319 11.5527 10.4458 11.7556 10.4458 12.0282C10.4458 12.4909 10.4458 12.96 10.4458 13.4228C10.4458 13.8602 10.0401 14.2533 9.61532 14.2406C9.38711 14.2406 9.1589 14.2469 8.93069 14.2469Z" fill="#B8916D"/>
<path d="M6.61426 12.726C6.61426 12.9732 6.61426 13.2204 6.61426 13.4677C6.61426 13.6198 6.56988 13.7656 6.49381 13.8987C6.36069 14.1206 6.17051 14.2411 5.9106 14.2411C5.44783 14.2411 4.99141 14.2347 4.52864 14.2411C4.12927 14.2474 3.62213 13.8607 3.64114 13.3472C3.65382 12.9415 3.64114 12.5358 3.64114 12.1301C3.64114 11.6863 3.90105 11.3694 4.33846 11.287C4.41453 11.2743 4.49694 11.2616 4.57935 11.2616C5.00408 11.2616 5.42881 11.2553 5.85354 11.2616C5.95497 11.2616 6.0564 11.2743 6.15149 11.306C6.42408 11.3884 6.59524 11.642 6.61426 11.9589C6.61426 11.9779 6.61426 11.997 6.61426 12.0223C6.61426 12.2569 6.61426 12.4914 6.61426 12.726Z" fill="#B8916D"/>
<path d="M59.0928 10.4187C58.8519 10.4187 58.6046 10.425 58.3638 10.4187C57.958 10.406 57.7045 10.1461 57.6981 9.74036C57.6918 9.25858 57.6981 8.77679 57.6981 8.29501C57.6981 8.13653 57.7425 7.98439 57.8122 7.84492C57.9517 7.58501 58.1609 7.44555 58.4588 7.44555C58.8836 7.45189 59.3083 7.45189 59.7394 7.44555C60.2529 7.43287 60.7029 7.93367 60.6776 8.38376C60.6586 8.78313 60.6712 9.1825 60.6712 9.58188C60.6712 10.0637 60.3796 10.3806 59.8915 10.4123C59.6316 10.425 59.359 10.4187 59.0928 10.4187Z" fill="#B8916D"/>
<path d="M2.9936 23.8705C2.9936 24.0861 2.98092 24.2952 2.9936 24.5108C3.01896 24.9038 2.73369 25.2905 2.22021 25.3095C1.73843 25.3285 1.25665 25.3222 0.774862 25.3095C0.324775 25.2968 0.0141518 24.9672 0.0078125 24.5108C0.0078125 24.0734 0.0078125 23.6423 0.0078125 23.2049C0.0078125 22.945 0.0965621 22.7231 0.293079 22.5393C0.438882 22.3998 0.610042 22.3301 0.812898 22.3301C1.26299 22.3301 1.71307 22.3301 2.16316 22.3301C2.59423 22.3301 2.96825 22.6914 2.98726 23.1225C2.99994 23.3761 2.9936 23.6233 2.9936 23.8705Z" fill="#B8916D"/>
<path d="M27.9033 23.851C27.9033 23.6038 27.897 23.3566 27.9033 23.1093C27.916 22.748 28.1759 22.431 28.5182 22.355C28.5689 22.3423 28.626 22.3359 28.683 22.3359C29.1331 22.3359 29.5832 22.3359 30.0333 22.3359C30.42 22.3359 30.7686 22.6212 30.8511 23.0016C30.8701 23.084 30.8764 23.1727 30.8764 23.2551C30.8764 23.6608 30.8764 24.0666 30.8764 24.4723C30.8764 24.9731 30.5468 25.309 30.0396 25.3154C29.5832 25.3217 29.1268 25.3217 28.6704 25.3154C28.309 25.309 28.0174 25.0999 27.9223 24.7766C27.9033 24.7005 27.897 24.6181 27.8906 24.5357C27.9033 24.3074 27.9033 24.0792 27.9033 23.851Z" fill="#B8916D"/>
<path d="M21.9369 17.8609C21.6897 17.8609 21.4424 17.8673 21.1952 17.8609C20.8465 17.8546 20.5549 17.6327 20.4789 17.3094C20.4662 17.2587 20.4598 17.208 20.4598 17.1573C20.4598 16.6755 20.4535 16.1937 20.4598 15.7183C20.4662 15.3126 20.7641 14.9639 21.1445 14.9005C21.2015 14.8878 21.2523 14.8878 21.3093 14.8878C21.7277 14.8878 22.1398 14.9005 22.5581 14.8815C23.0463 14.8625 23.4266 15.2745 23.4393 15.7246C23.452 16.2001 23.4456 16.6755 23.4393 17.1509C23.433 17.5503 23.1097 17.8483 22.6913 17.8609C22.4314 17.8673 22.1841 17.8609 21.9369 17.8609Z" fill="#B8916D"/>
<path d="M2.99145 20.1487C2.99145 20.3769 2.98511 20.6051 2.99145 20.8334C3.01047 21.2327 2.64279 21.7082 2.13565 21.6892C1.71726 21.6765 1.29253 21.6701 0.874141 21.6892C0.430394 21.7082 0.0310205 21.3532 0.0120027 20.8524C-0.00701508 20.3833 -0.000675822 19.9142 0.0120027 19.4387C0.0183419 19.0267 0.335305 18.7224 0.760035 18.7097C1.24816 18.697 1.74262 18.697 2.23074 18.7097C2.50967 18.716 2.73788 18.8365 2.89002 19.0837C2.95976 19.1915 2.99145 19.3119 2.98511 19.4451C2.99145 19.6859 2.99145 19.9205 2.99145 20.1487Z" fill="#B8916D"/>
<path d="M21.9405 6.80466C21.7186 6.80466 21.4968 6.79832 21.2685 6.80466C20.8058 6.81734 20.4508 6.40529 20.4571 5.99958C20.4635 5.53681 20.4571 5.06771 20.4571 4.60494C20.4635 4.20557 20.7487 3.89494 21.1481 3.84423C21.1861 3.83789 21.2305 3.83789 21.2685 3.83789C21.7123 3.83789 22.1624 3.83789 22.6061 3.83789C22.7646 3.83789 22.9167 3.86959 23.0562 3.95834C23.2908 4.10414 23.4239 4.31967 23.4302 4.5986C23.4366 5.07405 23.4429 5.54949 23.4302 6.02493C23.4175 6.50038 23.0118 6.82368 22.6251 6.811C22.3969 6.79832 22.1687 6.80466 21.9405 6.80466Z" fill="#B8916D"/>
<path d="M2.99145 5.31566C2.99145 5.54387 2.99145 5.77208 2.99145 6.0003C2.98511 6.45038 2.64279 6.79904 2.19271 6.80538C1.74262 6.81172 1.29253 6.79904 0.836106 6.81172C0.436733 6.8244 0.0310205 6.52012 0.0120027 6.01298C-0.00701508 5.54387 -0.000675822 5.06843 0.0120027 4.59932C0.0246812 4.17459 0.341644 3.85129 0.760035 3.83861C1.2545 3.82593 1.74262 3.82593 2.23708 3.83861C2.69351 3.85129 3.01681 4.24432 2.99779 4.6437C2.98511 4.86557 2.99145 5.09378 2.99145 5.31566Z" fill="#B8916D"/>
<path d="M45.7728 23.8642C45.7728 24.0797 45.7665 24.3016 45.7728 24.5171C45.7791 24.8404 45.6207 25.056 45.3544 25.2018C45.2213 25.2778 45.0691 25.3095 44.917 25.3095C44.4606 25.3095 44.0042 25.3159 43.5477 25.3095C43.104 25.3032 42.806 25.0052 42.7997 24.5615C42.7934 24.0987 42.7997 23.6296 42.7997 23.1669C42.7997 22.9513 42.8631 22.7548 43.0025 22.59C43.142 22.4188 43.3195 22.3301 43.5477 22.3301C44.0105 22.3301 44.4669 22.3301 44.9297 22.3301C45.3734 22.3364 45.7665 22.7231 45.7728 23.1605C45.7728 23.4014 45.7728 23.6296 45.7728 23.8642Z" fill="#B8916D"/>
<path d="M55.3808 17.8611C55.1399 17.8611 54.8927 17.8611 54.6518 17.8611C54.4553 17.8611 54.2714 17.7977 54.1193 17.6709C53.9545 17.5378 53.8594 17.3603 53.8594 17.1447C53.8594 16.682 53.8594 16.2129 53.8594 15.7501C53.8594 15.3254 54.2461 14.8816 54.7279 14.888C55.1526 14.8943 55.5773 14.9007 56.002 14.888C56.5028 14.8753 56.8198 15.3 56.8261 15.6677C56.8388 16.1812 56.8388 16.6883 56.8261 17.2018C56.8198 17.5695 56.5028 17.8484 56.1225 17.8611C55.8816 17.8674 55.6344 17.8611 55.3808 17.8611Z" fill="#B8916D"/>
<path d="M49.3867 12.7387C49.3867 12.9796 49.3867 13.2141 49.3867 13.455C49.3867 13.6642 49.3106 13.8544 49.1711 14.0065C49.0317 14.1587 48.8605 14.2474 48.6513 14.2474C48.1822 14.2474 47.7068 14.2538 47.2377 14.2474C46.8003 14.2411 46.4199 13.8671 46.4136 13.436C46.4009 12.9669 46.4072 12.4978 46.4136 12.0223C46.4199 11.6737 46.6862 11.3821 47.0475 11.2997C47.1299 11.2806 47.2187 11.2743 47.3011 11.2743C47.7321 11.2743 48.1632 11.268 48.5943 11.2743C48.6894 11.2743 48.7845 11.287 48.8795 11.3123C49.1775 11.3947 49.3803 11.6673 49.3867 11.978C49.393 12.2315 49.3867 12.4851 49.3867 12.7387Z" fill="#B8916D"/>
<path d="M44.2348 18.7164C44.4693 18.7164 44.7039 18.7164 44.9321 18.7164C45.1603 18.7228 45.3632 18.7925 45.5343 18.9383C45.6928 19.0714 45.7752 19.2426 45.7752 19.4581C45.7752 19.9209 45.7816 20.39 45.7752 20.8528C45.7689 21.2965 45.3759 21.6832 44.9321 21.6895C44.4884 21.6959 44.051 21.6769 43.6072 21.6959C43.1698 21.7086 42.8972 21.3916 42.8211 21.0556C42.8085 20.9859 42.8021 20.9162 42.7958 20.8464C42.7958 20.3837 42.7894 19.9272 42.7958 19.4645C42.7958 19.1221 42.9669 18.8686 43.2586 18.7735C43.3536 18.7418 43.4551 18.7291 43.5565 18.7228C43.7847 18.7101 44.0129 18.7164 44.2348 18.7164Z" fill="#B8916D"/>
<path d="M33.0892 22.3294C33.2984 22.3294 33.5076 22.3358 33.7105 22.3294C34.1606 22.3041 34.4205 22.6527 34.4775 22.9824C34.4902 23.0648 34.4965 23.1535 34.4965 23.2423C34.4965 23.6543 34.4965 24.0727 34.4965 24.4848C34.4965 24.5482 34.4902 24.6179 34.4839 24.6813C34.4332 25.049 34.1732 25.3025 33.7992 25.3025C33.3238 25.3089 32.8483 25.3089 32.3729 25.3025C32.1637 25.3025 31.9735 25.2265 31.8087 25.0997C31.6312 24.9602 31.5234 24.7827 31.5234 24.5545C31.5234 24.0917 31.5234 23.6226 31.5234 23.1599C31.5234 22.7034 31.9925 22.3231 32.3919 22.3294C32.6201 22.3358 32.8547 22.3294 33.0892 22.3294Z" fill="#B8916D"/>
<path d="M44.226 10.4188C43.9788 10.4188 43.7316 10.4251 43.4843 10.4188C43.0723 10.3998 42.806 10.1335 42.7997 9.71515C42.7934 9.25238 42.7997 8.78328 42.7997 8.32051C42.7997 8.09864 42.8694 7.90212 43.0025 7.73096C43.1484 7.54713 43.3322 7.45204 43.5667 7.45204C44.0105 7.45204 44.4606 7.4457 44.9043 7.45204C45.3671 7.45838 45.7665 7.85775 45.7728 8.32051C45.7791 8.78328 45.7728 9.25238 45.7728 9.71515C45.7728 9.93702 45.6777 10.1018 45.5066 10.235C45.3608 10.3491 45.1896 10.4125 44.9994 10.4188C44.7458 10.4188 44.4859 10.4188 44.226 10.4188Z" fill="#B8916D"/>
<path d="M44.2415 6.80514C44.0323 6.80514 43.8231 6.79246 43.6202 6.80514C43.1194 6.83684 42.8152 6.4438 42.8025 6.03175C42.7898 5.54363 42.7898 5.04917 42.8025 4.56105C42.8152 4.12998 43.1385 3.83203 43.5569 3.83203C44.0069 3.83837 44.457 3.83203 44.9134 3.83203C45.1797 3.83203 45.4079 3.93346 45.5854 4.12998C45.6995 4.25676 45.7692 4.4089 45.7692 4.5864C45.7692 5.06185 45.7756 5.53729 45.7692 6.01274C45.7629 6.42479 45.3952 6.78612 44.9705 6.7988C44.7296 6.81148 44.4887 6.80514 44.2415 6.80514Z" fill="#B8916D"/>
<path d="M14.0673 1.59963C14.0673 1.82784 14.0673 2.05606 14.0673 2.28427C14.0673 2.68998 13.8327 2.93721 13.4333 2.97525C13.3826 2.98159 13.3319 2.98159 13.2812 2.98159C12.8628 2.98159 12.4381 2.98159 12.0197 2.98159C11.8168 2.98159 11.6266 2.94989 11.4491 2.84846C11.2146 2.71534 11.0878 2.51882 11.0941 2.23989C11.1005 1.80249 11.1068 1.37142 11.0941 0.934007C11.0815 0.572669 11.3794 0.154279 11.7534 0.0401719C11.8422 0.0148149 11.9309 0.00847561 12.026 0.00847561C12.4444 0.00213635 12.8691 0.0148149 13.2875 0.00213635C13.6108 -0.00420291 13.8264 0.154279 13.9658 0.426867C14.0356 0.56633 14.0736 0.718472 14.0736 0.876954C14.0673 1.12418 14.0673 1.36508 14.0673 1.59963Z" fill="#B8916D"/>
<path d="M35.354 20.1557C35.354 19.9275 35.3603 19.6993 35.354 19.4711C35.3477 19.04 35.6519 18.7167 36.1084 18.7167C36.5711 18.7103 37.0402 18.7167 37.503 18.7167C37.7249 18.7167 37.9214 18.7864 38.0862 18.9386C38.232 19.0717 38.3208 19.2302 38.3208 19.4267C38.3208 19.9148 38.3334 20.3966 38.3208 20.8847C38.3081 21.3221 37.9214 21.6835 37.484 21.6898C37.0466 21.6961 36.6028 21.6898 36.1591 21.6898C35.728 21.6898 35.392 21.3919 35.3603 20.9608C35.3413 20.7199 35.354 20.4727 35.3477 20.2318C35.354 20.2064 35.354 20.1811 35.354 20.1557Z" fill="#B8916D"/>
<path d="M27.9078 1.58129C27.9078 1.34674 27.9078 1.11853 27.9078 0.883974C27.9078 0.6621 27.9839 0.465583 28.1234 0.294423C28.2692 0.110585 28.4593 0.00281745 28.7002 0.00281745C29.1503 0.00281745 29.6004 -0.00352181 30.0505 0.00281745C30.4435 0.0091567 30.7859 0.313441 30.8619 0.719153C30.8809 0.801564 30.8873 0.890313 30.8873 0.972724C30.8873 1.37844 30.8873 1.78415 30.8873 2.18986C30.8873 2.64629 30.6274 2.92521 30.1709 2.96325C30.1139 2.96959 30.0568 2.96959 30.0061 2.96959C29.5877 2.96959 29.163 2.96959 28.7446 2.96959C28.5925 2.96959 28.4403 2.95691 28.3009 2.88718C28.06 2.77307 27.9269 2.58289 27.9142 2.31665C27.9015 2.08209 27.9078 1.83486 27.9078 1.58129Z" fill="#B8916D"/>
<path d="M51.6689 2.98288C51.466 2.98288 51.2632 2.98288 51.0603 2.98288C51.0096 2.98288 50.9589 2.98288 50.9082 2.97654C50.4898 2.94484 50.2489 2.69761 50.2489 2.27288C50.2426 1.81645 50.2489 1.36003 50.2489 0.903601C50.2489 0.675387 50.3123 0.466192 50.4518 0.282354C50.5786 0.111194 50.7497 0.00976562 50.9716 0.00976562C51.4407 0.00976562 51.9035 0.00976562 52.3726 0.00976562C52.829 0.00976562 53.2347 0.504228 53.2284 0.897261C53.222 1.35369 53.222 1.81011 53.2284 2.26654C53.2284 2.50109 53.1269 2.67225 52.9431 2.80538C52.7593 2.9385 52.5501 2.98288 52.3218 2.98288C52.1 2.98288 51.8844 2.98288 51.6689 2.98288Z" fill="#B8916D"/>
<path d="M6.61253 1.58749C6.61253 1.83472 6.61887 2.08195 6.60619 2.32918C6.59985 2.43695 6.56816 2.55106 6.52378 2.64615C6.43503 2.83632 6.27021 2.93141 6.06736 2.96311C5.99128 2.97579 5.91521 2.97579 5.83914 2.97579C5.42075 2.97579 4.99602 2.97579 4.57763 2.97579C4.37477 2.97579 4.1846 2.94409 4.0071 2.849C3.75987 2.70954 3.62674 2.51302 3.63308 2.22142C3.63942 1.79669 3.64576 1.37196 3.63308 0.947226C3.6204 0.516157 4.05781 -0.00366199 4.55861 0.00901652C5.00236 0.021695 5.43977 0.0153558 5.88352 0.00901652C6.14977 0.00901652 6.33361 0.135802 6.46673 0.351336C6.55548 0.503478 6.60619 0.66196 6.61253 0.839459C6.61887 1.09303 6.61253 1.34026 6.61253 1.58749Z" fill="#B8916D"/>
<path d="M49.39 1.58142C49.39 1.82231 49.39 2.05687 49.39 2.29776C49.39 2.67177 49.1554 2.93168 48.7814 2.97606C48.718 2.9824 48.6483 2.98874 48.5849 2.98874C48.1602 2.98874 47.7354 2.98874 47.3107 2.98874C47.1396 2.98874 46.9747 2.96972 46.8226 2.89365C46.5563 2.76052 46.4169 2.55767 46.4169 2.25338C46.4169 1.81597 46.4105 1.37223 46.4169 0.934817C46.4232 0.560801 46.6071 0.294552 46.9177 0.104375C47.0255 0.040982 47.1459 0.015625 47.2663 0.015625C47.7164 0.015625 48.1665 0.015625 48.6166 0.015625C48.8638 0.015625 49.054 0.129732 49.1935 0.319909C49.3139 0.48473 49.3837 0.674908 49.3837 0.884103C49.39 1.11232 49.39 1.34687 49.39 1.58142Z" fill="#B8916D"/>
<path d="M36.8046 17.8603C36.5637 17.8603 36.3291 17.8603 36.0883 17.8603C35.6508 17.854 35.3529 17.5687 35.3466 17.125C35.3402 16.6622 35.3466 16.2058 35.3466 15.743C35.3466 15.5338 35.41 15.3436 35.5367 15.1788C35.6825 14.9886 35.8791 14.8809 36.1263 14.8809C36.57 14.8809 37.0201 14.8809 37.4639 14.8809C37.9013 14.8809 38.3007 15.2485 38.3133 15.6923C38.326 16.1804 38.3197 16.6749 38.3133 17.163C38.3133 17.3532 38.2309 17.5053 38.0915 17.6321C37.933 17.7779 37.7428 17.854 37.5273 17.854C37.2927 17.8603 37.0518 17.8603 36.8046 17.8603Z" fill="#B8916D"/>
<path d="M8.93263 2.98288C8.71709 2.98288 8.5079 2.98922 8.29236 2.98288C8.17192 2.97654 8.04513 2.9702 7.93102 2.93216C7.6521 2.84975 7.4746 2.62154 7.46826 2.33627C7.46192 1.83547 7.45558 1.33467 7.46826 0.833869C7.4746 0.592977 7.58236 0.383782 7.75352 0.212622C7.87397 0.092176 8.01977 0.0161049 8.19727 0.00976562C8.67906 0.00976562 9.16084 0.00976562 9.64262 0.00976562C9.98494 0.00976562 10.3019 0.320389 10.397 0.65637C10.4224 0.745119 10.435 0.846547 10.435 0.941636C10.4414 1.36637 10.435 1.7911 10.435 2.21583C10.435 2.64056 10.1815 2.92582 9.75673 2.95752C9.4778 2.97654 9.19887 2.96386 8.91995 2.96386C8.93263 2.97654 8.93263 2.97654 8.93263 2.98288Z" fill="#B8916D"/>
<path d="M56.8388 1.5819C56.8388 1.81645 56.8388 2.04467 56.8388 2.27922C56.8388 2.65324 56.5979 2.91948 56.2239 2.96386C56.1605 2.9702 56.0908 2.97654 56.0274 2.97654C55.5963 2.97654 55.1653 2.97654 54.7342 2.97654C54.5694 2.97654 54.4109 2.95752 54.2587 2.88145C53.9988 2.75466 53.8594 2.54547 53.8594 2.25386C53.8594 1.81011 53.8594 1.36003 53.8594 0.916279C53.8594 0.586638 54.0052 0.333068 54.2651 0.14289C54.3792 0.0604797 54.506 0.00976562 54.6454 0.00976562C55.1336 0.00976562 55.6154 0.00976562 56.1035 0.00976562C56.2746 0.00976562 56.4141 0.0858367 56.5345 0.199943C56.7247 0.383782 56.8261 0.611995 56.8325 0.878244C56.8388 1.11914 56.8388 1.34735 56.8388 1.5819Z" fill="#B8916D"/>
<path d="M14.9196 1.5875C14.9196 1.35295 14.9196 1.12473 14.9196 0.890182C14.9196 0.700004 14.9766 0.522505 15.078 0.357684C15.2238 0.129471 15.4267 0.00268581 15.712 0.00902507C16.143 0.0153643 16.5741 0.0217036 17.0052 0.00902507C17.525 -0.00365344 17.8927 0.497148 17.8927 0.871164C17.899 1.34661 17.899 1.82205 17.8927 2.2975C17.8927 2.53839 17.7659 2.71589 17.563 2.84267C17.4045 2.9441 17.227 2.9758 17.0432 2.9758C16.5931 2.9758 16.143 2.98214 15.6929 2.9758C15.5852 2.9758 15.4774 2.95678 15.3823 2.93142C15.1097 2.84901 14.9386 2.6208 14.9259 2.32919C14.9132 2.08196 14.9196 1.83473 14.9196 1.5875Z" fill="#B8916D"/>
<path d="M35.354 5.30263C35.354 5.06174 35.3477 4.82718 35.354 4.58629C35.3603 4.23763 35.5632 3.9587 35.8802 3.86362C35.9626 3.83826 36.0513 3.83192 36.1337 3.83192C36.5775 3.82558 37.0276 3.83192 37.4713 3.83192C37.6805 3.83192 37.8707 3.88897 38.0355 4.0221C38.2193 4.1679 38.3208 4.35808 38.3208 4.59897C38.3208 5.06173 38.3271 5.53084 38.3208 5.99361C38.3144 6.41834 37.9658 6.78601 37.541 6.79235C37.0466 6.80503 36.5585 6.80503 36.064 6.79235C35.709 6.78601 35.411 6.49441 35.3603 6.13307C35.354 6.06968 35.3477 5.99995 35.3477 5.93655C35.354 5.72736 35.354 5.51816 35.354 5.30263Z" fill="#B8916D"/>
<path d="M33.0652 2.98276C32.8497 2.98276 32.6405 2.98276 32.425 2.98276C32.2411 2.98276 32.0636 2.95107 31.8988 2.86232C31.6579 2.72919 31.5184 2.53902 31.5184 2.25375C31.5184 1.81 31.5121 1.35991 31.5184 0.916167C31.5248 0.529472 31.7974 0.168135 32.165 0.0476889C32.2601 0.0159926 32.3616 0.00965338 32.463 0.00965338C32.856 0.00331413 33.2554 0.00965338 33.6484 0.00965338C34.1112 0.00965338 34.4091 0.263224 34.4725 0.725989C34.4852 0.8084 34.4916 0.884471 34.4916 0.966881C34.4916 1.37893 34.4916 1.79732 34.4916 2.20938C34.4916 2.72919 34.2507 2.97009 33.7308 2.97642C33.5153 2.98276 33.2871 2.98276 33.0652 2.98276Z" fill="#B8916D"/>
<path d="M44.2305 2.98196C44.0277 2.98196 43.8248 2.98196 43.622 2.98196C43.5586 2.98196 43.4888 2.97562 43.4254 2.96928C43.0578 2.93125 42.8105 2.69035 42.8042 2.32268C42.7915 1.83455 42.7979 1.34009 42.8042 0.85197C42.8042 0.649114 42.8739 0.465275 43.0007 0.300454C43.1402 0.116616 43.3177 0.00884865 43.5522 0.00884865C44.0087 0.00884865 44.4651 0.0151879 44.9215 0.00884865C45.397 0.0025094 45.7773 0.503311 45.7773 0.864648C45.7773 1.34643 45.7773 1.82821 45.7773 2.31C45.7773 2.55089 45.6505 2.72205 45.454 2.8425C45.2828 2.95026 45.099 2.98196 44.9025 2.98196C44.6806 2.98196 44.4587 2.98196 44.2305 2.98196Z" fill="#B8916D"/>
<path d="M2.99117 1.58748C2.99117 1.80935 2.98483 2.03123 2.99117 2.2531C3.01019 2.61444 2.75028 2.89971 2.36358 2.9631C2.3509 2.9631 2.33189 2.96944 2.31921 2.96944C1.77403 2.96944 1.22252 2.98846 0.677341 2.9631C0.271628 2.94408 0.0117188 2.64614 0.0117188 2.24042C0.0117188 1.80302 0.0117188 1.37195 0.0117188 0.934537C0.0117188 0.725342 0.0687721 0.535164 0.189218 0.364004C0.347699 0.135791 0.563234 0.00266644 0.85484 0.0090057C1.27957 0.015345 1.7043 0.0090057 2.12903 0.0090057C2.5918 0.0090057 2.97215 0.383022 2.98483 0.852127C2.99751 1.09936 2.99117 1.34025 2.99117 1.58748Z" fill="#B8916D"/>
<path d="M25.6508 2.98288C25.4353 2.98288 25.2134 2.98288 24.9979 2.98288C24.7887 2.98288 24.5858 2.9385 24.402 2.8244C24.1928 2.69127 24.0724 2.50743 24.0787 2.24752C24.085 1.81011 24.0914 1.36637 24.0787 0.922618C24.0597 0.497888 24.5161 0.0161049 24.9345 0.00976562C25.4163 0.00976562 25.8981 0.00976562 26.3798 0.00976562C26.57 0.00976562 26.7158 0.0985152 26.8363 0.244318C26.9884 0.428157 27.0518 0.643691 27.0518 0.878244C27.0582 1.34735 27.0582 1.82279 27.0518 2.2919C27.0455 2.71029 26.8109 2.95118 26.3925 2.9702C26.1453 2.98922 25.8981 2.97654 25.6508 2.98288Z" fill="#B8916D"/>
<path d="M35.3556 12.7192C35.3556 12.4973 35.3556 12.2754 35.3556 12.0535C35.3619 11.5971 35.6535 11.2865 36.1163 11.2801C36.5791 11.2738 37.0418 11.2738 37.4982 11.2801C37.7328 11.2801 37.942 11.3626 38.1132 11.5337C38.2463 11.6668 38.3224 11.8317 38.3224 12.0218C38.3224 12.4909 38.3287 12.9664 38.3224 13.4355C38.316 13.8856 37.942 14.2469 37.4856 14.2533C37.0418 14.2596 36.5917 14.2469 36.148 14.2596C35.6662 14.2723 35.3746 13.8602 35.3556 13.5306C35.3429 13.296 35.3492 13.0678 35.3492 12.8333C35.3556 12.7889 35.3556 12.7509 35.3556 12.7192Z" fill="#B8916D"/>
<path d="M68.8853 24.9984C68.7268 24.9984 68.5874 24.9984 68.4352 24.9984C68.207 24.1679 67.9788 23.3375 67.7569 22.5134C67.7442 22.5134 67.7379 22.5134 67.7252 22.5071C67.5984 22.9191 67.497 23.3375 67.3766 23.7495C67.2624 24.1616 67.1483 24.58 67.0342 24.9984C66.8884 24.9984 66.749 24.9984 66.5905 24.9984C66.2672 23.9904 65.9375 22.9762 65.6016 21.9365C65.684 21.9365 65.7474 21.9365 65.8108 21.9365C65.8742 21.9365 65.9439 21.9365 66.0136 21.9365C66.2799 22.786 66.5461 23.6291 66.806 24.4722C66.8187 24.4722 66.8314 24.4722 66.8377 24.4722C66.9645 24.0602 67.0659 23.6354 67.18 23.2171C67.2941 22.7923 67.4083 22.3676 67.5224 21.9429C67.6745 21.9429 67.814 21.9429 67.9724 21.9429C68.1943 22.786 68.4225 23.6291 68.6507 24.4722C68.7839 24.206 68.8599 23.9207 68.9487 23.6418C69.0438 23.3629 69.1262 23.0839 69.2149 22.805C69.3037 22.5197 69.3924 22.2345 69.4875 21.9492C69.6143 21.9492 69.7348 21.9492 69.8742 21.9492C69.5446 22.9635 69.2149 23.9778 68.8853 24.9984Z" fill="#B8916D"/>
<path d="M75.8906 24.9865C75.8906 23.9722 75.8906 22.9642 75.8906 21.95C75.9287 21.9436 75.9604 21.9373 75.9921 21.9373C76.3407 21.9373 76.6894 21.9246 77.038 21.9373C77.5452 21.9563 77.9636 22.1465 78.2425 22.5902C78.6165 23.1861 78.5278 24.0673 78.046 24.5617C77.7734 24.8407 77.4374 24.9801 77.057 24.9928C76.6894 25.0055 76.3154 24.9991 75.9477 24.9991C75.935 24.9991 75.9223 24.9928 75.8906 24.9865ZM76.2773 24.6632C76.5689 24.6632 76.8415 24.6885 77.1078 24.6568C77.5642 24.6061 77.8685 24.3462 78.0079 23.9088C78.103 23.6299 78.103 23.3446 78.027 23.0593C77.9002 22.5839 77.5452 22.2923 77.057 22.2669C76.8225 22.2542 76.5816 22.2606 76.3407 22.2606C76.3154 22.2606 76.2963 22.2733 76.271 22.2796C76.2773 23.072 76.2773 23.8644 76.2773 24.6632Z" fill="#B8916D"/>
<path d="M74.6333 23.6734C74.7474 23.8952 74.8615 24.1108 74.9693 24.3263C75.077 24.5418 75.1911 24.7574 75.3053 24.9919C75.1721 24.9919 75.0453 24.9919 74.8995 24.9919C74.6903 24.5862 74.4748 24.1678 74.2593 23.7368C74.0247 23.7368 73.7902 23.7368 73.5303 23.7368C73.5303 24.1615 73.5303 24.5735 73.5303 24.9983C73.3971 24.9983 73.283 24.9983 73.1562 24.9983C73.1562 23.984 73.1562 22.9697 73.1562 21.9491C73.1943 21.9427 73.2323 21.9364 73.2767 21.9364C73.5937 21.9364 73.917 21.9301 74.2339 21.9364C74.3861 21.9428 74.5382 21.9618 74.684 22.0061C75.0263 22.1076 75.2292 22.3421 75.2672 22.7035C75.2989 23.0521 75.1848 23.3437 74.8805 23.5402C74.8108 23.591 74.7284 23.6227 74.6333 23.6734ZM73.5429 23.4008C73.7141 23.4325 74.272 23.4261 74.4178 23.3944C74.4621 23.3818 74.5065 23.3691 74.5445 23.3501C74.9249 23.1916 74.9439 22.7161 74.7918 22.5006C74.7474 22.4309 74.6713 22.3738 74.5953 22.3358C74.5128 22.2977 74.4114 22.2661 74.3163 22.2661C74.0754 22.2534 73.8282 22.2597 73.5873 22.2597C73.5746 22.2597 73.562 22.2661 73.5366 22.2724C73.5429 22.6464 73.5429 23.0204 73.5429 23.4008Z" fill="#B8916D"/>
<path d="M78.9102 24.1113C79.0433 24.1113 79.1574 24.1113 79.2778 24.1113C79.2842 24.1367 79.2905 24.1557 79.2968 24.1747C79.3412 24.4854 79.5314 24.6629 79.8293 24.7199C80.0639 24.7706 80.3048 24.7643 80.533 24.6755C80.7549 24.5868 80.8626 24.422 80.85 24.1938C80.8436 24.0353 80.7739 23.9085 80.6408 23.8261C80.5203 23.7563 80.3935 23.7056 80.2668 23.6676C80.0829 23.6105 79.8927 23.5725 79.7089 23.5091C79.5885 23.4711 79.4743 23.4204 79.3602 23.357C78.9038 23.1097 78.8785 22.3617 79.3476 22.0828C79.5948 21.9306 79.8674 21.8799 80.1463 21.8863C80.3365 21.8863 80.5203 21.918 80.6915 21.994C81.0148 22.1335 81.205 22.4124 81.205 22.7611C81.0909 22.7611 80.9768 22.7611 80.8563 22.7611C80.85 22.7421 80.831 22.7167 80.831 22.6913C80.7866 22.4251 80.6218 22.2666 80.3682 22.2159C80.14 22.1652 79.9118 22.1652 79.6962 22.2603C79.4617 22.3617 79.3602 22.5646 79.4236 22.8055C79.4553 22.9322 79.5314 23.0273 79.6455 23.0844C79.766 23.1478 79.8927 23.1985 80.0259 23.2365C80.178 23.2872 80.3428 23.3189 80.495 23.3633C80.6218 23.4013 80.7422 23.4521 80.8627 23.5091C81.3888 23.7754 81.3444 24.479 81.0021 24.7706C80.9514 24.815 80.9007 24.8594 80.8436 24.8847C80.3555 25.1129 79.861 25.1256 79.3793 24.8784C79.0623 24.7263 78.9292 24.4537 78.9102 24.1113Z" fill="#B8916D"/>
<path d="M72.6285 24.9925C72.4827 24.9925 72.3623 24.9925 72.2165 24.9925C72.1024 24.7073 71.9883 24.4157 71.8742 24.124C71.4114 24.124 70.9613 24.124 70.4985 24.124C70.3908 24.4093 70.283 24.6946 70.1689 24.9862C70.0421 24.9862 69.9153 24.9862 69.7695 24.9862C70.1689 23.9656 70.5683 22.9513 70.9677 21.9307C71.1198 21.9307 71.2656 21.9307 71.4304 21.9307C71.8298 22.9513 72.2228 23.9656 72.6285 24.9925ZM71.7601 23.8007C71.5699 23.2999 71.386 22.8245 71.2022 22.3427C71.1895 22.3427 71.1832 22.3427 71.1705 22.3427C70.9867 22.8245 70.8028 23.2999 70.619 23.8007C71.0057 23.8007 71.367 23.8007 71.7601 23.8007Z" fill="#B8916D"/>
<path d="M65.2844 24.9862C65.1703 24.7009 65.0625 24.4157 64.9484 24.1241C64.4856 24.1241 64.0355 24.1241 63.5728 24.1241C63.465 24.4093 63.3572 24.6946 63.2431 24.9925C63.1163 24.9925 62.9896 24.9925 62.8438 24.9925C63.2431 23.9719 63.6362 22.964 64.0355 21.9434C64.1877 21.9434 64.3398 21.9434 64.5046 21.9434C64.8977 22.945 65.297 23.9592 65.6964 24.9862C65.5569 24.9862 65.4302 24.9862 65.2844 24.9862ZM64.8343 23.8008C64.6441 23.3 64.4666 22.8182 64.2701 22.3301C64.1306 22.59 63.7312 23.6867 63.7312 23.8008C64.0862 23.8008 64.4412 23.8008 64.8343 23.8008Z" fill="#B8916D"/>
<path d="M19.6977 39.4805H18.1878L20.3731 33.9178H21.9625L24.1478 39.4805H22.6379L22.3201 38.6063H20.0155L19.6977 39.4805ZM21.0248 35.8091L20.4526 37.4143H21.883L21.3108 35.8091C21.2632 35.674 21.2155 35.5389 21.1678 35.2449C21.1201 35.5389 21.0724 35.674 21.0248 35.8091ZM26.522 36.7786C26.522 34.6807 28.0319 33.7986 29.5338 33.7986C30.098 33.7986 30.6622 33.9178 31.147 34.1483V35.5389C30.8053 35.2529 30.2967 35.086 29.7881 35.086C28.906 35.086 28.0319 35.5707 28.0319 36.7786C28.0319 37.8594 28.906 38.3044 29.7722 38.3044C30.3444 38.3044 30.8689 38.1295 31.1867 37.8196V39.25C30.702 39.4805 30.1537 39.5997 29.5656 39.5997C28.0399 39.5997 26.522 38.7653 26.522 36.7786ZM40.0265 39.0513L39.0252 39.9334L38.4213 39.3295C38.0398 39.5043 37.5789 39.5997 37.0465 39.5997C35.0598 39.5997 34.0665 38.2487 34.0665 36.6991C34.0665 35.1495 35.0598 33.7986 37.0465 33.7986C39.0332 33.7986 40.0265 35.1495 40.0265 36.6991C40.0265 37.3667 39.8437 37.9944 39.4702 38.4951L40.0265 39.0513ZM35.5764 36.6991C35.5764 37.5892 36.085 38.2487 37.0465 38.2487C37.1419 38.2487 37.2372 38.2408 37.3246 38.2328L36.824 37.7322L37.7697 36.7945L38.3895 37.4143C38.469 37.1998 38.5166 36.9614 38.5166 36.6991C38.5166 35.8091 38.0081 35.1337 37.0465 35.1337C36.085 35.1337 35.5764 35.8091 35.5764 36.6991ZM46.6582 33.9178H48.1283V37.3587C48.1283 39.0355 46.8568 39.5997 45.6251 39.5997C44.3934 39.5997 43.1219 39.0355 43.1219 37.3587V33.9178H44.592V37.2792C44.592 38.0262 44.9973 38.2885 45.6251 38.2885C46.2529 38.2885 46.6582 38.0262 46.6582 37.2792V33.9178ZM51.506 33.9178H52.9761V39.4805H51.506V33.9178ZM56.2134 35.4356C56.2134 34.3231 57.167 33.7986 58.3114 33.7986C59.0027 33.7986 59.6941 33.9655 60.1788 34.2436V35.5946C59.702 35.237 59.0742 35.0621 58.4306 35.0701C57.8902 35.078 57.7233 35.2211 57.7233 35.4277C57.7233 36.1508 60.6159 35.9283 60.6159 37.8991C60.6159 39.2182 59.6067 39.5997 58.3908 39.5997C57.5882 39.5997 56.8412 39.4169 56.2532 39.0911V37.7004C56.9127 38.1534 57.6438 38.3282 58.2796 38.3282C58.8597 38.3282 59.106 38.2328 59.106 37.9547C59.106 37.1521 56.2134 37.4223 56.2134 35.4356ZM63.7317 33.9178H65.2018V39.4805H63.7317V33.9178ZM68.2167 33.9178H72.8257V35.229H71.2602V39.4805H69.7901V35.229H68.2167V33.9178ZM75.841 33.9178H77.3112V39.4805H75.841V33.9178ZM80.469 36.6991C80.469 35.1495 81.4624 33.7986 83.449 33.7986C85.4357 33.7986 86.429 35.1495 86.429 36.6991C86.429 38.2487 85.4357 39.5997 83.449 39.5997C81.4624 39.5997 80.469 38.2487 80.469 36.6991ZM84.9191 36.6991C84.9191 35.8091 84.4106 35.1495 83.449 35.1495C82.4875 35.1495 81.9789 35.8091 81.9789 36.6991C81.9789 37.5892 82.4875 38.2487 83.449 38.2487C84.4106 38.2487 84.9191 37.5892 84.9191 36.6991ZM91.0502 39.4805H89.58V33.9178H90.9707L93.1481 37.1124C93.1242 36.8501 93.1163 36.5005 93.1163 36.1906V33.9178H94.5864V39.4805H93.1958L91.0184 36.2939C91.0422 36.5561 91.0502 36.9058 91.0502 37.2077V39.4805ZM10.9734 49.4805H9.46358L11.6489 43.9178H13.2382L15.4236 49.4805H13.9137L13.5958 48.6063H11.2913L10.9734 49.4805ZM12.3005 45.8091L11.7284 47.4143H13.1588L12.5866 45.8091C12.5389 45.674 12.4913 45.5389 12.4436 45.2449C12.3959 45.5389 12.3482 45.674 12.3005 45.8091ZM19.8097 49.4805H18.3396V43.9178H19.7303L21.9077 47.1124C21.8838 46.8501 21.8759 46.5005 21.8759 46.1906V43.9178H23.346V49.4805H21.9553L19.778 46.2939C19.8018 46.5561 19.8097 46.9058 19.8097 47.2077V49.4805ZM26.7767 43.9178H28.9938C30.9805 43.9178 31.9023 45.078 31.9023 46.6991C31.9023 48.3203 30.9805 49.4805 28.9938 49.4805H26.7767V43.9178ZM30.3924 46.6991C30.3924 45.6581 29.8759 45.1893 28.9938 45.1893H28.2468V48.209H28.9938C29.8759 48.209 30.3924 47.7402 30.3924 46.6991ZM40.5812 49.4805H39.1111V43.9178H41.4553C42.5838 43.9178 43.736 44.3231 43.736 45.7932C43.736 46.715 43.2831 47.2157 42.6712 47.462L44.2049 49.4805H42.544L41.2169 47.6686H40.5812V49.4805ZM40.5812 45.1893V46.4766H41.5189C41.9401 46.4766 42.2262 46.2621 42.2262 45.833C42.2262 45.4038 41.9401 45.1893 41.5189 45.1893H40.5812ZM47.1446 43.9178H51.1498V45.1893H48.6148V46.0396H50.9114V47.3031H48.6148V48.209H51.1974V49.4805H47.1446V43.9178ZM54.012 43.9178H58.6211V45.229H57.0556V49.4805H55.5855V45.229H54.012V43.9178ZM61.6364 43.9178H65.6415V45.1893H63.1065V46.0396H65.4031V47.3031H63.1065V48.209H65.6892V49.4805H61.6364V43.9178ZM70.3951 49.4805H68.925V43.9178H70.3156L72.493 47.1124C72.4692 46.8501 72.4612 46.5005 72.4612 46.1906V43.9178H73.9314V49.4805H72.5407L70.3633 46.2939C70.3872 46.5561 70.3951 46.9058 70.3951 47.2077V49.4805ZM76.9409 43.9178H81.55V45.229H79.9845V49.4805H78.5143V45.229H76.9409V43.9178ZM84.5653 43.9178H86.0354V49.4805H84.5653V43.9178ZM89.1933 46.6991C89.1933 45.1495 90.1866 43.7986 92.1733 43.7986C94.1599 43.7986 95.1532 45.1495 95.1532 46.6991C95.1532 48.2487 94.1599 49.5997 92.1733 49.5997C90.1866 49.5997 89.1933 48.2487 89.1933 46.6991ZM93.6434 46.6991C93.6434 45.8091 93.1348 45.1495 92.1733 45.1495C91.2117 45.1495 90.7031 45.8091 90.7031 46.6991C90.7031 47.5892 91.2117 48.2487 92.1733 48.2487C93.1348 48.2487 93.6434 47.5892 93.6434 46.6991ZM99.7744 49.4805H98.3043V43.9178H99.6949L101.872 47.1124C101.848 46.8501 101.841 46.5005 101.841 46.1906V43.9178H103.311V49.4805H101.92L99.7426 46.2939C99.7665 46.5561 99.7744 46.9058 99.7744 47.2077V49.4805ZM32.3665 53.9178H34.5677C35.9425 53.9178 36.9915 54.3628 36.9915 55.825C36.9915 57.2872 35.9425 57.7243 34.5677 57.7322H33.8367V59.4805H32.3665V53.9178ZM35.4816 55.825C35.4816 55.3244 35.0843 55.1893 34.6393 55.1893H33.8367V56.4607H34.6393C35.0843 56.4607 35.4816 56.3257 35.4816 55.825ZM40.5243 59.4805H39.0144L41.1997 53.9178H42.789L44.9744 59.4805H43.4645L43.1466 58.6063H40.8421L40.5243 59.4805ZM41.8513 55.8091L41.2792 57.4143H42.7096L42.1374 55.8091C42.0897 55.674 42.0421 55.5389 41.9944 55.2449C41.9467 55.5389 41.899 55.674 41.8513 55.8091ZM49.3605 59.4805H47.8904V53.9178H50.2347C51.3631 53.9178 52.5154 54.3231 52.5154 55.7932C52.5154 56.715 52.0624 57.2157 51.4505 57.462L52.9842 59.4805H51.3234L49.9963 57.6686H49.3605V59.4805ZM49.3605 55.1893V56.4766H50.2983C50.7194 56.4766 51.0055 56.2621 51.0055 55.833C51.0055 55.4038 50.7194 55.1893 50.2983 55.1893H49.3605ZM55.3554 53.9178H59.9644V55.229H58.3989V59.4805H56.9288V55.229H55.3554V53.9178ZM64.4499 59.4805H62.9797V53.9178H64.3704L66.5478 57.1124C66.5239 56.8501 66.516 56.5005 66.516 56.1906V53.9178H67.9861V59.4805H66.5955L64.4181 56.2939C64.4419 56.5561 64.4499 56.9058 64.4499 57.2077V59.4805ZM71.4168 53.9178H75.4219V55.1893H72.887V56.0396H75.1835V57.3031H72.887V58.209H75.4696V59.4805H71.4168V53.9178ZM80.1755 59.4805H78.7054V53.9178H81.0497C82.1781 53.9178 83.3303 54.3231 83.3303 55.7932C83.3303 56.715 82.8774 57.2157 82.2655 57.462L83.7992 59.4805H82.1383L80.8113 57.6686H80.1755V59.4805ZM80.1755 55.1893V56.4766H81.1132C81.5344 56.4766 81.8205 56.2621 81.8205 55.833C81.8205 55.4038 81.5344 55.1893 81.1132 55.1893H80.1755Z" fill="#221E26"/>
<path d="M25.6543 77.419C25.6543 76.159 26.7343 75.565 28.0303 75.565C28.8133 75.565 29.5963 75.754 30.1453 76.069V77.599C29.6053 77.194 28.8943 76.996 28.1653 77.005C27.5533 77.014 27.3643 77.176 27.3643 77.41C27.3643 78.229 30.6403 77.977 30.6403 80.209C30.6403 81.703 29.4973 82.135 28.1203 82.135C27.2113 82.135 26.3653 81.928 25.6993 81.559V79.984C26.4463 80.497 27.2743 80.695 27.9943 80.695C28.6513 80.695 28.9303 80.587 28.9303 80.272C28.9303 79.363 25.6543 79.669 25.6543 77.419ZM37.2741 75.7H38.9391V82H37.2741V79.597H34.9341V82H33.2691V75.7H34.9341V78.112H37.2741V75.7ZM41.6096 78.85C41.6096 77.095 42.7346 75.565 44.9846 75.565C47.2346 75.565 48.3596 77.095 48.3596 78.85C48.3596 80.605 47.2346 82.135 44.9846 82.135C42.7346 82.135 41.6096 80.605 41.6096 78.85ZM46.6496 78.85C46.6496 77.842 46.0736 77.095 44.9846 77.095C43.8956 77.095 43.3196 77.842 43.3196 78.85C43.3196 79.858 43.8956 80.605 44.9846 80.605C46.0736 80.605 46.6496 79.858 46.6496 78.85ZM52.6933 82H51.0283V75.7H53.6833C54.9613 75.7 56.2663 76.159 56.2663 77.824C56.2663 78.868 55.7533 79.435 55.0603 79.714L56.7973 82H54.9163L53.4133 79.948H52.6933V82ZM52.6933 77.14V78.598H53.7553C54.2323 78.598 54.5563 78.355 54.5563 77.869C54.5563 77.383 54.2323 77.14 53.7553 77.14H52.6933ZM58.5827 75.7H63.8027V77.185H62.0297V82H60.3647V77.185H58.5827V75.7ZM66.3177 75.7H67.9827V80.515H70.8627V82H66.3177V75.7ZM73.3736 75.7H75.0386V82H73.3736V75.7ZM77.805 77.419C77.805 76.159 78.885 75.565 80.181 75.565C80.964 75.565 81.747 75.754 82.296 76.069V77.599C81.756 77.194 81.045 76.996 80.316 77.005C79.704 77.014 79.515 77.176 79.515 77.41C79.515 78.229 82.791 77.977 82.791 80.209C82.791 81.703 81.648 82.135 80.271 82.135C79.362 82.135 78.516 81.928 77.85 81.559V79.984C78.597 80.497 79.425 80.695 80.145 80.695C80.802 80.695 81.081 80.587 81.081 80.272C81.081 79.363 77.805 79.669 77.805 77.419ZM84.8286 75.7H90.0486V77.185H88.2756V82H86.6106V77.185H84.8286V75.7ZM43.9111 86.7H49.1311V88.185H47.3581V93H45.6931V88.185H43.9111V86.7ZM51.1378 89.85C51.1378 88.095 52.2628 86.565 54.5128 86.565C56.7628 86.565 57.8878 88.095 57.8878 89.85C57.8878 91.605 56.7628 93.135 54.5128 93.135C52.2628 93.135 51.1378 91.605 51.1378 89.85ZM56.1778 89.85C56.1778 88.842 55.6018 88.095 54.5128 88.095C53.4238 88.095 52.8478 88.842 52.8478 89.85C52.8478 90.858 53.4238 91.605 54.5128 91.605C55.6018 91.605 56.1778 90.858 56.1778 89.85ZM60.5565 86.7H63.0495C64.6065 86.7 65.7945 87.204 65.7945 88.86C65.7945 90.516 64.6065 91.011 63.0495 91.02H62.2215V93H60.5565V86.7ZM64.0845 88.86C64.0845 88.293 63.6345 88.14 63.1305 88.14H62.2215V89.58H63.1305C63.6345 89.58 64.0845 89.427 64.0845 88.86ZM72.6162 88.446C72.6162 89.085 72.2742 89.535 71.6712 89.742C72.3462 89.949 72.8682 90.444 72.8682 91.326C72.8682 92.667 71.5902 93.135 70.3032 93.135C69.5652 93.135 68.9352 93.018 68.1882 92.721V91.191C68.9262 91.614 69.5292 91.704 70.1682 91.695C70.7622 91.686 71.2842 91.506 71.2842 91.056C71.2842 90.696 70.9512 90.552 70.4472 90.552H69.4032L69.4122 89.157L70.2582 89.166C70.6992 89.175 71.0412 89.058 71.0412 88.707C71.0412 88.365 70.7172 88.185 70.0962 88.185C69.5922 88.185 68.8992 88.374 68.2962 88.779V87.249C68.8452 86.934 69.5832 86.745 70.3212 86.745C71.6082 86.745 72.6162 87.267 72.6162 88.446Z" fill="#B8916D"/>
</svg>
