<svg width="83" height="116" viewBox="0 0 83 116" fill="none" xmlns="http://www.w3.org/2000/svg">
<g clip-path="url(#clip0_904_127)">
<path d="M3.36328 40.5788C3.36328 39.6179 3.36328 38.6606 3.36328 37.6996C3.40647 37.4045 3.47485 37.113 3.49284 36.8179C3.61881 34.7413 3.92472 32.6935 4.41418 30.678C6.07691 23.8544 9.41316 17.9665 14.4769 13.1042C20.9767 6.86361 28.7613 3.49497 37.7587 2.96952C41.077 2.77517 44.37 3.05949 47.6163 3.80088C54.3644 5.33764 60.2307 8.51554 65.1253 13.403C71.7258 19.9999 75.296 27.9896 75.8287 37.3181C76.0194 40.6436 75.7315 43.9295 74.9901 47.1721C73.403 54.0786 70.1027 60.0529 65.0281 64.9979C58.4492 71.4077 50.5423 74.8483 41.3613 75.3413C38.2806 75.5069 35.2286 75.2586 32.2127 74.6179C24.8708 73.0596 18.5798 69.5758 13.4224 64.1341C7.39413 57.7855 4.09747 50.2061 3.48925 41.4642C3.47125 41.1691 3.40647 40.8739 3.36328 40.5788ZM50.0384 54.3953C54.1592 54.3953 58.2513 54.3953 62.3937 54.3953C56.9916 39.1032 51.6004 23.8472 46.2163 8.60552C41.9155 8.60552 37.6651 8.60552 33.3931 8.60552C27.9371 23.7572 22.4846 38.8909 17.0322 54.0282C16.9962 54.129 16.971 54.2333 16.9386 54.3377C16.935 54.3485 16.9386 54.3629 16.9458 54.3737C16.9494 54.3845 16.9602 54.3881 16.9746 54.4025C20.9911 54.4025 25.0147 54.4025 29.06 54.4025C29.5674 52.7901 30.0677 51.1922 30.5679 49.5907C31.0718 47.9891 31.5721 46.3912 32.0759 44.7896C32.5798 43.1881 33.08 41.5901 33.5839 39.9886C34.0913 38.3762 34.5952 36.7639 35.1027 35.1552C35.6065 33.5536 36.1068 31.9557 36.6106 30.3541C37.1145 28.7526 37.6147 27.1546 38.1186 25.5531C38.6189 23.9695 39.1047 22.3788 39.6842 20.8096C43.1392 32.0061 46.587 43.1989 50.0384 54.3953ZM46.2235 48.367C46.2415 44.7788 43.3155 41.8349 39.7561 41.7737C36.2759 41.7125 33.116 44.4945 33.08 48.3022C33.0476 51.9228 35.9772 54.8884 39.5978 54.9099C43.2471 54.9315 46.2055 52.0128 46.2235 48.367ZM24.2445 56.5547C24.1654 57.2961 24.1978 61.8704 24.2913 62.1547C25.2954 62.1187 26.314 62.2339 27.3217 62.0827C27.6204 62.0395 27.9227 61.9064 28.1782 61.7444C29.0168 61.2225 29.1571 59.675 27.9767 59.2467C27.9335 59.2323 27.8939 59.2071 27.8363 59.1783C27.8867 59.1423 27.9227 59.1064 27.9623 59.0884C28.5021 58.8436 28.7073 58.3974 28.6713 57.8359C28.6353 57.2709 28.3114 56.9002 27.7859 56.731C27.4728 56.6303 27.1309 56.5727 26.8034 56.5619C26.1232 56.5367 25.4394 56.5547 24.7556 56.5547C24.5936 56.5547 24.4281 56.5547 24.2445 56.5547ZM23.7839 58.3542C23.5967 57.5732 23.2008 57.0261 22.5134 56.695C22.1283 56.5115 21.7145 56.4359 21.2934 56.4287C19.8754 56.4071 18.9073 57.1809 18.569 58.4261C18.4502 58.8616 18.4358 59.3043 18.4754 59.747C18.5798 60.9022 19.278 61.802 20.3181 62.1331C20.6888 62.2519 21.0702 62.2663 21.4553 62.2555C23.1936 62.2159 24.0178 60.8159 23.8451 59.1423C23.4528 59.056 21.3906 59.0776 21.153 59.1675C21.153 59.4375 21.153 59.7074 21.153 60.0205C21.6389 60.0205 22.0996 60.0205 22.5746 60.0205C22.5422 60.5064 22.3983 60.8842 22.006 61.129C21.333 61.5501 20.3612 61.3197 20.0085 60.6143C19.5875 59.7722 19.6091 58.894 20.0193 58.0519C20.2641 57.548 20.7319 57.3537 21.2718 57.368C21.8152 57.386 22.2399 57.6164 22.4523 58.1526C22.4774 58.2174 22.5098 58.2822 22.5386 58.3542C22.9489 58.3542 23.3412 58.3542 23.7839 58.3542ZM53.0687 60.51C53.2667 61.0642 53.4646 61.6112 53.6518 62.1295C53.9289 62.1295 54.1484 62.1295 54.422 62.1295C53.7525 60.2436 53.0939 58.401 52.4461 56.5763C52.0898 56.5763 51.7803 56.5763 51.4564 56.5763C50.7906 58.4297 50.1284 60.2724 49.4554 62.1439C49.7397 62.1439 49.9664 62.1439 50.2148 62.1439C50.4019 61.5968 50.5891 61.057 50.7762 60.5136C51.55 60.51 52.3022 60.51 53.0687 60.51ZM34.1453 62.1439C33.4687 60.24 32.8137 58.3974 32.1551 56.5547C31.9068 56.5547 31.7052 56.5547 31.5001 56.5547C31.1798 56.5583 31.1798 56.5583 31.0682 56.8606C30.4708 58.5161 29.8769 60.1716 29.2831 61.8272C29.2471 61.9244 29.2291 62.0251 29.1967 62.1403C29.3155 62.1475 29.3983 62.1583 29.4811 62.1583C29.9813 62.1511 29.9057 62.2195 30.0713 61.7336C30.208 61.3269 30.3484 60.9202 30.4888 60.5172C31.2661 60.5172 32.0183 60.5172 32.7885 60.5172C32.9829 61.0642 33.1736 61.604 33.3679 62.1475C33.6199 62.1439 33.843 62.1439 34.1453 62.1439ZM62.588 61.5249C61.6487 61.5249 60.7346 61.5249 59.7988 61.5249C59.7988 60.8195 59.7988 60.1573 59.7988 59.4591C60.1119 59.4591 60.3963 59.4591 60.6806 59.4591C60.9577 59.4591 61.2312 59.4663 61.5083 59.4591C61.7891 59.4519 62.0734 59.495 62.3397 59.4303C62.3397 59.2215 62.3397 59.0596 62.3397 58.8688C61.476 58.84 60.6338 58.8796 59.8024 58.8472C59.8024 58.2678 59.8024 57.7351 59.8024 57.1593C60.1263 57.1593 60.4251 57.1593 60.7202 57.1593C61.0333 57.1593 61.3428 57.1701 61.6559 57.1557C61.9474 57.1449 62.2461 57.2133 62.5592 57.0981C62.5485 56.9146 62.5413 56.7418 62.5341 56.5799C61.3428 56.5799 60.1983 56.5799 59.0574 56.5799C59.0574 58.4441 59.0574 60.2796 59.0574 62.1367C60.2451 62.1367 61.404 62.1367 62.588 62.1367C62.588 61.9352 62.588 61.7516 62.588 61.5249ZM39.551 62.1367C39.551 61.3089 39.551 60.5244 39.551 59.7038C40.4003 59.7038 41.2209 59.7038 42.0451 59.7038C42.0451 59.4914 42.0451 59.3187 42.0451 59.1028C41.1993 59.1028 40.3788 59.1028 39.5582 59.1028C39.5582 58.4441 39.5582 57.8287 39.5582 57.1737C40.0225 57.1737 40.4507 57.1737 40.879 57.1737C41.3073 57.1737 41.7356 57.1737 42.1746 57.1737C42.1746 56.9434 42.1746 56.7598 42.1746 56.5727C41.0374 56.5727 39.9253 56.5727 38.7988 56.5727C38.7988 58.4369 38.7988 60.2832 38.7988 62.1367C39.0543 62.1367 39.2775 62.1367 39.551 62.1367ZM38.0214 59.1028C37.1613 59.1028 36.3371 59.1028 35.5237 59.1028C35.5237 58.4441 35.5237 57.8287 35.5237 57.1665C36.4127 57.1665 37.2692 57.1665 38.133 57.1665C38.133 56.9398 38.133 56.7562 38.133 56.5763C36.9921 56.5763 35.8836 56.5763 34.7572 56.5763C34.7572 58.4369 34.7572 60.276 34.7572 62.1331C35.0091 62.1331 35.243 62.1331 35.4949 62.1331C35.4949 61.3233 35.4949 60.5387 35.4949 59.7074C36.3479 59.7074 37.1793 59.7074 38.0214 59.7074C38.0214 59.4986 38.0214 59.3367 38.0214 59.1028ZM56.0379 57.1629C56.0379 58.0411 56.0379 58.8544 56.0379 59.6678C56.0379 60.4884 56.0055 61.3089 56.0343 62.1151C56.3186 62.1151 56.549 62.1151 56.8009 62.1151C56.7901 60.4488 56.7217 58.8148 56.8153 57.1737C57.3659 57.1233 57.8806 57.1953 58.3808 57.1269C58.3808 56.9218 58.3808 56.749 58.3808 56.5799C57.8374 56.5151 54.6775 56.5367 54.422 56.6051C54.422 56.7778 54.422 56.9506 54.422 57.1593C54.9618 57.1629 55.4729 57.1629 56.0379 57.1629ZM44.9351 61.5321C44.9351 59.8477 44.9351 58.2246 44.9351 56.5835C44.6723 56.5835 44.442 56.5835 44.2045 56.5835C44.2045 58.4477 44.2045 60.2868 44.2045 62.1367C45.3022 62.1367 46.3746 62.1367 47.4507 62.1367C47.4507 61.928 47.4507 61.748 47.4507 61.5321C46.6122 61.5321 45.8024 61.5321 44.9351 61.5321ZM16.899 62.1367C17.3165 62.1367 17.7016 62.1367 18.1047 62.1367C18.1047 60.7583 18.1047 59.4015 18.1047 58.0303C17.6944 58.0303 17.3057 58.0303 16.899 58.0303C16.899 59.4015 16.899 60.7475 16.899 62.1367ZM43.5459 62.1367C43.5459 60.2508 43.5459 58.4154 43.5459 56.5727C43.2939 56.5727 43.0708 56.5727 42.8333 56.5727C42.8333 58.4369 42.8333 60.2832 42.8333 62.1367C43.0852 62.1367 43.3083 62.1367 43.5459 62.1367ZM48.8256 62.1367C48.8256 60.2688 48.8256 58.4225 48.8256 56.5799C48.5736 56.5799 48.3541 56.5799 48.1274 56.5799C48.1274 58.4441 48.1274 60.2796 48.1274 62.1367C48.3649 62.1367 48.5772 62.1367 48.8256 62.1367ZM18.1083 57.602C18.1083 57.2421 18.1083 56.9146 18.1083 56.5655C17.6944 56.5439 17.2985 56.5331 16.9098 56.5655C16.9098 56.9362 16.9098 57.2601 16.9098 57.602C17.3129 57.602 17.6908 57.602 18.1083 57.602Z" fill="#221E26"/>
<path d="M82.9356 7.12304C82.914 7.17703 82.8816 7.23101 82.8744 7.285C82.5613 10.0022 80.553 12.23 77.897 12.8094C74.2548 13.6012 70.7422 11.2799 70.0872 7.60891C69.4466 4.02073 71.8687 0.695272 75.3993 0.0834458C75.5361 0.0582529 75.6728 0.0258621 75.8132 -0.00292969C76.2451 -0.00292969 76.677 -0.00292969 77.1088 -0.00292969C77.4435 0.0690499 77.7818 0.126633 78.1165 0.213009C80.6826 0.87882 82.5685 3.03821 82.878 5.66546C82.8852 5.71944 82.9176 5.77343 82.9392 5.82741C82.9356 6.25929 82.9356 6.69117 82.9356 7.12304ZM78.2785 9.84027C78.4297 9.99503 78.5628 10.1174 78.6816 10.2506C78.7824 10.3657 78.8939 10.4233 79.0559 10.4197C79.5957 10.4125 80.1356 10.4161 80.6718 10.4161C80.7258 10.4161 80.7798 10.3981 80.8985 10.3801C80.6142 10.085 80.3695 9.82588 80.1248 9.57035C79.8692 9.30402 79.6173 9.0377 79.3726 8.78217C79.9808 7.79605 80.3155 6.5868 80.1608 5.97137C79.6749 5.97137 79.1854 5.97137 78.678 5.97137C78.6204 6.54001 78.5664 7.09785 78.2605 7.6233C77.8826 7.22382 77.5263 6.85312 77.1736 6.47883C77.134 6.43564 77.1016 6.38885 77.0512 6.32407C77.2276 6.17651 77.3932 6.04335 77.5587 5.90659C77.861 5.66186 78.095 5.35955 78.2497 5.00325C78.6888 4.00633 78.3181 3.02021 77.3176 2.58833C76.5042 2.23923 75.68 2.26083 74.8847 2.65312C74.2476 2.96623 73.8662 3.48088 73.8194 4.20427C73.787 4.74052 73.9669 5.21559 74.2944 5.64027C74.3736 5.74104 74.4492 5.84181 74.5284 5.94258C74.2584 6.16212 73.9993 6.35286 73.7618 6.5688C73.4163 6.88191 73.1715 7.25621 73.0816 7.72407C72.862 8.85775 73.3659 9.83307 74.424 10.3045C75.205 10.6536 76.0219 10.6824 76.8533 10.5349C77.3752 10.4377 77.8322 10.1822 78.2785 9.84027Z" fill="#221E26"/>
<path d="M55.2371 90.1546C55.0536 90.1078 54.87 90.0538 54.6829 90.0214C52.5847 89.6507 51.1955 88.3443 50.7384 86.2533C50.4469 84.9289 50.4721 83.6045 50.9255 82.316C51.5841 80.4482 52.9194 79.3757 54.8664 79.0733C55.9389 78.9042 57.0006 78.9762 58.0119 79.39C59.6135 80.0415 60.56 81.2651 60.9523 82.917C61.2834 84.3134 61.2438 85.7063 60.704 87.0487C60.0453 88.6934 58.8073 89.6507 57.0834 90.007C56.8746 90.0502 56.6659 90.1042 56.4572 90.1546C56.0541 90.1546 55.6474 90.1546 55.2371 90.1546ZM57.8788 84.4322C57.8644 84.2631 57.8608 83.9967 57.8248 83.7376C57.7492 83.2122 57.6088 82.7083 57.2813 82.2728C56.6119 81.3875 55.2875 81.3335 54.5497 82.1613C54.2978 82.442 54.1358 82.7767 54.0315 83.1366C53.8083 83.9212 53.7831 84.7201 53.9163 85.5191C53.9739 85.8682 54.0818 86.2209 54.2402 86.5376C54.6217 87.3078 55.4243 87.6533 56.2628 87.4554C56.961 87.2934 57.3641 86.8183 57.6088 86.1813C57.8176 85.6523 57.8644 85.0908 57.8788 84.4322Z" fill="#B8916D"/>
<path d="M20.9184 90.1548C20.7457 90.1116 20.5765 90.0576 20.4002 90.0253C18.2588 89.6402 16.902 88.3625 16.4341 86.2391C16.1174 84.8031 16.175 83.3744 16.74 82.0031C17.4238 80.3512 18.6906 79.4047 20.4325 79.088C21.3143 78.9296 22.2032 78.9476 23.0706 79.1779C24.8053 79.6422 25.957 80.7471 26.5112 82.4422C26.9755 83.8602 26.9827 85.3034 26.5148 86.7214C25.9102 88.5569 24.6218 89.6402 22.7287 90.0109C22.5307 90.0505 22.3364 90.1044 22.1385 90.1512C21.7318 90.1548 21.3251 90.1548 20.9184 90.1548ZM19.5364 84.5836C19.5328 85.3898 19.6552 86.0196 19.9035 86.5019C20.321 87.308 21.1379 87.6679 22.0161 87.4376C22.6675 87.2648 23.0634 86.8222 23.2793 86.2175C23.668 85.1343 23.668 84.0366 23.3189 82.9425C23.2577 82.7517 23.1606 82.5646 23.0526 82.3954C22.3544 81.3121 20.8176 81.2869 20.0906 82.3558C19.9431 82.5682 19.8387 82.8165 19.7487 83.0612C19.5796 83.5543 19.5328 84.069 19.5364 84.5836Z" fill="#B8916D"/>
<path d="M50.0389 54.3962C46.5911 43.1998 43.1396 32.007 39.6918 20.8106C39.1124 22.3797 38.6265 23.9705 38.1263 25.554C37.6188 27.152 37.1186 28.7535 36.6183 30.3551C36.1144 31.9566 35.6142 33.5545 35.1103 35.1561C34.6029 36.7684 34.099 38.3808 33.5916 39.9895C33.0877 41.5911 32.5874 43.189 32.0836 44.7906C31.5797 46.3921 31.0795 47.99 30.5756 49.5916C30.0754 51.1895 29.5715 52.7911 29.0676 54.4034C25.0224 54.4034 20.9987 54.4034 16.9823 54.4034C16.9679 54.389 16.9571 54.3818 16.9535 54.3746C16.9499 54.3638 16.9427 54.3494 16.9463 54.3386C16.9751 54.2343 17.0003 54.1299 17.0399 54.0291C22.4923 38.8918 27.9448 23.7545 33.4008 8.60645C37.6728 8.60645 41.9232 8.60645 46.224 8.60645C51.608 23.8481 56.9993 39.1042 62.4014 54.3962C58.2518 54.3962 54.1597 54.3962 50.0389 54.3962Z" fill="white"/>
<path d="M46.2219 48.3673C46.2039 52.0095 43.2455 54.9283 39.5961 54.9067C35.9756 54.8851 33.046 51.9195 33.0784 48.299C33.1144 44.4912 36.2743 41.7128 39.7545 41.7704C43.3139 41.8352 46.2398 44.7792 46.2219 48.3673Z" fill="white"/>
<path d="M24.2437 56.5551C24.4273 56.5551 24.5928 56.5551 24.7584 56.5551C25.4422 56.5551 26.126 56.5371 26.8062 56.5623C27.1373 56.573 27.4756 56.6306 27.7887 56.7314C28.3106 56.897 28.6381 57.2713 28.6741 57.8363C28.7101 58.4013 28.5049 58.844 27.9651 59.0887C27.9219 59.1067 27.8895 59.1427 27.8391 59.1787C27.8967 59.2075 27.9363 59.2291 27.9795 59.2471C29.1563 59.6754 29.016 61.2229 28.181 61.7448C27.9219 61.9067 27.6196 62.0399 27.3245 62.0831C26.3131 62.2342 25.2982 62.1227 24.2941 62.1551C24.1969 61.8707 24.1646 57.2928 24.2437 56.5551ZM25.4134 59.6538C25.4026 60.1864 25.3954 60.7011 25.417 61.2409C25.928 61.2409 26.3923 61.2553 26.8566 61.2373C27.2993 61.2193 27.5404 60.9422 27.544 60.4887C27.5512 59.9885 27.3065 59.679 26.853 59.661C26.3887 59.6394 25.9244 59.6538 25.4134 59.6538ZM25.4278 58.8404C25.9101 58.8404 26.3527 58.844 26.7954 58.8368C26.889 58.8368 26.9861 58.8044 27.0725 58.7684C27.3352 58.6533 27.4396 58.4121 27.4 58.0414C27.364 57.7391 27.1913 57.516 26.9178 57.5016C26.4319 57.48 25.9424 57.4944 25.4314 57.4944C25.4278 57.9479 25.4278 58.3725 25.4278 58.8404Z" fill="white"/>
<path d="M23.782 58.3554C23.3393 58.3554 22.947 58.3554 22.544 58.3554C22.5116 58.2835 22.4828 58.2187 22.4576 58.1539C22.2452 57.6213 21.8206 57.3873 21.2771 57.3693C20.7337 57.3513 20.2694 57.5457 20.0247 58.0531C19.6144 58.8989 19.5928 59.7734 20.0139 60.6156C20.3666 61.321 21.3383 61.5513 22.0113 61.1303C22.4036 60.8855 22.5476 60.5076 22.5799 60.0218C22.1013 60.0218 21.6442 60.0218 21.1583 60.0218C21.1583 59.7087 21.1583 59.4423 21.1583 59.1688C21.3959 59.0752 23.4617 59.0537 23.8504 59.1436C24.0231 60.8171 23.199 62.2172 21.4607 62.2567C21.0756 62.2639 20.6941 62.2531 20.3234 62.1344C19.2869 61.8033 18.5851 60.9035 18.4807 59.7483C18.4411 59.3056 18.4555 58.8593 18.5743 58.4274C18.9126 57.1822 19.8807 56.412 21.2987 56.43C21.7198 56.4372 22.1337 56.5128 22.5188 56.6963C23.199 57.0238 23.5949 57.5745 23.782 58.3554Z" fill="white"/>
<path d="M53.0665 60.5105C52.2999 60.5105 51.5477 60.5105 50.774 60.5105C50.5868 61.0576 50.3997 61.5974 50.2125 62.1409C49.9642 62.1409 49.7374 62.1409 49.4531 62.1409C50.1261 60.2694 50.7883 58.4267 51.4542 56.5732C51.7781 56.5732 52.0876 56.5732 52.4439 56.5732C53.0917 58.3979 53.7503 60.2406 54.4197 62.1265C54.1462 62.1265 53.9267 62.1265 53.6495 62.1265C53.4624 61.6118 53.268 61.0648 53.0665 60.5105ZM52.7786 59.8195C52.7426 59.42 52.0408 57.4118 51.886 57.2534C51.4722 58.29 51.0691 59.5712 51.0763 59.8195C51.6449 59.8195 52.2099 59.8195 52.7786 59.8195Z" fill="white"/>
<path d="M34.1439 62.1446C33.8416 62.1446 33.6185 62.1446 33.3665 62.1446C33.1722 61.6011 32.9814 61.0613 32.7871 60.5142C32.0169 60.5142 31.2647 60.5142 30.4873 60.5142C30.347 60.9209 30.2066 61.3276 30.0699 61.7307C29.9043 62.2201 29.9799 62.1518 29.4796 62.1554C29.3969 62.1554 29.3141 62.1446 29.1953 62.1374C29.2277 62.0222 29.2457 61.9214 29.2817 61.8243C29.8755 60.1687 30.4729 58.5132 31.0668 56.8577C31.1747 56.5554 31.1783 56.5554 31.4987 56.5518C31.7002 56.5518 31.9053 56.5518 32.1537 56.5518C32.8123 58.398 33.4673 60.2407 34.1439 62.1446ZM30.7249 59.8196C31.3691 59.8196 31.9377 59.8196 32.5532 59.8196C32.258 58.9307 31.9737 58.0849 31.6714 57.2392C31.6462 57.2428 31.6174 57.2428 31.5922 57.2464C31.3079 58.0921 31.0236 58.9343 30.7249 59.8196Z" fill="white"/>
<path d="M62.5853 61.5257C62.5853 61.7525 62.5853 61.936 62.5853 62.134C61.4012 62.134 60.2423 62.134 59.0547 62.134C59.0547 60.2805 59.0547 58.4414 59.0547 56.5771C60.1956 56.5771 61.34 56.5771 62.5313 56.5771C62.5385 56.7391 62.5493 56.9083 62.5565 57.0954C62.2434 57.2106 61.9447 57.1422 61.6531 57.153C61.3436 57.1638 61.0305 57.1566 60.7174 57.1566C60.4223 57.1566 60.1236 57.1566 59.7997 57.1566C59.7997 57.7324 59.7997 58.2651 59.7997 58.8445C60.631 58.8769 61.4768 58.8373 62.337 58.8661C62.337 59.0568 62.337 59.2188 62.337 59.4275C62.0706 59.4923 61.7863 59.4491 61.5056 59.4563C61.2285 59.4635 60.9549 59.4563 60.6778 59.4563C60.3935 59.4563 60.1056 59.4563 59.7961 59.4563C59.7961 60.1545 59.7961 60.8167 59.7961 61.5221C60.7318 61.5257 61.6459 61.5257 62.5853 61.5257Z" fill="white"/>
<path d="M39.553 62.1373C39.2794 62.1373 39.0563 62.1373 38.8008 62.1373C38.8008 60.2838 38.8008 58.4375 38.8008 56.5732C39.9273 56.5732 41.0357 56.5732 42.1766 56.5732C42.1766 56.764 42.1766 56.9439 42.1766 57.1743C41.7375 57.1743 41.3093 57.1743 40.881 57.1743C40.4527 57.1743 40.0244 57.1743 39.5602 57.1743C39.5602 57.8293 39.5602 58.4447 39.5602 59.1033C40.3807 59.1033 41.2013 59.1033 42.0471 59.1033C42.0471 59.3193 42.0471 59.492 42.0471 59.7044C41.2229 59.7044 40.4023 59.7044 39.553 59.7044C39.553 60.5285 39.553 61.3095 39.553 62.1373Z" fill="white"/>
<path d="M38.0221 59.1036C38.0221 59.334 38.0221 59.4959 38.0221 59.7083C37.1799 59.7083 36.3486 59.7083 35.4956 59.7083C35.4956 60.5396 35.4956 61.3242 35.4956 62.134C35.2401 62.134 35.0097 62.134 34.7578 62.134C34.7578 60.2769 34.7578 58.4378 34.7578 56.5771C35.8843 56.5771 36.9928 56.5771 38.1337 56.5771C38.1337 56.7571 38.1337 56.9406 38.1337 57.1674C37.2699 57.1674 36.4133 57.1674 35.5244 57.1674C35.5244 57.8296 35.5244 58.445 35.5244 59.1036C36.3414 59.1036 37.1619 59.1036 38.0221 59.1036Z" fill="white"/>
<path d="M56.0378 57.1632C55.4728 57.1632 54.9617 57.1632 54.4219 57.1632C54.4219 56.9545 54.4219 56.7817 54.4219 56.609C54.6774 56.5406 57.8373 56.519 58.3807 56.5838C58.3807 56.7529 58.3807 56.9221 58.3807 57.1308C57.8805 57.1956 57.3658 57.1236 56.8152 57.1776C56.7216 58.8187 56.79 60.4527 56.8008 62.119C56.5489 62.119 56.3185 62.119 56.0342 62.119C56.0054 61.3092 56.0378 60.4887 56.0378 59.6717C56.0378 58.8547 56.0378 58.0414 56.0378 57.1632Z" fill="white"/>
<path d="M44.9337 61.5326C45.8011 61.5326 46.6108 61.5326 47.4494 61.5326C47.4494 61.7485 47.4494 61.9285 47.4494 62.1372C46.3697 62.1372 45.3008 62.1372 44.2031 62.1372C44.2031 60.2837 44.2031 58.4483 44.2031 56.584C44.4443 56.584 44.6746 56.584 44.9337 56.584C44.9337 58.2215 44.9337 59.8483 44.9337 61.5326Z" fill="white"/>
<path d="M16.8984 62.1377C16.8984 60.7485 16.8984 59.4025 16.8984 58.0312C17.3051 58.0312 17.6938 58.0312 18.1041 58.0312C18.1041 59.4025 18.1041 60.7593 18.1041 62.1377C17.7046 62.1377 17.3159 62.1377 16.8984 62.1377Z" fill="white"/>
<path d="M43.5446 62.1373C43.3071 62.1373 43.084 62.1373 42.832 62.1373C42.832 60.2838 42.832 58.4411 42.832 56.5732C43.0696 56.5732 43.2927 56.5732 43.5446 56.5732C43.5446 58.4159 43.5446 60.2514 43.5446 62.1373Z" fill="white"/>
<path d="M48.8271 62.1379C48.5752 62.1379 48.3628 62.1379 48.1289 62.1379C48.1289 60.2808 48.1289 58.4453 48.1289 56.5811C48.352 56.5811 48.5716 56.5811 48.8271 56.5811C48.8271 58.4237 48.8271 60.27 48.8271 62.1379Z" fill="white"/>
<path d="M18.1125 57.6031C17.695 57.6031 17.3171 57.6031 16.9141 57.6031C16.9141 57.2612 16.9141 56.9337 16.9141 56.5666C17.3028 56.5342 17.695 56.5414 18.1125 56.5666C18.1125 56.9157 18.1125 57.2432 18.1125 57.6031Z" fill="white"/>
<path d="M35.1106 85.455C35.1106 83.4108 35.1106 81.3702 35.1106 79.2756C36.0247 79.2648 36.9029 79.272 37.7774 79.272C37.8566 79.5527 37.8746 89.3635 37.8026 89.835C36.435 89.835 35.0602 89.835 33.6638 89.835C33.2427 88.7733 32.818 87.708 32.3934 86.6391C31.9759 85.5846 31.5584 84.5301 31.1013 83.4792C31.033 83.9974 31.0545 84.5121 31.0509 85.0267C31.0474 85.5666 31.0509 86.1064 31.0509 86.6463C31.0509 87.1753 31.0509 87.7008 31.0509 88.2298C31.0509 88.7553 31.0509 89.2807 31.0509 89.8602C30.144 89.8638 29.2623 89.8638 28.3913 89.8602C28.3121 89.5866 28.2869 79.855 28.3589 79.3295C28.6216 79.2648 32.1126 79.2432 32.5733 79.3116C33.3867 81.3522 34.2073 83.4108 35.0278 85.4658C35.053 85.4586 35.0818 85.4586 35.1106 85.455Z" fill="#B8916D"/>
<path d="M65.3569 89.8384C64.4355 89.8384 63.5682 89.8384 62.6972 89.8384C62.6109 89.5901 62.5785 79.8729 62.6612 79.3258C62.9204 79.2574 66.415 79.2394 66.8793 79.3078C67.6962 81.3556 68.5204 83.4178 69.3409 85.4837C69.3697 85.4801 69.3949 85.4729 69.4237 85.4693C69.4237 83.4178 69.4237 81.37 69.4237 79.297C70.3487 79.297 71.2268 79.297 72.1302 79.297C72.1302 82.8132 72.1302 86.3186 72.1302 89.842C70.7481 89.842 69.3841 89.842 67.9733 89.842C67.1348 87.733 66.289 85.606 65.4433 83.4754C65.4145 83.479 65.3857 83.4862 65.3569 83.4898C65.3569 85.5988 65.3569 87.7114 65.3569 89.8384Z" fill="#B8916D"/>
<path d="M39.5547 89.8452C39.5547 86.3182 39.5547 82.8236 39.5547 79.3002C39.6699 79.2894 39.7706 79.275 39.875 79.275C41.3146 79.275 42.7506 79.2714 44.1902 79.275C44.8308 79.275 45.4534 79.365 46.0616 79.5702C47.4724 80.0452 48.4478 80.9738 48.9228 82.3846C49.4519 83.9537 49.4123 85.5265 48.7537 87.0524C48.1059 88.5532 46.947 89.4386 45.3418 89.7157C44.8488 89.802 44.3413 89.8452 43.8411 89.8524C42.4987 89.8704 41.1562 89.8596 39.8138 89.8596C39.7418 89.856 39.6699 89.8488 39.5547 89.8452ZM42.6642 87.1892C43.0889 87.1892 43.474 87.2252 43.8519 87.182C45.0467 87.0452 45.7269 86.419 45.9321 85.2889C46.04 84.6951 46.0256 84.0941 45.8673 83.5074C45.7089 82.9136 45.3814 82.4421 44.8164 82.165C44.1362 81.8339 43.4092 81.8555 42.6642 81.8951C42.6642 83.6694 42.6642 85.4113 42.6642 87.1892Z" fill="#B8916D"/>
<path d="M15.3526 87.229C15.3526 88.1252 15.3526 88.9709 15.3526 89.8383C12.7758 89.8383 10.2169 89.8383 7.63281 89.8383C7.63281 86.3293 7.63281 82.8275 7.63281 79.2969C8.65132 79.2969 9.65904 79.2969 10.7135 79.2969C10.7135 81.9277 10.7135 84.5442 10.7135 87.2074C11.2678 87.2074 11.7788 87.2074 12.2899 87.2074C12.8045 87.2074 13.3192 87.2038 13.8338 87.2074C14.3413 87.2146 14.8524 87.1858 15.3526 87.229Z" fill="#B8916D"/>
<path d="M78.2781 9.83971C77.8319 10.1816 77.3748 10.4371 76.8457 10.5307C76.0144 10.6783 75.1974 10.6495 74.4164 10.3004C73.3583 9.82892 72.8545 8.85359 73.074 7.71991C73.164 7.25205 73.4087 6.87775 73.7542 6.56464C73.9918 6.3487 74.2545 6.15796 74.5208 5.93842C74.4416 5.83765 74.366 5.73688 74.2869 5.63611C73.9594 5.21143 73.7794 4.73636 73.8118 4.20012C73.8586 3.48032 74.2401 2.96207 74.8771 2.64896C75.6725 2.26027 76.4966 2.23508 77.31 2.58418C78.3105 3.01605 78.6812 4.00217 78.2421 4.99909C78.0838 5.35539 77.8535 5.6577 77.5511 5.90243C77.3856 6.03559 77.2236 6.17236 77.0437 6.31991C77.0941 6.3847 77.1265 6.43148 77.166 6.47467C77.5187 6.84896 77.8714 7.21966 78.2529 7.61914C78.5588 7.09009 78.6128 6.53585 78.6704 5.96721C79.1779 5.96721 79.6673 5.96721 80.1532 5.96721C80.308 6.57904 79.9733 7.7883 79.365 8.77801C79.6098 9.03354 79.8653 9.29986 80.1172 9.56619C80.3619 9.82172 80.6067 10.0772 80.891 10.376C80.7758 10.3976 80.7182 10.4119 80.6643 10.4119C80.1244 10.4155 79.5846 10.4083 79.0483 10.4155C78.8864 10.4191 78.7784 10.3616 78.674 10.2464C78.5625 10.1168 78.4293 9.99447 78.2781 9.83971ZM77.3172 8.85359C76.7018 8.21657 76.1152 7.61195 75.4961 6.97133C75.2658 7.20886 75.0463 7.39241 74.8771 7.61914C74.6072 7.98624 74.6432 8.42531 74.9347 8.77801C75.1146 8.99755 75.3522 9.13791 75.6221 9.20629C76.2159 9.35385 76.7594 9.24228 77.3172 8.85359ZM75.9964 5.44536C76.3167 5.23662 76.5722 5.04588 76.745 4.76516C77.0113 4.33688 76.8313 3.85461 76.3599 3.70346C76.0648 3.60629 75.7121 3.71066 75.5177 3.94819C75.3306 4.17492 75.291 4.51683 75.4637 4.78315C75.6149 5.00629 75.8056 5.20783 75.9964 5.44536Z" fill="white"/>
<path d="M25.4127 59.6539C25.9238 59.6539 26.3881 59.6395 26.8523 59.6575C27.3058 59.6755 27.5505 59.985 27.5433 60.4853C27.5397 60.9387 27.2986 61.2158 26.8559 61.2338C26.3916 61.2518 25.9274 61.2374 25.4163 61.2374C25.3947 60.7012 25.4019 60.1865 25.4127 59.6539Z" fill="#221E26"/>
<path d="M25.4297 58.8405C25.4297 58.3727 25.4297 57.948 25.4297 57.4945C25.9407 57.4945 26.4266 57.4765 26.9161 57.5017C27.1932 57.5161 27.3659 57.7392 27.3983 58.0416C27.4415 58.4122 27.3371 58.6534 27.0708 58.7685C26.9844 58.8045 26.8873 58.8369 26.7937 58.8369C26.351 58.8441 25.912 58.8405 25.4297 58.8405Z" fill="#221E26"/>
<path d="M52.7807 59.819C52.212 59.819 51.647 59.819 51.0783 59.819C51.0675 59.5743 51.4706 58.293 51.8881 57.2529C52.0429 57.4149 52.7483 59.4231 52.7807 59.819Z" fill="#221E26"/>
<path d="M30.7266 59.8187C31.0253 58.9334 31.3096 58.0912 31.5939 57.2455C31.6191 57.2419 31.6479 57.2419 31.6731 57.2383C31.9754 58.0804 32.2597 58.9298 32.5548 59.8187C31.9394 59.8187 31.3708 59.8187 30.7266 59.8187Z" fill="#221E26"/>
<path d="M77.3165 8.85364C76.7586 9.24233 76.2152 9.35389 75.625 9.20274C75.3514 9.13436 75.1175 8.994 74.9376 8.77446C74.646 8.42176 74.6064 7.98268 74.88 7.61559C75.0455 7.38885 75.2687 7.20531 75.499 6.96777C76.1144 7.61559 76.7011 8.21662 77.3165 8.85364Z" fill="#221E26"/>
<path d="M75.9987 5.44603C75.8043 5.2085 75.6172 5.01056 75.4696 4.78382C75.2969 4.5175 75.3364 4.17919 75.5236 3.94886C75.7179 3.71133 76.0706 3.60696 76.3658 3.70413C76.8372 3.85889 77.0172 4.33755 76.7508 4.76583C76.5781 5.04295 76.319 5.23369 75.9987 5.44603Z" fill="#221E26"/>
</g>
<path d="M1.66881 100.418H3.7966C4.82683 100.418 5.44631 100.795 5.44631 101.61C5.44631 102.129 5.19717 102.472 4.74603 102.634C5.25104 102.782 5.63485 103.145 5.63485 103.799C5.63485 104.869 4.61136 105.132 3.7158 105.132H1.66881V100.418ZM4.38242 103.664C4.38242 103.294 4.13328 103.172 3.7562 103.172H2.90778V104.155H3.7562C4.13328 104.155 4.38242 104.034 4.38242 103.664ZM4.20061 101.832C4.20061 101.563 4.01207 101.395 3.68213 101.395H2.91451V102.263L3.68213 102.27C4.01207 102.27 4.20061 102.102 4.20061 101.832ZM8.29186 100.418H11.6856V101.496H9.53756V102.216H11.4835V103.287H9.53756V104.054H11.726V105.132H8.29186V100.418ZM14.2994 101.704C14.2994 100.762 15.1074 100.317 16.0771 100.317C16.6629 100.317 17.2487 100.459 17.6594 100.694V101.839C17.2554 101.536 16.7235 101.388 16.1781 101.395C15.7202 101.401 15.5788 101.523 15.5788 101.698C15.5788 102.31 18.0298 102.122 18.0298 103.792C18.0298 104.91 17.1746 105.233 16.1444 105.233C15.4643 105.233 14.8314 105.078 14.3331 104.802V103.624C14.892 104.007 15.5115 104.155 16.0501 104.155C16.5417 104.155 16.7504 104.075 16.7504 103.839C16.7504 103.159 14.2994 103.388 14.2994 101.704ZM20.2276 100.418H24.133V101.529H22.8065V105.132H21.5608V101.529H20.2276V100.418ZM30.569 105.132H29.2897L31.1414 100.418H32.4881L34.3398 105.132H33.0604L32.7911 104.391H30.8384L30.569 105.132ZM31.6935 102.021L31.2087 103.381H32.4207L31.9359 102.021C31.8955 101.906 31.8551 101.792 31.8147 101.543C31.7743 101.792 31.7339 101.906 31.6935 102.021ZM36.8107 100.418H40.2111V101.529H38.0564V102.344H40.0158V103.455H38.0564V105.132H36.8107V100.418ZM42.8945 100.418H46.295V101.529H44.1402V102.344H46.0997V103.455H44.1402V105.132H42.8945V100.418ZM48.9784 100.418H50.2241V105.132H48.9784V100.418ZM53.1355 100.418H54.3812V104.021H56.536V105.132H53.1355V100.418ZM59.0879 100.418H60.3336V105.132H59.0879V100.418ZM64.0867 105.132H62.8073L64.659 100.418H66.0058L67.8575 105.132H66.5781L66.3088 104.391H64.356L64.0867 105.132ZM65.2112 102.021L64.7264 103.381H65.9384L65.4536 102.021C65.4132 101.906 65.3728 101.792 65.3324 101.543C65.292 101.792 65.2516 101.906 65.2112 102.021ZM69.406 100.418H73.3114V101.529H71.9849V105.132H70.7392V101.529H69.406V100.418ZM75.8664 100.418H79.2601V101.496H77.1121V102.216H79.0581V103.287H77.1121V104.054H79.3005V105.132H75.8664V100.418ZM18.2931 113.132H17.0474V108.418H18.2258L20.0708 111.125C20.0506 110.903 20.0438 110.607 20.0438 110.344V108.418H21.2895V113.132H20.1112L18.2662 110.432C18.2864 110.654 18.2931 110.95 18.2931 111.206V113.132ZM24.1965 108.418H27.5902V109.496H25.4422V110.216H27.3882V111.287H25.4422V112.054H27.6306V113.132H24.1965V108.418ZM30.0155 108.418H33.921V109.529H32.5945V113.132H31.3488V109.529H30.0155V108.418ZM41.9032 108.418H43.2499L41.8089 113.132H40.4622L39.6609 110.216L38.8596 113.132H37.5129L36.072 108.418H37.4187L38.22 111.731L39.1155 108.418H40.2063L41.1019 111.731L41.9032 108.418ZM45.3621 110.775C45.3621 109.462 46.2038 108.317 47.8872 108.317C49.5706 108.317 50.4123 109.462 50.4123 110.775C50.4123 112.088 49.5706 113.233 47.8872 113.233C46.2038 113.233 45.3621 112.088 45.3621 110.775ZM49.1329 110.775C49.1329 110.021 48.7019 109.462 47.8872 109.462C47.0724 109.462 46.6415 110.021 46.6415 110.775C46.6415 111.529 47.0724 112.088 47.8872 112.088C48.7019 112.088 49.1329 111.529 49.1329 110.775ZM54.328 113.132H53.0823V108.418H55.0686C56.0248 108.418 57.0012 108.762 57.0012 110.007C57.0012 110.789 56.6174 111.213 56.0989 111.422L57.3984 113.132H55.9911L54.8666 111.597H54.328V113.132ZM54.328 109.496V110.587H55.1225C55.4794 110.587 55.7218 110.405 55.7218 110.041C55.7218 109.678 55.4794 109.496 55.1225 109.496H54.328ZM61.1351 113.132H59.8894V108.418H61.1351V110.203H61.7277L62.7983 108.418H64.1787L62.6973 110.715L64.246 113.132H62.8656L61.7209 111.314H61.1351V113.132Z" fill="#221E26"/>
<defs>
<clipPath id="clip0_904_127">
<rect width="79.5734" height="90.1544" fill="white" transform="translate(3.36719)"/>
</clipPath>
</defs>
</svg>
