<svg width="113" height="128" viewBox="0 0 113 128" fill="none" xmlns="http://www.w3.org/2000/svg">
<g clip-path="url(#clip0_681_1863)">
<path d="M55.5991 12.2366V7.68848H50.1484L52.9323 12.2366H55.5991Z" fill="#946D47"/>
<path d="M58.2188 18.0438C58.2188 24.0979 63.0173 28.6385 69.3849 28.6385C72.3165 28.6385 75.8416 27.5261 78.0932 25.9419V17.8697H73.5009V23.2377C72.2554 23.8532 70.8647 24.2341 69.7975 24.2341C66.331 24.2341 63.6668 21.5653 63.6668 18.0438C63.6668 14.5828 66.303 11.914 69.7389 11.914C71.8241 11.9672 73.8174 12.7748 75.3424 14.1843L78.3199 10.5947C76.1574 8.68764 72.8692 7.51465 69.7593 7.51465C63.1549 7.51465 58.2188 12.0325 58.2188 18.0438Z" fill="#B8916D"/>
<path d="M50.1484 12.2373V28.4296L55.5991 28.4599V16.7829L52.9323 12.2373H50.1484Z" fill="#B8916D"/>
<path d="M47.3047 22.2695C47.3047 17.8399 43.9273 16.5786 40.5805 15.9051L40.2851 15.8445C37.2286 15.229 35.7004 14.9364 35.7004 13.3825C35.7004 12.0607 36.8568 11.3291 38.8409 11.3291C40.8785 11.3291 42.2463 12.149 42.72 13.6751L42.7506 13.7912L47.1569 12.6131L47.1264 12.4971C46.1483 9.15723 43.1861 7.39648 38.5378 7.39648C33.3546 7.39648 30.5096 9.58606 30.5096 13.5868C30.5096 17.4892 33.2349 18.6622 36.1971 19.3357C36.788 19.4543 37.3229 19.5703 37.8247 19.6889C40.55 20.2464 42.1801 20.5693 42.1801 22.388C42.1801 24.2068 40.4608 24.6583 39.0116 24.6583C36.2098 24.6583 34.9516 23.2205 34.7147 21.8432L34.6867 21.7246L30.125 22.9152L30.1556 23.0313C30.665 25.5261 32.6134 28.5178 39.0116 28.5178C44.3705 28.5178 47.3047 26.3182 47.3047 22.2695Z" fill="#B8916D"/>
<path d="M67.8685 49.7596L82.384 49.7293V32.5078H57.8867L65.1152 45.0651L67.8685 49.7596Z" fill="#946D47"/>
<path d="M56.4011 37.0837L53.7369 32.5381H48.2863L42.2727 44.8885L36.3764 32.5381H30.75V53.2785H35.518V39.8131L40.5255 50.756H43.9894L49.0249 39.8131L49.0555 53.2785H53.7369V37.0837H56.4011Z" fill="#B8916D"/>
<path d="M79.3034 53.2785L67.1872 32.5381L64.551 37.0837L61.9149 41.6319H61.8843L55.1016 53.2785H60.4045L67.1872 41.6041L74.0005 53.2785H79.3034Z" fill="#B8916D"/>
<path d="M42.9689 61.5983H21.793V0H90.3716V61.346H70.8588V58.8235H87.8246V2.52256H24.34V59.0757H42.9689V61.5983Z" fill="#B8916D"/>
<path d="M49.8076 63.3717L49.5911 62.5721H47.7776L47.5611 63.3717H45.6406L47.6426 57.1436H49.7464L51.7484 63.3717H49.8076ZM48.1622 61.1469H49.2065L48.6843 59.2348L48.1622 61.1469Z" fill="#B8916D"/>
<path d="M55.1391 63.5157C54.5411 63.5377 53.9493 63.3907 53.4326 63.092C52.9965 62.8344 52.6705 62.4281 52.5156 61.9492L54.0438 61.0689C54.1179 61.3057 54.2689 61.5116 54.4735 61.6544C54.6781 61.7972 54.9246 61.869 55.1747 61.8584C55.5822 61.8584 55.786 61.7525 55.786 61.5406C55.7865 61.4839 55.7715 61.4281 55.7427 61.3791C55.6991 61.3225 55.6398 61.2795 55.5721 61.2555C55.488 61.2202 55.4141 61.1899 55.3505 61.1698C55.2868 61.1496 55.1798 61.1193 55.0219 61.0764C54.864 61.0335 54.7494 61.0033 54.673 60.9781C53.4198 60.6047 52.7941 59.9379 52.7958 58.9777C52.7888 58.7109 52.841 58.4459 52.9489 58.2013C53.0567 57.9568 53.2175 57.7387 53.4198 57.5625C53.8744 57.1753 54.4612 56.975 55.0601 57.0025C55.5628 56.9944 56.058 57.1236 56.4915 57.3758C56.9131 57.6232 57.2401 58.002 57.4212 58.453L55.9312 59.3157C55.7554 58.8768 55.4702 58.6573 55.0677 58.6573C54.9425 58.6482 54.8178 58.6811 54.7137 58.7506C54.6759 58.7772 54.6451 58.8124 54.6238 58.8532C54.6025 58.894 54.5914 58.9393 54.5915 58.9852C54.5924 59.0508 54.613 59.1145 54.6507 59.1684C54.6883 59.2223 54.7413 59.2639 54.8029 59.2879C55.0657 59.4019 55.3374 59.4947 55.6154 59.5654C55.8652 59.6359 56.111 59.7201 56.3514 59.8177C56.5637 59.9099 56.7659 60.0232 56.9551 60.1557C57.1602 60.297 57.323 60.4904 57.4263 60.7157C57.5362 60.9697 57.59 61.2441 57.5842 61.5204C57.5999 61.8004 57.548 62.0801 57.4328 62.3362C57.3176 62.5924 57.1425 62.8177 56.922 62.9936C56.4056 63.3647 55.7762 63.549 55.1391 63.5157Z" fill="#B8916D"/>
<path d="M58.9766 57.1436H60.7748V63.3717H58.9766V57.1436Z" fill="#B8916D"/>
<path d="M66.2123 63.3717L65.9983 62.5721H64.1823L63.9683 63.3717H62.0352L64.0397 57.1436H66.141L68.148 63.3717H66.2123ZM64.5822 61.1469H65.601L65.0916 59.2348L64.5822 61.1469Z" fill="#B8916D"/>
<path d="M34.9818 75.4243L34.6838 74.3118H32.1623L31.8617 75.4243H29.1797L31.9636 66.7744H34.8825L37.6664 75.4243H34.9818ZM32.6895 72.3367H34.1464L33.423 69.6779L32.6895 72.3367Z" fill="#946D47"/>
<path d="M40.1347 75.4243L37.6641 66.7744H40.4148L41.5992 71.532L43.0103 66.7744H44.9307L46.3418 71.532L47.521 66.7795H50.2718L47.8012 75.4243H45.3433L43.9705 70.808L42.5976 75.4243H40.1347Z" fill="#946D47"/>
<path d="M56.0703 75.4243L55.7697 74.3118H53.2482L52.9502 75.4243H50.2656L53.0495 66.7744H55.971L58.7523 75.4243H56.0703ZM53.778 72.3367H55.2247L54.5013 69.6779L53.778 72.3367Z" fill="#946D47"/>
<path d="M64.3807 75.4242L62.9951 72.7049H62.3711V75.4242H59.875V66.7718H63.3695C64.2381 66.7401 65.0862 67.0379 65.7408 67.6043C66.0506 67.8819 66.295 68.2234 66.457 68.6048C66.6189 68.9861 66.6944 69.3981 66.6781 69.8115C66.686 70.2919 66.5653 70.7658 66.3282 71.185C66.091 71.6042 65.746 71.9536 65.3282 72.1978L67.0525 75.4242H64.3807ZM62.3711 69.0446V70.6515H63.3186C63.4318 70.6619 63.5459 70.6499 63.6544 70.6161C63.7629 70.5823 63.8634 70.5275 63.9502 70.4547C64.0292 70.3779 64.0906 70.2853 64.1306 70.1831C64.1706 70.0809 64.1881 69.9714 64.182 69.862C64.1879 69.7514 64.1703 69.6408 64.1304 69.5374C64.0905 69.434 64.0291 69.3401 63.9502 69.2616C63.7764 69.1104 63.5497 69.0325 63.3186 69.0446H62.3711Z" fill="#946D47"/>
<path d="M71.9215 66.7795C72.4857 66.7661 73.0465 66.8695 73.568 67.0833C74.0895 67.297 74.5602 67.6162 74.9499 68.0206C75.7312 68.8611 76.1649 69.9619 76.1649 71.1044C76.1649 72.2469 75.7312 73.3476 74.9499 74.1882C74.5597 74.5916 74.0889 74.9099 73.5674 75.1228C73.0459 75.3356 72.4853 75.4383 71.9215 75.4243H68.3047V66.7795H71.9215ZM71.9215 73.0329C72.1577 73.0394 72.3925 72.9947 72.6094 72.9019C72.8263 72.8091 73.0201 72.6704 73.1771 72.4956C73.4937 72.1011 73.666 71.6121 73.666 71.1082C73.666 70.6043 73.4937 70.1153 73.1771 69.7208C73.0201 69.5459 72.8263 69.4072 72.6094 69.3144C72.3925 69.2216 72.1577 69.1769 71.9215 69.1835H70.923V73.0404L71.9215 73.0329Z" fill="#946D47"/>
<path d="M80.4938 75.6288C79.664 75.6585 78.8427 75.4547 78.1251 75.0411C77.5185 74.6836 77.0653 74.1181 76.8516 73.4518L78.986 72.2284C79.0881 72.5583 79.2977 72.8454 79.582 73.0448C79.8664 73.2443 80.2094 73.3448 80.5575 73.3308C81.1229 73.3308 81.4056 73.1819 81.4056 72.8843C81.4069 72.806 81.3857 72.7291 81.3445 72.6623C81.2837 72.5833 81.2016 72.523 81.1076 72.4882C80.9905 72.4403 80.8886 72.3999 80.802 72.3722C80.7154 72.3444 80.5626 72.299 80.3461 72.241C80.1296 72.183 79.9666 72.1376 79.8596 72.1048C78.1208 71.5885 77.2514 70.6636 77.2514 69.33C77.2422 68.9597 77.315 68.5919 77.4646 68.2524C77.6142 67.913 77.837 67.61 78.1174 67.3649C78.748 66.8265 79.5628 66.5475 80.3945 66.5854C81.0934 66.5733 81.7824 66.7513 82.3862 67.1C82.9709 67.4447 83.4247 67.9704 83.6776 68.5959L81.6069 69.7941C81.3522 69.1837 80.965 68.881 80.4072 68.881C80.2335 68.8692 80.0608 68.9144 79.9156 69.0096C79.8631 69.0469 79.8204 69.0962 79.7911 69.1532C79.7618 69.2103 79.7469 69.2735 79.7475 69.3376C79.749 69.4285 79.7776 69.5171 79.8297 69.592C79.8818 69.667 79.9551 69.725 80.0404 69.7588C80.4053 69.9163 80.7827 70.0437 81.1688 70.1397C81.5142 70.2403 81.8542 70.3581 82.1876 70.4929C82.4819 70.6199 82.7619 70.7771 83.023 70.9621C83.3116 71.157 83.5407 71.4266 83.6852 71.7416C83.8381 72.0943 83.9128 72.4753 83.9043 72.859C83.9255 73.2475 83.8535 73.6355 83.6941 73.9911C83.5347 74.3467 83.2925 74.6598 82.9873 74.9048C82.3744 75.3875 81.5432 75.6288 80.4938 75.6288Z" fill="#946D47"/>
</g>
<path d="M19.0292 82.3721H20.3751V87.7559H18.9523V84.8948L17.7986 86.6637H16.9834L15.8297 84.8871V87.7559H14.4068V82.3721H15.7528L17.391 84.8948L19.0292 82.3721ZM23.6992 82.3721H27.5755V83.6027H25.1221V84.4256H27.3448V85.6485H25.1221V86.5253H27.6217V87.7559H23.6992V82.3721ZM30.7534 82.3721H32.8992C34.8219 82.3721 35.7141 83.495 35.7141 85.064C35.7141 86.633 34.8219 87.7559 32.8992 87.7559H30.7534V82.3721ZM34.2528 85.064C34.2528 84.0565 33.7529 83.6027 32.8992 83.6027H32.1762V86.5253H32.8992C33.7529 86.5253 34.2528 86.0715 34.2528 85.064ZM38.7839 82.3721H40.2067V87.7559H38.7839V82.3721ZM44.4936 87.7559H43.0323L45.1474 82.3721H46.6856L48.8006 87.7559H47.3393L47.0317 86.9098H44.8013L44.4936 87.7559ZM45.778 84.2026L45.2243 85.7562H46.6087L46.0549 84.2026C46.0088 84.0718 45.9626 83.9411 45.9165 83.6565C45.8703 83.9411 45.8242 84.0718 45.778 84.2026ZM56.0557 87.7559H54.5944L56.7095 82.3721H58.2477L60.3627 87.7559H58.9014L58.5938 86.9098H56.3634L56.0557 87.7559ZM57.3401 84.2026L56.7864 85.7562H58.1708L57.617 84.2026C57.5709 84.0718 57.5247 83.9411 57.4786 83.6565C57.4324 83.9411 57.3863 84.0718 57.3401 84.2026ZM62.6606 85.064C62.6606 83.0566 64.1296 82.2568 65.6294 82.2568C66.2062 82.2568 66.7907 82.3798 67.2983 82.5952V83.9411C66.8984 83.6642 66.3523 83.5104 65.8139 83.5104C64.9449 83.5104 64.1219 83.9565 64.1219 85.064C64.1219 86.3945 65.0987 86.6483 65.714 86.6483C65.8678 86.6483 65.9908 86.633 66.0831 86.6099V84.7948H67.4291V87.5097C66.8753 87.7405 66.2523 87.8712 65.6447 87.8712C64.1142 87.8712 62.6606 87.0175 62.6606 85.064ZM70.6072 82.3721H74.4835V83.6027H72.03V84.4256H74.2527V85.6485H72.03V86.5253H74.5296V87.7559H70.6072V82.3721ZM79.0842 87.7559H77.6613V82.3721H79.0072L81.1146 85.4639C81.0915 85.2101 81.0838 84.8717 81.0838 84.5718V82.3721H82.5067V87.7559H81.1607L79.0534 84.6717C79.0765 84.9255 79.0842 85.264 79.0842 85.5562V87.7559ZM85.5655 85.1409C85.5655 83.1105 87.0269 82.2568 88.4805 82.2568C89.0265 82.2568 89.5726 82.3721 90.0417 82.5952V83.9411C89.711 83.6642 89.2188 83.5027 88.7266 83.5027C87.8729 83.5027 87.0269 83.9719 87.0269 85.1409C87.0269 86.1869 87.8729 86.6176 88.7112 86.6176C89.2649 86.6176 89.7726 86.4484 90.0802 86.1484V87.5328C89.611 87.7559 89.0804 87.8712 88.5112 87.8712C87.0345 87.8712 85.5655 87.0637 85.5655 85.1409ZM96.1736 87.7559H94.7585V85.9177L92.6588 82.3721H94.2739L95.466 84.5948L96.6582 82.3721H98.2733L96.1736 85.9177V87.7559ZM19.6513 94.064C19.6513 92.5642 20.6127 91.2568 22.5355 91.2568C24.4583 91.2568 25.4196 92.5642 25.4196 94.064C25.4196 95.5637 24.4583 96.8712 22.5355 96.8712C20.6127 96.8712 19.6513 95.5637 19.6513 94.064ZM23.9583 94.064C23.9583 93.2026 23.4661 92.5642 22.5355 92.5642C21.6049 92.5642 21.1126 93.2026 21.1126 94.064C21.1126 94.9254 21.6049 95.5637 22.5355 95.5637C23.4661 95.5637 23.9583 94.9254 23.9583 94.064ZM28.4693 91.3721H32.3533V92.6411H29.8922V93.5718H32.1303V94.8408H29.8922V96.7559H28.4693V91.3721ZM38.5348 91.3721H42.9956V92.6411H41.4804V96.7559H40.0576V92.6411H38.5348V91.3721ZM49.3364 91.3721H50.7593V96.7559H49.3364V94.7023H47.3368V96.7559H45.9139V91.3721H47.3368V93.4333H49.3364V91.3721ZM54.0796 91.3721H57.9559V92.6027H55.5025V93.4256H57.7252V94.6485H55.5025V95.5253H58.0021V96.7559H54.0796V91.3721ZM67.74 96.7559H66.3248V94.9177L64.2252 91.3721H65.8403L67.0324 93.5948L68.2245 91.3721H69.8396L67.74 94.9177V96.7559ZM72.6433 91.3721H76.5196V92.6027H74.0662V93.4256H76.2889V94.6485H74.0662V95.5253H76.5658V96.7559H72.6433V91.3721ZM80.6589 96.7559H79.1976L81.3126 91.3721H82.8508L84.9659 96.7559H83.5046L83.1969 95.9098H80.9665L80.6589 96.7559ZM81.9433 93.2026L81.3895 94.7562H82.7739L82.2202 93.2026C82.174 93.0718 82.1279 92.9411 82.0817 92.6565C82.0356 92.9411 81.9894 93.0718 81.9433 93.2026ZM89.211 96.7559H87.7881V91.3721H90.057C91.1491 91.3721 92.2643 91.7644 92.2643 93.1872C92.2643 94.0794 91.8259 94.5639 91.2337 94.8023L92.7181 96.7559H91.1107L89.8263 95.0023H89.211V96.7559ZM89.211 92.6027V93.8486H90.1185C90.5261 93.8486 90.803 93.641 90.803 93.2257C90.803 92.8103 90.5261 92.6027 90.1185 92.6027H89.211Z" fill="#221E26"/>
<path d="M42.1904 116.623C43.0304 116.047 43.9544 115.795 44.9024 115.795C46.5584 115.795 47.7704 116.563 47.7704 118.087C47.7704 119.467 46.6184 120.283 45.5144 120.943C44.4584 121.567 43.4624 122.071 43.4504 122.887L47.8304 122.875V124.111H41.9144V123.487C41.9144 121.495 43.3904 120.739 44.6264 120.007C45.5744 119.455 46.4024 119.035 46.4024 118.111C46.4024 117.403 45.7904 117.031 44.7824 117.031C43.9544 117.031 43.0544 117.319 42.1904 117.943V116.623ZM48.994 120.031C48.994 117.643 50.122 115.795 52.654 115.795C55.186 115.795 56.314 117.643 56.314 120.031C56.314 122.419 55.186 124.267 52.654 124.267C50.122 124.267 48.994 122.419 48.994 120.031ZM54.934 120.031C54.934 118.135 54.214 117.043 52.654 117.043C51.082 117.043 50.374 118.135 50.374 120.031C50.374 121.927 51.082 123.019 52.654 123.019C54.214 123.019 54.934 121.927 54.934 120.031ZM57.6826 116.623C58.5226 116.047 59.4466 115.795 60.3946 115.795C62.0506 115.795 63.2626 116.563 63.2626 118.087C63.2626 119.467 62.1106 120.283 61.0066 120.943C59.9506 121.567 58.9546 122.071 58.9426 122.887L63.3226 122.875V124.111H57.4066V123.487C57.4066 121.495 58.8826 120.739 60.1186 120.007C61.0666 119.455 61.8946 119.035 61.8946 118.111C61.8946 117.403 61.2826 117.031 60.2746 117.031C59.4466 117.031 58.5466 117.319 57.6826 117.943V116.623ZM64.7022 116.623C65.5422 116.047 66.4662 115.795 67.4142 115.795C69.0702 115.795 70.2822 116.563 70.2822 118.087C70.2822 119.467 69.1302 120.283 68.0262 120.943C66.9702 121.567 65.9742 122.071 65.9622 122.887L70.3422 122.875V124.111H64.4262V123.487C64.4262 121.495 65.9022 120.739 67.1382 120.007C68.0862 119.455 68.9142 119.035 68.9142 118.111C68.9142 117.403 68.3022 117.031 67.2942 117.031C66.4662 117.031 65.5662 117.319 64.7022 117.943V116.623Z" fill="#B8916D"/>
<defs>
<clipPath id="clip0_681_1863">
<rect width="68.5786" height="75.6287" fill="white" transform="translate(21.793)"/>
</clipPath>
</defs>
</svg>
