<svg width="117" height="127" viewBox="0 0 117 127" fill="none" xmlns="http://www.w3.org/2000/svg">
<path d="M50.0944 87.6778C52.6645 89.7002 53.3386 93.0708 53.3386 93.0708C53.3386 93.0708 49.8416 93.1551 47.2715 91.1327C44.7015 89.1104 44.0273 85.7398 44.0273 85.7398C44.0273 85.7398 47.5243 85.6555 50.0944 87.6778Z" fill="#B798E1"/>
<path d="M46.9772 92.9444C50.095 91.849 53.3392 93.0708 53.3392 93.0708C53.3392 93.0708 51.5696 96.0201 48.4518 97.1155C45.334 98.211 42.0898 96.9891 42.0898 96.9891C42.0898 96.9891 43.8594 94.0398 46.9772 92.9444Z" fill="#B798E1"/>
<path d="M40.0269 84.9808C42.302 87.3402 42.5127 90.7529 42.5127 90.7529C42.5127 90.7529 39.0578 90.3737 36.7827 88.0143C34.5075 85.6549 34.2969 82.2422 34.2969 82.2422C34.2969 82.2422 37.7939 82.6214 40.0269 84.9808Z" fill="#B798E1"/>
<path d="M36.2367 89.7414C39.4809 89.1094 42.5144 90.7105 42.5144 90.7105C42.5144 90.7105 40.3657 93.4069 37.1215 94.0389C33.8773 94.6709 30.8438 93.0699 30.8438 93.0699C30.8438 93.0699 32.9925 90.4155 36.2367 89.7414Z" fill="#B798E1"/>
<path d="M32.1468 81.0617C34.0007 83.7582 33.6636 87.1709 33.6636 87.1709C33.6636 87.1709 30.293 86.244 28.4392 83.5897C26.5853 80.8932 26.9224 77.4805 26.9224 77.4805C26.9224 77.4805 30.293 78.3652 32.1468 81.0617Z" fill="#B798E1"/>
<path d="M27.5986 85.1911C30.8849 85.0647 33.6657 87.1292 33.6657 87.1292C33.6657 87.1292 31.0956 89.4465 27.8093 89.5729C24.5229 89.6993 21.7422 87.6348 21.7422 87.6348C21.7422 87.6348 24.3123 85.3175 27.5986 85.1911Z" fill="#B798E1"/>
<path d="M24.7784 75.0792C25.916 78.1127 24.7363 81.3569 24.7363 81.3569C24.7363 81.3569 21.7028 79.6716 20.5652 76.6381C19.4276 73.6045 20.6073 70.3604 20.6073 70.3604C20.6073 70.3604 23.5987 72.0456 24.7784 75.0792Z" fill="#B798E1"/>
<path d="M19.3402 78.0286C22.5844 78.7027 24.7332 81.357 24.7332 81.357C24.7332 81.357 21.6575 83.0002 18.4555 82.3261C15.2113 81.6519 13.0625 78.9976 13.0625 78.9976C13.0625 78.9976 16.096 77.3544 19.3402 78.0286Z" fill="#B798E1"/>
<path d="M19.1694 68.2119C19.5486 71.4139 17.6526 74.2789 17.6526 74.2789C17.6526 74.2789 15.1246 71.9195 14.7455 68.7175C14.3663 65.5154 16.2622 62.6504 16.2622 62.6504C16.2622 62.6504 18.7902 64.9677 19.1694 68.2119Z" fill="#B798E1"/>
<path d="M13.1901 69.7705C16.1815 71.1609 17.614 74.2787 17.614 74.2787C17.614 74.2787 14.2434 75.1635 11.252 73.7731C8.26063 72.3828 6.82812 69.265 6.82812 69.265C6.82812 69.265 10.2409 68.4223 13.1901 69.7705Z" fill="#B798E1"/>
<path d="M14.4095 59.5328C14.1146 62.777 11.6709 65.1785 11.6709 65.1785C11.6709 65.1785 9.64852 62.3556 9.94345 59.1536C10.2384 55.9094 12.6821 53.5078 12.6821 53.5078C12.6821 53.5078 14.6623 56.2886 14.4095 59.5328Z" fill="#B798E1"/>
<path d="M8.21467 59.9119C10.869 61.85 11.6695 65.1784 11.6695 65.1784C11.6695 65.1784 8.17254 65.3891 5.56033 63.451C2.90598 61.5129 2.10547 58.1845 2.10547 58.1845C2.10547 58.1845 5.60246 57.9738 8.21467 59.9119Z" fill="#B798E1"/>
<path d="M11.9652 51.2327C11.1647 54.3926 8.34182 56.415 8.34182 56.415C8.34182 56.415 6.82506 53.3393 7.58344 50.1794C8.38396 47.0194 11.2068 44.9971 11.2068 44.9971C11.2068 44.9971 12.7236 48.0727 11.9652 51.2327Z" fill="#B798E1"/>
<path d="M5.77214 50.6436C8.08943 52.9609 8.34222 56.3736 8.34222 56.3736C8.34222 56.3736 4.88736 56.0366 2.57008 53.7193C0.252795 51.402 0 47.9893 0 47.9893C0 47.9893 3.49699 48.3263 5.77214 50.6436Z" fill="#B798E1"/>
<path d="M11.6721 42.0061C10.1132 44.8711 6.91116 46.1772 6.91116 46.1772C6.91116 46.1772 6.19491 42.8066 7.71168 39.9416C9.27058 37.0766 12.4726 35.7705 12.4726 35.7705C12.4726 35.7705 13.231 39.1411 11.6721 42.0061Z" fill="#B798E1"/>
<path d="M5.85673 39.9839C7.4999 42.8068 6.91004 46.1774 6.91004 46.1774C6.91004 46.1774 3.62371 44.9976 1.98055 42.2169C0.337382 39.394 0.927236 36.0234 0.927236 36.0234C0.927236 36.0234 4.21357 37.161 5.85673 39.9839Z" fill="#B798E1"/>
<path d="M13.3137 32.6943C11.1228 35.138 7.66797 35.6436 7.66797 35.6436C7.66797 35.6436 7.75223 32.2308 9.94312 29.7872C12.134 27.3435 15.5889 26.8379 15.5889 26.8379C15.5889 26.8379 15.5046 30.2506 13.3137 32.6943Z" fill="#B798E1"/>
<path d="M8.13176 29.3662C9.05867 32.484 7.6683 35.6018 7.6683 35.6018C7.6683 35.6018 4.8033 33.7479 3.83425 30.6301C2.90734 27.5123 4.29771 24.3945 4.29771 24.3945C4.29771 24.3945 7.20485 26.2484 8.13176 29.3662Z" fill="#B798E1"/>
<path d="M16.6826 25.0269C13.9861 26.8807 10.5312 26.6279 10.5312 26.6279C10.5312 26.6279 11.416 23.2995 14.1125 21.4456C16.809 19.5918 20.2638 19.8446 20.2638 19.8446C20.2638 19.8446 19.3791 23.1731 16.6826 25.0269Z" fill="#B798E1"/>
<path d="M12.4264 20.6451C12.6371 23.8892 10.5305 26.6279 10.5305 26.6279C10.5305 26.6279 8.12893 24.142 7.9604 20.8978C7.74974 17.6536 9.81423 14.915 9.81423 14.915C9.81423 14.915 12.2158 17.4009 12.4264 20.6451Z" fill="#B798E1"/>
<path d="M20.898 18.117C17.9487 19.5495 14.5781 18.749 14.5781 18.749C14.5781 18.749 15.9685 15.6312 18.9599 14.1987C21.9092 12.7662 25.2798 13.5667 25.2798 13.5667C25.2798 13.5667 23.8894 16.6845 20.898 18.117Z" fill="#B798E1"/>
<path d="M17.4031 13.1032C17.066 16.3474 14.5802 18.7068 14.5802 18.7068C14.5802 18.7068 12.6 15.8839 12.9371 12.6397C13.2741 9.39555 15.7599 7.03613 15.7599 7.03613C15.7599 7.03613 17.7402 9.85901 17.4031 13.1032Z" fill="#B798E1"/>
<path d="M67.959 87.256C65.389 89.2783 64.7148 92.6489 64.7148 92.6489C64.7148 92.6489 68.2118 92.7332 70.7819 90.7108C73.352 88.6885 74.0261 85.3179 74.0261 85.3179C74.0261 85.3179 70.5291 85.2336 67.959 87.256Z" fill="#B798E1"/>
<path d="M71.0768 92.5225C67.959 91.4271 64.7148 92.6489 64.7148 92.6489C64.7148 92.6489 66.4844 95.5982 69.6022 96.6936C72.72 97.7891 75.9642 96.5672 75.9642 96.5672C75.9642 96.5672 74.1525 93.5758 71.0768 92.5225Z" fill="#B798E1"/>
<path d="M76.7202 84.9818C74.445 87.3412 74.2344 90.7539 74.2344 90.7539C74.2344 90.7539 77.6892 90.3747 79.9644 88.0153C82.2395 85.6559 82.4502 82.2432 82.4502 82.2432C82.4502 82.2432 78.9953 82.6224 76.7202 84.9818Z" fill="#B798E1"/>
<path d="M80.5121 89.7424C77.2679 89.1104 74.2344 90.7114 74.2344 90.7114C74.2344 90.7114 76.3831 93.4079 79.6273 94.0399C82.8715 94.6719 85.9051 93.0709 85.9051 93.0709C85.9051 93.0709 83.7563 90.4165 80.5121 89.7424Z" fill="#B798E1"/>
<path d="M84.5993 80.7268C82.7455 83.4232 83.0826 86.836 83.0826 86.836C83.0826 86.836 86.4532 85.9091 88.307 83.2547C90.1608 80.5582 89.8238 77.1455 89.8238 77.1455C89.8238 77.1455 86.4532 78.0303 84.5993 80.7268Z" fill="#B798E1"/>
<path d="M89.1491 84.8552C85.8628 84.7288 83.082 86.7933 83.082 86.7933C83.082 86.7933 85.6521 89.1106 88.9384 89.237C92.2248 89.3634 95.0055 87.2989 95.0055 87.2989C95.0055 87.2989 92.4354 84.9816 89.1491 84.8552Z" fill="#B798E1"/>
<path d="M91.7215 74.9122C90.5839 77.9457 91.7636 81.1899 91.7636 81.1899C91.7636 81.1899 94.7971 79.5046 95.9347 76.4711C97.0723 73.4376 95.8926 70.1934 95.8926 70.1934C95.8926 70.1934 92.859 71.8787 91.7215 74.9122Z" fill="#B798E1"/>
<path d="M97.1547 77.8616C93.9105 78.5357 91.7617 81.19 91.7617 81.19C91.7617 81.19 94.8374 82.8332 98.0394 82.1591C101.284 81.485 103.432 78.8306 103.432 78.8306C103.432 78.8306 100.399 77.1875 97.1547 77.8616Z" fill="#B798E1"/>
<path d="M97.6205 67.581C97.2413 70.7831 99.1372 73.6481 99.1372 73.6481C99.1372 73.6481 101.665 71.2887 102.044 68.0866C102.424 64.8845 100.528 62.0195 100.528 62.0195C100.528 62.0195 97.9996 64.3368 97.6205 67.581Z" fill="#B798E1"/>
<path d="M103.604 69.1397C100.612 70.5301 99.1797 73.6479 99.1797 73.6479C99.1797 73.6479 102.55 74.5326 105.542 73.1423C108.533 71.7519 109.966 68.6341 109.966 68.6341C109.966 68.6341 106.595 67.7915 103.604 69.1397Z" fill="#B798E1"/>
<path d="M101.835 59.3638C102.13 62.608 104.573 65.0096 104.573 65.0096C104.573 65.0096 106.596 62.1867 106.301 58.9846C106.006 55.7404 103.562 53.3389 103.562 53.3389C103.562 53.3389 101.582 56.1196 101.835 59.3638Z" fill="#B798E1"/>
<path d="M108.029 59.7439C105.375 61.682 104.574 65.0105 104.574 65.0105C104.574 65.0105 108.071 65.2211 110.683 63.283C113.338 61.3449 114.138 58.0165 114.138 58.0165C114.138 58.0165 110.683 57.8058 108.029 59.7439Z" fill="#B798E1"/>
<path d="M104.318 51.0637C105.119 54.2237 107.942 56.246 107.942 56.246C107.942 56.246 109.459 53.1704 108.7 50.0104C107.9 46.8505 105.077 44.8281 105.077 44.8281C105.077 44.8281 103.518 47.9038 104.318 51.0637Z" fill="#B798E1"/>
<path d="M110.469 50.4747C108.193 52.7919 107.898 56.2047 107.898 56.2047C107.898 56.2047 111.353 55.8676 113.671 53.5503C115.988 51.233 116.241 47.8203 116.241 47.8203C116.241 47.8203 112.744 48.1574 110.469 50.4747Z" fill="#B798E1"/>
<path d="M104.528 42.1321C106.087 44.9971 109.289 46.3032 109.289 46.3032C109.289 46.3032 110.005 42.9326 108.488 40.0676C106.929 37.2026 103.727 35.8965 103.727 35.8965C103.727 35.8965 102.969 39.2671 104.528 42.1321Z" fill="#B798E1"/>
<path d="M110.344 40.1099C108.701 42.9327 109.291 46.3033 109.291 46.3033C109.291 46.3033 112.577 45.1236 114.22 42.3429C115.863 39.52 115.273 36.1494 115.273 36.1494C115.273 36.1494 112.029 37.287 110.344 40.1099Z" fill="#B798E1"/>
<path d="M102.802 32.8203C104.993 35.264 108.448 35.7695 108.448 35.7695C108.448 35.7695 108.364 32.3568 106.173 29.9131C103.982 27.4695 100.527 26.9639 100.527 26.9639C100.527 26.9639 100.612 30.3766 102.802 32.8203Z" fill="#B798E1"/>
<path d="M107.987 29.4923C107.06 32.6101 108.45 35.7279 108.45 35.7279C108.45 35.7279 111.357 33.8319 112.284 30.7141C113.211 27.5963 111.821 24.4785 111.821 24.4785C111.821 24.4785 108.914 26.3745 107.987 29.4923Z" fill="#B798E1"/>
<path d="M99.5188 25.2798C102.215 27.1337 105.67 26.8809 105.67 26.8809C105.67 26.8809 104.785 23.5524 102.089 21.6986C99.3924 19.8448 95.9375 20.0975 95.9375 20.0975C95.9375 20.0975 96.8644 23.426 99.5188 25.2798Z" fill="#B798E1"/>
<path d="M103.816 20.898C103.605 24.1422 105.712 26.8808 105.712 26.8808C105.712 26.8808 108.113 24.395 108.282 21.1508C108.492 17.9066 106.386 15.168 106.386 15.168C106.386 15.168 103.984 17.6538 103.816 20.898Z" fill="#B798E1"/>
<path d="M95.0506 18.4121C97.9999 19.8446 101.37 19.0441 101.37 19.0441C101.37 19.0441 100.022 15.8842 97.0308 14.4516C94.0815 13.0191 90.7109 13.8197 90.7109 13.8197C90.7109 13.8197 92.1013 16.9796 95.0506 18.4121Z" fill="#B798E1"/>
<path d="M98.5894 13.3981C98.9265 16.6423 101.412 19.0017 101.412 19.0017C101.412 19.0017 103.392 16.1789 103.055 12.9347C102.718 9.69047 100.233 7.33105 100.233 7.33105C100.233 7.33105 98.2523 10.1961 98.5894 13.3981Z" fill="#B798E1"/>
<path d="M92.6935 8.51074C92.5671 8.63714 92.3986 8.80567 92.23 8.93207C92.1879 8.9742 92.1458 9.01633 92.0615 9.01633C102.384 17.822 108.914 30.546 108.914 44.6604C108.914 71.1195 86.1208 92.6914 58.0606 92.6914C30.0425 92.6914 7.20677 71.1617 7.20677 44.6604C7.20677 31.1359 13.1474 18.9175 22.6694 10.196C22.4166 10.1118 22.1216 10.0275 21.8689 9.85898C12.3048 18.7068 6.40625 31.0516 6.40625 44.6604C6.40625 71.5409 29.5791 93.4497 58.0606 93.4497C86.5422 93.4497 109.715 71.583 109.715 44.6604C109.715 30.3775 103.142 17.4428 92.6935 8.51074Z" fill="#B798E1"/>
<path d="M27.7652 11.9651C24.5631 12.6392 21.4453 11.0382 21.4453 11.0382C21.4453 11.0382 23.5941 8.34173 26.7961 7.66762C29.9982 6.9935 33.116 8.59453 33.116 8.59453C33.116 8.59453 30.9672 11.291 27.7652 11.9651Z" fill="#B798E1"/>
<path d="M25.5729 6.27773C24.4774 9.31127 21.4439 11.0387 21.4439 11.0387C21.4439 11.0387 20.2221 7.83663 21.3596 4.76097C22.4551 1.72743 25.4886 0 25.4886 0C25.4886 0 26.7105 3.2442 25.5729 6.27773Z" fill="#B798E1"/>
<path d="M88.5618 11.9651C91.7638 12.6392 94.8816 11.0382 94.8816 11.0382C94.8816 11.0382 92.7329 8.34173 89.5308 7.66762C86.3287 6.9935 83.2109 8.59453 83.2109 8.59453C83.2109 8.59453 85.3597 11.291 88.5618 11.9651Z" fill="#B798E1"/>
<path d="M90.755 6.27773C91.8504 9.31127 94.884 11.0387 94.884 11.0387C94.884 11.0387 96.1058 7.83663 94.9682 4.76097C93.8728 1.72743 90.8393 0 90.8393 0C90.8393 0 89.6596 3.2442 90.755 6.27773Z" fill="#B798E1"/>
<path d="M48.1815 34.5615H46.3215L49.7535 26.1615H51.6975L55.1175 34.5615H53.2575L52.6455 32.9895H48.8055L48.1815 34.5615ZM50.5335 28.4895L49.3695 31.5015H52.0815L50.9055 28.4895C50.8455 28.3215 50.7855 28.1535 50.7255 27.8295C50.6655 28.1535 50.6055 28.3215 50.5335 28.4895ZM57.3406 29.6415C57.7006 29.1255 58.3606 28.6335 59.4286 28.6335C61.2526 28.6335 62.2366 30.1095 62.2366 31.6815C62.2366 33.2535 61.2526 34.7295 59.4286 34.7295C58.5166 34.7295 57.9046 34.3575 57.5326 33.9495V37.2015H55.8646V28.8015H57.3406V29.6415ZM60.5326 31.6815C60.5326 30.7815 59.9686 30.0375 59.0206 30.0375C58.2886 30.0375 57.7486 30.4935 57.5206 30.9975V32.3655C57.7486 32.8695 58.2886 33.3255 59.0206 33.3255C59.9686 33.3255 60.5326 32.5815 60.5326 31.6815ZM64.8054 29.6415C65.1654 29.1255 65.8254 28.6335 66.8934 28.6335C68.7174 28.6335 69.7014 30.1095 69.7014 31.6815C69.7014 33.2535 68.7174 34.7295 66.8934 34.7295C65.9814 34.7295 65.3694 34.3575 64.9974 33.9495V37.2015H63.3294V28.8015H64.8054V29.6415ZM67.9974 31.6815C67.9974 30.7815 67.4334 30.0375 66.4854 30.0375C65.7534 30.0375 65.2134 30.4935 64.9854 30.9975V32.3655C65.2134 32.8695 65.7534 33.3255 66.4854 33.3255C67.4334 33.3255 67.9974 32.5815 67.9974 31.6815ZM37.6737 40.1615H39.3417V48.5615H37.5417V43.3895L35.3217 46.7615H34.2777L32.0577 43.3775V48.5615H30.2577V40.1615H31.9257L34.8057 44.5295L37.6737 40.1615ZM46.0067 47.0735C46.0067 47.3735 46.1987 47.4575 46.4147 47.4575C46.5107 47.4575 46.6187 47.4455 46.7267 47.4095V48.5015C46.4627 48.5975 46.1267 48.6695 45.8027 48.6695C45.2147 48.6695 44.7707 48.4535 44.5307 48.0215C43.9667 48.4655 43.3067 48.7295 42.4547 48.7295C41.3747 48.7295 40.4387 48.1055 40.4387 46.9655C40.4387 45.5015 41.8187 45.0455 42.9707 45.0455C43.4267 45.0455 43.9307 45.1055 44.3387 45.2015V44.9975C44.3387 44.4215 43.8827 44.0255 42.9827 44.0255C42.1907 44.0255 41.4827 44.2415 40.9427 44.4575V43.0175C41.4107 42.8615 42.2867 42.6335 43.1747 42.6335C44.9027 42.6335 46.0067 43.3415 46.0067 45.2375V47.0735ZM43.3547 46.0415C42.7427 46.0415 42.1427 46.2455 42.1427 46.8335C42.1427 47.2655 42.5387 47.5415 43.0427 47.5415C43.5107 47.5415 43.9547 47.4095 44.3387 47.0735V46.1735C44.0867 46.1135 43.7027 46.0415 43.3547 46.0415ZM48.9909 43.6655C49.3989 43.0295 50.2389 42.5735 51.3189 42.6815V44.3015C50.4069 44.1455 49.5309 44.4935 49.1829 45.1775V48.5615H47.5149V42.8015H48.9909V43.6655ZM58.0704 48.5615H56.1984L54.5424 46.2815H53.8704V48.5615H52.2024V40.1615H53.8704V44.9495H54.5664L56.0304 42.8015H57.9024L55.9224 45.6455L58.0704 48.5615ZM58.1597 45.6815C58.1597 43.5095 59.8277 42.6335 61.1237 42.6335C63.5117 42.6335 64.2797 44.5175 63.8957 46.2215H59.8397C60.0317 47.0615 60.9197 47.4095 61.8677 47.4095C62.5277 47.4095 63.1157 47.2775 63.6077 47.0615V48.3695C63.0677 48.5975 62.3597 48.7295 61.4957 48.7295C59.6717 48.7295 58.1597 47.6855 58.1597 45.6815ZM62.3957 45.1415C62.4557 44.7455 62.2277 43.9055 61.1837 43.9055C60.4757 43.9055 59.8517 44.3495 59.8277 45.1415H62.3957ZM65.4782 41.1215L67.1342 40.7255V42.8015H68.9582V44.2055H67.1342V46.4615C67.1342 47.0615 67.4342 47.3255 68.0582 47.3255C68.4422 47.3255 68.7662 47.2655 69.1022 47.1335V48.4775C68.6582 48.6335 68.1302 48.7295 67.5542 48.7295C66.4382 48.7295 65.4782 48.2135 65.4782 46.7855V44.2055H64.5062V42.8015H65.4782V41.1215ZM71.7418 48.5615H70.0738V42.8015H71.7418V48.5615ZM71.8858 40.8935C71.8858 41.5535 71.4298 41.8415 70.9018 41.8415C70.3858 41.8415 69.9298 41.5535 69.9298 40.8935C69.9298 40.2455 70.3858 39.9575 70.9018 39.9575C71.4298 39.9575 71.8858 40.2455 71.8858 40.8935ZM74.655 43.5335C75.099 43.0175 75.747 42.6335 76.575 42.6335C78.087 42.6335 78.915 43.6655 78.915 44.9975V48.5615H77.247V45.2135C77.247 44.4335 76.779 44.0735 76.131 44.0735C75.543 44.0735 75.087 44.4575 74.847 44.8055V48.5615H73.179V42.8015H74.655V43.5335ZM79.9331 45.6815C79.9331 44.1095 80.9171 42.6335 82.7531 42.6335C83.8091 42.6335 84.4691 43.1255 84.8411 43.6415V42.8015H86.3051V48.4055C86.3051 50.6015 84.6851 51.3695 82.9931 51.3695C82.0931 51.3695 81.2531 51.1655 80.5571 50.8295V49.3655C81.2051 49.7495 81.9851 49.9655 82.7771 49.9655C83.7971 49.9655 84.6491 49.6175 84.6491 48.4775V47.9495C84.2771 48.3575 83.6651 48.7295 82.7531 48.7295C80.9171 48.7295 79.9331 47.2535 79.9331 45.6815ZM84.6491 44.9975C84.4211 44.4935 83.8811 44.0375 83.1491 44.0375C82.2011 44.0375 81.6371 44.7815 81.6371 45.6815C81.6371 46.5815 82.2011 47.3255 83.1491 47.3255C83.8811 47.3255 84.4211 46.8815 84.6491 46.4015V44.9975ZM43.9829 55.0975C44.8229 54.4975 45.7949 54.2335 46.7909 54.2335C48.4349 54.2335 49.7669 54.9775 49.7669 56.6455C49.7669 58.0255 48.6269 58.8415 47.5589 59.4775C46.5869 60.0535 45.7589 60.4975 45.7469 61.0255L49.8269 61.0135V62.5615H43.7069V61.7575C43.7069 59.7895 45.1949 59.0215 46.3949 58.3135C47.2469 57.8215 47.9789 57.4975 47.9789 56.7175C47.9789 56.1175 47.4509 55.8055 46.6229 55.8055C45.8069 55.8055 44.8469 56.1175 43.9829 56.7775V55.0975ZM50.8913 58.4815C50.8913 56.1295 52.0073 54.2335 54.6113 54.2335C57.2153 54.2335 58.3313 56.1295 58.3313 58.4815C58.3313 60.8335 57.2153 62.7295 54.6113 62.7295C52.0073 62.7295 50.8913 60.8335 50.8913 58.4815ZM56.5313 58.4815C56.5313 56.7415 55.9313 55.8175 54.6113 55.8175C53.2913 55.8175 52.6913 56.7415 52.6913 58.4815C52.6913 60.2215 53.2913 61.1455 54.6113 61.1455C55.9313 61.1455 56.5313 60.2215 56.5313 58.4815ZM59.604 55.0975C60.444 54.4975 61.416 54.2335 62.412 54.2335C64.056 54.2335 65.388 54.9775 65.388 56.6455C65.388 58.0255 64.248 58.8415 63.18 59.4775C62.208 60.0535 61.38 60.4975 61.368 61.0255L65.448 61.0135V62.5615H59.328V61.7575C59.328 59.7895 60.816 59.0215 62.016 58.3135C62.868 57.8215 63.6 57.4975 63.6 56.7175C63.6 56.1175 63.072 55.8055 62.244 55.8055C61.428 55.8055 60.468 56.1175 59.604 56.7775V55.0975ZM66.7524 55.0975C67.5924 54.4975 68.5644 54.2335 69.5604 54.2335C71.2044 54.2335 72.5364 54.9775 72.5364 56.6455C72.5364 58.0255 71.3964 58.8415 70.3284 59.4775C69.3564 60.0535 68.5284 60.4975 68.5164 61.0255L72.5964 61.0135V62.5615H66.4764V61.7575C66.4764 59.7895 67.9644 59.0215 69.1644 58.3135C70.0164 57.8215 70.7484 57.4975 70.7484 56.7175C70.7484 56.1175 70.2204 55.8055 69.3924 55.8055C68.5764 55.8055 67.6164 56.1175 66.7524 56.7775V55.0975Z" fill="#221E26"/>
<rect x="6.80469" y="107.939" width="4.32013" height="4.32013" fill="#00966C"/>
<rect x="6.80469" y="112.8" width="4.32013" height="4.32013" fill="#E51C20"/>
<rect x="6.80469" y="117.659" width="4.32013" height="4.32013" fill="#D0539A"/>
<rect x="6.80469" y="122.52" width="4.32013" height="4.32013" fill="#1CB8EC"/>
<rect x="11.6641" y="107.939" width="4.32013" height="4.32013" fill="#007BC3"/>
<rect x="11.6641" y="112.799" width="4.32013" height="4.32013" fill="#0052A1"/>
<rect x="11.6641" y="117.66" width="4.32013" height="4.32013" fill="#A8CA67"/>
<rect x="11.6641" y="122.52" width="4.32013" height="4.32013" fill="#F28C00"/>
<rect x="16.5273" y="107.939" width="4.32013" height="4.32013" fill="#AFCB08"/>
<rect x="16.5273" y="112.799" width="4.32013" height="4.32013" fill="#EBCA1C"/>
<rect x="16.5273" y="117.66" width="4.32013" height="4.32013" fill="#5C75AB"/>
<rect x="16.5273" y="122.52" width="4.32013" height="4.32013" fill="#96689E"/>
<rect x="21.3867" y="107.939" width="4.32013" height="4.32013" fill="#87BBE6"/>
<rect x="21.3867" y="112.799" width="4.32013" height="4.32013" fill="#EE78AD"/>
<rect x="21.3867" y="117.66" width="4.32013" height="4.32013" fill="#41AF6B"/>
<rect x="21.3867" y="122.52" width="4.32013" height="4.32013" fill="#0087CB"/>
<path d="M111.137 120.598C110.839 121.738 109.963 122.087 108.926 122.184C108.044 122.27 107.174 122.196 106.326 121.909C106.143 121.846 106.063 121.778 106.12 121.566C106.223 121.153 106.303 120.729 106.378 120.363C106.973 120.472 107.54 120.598 108.107 120.678C108.359 120.712 108.623 120.678 108.875 120.649C109.064 120.626 109.258 120.535 109.241 120.323C109.23 120.162 109.15 119.945 109.029 119.876C108.714 119.681 108.359 119.555 108.027 119.401C107.723 119.263 107.408 119.143 107.122 118.971C106.406 118.547 106.194 117.871 106.257 117.081C106.315 116.365 106.721 115.884 107.351 115.586C108.061 115.248 108.817 115.271 109.568 115.357C109.986 115.403 110.398 115.523 110.839 115.609C110.725 116.136 110.616 116.606 110.524 117.03C109.963 116.955 109.43 116.869 108.892 116.818C108.72 116.8 108.525 116.846 108.365 116.909C108.027 117.041 107.975 117.425 108.268 117.637C108.439 117.763 108.646 117.854 108.846 117.94C109.11 118.055 109.379 118.152 109.642 118.261C110.375 118.565 110.965 119.006 111.131 119.847C111.137 120.099 111.137 120.351 111.137 120.598Z" fill="#221E26"/>
<path d="M34.9541 117.361C34.9827 117.384 35.0056 117.407 35.0285 117.419C35.9106 117.768 36.2829 118.45 36.3058 119.366C36.3287 120.351 35.9621 121.13 35.0744 121.623C34.4501 121.966 33.7628 122.098 33.0698 122.132C31.9701 122.19 30.8761 122.161 29.7879 121.966C29.6963 121.949 29.6047 121.92 29.4901 121.892C29.4901 121.794 29.4901 121.703 29.4901 121.605C29.4901 119.017 29.4958 116.434 29.4844 113.845C29.4844 113.587 29.5588 113.507 29.8108 113.478C31.1969 113.306 32.5829 113.192 33.9632 113.501C34.7479 113.679 35.4237 114.057 35.7273 114.853C36.0538 115.712 35.9449 116.663 35.0629 117.264C35.0228 117.293 34.9942 117.327 34.9541 117.361ZM31.4145 118.238C31.4145 119.034 31.4145 119.755 31.4145 120.5C32.182 120.552 32.9323 120.609 33.6597 120.351C33.9632 120.242 34.1866 120.053 34.2782 119.733C34.473 119.057 34.1637 118.495 33.4363 118.381C32.7891 118.278 32.119 118.284 31.4145 118.238ZM31.4145 116.846C32.0904 116.783 32.7376 116.766 33.3676 116.657C33.8086 116.582 33.9976 116.256 33.9919 115.826C33.9861 115.408 33.7971 115.139 33.3676 115.013C32.7261 114.83 32.0732 114.881 31.4145 114.939C31.4145 115.557 31.4145 116.153 31.4145 116.846Z" fill="#221E26"/>
<path d="M93.0578 122.035C92.3991 122.035 91.7519 122.04 91.1047 122.023C91.0417 122.023 90.9558 121.903 90.9272 121.817C90.7554 121.342 90.5835 120.866 90.4346 120.385C90.3831 120.225 90.3144 120.156 90.1368 120.156C89.1631 120.162 88.1895 120.162 87.2158 120.156C87.0497 120.156 86.981 120.219 86.9352 120.368C86.7748 120.855 86.6087 121.342 86.4369 121.828C86.4082 121.909 86.3166 122.023 86.2536 122.023C85.635 122.04 85.0165 122.035 84.375 122.035C84.3922 121.949 84.3979 121.886 84.4208 121.828C85.3945 119.068 86.4082 116.33 87.6568 113.678C87.7542 113.478 87.8573 113.392 88.0807 113.403C88.5274 113.421 88.9799 113.415 89.4266 113.409C89.5755 113.409 89.6614 113.449 89.7359 113.598C91.0074 116.29 92.0555 119.068 93.0406 121.874C93.0406 121.914 93.0464 121.96 93.0578 122.035ZM89.8963 118.604C89.4839 117.521 89.0944 116.485 88.6763 115.379C88.2468 116.502 87.8573 117.539 87.4506 118.604C88.2754 118.604 89.0543 118.604 89.8963 118.604Z" fill="#221E26"/>
<path d="M101.676 121.915C101.676 122.728 101.676 123.513 101.676 124.315C101.057 124.315 100.462 124.315 99.8375 124.315C99.8318 124.229 99.8203 124.143 99.8203 124.063C99.8203 121.365 99.8203 118.667 99.826 115.964C99.826 115.867 99.8948 115.695 99.9635 115.683C101.086 115.403 102.226 115.196 103.383 115.426C104.952 115.735 105.868 116.892 105.914 118.541C105.931 119.211 105.863 119.876 105.599 120.5C105.038 121.829 103.881 122.316 102.466 122.109C102.214 122.075 101.968 121.989 101.676 121.915ZM101.682 116.938C101.682 117.969 101.682 118.914 101.682 119.853C101.682 120.391 101.71 120.426 102.243 120.534C102.317 120.552 102.392 120.557 102.466 120.569C103.217 120.678 103.778 120.317 103.91 119.566C103.984 119.143 104.001 118.69 103.95 118.266C103.852 117.487 103.354 116.989 102.678 116.938C102.358 116.915 102.037 116.938 101.682 116.938Z" fill="#221E26"/>
<path d="M95.039 121.903C95.039 122.716 95.039 123.506 95.039 124.308C94.4205 124.308 93.8248 124.308 93.1948 124.308C93.1891 124.211 93.1776 124.113 93.1776 124.01C93.1776 121.341 93.1833 118.667 93.1719 115.998C93.1719 115.757 93.2521 115.665 93.4754 115.62C94.4376 115.419 95.4113 115.253 96.3964 115.368C98.1261 115.568 99.1857 116.691 99.2544 118.449C99.2773 119.01 99.2258 119.6 99.0769 120.144C98.5958 121.845 97.1754 122.418 95.5545 122.057C95.3884 122.023 95.228 121.96 95.039 121.903ZM95.039 116.931C95.039 117.962 95.039 118.901 95.039 119.846C95.039 120.391 95.0677 120.419 95.6003 120.534C95.6748 120.551 95.7492 120.557 95.8237 120.568C96.5682 120.677 97.1238 120.333 97.2613 119.594C97.3472 119.142 97.3586 118.661 97.2956 118.208C97.1868 117.435 96.6771 116.971 96.007 116.931C95.7034 116.92 95.3884 116.931 95.039 116.931Z" fill="#221E26"/>
<path d="M59.2625 119.383C59.3885 120.11 59.9383 120.551 60.7574 120.591C61.1067 120.609 61.4618 120.586 61.8112 120.54C62.1491 120.494 62.4813 120.402 62.8536 120.322C62.9281 120.769 63.0082 121.233 63.0712 121.702C63.077 121.754 62.9911 121.851 62.9281 121.869C61.7425 122.241 60.5397 122.39 59.3369 121.977C58.2144 121.594 57.5843 120.763 57.4011 119.606C57.2121 118.398 57.361 117.264 58.1972 116.301C59.503 114.807 62.1606 115.036 63.0655 116.714C63.4893 117.504 63.5065 118.358 63.4607 119.222C63.4492 119.411 63.3175 119.389 63.1915 119.389C61.9888 119.389 60.786 119.389 59.5832 119.389C59.4916 119.383 59.3885 119.383 59.2625 119.383ZM59.2797 118.06C60.0758 118.06 60.8662 118.06 61.6566 118.06C61.6279 117.344 61.2041 116.88 60.5855 116.863C59.8238 116.846 59.3656 117.258 59.2797 118.06Z" fill="#221E26"/>
<path d="M56.8501 122.029C56.2086 122.029 55.613 122.029 54.9772 122.029C54.9772 121.903 54.9772 121.794 54.9772 121.68C54.9715 120.477 54.9658 119.274 54.9543 118.071C54.9543 117.928 54.92 117.785 54.8856 117.648C54.7768 117.207 54.542 116.995 54.0952 116.943C53.9234 116.92 53.7516 116.926 53.5797 116.937C53.4137 116.943 53.2418 116.972 53.0528 116.995C53.0528 118.679 53.0528 120.345 53.0528 122.023C52.4285 122.023 51.8329 122.023 51.1971 122.023C51.1971 121.926 51.1971 121.829 51.1971 121.737C51.1971 119.818 51.1971 117.9 51.1914 115.981C51.1914 115.78 51.2315 115.677 51.4491 115.626C52.4973 115.402 53.5511 115.248 54.6279 115.368C55.8765 115.511 56.6153 116.222 56.7757 117.476C56.8272 117.888 56.8387 118.312 56.8387 118.73C56.8558 119.824 56.8501 120.912 56.8501 122.029Z" fill="#221E26"/>
<path d="M36.8267 115.5C37.4281 115.5 38.018 115.5 38.6538 115.5C38.6538 115.62 38.6538 115.729 38.6538 115.838C38.6595 116.96 38.648 118.089 38.6767 119.211C38.7053 120.38 39.1291 120.723 40.2861 120.569C40.372 120.557 40.4579 120.546 40.5724 120.529C40.5724 118.868 40.5724 117.201 40.5724 115.517C41.2082 115.517 41.8096 115.517 42.4568 115.517C42.4568 115.609 42.4568 115.7 42.4568 115.792C42.4568 117.711 42.451 119.624 42.4625 121.542C42.4625 121.749 42.411 121.846 42.199 121.892C41.1681 122.109 40.1372 122.27 39.0776 122.155C37.7775 122.018 37.01 121.279 36.8611 119.979C36.7981 119.406 36.8038 118.816 36.7981 118.238C36.7866 117.35 36.7981 116.462 36.7981 115.574C36.7981 115.563 36.8095 115.546 36.8267 115.5Z" fill="#221E26"/>
<path d="M47.3799 117.035C46.8244 116.961 46.2917 116.875 45.7533 116.823C45.5815 116.806 45.3868 116.852 45.2264 116.915C44.877 117.046 44.8255 117.459 45.1405 117.654C45.4154 117.82 45.7247 117.934 46.0168 118.072C46.3948 118.249 46.7843 118.404 47.1451 118.616C47.8725 119.045 48.0386 119.738 47.9584 120.517C47.8839 121.222 47.4658 121.674 46.8301 121.938C45.8392 122.35 43.9263 122.281 42.9297 121.789C43.0328 121.302 43.1301 120.815 43.2275 120.357C43.8174 120.466 44.3959 120.592 44.9744 120.678C45.2264 120.712 45.4956 120.689 45.7361 120.632C45.8736 120.597 46.0683 120.454 46.0855 120.328C46.1084 120.191 46.0168 119.956 45.8965 119.876C45.633 119.698 45.3238 119.584 45.0259 119.452C44.7396 119.32 44.4417 119.217 44.1611 119.074C43.3936 118.69 43.0557 118.054 43.0901 117.213C43.1244 116.394 43.5483 115.826 44.3043 115.54C45.4269 115.116 46.5494 115.3 47.6835 115.626C47.5804 116.142 47.4773 116.611 47.3799 117.035Z" fill="#221E26"/>
<path d="M68.8047 121.829C68.9135 121.302 69.0166 120.815 69.1082 120.368C69.7039 120.477 70.2652 120.603 70.8379 120.683C71.0899 120.717 71.3591 120.7 71.5997 120.643C71.7486 120.609 71.9433 120.454 71.9662 120.322C71.9949 120.191 71.8861 119.956 71.76 119.881C71.4851 119.704 71.1644 119.595 70.8608 119.446C70.4427 119.24 70.0017 119.068 69.6237 118.805C68.713 118.169 68.5527 116.113 70.2595 115.517C71.3591 115.133 72.4531 115.305 73.5642 115.637C73.4554 116.136 73.3465 116.605 73.2549 117.035C72.6993 116.96 72.1667 116.874 71.6283 116.823C71.4565 116.806 71.2618 116.851 71.1014 116.914C70.752 117.052 70.7062 117.459 71.0212 117.653C71.2961 117.819 71.6054 117.934 71.8975 118.071C72.2755 118.249 72.665 118.409 73.0258 118.616C73.7188 119.022 73.9021 119.681 73.8448 120.437C73.7933 121.118 73.4554 121.617 72.8311 121.874C71.4966 122.43 70.1564 122.27 68.8047 121.829Z" fill="#221E26"/>
<path d="M68.4059 115.678C68.3028 116.141 68.1939 116.611 68.1023 117.035C67.541 116.96 67.0084 116.88 66.47 116.823C66.3153 116.806 66.1321 116.829 65.9946 116.897C65.8571 116.972 65.6968 117.121 65.6796 117.253C65.6624 117.384 65.7712 117.59 65.8915 117.671C66.1435 117.837 66.4356 117.934 66.7105 118.066C67.1229 118.266 67.541 118.444 67.9362 118.667C68.95 119.24 69.0244 121.273 67.7358 121.84C67.3807 121.995 66.9969 122.109 66.6189 122.161C65.6109 122.287 64.62 122.201 63.6406 121.812C63.7437 121.313 63.8411 120.826 63.9385 120.363C64.5284 120.471 65.1011 120.597 65.6796 120.683C65.9373 120.718 66.218 120.695 66.47 120.637C66.6074 120.603 66.7735 120.448 66.8079 120.317C66.8365 120.202 66.7449 119.979 66.6418 119.91C66.3669 119.733 66.0519 119.601 65.7483 119.463C65.4963 119.349 65.2329 119.257 64.9866 119.143C64.1103 118.725 63.738 118.054 63.8239 117.081C63.8926 116.313 64.4253 115.712 65.273 115.454C66.1092 115.202 67.7014 115.311 68.4059 115.678Z" fill="#221E26"/>
<path d="M76.9538 122.201C75.5678 122.207 74.7602 121.451 74.7316 120.008C74.7087 118.702 75.0409 117.471 75.9572 116.474C76.7992 115.558 77.8645 115.231 79.073 115.46C79.892 115.615 80.4418 116.153 80.5621 116.967C80.8141 118.622 80.4246 120.111 79.2104 121.319C78.5976 121.938 77.8244 122.207 76.9538 122.201ZM79.4796 117.894C79.4682 117.7 79.4739 117.556 79.451 117.413C79.3765 116.841 79.0672 116.485 78.5861 116.417C77.9962 116.331 77.4693 116.474 77.0397 116.909C76.1405 117.82 75.8255 118.937 75.9229 120.18C75.9801 120.878 76.3925 121.193 77.097 121.199C77.5724 121.199 77.9676 121.027 78.3055 120.707C79.1302 119.928 79.4052 118.931 79.4796 117.894Z" fill="#221E26"/>
<path d="M85.3513 115.557C85.2711 115.895 85.2024 116.21 85.1222 116.537C84.4006 116.537 83.6961 116.537 82.963 116.537C82.8026 117.184 82.6537 117.82 82.4933 118.455C82.1497 119.841 81.8232 121.233 81.4567 122.613C81.2963 123.232 80.9412 123.759 80.4887 124.211C80.3971 124.303 80.231 124.355 80.0992 124.349C79.8472 124.337 79.5952 124.28 79.3203 124.234C79.3604 124.166 79.3776 124.114 79.412 124.074C80.0649 123.295 80.3913 122.373 80.6147 121.393C81.1187 119.177 81.6628 116.966 82.2069 114.75C82.3444 114.194 82.5563 113.656 82.9458 113.22C83.5987 112.493 84.4521 112.321 85.3685 112.39C85.7522 112.419 86.1302 112.522 86.5655 112.596C86.3823 112.957 86.2391 113.249 86.0959 113.535C85.758 113.484 85.4487 113.404 85.1279 113.386C84.2459 113.341 83.7247 113.707 83.4498 114.543C83.3467 114.864 83.2665 115.202 83.1692 115.557C83.9194 115.557 84.6239 115.557 85.3513 115.557Z" fill="#221E26"/>
<path d="M50.3172 122.03C49.7043 122.03 49.1029 122.03 48.4844 122.03C48.4844 119.859 48.4844 117.7 48.4844 115.518C49.0858 115.518 49.6871 115.518 50.3172 115.518C50.3172 117.671 50.3172 119.83 50.3172 122.03Z" fill="#221E26"/>
<path d="M49.4212 112.51C50.0742 112.516 50.5152 112.962 50.5094 113.609C50.5037 114.262 50.0398 114.698 49.3697 114.692C48.7282 114.686 48.27 114.222 48.2815 113.587C48.2872 112.939 48.7397 112.504 49.4212 112.51Z" fill="#221E26"/>
</svg>
