<svg width="117" height="127" viewBox="0 0 117 127" fill="none" xmlns="http://www.w3.org/2000/svg">
<path d="M50.0944 87.6778C52.6645 89.7002 53.3386 93.0708 53.3386 93.0708C53.3386 93.0708 49.8416 93.1551 47.2715 91.1327C44.7015 89.1104 44.0273 85.7398 44.0273 85.7398C44.0273 85.7398 47.5243 85.6555 50.0944 87.6778Z" fill="#B798E1"/>
<path d="M46.9772 92.9444C50.095 91.849 53.3392 93.0708 53.3392 93.0708C53.3392 93.0708 51.5696 96.0201 48.4518 97.1155C45.334 98.211 42.0898 96.9891 42.0898 96.9891C42.0898 96.9891 43.8594 94.0398 46.9772 92.9444Z" fill="#B798E1"/>
<path d="M40.0269 84.9808C42.302 87.3402 42.5127 90.7529 42.5127 90.7529C42.5127 90.7529 39.0578 90.3737 36.7827 88.0143C34.5075 85.6549 34.2969 82.2422 34.2969 82.2422C34.2969 82.2422 37.7939 82.6214 40.0269 84.9808Z" fill="#B798E1"/>
<path d="M36.2367 89.7414C39.4809 89.1094 42.5144 90.7105 42.5144 90.7105C42.5144 90.7105 40.3657 93.4069 37.1215 94.0389C33.8773 94.6709 30.8438 93.0699 30.8438 93.0699C30.8438 93.0699 32.9925 90.4155 36.2367 89.7414Z" fill="#B798E1"/>
<path d="M32.1468 81.0617C34.0007 83.7582 33.6636 87.1709 33.6636 87.1709C33.6636 87.1709 30.293 86.244 28.4392 83.5897C26.5853 80.8932 26.9224 77.4805 26.9224 77.4805C26.9224 77.4805 30.293 78.3652 32.1468 81.0617Z" fill="#B798E1"/>
<path d="M27.5986 85.1911C30.8849 85.0647 33.6657 87.1292 33.6657 87.1292C33.6657 87.1292 31.0956 89.4465 27.8093 89.5729C24.5229 89.6993 21.7422 87.6348 21.7422 87.6348C21.7422 87.6348 24.3123 85.3175 27.5986 85.1911Z" fill="#B798E1"/>
<path d="M24.7784 75.0792C25.916 78.1127 24.7363 81.3569 24.7363 81.3569C24.7363 81.3569 21.7028 79.6716 20.5652 76.6381C19.4276 73.6045 20.6073 70.3604 20.6073 70.3604C20.6073 70.3604 23.5987 72.0456 24.7784 75.0792Z" fill="#B798E1"/>
<path d="M19.3402 78.0286C22.5844 78.7027 24.7332 81.357 24.7332 81.357C24.7332 81.357 21.6575 83.0002 18.4555 82.3261C15.2113 81.6519 13.0625 78.9976 13.0625 78.9976C13.0625 78.9976 16.096 77.3544 19.3402 78.0286Z" fill="#B798E1"/>
<path d="M19.1694 68.2119C19.5486 71.4139 17.6526 74.2789 17.6526 74.2789C17.6526 74.2789 15.1246 71.9195 14.7455 68.7175C14.3663 65.5154 16.2622 62.6504 16.2622 62.6504C16.2622 62.6504 18.7902 64.9677 19.1694 68.2119Z" fill="#B798E1"/>
<path d="M13.1901 69.7705C16.1815 71.1609 17.614 74.2787 17.614 74.2787C17.614 74.2787 14.2434 75.1635 11.252 73.7731C8.26063 72.3828 6.82812 69.265 6.82812 69.265C6.82812 69.265 10.2409 68.4223 13.1901 69.7705Z" fill="#B798E1"/>
<path d="M14.4095 59.5328C14.1146 62.777 11.6709 65.1785 11.6709 65.1785C11.6709 65.1785 9.64852 62.3556 9.94345 59.1536C10.2384 55.9094 12.6821 53.5078 12.6821 53.5078C12.6821 53.5078 14.6623 56.2886 14.4095 59.5328Z" fill="#B798E1"/>
<path d="M8.21467 59.9119C10.869 61.85 11.6695 65.1784 11.6695 65.1784C11.6695 65.1784 8.17254 65.3891 5.56033 63.451C2.90598 61.5129 2.10547 58.1845 2.10547 58.1845C2.10547 58.1845 5.60246 57.9738 8.21467 59.9119Z" fill="#B798E1"/>
<path d="M11.9652 51.2327C11.1647 54.3926 8.34182 56.415 8.34182 56.415C8.34182 56.415 6.82506 53.3393 7.58344 50.1794C8.38396 47.0194 11.2068 44.9971 11.2068 44.9971C11.2068 44.9971 12.7236 48.0727 11.9652 51.2327Z" fill="#B798E1"/>
<path d="M5.77214 50.6436C8.08943 52.9609 8.34222 56.3736 8.34222 56.3736C8.34222 56.3736 4.88736 56.0366 2.57008 53.7193C0.252795 51.402 0 47.9893 0 47.9893C0 47.9893 3.49699 48.3263 5.77214 50.6436Z" fill="#B798E1"/>
<path d="M11.6721 42.0061C10.1132 44.8711 6.91116 46.1772 6.91116 46.1772C6.91116 46.1772 6.19491 42.8066 7.71168 39.9416C9.27058 37.0766 12.4726 35.7705 12.4726 35.7705C12.4726 35.7705 13.231 39.1411 11.6721 42.0061Z" fill="#B798E1"/>
<path d="M5.85673 39.9839C7.4999 42.8068 6.91004 46.1774 6.91004 46.1774C6.91004 46.1774 3.62371 44.9976 1.98055 42.2169C0.337382 39.394 0.927236 36.0234 0.927236 36.0234C0.927236 36.0234 4.21357 37.161 5.85673 39.9839Z" fill="#B798E1"/>
<path d="M13.3137 32.6943C11.1228 35.138 7.66797 35.6436 7.66797 35.6436C7.66797 35.6436 7.75223 32.2308 9.94312 29.7872C12.134 27.3435 15.5889 26.8379 15.5889 26.8379C15.5889 26.8379 15.5046 30.2506 13.3137 32.6943Z" fill="#B798E1"/>
<path d="M8.13176 29.3662C9.05867 32.484 7.6683 35.6018 7.6683 35.6018C7.6683 35.6018 4.8033 33.7479 3.83425 30.6301C2.90734 27.5123 4.29771 24.3945 4.29771 24.3945C4.29771 24.3945 7.20485 26.2484 8.13176 29.3662Z" fill="#B798E1"/>
<path d="M16.6826 25.0269C13.9861 26.8807 10.5312 26.6279 10.5312 26.6279C10.5312 26.6279 11.416 23.2995 14.1125 21.4456C16.809 19.5918 20.2638 19.8446 20.2638 19.8446C20.2638 19.8446 19.3791 23.1731 16.6826 25.0269Z" fill="#B798E1"/>
<path d="M12.4264 20.6451C12.6371 23.8892 10.5305 26.6279 10.5305 26.6279C10.5305 26.6279 8.12893 24.142 7.9604 20.8978C7.74974 17.6536 9.81423 14.915 9.81423 14.915C9.81423 14.915 12.2158 17.4009 12.4264 20.6451Z" fill="#B798E1"/>
<path d="M20.898 18.117C17.9487 19.5495 14.5781 18.749 14.5781 18.749C14.5781 18.749 15.9685 15.6312 18.9599 14.1987C21.9092 12.7662 25.2798 13.5667 25.2798 13.5667C25.2798 13.5667 23.8894 16.6845 20.898 18.117Z" fill="#B798E1"/>
<path d="M17.4031 13.1032C17.066 16.3474 14.5802 18.7068 14.5802 18.7068C14.5802 18.7068 12.6 15.8839 12.9371 12.6397C13.2741 9.39555 15.7599 7.03613 15.7599 7.03613C15.7599 7.03613 17.7402 9.85901 17.4031 13.1032Z" fill="#B798E1"/>
<path d="M67.959 87.256C65.389 89.2783 64.7148 92.6489 64.7148 92.6489C64.7148 92.6489 68.2118 92.7332 70.7819 90.7108C73.352 88.6885 74.0261 85.3179 74.0261 85.3179C74.0261 85.3179 70.5291 85.2336 67.959 87.256Z" fill="#B798E1"/>
<path d="M71.0768 92.5225C67.959 91.4271 64.7148 92.6489 64.7148 92.6489C64.7148 92.6489 66.4844 95.5982 69.6022 96.6936C72.72 97.7891 75.9642 96.5672 75.9642 96.5672C75.9642 96.5672 74.1525 93.5758 71.0768 92.5225Z" fill="#B798E1"/>
<path d="M76.7202 84.9818C74.445 87.3412 74.2344 90.7539 74.2344 90.7539C74.2344 90.7539 77.6892 90.3747 79.9644 88.0153C82.2395 85.6559 82.4502 82.2432 82.4502 82.2432C82.4502 82.2432 78.9953 82.6224 76.7202 84.9818Z" fill="#B798E1"/>
<path d="M80.5121 89.7424C77.2679 89.1104 74.2344 90.7114 74.2344 90.7114C74.2344 90.7114 76.3831 93.4079 79.6273 94.0399C82.8715 94.6719 85.9051 93.0709 85.9051 93.0709C85.9051 93.0709 83.7563 90.4165 80.5121 89.7424Z" fill="#B798E1"/>
<path d="M84.5993 80.7268C82.7455 83.4232 83.0826 86.836 83.0826 86.836C83.0826 86.836 86.4532 85.9091 88.307 83.2547C90.1608 80.5582 89.8238 77.1455 89.8238 77.1455C89.8238 77.1455 86.4532 78.0303 84.5993 80.7268Z" fill="#B798E1"/>
<path d="M89.1491 84.8552C85.8628 84.7288 83.082 86.7933 83.082 86.7933C83.082 86.7933 85.6521 89.1106 88.9384 89.237C92.2248 89.3634 95.0055 87.2989 95.0055 87.2989C95.0055 87.2989 92.4354 84.9816 89.1491 84.8552Z" fill="#B798E1"/>
<path d="M91.7215 74.9122C90.5839 77.9457 91.7636 81.1899 91.7636 81.1899C91.7636 81.1899 94.7971 79.5046 95.9347 76.4711C97.0723 73.4376 95.8926 70.1934 95.8926 70.1934C95.8926 70.1934 92.859 71.8787 91.7215 74.9122Z" fill="#B798E1"/>
<path d="M97.1547 77.8616C93.9105 78.5357 91.7617 81.19 91.7617 81.19C91.7617 81.19 94.8374 82.8332 98.0394 82.1591C101.284 81.485 103.432 78.8306 103.432 78.8306C103.432 78.8306 100.399 77.1875 97.1547 77.8616Z" fill="#B798E1"/>
<path d="M97.6205 67.581C97.2413 70.7831 99.1372 73.6481 99.1372 73.6481C99.1372 73.6481 101.665 71.2887 102.044 68.0866C102.424 64.8845 100.528 62.0195 100.528 62.0195C100.528 62.0195 97.9996 64.3368 97.6205 67.581Z" fill="#B798E1"/>
<path d="M103.604 69.1397C100.612 70.5301 99.1797 73.6479 99.1797 73.6479C99.1797 73.6479 102.55 74.5326 105.542 73.1423C108.533 71.7519 109.966 68.6341 109.966 68.6341C109.966 68.6341 106.595 67.7915 103.604 69.1397Z" fill="#B798E1"/>
<path d="M101.835 59.3638C102.13 62.608 104.573 65.0096 104.573 65.0096C104.573 65.0096 106.596 62.1867 106.301 58.9846C106.006 55.7404 103.562 53.3389 103.562 53.3389C103.562 53.3389 101.582 56.1196 101.835 59.3638Z" fill="#B798E1"/>
<path d="M108.029 59.7439C105.375 61.682 104.574 65.0105 104.574 65.0105C104.574 65.0105 108.071 65.2211 110.683 63.283C113.338 61.3449 114.138 58.0165 114.138 58.0165C114.138 58.0165 110.683 57.8058 108.029 59.7439Z" fill="#B798E1"/>
<path d="M104.318 51.0637C105.119 54.2237 107.942 56.246 107.942 56.246C107.942 56.246 109.459 53.1704 108.7 50.0104C107.9 46.8505 105.077 44.8281 105.077 44.8281C105.077 44.8281 103.518 47.9038 104.318 51.0637Z" fill="#B798E1"/>
<path d="M110.469 50.4747C108.193 52.7919 107.898 56.2047 107.898 56.2047C107.898 56.2047 111.353 55.8676 113.671 53.5503C115.988 51.233 116.241 47.8203 116.241 47.8203C116.241 47.8203 112.744 48.1574 110.469 50.4747Z" fill="#B798E1"/>
<path d="M104.528 42.1321C106.087 44.9971 109.289 46.3032 109.289 46.3032C109.289 46.3032 110.005 42.9326 108.488 40.0676C106.929 37.2026 103.727 35.8965 103.727 35.8965C103.727 35.8965 102.969 39.2671 104.528 42.1321Z" fill="#B798E1"/>
<path d="M110.344 40.1099C108.701 42.9327 109.291 46.3033 109.291 46.3033C109.291 46.3033 112.577 45.1236 114.22 42.3429C115.863 39.52 115.273 36.1494 115.273 36.1494C115.273 36.1494 112.029 37.287 110.344 40.1099Z" fill="#B798E1"/>
<path d="M102.802 32.8203C104.993 35.264 108.448 35.7695 108.448 35.7695C108.448 35.7695 108.364 32.3568 106.173 29.9131C103.982 27.4695 100.527 26.9639 100.527 26.9639C100.527 26.9639 100.612 30.3766 102.802 32.8203Z" fill="#B798E1"/>
<path d="M107.987 29.4923C107.06 32.6101 108.45 35.7279 108.45 35.7279C108.45 35.7279 111.357 33.8319 112.284 30.7141C113.211 27.5963 111.821 24.4785 111.821 24.4785C111.821 24.4785 108.914 26.3745 107.987 29.4923Z" fill="#B798E1"/>
<path d="M99.5188 25.2798C102.215 27.1337 105.67 26.8809 105.67 26.8809C105.67 26.8809 104.785 23.5524 102.089 21.6986C99.3924 19.8448 95.9375 20.0975 95.9375 20.0975C95.9375 20.0975 96.8644 23.426 99.5188 25.2798Z" fill="#B798E1"/>
<path d="M103.816 20.898C103.605 24.1422 105.712 26.8808 105.712 26.8808C105.712 26.8808 108.113 24.395 108.282 21.1508C108.492 17.9066 106.386 15.168 106.386 15.168C106.386 15.168 103.984 17.6538 103.816 20.898Z" fill="#B798E1"/>
<path d="M95.0506 18.4121C97.9999 19.8446 101.37 19.0441 101.37 19.0441C101.37 19.0441 100.022 15.8842 97.0308 14.4516C94.0815 13.0191 90.7109 13.8197 90.7109 13.8197C90.7109 13.8197 92.1013 16.9796 95.0506 18.4121Z" fill="#B798E1"/>
<path d="M98.5894 13.3981C98.9265 16.6423 101.412 19.0017 101.412 19.0017C101.412 19.0017 103.392 16.1789 103.055 12.9347C102.718 9.69047 100.233 7.33105 100.233 7.33105C100.233 7.33105 98.2523 10.1961 98.5894 13.3981Z" fill="#B798E1"/>
<path d="M92.6935 8.51074C92.5671 8.63714 92.3986 8.80567 92.23 8.93207C92.1879 8.9742 92.1458 9.01633 92.0615 9.01633C102.384 17.822 108.914 30.546 108.914 44.6604C108.914 71.1195 86.1208 92.6914 58.0606 92.6914C30.0425 92.6914 7.20677 71.1617 7.20677 44.6604C7.20677 31.1359 13.1474 18.9175 22.6694 10.196C22.4166 10.1118 22.1216 10.0275 21.8689 9.85898C12.3048 18.7068 6.40625 31.0516 6.40625 44.6604C6.40625 71.5409 29.5791 93.4497 58.0606 93.4497C86.5422 93.4497 109.715 71.583 109.715 44.6604C109.715 30.3775 103.142 17.4428 92.6935 8.51074Z" fill="#B798E1"/>
<path d="M27.7652 11.9651C24.5631 12.6392 21.4453 11.0382 21.4453 11.0382C21.4453 11.0382 23.5941 8.34173 26.7961 7.66762C29.9982 6.9935 33.116 8.59453 33.116 8.59453C33.116 8.59453 30.9672 11.291 27.7652 11.9651Z" fill="#B798E1"/>
<path d="M25.5729 6.27773C24.4774 9.31127 21.4439 11.0387 21.4439 11.0387C21.4439 11.0387 20.2221 7.83663 21.3596 4.76097C22.4551 1.72743 25.4886 0 25.4886 0C25.4886 0 26.7105 3.2442 25.5729 6.27773Z" fill="#B798E1"/>
<path d="M88.5618 11.9651C91.7638 12.6392 94.8816 11.0382 94.8816 11.0382C94.8816 11.0382 92.7329 8.34173 89.5308 7.66762C86.3287 6.9935 83.2109 8.59453 83.2109 8.59453C83.2109 8.59453 85.3597 11.291 88.5618 11.9651Z" fill="#B798E1"/>
<path d="M90.755 6.27773C91.8504 9.31127 94.884 11.0387 94.884 11.0387C94.884 11.0387 96.1058 7.83663 94.9682 4.76097C93.8728 1.72743 90.8393 0 90.8393 0C90.8393 0 89.6596 3.2442 90.755 6.27773Z" fill="#B798E1"/>
<path d="M31.478 35H29.618L33.05 26.6H34.994L38.414 35H36.554L35.942 33.428H32.102L31.478 35ZM33.83 28.928L32.666 31.94H35.378L34.202 28.928C34.142 28.76 34.082 28.592 34.022 28.268C33.962 28.592 33.902 28.76 33.83 28.928ZM40.6371 30.08C40.9971 29.564 41.6571 29.072 42.7251 29.072C44.5491 29.072 45.5331 30.548 45.5331 32.12C45.5331 33.692 44.5491 35.168 42.7251 35.168C41.8131 35.168 41.2011 34.796 40.8291 34.388V37.64H39.1611V29.24H40.6371V30.08ZM43.8291 32.12C43.8291 31.22 43.2651 30.476 42.3171 30.476C41.5851 30.476 41.0451 30.932 40.8171 31.436V32.804C41.0451 33.308 41.5851 33.764 42.3171 33.764C43.2651 33.764 43.8291 33.02 43.8291 32.12ZM48.102 30.08C48.462 29.564 49.122 29.072 50.19 29.072C52.014 29.072 52.998 30.548 52.998 32.12C52.998 33.692 52.014 35.168 50.19 35.168C49.278 35.168 48.666 34.796 48.294 34.388V37.64H46.626V29.24H48.102V30.08ZM51.294 32.12C51.294 31.22 50.73 30.476 49.782 30.476C49.05 30.476 48.51 30.932 48.282 31.436V32.804C48.51 33.308 49.05 33.764 49.782 33.764C50.73 33.764 51.294 33.02 51.294 32.12ZM56.571 28.82C56.571 27.2 57.987 26.432 59.643 26.432C60.639 26.432 61.647 26.672 62.367 27.08V28.76C61.659 28.256 60.711 28.004 59.775 28.016C58.863 28.028 58.407 28.28 58.407 28.796C58.407 30.248 63.003 29.708 63.003 32.696C63.003 34.58 61.491 35.168 59.727 35.168C58.563 35.168 57.483 34.892 56.619 34.412V32.696C57.579 33.332 58.635 33.584 59.595 33.584C60.567 33.584 61.167 33.38 61.167 32.78C61.167 31.208 56.571 31.796 56.571 28.82ZM64.2963 27.56L65.9523 27.164V29.24H67.7763V30.644H65.9523V32.9C65.9523 33.5 66.2523 33.764 66.8763 33.764C67.2603 33.764 67.5843 33.704 67.9203 33.572V34.916C67.4763 35.072 66.9483 35.168 66.3723 35.168C65.2563 35.168 64.2963 34.652 64.2963 33.224V30.644H63.3243V29.24H64.2963V27.56ZM68.5559 32.12C68.5559 30.104 70.0679 29.072 71.7359 29.072C73.4159 29.072 74.9159 30.104 74.9159 32.12C74.9159 34.136 73.4159 35.168 71.7359 35.168C70.0679 35.168 68.5559 34.136 68.5559 32.12ZM73.2239 32.12C73.2239 31.232 72.6959 30.56 71.7359 30.56C70.7879 30.56 70.2599 31.232 70.2599 32.12C70.2599 33.008 70.7879 33.68 71.7359 33.68C72.6959 33.68 73.2239 33.008 73.2239 32.12ZM77.4809 30.104C77.8889 29.468 78.7289 29.012 79.8089 29.12V30.74C78.8969 30.584 78.0209 30.932 77.6729 31.616V35H76.0049V29.24H77.4809V30.104ZM80.2395 32.12C80.2395 29.948 81.9075 29.072 83.2035 29.072C85.5915 29.072 86.3595 30.956 85.9755 32.66H81.9195C82.1115 33.5 82.9995 33.848 83.9475 33.848C84.6075 33.848 85.1955 33.716 85.6875 33.5V34.808C85.1475 35.036 84.4395 35.168 83.5755 35.168C81.7515 35.168 80.2395 34.124 80.2395 32.12ZM84.4755 31.58C84.5355 31.184 84.3075 30.344 83.2635 30.344C82.5555 30.344 81.9315 30.788 81.9075 31.58H84.4755ZM21.6293 44.8C21.6293 42.52 23.1173 40.432 26.0933 40.432C29.0693 40.432 30.5573 42.52 30.5573 44.8C30.5573 47.08 29.0693 49.168 26.0933 49.168C23.1173 49.168 21.6293 47.08 21.6293 44.8ZM28.7093 44.8C28.7093 43.324 27.8333 42.1 26.0933 42.1C24.3413 42.1 23.4653 43.324 23.4653 44.8C23.4653 46.276 24.3413 47.5 26.0933 47.5C27.8333 47.5 28.7093 46.276 28.7093 44.8ZM33.1195 44.08C33.4795 43.564 34.1395 43.072 35.2075 43.072C37.0315 43.072 38.0155 44.548 38.0155 46.12C38.0155 47.692 37.0315 49.168 35.2075 49.168C34.2955 49.168 33.6835 48.796 33.3115 48.388V51.64H31.6435V43.24H33.1195V44.08ZM36.3115 46.12C36.3115 45.22 35.7475 44.476 34.7995 44.476C34.0675 44.476 33.5275 44.932 33.2995 45.436V46.804C33.5275 47.308 34.0675 47.764 34.7995 47.764C35.7475 47.764 36.3115 47.02 36.3115 46.12ZM39.4701 41.56L41.1261 41.164V43.24H42.9501V44.644H41.1261V46.9C41.1261 47.5 41.4261 47.764 42.0501 47.764C42.4341 47.764 42.7581 47.704 43.0941 47.572V48.916C42.6501 49.072 42.1221 49.168 41.5461 49.168C40.4301 49.168 39.4701 48.652 39.4701 47.224V44.644H38.4981V43.24H39.4701V41.56ZM45.7337 49H44.0657V43.24H45.7337V49ZM45.8777 41.332C45.8777 41.992 45.4217 42.28 44.8937 42.28C44.3777 42.28 43.9217 41.992 43.9217 41.332C43.9217 40.684 44.3777 40.396 44.8937 40.396C45.4217 40.396 45.8777 40.684 45.8777 41.332ZM48.8389 49H47.1709V43.24H48.6469V43.912C48.9469 43.552 49.6069 43.072 50.4829 43.072C51.3469 43.072 51.9109 43.432 52.2469 43.924C52.7269 43.456 53.3749 43.072 54.1669 43.072C55.7869 43.072 56.3149 44.332 56.3149 45.352V49H54.6589V45.46C54.6589 44.86 54.2869 44.512 53.7589 44.512C53.3029 44.512 52.8949 44.776 52.6189 45.088C52.6309 45.172 52.6309 45.256 52.6309 45.352V49H50.9749V45.46C50.9749 44.86 50.6029 44.512 50.0749 44.512C49.5709 44.512 49.1149 44.848 48.8389 45.208V49ZM59.3509 49H57.6829V43.24H59.3509V49ZM59.4949 41.332C59.4949 41.992 59.0389 42.28 58.5109 42.28C57.9949 42.28 57.5389 41.992 57.5389 41.332C57.5389 40.684 57.9949 40.396 58.5109 40.396C59.0389 40.396 59.4949 40.684 59.4949 41.332ZM60.6081 43.24H65.3001V44.32L62.6001 47.608H65.4921V49H60.4521V47.92L63.1521 44.62H60.6081V43.24ZM71.7251 47.512C71.7251 47.812 71.9171 47.896 72.1331 47.896C72.2291 47.896 72.3371 47.884 72.4451 47.848V48.94C72.1811 49.036 71.8451 49.108 71.5211 49.108C70.9331 49.108 70.4891 48.892 70.2491 48.46C69.6851 48.904 69.0251 49.168 68.1731 49.168C67.0931 49.168 66.1571 48.544 66.1571 47.404C66.1571 45.94 67.5371 45.484 68.6891 45.484C69.1451 45.484 69.6491 45.544 70.0571 45.64V45.436C70.0571 44.86 69.6011 44.464 68.7011 44.464C67.9091 44.464 67.2011 44.68 66.6611 44.896V43.456C67.1291 43.3 68.0051 43.072 68.8931 43.072C70.6211 43.072 71.7251 43.78 71.7251 45.676V47.512ZM69.0731 46.48C68.4611 46.48 67.8611 46.684 67.8611 47.272C67.8611 47.704 68.2571 47.98 68.7611 47.98C69.2291 47.98 69.6731 47.848 70.0571 47.512V46.612C69.8051 46.552 69.4211 46.48 69.0731 46.48ZM73.6068 41.56L75.2628 41.164V43.24H77.0868V44.644H75.2628V46.9C75.2628 47.5 75.5628 47.764 76.1868 47.764C76.5708 47.764 76.8948 47.704 77.2308 47.572V48.916C76.7868 49.072 76.2588 49.168 75.6828 49.168C74.5668 49.168 73.6068 48.652 73.6068 47.224V44.644H72.6348V43.24H73.6068V41.56ZM79.8704 49H78.2024V43.24H79.8704V49ZM80.0144 41.332C80.0144 41.992 79.5584 42.28 79.0304 42.28C78.5144 42.28 78.0584 41.992 78.0584 41.332C78.0584 40.684 78.5144 40.396 79.0304 40.396C79.5584 40.396 80.0144 40.684 80.0144 41.332ZM80.9836 46.12C80.9836 44.104 82.4956 43.072 84.1636 43.072C85.8436 43.072 87.3436 44.104 87.3436 46.12C87.3436 48.136 85.8436 49.168 84.1636 49.168C82.4956 49.168 80.9836 48.136 80.9836 46.12ZM85.6516 46.12C85.6516 45.232 85.1236 44.56 84.1636 44.56C83.2156 44.56 82.6876 45.232 82.6876 46.12C82.6876 47.008 83.2156 47.68 84.1636 47.68C85.1236 47.68 85.6516 47.008 85.6516 46.12ZM89.9086 43.972C90.3526 43.456 91.0006 43.072 91.8286 43.072C93.3406 43.072 94.1686 44.104 94.1686 45.436V49H92.5006V45.652C92.5006 44.872 92.0326 44.512 91.3846 44.512C90.7966 44.512 90.3406 44.896 90.1006 45.244V49H88.4326V43.24H89.9086V43.972ZM43.797 55.536C44.637 54.936 45.609 54.672 46.605 54.672C48.249 54.672 49.581 55.416 49.581 57.084C49.581 58.464 48.441 59.28 47.373 59.916C46.401 60.492 45.573 60.936 45.561 61.464L49.641 61.452V63H43.521V62.196C43.521 60.228 45.009 59.46 46.209 58.752C47.061 58.26 47.793 57.936 47.793 57.156C47.793 56.556 47.265 56.244 46.437 56.244C45.621 56.244 44.661 56.556 43.797 57.216V55.536ZM50.7055 58.92C50.7055 56.568 51.8215 54.672 54.4255 54.672C57.0295 54.672 58.1455 56.568 58.1455 58.92C58.1455 61.272 57.0295 63.168 54.4255 63.168C51.8215 63.168 50.7055 61.272 50.7055 58.92ZM56.3455 58.92C56.3455 57.18 55.7455 56.256 54.4255 56.256C53.1055 56.256 52.5055 57.18 52.5055 58.92C52.5055 60.66 53.1055 61.584 54.4255 61.584C55.7455 61.584 56.3455 60.66 56.3455 58.92ZM59.4181 55.536C60.2581 54.936 61.2301 54.672 62.2261 54.672C63.8701 54.672 65.2021 55.416 65.2021 57.084C65.2021 58.464 64.0621 59.28 62.9941 59.916C62.0221 60.492 61.1941 60.936 61.1821 61.464L65.2621 61.452V63H59.1421V62.196C59.1421 60.228 60.6301 59.46 61.8301 58.752C62.6821 58.26 63.4141 57.936 63.4141 57.156C63.4141 56.556 62.8861 56.244 62.0581 56.244C61.2421 56.244 60.2821 56.556 59.4181 57.216V55.536ZM66.5665 55.536C67.4065 54.936 68.3785 54.672 69.3745 54.672C71.0185 54.672 72.3505 55.416 72.3505 57.084C72.3505 58.464 71.2105 59.28 70.1425 59.916C69.1705 60.492 68.3425 60.936 68.3305 61.464L72.4105 61.452V63H66.2905V62.196C66.2905 60.228 67.7785 59.46 68.9785 58.752C69.8305 58.26 70.5625 57.936 70.5625 57.156C70.5625 56.556 70.0345 56.244 69.2065 56.244C68.3905 56.244 67.4305 56.556 66.5665 57.216V55.536Z" fill="#221E26"/>
<rect x="6.80469" y="107.939" width="4.32013" height="4.32013" fill="#00966C"/>
<rect x="6.80469" y="112.8" width="4.32013" height="4.32013" fill="#E51C20"/>
<rect x="6.80469" y="117.659" width="4.32013" height="4.32013" fill="#D0539A"/>
<rect x="6.80469" y="122.52" width="4.32013" height="4.32013" fill="#1CB8EC"/>
<rect x="11.6641" y="107.939" width="4.32013" height="4.32013" fill="#007BC3"/>
<rect x="11.6641" y="112.799" width="4.32013" height="4.32013" fill="#0052A1"/>
<rect x="11.6641" y="117.66" width="4.32013" height="4.32013" fill="#A8CA67"/>
<rect x="11.6641" y="122.52" width="4.32013" height="4.32013" fill="#F28C00"/>
<rect x="16.5273" y="107.939" width="4.32013" height="4.32013" fill="#AFCB08"/>
<rect x="16.5273" y="112.799" width="4.32013" height="4.32013" fill="#EBCA1C"/>
<rect x="16.5273" y="117.66" width="4.32013" height="4.32013" fill="#5C75AB"/>
<rect x="16.5273" y="122.52" width="4.32013" height="4.32013" fill="#96689E"/>
<rect x="21.3867" y="107.939" width="4.32013" height="4.32013" fill="#87BBE6"/>
<rect x="21.3867" y="112.799" width="4.32013" height="4.32013" fill="#EE78AD"/>
<rect x="21.3867" y="117.66" width="4.32013" height="4.32013" fill="#41AF6B"/>
<rect x="21.3867" y="122.52" width="4.32013" height="4.32013" fill="#0087CB"/>
<path d="M111.137 120.598C110.839 121.738 109.963 122.087 108.926 122.184C108.044 122.27 107.174 122.196 106.326 121.909C106.143 121.846 106.063 121.778 106.12 121.566C106.223 121.153 106.303 120.729 106.378 120.363C106.973 120.472 107.54 120.598 108.107 120.678C108.359 120.712 108.623 120.678 108.875 120.649C109.064 120.626 109.258 120.535 109.241 120.323C109.23 120.162 109.15 119.945 109.029 119.876C108.714 119.681 108.359 119.555 108.027 119.401C107.723 119.263 107.408 119.143 107.122 118.971C106.406 118.547 106.194 117.871 106.257 117.081C106.315 116.365 106.721 115.884 107.351 115.586C108.061 115.248 108.817 115.271 109.568 115.357C109.986 115.403 110.398 115.523 110.839 115.609C110.725 116.136 110.616 116.606 110.524 117.03C109.963 116.955 109.43 116.869 108.892 116.818C108.72 116.8 108.525 116.846 108.365 116.909C108.027 117.041 107.975 117.425 108.268 117.637C108.439 117.763 108.646 117.854 108.846 117.94C109.11 118.055 109.379 118.152 109.642 118.261C110.375 118.565 110.965 119.006 111.131 119.847C111.137 120.099 111.137 120.351 111.137 120.598Z" fill="#221E26"/>
<path d="M34.9541 117.361C34.9827 117.384 35.0056 117.407 35.0285 117.419C35.9106 117.768 36.2829 118.45 36.3058 119.366C36.3287 120.351 35.9621 121.13 35.0744 121.623C34.4501 121.966 33.7628 122.098 33.0698 122.132C31.9701 122.19 30.8761 122.161 29.7879 121.966C29.6963 121.949 29.6047 121.92 29.4901 121.892C29.4901 121.794 29.4901 121.703 29.4901 121.605C29.4901 119.017 29.4958 116.434 29.4844 113.845C29.4844 113.587 29.5588 113.507 29.8108 113.478C31.1969 113.306 32.5829 113.192 33.9632 113.501C34.7479 113.679 35.4237 114.057 35.7273 114.853C36.0538 115.712 35.9449 116.663 35.0629 117.264C35.0228 117.293 34.9942 117.327 34.9541 117.361ZM31.4145 118.238C31.4145 119.034 31.4145 119.755 31.4145 120.5C32.182 120.552 32.9323 120.609 33.6597 120.351C33.9632 120.242 34.1866 120.053 34.2782 119.733C34.473 119.057 34.1637 118.495 33.4363 118.381C32.7891 118.278 32.119 118.284 31.4145 118.238ZM31.4145 116.846C32.0904 116.783 32.7376 116.766 33.3676 116.657C33.8086 116.582 33.9976 116.256 33.9919 115.826C33.9861 115.408 33.7971 115.139 33.3676 115.013C32.7261 114.83 32.0732 114.881 31.4145 114.939C31.4145 115.557 31.4145 116.153 31.4145 116.846Z" fill="#221E26"/>
<path d="M93.0578 122.035C92.3991 122.035 91.7519 122.04 91.1047 122.023C91.0417 122.023 90.9558 121.903 90.9272 121.817C90.7554 121.342 90.5835 120.866 90.4346 120.385C90.3831 120.225 90.3144 120.156 90.1368 120.156C89.1631 120.162 88.1895 120.162 87.2158 120.156C87.0497 120.156 86.981 120.219 86.9352 120.368C86.7748 120.855 86.6087 121.342 86.4369 121.828C86.4082 121.909 86.3166 122.023 86.2536 122.023C85.635 122.04 85.0165 122.035 84.375 122.035C84.3922 121.949 84.3979 121.886 84.4208 121.828C85.3945 119.068 86.4082 116.33 87.6568 113.678C87.7542 113.478 87.8573 113.392 88.0807 113.403C88.5274 113.421 88.9799 113.415 89.4266 113.409C89.5755 113.409 89.6614 113.449 89.7359 113.598C91.0074 116.29 92.0555 119.068 93.0406 121.874C93.0406 121.914 93.0464 121.96 93.0578 122.035ZM89.8963 118.604C89.4839 117.521 89.0944 116.485 88.6763 115.379C88.2468 116.502 87.8573 117.539 87.4506 118.604C88.2754 118.604 89.0543 118.604 89.8963 118.604Z" fill="#221E26"/>
<path d="M101.676 121.915C101.676 122.728 101.676 123.513 101.676 124.315C101.057 124.315 100.462 124.315 99.8375 124.315C99.8318 124.229 99.8203 124.143 99.8203 124.063C99.8203 121.365 99.8203 118.667 99.826 115.964C99.826 115.867 99.8948 115.695 99.9635 115.683C101.086 115.403 102.226 115.196 103.383 115.426C104.952 115.735 105.868 116.892 105.914 118.541C105.931 119.211 105.863 119.876 105.599 120.5C105.038 121.829 103.881 122.316 102.466 122.109C102.214 122.075 101.968 121.989 101.676 121.915ZM101.682 116.938C101.682 117.969 101.682 118.914 101.682 119.853C101.682 120.391 101.71 120.426 102.243 120.534C102.317 120.552 102.392 120.557 102.466 120.569C103.217 120.678 103.778 120.317 103.91 119.566C103.984 119.143 104.001 118.69 103.95 118.266C103.852 117.487 103.354 116.989 102.678 116.938C102.358 116.915 102.037 116.938 101.682 116.938Z" fill="#221E26"/>
<path d="M95.039 121.903C95.039 122.716 95.039 123.506 95.039 124.308C94.4205 124.308 93.8248 124.308 93.1948 124.308C93.1891 124.211 93.1776 124.113 93.1776 124.01C93.1776 121.341 93.1833 118.667 93.1719 115.998C93.1719 115.757 93.2521 115.665 93.4754 115.62C94.4376 115.419 95.4113 115.253 96.3964 115.368C98.1261 115.568 99.1857 116.691 99.2544 118.449C99.2773 119.01 99.2258 119.6 99.0769 120.144C98.5958 121.845 97.1754 122.418 95.5545 122.057C95.3884 122.023 95.228 121.96 95.039 121.903ZM95.039 116.931C95.039 117.962 95.039 118.901 95.039 119.846C95.039 120.391 95.0677 120.419 95.6003 120.534C95.6748 120.551 95.7492 120.557 95.8237 120.568C96.5682 120.677 97.1238 120.333 97.2613 119.594C97.3472 119.142 97.3586 118.661 97.2956 118.208C97.1868 117.435 96.6771 116.971 96.007 116.931C95.7034 116.92 95.3884 116.931 95.039 116.931Z" fill="#221E26"/>
<path d="M59.2625 119.383C59.3885 120.11 59.9383 120.551 60.7574 120.591C61.1067 120.609 61.4618 120.586 61.8112 120.54C62.1491 120.494 62.4813 120.402 62.8536 120.322C62.9281 120.769 63.0082 121.233 63.0712 121.702C63.077 121.754 62.9911 121.851 62.9281 121.869C61.7425 122.241 60.5397 122.39 59.3369 121.977C58.2144 121.594 57.5843 120.763 57.4011 119.606C57.2121 118.398 57.361 117.264 58.1972 116.301C59.503 114.807 62.1606 115.036 63.0655 116.714C63.4893 117.504 63.5065 118.358 63.4607 119.222C63.4492 119.411 63.3175 119.389 63.1915 119.389C61.9888 119.389 60.786 119.389 59.5832 119.389C59.4916 119.383 59.3885 119.383 59.2625 119.383ZM59.2797 118.06C60.0758 118.06 60.8662 118.06 61.6566 118.06C61.6279 117.344 61.2041 116.88 60.5855 116.863C59.8238 116.846 59.3656 117.258 59.2797 118.06Z" fill="#221E26"/>
<path d="M56.8501 122.029C56.2086 122.029 55.613 122.029 54.9772 122.029C54.9772 121.903 54.9772 121.794 54.9772 121.68C54.9715 120.477 54.9658 119.274 54.9543 118.071C54.9543 117.928 54.92 117.785 54.8856 117.648C54.7768 117.207 54.542 116.995 54.0952 116.943C53.9234 116.92 53.7516 116.926 53.5797 116.937C53.4137 116.943 53.2418 116.972 53.0528 116.995C53.0528 118.679 53.0528 120.345 53.0528 122.023C52.4285 122.023 51.8329 122.023 51.1971 122.023C51.1971 121.926 51.1971 121.829 51.1971 121.737C51.1971 119.818 51.1971 117.9 51.1914 115.981C51.1914 115.78 51.2315 115.677 51.4491 115.626C52.4973 115.402 53.5511 115.248 54.6279 115.368C55.8765 115.511 56.6153 116.222 56.7757 117.476C56.8272 117.888 56.8387 118.312 56.8387 118.73C56.8558 119.824 56.8501 120.912 56.8501 122.029Z" fill="#221E26"/>
<path d="M36.8267 115.5C37.4281 115.5 38.018 115.5 38.6538 115.5C38.6538 115.62 38.6538 115.729 38.6538 115.838C38.6595 116.96 38.648 118.089 38.6767 119.211C38.7053 120.38 39.1291 120.723 40.2861 120.569C40.372 120.557 40.4579 120.546 40.5724 120.529C40.5724 118.868 40.5724 117.201 40.5724 115.517C41.2082 115.517 41.8096 115.517 42.4568 115.517C42.4568 115.609 42.4568 115.7 42.4568 115.792C42.4568 117.711 42.451 119.624 42.4625 121.542C42.4625 121.749 42.411 121.846 42.199 121.892C41.1681 122.109 40.1372 122.27 39.0776 122.155C37.7775 122.018 37.01 121.279 36.8611 119.979C36.7981 119.406 36.8038 118.816 36.7981 118.238C36.7866 117.35 36.7981 116.462 36.7981 115.574C36.7981 115.563 36.8095 115.546 36.8267 115.5Z" fill="#221E26"/>
<path d="M47.3799 117.035C46.8244 116.961 46.2917 116.875 45.7533 116.823C45.5815 116.806 45.3868 116.852 45.2264 116.915C44.877 117.046 44.8255 117.459 45.1405 117.654C45.4154 117.82 45.7247 117.934 46.0168 118.072C46.3948 118.249 46.7843 118.404 47.1451 118.616C47.8725 119.045 48.0386 119.738 47.9584 120.517C47.8839 121.222 47.4658 121.674 46.8301 121.938C45.8392 122.35 43.9263 122.281 42.9297 121.789C43.0328 121.302 43.1301 120.815 43.2275 120.357C43.8174 120.466 44.3959 120.592 44.9744 120.678C45.2264 120.712 45.4956 120.689 45.7361 120.632C45.8736 120.597 46.0683 120.454 46.0855 120.328C46.1084 120.191 46.0168 119.956 45.8965 119.876C45.633 119.698 45.3238 119.584 45.0259 119.452C44.7396 119.32 44.4417 119.217 44.1611 119.074C43.3936 118.69 43.0557 118.054 43.0901 117.213C43.1244 116.394 43.5483 115.826 44.3043 115.54C45.4269 115.116 46.5494 115.3 47.6835 115.626C47.5804 116.142 47.4773 116.611 47.3799 117.035Z" fill="#221E26"/>
<path d="M68.8047 121.829C68.9135 121.302 69.0166 120.815 69.1082 120.368C69.7039 120.477 70.2652 120.603 70.8379 120.683C71.0899 120.717 71.3591 120.7 71.5997 120.643C71.7486 120.609 71.9433 120.454 71.9662 120.322C71.9949 120.191 71.8861 119.956 71.76 119.881C71.4851 119.704 71.1644 119.595 70.8608 119.446C70.4427 119.24 70.0017 119.068 69.6237 118.805C68.713 118.169 68.5527 116.113 70.2595 115.517C71.3591 115.133 72.4531 115.305 73.5642 115.637C73.4554 116.136 73.3465 116.605 73.2549 117.035C72.6993 116.96 72.1667 116.874 71.6283 116.823C71.4565 116.806 71.2618 116.851 71.1014 116.914C70.752 117.052 70.7062 117.459 71.0212 117.653C71.2961 117.819 71.6054 117.934 71.8975 118.071C72.2755 118.249 72.665 118.409 73.0258 118.616C73.7188 119.022 73.9021 119.681 73.8448 120.437C73.7933 121.118 73.4554 121.617 72.8311 121.874C71.4966 122.43 70.1564 122.27 68.8047 121.829Z" fill="#221E26"/>
<path d="M68.4059 115.678C68.3028 116.141 68.1939 116.611 68.1023 117.035C67.541 116.96 67.0084 116.88 66.47 116.823C66.3153 116.806 66.1321 116.829 65.9946 116.897C65.8571 116.972 65.6968 117.121 65.6796 117.253C65.6624 117.384 65.7712 117.59 65.8915 117.671C66.1435 117.837 66.4356 117.934 66.7105 118.066C67.1229 118.266 67.541 118.444 67.9362 118.667C68.95 119.24 69.0244 121.273 67.7358 121.84C67.3807 121.995 66.9969 122.109 66.6189 122.161C65.6109 122.287 64.62 122.201 63.6406 121.812C63.7437 121.313 63.8411 120.826 63.9385 120.363C64.5284 120.471 65.1011 120.597 65.6796 120.683C65.9373 120.718 66.218 120.695 66.47 120.637C66.6074 120.603 66.7735 120.448 66.8079 120.317C66.8365 120.202 66.7449 119.979 66.6418 119.91C66.3669 119.733 66.0519 119.601 65.7483 119.463C65.4963 119.349 65.2329 119.257 64.9866 119.143C64.1103 118.725 63.738 118.054 63.8239 117.081C63.8926 116.313 64.4253 115.712 65.273 115.454C66.1092 115.202 67.7014 115.311 68.4059 115.678Z" fill="#221E26"/>
<path d="M76.9538 122.201C75.5678 122.207 74.7602 121.451 74.7316 120.008C74.7087 118.702 75.0409 117.471 75.9572 116.474C76.7992 115.558 77.8645 115.231 79.073 115.46C79.892 115.615 80.4418 116.153 80.5621 116.967C80.8141 118.622 80.4246 120.111 79.2104 121.319C78.5976 121.938 77.8244 122.207 76.9538 122.201ZM79.4796 117.894C79.4682 117.7 79.4739 117.556 79.451 117.413C79.3765 116.841 79.0672 116.485 78.5861 116.417C77.9962 116.331 77.4693 116.474 77.0397 116.909C76.1405 117.82 75.8255 118.937 75.9229 120.18C75.9801 120.878 76.3925 121.193 77.097 121.199C77.5724 121.199 77.9676 121.027 78.3055 120.707C79.1302 119.928 79.4052 118.931 79.4796 117.894Z" fill="#221E26"/>
<path d="M85.3513 115.557C85.2711 115.895 85.2024 116.21 85.1222 116.537C84.4006 116.537 83.6961 116.537 82.963 116.537C82.8026 117.184 82.6537 117.82 82.4933 118.455C82.1497 119.841 81.8232 121.233 81.4567 122.613C81.2963 123.232 80.9412 123.759 80.4887 124.211C80.3971 124.303 80.231 124.355 80.0992 124.349C79.8472 124.337 79.5952 124.28 79.3203 124.234C79.3604 124.166 79.3776 124.114 79.412 124.074C80.0649 123.295 80.3913 122.373 80.6147 121.393C81.1187 119.177 81.6628 116.966 82.2069 114.75C82.3444 114.194 82.5563 113.656 82.9458 113.22C83.5987 112.493 84.4521 112.321 85.3685 112.39C85.7522 112.419 86.1302 112.522 86.5655 112.596C86.3823 112.957 86.2391 113.249 86.0959 113.535C85.758 113.484 85.4487 113.404 85.1279 113.386C84.2459 113.341 83.7247 113.707 83.4498 114.543C83.3467 114.864 83.2665 115.202 83.1692 115.557C83.9194 115.557 84.6239 115.557 85.3513 115.557Z" fill="#221E26"/>
<path d="M50.3172 122.03C49.7043 122.03 49.1029 122.03 48.4844 122.03C48.4844 119.859 48.4844 117.7 48.4844 115.518C49.0858 115.518 49.6871 115.518 50.3172 115.518C50.3172 117.671 50.3172 119.83 50.3172 122.03Z" fill="#221E26"/>
<path d="M49.4212 112.51C50.0742 112.516 50.5152 112.962 50.5094 113.609C50.5037 114.262 50.0398 114.698 49.3697 114.692C48.7282 114.686 48.27 114.222 48.2815 113.587C48.2872 112.939 48.7397 112.504 49.4212 112.51Z" fill="#221E26"/>
</svg>
