<svg width="85" height="116" viewBox="0 0 85 116" fill="none" xmlns="http://www.w3.org/2000/svg">
<path d="M9.08751 100.419H11.2153C12.2455 100.419 12.865 100.796 12.865 101.611C12.865 102.13 12.6159 102.473 12.1647 102.635C12.6697 102.783 13.0536 103.146 13.0536 103.8C13.0536 104.87 12.0301 105.133 11.1345 105.133H9.08751V100.419ZM11.8011 103.665C11.8011 103.295 11.552 103.173 11.1749 103.173H10.3265V104.156H11.1749C11.552 104.156 11.8011 104.035 11.8011 103.665ZM11.6193 101.833C11.6193 101.564 11.4308 101.396 11.1008 101.396H10.3332V102.264L11.1008 102.271C11.4308 102.271 11.6193 102.103 11.6193 101.833ZM15.7106 100.419H19.1043V101.497H16.9563V102.217H18.9023V103.288H16.9563V104.055H19.1447V105.133H15.7106V100.419ZM21.7181 101.705C21.7181 100.763 22.5261 100.318 23.4958 100.318C24.0816 100.318 24.6674 100.46 25.0782 100.695V101.84C24.6741 101.537 24.1422 101.389 23.5968 101.396C23.1389 101.402 22.9975 101.524 22.9975 101.699C22.9975 102.311 25.4485 102.123 25.4485 103.793C25.4485 104.911 24.5933 105.234 23.5631 105.234C22.883 105.234 22.2501 105.079 21.7518 104.803V103.625C22.3107 104.008 22.9302 104.156 23.4688 104.156C23.9604 104.156 24.1691 104.076 24.1691 103.84C24.1691 103.16 21.7181 103.389 21.7181 101.705ZM27.6463 100.419H31.5517V101.53H30.2252V105.133H28.9795V101.53H27.6463V100.419ZM37.3367 100.419H39.2154C40.8988 100.419 41.6799 101.402 41.6799 102.776C41.6799 104.15 40.8988 105.133 39.2154 105.133H37.3367V100.419ZM40.4005 102.776C40.4005 101.894 39.9628 101.497 39.2154 101.497H38.5824V104.055H39.2154C39.9628 104.055 40.4005 103.658 40.4005 102.776ZM44.3675 100.419H45.6132V105.133H44.3675V100.419ZM48.2957 102.776C48.2957 101.019 49.5818 100.318 50.8948 100.318C51.3999 100.318 51.9116 100.426 52.356 100.615V101.793C52.0059 101.551 51.5278 101.416 51.0564 101.416C50.2956 101.416 49.5751 101.806 49.5751 102.776C49.5751 103.941 50.4302 104.163 50.9689 104.163C51.1036 104.163 51.2113 104.15 51.2921 104.13V102.54H52.4705V104.917C51.9857 105.119 51.4403 105.234 50.9083 105.234C49.5683 105.234 48.2957 104.486 48.2957 102.776ZM55.2529 100.419H56.4986V105.133H55.2529V100.419ZM59.0532 100.419H62.9586V101.53H61.6321V105.133H60.3864V101.53H59.0532V100.419ZM65.7964 105.133H64.517L66.3687 100.419H67.7154L69.5672 105.133H68.2878L68.0184 104.392H66.0657L65.7964 105.133ZM66.9209 102.022L66.4361 103.382H67.6481L67.1633 102.022C67.1229 101.907 67.0825 101.793 67.0421 101.544C67.0017 101.793 66.9613 101.907 66.9209 102.022ZM72.038 100.419H73.2837V104.022H75.4385V105.133H72.038V100.419ZM24.2517 113.133H22.9724L24.8241 108.419H26.1708L28.0225 113.133H26.7431L26.4738 112.392H24.5211L24.2517 113.133ZM25.3762 110.022L24.8914 111.382H26.1035L25.6186 110.022C25.5782 109.907 25.5378 109.793 25.4974 109.544C25.457 109.793 25.4166 109.907 25.3762 110.022ZM30.0343 110.776C30.0343 109.019 31.3204 108.318 32.6335 108.318C33.1385 108.318 33.6502 108.426 34.0946 108.615V109.793C33.7445 109.551 33.2664 109.416 32.7951 109.416C32.0342 109.416 31.3137 109.806 31.3137 110.776C31.3137 111.941 32.1688 112.163 32.7075 112.163C32.8422 112.163 32.9499 112.15 33.0307 112.13V110.54H34.2091V112.917C33.7243 113.119 33.1789 113.234 32.6469 113.234C31.3069 113.234 30.0343 112.486 30.0343 110.776ZM36.9915 108.419H40.3852V109.497H38.2372V110.217H40.1832V111.288H38.2372V112.055H40.4256V113.133H36.9915V108.419ZM44.4131 113.133H43.1674V108.419H44.3458L46.1908 111.126C46.1706 110.904 46.1638 110.608 46.1638 110.345V108.419H47.4095V113.133H46.2312L44.3862 110.433C44.4064 110.655 44.4131 110.951 44.4131 111.207V113.133ZM50.0876 110.843C50.0876 109.066 51.3669 108.318 52.6396 108.318C53.1177 108.318 53.5957 108.419 54.0065 108.615V109.793C53.7169 109.551 53.286 109.409 52.8551 109.409C52.1076 109.409 51.3669 109.82 51.3669 110.843C51.3669 111.759 52.1076 112.136 52.8416 112.136C53.3264 112.136 53.7708 111.988 54.0402 111.726V112.938C53.6294 113.133 53.1648 113.234 52.6665 113.234C51.3737 113.234 50.0876 112.527 50.0876 110.843ZM59.3749 113.133H58.136V111.524L56.2977 108.419H57.7118L58.7555 110.365L59.7992 108.419H61.2132L59.3749 111.524V113.133Z" fill="#221E26"/>
<g clip-path="url(#clip0_904_126)">
<path d="M4.36328 40.5788C4.36328 39.6179 4.36328 38.6606 4.36328 37.6996C4.40647 37.4045 4.47485 37.113 4.49284 36.8179C4.61881 34.7413 4.92472 32.6935 5.41418 30.678C7.07691 23.8544 10.4132 17.9665 15.4769 13.1042C21.9767 6.86361 29.7613 3.49497 38.7587 2.96952C42.077 2.77517 45.37 3.05949 48.6163 3.80088C55.3644 5.33764 61.2307 8.51554 66.1253 13.403C72.7258 19.9999 76.296 27.9896 76.8287 37.3181C77.0194 40.6436 76.7315 43.9295 75.9901 47.1721C74.403 54.0786 71.1027 60.0529 66.0281 64.9979C59.4492 71.4077 51.5423 74.8483 42.3613 75.3413C39.2806 75.5069 36.2286 75.2586 33.2127 74.6179C25.8708 73.0596 19.5798 69.5758 14.4224 64.1341C8.39413 57.7855 5.09747 50.2061 4.48925 41.4642C4.47125 41.1691 4.40647 40.8739 4.36328 40.5788ZM51.0384 54.3953C55.1592 54.3953 59.2513 54.3953 63.3937 54.3953C57.9916 39.1032 52.6004 23.8472 47.2163 8.60552C42.9155 8.60552 38.6651 8.60552 34.3931 8.60552C28.9371 23.7572 23.4846 38.8909 18.0322 54.0282C17.9962 54.129 17.971 54.2333 17.9386 54.3377C17.935 54.3485 17.9386 54.3629 17.9458 54.3737C17.9494 54.3845 17.9602 54.3881 17.9746 54.4025C21.9911 54.4025 26.0147 54.4025 30.06 54.4025C30.5674 52.7901 31.0677 51.1922 31.5679 49.5907C32.0718 47.9891 32.5721 46.3912 33.0759 44.7896C33.5798 43.1881 34.08 41.5901 34.5839 39.9886C35.0913 38.3762 35.5952 36.7639 36.1027 35.1552C36.6065 33.5536 37.1068 31.9557 37.6106 30.3541C38.1145 28.7526 38.6147 27.1546 39.1186 25.5531C39.6189 23.9695 40.1047 22.3788 40.6842 20.8096C44.1392 32.0061 47.587 43.1989 51.0384 54.3953ZM47.2235 48.367C47.2415 44.7788 44.3155 41.8349 40.7561 41.7737C37.2759 41.7125 34.116 44.4945 34.08 48.3022C34.0476 51.9228 36.9772 54.8884 40.5978 54.9099C44.2471 54.9315 47.2055 52.0128 47.2235 48.367ZM25.2445 56.5547C25.1654 57.2961 25.1978 61.8704 25.2913 62.1547C26.2954 62.1187 27.314 62.2339 28.3217 62.0827C28.6204 62.0395 28.9227 61.9064 29.1782 61.7444C30.0168 61.2225 30.1571 59.675 28.9767 59.2467C28.9335 59.2323 28.8939 59.2071 28.8363 59.1783C28.8867 59.1423 28.9227 59.1064 28.9623 59.0884C29.5021 58.8436 29.7073 58.3974 29.6713 57.8359C29.6353 57.2709 29.3114 56.9002 28.7859 56.731C28.4728 56.6303 28.1309 56.5727 27.8034 56.5619C27.1232 56.5367 26.4394 56.5547 25.7556 56.5547C25.5936 56.5547 25.4281 56.5547 25.2445 56.5547ZM24.7839 58.3542C24.5967 57.5732 24.2008 57.0261 23.5134 56.695C23.1283 56.5115 22.7145 56.4359 22.2934 56.4287C20.8754 56.4071 19.9073 57.1809 19.569 58.4261C19.4502 58.8616 19.4358 59.3043 19.4754 59.747C19.5798 60.9022 20.278 61.802 21.3181 62.1331C21.6888 62.2519 22.0702 62.2663 22.4553 62.2555C24.1936 62.2159 25.0178 60.8159 24.8451 59.1423C24.4528 59.056 22.3906 59.0776 22.153 59.1675C22.153 59.4375 22.153 59.7074 22.153 60.0205C22.6389 60.0205 23.0996 60.0205 23.5746 60.0205C23.5422 60.5064 23.3983 60.8842 23.006 61.129C22.333 61.5501 21.3612 61.3197 21.0085 60.6143C20.5875 59.7722 20.6091 58.894 21.0193 58.0519C21.2641 57.548 21.7319 57.3537 22.2718 57.368C22.8152 57.386 23.2399 57.6164 23.4523 58.1526C23.4774 58.2174 23.5098 58.2822 23.5386 58.3542C23.9489 58.3542 24.3412 58.3542 24.7839 58.3542ZM54.0687 60.51C54.2667 61.0642 54.4646 61.6112 54.6518 62.1295C54.9289 62.1295 55.1484 62.1295 55.422 62.1295C54.7525 60.2436 54.0939 58.401 53.4461 56.5763C53.0898 56.5763 52.7803 56.5763 52.4564 56.5763C51.7906 58.4297 51.1284 60.2724 50.4554 62.1439C50.7397 62.1439 50.9664 62.1439 51.2148 62.1439C51.4019 61.5968 51.5891 61.057 51.7762 60.5136C52.55 60.51 53.3022 60.51 54.0687 60.51ZM35.1453 62.1439C34.4687 60.24 33.8137 58.3974 33.1551 56.5547C32.9068 56.5547 32.7052 56.5547 32.5001 56.5547C32.1798 56.5583 32.1798 56.5583 32.0682 56.8606C31.4708 58.5161 30.8769 60.1716 30.2831 61.8272C30.2471 61.9244 30.2291 62.0251 30.1967 62.1403C30.3155 62.1475 30.3983 62.1583 30.4811 62.1583C30.9813 62.1511 30.9057 62.2195 31.0713 61.7336C31.208 61.3269 31.3484 60.9202 31.4888 60.5172C32.2661 60.5172 33.0183 60.5172 33.7885 60.5172C33.9829 61.0642 34.1736 61.604 34.3679 62.1475C34.6199 62.1439 34.843 62.1439 35.1453 62.1439ZM63.588 61.5249C62.6487 61.5249 61.7346 61.5249 60.7988 61.5249C60.7988 60.8195 60.7988 60.1573 60.7988 59.4591C61.1119 59.4591 61.3963 59.4591 61.6806 59.4591C61.9577 59.4591 62.2312 59.4663 62.5083 59.4591C62.7891 59.4519 63.0734 59.495 63.3397 59.4303C63.3397 59.2215 63.3397 59.0596 63.3397 58.8688C62.476 58.84 61.6338 58.8796 60.8024 58.8472C60.8024 58.2678 60.8024 57.7351 60.8024 57.1593C61.1263 57.1593 61.4251 57.1593 61.7202 57.1593C62.0333 57.1593 62.3428 57.1701 62.6559 57.1557C62.9474 57.1449 63.2461 57.2133 63.5592 57.0981C63.5485 56.9146 63.5413 56.7418 63.5341 56.5799C62.3428 56.5799 61.1983 56.5799 60.0574 56.5799C60.0574 58.4441 60.0574 60.2796 60.0574 62.1367C61.2451 62.1367 62.404 62.1367 63.588 62.1367C63.588 61.9352 63.588 61.7516 63.588 61.5249ZM40.551 62.1367C40.551 61.3089 40.551 60.5244 40.551 59.7038C41.4003 59.7038 42.2209 59.7038 43.0451 59.7038C43.0451 59.4914 43.0451 59.3187 43.0451 59.1028C42.1993 59.1028 41.3788 59.1028 40.5582 59.1028C40.5582 58.4441 40.5582 57.8287 40.5582 57.1737C41.0225 57.1737 41.4507 57.1737 41.879 57.1737C42.3073 57.1737 42.7356 57.1737 43.1746 57.1737C43.1746 56.9434 43.1746 56.7598 43.1746 56.5727C42.0374 56.5727 40.9253 56.5727 39.7988 56.5727C39.7988 58.4369 39.7988 60.2832 39.7988 62.1367C40.0543 62.1367 40.2775 62.1367 40.551 62.1367ZM39.0214 59.1028C38.1613 59.1028 37.3371 59.1028 36.5237 59.1028C36.5237 58.4441 36.5237 57.8287 36.5237 57.1665C37.4127 57.1665 38.2692 57.1665 39.133 57.1665C39.133 56.9398 39.133 56.7562 39.133 56.5763C37.9921 56.5763 36.8836 56.5763 35.7572 56.5763C35.7572 58.4369 35.7572 60.276 35.7572 62.1331C36.0091 62.1331 36.243 62.1331 36.4949 62.1331C36.4949 61.3233 36.4949 60.5387 36.4949 59.7074C37.3479 59.7074 38.1793 59.7074 39.0214 59.7074C39.0214 59.4986 39.0214 59.3367 39.0214 59.1028ZM57.0379 57.1629C57.0379 58.0411 57.0379 58.8544 57.0379 59.6678C57.0379 60.4884 57.0055 61.3089 57.0343 62.1151C57.3186 62.1151 57.549 62.1151 57.8009 62.1151C57.7901 60.4488 57.7217 58.8148 57.8153 57.1737C58.3659 57.1233 58.8806 57.1953 59.3808 57.1269C59.3808 56.9218 59.3808 56.749 59.3808 56.5799C58.8374 56.5151 55.6775 56.5367 55.422 56.6051C55.422 56.7778 55.422 56.9506 55.422 57.1593C55.9618 57.1629 56.4729 57.1629 57.0379 57.1629ZM45.9351 61.5321C45.9351 59.8477 45.9351 58.2246 45.9351 56.5835C45.6723 56.5835 45.442 56.5835 45.2045 56.5835C45.2045 58.4477 45.2045 60.2868 45.2045 62.1367C46.3022 62.1367 47.3746 62.1367 48.4507 62.1367C48.4507 61.928 48.4507 61.748 48.4507 61.5321C47.6122 61.5321 46.8024 61.5321 45.9351 61.5321ZM17.899 62.1367C18.3165 62.1367 18.7016 62.1367 19.1047 62.1367C19.1047 60.7583 19.1047 59.4015 19.1047 58.0303C18.6944 58.0303 18.3057 58.0303 17.899 58.0303C17.899 59.4015 17.899 60.7475 17.899 62.1367ZM44.5459 62.1367C44.5459 60.2508 44.5459 58.4154 44.5459 56.5727C44.2939 56.5727 44.0708 56.5727 43.8333 56.5727C43.8333 58.4369 43.8333 60.2832 43.8333 62.1367C44.0852 62.1367 44.3083 62.1367 44.5459 62.1367ZM49.8256 62.1367C49.8256 60.2688 49.8256 58.4225 49.8256 56.5799C49.5736 56.5799 49.3541 56.5799 49.1274 56.5799C49.1274 58.4441 49.1274 60.2796 49.1274 62.1367C49.3649 62.1367 49.5772 62.1367 49.8256 62.1367ZM19.1083 57.602C19.1083 57.2421 19.1083 56.9146 19.1083 56.5655C18.6944 56.5439 18.2985 56.5331 17.9098 56.5655C17.9098 56.9362 17.9098 57.2601 17.9098 57.602C18.3129 57.602 18.6908 57.602 19.1083 57.602Z" fill="#221E26"/>
<path d="M83.9356 7.12304C83.914 7.17703 83.8816 7.23101 83.8744 7.285C83.5613 10.0022 81.553 12.23 78.897 12.8094C75.2548 13.6012 71.7422 11.2799 71.0872 7.60891C70.4466 4.02073 72.8687 0.695272 76.3993 0.0834458C76.5361 0.0582529 76.6728 0.0258621 76.8132 -0.00292969C77.2451 -0.00292969 77.677 -0.00292969 78.1088 -0.00292969C78.4435 0.0690499 78.7818 0.126633 79.1165 0.213009C81.6826 0.87882 83.5685 3.03821 83.878 5.66546C83.8852 5.71944 83.9176 5.77343 83.9392 5.82741C83.9356 6.25929 83.9356 6.69117 83.9356 7.12304ZM79.2785 9.84027C79.4297 9.99503 79.5628 10.1174 79.6816 10.2506C79.7824 10.3657 79.8939 10.4233 80.0559 10.4197C80.5957 10.4125 81.1356 10.4161 81.6718 10.4161C81.7258 10.4161 81.7798 10.3981 81.8985 10.3801C81.6142 10.085 81.3695 9.82588 81.1248 9.57035C80.8692 9.30402 80.6173 9.0377 80.3726 8.78217C80.9808 7.79605 81.3155 6.5868 81.1608 5.97137C80.6749 5.97137 80.1854 5.97137 79.678 5.97137C79.6204 6.54001 79.5664 7.09785 79.2605 7.6233C78.8826 7.22382 78.5263 6.85312 78.1736 6.47883C78.134 6.43564 78.1016 6.38885 78.0512 6.32407C78.2276 6.17651 78.3932 6.04335 78.5587 5.90659C78.861 5.66186 79.095 5.35955 79.2497 5.00325C79.6888 4.00633 79.3181 3.02021 78.3176 2.58833C77.5042 2.23923 76.68 2.26083 75.8847 2.65312C75.2476 2.96623 74.8662 3.48088 74.8194 4.20427C74.787 4.74052 74.9669 5.21559 75.2944 5.64027C75.3736 5.74104 75.4492 5.84181 75.5284 5.94258C75.2584 6.16212 74.9993 6.35286 74.7618 6.5688C74.4163 6.88191 74.1715 7.25621 74.0816 7.72407C73.862 8.85775 74.3659 9.83307 75.424 10.3045C76.205 10.6536 77.0219 10.6824 77.8533 10.5349C78.3752 10.4377 78.8322 10.1822 79.2785 9.84027Z" fill="#221E26"/>
<path d="M56.2371 90.1546C56.0536 90.1078 55.87 90.0538 55.6829 90.0214C53.5847 89.6507 52.1955 88.3443 51.7384 86.2533C51.4469 84.9289 51.4721 83.6045 51.9255 82.316C52.5841 80.4482 53.9194 79.3757 55.8664 79.0733C56.9389 78.9042 58.0006 78.9762 59.0119 79.39C60.6135 80.0415 61.56 81.2651 61.9523 82.917C62.2834 84.3134 62.2438 85.7063 61.704 87.0487C61.0453 88.6934 59.8073 89.6507 58.0834 90.007C57.8746 90.0502 57.6659 90.1042 57.4572 90.1546C57.0541 90.1546 56.6474 90.1546 56.2371 90.1546ZM58.8788 84.4322C58.8644 84.2631 58.8608 83.9967 58.8248 83.7376C58.7492 83.2122 58.6088 82.7083 58.2813 82.2728C57.6119 81.3875 56.2875 81.3335 55.5497 82.1613C55.2978 82.442 55.1358 82.7767 55.0315 83.1366C54.8083 83.9212 54.7831 84.7201 54.9163 85.5191C54.9739 85.8682 55.0818 86.2209 55.2402 86.5376C55.6217 87.3078 56.4243 87.6533 57.2628 87.4554C57.961 87.2934 58.3641 86.8183 58.6088 86.1813C58.8176 85.6523 58.8644 85.0908 58.8788 84.4322Z" fill="#B8916D"/>
<path d="M21.9184 90.1548C21.7457 90.1116 21.5765 90.0576 21.4002 90.0253C19.2588 89.6402 17.902 88.3625 17.4341 86.2391C17.1174 84.8031 17.175 83.3744 17.74 82.0031C18.4238 80.3512 19.6906 79.4047 21.4325 79.088C22.3143 78.9296 23.2032 78.9476 24.0706 79.1779C25.8053 79.6422 26.957 80.7471 27.5112 82.4422C27.9755 83.8602 27.9827 85.3034 27.5148 86.7214C26.9102 88.5569 25.6218 89.6402 23.7287 90.0109C23.5307 90.0505 23.3364 90.1044 23.1385 90.1512C22.7318 90.1548 22.3251 90.1548 21.9184 90.1548ZM20.5364 84.5836C20.5328 85.3898 20.6552 86.0196 20.9035 86.5019C21.321 87.308 22.1379 87.6679 23.0161 87.4376C23.6675 87.2648 24.0634 86.8222 24.2793 86.2175C24.668 85.1343 24.668 84.0366 24.3189 82.9425C24.2577 82.7517 24.1606 82.5646 24.0526 82.3954C23.3544 81.3121 21.8176 81.2869 21.0906 82.3558C20.9431 82.5682 20.8387 82.8165 20.7487 83.0612C20.5796 83.5543 20.5328 84.069 20.5364 84.5836Z" fill="#B8916D"/>
<path d="M51.0389 54.3962C47.5911 43.1998 44.1396 32.007 40.6918 20.8106C40.1124 22.3797 39.6265 23.9705 39.1263 25.554C38.6188 27.152 38.1186 28.7535 37.6183 30.3551C37.1144 31.9566 36.6142 33.5545 36.1103 35.1561C35.6029 36.7684 35.099 38.3808 34.5916 39.9895C34.0877 41.5911 33.5874 43.189 33.0836 44.7906C32.5797 46.3921 32.0795 47.99 31.5756 49.5916C31.0754 51.1895 30.5715 52.7911 30.0676 54.4034C26.0224 54.4034 21.9987 54.4034 17.9823 54.4034C17.9679 54.389 17.9571 54.3818 17.9535 54.3746C17.9499 54.3638 17.9427 54.3494 17.9463 54.3386C17.9751 54.2343 18.0003 54.1299 18.0399 54.0291C23.4923 38.8918 28.9448 23.7545 34.4008 8.60645C38.6728 8.60645 42.9232 8.60645 47.224 8.60645C52.608 23.8481 57.9993 39.1042 63.4014 54.3962C59.2518 54.3962 55.1597 54.3962 51.0389 54.3962Z" fill="white"/>
<path d="M47.2219 48.3673C47.2039 52.0095 44.2455 54.9283 40.5961 54.9067C36.9756 54.8851 34.046 51.9195 34.0784 48.299C34.1144 44.4912 37.2743 41.7128 40.7545 41.7704C44.3139 41.8352 47.2398 44.7792 47.2219 48.3673Z" fill="white"/>
<path d="M25.2437 56.5551C25.4273 56.5551 25.5928 56.5551 25.7584 56.5551C26.4422 56.5551 27.126 56.5371 27.8062 56.5623C28.1373 56.573 28.4756 56.6306 28.7887 56.7314C29.3106 56.897 29.6381 57.2713 29.6741 57.8363C29.7101 58.4013 29.5049 58.844 28.9651 59.0887C28.9219 59.1067 28.8895 59.1427 28.8391 59.1787C28.8967 59.2075 28.9363 59.2291 28.9795 59.2471C30.1563 59.6754 30.016 61.2229 29.181 61.7448C28.9219 61.9067 28.6196 62.0399 28.3245 62.0831C27.3131 62.2342 26.2982 62.1227 25.2941 62.1551C25.1969 61.8707 25.1646 57.2928 25.2437 56.5551ZM26.4134 59.6538C26.4026 60.1864 26.3954 60.7011 26.417 61.2409C26.928 61.2409 27.3923 61.2553 27.8566 61.2373C28.2993 61.2193 28.5404 60.9422 28.544 60.4887C28.5512 59.9885 28.3065 59.679 27.853 59.661C27.3887 59.6394 26.9244 59.6538 26.4134 59.6538ZM26.4278 58.8404C26.9101 58.8404 27.3527 58.844 27.7954 58.8368C27.889 58.8368 27.9861 58.8044 28.0725 58.7684C28.3352 58.6533 28.4396 58.4121 28.4 58.0414C28.364 57.7391 28.1913 57.516 27.9178 57.5016C27.4319 57.48 26.9424 57.4944 26.4314 57.4944C26.4278 57.9479 26.4278 58.3725 26.4278 58.8404Z" fill="white"/>
<path d="M24.782 58.3554C24.3393 58.3554 23.947 58.3554 23.544 58.3554C23.5116 58.2835 23.4828 58.2187 23.4576 58.1539C23.2452 57.6213 22.8206 57.3873 22.2771 57.3693C21.7337 57.3513 21.2694 57.5457 21.0247 58.0531C20.6144 58.8989 20.5928 59.7734 21.0139 60.6156C21.3666 61.321 22.3383 61.5513 23.0113 61.1303C23.4036 60.8855 23.5476 60.5076 23.5799 60.0218C23.1013 60.0218 22.6442 60.0218 22.1583 60.0218C22.1583 59.7087 22.1583 59.4423 22.1583 59.1688C22.3959 59.0752 24.4617 59.0537 24.8504 59.1436C25.0231 60.8171 24.199 62.2172 22.4607 62.2567C22.0756 62.2639 21.6941 62.2531 21.3234 62.1344C20.2869 61.8033 19.5851 60.9035 19.4807 59.7483C19.4411 59.3056 19.4555 58.8593 19.5743 58.4274C19.9126 57.1822 20.8807 56.412 22.2987 56.43C22.7198 56.4372 23.1337 56.5128 23.5188 56.6963C24.199 57.0238 24.5949 57.5745 24.782 58.3554Z" fill="white"/>
<path d="M54.0665 60.5105C53.2999 60.5105 52.5477 60.5105 51.774 60.5105C51.5868 61.0576 51.3997 61.5974 51.2125 62.1409C50.9642 62.1409 50.7374 62.1409 50.4531 62.1409C51.1261 60.2694 51.7883 58.4267 52.4542 56.5732C52.7781 56.5732 53.0876 56.5732 53.4439 56.5732C54.0917 58.3979 54.7503 60.2406 55.4197 62.1265C55.1462 62.1265 54.9267 62.1265 54.6495 62.1265C54.4624 61.6118 54.268 61.0648 54.0665 60.5105ZM53.7786 59.8195C53.7426 59.42 53.0408 57.4118 52.886 57.2534C52.4722 58.29 52.0691 59.5712 52.0763 59.8195C52.6449 59.8195 53.2099 59.8195 53.7786 59.8195Z" fill="white"/>
<path d="M35.1439 62.1446C34.8416 62.1446 34.6185 62.1446 34.3665 62.1446C34.1722 61.6011 33.9814 61.0613 33.7871 60.5142C33.0169 60.5142 32.2647 60.5142 31.4873 60.5142C31.347 60.9209 31.2066 61.3276 31.0699 61.7307C30.9043 62.2201 30.9799 62.1518 30.4796 62.1554C30.3969 62.1554 30.3141 62.1446 30.1953 62.1374C30.2277 62.0222 30.2457 61.9214 30.2817 61.8243C30.8755 60.1687 31.4729 58.5132 32.0668 56.8577C32.1747 56.5554 32.1783 56.5554 32.4987 56.5518C32.7002 56.5518 32.9053 56.5518 33.1537 56.5518C33.8123 58.398 34.4673 60.2407 35.1439 62.1446ZM31.7249 59.8196C32.3691 59.8196 32.9377 59.8196 33.5532 59.8196C33.258 58.9307 32.9737 58.0849 32.6714 57.2392C32.6462 57.2428 32.6174 57.2428 32.5922 57.2464C32.3079 58.0921 32.0236 58.9343 31.7249 59.8196Z" fill="white"/>
<path d="M63.5853 61.5257C63.5853 61.7525 63.5853 61.936 63.5853 62.134C62.4012 62.134 61.2423 62.134 60.0547 62.134C60.0547 60.2805 60.0547 58.4414 60.0547 56.5771C61.1956 56.5771 62.34 56.5771 63.5313 56.5771C63.5385 56.7391 63.5493 56.9083 63.5565 57.0954C63.2434 57.2106 62.9447 57.1422 62.6531 57.153C62.3436 57.1638 62.0305 57.1566 61.7174 57.1566C61.4223 57.1566 61.1236 57.1566 60.7997 57.1566C60.7997 57.7324 60.7997 58.2651 60.7997 58.8445C61.631 58.8769 62.4768 58.8373 63.337 58.8661C63.337 59.0568 63.337 59.2188 63.337 59.4275C63.0706 59.4923 62.7863 59.4491 62.5056 59.4563C62.2285 59.4635 61.9549 59.4563 61.6778 59.4563C61.3935 59.4563 61.1056 59.4563 60.7961 59.4563C60.7961 60.1545 60.7961 60.8167 60.7961 61.5221C61.7318 61.5257 62.6459 61.5257 63.5853 61.5257Z" fill="white"/>
<path d="M40.553 62.1373C40.2794 62.1373 40.0563 62.1373 39.8008 62.1373C39.8008 60.2838 39.8008 58.4375 39.8008 56.5732C40.9273 56.5732 42.0357 56.5732 43.1766 56.5732C43.1766 56.764 43.1766 56.9439 43.1766 57.1743C42.7375 57.1743 42.3093 57.1743 41.881 57.1743C41.4527 57.1743 41.0244 57.1743 40.5602 57.1743C40.5602 57.8293 40.5602 58.4447 40.5602 59.1033C41.3807 59.1033 42.2013 59.1033 43.0471 59.1033C43.0471 59.3193 43.0471 59.492 43.0471 59.7044C42.2229 59.7044 41.4023 59.7044 40.553 59.7044C40.553 60.5285 40.553 61.3095 40.553 62.1373Z" fill="white"/>
<path d="M39.0221 59.1036C39.0221 59.334 39.0221 59.4959 39.0221 59.7083C38.1799 59.7083 37.3486 59.7083 36.4956 59.7083C36.4956 60.5396 36.4956 61.3242 36.4956 62.134C36.2401 62.134 36.0097 62.134 35.7578 62.134C35.7578 60.2769 35.7578 58.4378 35.7578 56.5771C36.8843 56.5771 37.9928 56.5771 39.1337 56.5771C39.1337 56.7571 39.1337 56.9406 39.1337 57.1674C38.2699 57.1674 37.4133 57.1674 36.5244 57.1674C36.5244 57.8296 36.5244 58.445 36.5244 59.1036C37.3414 59.1036 38.1619 59.1036 39.0221 59.1036Z" fill="white"/>
<path d="M57.0378 57.1632C56.4728 57.1632 55.9617 57.1632 55.4219 57.1632C55.4219 56.9545 55.4219 56.7817 55.4219 56.609C55.6774 56.5406 58.8373 56.519 59.3807 56.5838C59.3807 56.7529 59.3807 56.9221 59.3807 57.1308C58.8805 57.1956 58.3658 57.1236 57.8152 57.1776C57.7216 58.8187 57.79 60.4527 57.8008 62.119C57.5489 62.119 57.3185 62.119 57.0342 62.119C57.0054 61.3092 57.0378 60.4887 57.0378 59.6717C57.0378 58.8547 57.0378 58.0414 57.0378 57.1632Z" fill="white"/>
<path d="M45.9337 61.5326C46.8011 61.5326 47.6108 61.5326 48.4494 61.5326C48.4494 61.7485 48.4494 61.9285 48.4494 62.1372C47.3697 62.1372 46.3008 62.1372 45.2031 62.1372C45.2031 60.2837 45.2031 58.4483 45.2031 56.584C45.4443 56.584 45.6746 56.584 45.9337 56.584C45.9337 58.2215 45.9337 59.8483 45.9337 61.5326Z" fill="white"/>
<path d="M17.8984 62.1377C17.8984 60.7485 17.8984 59.4025 17.8984 58.0312C18.3051 58.0312 18.6938 58.0312 19.1041 58.0312C19.1041 59.4025 19.1041 60.7593 19.1041 62.1377C18.7046 62.1377 18.3159 62.1377 17.8984 62.1377Z" fill="white"/>
<path d="M44.5446 62.1373C44.3071 62.1373 44.084 62.1373 43.832 62.1373C43.832 60.2838 43.832 58.4411 43.832 56.5732C44.0696 56.5732 44.2927 56.5732 44.5446 56.5732C44.5446 58.4159 44.5446 60.2514 44.5446 62.1373Z" fill="white"/>
<path d="M49.8271 62.1379C49.5752 62.1379 49.3628 62.1379 49.1289 62.1379C49.1289 60.2808 49.1289 58.4453 49.1289 56.5811C49.352 56.5811 49.5716 56.5811 49.8271 56.5811C49.8271 58.4237 49.8271 60.27 49.8271 62.1379Z" fill="white"/>
<path d="M19.1125 57.6031C18.695 57.6031 18.3171 57.6031 17.9141 57.6031C17.9141 57.2612 17.9141 56.9337 17.9141 56.5666C18.3028 56.5342 18.695 56.5414 19.1125 56.5666C19.1125 56.9157 19.1125 57.2432 19.1125 57.6031Z" fill="white"/>
<path d="M36.1106 85.455C36.1106 83.4108 36.1106 81.3702 36.1106 79.2756C37.0247 79.2648 37.9029 79.272 38.7774 79.272C38.8566 79.5527 38.8746 89.3635 38.8026 89.835C37.435 89.835 36.0602 89.835 34.6638 89.835C34.2427 88.7733 33.818 87.708 33.3934 86.6391C32.9759 85.5846 32.5584 84.5301 32.1013 83.4792C32.033 83.9974 32.0545 84.5121 32.0509 85.0267C32.0474 85.5666 32.0509 86.1064 32.0509 86.6463C32.0509 87.1753 32.0509 87.7008 32.0509 88.2298C32.0509 88.7553 32.0509 89.2807 32.0509 89.8602C31.144 89.8638 30.2623 89.8638 29.3913 89.8602C29.3121 89.5866 29.2869 79.855 29.3589 79.3295C29.6216 79.2648 33.1126 79.2432 33.5733 79.3116C34.3867 81.3522 35.2073 83.4108 36.0278 85.4658C36.053 85.4586 36.0818 85.4586 36.1106 85.455Z" fill="#B8916D"/>
<path d="M66.3569 89.8384C65.4355 89.8384 64.5682 89.8384 63.6972 89.8384C63.6109 89.5901 63.5785 79.8729 63.6612 79.3258C63.9204 79.2574 67.415 79.2394 67.8793 79.3078C68.6962 81.3556 69.5204 83.4178 70.3409 85.4837C70.3697 85.4801 70.3949 85.4729 70.4237 85.4693C70.4237 83.4178 70.4237 81.37 70.4237 79.297C71.3487 79.297 72.2268 79.297 73.1302 79.297C73.1302 82.8132 73.1302 86.3186 73.1302 89.842C71.7481 89.842 70.3841 89.842 68.9733 89.842C68.1348 87.733 67.289 85.606 66.4433 83.4754C66.4145 83.479 66.3857 83.4862 66.3569 83.4898C66.3569 85.5988 66.3569 87.7114 66.3569 89.8384Z" fill="#B8916D"/>
<path d="M40.5547 89.8452C40.5547 86.3182 40.5547 82.8236 40.5547 79.3002C40.6699 79.2894 40.7706 79.275 40.875 79.275C42.3146 79.275 43.7506 79.2714 45.1902 79.275C45.8308 79.275 46.4534 79.365 47.0616 79.5702C48.4724 80.0452 49.4478 80.9738 49.9228 82.3846C50.4519 83.9537 50.4123 85.5265 49.7537 87.0524C49.1059 88.5532 47.947 89.4386 46.3418 89.7157C45.8488 89.802 45.3413 89.8452 44.8411 89.8524C43.4987 89.8704 42.1562 89.8596 40.8138 89.8596C40.7418 89.856 40.6699 89.8488 40.5547 89.8452ZM43.6642 87.1892C44.0889 87.1892 44.474 87.2252 44.8519 87.182C46.0467 87.0452 46.7269 86.419 46.9321 85.2889C47.04 84.6951 47.0256 84.0941 46.8673 83.5074C46.7089 82.9136 46.3814 82.4421 45.8164 82.165C45.1362 81.8339 44.4092 81.8555 43.6642 81.8951C43.6642 83.6694 43.6642 85.4113 43.6642 87.1892Z" fill="#B8916D"/>
<path d="M16.3526 87.229C16.3526 88.1252 16.3526 88.9709 16.3526 89.8383C13.7758 89.8383 11.2169 89.8383 8.63281 89.8383C8.63281 86.3293 8.63281 82.8275 8.63281 79.2969C9.65132 79.2969 10.659 79.2969 11.7135 79.2969C11.7135 81.9277 11.7135 84.5442 11.7135 87.2074C12.2678 87.2074 12.7788 87.2074 13.2899 87.2074C13.8045 87.2074 14.3192 87.2038 14.8338 87.2074C15.3413 87.2146 15.8524 87.1858 16.3526 87.229Z" fill="#B8916D"/>
<path d="M79.2781 9.83971C78.8319 10.1816 78.3748 10.4371 77.8457 10.5307C77.0144 10.6783 76.1974 10.6495 75.4164 10.3004C74.3583 9.82892 73.8545 8.85359 74.074 7.71991C74.164 7.25205 74.4087 6.87775 74.7542 6.56464C74.9918 6.3487 75.2545 6.15796 75.5208 5.93842C75.4416 5.83765 75.366 5.73688 75.2869 5.63611C74.9594 5.21143 74.7794 4.73636 74.8118 4.20012C74.8586 3.48032 75.2401 2.96207 75.8771 2.64896C76.6725 2.26027 77.4966 2.23508 78.31 2.58418C79.3105 3.01605 79.6812 4.00217 79.2421 4.99909C79.0838 5.35539 78.8535 5.6577 78.5511 5.90243C78.3856 6.03559 78.2236 6.17236 78.0437 6.31991C78.0941 6.3847 78.1265 6.43148 78.166 6.47467C78.5187 6.84896 78.8714 7.21966 79.2529 7.61914C79.5588 7.09009 79.6128 6.53585 79.6704 5.96721C80.1779 5.96721 80.6673 5.96721 81.1532 5.96721C81.308 6.57904 80.9733 7.7883 80.365 8.77801C80.6098 9.03354 80.8653 9.29986 81.1172 9.56619C81.3619 9.82172 81.6067 10.0772 81.891 10.376C81.7758 10.3976 81.7182 10.4119 81.6643 10.4119C81.1244 10.4155 80.5846 10.4083 80.0483 10.4155C79.8864 10.4191 79.7784 10.3616 79.674 10.2464C79.5625 10.1168 79.4293 9.99447 79.2781 9.83971ZM78.3172 8.85359C77.7018 8.21657 77.1152 7.61195 76.4961 6.97133C76.2658 7.20886 76.0463 7.39241 75.8771 7.61914C75.6072 7.98624 75.6432 8.42531 75.9347 8.77801C76.1146 8.99755 76.3522 9.13791 76.6221 9.20629C77.2159 9.35385 77.7594 9.24228 78.3172 8.85359ZM76.9964 5.44536C77.3167 5.23662 77.5722 5.04588 77.745 4.76516C78.0113 4.33688 77.8313 3.85461 77.3599 3.70346C77.0648 3.60629 76.7121 3.71066 76.5177 3.94819C76.3306 4.17492 76.291 4.51683 76.4637 4.78315C76.6149 5.00629 76.8056 5.20783 76.9964 5.44536Z" fill="white"/>
<path d="M26.4127 59.6539C26.9238 59.6539 27.3881 59.6395 27.8523 59.6575C28.3058 59.6755 28.5505 59.985 28.5433 60.4853C28.5397 60.9387 28.2986 61.2158 27.8559 61.2338C27.3916 61.2518 26.9274 61.2374 26.4163 61.2374C26.3947 60.7012 26.4019 60.1865 26.4127 59.6539Z" fill="#221E26"/>
<path d="M26.4297 58.8405C26.4297 58.3727 26.4297 57.948 26.4297 57.4945C26.9407 57.4945 27.4266 57.4765 27.9161 57.5017C28.1932 57.5161 28.3659 57.7392 28.3983 58.0416C28.4415 58.4122 28.3371 58.6534 28.0708 58.7685C27.9844 58.8045 27.8873 58.8369 27.7937 58.8369C27.351 58.8441 26.912 58.8405 26.4297 58.8405Z" fill="#221E26"/>
<path d="M53.7807 59.819C53.212 59.819 52.647 59.819 52.0783 59.819C52.0675 59.5743 52.4706 58.293 52.8881 57.2529C53.0429 57.4149 53.7483 59.4231 53.7807 59.819Z" fill="#221E26"/>
<path d="M31.7266 59.8187C32.0253 58.9334 32.3096 58.0912 32.5939 57.2455C32.6191 57.2419 32.6479 57.2419 32.6731 57.2383C32.9754 58.0804 33.2597 58.9298 33.5548 59.8187C32.9394 59.8187 32.3708 59.8187 31.7266 59.8187Z" fill="#221E26"/>
<path d="M78.3165 8.85364C77.7586 9.24233 77.2152 9.35389 76.625 9.20274C76.3514 9.13436 76.1175 8.994 75.9376 8.77446C75.646 8.42176 75.6064 7.98268 75.88 7.61559C76.0455 7.38885 76.2687 7.20531 76.499 6.96777C77.1144 7.61559 77.7011 8.21662 78.3165 8.85364Z" fill="#221E26"/>
<path d="M76.9987 5.44603C76.8043 5.2085 76.6172 5.01056 76.4696 4.78382C76.2969 4.5175 76.3364 4.17919 76.5236 3.94886C76.7179 3.71133 77.0706 3.60696 77.3658 3.70413C77.8372 3.85889 78.0172 4.33755 77.7508 4.76583C77.5781 5.04295 77.319 5.23369 76.9987 5.44603Z" fill="#221E26"/>
</g>
<defs>
<clipPath id="clip0_904_126">
<rect width="79.5734" height="90.1544" fill="white" transform="translate(4.36719)"/>
</clipPath>
</defs>
</svg>
