<svg width="127" height="133" viewBox="0 0 127 133" fill="none" xmlns="http://www.w3.org/2000/svg">
<g clip-path="url(#clip0_904_134)">
<path d="M27.9922 40.5778C27.9922 39.6169 27.9922 38.6596 27.9922 37.6987C28.0354 37.4035 28.1038 37.112 28.1218 36.8169C28.2477 34.7403 28.5536 32.6925 29.0431 30.6771C30.7058 23.8534 34.0421 17.9655 39.1058 13.1033C45.6056 6.86263 53.3902 3.49399 62.3876 2.96854C65.7059 2.7742 68.9989 3.05852 72.2452 3.79991C78.9933 5.33667 84.8596 8.51456 89.7542 13.402C96.3547 19.9989 99.9249 27.9886 100.458 37.3172C100.648 40.6426 100.36 43.9285 99.619 47.1712C98.0319 54.0776 94.7316 60.0519 89.6571 64.9969C83.0781 71.4067 75.1712 74.8473 65.9902 75.3404C62.9095 75.5059 59.8575 75.2576 56.8416 74.617C49.4997 73.0586 43.2087 69.5748 38.0513 64.1331C32.023 57.7846 28.7264 50.2051 28.1182 41.4632C28.1002 41.1681 28.0354 40.873 27.9922 40.5778ZM74.6673 54.3943C78.7881 54.3943 82.8802 54.3943 87.0226 54.3943C81.6205 39.1023 76.2293 23.8462 70.8452 8.60454C66.5444 8.60454 62.294 8.60454 58.022 8.60454C52.566 23.7562 47.1136 38.8899 41.6611 54.0272C41.6251 54.128 41.5999 54.2324 41.5675 54.3367C41.5639 54.3475 41.5675 54.3619 41.5747 54.3727C41.5783 54.3835 41.5891 54.3871 41.6035 54.4015C45.62 54.4015 49.6436 54.4015 53.6889 54.4015C54.1963 52.7892 54.6966 51.1912 55.1969 49.5897C55.7007 47.9881 56.201 46.3902 56.7048 44.7887C57.2087 43.1871 57.7089 41.5892 58.2128 39.9876C58.7202 38.3753 59.2241 36.7629 59.7316 35.1542C60.2354 33.5526 60.7357 31.9547 61.2395 30.3532C61.7434 28.7516 62.2436 27.1537 62.7475 25.5521C63.2478 23.9686 63.7336 22.3778 64.3131 20.8087C67.7681 32.0051 71.2159 43.1979 74.6673 54.3943ZM70.8524 48.366C70.8704 44.7779 67.9444 41.8339 64.385 41.7727C60.9048 41.7115 57.7449 44.4935 57.7089 48.3013C57.6765 51.9218 60.6061 54.8874 64.2267 54.909C67.876 54.9306 70.8344 52.0118 70.8524 48.366ZM48.8734 56.5537C48.7943 57.2951 48.8267 61.8694 48.9202 62.1537C49.9244 62.1177 50.9429 62.2329 51.9506 62.0817C52.2493 62.0385 52.5516 61.9054 52.8071 61.7434C53.6457 61.2216 53.7861 59.674 52.6056 59.2457C52.5624 59.2313 52.5228 59.2062 52.4652 59.1774C52.5156 59.1414 52.5516 59.1054 52.5912 59.0874C53.131 58.8427 53.3362 58.3964 53.3002 57.8349C53.2642 57.2699 52.9403 56.8992 52.4148 56.7301C52.1017 56.6293 51.7598 56.5717 51.4323 56.5609C50.7521 56.5357 50.0683 56.5537 49.3845 56.5537C49.2226 56.5537 49.057 56.5537 48.8734 56.5537ZM48.4128 58.3532C48.2256 57.5722 47.8297 57.0252 47.1423 56.6941C46.7572 56.5105 46.3434 56.4349 45.9223 56.4277C44.5043 56.4061 43.5362 57.1799 43.1979 58.4252C43.0791 58.8606 43.0647 59.3033 43.1043 59.746C43.2087 60.9013 43.9069 61.801 44.947 62.1321C45.3177 62.2509 45.6992 62.2653 46.0842 62.2545C47.8225 62.2149 48.6467 60.8149 48.474 59.1414C48.0817 59.055 46.0195 59.0766 45.7819 59.1666C45.7819 59.4365 45.7819 59.7064 45.7819 60.0195C46.2678 60.0195 46.7285 60.0195 47.2035 60.0195C47.1711 60.5054 47.0272 60.8833 46.6349 61.128C45.9619 61.5491 44.9902 61.3187 44.6375 60.6133C44.2164 59.7712 44.238 58.893 44.6483 58.0509C44.893 57.547 45.3608 57.3527 45.9007 57.3671C46.4441 57.3851 46.8688 57.6154 47.0812 58.1516C47.1064 58.2164 47.1387 58.2812 47.1675 58.3532C47.5778 58.3532 47.9701 58.3532 48.4128 58.3532ZM77.6977 60.509C77.8956 61.0632 78.0935 61.6103 78.2807 62.1285C78.5578 62.1285 78.7773 62.1285 79.0509 62.1285C78.3815 60.2427 77.7228 58.4 77.075 56.5753C76.7187 56.5753 76.4092 56.5753 76.0853 56.5753C75.4195 58.4288 74.7573 60.2714 74.0843 62.1429C74.3686 62.1429 74.5953 62.1429 74.8437 62.1429C75.0308 61.5959 75.218 61.056 75.4051 60.5126C76.1789 60.509 76.9311 60.509 77.6977 60.509ZM58.7742 62.1429C58.0976 60.2391 57.4426 58.3964 56.784 56.5537C56.5357 56.5537 56.3341 56.5537 56.129 56.5537C55.8087 56.5573 55.8087 56.5573 55.6971 56.8596C55.0997 58.5151 54.5058 60.1707 53.912 61.8262C53.876 61.9234 53.858 62.0241 53.8256 62.1393C53.9444 62.1465 54.0272 62.1573 54.11 62.1573C54.6102 62.1501 54.5346 62.2185 54.7002 61.7326C54.837 61.3259 54.9773 60.9193 55.1177 60.5162C55.8951 60.5162 56.6472 60.5162 57.4174 60.5162C57.6118 61.0632 57.8025 61.6031 57.9969 62.1465C58.2488 62.1429 58.4719 62.1429 58.7742 62.1429ZM87.2169 61.5239C86.2776 61.5239 85.3635 61.5239 84.4277 61.5239C84.4277 60.8185 84.4277 60.1563 84.4277 59.4581C84.7408 59.4581 85.0252 59.4581 85.3095 59.4581C85.5866 59.4581 85.8601 59.4653 86.1373 59.4581C86.418 59.4509 86.7023 59.4941 86.9686 59.4293C86.9686 59.2205 86.9686 59.0586 86.9686 58.8678C86.1049 58.8391 85.2627 58.8786 84.4313 58.8462C84.4313 58.2668 84.4313 57.7342 84.4313 57.1583C84.7552 57.1583 85.054 57.1583 85.3491 57.1583C85.6622 57.1583 85.9717 57.1691 86.2848 57.1547C86.5763 57.1439 86.875 57.2123 87.1882 57.0971C87.1774 56.9136 87.1702 56.7408 87.163 56.5789C85.9717 56.5789 84.8272 56.5789 83.6863 56.5789C83.6863 58.4432 83.6863 60.2786 83.6863 62.1357C84.874 62.1357 86.0329 62.1357 87.2169 62.1357C87.2169 61.9342 87.2169 61.7506 87.2169 61.5239ZM64.1799 62.1357C64.1799 61.3079 64.1799 60.5234 64.1799 59.7028C65.0293 59.7028 65.8498 59.7028 66.674 59.7028C66.674 59.4905 66.674 59.3177 66.674 59.1018C65.8282 59.1018 65.0077 59.1018 64.1871 59.1018C64.1871 58.4432 64.1871 57.8277 64.1871 57.1727C64.6514 57.1727 65.0796 57.1727 65.5079 57.1727C65.9362 57.1727 66.3645 57.1727 66.8036 57.1727C66.8036 56.9424 66.8036 56.7588 66.8036 56.5717C65.6663 56.5717 64.5542 56.5717 63.4277 56.5717C63.4277 58.436 63.4277 60.2822 63.4277 62.1357C63.6832 62.1357 63.9064 62.1357 64.1799 62.1357ZM62.6503 59.1018C61.7902 59.1018 60.966 59.1018 60.1526 59.1018C60.1526 58.4432 60.1526 57.8277 60.1526 57.1655C61.0416 57.1655 61.8981 57.1655 62.7619 57.1655C62.7619 56.9388 62.7619 56.7552 62.7619 56.5753C61.621 56.5753 60.5125 56.5753 59.3861 56.5753C59.3861 58.436 59.3861 60.275 59.3861 62.1321C59.638 62.1321 59.8719 62.1321 60.1238 62.1321C60.1238 61.3223 60.1238 60.5378 60.1238 59.7064C60.9768 59.7064 61.8082 59.7064 62.6503 59.7064C62.6503 59.4977 62.6503 59.3357 62.6503 59.1018ZM80.6668 57.1619C80.6668 58.0401 80.6668 58.8535 80.6668 59.6668C80.6668 60.4874 80.6344 61.308 80.6632 62.1141C80.9475 62.1141 81.1779 62.1141 81.4298 62.1141C81.419 60.4478 81.3506 58.8139 81.4442 57.1727C81.9948 57.1223 82.5095 57.1943 83.0097 57.1259C83.0097 56.9208 83.0097 56.748 83.0097 56.5789C82.4663 56.5141 79.3064 56.5357 79.0509 56.6041C79.0509 56.7768 79.0509 56.9496 79.0509 57.1583C79.5907 57.1619 80.1018 57.1619 80.6668 57.1619ZM69.564 61.5311C69.564 59.8468 69.564 58.2236 69.564 56.5825C69.3012 56.5825 69.0709 56.5825 68.8334 56.5825C68.8334 58.4468 68.8334 60.2858 68.8334 62.1357C69.9311 62.1357 71.0036 62.1357 72.0797 62.1357C72.0797 61.927 72.0797 61.747 72.0797 61.5311C71.2411 61.5311 70.4313 61.5311 69.564 61.5311ZM41.5279 62.1357C41.9454 62.1357 42.3305 62.1357 42.7336 62.1357C42.7336 60.7573 42.7336 59.4005 42.7336 58.0293C42.3233 58.0293 41.9346 58.0293 41.5279 58.0293C41.5279 59.4005 41.5279 60.7465 41.5279 62.1357ZM68.1748 62.1357C68.1748 60.2499 68.1748 58.4144 68.1748 56.5717C67.9228 56.5717 67.6997 56.5717 67.4622 56.5717C67.4622 58.436 67.4622 60.2822 67.4622 62.1357C67.7141 62.1357 67.9372 62.1357 68.1748 62.1357ZM73.4545 62.1357C73.4545 60.2678 73.4545 58.4216 73.4545 56.5789C73.2025 56.5789 72.983 56.5789 72.7563 56.5789C72.7563 58.4432 72.7563 60.2786 72.7563 62.1357C72.9938 62.1357 73.2061 62.1357 73.4545 62.1357ZM42.7372 57.601C42.7372 57.2411 42.7372 56.9136 42.7372 56.5645C42.3233 56.5429 41.9274 56.5321 41.5387 56.5645C41.5387 56.9352 41.5387 57.2591 41.5387 57.601C41.9418 57.601 42.3197 57.601 42.7372 57.601Z" fill="#221E26"/>
<path d="M107.564 7.12207C107.543 7.17605 107.51 7.23004 107.503 7.28402C107.19 10.0012 105.182 12.229 102.526 12.8085C98.8837 13.6002 95.3711 11.2789 94.7161 7.60793C94.0755 4.01975 96.4976 0.694295 100.028 0.0824692C100.165 0.0572764 100.302 0.0248856 100.442 -0.00390625C100.874 -0.00390625 101.306 -0.00390625 101.738 -0.00390625C102.072 0.0680733 102.411 0.125657 102.745 0.212032C105.312 0.877843 107.197 3.03723 107.507 5.66448C107.514 5.71847 107.546 5.77245 107.568 5.82644C107.564 6.25831 107.564 6.69019 107.564 7.12207ZM102.907 9.8393C103.059 9.99405 103.192 10.1164 103.31 10.2496C103.411 10.3647 103.523 10.4223 103.685 10.4187C104.225 10.4115 104.764 10.4151 105.301 10.4151C105.355 10.4151 105.409 10.3971 105.527 10.3791C105.243 10.084 104.998 9.8249 104.754 9.56937C104.498 9.30305 104.246 9.03672 104.001 8.7812C104.61 7.79508 104.944 6.58582 104.79 5.9704C104.304 5.9704 103.814 5.9704 103.307 5.9704C103.249 6.53903 103.195 7.09688 102.889 7.62233C102.512 7.22284 102.155 6.85214 101.803 6.47785C101.763 6.43466 101.731 6.38788 101.68 6.3231C101.857 6.17554 102.022 6.04238 102.188 5.90561C102.49 5.66088 102.724 5.35857 102.879 5.00227C103.318 4.00535 102.947 3.01923 101.946 2.58736C101.133 2.23826 100.309 2.25985 99.5136 2.65214C98.8766 2.96525 98.4951 3.4799 98.4483 4.2033C98.4159 4.73955 98.5958 5.21461 98.9233 5.63929C99.0025 5.74006 99.0781 5.84083 99.1573 5.9416C98.8873 6.16114 98.6282 6.35189 98.3907 6.56783C98.0452 6.88094 97.8005 7.25523 97.7105 7.7231C97.4909 8.85678 97.9948 9.8321 99.0529 10.3036C99.8339 10.6527 100.651 10.6815 101.482 10.5339C102.004 10.4367 102.461 10.1812 102.907 9.8393Z" fill="#221E26"/>
<path d="M79.8621 90.1546C79.6786 90.1078 79.495 90.0538 79.3079 90.0214C77.2097 89.6507 75.8205 88.3443 75.3634 86.2533C75.0719 84.9289 75.0971 83.6045 75.5505 82.316C76.2091 80.4482 77.5444 79.3757 79.4914 79.0733C80.5639 78.9042 81.6256 78.9762 82.6369 79.39C84.2385 80.0415 85.185 81.2651 85.5773 82.917C85.9084 84.3134 85.8688 85.7063 85.329 87.0487C84.6703 88.6934 83.4323 89.6507 81.7084 90.007C81.4996 90.0502 81.2909 90.1042 81.0822 90.1546C80.6791 90.1546 80.2724 90.1546 79.8621 90.1546ZM82.5038 84.4322C82.4894 84.2631 82.4858 83.9967 82.4498 83.7376C82.3742 83.2122 82.2338 82.7083 81.9063 82.2728C81.2369 81.3875 79.9125 81.3335 79.1747 82.1613C78.9228 82.442 78.7608 82.7767 78.6565 83.1366C78.4333 83.9212 78.4081 84.7201 78.5413 85.5191C78.5989 85.8682 78.7068 86.2209 78.8652 86.5376C79.2467 87.3078 80.0493 87.6533 80.8878 87.4554C81.586 87.2934 81.9891 86.8183 82.2338 86.1813C82.4426 85.6523 82.4894 85.0908 82.5038 84.4322Z" fill="#B8916D"/>
<path d="M45.5512 90.1548C45.3785 90.1116 45.2093 90.0576 45.033 90.0253C42.8916 89.6402 41.5348 88.3625 41.0669 86.2391C40.7502 84.8031 40.8078 83.3744 41.3728 82.0031C42.0566 80.3512 43.3235 79.4047 45.0654 79.088C45.9471 78.9296 46.8361 78.9476 47.7034 79.1779C49.4381 79.6422 50.5898 80.7471 51.144 82.4422C51.6083 83.8602 51.6155 85.3034 51.1476 86.7214C50.543 88.5569 49.2546 89.6402 47.3615 90.0109C47.1636 90.0505 46.9692 90.1044 46.7713 90.1512C46.3646 90.1548 45.9579 90.1548 45.5512 90.1548ZM44.1692 84.5836C44.1656 85.3898 44.288 86.0196 44.5363 86.5019C44.9538 87.308 45.7708 87.6679 46.6489 87.4376C47.3003 87.2648 47.6962 86.8222 47.9121 86.2175C48.3008 85.1343 48.3008 84.0366 47.9517 82.9425C47.8906 82.7517 47.7934 82.5646 47.6854 82.3954C46.9872 81.3121 45.4504 81.2869 44.7235 82.3558C44.5759 82.5682 44.4715 82.8165 44.3816 83.0612C44.2124 83.5543 44.1656 84.069 44.1692 84.5836Z" fill="#B8916D"/>
<path d="M74.6639 54.3952C71.2161 43.1988 67.7646 32.006 64.3168 20.8096C63.7374 22.3788 63.2515 23.9695 62.7513 25.553C62.2438 27.151 61.7436 28.7525 61.2433 30.3541C60.7394 31.9556 60.2392 33.5536 59.7353 35.1551C59.2279 36.7675 58.724 38.3798 58.2166 39.9885C57.7127 41.5901 57.2124 43.188 56.7086 44.7896C56.2047 46.3911 55.7045 47.9891 55.2006 49.5906C54.7004 51.1886 54.1965 52.7901 53.6926 54.4024C49.6474 54.4024 45.6237 54.4024 41.6073 54.4024C41.5929 54.3881 41.5821 54.3809 41.5785 54.3737C41.5749 54.3629 41.5677 54.3485 41.5713 54.3377C41.6001 54.2333 41.6253 54.1289 41.6649 54.0281C47.1173 38.8909 52.5698 23.7536 58.0258 8.60547C62.2978 8.60547 66.5482 8.60547 70.849 8.60547C76.233 23.8471 81.6243 39.1032 87.0264 54.3952C82.8768 54.3952 78.7847 54.3952 74.6639 54.3952Z" fill="white"/>
<path d="M70.8508 48.3673C70.8328 52.0095 67.8744 54.9283 64.225 54.9067C60.6045 54.8851 57.6749 51.9195 57.7073 48.299C57.7433 44.4912 60.9032 41.7128 64.3834 41.7704C67.9428 41.8352 70.8688 44.7792 70.8508 48.3673Z" fill="white"/>
<path d="M48.8726 56.5541C49.0562 56.5541 49.2217 56.5541 49.3873 56.5541C50.0711 56.5541 50.7549 56.5361 51.4351 56.5613C51.7662 56.5721 52.1045 56.6297 52.4176 56.7304C52.9395 56.896 53.267 57.2703 53.303 57.8353C53.339 58.4004 53.1338 58.843 52.594 59.0878C52.5508 59.1058 52.5184 59.1417 52.468 59.1777C52.5256 59.2065 52.5652 59.2281 52.6084 59.2461C53.7852 59.6744 53.6449 61.2219 52.8099 61.7438C52.5508 61.9058 52.2485 62.0389 51.9534 62.0821C50.942 62.2333 49.9271 62.1217 48.923 62.1541C48.8258 61.8698 48.7935 57.2919 48.8726 56.5541ZM50.0423 59.6528C50.0315 60.1854 50.0243 60.7001 50.0459 61.2399C50.557 61.2399 51.0212 61.2543 51.4855 61.2363C51.9282 61.2184 52.1693 60.9412 52.1729 60.4878C52.1801 59.9875 51.9354 59.678 51.4819 59.66C51.0176 59.6384 50.5534 59.6528 50.0423 59.6528ZM50.0567 58.8394C50.539 58.8394 50.9816 58.843 51.4243 58.8358C51.5179 58.8358 51.6151 58.8034 51.7014 58.7674C51.9642 58.6523 52.0685 58.4111 52.0289 58.0405C51.9929 57.7381 51.8202 57.515 51.5467 57.5006C51.0608 57.479 50.5714 57.4934 50.0603 57.4934C50.0567 57.9469 50.0567 58.3716 50.0567 58.8394Z" fill="white"/>
<path d="M48.4148 58.3535C47.9721 58.3535 47.5798 58.3535 47.1768 58.3535C47.1444 58.2815 47.1156 58.2167 47.0904 58.152C46.878 57.6193 46.4534 57.3854 45.9099 57.3674C45.3665 57.3494 44.9022 57.5437 44.6575 58.0512C44.2472 58.8969 44.2256 59.7715 44.6467 60.6136C44.9994 61.319 45.9711 61.5494 46.6441 61.1283C47.0364 60.8836 47.1804 60.5057 47.2128 60.0198C46.7341 60.0198 46.277 60.0198 45.7912 60.0198C45.7912 59.7067 45.7912 59.4404 45.7912 59.1669C46.0287 59.0733 48.0945 59.0517 48.4832 59.1417C48.6559 60.8152 47.8318 62.2152 46.0935 62.2548C45.7084 62.262 45.3269 62.2512 44.9562 62.1324C43.9197 61.8013 43.2179 60.9016 43.1135 59.7463C43.0739 59.3036 43.0883 58.8574 43.2071 58.4255C43.5454 57.1802 44.5135 56.41 45.9315 56.428C46.3526 56.4352 46.7665 56.5108 47.1516 56.6944C47.8318 57.0219 48.2277 57.5725 48.4148 58.3535Z" fill="white"/>
<path d="M77.6993 60.5095C76.9327 60.5095 76.1805 60.5095 75.4068 60.5095C75.2196 61.0566 75.0325 61.5964 74.8453 62.1399C74.597 62.1399 74.3703 62.1399 74.0859 62.1399C74.7589 60.2684 75.4212 58.4257 76.087 56.5723C76.4109 56.5723 76.7204 56.5723 77.0767 56.5723C77.7245 58.3969 78.3831 60.2396 79.0525 62.1255C78.779 62.1255 78.5595 62.1255 78.2823 62.1255C78.0952 61.6108 77.9009 61.0638 77.6993 60.5095ZM77.4114 59.8185C77.3754 59.4191 76.6736 57.4108 76.5188 57.2525C76.105 58.289 75.7019 59.5702 75.7091 59.8185C76.2777 59.8185 76.8428 59.8185 77.4114 59.8185Z" fill="white"/>
<path d="M58.7728 62.1436C58.4705 62.1436 58.2474 62.1436 57.9954 62.1436C57.8011 61.6001 57.6103 61.0603 57.416 60.5133C56.6458 60.5133 55.8936 60.5133 55.1163 60.5133C54.9759 60.9199 54.8355 61.3266 54.6988 61.7297C54.5332 62.2192 54.6088 62.1508 54.1085 62.1544C54.0258 62.1544 53.943 62.1436 53.8242 62.1364C53.8566 62.0212 53.8746 61.9205 53.9106 61.8233C54.5044 60.1678 55.1019 58.5122 55.6957 56.8567C55.8037 56.5544 55.8073 56.5544 56.1276 56.5508C56.3291 56.5508 56.5342 56.5508 56.7826 56.5508C57.4412 58.3971 58.0962 60.2397 58.7728 62.1436ZM55.3538 59.8186C55.998 59.8186 56.5666 59.8186 57.1821 59.8186C56.8869 58.9297 56.6026 58.0839 56.3003 57.2382C56.2751 57.2418 56.2463 57.2418 56.2211 57.2454C55.9368 58.0911 55.6525 58.9333 55.3538 59.8186Z" fill="white"/>
<path d="M87.2181 61.5248C87.2181 61.7515 87.2181 61.935 87.2181 62.133C86.034 62.133 84.8752 62.133 83.6875 62.133C83.6875 60.2795 83.6875 58.4404 83.6875 56.5762C84.8284 56.5762 85.9728 56.5762 87.1641 56.5762C87.1713 56.7381 87.1821 56.9073 87.1893 57.0944C86.8762 57.2096 86.5775 57.1412 86.286 57.152C85.9764 57.1628 85.6633 57.1556 85.3502 57.1556C85.0551 57.1556 84.7564 57.1556 84.4325 57.1556C84.4325 57.7314 84.4325 58.2641 84.4325 58.8435C85.2638 58.8759 86.1096 58.8363 86.9698 58.8651C86.9698 59.0559 86.9698 59.2178 86.9698 59.4266C86.7034 59.4913 86.4191 59.4482 86.1384 59.4554C85.8613 59.4626 85.5878 59.4554 85.3106 59.4554C85.0263 59.4554 84.7384 59.4554 84.4289 59.4554C84.4289 60.1536 84.4289 60.8158 84.4289 61.5212C85.3646 61.5248 86.2788 61.5248 87.2181 61.5248Z" fill="white"/>
<path d="M64.1819 62.1363C63.9084 62.1363 63.6852 62.1363 63.4297 62.1363C63.4297 60.2828 63.4297 58.4365 63.4297 56.5723C64.5562 56.5723 65.6647 56.5723 66.8055 56.5723C66.8055 56.763 66.8055 56.943 66.8055 57.1733C66.3665 57.1733 65.9382 57.1733 65.5099 57.1733C65.0816 57.1733 64.6533 57.1733 64.1891 57.1733C64.1891 57.8283 64.1891 58.4437 64.1891 59.1023C65.0096 59.1023 65.8302 59.1023 66.676 59.1023C66.676 59.3183 66.676 59.491 66.676 59.7034C65.8518 59.7034 65.0312 59.7034 64.1819 59.7034C64.1819 60.5275 64.1819 61.3085 64.1819 62.1363Z" fill="white"/>
<path d="M62.6471 59.1027C62.6471 59.333 62.6471 59.4949 62.6471 59.7073C61.8049 59.7073 60.9736 59.7073 60.1206 59.7073C60.1206 60.5386 60.1206 61.3232 60.1206 62.133C59.8651 62.133 59.6347 62.133 59.3828 62.133C59.3828 60.2759 59.3828 58.4368 59.3828 56.5762C60.5093 56.5762 61.6178 56.5762 62.7587 56.5762C62.7587 56.7561 62.7587 56.9397 62.7587 57.1664C61.8949 57.1664 61.0383 57.1664 60.1494 57.1664C60.1494 57.8286 60.1494 58.444 60.1494 59.1027C60.9664 59.1027 61.7869 59.1027 62.6471 59.1027Z" fill="white"/>
<path d="M80.6628 57.1632C80.0978 57.1632 79.5867 57.1632 79.0469 57.1632C79.0469 56.9545 79.0469 56.7817 79.0469 56.609C79.3024 56.5406 82.4623 56.519 83.0057 56.5838C83.0057 56.7529 83.0057 56.9221 83.0057 57.1308C82.5055 57.1956 81.9908 57.1236 81.4402 57.1776C81.3466 58.8187 81.415 60.4527 81.4258 62.119C81.1739 62.119 80.9435 62.119 80.6592 62.119C80.6304 61.3092 80.6628 60.4887 80.6628 59.6717C80.6628 58.8547 80.6628 58.0414 80.6628 57.1632Z" fill="white"/>
<path d="M69.5626 61.5316C70.43 61.5316 71.2397 61.5316 72.0783 61.5316C72.0783 61.7475 72.0783 61.9275 72.0783 62.1362C70.9986 62.1362 69.9297 62.1362 68.832 62.1362C68.832 60.2828 68.832 58.4473 68.832 56.583C69.0732 56.583 69.3035 56.583 69.5626 56.583C69.5626 58.2205 69.5626 59.8473 69.5626 61.5316Z" fill="white"/>
<path d="M41.5273 62.1367C41.5273 60.7475 41.5273 59.4015 41.5273 58.0303C41.934 58.0303 42.3227 58.0303 42.733 58.0303C42.733 59.4015 42.733 60.7583 42.733 62.1367C42.3335 62.1367 41.9448 62.1367 41.5273 62.1367Z" fill="white"/>
<path d="M68.1735 62.1363C67.936 62.1363 67.7129 62.1363 67.4609 62.1363C67.4609 60.2828 67.4609 58.4401 67.4609 56.5723C67.6985 56.5723 67.9216 56.5723 68.1735 56.5723C68.1735 58.4149 68.1735 60.2504 68.1735 62.1363Z" fill="white"/>
<path d="M73.456 62.1369C73.2041 62.1369 72.9917 62.1369 72.7578 62.1369C72.7578 60.2798 72.7578 58.4443 72.7578 56.5801C72.9809 56.5801 73.2005 56.5801 73.456 56.5801C73.456 58.4228 73.456 60.269 73.456 62.1369Z" fill="white"/>
<path d="M42.7375 57.6021C42.32 57.6021 41.9421 57.6021 41.5391 57.6021C41.5391 57.2602 41.5391 56.9327 41.5391 56.5656C41.9278 56.5332 42.32 56.5404 42.7375 56.5656C42.7375 56.9147 42.7375 57.2422 42.7375 57.6021Z" fill="white"/>
<path d="M59.7395 85.454C59.7395 83.4098 59.7395 81.3692 59.7395 79.2746C60.6536 79.2638 61.5318 79.271 62.4063 79.271C62.4855 79.5517 62.5035 89.3625 62.4315 89.834C61.0639 89.834 59.6891 89.834 58.2927 89.834C57.8716 88.7723 57.447 87.707 57.0223 86.6381C56.6048 85.5836 56.1873 84.5291 55.7302 83.4782C55.6619 83.9964 55.6835 84.5111 55.6799 85.0258C55.6763 85.5656 55.6799 86.1054 55.6799 86.6453C55.6799 87.1743 55.6799 87.6998 55.6799 88.2288C55.6799 88.7543 55.6799 89.2797 55.6799 89.8592C54.7729 89.8628 53.8912 89.8628 53.0202 89.8592C52.941 89.5857 52.9158 79.854 52.9878 79.3286C53.2505 79.2638 56.7416 79.2422 57.2022 79.3106C58.0156 81.3512 58.8362 83.4098 59.6567 85.4648C59.6819 85.4576 59.7107 85.4576 59.7395 85.454Z" fill="#B8916D"/>
<path d="M89.9858 89.8374C89.0645 89.8374 88.1971 89.8374 87.3261 89.8374C87.2398 89.5891 87.2074 79.8719 87.2902 79.3248C87.5493 79.2565 91.0439 79.2385 91.5082 79.3068C92.3251 81.3547 93.1493 83.4169 93.9699 85.4827C93.9986 85.4791 94.0238 85.4719 94.0526 85.4683C94.0526 83.4169 94.0526 81.369 94.0526 79.296C94.9776 79.296 95.8557 79.296 96.7591 79.296C96.7591 82.8122 96.7591 86.3176 96.7591 89.841C95.3771 89.841 94.013 89.841 92.6022 89.841C91.7637 87.732 90.9179 85.605 90.0722 83.4744C90.0434 83.478 90.0146 83.4852 89.9858 83.4888C89.9858 85.5978 89.9858 87.7104 89.9858 89.8374Z" fill="#B8916D"/>
<path d="M64.1875 89.8452C64.1875 86.3182 64.1875 82.8236 64.1875 79.3002C64.3027 79.2894 64.4034 79.275 64.5078 79.275C65.9474 79.275 67.3834 79.2714 68.823 79.275C69.4636 79.275 70.0862 79.365 70.6944 79.5702C72.1052 80.0452 73.0806 80.9738 73.5556 82.3846C74.0847 83.9537 74.0451 85.5265 73.3865 87.0524C72.7387 88.5532 71.5798 89.4386 69.9747 89.7157C69.4816 89.802 68.9741 89.8452 68.4739 89.8524C67.1315 89.8704 65.789 89.8596 64.4466 89.8596C64.3746 89.856 64.3027 89.8488 64.1875 89.8452ZM67.297 87.1892C67.7217 87.1892 68.1068 87.2252 68.4847 87.182C69.6795 87.0452 70.3597 86.419 70.5649 85.2889C70.6729 84.6951 70.6585 84.0941 70.5001 83.5074C70.3417 82.9136 70.0142 82.4421 69.4492 82.165C68.769 81.8339 68.042 81.8555 67.297 81.8951C67.297 83.6694 67.297 85.4113 67.297 87.1892Z" fill="#B8916D"/>
<path d="M39.9776 87.228C39.9776 88.1242 39.9776 88.9699 39.9776 89.8373C37.4008 89.8373 34.8419 89.8373 32.2578 89.8373C32.2578 86.3283 32.2578 82.8265 32.2578 79.2959C33.2763 79.2959 34.284 79.2959 35.3385 79.2959C35.3385 81.9267 35.3385 84.5432 35.3385 87.2064C35.8928 87.2064 36.4038 87.2064 36.9149 87.2064C37.4295 87.2064 37.9442 87.2029 38.4588 87.2064C38.9663 87.2136 39.4774 87.1849 39.9776 87.228Z" fill="#B8916D"/>
<path d="M102.911 9.83874C102.465 10.1806 102.008 10.4362 101.479 10.5297C100.647 10.6773 99.8302 10.6485 99.0492 10.2994C97.9911 9.82794 97.4873 8.85262 97.7068 7.71894C97.7968 7.25107 98.0415 6.87678 98.387 6.56367C98.6246 6.34773 98.8873 6.15698 99.1536 5.93745C99.0744 5.83667 98.9989 5.7359 98.9197 5.63513C98.5922 5.21045 98.4122 4.73539 98.4446 4.19914C98.4914 3.47934 98.8729 2.96109 99.5099 2.64798C100.305 2.25929 101.129 2.2341 101.943 2.5832C102.943 3.01508 103.314 4.0012 102.875 4.99811C102.717 5.35441 102.486 5.65673 102.184 5.90146C102.018 6.03462 101.856 6.17138 101.676 6.31894C101.727 6.38372 101.759 6.4305 101.799 6.47369C102.152 6.84799 102.504 7.21868 102.886 7.61817C103.192 7.08912 103.246 6.53488 103.303 5.96624C103.811 5.96624 104.3 5.96624 104.786 5.96624C104.941 6.57806 104.606 7.78732 103.998 8.77704C104.243 9.03256 104.498 9.29889 104.75 9.56521C104.995 9.82074 105.239 10.0763 105.524 10.375C105.409 10.3966 105.351 10.411 105.297 10.411C104.757 10.4146 104.217 10.4074 103.681 10.4146C103.519 10.4182 103.411 10.3606 103.307 10.2454C103.195 10.1159 103.062 9.99349 102.911 9.83874ZM101.95 8.85262C101.335 8.2156 100.748 7.61097 100.129 6.97035C99.8986 7.20788 99.6791 7.39143 99.5099 7.61817C99.24 7.98526 99.276 8.42434 99.5675 8.77704C99.7474 8.99657 99.985 9.13693 100.255 9.20532C100.849 9.35287 101.392 9.24131 101.95 8.85262ZM100.629 5.44439C100.95 5.23565 101.205 5.0449 101.378 4.76418C101.644 4.3359 101.464 3.85364 100.993 3.70248C100.698 3.60531 100.345 3.70968 100.151 3.94721C99.9634 4.17395 99.9238 4.51585 100.097 4.78217C100.248 5.00531 100.438 5.20685 100.629 5.44439Z" fill="white"/>
<path d="M50.0416 59.6529C50.5527 59.6529 51.017 59.6385 51.4812 59.6565C51.9347 59.6745 52.1794 59.984 52.1722 60.4843C52.1686 60.9377 51.9275 61.2149 51.4848 61.2329C51.0206 61.2509 50.5563 61.2365 50.0452 61.2365C50.0236 60.7002 50.0308 60.1856 50.0416 59.6529Z" fill="#221E26"/>
<path d="M50.0586 58.8396C50.0586 58.3717 50.0586 57.947 50.0586 57.4935C50.5696 57.4935 51.0555 57.4755 51.545 57.5007C51.8221 57.5151 51.9948 57.7383 52.0272 58.0406C52.0704 58.4113 51.9661 58.6524 51.6997 58.7676C51.6134 58.8036 51.5162 58.836 51.4226 58.836C50.9799 58.8432 50.5409 58.8396 50.0586 58.8396Z" fill="#221E26"/>
<path d="M77.4096 59.819C76.8409 59.819 76.2759 59.819 75.7072 59.819C75.6964 59.5743 76.0995 58.293 76.517 57.2529C76.6718 57.4149 77.3772 59.4231 77.4096 59.819Z" fill="#221E26"/>
<path d="M55.3516 59.8187C55.6503 58.9334 55.9346 58.0912 56.2189 57.2455C56.2441 57.2419 56.2729 57.2419 56.2981 57.2383C56.6004 58.0804 56.8847 58.9298 57.1798 59.8187C56.5644 59.8187 55.9958 59.8187 55.3516 59.8187Z" fill="#221E26"/>
<path d="M101.945 8.85364C101.388 9.24233 100.844 9.35389 100.254 9.20274C99.9803 9.13436 99.7464 8.994 99.5665 8.77446C99.2749 8.42176 99.2354 7.98268 99.5089 7.61559C99.6744 7.38885 99.8976 7.20531 100.128 6.96777C100.743 7.61559 101.33 8.21662 101.945 8.85364Z" fill="#221E26"/>
<path d="M100.628 5.44506C100.433 5.20752 100.246 5.00958 100.099 4.78285C99.9258 4.51652 99.9654 4.17822 100.152 3.94788C100.347 3.71035 100.7 3.60598 100.995 3.70315C101.466 3.85791 101.646 4.33657 101.38 4.76485C101.207 5.04197 100.948 5.23272 100.628 5.44506Z" fill="#221E26"/>
</g>
<path d="M32.2452 100.418H34.373C35.4032 100.418 36.0227 100.795 36.0227 101.61C36.0227 102.129 35.7736 102.472 35.3224 102.634C35.8274 102.782 36.2112 103.145 36.2112 103.799C36.2112 104.869 35.1877 105.132 34.2922 105.132H32.2452V100.418ZM34.9588 103.664C34.9588 103.294 34.7097 103.172 34.3326 103.172H33.4842V104.155H34.3326C34.7097 104.155 34.9588 104.034 34.9588 103.664ZM34.777 101.832C34.777 101.563 34.5885 101.395 34.2585 101.395H33.4909V102.263L34.2585 102.27C34.5885 102.27 34.777 102.102 34.777 101.832ZM38.8683 100.418H42.2619V101.496H40.114V102.216H42.0599V103.287H40.114V104.054H42.3023V105.132H38.8683V100.418ZM44.8758 101.704C44.8758 100.762 45.6838 100.317 46.6535 100.317C47.2393 100.317 47.8251 100.459 48.2358 100.694V101.839C47.8318 101.536 47.2999 101.388 46.7545 101.395C46.2966 101.401 46.1552 101.523 46.1552 101.698C46.1552 102.31 48.6062 102.122 48.6062 103.792C48.6062 104.91 47.751 105.233 46.7208 105.233C46.0407 105.233 45.4078 105.078 44.9095 104.802V103.624C45.4684 104.007 46.0878 104.155 46.6265 104.155C47.1181 104.155 47.3268 104.075 47.3268 103.839C47.3268 103.159 44.8758 103.388 44.8758 101.704ZM50.804 100.418H54.7094V101.529H53.3829V105.132H52.1372V101.529H50.804V100.418ZM60.4944 100.418H62.3731C64.0565 100.418 64.8375 101.401 64.8375 102.775C64.8375 104.149 64.0565 105.132 62.3731 105.132H60.4944V100.418ZM63.5582 102.775C63.5582 101.893 63.1205 101.496 62.3731 101.496H61.7401V104.054H62.3731C63.1205 104.054 63.5582 103.657 63.5582 102.775ZM67.5252 100.418H68.7709V105.132H67.5252V100.418ZM71.4534 102.775C71.4534 101.018 72.7395 100.317 74.0525 100.317C74.5575 100.317 75.0693 100.425 75.5137 100.614V101.792C75.1636 101.55 74.6855 101.415 74.2141 101.415C73.4532 101.415 72.7328 101.805 72.7328 102.775C72.7328 103.94 73.5879 104.162 74.1266 104.162C74.2613 104.162 74.369 104.149 74.4498 104.129V102.539H75.6282V104.916C75.1434 105.118 74.5979 105.233 74.066 105.233C72.726 105.233 71.4534 104.485 71.4534 102.775ZM78.4106 100.418H79.6563V105.132H78.4106V100.418ZM82.2109 100.418H86.1163V101.529H84.7898V105.132H83.5441V101.529H82.2109V100.418ZM88.9541 105.132H87.6747L89.5264 100.418H90.8731L92.7248 105.132H91.4455L91.1761 104.391H89.2234L88.9541 105.132ZM90.0786 102.021L89.5938 103.381H90.8058L90.321 102.021C90.2806 101.906 90.2402 101.792 90.1998 101.543C90.1594 101.792 90.119 101.906 90.0786 102.021ZM95.1957 100.418H96.4414V104.021H98.5962V105.132H95.1957V100.418ZM47.4094 113.132H46.1301L47.9818 108.418H49.3285L51.1802 113.132H49.9008L49.6315 112.391H47.6788L47.4094 113.132ZM48.5339 110.021L48.0491 111.381H49.2611L48.7763 110.021C48.7359 109.906 48.6955 109.792 48.6551 109.543C48.6147 109.792 48.5743 109.906 48.5339 110.021ZM53.192 110.775C53.192 109.018 54.4781 108.317 55.7911 108.317C56.2962 108.317 56.8079 108.425 57.2523 108.614V109.792C56.9022 109.55 56.4241 109.415 55.9527 109.415C55.1919 109.415 54.4714 109.805 54.4714 110.775C54.4714 111.94 55.3265 112.162 55.8652 112.162C55.9999 112.162 56.1076 112.149 56.1884 112.129V110.539H57.3668V112.916C56.882 113.118 56.3366 113.233 55.8046 113.233C54.4646 113.233 53.192 112.485 53.192 110.775ZM60.1492 108.418H63.5429V109.496H61.3949V110.216H63.3409V111.287H61.3949V112.054H63.5833V113.132H60.1492V108.418ZM67.5708 113.132H66.3251V108.418H67.5035L69.3485 111.125C69.3283 110.903 69.3215 110.607 69.3215 110.344V108.418H70.5672V113.132H69.3889L67.5439 110.432C67.5641 110.654 67.5708 110.95 67.5708 111.206V113.132ZM73.2453 110.842C73.2453 109.065 74.5246 108.317 75.7973 108.317C76.2753 108.317 76.7534 108.418 77.1642 108.614V109.792C76.8746 109.55 76.4437 109.408 76.0127 109.408C75.2653 109.408 74.5246 109.819 74.5246 110.842C74.5246 111.758 75.2653 112.135 75.9993 112.135C76.4841 112.135 76.9285 111.987 77.1978 111.725V112.937C76.7871 113.132 76.3225 113.233 75.8242 113.233C74.5314 113.233 73.2453 112.526 73.2453 110.842ZM82.5326 113.132H81.2937V111.523L79.4554 108.418H80.8695L81.9131 110.364L82.9568 108.418H84.3709L82.5326 111.523V113.132Z" fill="#221E26"/>
<path d="M30.6599 127.946C30.6599 127.106 31.3799 126.71 32.2439 126.71C32.7659 126.71 33.2879 126.836 33.6539 127.046V128.066C33.2939 127.796 32.8199 127.664 32.3339 127.67C31.9259 127.676 31.7999 127.784 31.7999 127.94C31.7999 128.486 33.9839 128.318 33.9839 129.806C33.9839 130.802 33.2219 131.09 32.3039 131.09C31.6979 131.09 31.1339 130.952 30.6899 130.706V129.656C31.1879 129.998 31.7399 130.13 32.2199 130.13C32.6579 130.13 32.8439 130.058 32.8439 129.848C32.8439 129.242 30.6599 129.446 30.6599 127.946ZM38.4064 126.8H39.5164V131H38.4064V129.398H36.8464V131H35.7364V126.8H36.8464V128.408H38.4064V126.8ZM41.2967 128.9C41.2967 127.73 42.0467 126.71 43.5467 126.71C45.0467 126.71 45.7967 127.73 45.7967 128.9C45.7967 130.07 45.0467 131.09 43.5467 131.09C42.0467 131.09 41.2967 130.07 41.2967 128.9ZM44.6567 128.9C44.6567 128.228 44.2727 127.73 43.5467 127.73C42.8207 127.73 42.4367 128.228 42.4367 128.9C42.4367 129.572 42.8207 130.07 43.5467 130.07C44.2727 130.07 44.6567 129.572 44.6567 128.9ZM48.6859 131H47.5759V126.8H49.3459C50.1979 126.8 51.0679 127.106 51.0679 128.216C51.0679 128.912 50.7259 129.29 50.2639 129.476L51.4219 131H50.1679L49.1659 129.632H48.6859V131ZM48.6859 127.76V128.732H49.3939C49.7119 128.732 49.9279 128.57 49.9279 128.246C49.9279 127.922 49.7119 127.76 49.3939 127.76H48.6859ZM52.6122 126.8H56.0922V127.79H54.9102V131H53.8002V127.79H52.6122V126.8ZM57.7689 126.8H58.8789V130.01H60.7989V131H57.7689V126.8ZM62.4728 126.8H63.5828V131H62.4728V126.8ZM65.4271 127.946C65.4271 127.106 66.1471 126.71 67.0111 126.71C67.5331 126.71 68.0551 126.836 68.4211 127.046V128.066C68.0611 127.796 67.5871 127.664 67.1011 127.67C66.6931 127.676 66.5671 127.784 66.5671 127.94C66.5671 128.486 68.7511 128.318 68.7511 129.806C68.7511 130.802 67.9891 131.09 67.0711 131.09C66.4651 131.09 65.9011 130.952 65.4571 130.706V129.656C65.9551 129.998 66.5071 130.13 66.9871 130.13C67.4251 130.13 67.6111 130.058 67.6111 129.848C67.6111 129.242 65.4271 129.446 65.4271 127.946ZM70.1094 126.8H73.5894V127.79H72.4074V131H71.2974V127.79H70.1094V126.8ZM77.0563 126.8H80.5363V127.79H79.3543V131H78.2443V127.79H77.0563V126.8ZM81.8741 128.9C81.8741 127.73 82.6241 126.71 84.1241 126.71C85.6241 126.71 86.3741 127.73 86.3741 128.9C86.3741 130.07 85.6241 131.09 84.1241 131.09C82.6241 131.09 81.8741 130.07 81.8741 128.9ZM85.2341 128.9C85.2341 128.228 84.8501 127.73 84.1241 127.73C83.3981 127.73 83.0141 128.228 83.0141 128.9C83.0141 129.572 83.3981 130.07 84.1241 130.07C84.8501 130.07 85.2341 129.572 85.2341 128.9ZM88.1532 126.8H89.8152C90.8532 126.8 91.6452 127.136 91.6452 128.24C91.6452 129.344 90.8532 129.674 89.8152 129.68H89.2632V131H88.1532V126.8ZM90.5052 128.24C90.5052 127.862 90.2052 127.76 89.8692 127.76H89.2632V128.72H89.8692C90.2052 128.72 90.5052 128.618 90.5052 128.24ZM96.193 127.964C96.193 128.39 95.965 128.69 95.563 128.828C96.013 128.966 96.361 129.296 96.361 129.884C96.361 130.778 95.509 131.09 94.651 131.09C94.159 131.09 93.739 131.012 93.241 130.814V129.794C93.733 130.076 94.135 130.136 94.561 130.13C94.957 130.124 95.305 130.004 95.305 129.704C95.305 129.464 95.083 129.368 94.747 129.368H94.051L94.057 128.438L94.621 128.444C94.915 128.45 95.143 128.372 95.143 128.138C95.143 127.91 94.927 127.79 94.513 127.79C94.177 127.79 93.715 127.916 93.313 128.186V127.166C93.679 126.956 94.171 126.83 94.663 126.83C95.521 126.83 96.193 127.178 96.193 127.964Z" fill="#B8916D"/>
<defs>
<clipPath id="clip0_904_134">
<rect width="79.5734" height="90.1544" fill="white" transform="translate(28)"/>
</clipPath>
</defs>
</svg>
