<svg width="113" height="128" viewBox="0 0 113 128" fill="none" xmlns="http://www.w3.org/2000/svg">
<path d="M19.0292 82.3721H20.3751V87.7559H18.9523V84.8948L17.7986 86.6637H16.9834L15.8297 84.8871V87.7559H14.4068V82.3721H15.7528L17.391 84.8948L19.0292 82.3721ZM23.6992 82.3721H27.5755V83.6027H25.1221V84.4256H27.3448V85.6485H25.1221V86.5253H27.6217V87.7559H23.6992V82.3721ZM30.7534 82.3721H32.8992C34.8219 82.3721 35.7141 83.495 35.7141 85.064C35.7141 86.633 34.8219 87.7559 32.8992 87.7559H30.7534V82.3721ZM34.2528 85.064C34.2528 84.0565 33.7529 83.6027 32.8992 83.6027H32.1762V86.5253H32.8992C33.7529 86.5253 34.2528 86.0715 34.2528 85.064ZM38.7839 82.3721H40.2067V87.7559H38.7839V82.3721ZM44.4936 87.7559H43.0323L45.1474 82.3721H46.6856L48.8006 87.7559H47.3393L47.0317 86.9098H44.8013L44.4936 87.7559ZM45.778 84.2026L45.2243 85.7562H46.6087L46.0549 84.2026C46.0088 84.0718 45.9626 83.9411 45.9165 83.6565C45.8703 83.9411 45.8242 84.0718 45.778 84.2026ZM56.0557 87.7559H54.5944L56.7095 82.3721H58.2477L60.3627 87.7559H58.9014L58.5938 86.9098H56.3634L56.0557 87.7559ZM57.3401 84.2026L56.7864 85.7562H58.1708L57.617 84.2026C57.5709 84.0718 57.5247 83.9411 57.4786 83.6565C57.4324 83.9411 57.3863 84.0718 57.3401 84.2026ZM62.6606 85.064C62.6606 83.0566 64.1296 82.2568 65.6294 82.2568C66.2062 82.2568 66.7907 82.3798 67.2983 82.5952V83.9411C66.8984 83.6642 66.3523 83.5104 65.8139 83.5104C64.9449 83.5104 64.1219 83.9565 64.1219 85.064C64.1219 86.3945 65.0987 86.6483 65.714 86.6483C65.8678 86.6483 65.9908 86.633 66.0831 86.6099V84.7948H67.4291V87.5097C66.8753 87.7405 66.2523 87.8712 65.6447 87.8712C64.1142 87.8712 62.6606 87.0175 62.6606 85.064ZM70.6072 82.3721H74.4835V83.6027H72.03V84.4256H74.2527V85.6485H72.03V86.5253H74.5296V87.7559H70.6072V82.3721ZM79.0842 87.7559H77.6613V82.3721H79.0072L81.1146 85.4639C81.0915 85.2101 81.0838 84.8717 81.0838 84.5718V82.3721H82.5067V87.7559H81.1607L79.0534 84.6717C79.0765 84.9255 79.0842 85.264 79.0842 85.5562V87.7559ZM85.5655 85.1409C85.5655 83.1105 87.0269 82.2568 88.4805 82.2568C89.0265 82.2568 89.5726 82.3721 90.0417 82.5952V83.9411C89.711 83.6642 89.2188 83.5027 88.7266 83.5027C87.8729 83.5027 87.0269 83.9719 87.0269 85.1409C87.0269 86.1869 87.8729 86.6176 88.7112 86.6176C89.2649 86.6176 89.7726 86.4484 90.0802 86.1484V87.5328C89.611 87.7559 89.0804 87.8712 88.5112 87.8712C87.0345 87.8712 85.5655 87.0637 85.5655 85.1409ZM96.1736 87.7559H94.7585V85.9177L92.6588 82.3721H94.2739L95.466 84.5948L96.6582 82.3721H98.2733L96.1736 85.9177V87.7559ZM19.6513 94.064C19.6513 92.5642 20.6127 91.2568 22.5355 91.2568C24.4583 91.2568 25.4196 92.5642 25.4196 94.064C25.4196 95.5637 24.4583 96.8712 22.5355 96.8712C20.6127 96.8712 19.6513 95.5637 19.6513 94.064ZM23.9583 94.064C23.9583 93.2026 23.4661 92.5642 22.5355 92.5642C21.6049 92.5642 21.1126 93.2026 21.1126 94.064C21.1126 94.9254 21.6049 95.5637 22.5355 95.5637C23.4661 95.5637 23.9583 94.9254 23.9583 94.064ZM28.4693 91.3721H32.3533V92.6411H29.8922V93.5718H32.1303V94.8408H29.8922V96.7559H28.4693V91.3721ZM38.5348 91.3721H42.9956V92.6411H41.4804V96.7559H40.0576V92.6411H38.5348V91.3721ZM49.3364 91.3721H50.7593V96.7559H49.3364V94.7023H47.3368V96.7559H45.9139V91.3721H47.3368V93.4333H49.3364V91.3721ZM54.0796 91.3721H57.9559V92.6027H55.5025V93.4256H57.7252V94.6485H55.5025V95.5253H58.0021V96.7559H54.0796V91.3721ZM67.74 96.7559H66.3248V94.9177L64.2252 91.3721H65.8403L67.0324 93.5948L68.2245 91.3721H69.8396L67.74 94.9177V96.7559ZM72.6433 91.3721H76.5196V92.6027H74.0662V93.4256H76.2889V94.6485H74.0662V95.5253H76.5658V96.7559H72.6433V91.3721ZM80.6589 96.7559H79.1976L81.3126 91.3721H82.8508L84.9659 96.7559H83.5046L83.1969 95.9098H80.9665L80.6589 96.7559ZM81.9433 93.2026L81.3895 94.7562H82.7739L82.2202 93.2026C82.174 93.0718 82.1279 92.9411 82.0817 92.6565C82.0356 92.9411 81.9894 93.0718 81.9433 93.2026ZM89.211 96.7559H87.7881V91.3721H90.057C91.1491 91.3721 92.2643 91.7644 92.2643 93.1872C92.2643 94.0794 91.8259 94.5639 91.2337 94.8023L92.7181 96.7559H91.1107L89.8263 95.0023H89.211V96.7559ZM89.211 92.6027V93.8486H90.1185C90.5261 93.8486 90.803 93.641 90.803 93.2257C90.803 92.8103 90.5261 92.6027 90.1185 92.6027H89.211Z" fill="#221E26"/>
<path d="M42.1904 116.623C43.0304 116.047 43.9544 115.795 44.9024 115.795C46.5584 115.795 47.7704 116.563 47.7704 118.087C47.7704 119.467 46.6184 120.283 45.5144 120.943C44.4584 121.567 43.4624 122.071 43.4504 122.887L47.8304 122.875V124.111H41.9144V123.487C41.9144 121.495 43.3904 120.739 44.6264 120.007C45.5744 119.455 46.4024 119.035 46.4024 118.111C46.4024 117.403 45.7904 117.031 44.7824 117.031C43.9544 117.031 43.0544 117.319 42.1904 117.943V116.623ZM48.994 120.031C48.994 117.643 50.122 115.795 52.654 115.795C55.186 115.795 56.314 117.643 56.314 120.031C56.314 122.419 55.186 124.267 52.654 124.267C50.122 124.267 48.994 122.419 48.994 120.031ZM54.934 120.031C54.934 118.135 54.214 117.043 52.654 117.043C51.082 117.043 50.374 118.135 50.374 120.031C50.374 121.927 51.082 123.019 52.654 123.019C54.214 123.019 54.934 121.927 54.934 120.031ZM57.6826 116.623C58.5226 116.047 59.4466 115.795 60.3946 115.795C62.0506 115.795 63.2626 116.563 63.2626 118.087C63.2626 119.467 62.1106 120.283 61.0066 120.943C59.9506 121.567 58.9546 122.071 58.9426 122.887L63.3226 122.875V124.111H57.4066V123.487C57.4066 121.495 58.8826 120.739 60.1186 120.007C61.0666 119.455 61.8946 119.035 61.8946 118.111C61.8946 117.403 61.2826 117.031 60.2746 117.031C59.4466 117.031 58.5466 117.319 57.6826 117.943V116.623ZM64.7022 116.623C65.5422 116.047 66.4662 115.795 67.4142 115.795C69.0702 115.795 70.2822 116.563 70.2822 118.087C70.2822 119.467 69.1302 120.283 68.0262 120.943C66.9702 121.567 65.9742 122.071 65.9622 122.887L70.3422 122.875V124.111H64.4262V123.487C64.4262 121.495 65.9022 120.739 67.1382 120.007C68.0862 119.455 68.9142 119.035 68.9142 118.111C68.9142 117.403 68.3022 117.031 67.2942 117.031C66.4662 117.031 65.5662 117.319 64.7022 117.943V116.623Z" fill="#B8916D"/>
<g clip-path="url(#clip0_904_132)">
<path d="M55.5264 12.1354V7.625H50.1211L52.8818 12.1354H55.5264Z" fill="#946D47"/>
<path d="M58.1211 17.8938C58.1211 23.8976 62.8798 28.4004 69.1944 28.4004C72.1017 28.4004 75.5974 27.2972 77.8303 25.7262V17.7212H73.2762V23.0445C72.041 23.6549 70.6619 24.0326 69.6036 24.0326C66.1659 24.0326 63.5239 21.386 63.5239 17.8938C63.5239 14.4616 66.1381 11.8149 69.5455 11.8149C71.6133 11.8677 73.5901 12.6686 75.1024 14.0663L78.0551 10.5066C75.9106 8.61538 72.6498 7.45215 69.5657 7.45215C63.0162 7.45215 58.1211 11.9325 58.1211 17.8938Z" fill="#B8916D"/>
<path d="M50.1211 12.1348V28.1924L55.5264 28.2225V16.6426L52.8818 12.1348H50.1211Z" fill="#B8916D"/>
<path d="M47.3025 22.0843C47.3025 17.6915 43.9532 16.4407 40.6342 15.7728L40.3412 15.7128C37.3102 15.1024 35.7947 14.8122 35.7947 13.2712C35.7947 11.9604 36.9414 11.2349 38.9091 11.2349C40.9298 11.2349 42.2861 12.0479 42.7559 13.5614L42.7863 13.6765L47.156 12.5082L47.1257 12.3932C46.1557 9.08107 43.2182 7.33496 38.6085 7.33496C33.4684 7.33496 30.647 9.50634 30.647 13.4738C30.647 17.3438 33.3497 18.507 36.2872 19.175C36.8732 19.2925 37.4037 19.4076 37.9013 19.5252C40.6039 20.078 42.2205 20.3982 42.2205 22.2019C42.2205 24.0055 40.5155 24.4533 39.0783 24.4533C36.2999 24.4533 35.0521 23.0274 34.8172 21.6615L34.7894 21.544L30.2656 22.7247L30.2959 22.8398C30.8011 25.3138 32.7334 28.2807 39.0783 28.2807C44.3927 28.2807 47.3025 26.0993 47.3025 22.0843Z" fill="#B8916D"/>
<path d="M67.6918 49.3466L82.0866 49.3166V32.2383H57.793L64.9613 44.6912L67.6918 49.3466Z" fill="#946D47"/>
<path d="M56.3206 36.7754L53.6786 32.2676H48.2733L42.3097 44.5153L36.4624 32.2676H30.8828V52.8356H35.6112V39.4821L40.577 50.334H44.0122L49.0058 39.4821L49.0361 52.8356H53.6786V36.7754H56.3206Z" fill="#B8916D"/>
<path d="M79.0319 52.8356L67.0164 32.2676L64.4021 36.7754L61.7879 41.2858H61.7576L55.0312 52.8356H60.2901L67.0164 41.2583L73.773 52.8356H79.0319Z" fill="#B8916D"/>
<path d="M29.6271 61.0862H22V0H90.0085V60.836H82.3814V58.3344H87.4826V2.50158H24.5258V58.5846H29.6271V61.0862Z" fill="#B8916D"/>
<path d="M35.0781 74.7977L34.7826 73.6945H32.282L31.9839 74.7977H29.3242L32.085 66.2197H34.9796L37.7403 74.7977H35.0781ZM32.8048 71.7357H34.2496L33.5323 69.0991L32.8048 71.7357Z" fill="#946D47"/>
<path d="M40.1844 74.7977L37.7344 66.2197H40.4623L41.6368 70.9377L43.0361 66.2197H44.9406L46.3399 70.9377L47.5094 66.2247H50.2373L47.7873 74.7977H45.3498L43.9884 70.2198L42.6269 74.7977H40.1844Z" fill="#946D47"/>
<path d="M55.9947 74.7977L55.6966 73.6945H53.196L52.9005 74.7977H50.2383L52.999 66.2197H55.8962L58.6544 74.7977H55.9947ZM53.7214 71.7357H55.1561L54.4388 69.0991L53.7214 71.7357Z" fill="#946D47"/>
<path d="M64.2339 74.7975L62.8598 72.1008H62.241V74.7975H59.7656V66.2171H63.2311C64.0925 66.1857 64.9335 66.4809 65.5827 67.0426C65.8898 67.3179 66.1323 67.6566 66.2929 68.0348C66.4535 68.413 66.5284 68.8215 66.5122 69.2315C66.52 69.7079 66.4003 70.1779 66.1651 70.5936C65.93 71.0093 65.5878 71.3559 65.1735 71.598L66.8835 74.7975H64.2339ZM62.241 68.471V70.0645H63.1806C63.2928 70.0749 63.4061 70.0629 63.5136 70.0294C63.6212 69.9959 63.7209 69.9415 63.807 69.8694C63.8852 69.7932 63.9462 69.7014 63.9859 69.6C64.0255 69.4986 64.0429 69.3901 64.0368 69.2816C64.0427 69.1719 64.0252 69.0623 63.9856 68.9597C63.946 68.8572 63.8852 68.764 63.807 68.6862C63.6345 68.5362 63.4097 68.459 63.1806 68.471H62.241Z" fill="#946D47"/>
<path d="M71.7117 66.2248C72.2712 66.2115 72.8274 66.3141 73.3446 66.526C73.8617 66.738 74.3285 67.0546 74.7149 67.4555C75.4897 68.2891 75.9198 69.3807 75.9198 70.5137C75.9198 71.6467 75.4897 72.7383 74.7149 73.5719C74.328 73.972 73.8611 74.2876 73.3439 74.4987C72.8268 74.7098 72.2709 74.8116 71.7117 74.7977H68.125V66.2248H71.7117ZM71.7117 72.4262C71.9459 72.4327 72.1788 72.3884 72.3939 72.2963C72.609 72.2043 72.8012 72.0667 72.9569 71.8934C73.2709 71.5022 73.4417 71.0172 73.4417 70.5175C73.4417 70.0178 73.2709 69.5328 72.9569 69.1416C72.8012 68.9682 72.609 68.8307 72.3939 68.7386C72.1788 68.6466 71.9459 68.6023 71.7117 68.6088H70.7216V72.4337L71.7117 72.4262Z" fill="#946D47"/>
<path d="M80.2135 74.9999C79.3906 75.0293 78.5762 74.8272 77.8645 74.417C77.2629 74.0625 76.8136 73.5018 76.6016 72.841L78.7182 71.6277C78.8195 71.9549 79.0274 72.2396 79.3093 72.4374C79.5913 72.6352 79.9315 72.7349 80.2767 72.7209C80.8374 72.7209 81.1178 72.5733 81.1178 72.2782C81.119 72.2006 81.098 72.1242 81.0572 72.058C80.9968 71.9797 80.9154 71.9199 80.8223 71.8854C80.7061 71.8379 80.605 71.7979 80.5192 71.7703C80.4333 71.7428 80.2817 71.6978 80.067 71.6403C79.8523 71.5827 79.6907 71.5377 79.5846 71.5052C77.8603 70.9932 76.9981 70.0759 76.9981 68.7534C76.989 68.3862 77.0611 68.0215 77.2095 67.6848C77.3579 67.3482 77.5788 67.0478 77.8569 66.8047C78.4822 66.2707 79.2902 65.9941 80.115 66.0317C80.8082 66.0196 81.4914 66.1962 82.0902 66.542C82.67 66.8838 83.1201 67.4051 83.3708 68.0255L81.3173 69.2137C81.0647 68.6083 80.6808 68.3081 80.1277 68.3081C79.9554 68.2965 79.7841 68.3413 79.6402 68.4357C79.588 68.4727 79.5457 68.5215 79.5167 68.5781C79.4877 68.6348 79.4728 68.6975 79.4735 68.7609C79.4749 68.8512 79.5032 68.939 79.5549 69.0133C79.6066 69.0876 79.6793 69.1452 79.7639 69.1787C80.1258 69.3348 80.5001 69.4612 80.8829 69.5564C81.2254 69.6561 81.5627 69.773 81.8932 69.9067C82.1851 70.0326 82.4627 70.1886 82.7217 70.372C83.0079 70.5652 83.2351 70.8326 83.3784 71.1449C83.53 71.4947 83.6041 71.8726 83.5956 72.2531C83.6167 72.6384 83.5453 73.0231 83.3872 73.3758C83.2292 73.7284 82.989 74.039 82.6863 74.2819C82.0784 74.7606 81.2542 74.9999 80.2135 74.9999Z" fill="#946D47"/>
<path d="M31.7119 57.1727H36.1213V58.5725H33.3304V59.5087H35.8588V60.8997H33.3304V61.8971H36.1738V63.2969H31.7119V57.1727ZM43.5681 57.1727H45.1866V60.961C45.1866 62.8069 43.7868 63.4281 42.4308 63.4281C41.0747 63.4281 39.6749 62.8069 39.6749 60.961V57.1727H41.2935V60.8735C41.2935 61.6959 41.7396 61.9846 42.4308 61.9846C43.1219 61.9846 43.5681 61.6959 43.5681 60.8735V57.1727ZM50.5238 63.2969H48.9053V57.1727H51.4862C52.7285 57.1727 53.9971 57.6189 53.9971 59.2375C53.9971 60.2523 53.4984 60.8035 52.8247 61.0747L54.5132 63.2969H52.6847L51.2237 61.3022H50.5238V63.2969ZM50.5238 58.5725V59.9898H51.5562C52.0198 59.9898 52.3348 59.7536 52.3348 59.2812C52.3348 58.8088 52.0198 58.5725 51.5562 58.5725H50.5238ZM57.341 60.2348C57.341 58.5288 58.4346 57.0415 60.6218 57.0415C62.809 57.0415 63.9026 58.5288 63.9026 60.2348C63.9026 61.9408 62.809 63.4281 60.6218 63.4281C58.4346 63.4281 57.341 61.9408 57.341 60.2348ZM62.2403 60.2348C62.2403 59.255 61.6804 58.5288 60.6218 58.5288C59.5632 58.5288 59.0033 59.255 59.0033 60.2348C59.0033 61.2147 59.5632 61.9408 60.6218 61.9408C61.6804 61.9408 62.2403 61.2147 62.2403 60.2348ZM67.3716 57.1727H69.795C71.3086 57.1727 72.4634 57.6627 72.4634 59.2724C72.4634 60.8822 71.3086 61.3634 69.795 61.3721H68.9902V63.2969H67.3716V57.1727ZM70.8012 59.2724C70.8012 58.7213 70.3637 58.5725 69.8738 58.5725H68.9902V59.9723H69.8738C70.3637 59.9723 70.8012 59.8236 70.8012 59.2724ZM75.8402 57.1727H80.2495V58.5725H77.4587V59.5087H79.9871V60.8997H77.4587V61.8971H80.302V63.2969H75.8402V57.1727Z" fill="#B8916D"/>
</g>
<defs>
<clipPath id="clip0_904_132">
<rect width="68.0085" height="75" fill="white" transform="translate(22)"/>
</clipPath>
</defs>
</svg>
