<svg width="117" height="138" viewBox="0 0 117 138" fill="none" xmlns="http://www.w3.org/2000/svg">
<path d="M50.0944 96.6778C52.6645 98.7002 53.3386 102.071 53.3386 102.071C53.3386 102.071 49.8416 102.155 47.2715 100.133C44.7015 98.1104 44.0273 94.7398 44.0273 94.7398C44.0273 94.7398 47.5243 94.6555 50.0944 96.6778Z" fill="#B798E1"/>
<path d="M46.9772 101.944C50.095 100.849 53.3392 102.071 53.3392 102.071C53.3392 102.071 51.5696 105.02 48.4518 106.116C45.334 107.211 42.0898 105.989 42.0898 105.989C42.0898 105.989 43.8594 103.04 46.9772 101.944Z" fill="#B798E1"/>
<path d="M40.0269 93.9808C42.302 96.3402 42.5127 99.7529 42.5127 99.7529C42.5127 99.7529 39.0578 99.3737 36.7827 97.0143C34.5075 94.6549 34.2969 91.2422 34.2969 91.2422C34.2969 91.2422 37.7939 91.6214 40.0269 93.9808Z" fill="#B798E1"/>
<path d="M36.2367 98.7414C39.4809 98.1094 42.5144 99.7105 42.5144 99.7105C42.5144 99.7105 40.3657 102.407 37.1215 103.039C33.8773 103.671 30.8438 102.07 30.8438 102.07C30.8438 102.07 32.9925 99.4155 36.2367 98.7414Z" fill="#B798E1"/>
<path d="M32.1468 90.0617C34.0007 92.7582 33.6636 96.1709 33.6636 96.1709C33.6636 96.1709 30.293 95.244 28.4392 92.5897C26.5853 89.8932 26.9224 86.4805 26.9224 86.4805C26.9224 86.4805 30.293 87.3652 32.1468 90.0617Z" fill="#B798E1"/>
<path d="M27.5986 94.1911C30.8849 94.0647 33.6657 96.1292 33.6657 96.1292C33.6657 96.1292 31.0956 98.4465 27.8093 98.5729C24.5229 98.6993 21.7422 96.6348 21.7422 96.6348C21.7422 96.6348 24.3123 94.3175 27.5986 94.1911Z" fill="#B798E1"/>
<path d="M24.7784 84.0792C25.916 87.1127 24.7363 90.3569 24.7363 90.3569C24.7363 90.3569 21.7028 88.6716 20.5652 85.6381C19.4276 82.6045 20.6073 79.3604 20.6073 79.3604C20.6073 79.3604 23.5987 81.0456 24.7784 84.0792Z" fill="#B798E1"/>
<path d="M19.3402 87.0286C22.5844 87.7027 24.7332 90.357 24.7332 90.357C24.7332 90.357 21.6575 92.0002 18.4555 91.3261C15.2113 90.6519 13.0625 87.9976 13.0625 87.9976C13.0625 87.9976 16.096 86.3544 19.3402 87.0286Z" fill="#B798E1"/>
<path d="M19.1694 77.2119C19.5486 80.4139 17.6526 83.2789 17.6526 83.2789C17.6526 83.2789 15.1246 80.9195 14.7455 77.7175C14.3663 74.5154 16.2622 71.6504 16.2622 71.6504C16.2622 71.6504 18.7902 73.9677 19.1694 77.2119Z" fill="#B798E1"/>
<path d="M13.1901 78.7705C16.1815 80.1609 17.614 83.2787 17.614 83.2787C17.614 83.2787 14.2434 84.1635 11.252 82.7731C8.26063 81.3828 6.82812 78.265 6.82812 78.265C6.82812 78.265 10.2409 77.4223 13.1901 78.7705Z" fill="#B798E1"/>
<path d="M14.4095 68.5328C14.1146 71.777 11.6709 74.1785 11.6709 74.1785C11.6709 74.1785 9.64852 71.3556 9.94345 68.1536C10.2384 64.9094 12.6821 62.5078 12.6821 62.5078C12.6821 62.5078 14.6623 65.2886 14.4095 68.5328Z" fill="#B798E1"/>
<path d="M8.21467 68.9119C10.869 70.85 11.6695 74.1784 11.6695 74.1784C11.6695 74.1784 8.17254 74.3891 5.56033 72.451C2.90598 70.5129 2.10547 67.1845 2.10547 67.1845C2.10547 67.1845 5.60246 66.9738 8.21467 68.9119Z" fill="#B798E1"/>
<path d="M11.9652 60.2327C11.1647 63.3926 8.34182 65.415 8.34182 65.415C8.34182 65.415 6.82506 62.3393 7.58344 59.1794C8.38396 56.0194 11.2068 53.9971 11.2068 53.9971C11.2068 53.9971 12.7236 57.0727 11.9652 60.2327Z" fill="#B798E1"/>
<path d="M5.77214 59.6436C8.08943 61.9609 8.34222 65.3736 8.34222 65.3736C8.34222 65.3736 4.88736 65.0366 2.57008 62.7193C0.252795 60.402 0 56.9893 0 56.9893C0 56.9893 3.49699 57.3263 5.77214 59.6436Z" fill="#B798E1"/>
<path d="M11.6721 51.0061C10.1132 53.8711 6.91116 55.1772 6.91116 55.1772C6.91116 55.1772 6.19491 51.8066 7.71168 48.9416C9.27058 46.0766 12.4726 44.7705 12.4726 44.7705C12.4726 44.7705 13.231 48.1411 11.6721 51.0061Z" fill="#B798E1"/>
<path d="M5.85673 48.9839C7.4999 51.8068 6.91004 55.1774 6.91004 55.1774C6.91004 55.1774 3.62371 53.9976 1.98055 51.2169C0.337382 48.394 0.927236 45.0234 0.927236 45.0234C0.927236 45.0234 4.21357 46.161 5.85673 48.9839Z" fill="#B798E1"/>
<path d="M13.3137 41.6943C11.1228 44.138 7.66797 44.6436 7.66797 44.6436C7.66797 44.6436 7.75223 41.2308 9.94312 38.7872C12.134 36.3435 15.5889 35.8379 15.5889 35.8379C15.5889 35.8379 15.5046 39.2506 13.3137 41.6943Z" fill="#B798E1"/>
<path d="M8.13176 38.3662C9.05867 41.484 7.6683 44.6018 7.6683 44.6018C7.6683 44.6018 4.8033 42.7479 3.83425 39.6301C2.90734 36.5123 4.29771 33.3945 4.29771 33.3945C4.29771 33.3945 7.20485 35.2484 8.13176 38.3662Z" fill="#B798E1"/>
<path d="M16.6826 34.0269C13.9861 35.8807 10.5312 35.6279 10.5312 35.6279C10.5312 35.6279 11.416 32.2995 14.1125 30.4456C16.809 28.5918 20.2638 28.8446 20.2638 28.8446C20.2638 28.8446 19.3791 32.1731 16.6826 34.0269Z" fill="#B798E1"/>
<path d="M12.4264 29.6451C12.6371 32.8892 10.5305 35.6279 10.5305 35.6279C10.5305 35.6279 8.12893 33.142 7.9604 29.8978C7.74974 26.6536 9.81423 23.915 9.81423 23.915C9.81423 23.915 12.2158 26.4009 12.4264 29.6451Z" fill="#B798E1"/>
<path d="M20.898 27.117C17.9487 28.5495 14.5781 27.749 14.5781 27.749C14.5781 27.749 15.9685 24.6312 18.9599 23.1987C21.9092 21.7662 25.2798 22.5667 25.2798 22.5667C25.2798 22.5667 23.8894 25.6845 20.898 27.117Z" fill="#B798E1"/>
<path d="M17.4031 22.1032C17.066 25.3474 14.5802 27.7068 14.5802 27.7068C14.5802 27.7068 12.6 24.8839 12.9371 21.6397C13.2741 18.3955 15.7599 16.0361 15.7599 16.0361C15.7599 16.0361 17.7402 18.859 17.4031 22.1032Z" fill="#B798E1"/>
<path d="M67.959 96.256C65.389 98.2783 64.7148 101.649 64.7148 101.649C64.7148 101.649 68.2118 101.733 70.7819 99.7108C73.352 97.6885 74.0261 94.3179 74.0261 94.3179C74.0261 94.3179 70.5291 94.2336 67.959 96.256Z" fill="#B798E1"/>
<path d="M71.0768 101.523C67.959 100.427 64.7148 101.649 64.7148 101.649C64.7148 101.649 66.4844 104.598 69.6022 105.694C72.72 106.789 75.9642 105.567 75.9642 105.567C75.9642 105.567 74.1525 102.576 71.0768 101.523Z" fill="#B798E1"/>
<path d="M76.7202 93.9818C74.445 96.3412 74.2344 99.7539 74.2344 99.7539C74.2344 99.7539 77.6892 99.3747 79.9644 97.0153C82.2395 94.6559 82.4502 91.2432 82.4502 91.2432C82.4502 91.2432 78.9953 91.6224 76.7202 93.9818Z" fill="#B798E1"/>
<path d="M80.5121 98.7424C77.2679 98.1104 74.2344 99.7114 74.2344 99.7114C74.2344 99.7114 76.3831 102.408 79.6273 103.04C82.8715 103.672 85.9051 102.071 85.9051 102.071C85.9051 102.071 83.7563 99.4165 80.5121 98.7424Z" fill="#B798E1"/>
<path d="M84.5993 89.7268C82.7455 92.4232 83.0826 95.836 83.0826 95.836C83.0826 95.836 86.4532 94.9091 88.307 92.2547C90.1608 89.5582 89.8238 86.1455 89.8238 86.1455C89.8238 86.1455 86.4532 87.0303 84.5993 89.7268Z" fill="#B798E1"/>
<path d="M89.1491 93.8552C85.8628 93.7288 83.082 95.7933 83.082 95.7933C83.082 95.7933 85.6521 98.1106 88.9384 98.237C92.2248 98.3634 95.0055 96.2989 95.0055 96.2989C95.0055 96.2989 92.4354 93.9816 89.1491 93.8552Z" fill="#B798E1"/>
<path d="M91.7215 83.9122C90.5839 86.9457 91.7636 90.1899 91.7636 90.1899C91.7636 90.1899 94.7971 88.5046 95.9347 85.4711C97.0723 82.4376 95.8926 79.1934 95.8926 79.1934C95.8926 79.1934 92.859 80.8787 91.7215 83.9122Z" fill="#B798E1"/>
<path d="M97.1547 86.8616C93.9105 87.5357 91.7617 90.19 91.7617 90.19C91.7617 90.19 94.8374 91.8332 98.0394 91.1591C101.284 90.485 103.432 87.8306 103.432 87.8306C103.432 87.8306 100.399 86.1875 97.1547 86.8616Z" fill="#B798E1"/>
<path d="M97.6205 76.581C97.2413 79.7831 99.1372 82.6481 99.1372 82.6481C99.1372 82.6481 101.665 80.2887 102.044 77.0866C102.424 73.8845 100.528 71.0195 100.528 71.0195C100.528 71.0195 97.9996 73.3368 97.6205 76.581Z" fill="#B798E1"/>
<path d="M103.604 78.1397C100.612 79.5301 99.1797 82.6479 99.1797 82.6479C99.1797 82.6479 102.55 83.5326 105.542 82.1423C108.533 80.7519 109.966 77.6341 109.966 77.6341C109.966 77.6341 106.595 76.7915 103.604 78.1397Z" fill="#B798E1"/>
<path d="M101.835 68.3638C102.13 71.608 104.573 74.0096 104.573 74.0096C104.573 74.0096 106.596 71.1867 106.301 67.9846C106.006 64.7404 103.562 62.3389 103.562 62.3389C103.562 62.3389 101.582 65.1196 101.835 68.3638Z" fill="#B798E1"/>
<path d="M108.029 68.7439C105.375 70.682 104.574 74.0105 104.574 74.0105C104.574 74.0105 108.071 74.2211 110.683 72.283C113.338 70.3449 114.138 67.0165 114.138 67.0165C114.138 67.0165 110.683 66.8058 108.029 68.7439Z" fill="#B798E1"/>
<path d="M104.318 60.0637C105.119 63.2237 107.942 65.246 107.942 65.246C107.942 65.246 109.459 62.1704 108.7 59.0104C107.9 55.8505 105.077 53.8281 105.077 53.8281C105.077 53.8281 103.518 56.9038 104.318 60.0637Z" fill="#B798E1"/>
<path d="M110.469 59.4747C108.193 61.7919 107.898 65.2047 107.898 65.2047C107.898 65.2047 111.353 64.8676 113.671 62.5503C115.988 60.233 116.241 56.8203 116.241 56.8203C116.241 56.8203 112.744 57.1574 110.469 59.4747Z" fill="#B798E1"/>
<path d="M104.528 51.1321C106.087 53.9971 109.289 55.3032 109.289 55.3032C109.289 55.3032 110.005 51.9326 108.488 49.0676C106.929 46.2026 103.727 44.8965 103.727 44.8965C103.727 44.8965 102.969 48.2671 104.528 51.1321Z" fill="#B798E1"/>
<path d="M110.344 49.1099C108.701 51.9327 109.291 55.3033 109.291 55.3033C109.291 55.3033 112.577 54.1236 114.22 51.3429C115.863 48.52 115.273 45.1494 115.273 45.1494C115.273 45.1494 112.029 46.287 110.344 49.1099Z" fill="#B798E1"/>
<path d="M102.802 41.8203C104.993 44.264 108.448 44.7695 108.448 44.7695C108.448 44.7695 108.364 41.3568 106.173 38.9131C103.982 36.4695 100.527 35.9639 100.527 35.9639C100.527 35.9639 100.612 39.3766 102.802 41.8203Z" fill="#B798E1"/>
<path d="M107.987 38.4923C107.06 41.6101 108.45 44.7279 108.45 44.7279C108.45 44.7279 111.357 42.8319 112.284 39.7141C113.211 36.5963 111.821 33.4785 111.821 33.4785C111.821 33.4785 108.914 35.3745 107.987 38.4923Z" fill="#B798E1"/>
<path d="M99.5188 34.2798C102.215 36.1337 105.67 35.8809 105.67 35.8809C105.67 35.8809 104.785 32.5524 102.089 30.6986C99.3924 28.8448 95.9375 29.0975 95.9375 29.0975C95.9375 29.0975 96.8644 32.426 99.5188 34.2798Z" fill="#B798E1"/>
<path d="M103.816 29.898C103.605 33.1422 105.712 35.8808 105.712 35.8808C105.712 35.8808 108.113 33.395 108.282 30.1508C108.492 26.9066 106.386 24.168 106.386 24.168C106.386 24.168 103.984 26.6538 103.816 29.898Z" fill="#B798E1"/>
<path d="M95.0506 27.4121C97.9999 28.8446 101.37 28.0441 101.37 28.0441C101.37 28.0441 100.022 24.8842 97.0308 23.4516C94.0815 22.0191 90.7109 22.8197 90.7109 22.8197C90.7109 22.8197 92.1013 25.9796 95.0506 27.4121Z" fill="#B798E1"/>
<path d="M98.5894 22.3981C98.9265 25.6423 101.412 28.0017 101.412 28.0017C101.412 28.0017 103.392 25.1789 103.055 21.9347C102.718 18.6905 100.233 16.3311 100.233 16.3311C100.233 16.3311 98.2523 19.1961 98.5894 22.3981Z" fill="#B798E1"/>
<path d="M92.6935 17.5107C92.5671 17.6371 92.3986 17.8057 92.23 17.9321C92.1879 17.9742 92.1458 18.0163 92.0615 18.0163C102.384 26.822 108.914 39.546 108.914 53.6604C108.914 80.1195 86.1208 101.691 58.0606 101.691C30.0425 101.691 7.20677 80.1617 7.20677 53.6604C7.20677 40.1359 13.1474 27.9175 22.6694 19.196C22.4166 19.1118 22.1216 19.0275 21.8689 18.859C12.3048 27.7068 6.40625 40.0516 6.40625 53.6604C6.40625 80.5409 29.5791 102.45 58.0606 102.45C86.5422 102.45 109.715 80.583 109.715 53.6604C109.715 39.3775 103.142 26.4428 92.6935 17.5107Z" fill="#B798E1"/>
<path d="M27.7652 20.9651C24.5631 21.6392 21.4453 20.0382 21.4453 20.0382C21.4453 20.0382 23.5941 17.3417 26.7961 16.6676C29.9982 15.9935 33.116 17.5945 33.116 17.5945C33.116 17.5945 30.9672 20.291 27.7652 20.9651Z" fill="#B798E1"/>
<path d="M25.5729 15.2777C24.4774 18.3113 21.4439 20.0387 21.4439 20.0387C21.4439 20.0387 20.2221 16.8366 21.3596 13.761C22.4551 10.7274 25.4886 9 25.4886 9C25.4886 9 26.7105 12.2442 25.5729 15.2777Z" fill="#B798E1"/>
<path d="M88.5618 20.9651C91.7638 21.6392 94.8816 20.0382 94.8816 20.0382C94.8816 20.0382 92.7329 17.3417 89.5308 16.6676C86.3287 15.9935 83.2109 17.5945 83.2109 17.5945C83.2109 17.5945 85.3597 20.291 88.5618 20.9651Z" fill="#B798E1"/>
<path d="M90.755 15.2777C91.8504 18.3113 94.884 20.0387 94.884 20.0387C94.884 20.0387 96.1058 16.8366 94.9682 13.761C93.8728 10.7274 90.8393 9 90.8393 9C90.8393 9 89.6596 12.2442 90.755 15.2777Z" fill="#B798E1"/>
<path d="M36.822 27.6H43.77V29.22H41.19V36H39.402V29.22H36.822V27.6ZM44.0941 31.8C44.0941 29.52 45.5821 27.432 48.5581 27.432C51.5341 27.432 53.0221 29.52 53.0221 31.8C53.0221 34.08 51.5341 36.168 48.5581 36.168C45.5821 36.168 44.0941 34.08 44.0941 31.8ZM51.1741 31.8C51.1741 30.324 50.2981 29.1 48.5581 29.1C46.8061 29.1 45.9301 30.324 45.9301 31.8C45.9301 33.276 46.8061 34.5 48.5581 34.5C50.2981 34.5 51.1741 33.276 51.1741 31.8ZM54.359 27.6H57.527C59.555 27.6 61.151 28.248 61.151 30.42C61.151 32.592 59.555 33.24 57.527 33.24H56.159V36H54.359V27.6ZM59.315 30.42C59.315 29.424 58.535 29.184 57.611 29.184H56.159V31.656H57.611C58.535 31.656 59.315 31.404 59.315 30.42ZM64.8629 27.828H70.0469V29.376L66.4829 29.364L66.3749 30.96C66.7229 30.888 67.0949 30.84 67.4309 30.84C69.0629 30.84 70.4189 31.572 70.4189 33.444C70.4189 35.34 68.7629 36.168 66.9629 36.168C66.0149 36.168 65.0549 35.964 64.3349 35.616V33.948C64.9949 34.368 65.9429 34.596 66.7589 34.596C67.8269 34.596 68.6189 34.212 68.6189 33.42C68.6189 32.616 67.9349 32.22 66.6269 32.22C66.0389 32.22 65.2829 32.316 64.5749 32.568L64.8629 27.828ZM71.3773 31.92C71.3773 29.568 72.4933 27.672 75.0973 27.672C77.7013 27.672 78.8173 29.568 78.8173 31.92C78.8173 34.272 77.7013 36.168 75.0973 36.168C72.4933 36.168 71.3773 34.272 71.3773 31.92ZM77.0173 31.92C77.0173 30.18 76.4173 29.256 75.0973 29.256C73.7773 29.256 73.1773 30.18 73.1773 31.92C73.1773 33.66 73.7773 34.584 75.0973 34.584C76.4173 34.584 77.0173 33.66 77.0173 31.92Z" fill="#221E26"/>
<path d="M33.4572 1.84H34.7652V8.452H36.1332V10H31.4772V8.452H33.0132V3.64L31.4772 4.216V2.596L33.4572 1.84ZM36.9159 6.376H41.3799V7.78H36.9159V6.376ZM42.5009 5.848C42.5009 4.516 43.6889 4.072 44.9009 4.072C45.7169 4.072 46.4369 4.276 47.0249 4.564V5.932C46.5329 5.596 45.6929 5.344 45.0089 5.344C44.6369 5.344 44.2049 5.452 44.2049 5.8C44.2049 6.76 47.4569 6.28 47.4569 8.392C47.4569 9.748 46.2209 10.168 44.8409 10.168C43.9649 10.168 43.1369 9.976 42.5489 9.628V8.248C43.1729 8.656 44.0489 8.86 44.7449 8.86C45.3569 8.86 45.7529 8.752 45.7529 8.428C45.7529 7.504 42.5009 7.912 42.5009 5.848ZM48.9037 2.56L50.5597 2.164V4.24H52.3837V5.644H50.5597V7.9C50.5597 8.5 50.8597 8.764 51.4837 8.764C51.8677 8.764 52.1917 8.704 52.5277 8.572V9.916C52.0837 10.072 51.5557 10.168 50.9797 10.168C49.8637 10.168 48.9037 9.652 48.9037 8.224V5.644H47.9317V4.24H48.9037V2.56ZM57.6235 5.08C57.9835 4.564 58.6435 4.072 59.7115 4.072C61.5355 4.072 62.5195 5.548 62.5195 7.12C62.5195 8.692 61.5355 10.168 59.7115 10.168C58.7995 10.168 58.1875 9.796 57.8155 9.388V12.64H56.1475V4.24H57.6235V5.08ZM60.8155 7.12C60.8155 6.22 60.2515 5.476 59.3035 5.476C58.5715 5.476 58.0315 5.932 57.8035 6.436V7.804C58.0315 8.308 58.5715 8.764 59.3035 8.764C60.2515 8.764 60.8155 8.02 60.8155 7.12ZM63.6363 1.24H65.3043V10H63.6363V1.24ZM71.8892 8.512C71.8892 8.812 72.0812 8.896 72.2972 8.896C72.3932 8.896 72.5012 8.884 72.6092 8.848V9.94C72.3452 10.036 72.0092 10.108 71.6852 10.108C71.0972 10.108 70.6532 9.892 70.4132 9.46C69.8492 9.904 69.1892 10.168 68.3372 10.168C67.2572 10.168 66.3212 9.544 66.3212 8.404C66.3212 6.94 67.7012 6.484 68.8532 6.484C69.3092 6.484 69.8132 6.544 70.2212 6.64V6.436C70.2212 5.86 69.7652 5.464 68.8652 5.464C68.0732 5.464 67.3652 5.68 66.8252 5.896V4.456C67.2932 4.3 68.1692 4.072 69.0572 4.072C70.7852 4.072 71.8892 4.78 71.8892 6.676V8.512ZM69.2372 7.48C68.6252 7.48 68.0252 7.684 68.0252 8.272C68.0252 8.704 68.4212 8.98 68.9252 8.98C69.3932 8.98 69.8372 8.848 70.2212 8.512V7.612C69.9692 7.552 69.5852 7.48 69.2372 7.48ZM73.0735 7.204C73.0735 4.996 74.7295 4.06 76.3255 4.06C76.9615 4.06 77.5855 4.204 78.1015 4.48V5.944C77.6935 5.68 77.1175 5.512 76.5655 5.512C75.6535 5.512 74.7775 5.956 74.7775 7.12C74.7775 8.224 75.6415 8.728 76.5415 8.728C77.1535 8.728 77.7415 8.56 78.1615 8.308V9.784C77.5975 10.024 76.9495 10.168 76.2175 10.168C74.6455 10.168 73.0735 9.256 73.0735 7.204ZM78.9563 7.12C78.9563 4.948 80.6243 4.072 81.9203 4.072C84.3083 4.072 85.0763 5.956 84.6923 7.66H80.6363C80.8283 8.5 81.7163 8.848 82.6643 8.848C83.3243 8.848 83.9123 8.716 84.4043 8.5V9.808C83.8643 10.036 83.1563 10.168 82.2923 10.168C80.4683 10.168 78.9563 9.124 78.9563 7.12ZM83.1923 6.58C83.2523 6.184 83.0243 5.344 81.9803 5.344C81.2723 5.344 80.6483 5.788 80.6243 6.58H83.1923Z" fill="#221E26"/>
<path d="M43.797 67.536C44.637 66.936 45.609 66.672 46.605 66.672C48.249 66.672 49.581 67.416 49.581 69.084C49.581 70.464 48.441 71.28 47.373 71.916C46.401 72.492 45.573 72.936 45.561 73.464L49.641 73.452V75H43.521V74.196C43.521 72.228 45.009 71.46 46.209 70.752C47.061 70.26 47.793 69.936 47.793 69.156C47.793 68.556 47.265 68.244 46.437 68.244C45.621 68.244 44.661 68.556 43.797 69.216V67.536ZM50.7055 70.92C50.7055 68.568 51.8215 66.672 54.4255 66.672C57.0295 66.672 58.1455 68.568 58.1455 70.92C58.1455 73.272 57.0295 75.168 54.4255 75.168C51.8215 75.168 50.7055 73.272 50.7055 70.92ZM56.3455 70.92C56.3455 69.18 55.7455 68.256 54.4255 68.256C53.1055 68.256 52.5055 69.18 52.5055 70.92C52.5055 72.66 53.1055 73.584 54.4255 73.584C55.7455 73.584 56.3455 72.66 56.3455 70.92ZM59.4181 67.536C60.2581 66.936 61.2301 66.672 62.2261 66.672C63.8701 66.672 65.2021 67.416 65.2021 69.084C65.2021 70.464 64.0621 71.28 62.9941 71.916C62.0221 72.492 61.1941 72.936 61.1821 73.464L65.2621 73.452V75H59.1421V74.196C59.1421 72.228 60.6301 71.46 61.8301 70.752C62.6821 70.26 63.4141 69.936 63.4141 69.156C63.4141 68.556 62.8861 68.244 62.0581 68.244C61.2421 68.244 60.2821 68.556 59.4181 69.216V67.536ZM66.5665 67.536C67.4065 66.936 68.3785 66.672 69.3745 66.672C71.0185 66.672 72.3505 67.416 72.3505 69.084C72.3505 70.464 71.2105 71.28 70.1425 71.916C69.1705 72.492 68.3425 72.936 68.3305 73.464L72.4105 73.452V75H66.2905V74.196C66.2905 72.228 67.7785 71.46 68.9785 70.752C69.8305 70.26 70.5625 69.936 70.5625 69.156C70.5625 68.556 70.0345 68.244 69.2065 68.244C68.3905 68.244 67.4305 68.556 66.5665 69.216V67.536Z" fill="#221E26"/>
<path d="M40.8289 42.7H41.4769V49H40.7209V44.131L38.4619 47.515H37.9939L35.7349 44.131V49H34.9789V42.7H35.6269L38.2279 46.588L40.8289 42.7ZM42.5794 46.84C42.5794 45.364 43.7134 44.572 44.8834 44.572C46.0624 44.572 47.1874 45.364 47.1874 46.84C47.1874 48.316 46.0624 49.108 44.8834 49.108C43.7134 49.108 42.5794 48.316 42.5794 46.84ZM46.4674 46.84C46.4674 45.841 45.7654 45.256 44.8834 45.256C44.0014 45.256 43.2994 45.841 43.2994 46.84C43.2994 47.839 44.0014 48.424 44.8834 48.424C45.7654 48.424 46.4674 47.839 46.4674 46.84ZM48.2202 42.7H48.9402V45.328C49.2552 44.959 49.7862 44.572 50.6142 44.572C51.8472 44.572 52.7742 45.544 52.7742 46.84C52.7742 48.136 51.8472 49.108 50.6142 49.108C49.7862 49.108 49.2552 48.721 48.8682 48.28V49H48.2202V42.7ZM52.0542 46.84C52.0542 45.85 51.3702 45.238 50.5332 45.238C49.7592 45.238 49.1832 45.742 48.9402 46.3V47.38C49.1832 47.938 49.7592 48.442 50.5332 48.442C51.3702 48.442 52.0542 47.83 52.0542 46.84ZM54.548 49H53.828V44.68H54.548V49ZM54.656 43.303C54.656 43.609 54.44 43.762 54.188 43.762C53.936 43.762 53.72 43.609 53.72 43.303C53.72 43.006 53.936 42.844 54.188 42.844C54.44 42.844 54.656 43.006 54.656 43.303ZM55.9198 42.43H56.6398V49H55.9198V42.43ZM57.6966 46.84C57.6966 45.328 58.8216 44.572 59.8476 44.572C61.5126 44.572 62.1246 45.931 61.8546 47.155H58.4166C58.5066 48.064 59.3256 48.442 60.1986 48.442C60.7296 48.442 61.2516 48.298 61.6206 48.091V48.793C61.2246 49 60.6576 49.108 60.0906 49.108C58.8126 49.108 57.6966 48.379 57.6966 46.84ZM61.2156 46.525C61.2786 46.066 60.9906 45.238 59.8926 45.238C59.1546 45.238 58.4706 45.679 58.4166 46.525H61.2156ZM65.1003 49H64.2813L67.0263 42.7H67.8633L70.5993 49H69.7893L69.1413 47.479H65.7483L65.1003 49ZM67.3413 43.717L66.0453 46.777H68.8443L67.5393 43.717C67.5033 43.636 67.4763 43.564 67.4403 43.474C67.4043 43.564 67.3773 43.636 67.3413 43.717ZM71.9834 45.4C72.3704 44.959 72.9014 44.572 73.7294 44.572C74.9624 44.572 75.8894 45.544 75.8894 46.84C75.8894 48.136 74.9624 49.108 73.7294 49.108C72.9014 49.108 72.3704 48.721 72.0554 48.352V50.98H71.3354V44.68H71.9834V45.4ZM75.1694 46.84C75.1694 45.85 74.4854 45.238 73.6484 45.238C72.8744 45.238 72.2984 45.742 72.0554 46.3V47.38C72.2984 47.938 72.8744 48.442 73.6484 48.442C74.4854 48.442 75.1694 47.83 75.1694 46.84ZM77.5733 45.4C77.9603 44.959 78.4913 44.572 79.3193 44.572C80.5523 44.572 81.4793 45.544 81.4793 46.84C81.4793 48.136 80.5523 49.108 79.3193 49.108C78.4913 49.108 77.9603 48.721 77.6453 48.352V50.98H76.9253V44.68H77.5733V45.4ZM80.7593 46.84C80.7593 45.85 80.0753 45.238 79.2383 45.238C78.4643 45.238 77.8883 45.742 77.6453 46.3V47.38C77.8883 47.938 78.4643 48.442 79.2383 48.442C80.0753 48.442 80.7593 47.83 80.7593 46.84ZM23.6463 52.7H24.2943V59H23.5383V54.131L21.2793 57.515H20.8113L18.5523 54.131V59H17.7963V52.7H18.4443L21.0453 56.588L23.6463 52.7ZM29.2302 58.1C29.2302 58.361 29.3742 58.433 29.5632 58.433C29.6712 58.433 29.7882 58.406 29.8962 58.37V58.955C29.7252 59.018 29.5362 59.054 29.3562 59.054C29.0052 59.054 28.6902 58.91 28.5642 58.532C28.1322 58.892 27.5832 59.108 26.8812 59.108C26.1162 59.108 25.3602 58.703 25.3602 57.794C25.3602 56.678 26.3862 56.336 27.3132 56.336C27.6912 56.336 28.1502 56.39 28.5102 56.471V56.318C28.5102 55.67 28.0692 55.238 27.2772 55.238C26.6112 55.238 26.0802 55.4 25.7022 55.562V54.86C26.0442 54.743 26.6382 54.572 27.3492 54.572C28.5012 54.572 29.2302 55.202 29.2302 56.408V58.1ZM26.0982 57.758C26.0982 58.262 26.5572 58.487 27.0342 58.487C27.5832 58.487 28.1322 58.262 28.5102 57.857V57.065C28.2042 57.002 27.7632 56.939 27.4122 56.939C26.7822 56.939 26.0982 57.128 26.0982 57.758ZM31.2637 55.445C31.6057 54.878 32.3707 54.527 33.1267 54.59V55.31C32.2807 55.211 31.5967 55.616 31.3357 56.309V59H30.6157V54.68H31.2637V55.445ZM37.9076 59H37.0616L35.4776 57.146H34.6316V59H33.9116V52.7H34.6316V56.48H35.5046L36.8726 54.68H37.7096L36.0716 56.831L37.9076 59ZM38.1058 56.84C38.1058 55.328 39.2308 54.572 40.2568 54.572C41.9218 54.572 42.5338 55.931 42.2638 57.155H38.8258C38.9158 58.064 39.7348 58.442 40.6078 58.442C41.1388 58.442 41.6608 58.298 42.0298 58.091V58.793C41.6338 59 41.0668 59.108 40.4998 59.108C39.2218 59.108 38.1058 58.379 38.1058 56.84ZM41.6248 56.525C41.6878 56.066 41.3998 55.238 40.3018 55.238C39.5638 55.238 38.8798 55.679 38.8258 56.525H41.6248ZM43.5775 53.339L44.2885 53.159V54.68H46.0165V55.346H44.2885V57.578C44.2885 58.235 44.5855 58.433 45.2155 58.433C45.5575 58.433 45.8815 58.352 46.1695 58.235V58.901C45.8455 59.018 45.4225 59.099 45.0085 59.099C44.1715 59.099 43.5775 58.649 43.5775 57.704V55.346H42.7675V54.68H43.5775V53.339ZM47.7189 59H46.9989V54.68H47.7189V59ZM47.8269 53.303C47.8269 53.609 47.6109 53.762 47.3589 53.762C47.1069 53.762 46.8909 53.609 46.8909 53.303C46.8909 53.006 47.1069 52.844 47.3589 52.844C47.6109 52.844 47.8269 53.006 47.8269 53.303ZM49.7207 55.319C50.0087 54.941 50.5847 54.572 51.2777 54.572C52.3127 54.572 53.0777 55.283 53.0777 56.336V59H52.3577V56.426C52.3577 55.616 51.8627 55.238 51.1967 55.238C50.5577 55.238 50.0807 55.67 49.7927 56.102V59H49.0727V54.68H49.7207V55.319ZM54.058 56.84C54.058 55.544 54.985 54.572 56.218 54.572C57.046 54.572 57.577 54.959 57.964 55.4V54.68H58.612V59C58.612 60.485 57.451 61.088 56.254 61.088C55.615 61.088 55.012 60.944 54.499 60.683V59.981C55.012 60.269 55.57 60.422 56.164 60.422C57.082 60.422 57.901 60.071 57.892 59V58.334C57.577 58.721 57.046 59.108 56.218 59.108C54.985 59.108 54.058 58.136 54.058 56.84ZM57.892 56.3C57.649 55.742 57.073 55.238 56.299 55.238C55.462 55.238 54.778 55.85 54.778 56.84C54.778 57.83 55.462 58.442 56.299 58.442C57.073 58.442 57.649 57.974 57.892 57.47V56.3ZM62.1208 59H61.3018L64.0468 52.7H64.8838L67.6198 59H66.8098L66.1618 57.479H62.7688L62.1208 59ZM64.3618 53.717L63.0658 56.777H65.8648L64.5598 53.717C64.5238 53.636 64.4968 53.564 64.4608 53.474C64.4248 53.564 64.3978 53.636 64.3618 53.717ZM67.9447 56.84C67.9447 55.544 68.8717 54.572 70.1047 54.572C70.9327 54.572 71.4637 54.959 71.8507 55.4V54.68H72.4987V59C72.4987 60.485 71.3377 61.088 70.1407 61.088C69.5017 61.088 68.8987 60.944 68.3857 60.683V59.981C68.8987 60.269 69.4567 60.422 70.0507 60.422C70.9687 60.422 71.7877 60.071 71.7787 59V58.334C71.4637 58.721 70.9327 59.108 70.1047 59.108C68.8717 59.108 67.9447 58.136 67.9447 56.84ZM71.7787 56.3C71.5357 55.742 70.9597 55.238 70.1857 55.238C69.3487 55.238 68.6647 55.85 68.6647 56.84C68.6647 57.83 69.3487 58.442 70.1857 58.442C70.9597 58.442 71.5357 57.974 71.7787 57.47V56.3ZM73.5345 56.84C73.5345 55.328 74.6595 54.572 75.6855 54.572C77.3505 54.572 77.9625 55.931 77.6925 57.155H74.2545C74.3445 58.064 75.1635 58.442 76.0365 58.442C76.5675 58.442 77.0895 58.298 77.4585 58.091V58.793C77.0625 59 76.4955 59.108 75.9285 59.108C74.6505 59.108 73.5345 58.379 73.5345 56.84ZM77.0535 56.525C77.1165 56.066 76.8285 55.238 75.7305 55.238C74.9925 55.238 74.3085 55.679 74.2545 56.525H77.0535ZM79.4102 55.319C79.6982 54.941 80.2742 54.572 80.9672 54.572C82.0022 54.572 82.7672 55.283 82.7672 56.336V59H82.0472V56.426C82.0472 55.616 81.5522 55.238 80.8862 55.238C80.2472 55.238 79.7702 55.67 79.4822 56.102V59H78.7622V54.68H79.4102V55.319ZM83.7474 56.858C83.7474 55.283 84.9624 54.572 86.0874 54.572C86.5734 54.572 87.0504 54.68 87.4194 54.923V55.625C87.0954 55.373 86.6364 55.238 86.1774 55.238C85.3404 55.238 84.4674 55.706 84.4674 56.84C84.4674 57.947 85.3134 58.442 86.1594 58.442C86.6274 58.442 87.1044 58.307 87.4644 58.091V58.811C87.0594 59.009 86.6004 59.108 86.0604 59.108C84.9264 59.108 83.7474 58.397 83.7474 56.858ZM89.2209 59H88.5009V54.68H89.2209V59ZM89.3289 53.303C89.3289 53.609 89.1129 53.762 88.8609 53.762C88.6089 53.762 88.3929 53.609 88.3929 53.303C88.3929 53.006 88.6089 52.844 88.8609 52.844C89.1129 52.844 89.3289 53.006 89.3289 53.303ZM90.2777 56.84C90.2777 55.328 91.4027 54.572 92.4287 54.572C94.0937 54.572 94.7057 55.931 94.4357 57.155H90.9977C91.0877 58.064 91.9067 58.442 92.7797 58.442C93.3107 58.442 93.8327 58.298 94.2017 58.091V58.793C93.8057 59 93.2387 59.108 92.6717 59.108C91.3937 59.108 90.2777 58.379 90.2777 56.84ZM93.7967 56.525C93.8597 56.066 93.5717 55.238 92.4737 55.238C91.7357 55.238 91.0517 55.679 90.9977 56.525H93.7967ZM95.2534 55.814C95.2534 54.923 96.0904 54.572 96.9004 54.572C97.4764 54.572 98.0254 54.725 98.4304 54.941V55.625C98.0704 55.391 97.4674 55.22 96.9454 55.22C96.4774 55.22 95.9824 55.373 95.9824 55.796C95.9824 56.732 98.7274 56.336 98.7274 57.893C98.7274 58.793 97.8814 59.108 96.9454 59.108C96.3334 59.108 95.6764 58.946 95.2714 58.685V57.983C95.7124 58.28 96.3694 58.442 96.9094 58.442C97.5214 58.442 98.0074 58.343 98.0074 57.911C98.0074 57.002 95.2534 57.362 95.2534 55.814Z" fill="#221E26"/>
<path d="M72.9169 125.305H8.89062V136.092H72.9169V125.305Z" fill="#FEF1F1"/>
<path d="M75.9338 137.349H7.07593C6.99548 137.062 6.9678 124.583 7.04825 124H75.9288L75.9338 137.349ZM14.321 134.724V127.213C13.6472 127.102 13.5668 127.165 13.4361 127.768C13.2299 128.828 13.023 129.887 12.8152 130.946C12.7724 131.157 12.7146 131.366 12.6618 131.577C12.4607 130.853 12.3123 130.139 12.159 129.428C12.0283 128.809 11.9076 128.191 11.7668 127.577C11.6864 127.22 11.6135 127.17 11.2465 127.168C11.142 127.172 11.0379 127.183 10.9348 127.2V134.714H11.6889V131.391L11.7719 131.378C11.8121 131.522 11.8548 131.662 11.89 131.806C11.983 132.188 12.0559 132.572 12.1666 132.949C12.2897 133.374 12.5084 133.48 12.971 133.384C13.1545 132.728 13.2551 132.044 13.4487 131.388L13.5542 131.403V134.724H14.321ZM26.6164 131.001C26.7419 130.793 26.8335 130.567 26.8879 130.33C26.9206 129.588 26.913 128.844 26.8879 128.103C26.8953 127.883 26.8229 127.669 26.6843 127.499C26.5456 127.329 26.35 127.215 26.1337 127.178C25.6134 127.132 25.0829 127.178 24.5626 127.178C24.4746 127.957 24.5097 134.425 24.6053 134.737H25.817C26.5209 134.737 26.9004 134.347 26.9055 133.638C26.9055 133.035 26.9055 132.432 26.9055 131.828C26.913 131.476 26.8703 131.172 26.6189 130.996L26.6164 131.001ZM17.9636 130.948C17.9636 131.889 17.9636 132.826 17.9636 133.766C17.952 133.903 17.9697 134.041 18.0156 134.17C18.0615 134.299 18.1345 134.417 18.2297 134.516C18.3249 134.615 18.4402 134.692 18.5677 134.743C18.6952 134.794 18.8321 134.816 18.9692 134.81C19.0974 134.81 19.2205 134.81 19.3488 134.81C19.5024 134.822 19.6569 134.801 19.8014 134.747C19.946 134.693 20.077 134.609 20.1853 134.499C20.2936 134.389 20.3765 134.257 20.4283 134.112C20.4801 133.967 20.4995 133.812 20.485 133.658C20.4524 131.853 20.485 130.048 20.485 128.243C20.485 128.158 20.485 128.073 20.485 127.992C20.4715 127.744 20.3632 127.511 20.1826 127.341C20.002 127.17 19.7629 127.076 19.5146 127.077C19.3588 127.077 19.2054 127.077 19.0521 127.077C18.9048 127.064 18.7565 127.083 18.6176 127.134C18.4787 127.184 18.3526 127.265 18.2484 127.37C18.1442 127.475 18.0645 127.601 18.0148 127.741C17.9652 127.88 17.9468 128.028 17.9611 128.176C17.9938 129.091 17.9636 130.018 17.9636 130.943V130.948ZM57.7911 134.697C57.7786 134.583 57.776 134.516 57.7634 134.445C57.5523 133.029 57.3386 131.615 57.1225 130.204C56.9942 129.36 56.8711 128.512 56.7378 127.668C56.6725 127.235 56.5769 127.147 56.137 127.145C56.0477 127.15 55.9588 127.16 55.8705 127.175C55.4909 129.689 55.1164 132.173 54.7317 134.692H55.5965L56.2325 129.885H56.308C56.5225 131.489 56.7353 133.098 56.9464 134.712H57.5875C57.6556 134.711 57.7236 134.706 57.7911 134.697ZM62.3161 131.315C62.4846 131.315 62.5952 131.315 62.7058 131.315C63.4323 131.295 63.8295 130.918 63.8446 130.202C63.8597 129.485 63.8597 128.799 63.8446 128.098C63.8464 127.863 63.7583 127.636 63.5985 127.464C63.4386 127.292 63.2191 127.188 62.9848 127.173C62.5147 127.142 62.0396 127.173 61.5519 127.173V134.672C61.798 134.752 62.0646 134.745 62.3061 134.651L62.3161 131.315ZM68.812 134.687V131.336C68.9629 131.336 69.0634 131.32 69.1866 131.318C69.9408 131.295 70.3228 130.916 70.3379 130.169C70.348 129.482 70.348 128.795 70.3379 128.108C70.3418 127.873 70.2561 127.646 70.0981 127.473C69.9402 127.299 69.7221 127.193 69.4883 127.175C69.0156 127.14 68.538 127.175 68.0704 127.175C67.9824 127.678 68.0025 134.367 68.0981 134.694L68.812 134.687ZM44.8772 127.145H43.0924C42.6399 127.145 42.6098 127.175 42.6073 127.618C42.6073 129.862 42.6073 132.106 42.6073 134.35C42.6073 134.468 42.6248 134.589 42.6349 134.722H44.3167C44.4079 134.733 44.5004 134.717 44.5826 134.675C44.6648 134.634 44.7332 134.57 44.7792 134.49C44.8572 134.332 44.92 134.166 45.0306 133.93H43.4519C43.3614 133.148 43.3941 131.494 43.4996 131.205C44.3518 131.062 44.4122 131.011 44.5052 130.343H43.4092C43.4092 129.905 43.3966 129.513 43.4092 129.121C43.4217 128.729 43.3413 128.347 43.4821 127.924C43.7008 127.924 43.9095 127.909 44.1156 127.924C44.2416 127.948 44.3718 127.923 44.4798 127.853C44.5877 127.784 44.6651 127.677 44.6963 127.552C44.734 127.439 44.7893 127.326 44.8698 127.145H44.8772ZM36.6619 127.17C36.5739 127.874 36.6066 134.415 36.6996 134.712H38.2909C38.854 134.712 39.025 134.546 39.0928 133.912H37.4286V127.824C37.4286 127.127 37.3909 127.102 36.6543 127.17H36.6619ZM32.0313 134.694V129.591C32.0313 128.945 32.0313 128.299 32.0313 127.653C32.0313 127.218 31.9458 127.15 31.5084 127.15C31.428 127.15 31.3475 127.165 31.2294 127.178V134.051C31.2219 134.759 31.2218 134.759 32.0238 134.694H32.0313Z" fill="#FF0137"/>
<path d="M109.863 124H112V137.324C111.291 137.416 110.574 137.426 109.863 137.354V124Z" fill="#FF0137"/>
<path d="M80.6914 134.76V127.218C80.7801 127.199 80.8699 127.188 80.9603 127.183C81.3525 127.183 81.7447 127.183 82.1394 127.183C82.783 127.183 83.1449 127.552 83.1575 128.203C83.1575 128.301 83.1575 128.399 83.1575 128.497C83.1575 129.958 83.1323 131.416 83.1575 132.874C83.1927 134.556 83.0645 134.85 81.2319 134.772C81.0735 134.752 80.9051 134.76 80.6914 134.76ZM81.4984 127.997V133.963C81.6668 133.963 81.8076 133.963 81.9433 133.963C82.2651 133.93 82.3531 133.834 82.3732 133.508C82.3732 133.425 82.3732 133.339 82.3732 133.256C82.3732 131.728 82.3732 130.197 82.3732 128.668C82.3732 128.08 82.2852 127.937 81.619 127.967C81.5781 127.974 81.5378 127.984 81.4984 127.997Z" fill="black"/>
<path d="M87.8174 127.183C87.9229 127.183 87.9908 127.168 88.0687 127.168C88.5715 127.168 88.6369 127.231 88.7123 127.729C89.0475 129.847 89.376 131.964 89.6977 134.081C89.7279 134.29 89.748 134.498 89.7782 134.732H88.8958C88.6872 133.144 88.4785 131.567 88.2699 129.991H88.202L87.5735 134.742H86.6836C87.0531 132.223 87.4327 129.725 87.8174 127.183Z" fill="black"/>
<path d="M104.188 127.216C104.213 127.198 104.223 127.185 104.235 127.183C105.113 127.12 104.989 127.228 105.082 127.809C105.175 128.389 105.281 128.968 105.384 129.548C105.403 129.69 105.453 129.825 105.532 129.943C105.651 129.284 105.768 128.626 105.882 127.967C105.882 127.927 105.882 127.884 105.897 127.841C106.018 127.138 106.018 127.138 106.802 127.188C106.789 127.291 106.789 127.396 106.767 127.497C106.495 128.814 106.216 130.129 105.945 131.446C105.913 131.612 105.898 131.78 105.899 131.949C105.899 132.874 105.899 133.799 105.899 134.714C105.128 134.825 105.1 134.8 105.1 134.083C105.1 133.606 105.072 133.128 105.1 132.653C105.163 131.74 104.929 130.873 104.746 129.996C104.562 129.118 104.386 128.299 104.208 127.449C104.195 127.372 104.189 127.294 104.188 127.216Z" fill="black"/>
<path d="M99.6574 133.968H101.417C101.332 134.174 101.264 134.335 101.193 134.496C101.161 134.573 101.105 134.639 101.034 134.684C100.963 134.729 100.88 134.751 100.796 134.747C100.168 134.747 99.5392 134.747 98.8906 134.747V127.205C99.6247 127.1 99.6674 127.135 99.6674 127.854V133.965L99.6574 133.968Z" fill="black"/>
<path d="M94.3246 134.737C93.5 134.798 93.5 134.798 93.5 134.041V127.206C93.5645 127.189 93.63 127.176 93.6961 127.168C94.2617 127.153 94.3246 127.213 94.3246 127.781V134.737Z" fill="black"/>
<path d="M25.3203 130.617V127.965C25.4685 127.956 25.6171 127.956 25.7653 127.965C25.8114 127.966 25.8567 127.977 25.8986 127.996C25.9406 128.015 25.9783 128.043 26.0097 128.077C26.041 128.111 26.0652 128.15 26.0811 128.194C26.097 128.237 26.1041 128.283 26.1021 128.329C26.1021 128.958 26.1021 129.586 26.1021 130.22C26.1021 130.471 25.9714 130.584 25.7024 130.612C25.5868 130.624 25.4762 130.617 25.3203 130.617Z" fill="#E62641"/>
<path d="M25.3663 131.346C25.4417 131.346 25.5221 131.331 25.6026 131.333C25.9897 131.346 26.1054 131.451 26.1054 131.836C26.1054 132.394 26.1054 132.955 26.1054 133.513C26.1054 133.855 25.9973 133.955 25.6604 133.988C25.5649 133.993 25.4693 133.993 25.3738 133.988C25.2842 133.11 25.2817 132.225 25.3663 131.346Z" fill="#E62742"/>
<path d="M19.6804 130.986V133.387C19.6804 133.485 19.6804 133.583 19.6804 133.681C19.6578 133.983 19.5095 134.131 19.238 134.136C19.1748 134.143 19.1109 134.135 19.0507 134.115C18.9905 134.095 18.9353 134.062 18.8889 134.019C18.8424 133.975 18.8058 133.923 18.7815 133.864C18.7571 133.805 18.7456 133.742 18.7478 133.678C18.7352 133.427 18.7478 133.201 18.7478 132.962V128.54C18.7478 128.442 18.7478 128.344 18.7478 128.246C18.7479 128.182 18.7613 128.119 18.7872 128.06C18.813 128.001 18.8508 127.949 18.8981 127.905C18.9453 127.862 19.0011 127.829 19.0618 127.809C19.1224 127.788 19.1867 127.78 19.2506 127.786C19.3106 127.785 19.3702 127.797 19.4255 127.82C19.4808 127.844 19.5306 127.878 19.5718 127.922C19.6129 127.966 19.6445 128.018 19.6645 128.074C19.6845 128.131 19.6925 128.191 19.688 128.251C19.688 128.827 19.688 129.4 19.688 129.976L19.6804 130.986Z" fill="#E62642"/>
<path d="M62.3164 130.615V127.93C62.4496 127.93 62.5678 127.93 62.691 127.93C62.9424 127.955 63.0857 128.07 63.0907 128.324C63.1058 128.953 63.1058 129.581 63.0907 130.21C63.091 130.263 63.0808 130.315 63.0608 130.364C63.0407 130.413 63.011 130.458 62.9736 130.495C62.9362 130.532 62.8917 130.562 62.8428 130.582C62.7938 130.602 62.7414 130.612 62.6885 130.612C62.5646 130.621 62.4404 130.621 62.3164 130.615Z" fill="#E62541"/>
<path d="M68.8125 130.614V127.929C68.9583 127.929 69.0814 127.929 69.2046 127.929C69.2543 127.927 69.3038 127.936 69.3499 127.955C69.396 127.973 69.4378 128.001 69.4727 128.037C69.5076 128.072 69.5348 128.114 69.5527 128.16C69.5706 128.207 69.5788 128.256 69.5767 128.306C69.5918 128.934 69.5918 129.562 69.5767 130.189C69.5808 130.296 69.5424 130.4 69.4698 130.479C69.3973 130.557 69.2965 130.604 69.1896 130.609C69.0641 130.618 68.9382 130.62 68.8125 130.614Z" fill="#E62541"/>
</svg>
