<svg width="117" height="91" viewBox="0 0 117 91" fill="none" xmlns="http://www.w3.org/2000/svg">
<path d="M116.111 20.3202C116.047 20.3202 115.978 20.3139 115.914 20.3139C115.28 20.3139 114.646 20.3139 114.012 20.3139C113.854 20.3139 113.854 20.3139 113.803 20.1554C113.67 19.718 113.531 19.2742 113.398 18.8368C113.34 18.6593 113.34 18.653 113.157 18.653C112.377 18.653 111.597 18.653 110.817 18.653C110.792 18.653 110.767 18.653 110.741 18.653C110.659 18.653 110.615 18.691 110.589 18.7734C110.532 18.9826 110.469 19.1918 110.405 19.401C110.329 19.6609 110.247 19.9272 110.171 20.1871C110.133 20.3139 110.133 20.3139 110.006 20.3139C109.347 20.3139 108.687 20.3139 108.028 20.3139C107.996 20.3139 107.958 20.3075 107.914 20.3012C107.927 20.2568 107.927 20.2188 107.939 20.1807C108.789 17.6704 109.645 15.16 110.5 12.6497C110.551 12.4912 110.551 12.4912 110.729 12.4912C111.584 12.4912 112.44 12.4912 113.296 12.4912C113.467 12.4912 113.467 12.4912 113.518 12.6497C114.317 15.0206 115.115 17.3851 115.914 19.756C115.965 19.9145 116.016 20.073 116.073 20.2314C116.079 20.2568 116.098 20.2758 116.111 20.2948C116.111 20.3012 116.111 20.3139 116.111 20.3202ZM112.827 16.9921C112.745 16.6624 112.637 16.3645 112.548 16.0602C112.459 15.7623 112.364 15.458 112.269 15.16C112.174 14.8621 112.098 14.5578 111.978 14.2472C111.895 14.3676 111.16 16.8146 111.147 16.9921C111.705 16.9921 112.256 16.9921 112.827 16.9921Z" fill="#946D47"/>
<path d="M66.5128 4.88345C66.5128 4.94684 66.5064 5.01023 66.5064 5.07363C66.5064 6.88031 66.5064 8.687 66.5064 10.5C66.5064 10.7219 66.5064 10.7219 66.2845 10.7219C65.4668 10.7219 64.649 10.7219 63.8376 10.7219C63.8249 10.7219 63.8059 10.7219 63.7932 10.7219C63.6094 10.7219 63.6094 10.7156 63.6094 10.5317C63.6094 7.1529 63.6094 3.77408 63.6094 0.395256C63.6094 0.338203 63.6157 0.287488 63.6221 0.217757C63.6854 0.211417 63.7298 0.205078 63.7805 0.205078C64.6554 0.205078 65.5365 0.205078 66.4113 0.205078C66.5254 0.205078 66.5825 0.243114 66.6395 0.338203C67.7743 2.17025 68.9153 4.00229 70.0564 5.83434C70.1198 5.93577 70.1768 6.03085 70.2402 6.13228C70.2656 6.17032 70.291 6.20201 70.3353 6.25907C70.348 6.19568 70.3607 6.17032 70.367 6.13862C70.3734 6.08791 70.367 6.03719 70.367 5.98648C70.367 4.13542 70.367 2.29069 70.367 0.439631C70.367 0.369899 70.3734 0.300167 70.3734 0.224096C71.3369 0.224096 72.2878 0.224096 73.245 0.224096C73.2514 0.262131 73.2641 0.293828 73.2641 0.325524C73.2704 0.369899 73.2641 0.414274 73.2641 0.464988C73.2641 3.79944 73.2641 7.12755 73.2641 10.462C73.2641 10.7219 73.3021 10.7219 73.0105 10.7219C72.1484 10.7219 71.2862 10.7219 70.4241 10.7219C70.2846 10.7219 70.2022 10.6839 70.1325 10.5634C68.9851 8.7187 67.8313 6.88031 66.6776 5.03559C66.6395 4.97854 66.6015 4.92148 66.5635 4.86443C66.5445 4.87077 66.5318 4.87711 66.5128 4.88345Z" fill="#946D47"/>
<path d="M85.5613 5.46706C85.574 6.33554 85.4472 7.16598 85.1175 7.95839C84.5216 9.38472 83.463 10.2912 81.9796 10.7033C81.4661 10.8491 80.94 10.9125 80.4075 10.9188C79.6975 10.9315 79.0001 10.8618 78.3218 10.6526C76.7497 10.1644 75.7164 9.12481 75.2029 7.57169C75.0444 7.08357 74.9557 6.58277 74.9177 6.06929C74.8796 5.54313 74.886 5.01697 74.9557 4.49715C75.0952 3.4385 75.4565 2.47493 76.1665 1.66351C76.8004 0.94083 77.5992 0.490743 78.5247 0.243512C78.8987 0.142084 79.2854 0.0850305 79.6784 0.0533342C80.604 -0.0163976 81.5105 0.0660127 82.3853 0.382976C83.818 0.902795 84.7562 1.91074 85.2443 3.34341C85.4789 4.03439 85.574 4.75072 85.5613 5.46706ZM77.8527 5.52411C77.8464 6.01224 77.9098 6.53839 78.1 7.05187C78.2902 7.55901 78.5881 7.98375 79.0762 8.24999C79.558 8.52258 80.0842 8.5733 80.623 8.50356C81.4344 8.40214 81.9986 7.95205 82.3219 7.20402C82.5184 6.76027 82.6008 6.28482 82.6199 5.80304C82.6389 5.40367 82.6325 5.00429 82.5628 4.60492C82.4994 4.20555 82.3853 3.82519 82.1888 3.47019C81.9479 3.03912 81.6056 2.71582 81.1428 2.53832C80.7561 2.39252 80.3504 2.34181 79.932 2.39252C79.6277 2.43056 79.3361 2.50663 79.0699 2.65877C78.6134 2.91868 78.3218 3.31805 78.1317 3.7935C77.9225 4.33867 77.8527 4.89653 77.8527 5.52411Z" fill="#946D47"/>
<path d="M113.046 0.211736C113.128 0.211736 113.179 0.211736 113.23 0.211736C114.079 0.211736 114.923 0.211736 115.772 0.211736C115.785 0.211736 115.804 0.211736 115.816 0.211736C115.943 0.218075 115.949 0.218075 115.956 0.3512C115.956 0.389235 115.956 0.43361 115.956 0.471646C115.956 3.79342 115.956 7.11519 115.956 10.437C115.956 10.4877 115.956 10.5384 115.956 10.5891C115.949 10.6969 115.937 10.7095 115.829 10.7095C115.747 10.7159 115.664 10.7095 115.588 10.7095C114.821 10.7095 114.054 10.7095 113.293 10.7095C113.027 10.7095 113.059 10.7032 113.059 10.4813C113.059 9.28321 113.059 8.07875 113.059 6.88063C113.059 6.81724 113.059 6.74751 113.059 6.67144C112.995 6.6651 112.951 6.65876 112.9 6.65876C111.797 6.65876 110.701 6.65876 109.598 6.65876C109.559 6.65876 109.528 6.6651 109.49 6.6651C109.433 6.73483 109.452 6.8109 109.452 6.88697C109.452 8.06607 109.452 9.24518 109.452 10.4243C109.452 10.7286 109.49 10.7095 109.166 10.7159C108.387 10.7159 107.607 10.7159 106.827 10.7159C106.796 10.7159 106.764 10.7159 106.739 10.7159C106.555 10.7159 106.555 10.7159 106.555 10.532C106.555 7.14688 106.555 3.76806 106.555 0.382896C106.555 0.332182 106.561 0.281468 106.561 0.237093C106.681 0.205397 109.23 0.192718 109.445 0.224415C109.452 0.287807 109.458 0.357539 109.458 0.420932C109.458 1.58735 109.458 2.74744 109.458 3.91386C109.458 3.98993 109.464 4.05966 109.471 4.14208C110.669 4.14208 111.854 4.14208 113.052 4.14208C113.059 4.066 113.065 4.00261 113.065 3.93922C113.065 2.76012 113.065 1.58102 113.065 0.401914C113.046 0.357539 113.046 0.294146 113.046 0.211736Z" fill="#946D47"/>
<path d="M87.2092 0.224346C87.2662 0.224346 87.3106 0.218007 87.355 0.218007C88.7559 0.218007 90.1632 0.205329 91.5642 0.224346C92.3947 0.237025 93.2061 0.382828 93.9541 0.769522C94.7592 1.18791 95.3234 1.8155 95.5326 2.703C95.7608 3.65388 95.6847 4.58575 95.1839 5.44789C94.9367 5.87262 94.5944 6.20226 94.176 6.46217C94.1126 6.50021 94.0492 6.54458 93.9858 6.58262C93.9795 6.58262 93.9795 6.58896 93.9668 6.60798C93.9858 6.65235 94.0048 6.70941 94.0302 6.76012C94.531 7.7427 95.0381 8.72529 95.5389 9.70787C95.6847 9.99314 95.8306 10.2784 95.9764 10.5573C95.9954 10.5954 96.0144 10.6397 96.0334 10.6968C95.9827 10.7031 95.9447 10.7158 95.913 10.7158C94.9874 10.7158 94.0682 10.7158 93.1427 10.7158C93.0286 10.7158 92.9842 10.6651 92.9335 10.5764C92.3947 9.51136 91.8495 8.44636 91.3107 7.38137C91.298 7.35601 91.279 7.33065 91.2663 7.29896C91.2282 7.20387 91.1649 7.16583 91.0571 7.16583C90.7908 7.17217 90.5183 7.16583 90.252 7.16583C90.2076 7.16583 90.1632 7.17217 90.1062 7.17217C90.0999 7.25458 90.0935 7.33065 90.0935 7.40672C90.0935 8.42734 90.0935 9.4543 90.0935 10.4749C90.0935 10.7095 90.0935 10.7095 89.859 10.7095C89.0412 10.7095 88.2298 10.7095 87.412 10.7095C87.3486 10.7095 87.2852 10.7031 87.2218 10.7031C87.1838 10.5764 87.1584 2.69666 87.1901 0.36381C87.1901 0.325774 87.2028 0.27506 87.2092 0.224346ZM90.1189 4.89004C90.1823 4.89004 90.233 4.89638 90.2837 4.89638C90.5816 4.89638 90.8796 4.89638 91.1839 4.89638C91.4121 4.89638 91.6403 4.86468 91.8558 4.79495C92.3503 4.64281 92.6546 4.33218 92.7116 3.80603C92.756 3.41933 92.6356 2.98192 92.2045 2.73469C92.0397 2.63326 91.8558 2.57621 91.6657 2.53817C91.1839 2.44309 90.6958 2.48746 90.2076 2.48112C90.1379 2.48112 90.1062 2.51282 90.0999 2.58255C90.0999 2.62058 90.0935 2.65228 90.0935 2.69032C90.0935 3.36228 90.0935 4.04058 90.0935 4.71254C90.0999 4.76325 90.1125 4.82031 90.1189 4.89004Z" fill="#946D47"/>
<path d="M74.1522 14.7348C74.1522 16.5859 74.1522 18.4369 74.1522 20.2753C74.0317 20.3197 72.206 20.326 72.0349 20.2943C71.9968 20.1739 71.9905 12.6555 72.0349 12.5034C72.0729 12.4971 72.1173 12.4907 72.1616 12.4907C73.1379 12.4907 74.1205 12.4907 75.0967 12.4907C75.2425 12.4907 75.2425 12.4907 75.2806 12.6302C75.6863 14.1389 76.0856 15.6477 76.4914 17.1564C76.5421 17.3466 76.5928 17.5368 76.6435 17.7269C76.6562 17.7713 76.6752 17.822 76.6942 17.8727C76.7766 17.841 76.7703 17.765 76.783 17.7143C76.9161 17.2198 77.0492 16.7253 77.1823 16.2372C77.4993 15.0391 77.8226 13.841 78.1396 12.6429C78.1839 12.4844 78.1839 12.4844 78.3424 12.4844C79.3123 12.4844 80.2822 12.4844 81.2458 12.4844C81.2965 12.4844 81.3472 12.4907 81.3916 12.4907C81.4233 12.6112 81.436 20.0915 81.4043 20.2753C81.3029 20.3134 79.5025 20.326 79.2679 20.288C79.2616 20.2309 79.2553 20.1676 79.2553 20.1042C79.2553 19.185 79.2553 18.2721 79.2553 17.3529C79.2553 16.5352 79.2553 15.7237 79.2553 14.906C79.2553 14.8489 79.2553 14.7855 79.2553 14.7095C79.1729 14.7475 79.1729 14.8172 79.1538 14.8679C79.0144 15.3497 78.8813 15.8315 78.7418 16.3133C78.3741 17.6002 78.0128 18.8807 77.6451 20.1676C77.6324 20.2119 77.6134 20.25 77.6007 20.3007C76.9858 20.3007 76.3836 20.3007 75.756 20.3007C75.2362 18.4369 74.7227 16.5795 74.2029 14.7221C74.1839 14.7285 74.1648 14.7285 74.1522 14.7348Z" fill="#946D47"/>
<path d="M105.245 2.53208C105.182 2.53208 105.119 2.53208 105.062 2.53208C104.256 2.53208 103.451 2.53208 102.64 2.53208C102.615 2.53208 102.589 2.53208 102.564 2.53208C102.38 2.53208 102.38 2.53208 102.38 2.72226C102.38 5.15019 102.38 7.57179 102.38 9.99972C102.38 10.1962 102.38 10.3928 102.38 10.5893C102.38 10.697 102.367 10.7097 102.26 10.7161C102.203 10.7161 102.145 10.7161 102.095 10.7161C101.309 10.7161 100.523 10.7161 99.7365 10.7161C99.6985 10.7161 99.6541 10.7161 99.6161 10.7161C99.4957 10.7097 99.483 10.697 99.483 10.5829C99.483 10.5322 99.483 10.4815 99.483 10.4308C99.483 7.89509 99.483 5.35305 99.483 2.81735C99.483 2.48137 99.4766 2.53208 99.1914 2.53208C98.3926 2.53208 97.6002 2.53208 96.8015 2.53208C96.7444 2.53208 96.681 2.53208 96.605 2.53208C96.5986 2.46235 96.5859 2.41164 96.5859 2.36092C96.5859 1.70164 96.5859 1.04236 96.5859 0.383074C96.5859 0.211914 96.5859 0.211914 96.7571 0.211914C97.8982 0.211914 99.0392 0.211914 100.18 0.211914C101.809 0.211914 103.439 0.211914 105.062 0.211914C105.125 0.211914 105.182 0.211914 105.233 0.211914C105.245 0.230932 105.252 0.230932 105.252 0.237271C105.258 0.24361 105.258 0.24361 105.258 0.24995C105.264 0.281646 105.271 0.307003 105.271 0.338699C105.271 1.0487 105.271 1.75869 105.271 2.46869C105.264 2.48137 105.258 2.49405 105.245 2.53208Z" fill="#946D47"/>
<path d="M91.4799 20.3004C90.7572 20.3004 90.0599 20.3004 89.3689 20.3004C89.3309 20.18 89.3245 12.6997 89.3562 12.5031C89.3943 12.4968 89.4386 12.4905 89.483 12.4905C90.5607 12.4905 91.632 12.4778 92.7097 12.4968C93.2929 12.5095 93.8571 12.6299 94.3769 12.9025C95.0742 13.2702 95.499 13.8344 95.6004 14.6268C95.6765 15.2163 95.6194 15.7869 95.3215 16.3194C95.1313 16.6617 94.8587 16.9343 94.5291 17.1435C94.4784 17.1752 94.4276 17.2069 94.3579 17.2512C94.8777 18.2655 95.3912 19.2735 95.9174 20.3004C95.854 20.3068 95.8096 20.3131 95.7716 20.3131C95.125 20.3131 94.472 20.3131 93.8254 20.3194C93.705 20.3194 93.6416 20.2814 93.5909 20.1736C93.1978 19.3939 92.7921 18.6142 92.4054 17.8281C92.342 17.7077 92.2786 17.6506 92.1392 17.6633C91.9743 17.676 91.8032 17.6633 91.6384 17.6696C91.5052 17.6696 91.4926 17.6823 91.4926 17.8218C91.4926 18.1514 91.4926 18.4811 91.4926 18.8107C91.4926 19.2545 91.4926 19.6919 91.4926 20.1356C91.4862 20.18 91.4799 20.237 91.4799 20.3004ZM91.5052 14.1957C91.4989 14.2211 91.4862 14.2528 91.4862 14.2908C91.4862 14.8106 91.4862 15.3305 91.4862 15.8566C91.4862 15.9644 91.5052 15.9834 91.6257 15.9834C91.8539 15.9834 92.0821 15.9897 92.3103 15.9834C92.5132 15.9771 92.7097 15.9454 92.9062 15.8693C93.2549 15.7298 93.4514 15.4382 93.4514 15.0515C93.4514 14.6965 93.2612 14.4239 92.9126 14.2845C92.8682 14.2655 92.8175 14.2464 92.7667 14.2401C92.361 14.1387 91.9426 14.183 91.5306 14.1894C91.5243 14.183 91.5243 14.1894 91.5052 14.1957Z" fill="#946D47"/>
<path d="M71.0707 20.3012C71.0073 20.3075 70.9629 20.3139 70.9186 20.3139C70.272 20.3139 69.6317 20.3139 68.9851 20.3139C68.8266 20.3139 68.8266 20.3139 68.7822 20.1554C68.6428 19.7053 68.5096 19.2552 68.3702 18.8051C68.3258 18.6593 68.3258 18.653 68.1673 18.653C67.3686 18.653 66.5762 18.653 65.7774 18.653C65.6063 18.653 65.6063 18.653 65.5555 18.8178C65.4224 19.2489 65.2956 19.6799 65.1689 20.111C65.1562 20.149 65.1435 20.1871 65.1372 20.2251C65.1245 20.2822 65.0864 20.3139 65.0294 20.3075C65.004 20.3075 64.9787 20.3075 64.9533 20.3075C64.3131 20.3075 63.6791 20.3075 63.0389 20.3075C62.9945 20.3075 62.9501 20.3012 62.8867 20.3012C62.9057 20.2378 62.9184 20.1871 62.9374 20.1364C63.6221 18.1205 64.3067 16.1046 64.9914 14.0887C65.1562 13.6069 65.321 13.1188 65.4858 12.637C65.5365 12.4912 65.5365 12.4912 65.6887 12.4912C66.5571 12.4912 67.4193 12.4912 68.2878 12.4912C68.4462 12.4912 68.4462 12.4912 68.497 12.6434C69.0929 14.4057 69.6887 16.168 70.2783 17.9366C70.5255 18.672 70.7728 19.401 71.02 20.1364C71.039 20.1807 71.0517 20.2314 71.0707 20.3012ZM66.1134 16.9731C66.1578 16.9857 66.1705 16.9921 66.1831 16.9921C66.6966 16.9921 67.2038 16.9921 67.7172 16.9921C67.7426 16.9921 67.7679 16.9731 67.7996 16.9604C67.7806 16.8907 67.7679 16.8336 67.7489 16.7765C67.6475 16.4406 67.5397 16.0982 67.4383 15.7623C67.2988 15.3058 67.1594 14.8558 67.0199 14.3993C67.0072 14.3486 67.0072 14.2916 66.9248 14.2535C66.6522 15.1664 66.386 16.0602 66.1134 16.9731Z" fill="#946D47"/>
<path d="M107.761 15.3188C107.698 15.3252 107.653 15.3252 107.609 15.3252C106.981 15.3252 106.354 15.3252 105.726 15.3252C105.568 15.3252 105.574 15.3252 105.511 15.173C105.454 15.0272 105.397 14.8814 105.314 14.7483C105.023 14.2729 104.598 14.0637 104.034 14.108C103.476 14.1524 103.051 14.406 102.778 14.8941C102.69 15.0526 102.614 15.2238 102.569 15.3949C102.392 16.0605 102.392 16.7325 102.563 17.4045C102.62 17.6263 102.715 17.8355 102.842 18.0257C103.102 18.3997 103.463 18.6089 103.913 18.6723C104.122 18.704 104.325 18.6977 104.528 18.647C104.877 18.5582 105.13 18.3427 105.308 18.0384C105.371 17.9306 105.422 17.8102 105.466 17.6961C105.492 17.6327 105.523 17.601 105.599 17.601C106.278 17.601 106.956 17.601 107.634 17.601C107.66 17.601 107.685 17.6073 107.717 17.62C107.717 17.6517 107.723 17.6834 107.717 17.7151C107.52 18.5138 107.146 19.2048 106.493 19.731C106.03 20.0986 105.504 20.3142 104.927 20.4156C104.585 20.4727 104.243 20.4853 103.9 20.4727C103.19 20.4346 102.512 20.2698 101.897 19.8831C101.124 19.3886 100.655 18.6787 100.414 17.8102C100.249 17.2143 100.211 16.6057 100.255 15.9908C100.293 15.49 100.389 15.0082 100.585 14.5518C101.041 13.4741 101.859 12.8148 102.981 12.5169C103.381 12.4091 103.786 12.3711 104.198 12.3711C104.737 12.3774 105.263 12.4598 105.764 12.6817C106.652 13.0748 107.229 13.7467 107.565 14.6405C107.634 14.8371 107.685 15.0399 107.742 15.2364C107.761 15.2428 107.755 15.2681 107.761 15.3188Z" fill="#946D47"/>
<path d="M85.0943 15.5658C85.1641 15.5658 85.2274 15.5658 85.2845 15.5658C85.9818 15.5658 86.6855 15.5658 87.3828 15.5658C87.4208 15.5658 87.4525 15.5658 87.4906 15.5658C87.611 15.5721 87.6173 15.5721 87.6237 15.6926C87.6237 15.8067 87.6237 15.9271 87.6237 16.0412C87.6237 16.3582 87.6237 16.6688 87.6237 16.9858C87.6237 17.0428 87.6237 17.0936 87.6237 17.1696C87.4462 17.1886 87.2814 17.176 87.1165 17.1823C86.9517 17.1823 86.7806 17.1823 86.6157 17.1823C86.4509 17.1823 86.2798 17.1823 86.1149 17.1823C85.9501 17.1823 85.779 17.1823 85.6141 17.1823C85.4493 17.1823 85.2782 17.1823 85.1007 17.1823C85.0943 17.252 85.0816 17.3091 85.0816 17.3661C85.0816 17.7148 85.0816 18.0635 85.0816 18.4121C85.0816 18.596 85.088 18.6023 85.2718 18.6023C86.1466 18.6023 87.0151 18.6023 87.8899 18.6023C88.1055 18.6023 88.1055 18.6023 88.1055 18.8178C88.1055 19.2489 88.1055 19.68 88.1055 20.111C88.1055 20.1491 88.1055 20.1934 88.1055 20.2315C88.0991 20.2885 88.0738 20.3139 88.0167 20.3139C87.9787 20.3139 87.9343 20.3139 87.8963 20.3139C86.3178 20.3139 84.733 20.3139 83.1545 20.3139C83.0975 20.3139 83.0341 20.3139 82.958 20.3139C82.9517 20.2378 82.9453 20.1744 82.9453 20.111C82.9453 19.1158 82.9453 18.1269 82.9453 17.1316C82.9453 15.6609 82.9453 14.1965 82.9453 12.7258C82.9453 12.6561 82.9453 12.5863 82.9453 12.5229C83.0721 12.4849 87.649 12.4722 87.8709 12.5103C87.8773 12.5546 87.8836 12.599 87.8836 12.6497C87.8836 13.1062 87.8836 13.5626 87.8836 14.019C87.8836 14.1838 87.8773 14.1902 87.7124 14.1902C86.9327 14.1902 86.153 14.1902 85.3733 14.1902C85.069 14.1902 85.1007 14.1965 85.1007 14.4628C85.1007 14.767 85.1007 15.0713 85.1007 15.3756C85.0753 15.4263 85.088 15.4897 85.0943 15.5658Z" fill="#946D47"/>
<path d="M96.8989 12.498C97.6025 12.498 98.3062 12.498 98.9972 12.498C99.0099 12.5107 99.0162 12.5107 99.0162 12.5171C99.0162 12.5234 99.0225 12.5234 99.0225 12.5297C99.0289 12.5678 99.0352 12.6122 99.0352 12.6502C99.0352 15.1796 99.0352 17.7153 99.0352 20.2446C99.0352 20.2573 99.0289 20.27 99.0225 20.2827C98.9084 20.3144 97.0764 20.3207 96.8989 20.2953C96.8925 20.289 96.8925 20.289 96.8862 20.2827C96.8862 20.2763 96.8799 20.2763 96.8799 20.27C96.8735 20.2256 96.8672 20.1812 96.8672 20.1368C96.8672 17.6075 96.8672 15.0718 96.8735 12.5424C96.8735 12.5361 96.8799 12.5297 96.8989 12.498Z" fill="#946D47"/>
<path d="M14.0654 23.8767C14.0654 24.105 14.0654 24.3332 14.0654 24.5614C14.059 25.0178 13.7674 25.3094 13.311 25.3158C12.8673 25.3158 12.4172 25.3158 11.9734 25.3158C11.7262 25.3158 11.5043 25.2333 11.3205 25.0685C11.1683 24.9291 11.0859 24.7579 11.0859 24.5424C11.0859 24.0923 11.0859 23.6422 11.0859 23.1921C11.0859 22.761 11.4853 22.349 11.9164 22.3426C12.3982 22.3363 12.8799 22.3363 13.3617 22.3426C13.5519 22.3426 13.7167 22.4251 13.8372 22.5709C13.983 22.7357 14.0527 22.9322 14.059 23.1541C14.0654 23.3886 14.0654 23.6295 14.0654 23.8767Z" fill="#B8916D"/>
<path d="M10.4483 23.8764C10.4483 24.0919 10.4483 24.3138 10.4483 24.5293C10.4483 24.8653 10.2835 25.0998 9.97919 25.2266C9.86508 25.2773 9.73829 25.3027 9.61151 25.3027C9.16142 25.309 8.71133 25.309 8.26125 25.3027C7.79214 25.3027 7.4625 24.9731 7.46884 24.5103C7.47518 24.0729 7.46884 23.6291 7.46884 23.1917C7.46884 22.9698 7.53223 22.7733 7.67804 22.6022C7.83018 22.4247 8.02036 22.3232 8.26125 22.3232C8.71133 22.3232 9.16142 22.3232 9.61151 22.3232C10.0553 22.3232 10.4356 22.6973 10.4483 23.141C10.4546 23.3946 10.4483 23.6355 10.4483 23.8764Z" fill="#B8916D"/>
<path d="M57.6981 23.8574C57.6981 23.6228 57.6981 23.3946 57.6981 23.16C57.6981 22.9508 57.7552 22.7607 57.882 22.5958C58.0151 22.4247 58.1863 22.3359 58.4018 22.3359C58.8646 22.3359 59.3273 22.3359 59.7837 22.3359C60.2085 22.3359 60.6839 22.7416 60.6712 23.2171C60.6586 23.6291 60.6712 24.0349 60.6712 24.4469C60.6712 24.878 60.4494 25.1696 60.0373 25.271C59.9422 25.2964 59.8345 25.309 59.7394 25.309C59.3083 25.3154 58.8772 25.309 58.4462 25.309C57.9897 25.309 57.7045 25.0301 57.6981 24.5737C57.6918 24.3328 57.6981 24.0983 57.6981 23.8574Z" fill="#B8916D"/>
<path d="M24.077 23.8637C24.077 23.6482 24.0896 23.4263 24.077 23.2107C24.0453 22.7924 24.4827 22.3423 24.9328 22.3296C25.4145 22.3169 25.8963 22.3232 26.3781 22.3296C26.6063 22.3296 26.7838 22.45 26.9043 22.6402C27.0057 22.7987 27.0501 22.9762 27.0501 23.16C27.0501 23.6228 27.0501 24.0919 27.0501 24.5547C27.0501 24.7005 27.0184 24.8399 26.9486 24.9604C26.8218 25.1823 26.619 25.29 26.3718 25.2964C25.89 25.3027 25.4082 25.3027 24.9264 25.2964C24.6982 25.29 24.489 25.2076 24.3178 25.0555C24.1594 24.916 24.0643 24.7448 24.0706 24.523C24.077 24.3074 24.077 24.0856 24.077 23.8637Z" fill="#B8916D"/>
<path d="M56.8482 12.7387C56.8482 12.9796 56.8545 13.2141 56.8482 13.455C56.8418 13.8163 56.601 14.1333 56.2713 14.2221C56.2016 14.2411 56.1318 14.2474 56.0621 14.2474C55.6184 14.2474 55.1683 14.2411 54.7245 14.2538C54.2808 14.2664 53.8687 13.8607 53.8751 13.4043C53.8814 12.9605 53.8751 12.5168 53.8751 12.0667C53.8751 11.6864 54.1286 11.3821 54.5027 11.2997C54.5851 11.2806 54.6738 11.2743 54.7562 11.2743C55.1746 11.2743 55.5994 11.268 56.0177 11.2743C56.1192 11.2743 56.2206 11.287 56.3157 11.3123C56.6263 11.4011 56.8355 11.6737 56.8418 11.997C56.8545 12.2442 56.8482 12.4914 56.8482 12.7387Z" fill="#B8916D"/>
<path d="M2.99287 12.726C2.99287 12.9542 2.98653 13.1824 2.99287 13.4106C3.00554 13.8227 2.63153 14.2601 2.15608 14.2474C1.72501 14.2347 1.29394 14.2284 0.862875 14.2474C0.431806 14.2664 0.0324329 13.9304 0.0134151 13.4233C0.000736622 12.9605 0.000736622 12.4914 0.0134151 12.0287C0.0197544 11.5976 0.349396 11.287 0.805822 11.2743C1.09109 11.268 1.37002 11.2743 1.65528 11.2743C1.83278 11.2743 2.01028 11.268 2.18778 11.2743C2.57447 11.287 2.87242 11.5025 2.96751 11.8385C2.98653 11.9082 2.99287 11.978 2.99287 12.0477C2.99921 12.2759 2.99287 12.5041 2.99287 12.726Z" fill="#B8916D"/>
<path d="M14.0647 12.7382C14.0647 12.9727 14.0647 13.2009 14.0647 13.4355C14.0647 13.6257 14.0076 13.8032 13.8935 13.9616C13.7604 14.1455 13.5829 14.2469 13.3483 14.2469C12.8792 14.2469 12.4165 14.2406 11.9473 14.2469C11.529 14.2533 11.0599 13.8412 11.0789 13.3658C11.0979 12.9474 11.0979 12.5226 11.0789 12.1042C11.0599 11.6542 11.4085 11.3689 11.7382 11.2928C11.8269 11.2738 11.9157 11.2675 12.0107 11.2675C12.4291 11.2675 12.8539 11.2611 13.2723 11.2675C13.3737 11.2675 13.4751 11.2801 13.5702 11.3055C13.8618 11.3943 14.0456 11.6605 14.052 11.9901C14.0647 12.2437 14.0647 12.4909 14.0647 12.7382Z" fill="#B8916D"/>
<path d="M1.49267 17.8606C1.25812 17.8606 1.02357 17.8606 0.795353 17.8606C0.326249 17.8543 0.015625 17.5437 0.015625 17.0809C0.015625 16.6498 0.015625 16.2188 0.015625 15.7877C0.015625 15.5405 0.0980353 15.3186 0.269195 15.1411C0.421337 14.9763 0.611515 14.8875 0.833389 14.8939C1.27714 14.8939 1.71455 14.9002 2.15829 14.8939C2.64642 14.8875 2.98874 15.3313 2.99508 15.6926C3.00141 16.1934 3.00775 16.6942 2.99508 17.195C2.98874 17.5564 2.6591 17.8543 2.25972 17.867C1.99981 17.867 1.74624 17.8606 1.49267 17.8606Z" fill="#B8916D"/>
<path d="M57.7008 5.28947C57.7008 5.07393 57.7008 4.85206 57.7008 4.63652C57.7008 4.56045 57.7071 4.48438 57.7262 4.40831C57.8022 4.04063 58.0495 3.83778 58.4235 3.83778C58.8799 3.83144 59.3363 3.83778 59.7928 3.83778C59.8435 3.83778 59.8942 3.84412 59.9449 3.85046C60.1858 3.88849 60.3823 4.0026 60.5345 4.19278C60.6422 4.3259 60.6866 4.47804 60.6866 4.64286C60.6866 5.08027 60.6803 5.51134 60.6866 5.94875C60.6993 6.42419 60.2555 6.76651 59.9069 6.79821C59.8435 6.80455 59.7864 6.80455 59.723 6.80455C59.311 6.80455 58.9053 6.80455 58.4932 6.80455C58.0241 6.80455 57.7262 6.51928 57.7071 6.04384C57.6945 5.79661 57.7008 5.54304 57.7008 5.28947Z" fill="#B8916D"/>
<path d="M44.2374 14.2469C44.0218 14.2469 43.8 14.2406 43.5844 14.2469C43.1724 14.2659 42.8934 13.949 42.8237 13.613C42.811 13.5369 42.8047 13.4608 42.8047 13.3848C42.8047 12.941 42.8047 12.4973 42.8047 12.0472C42.8047 11.8824 42.8364 11.7239 42.9315 11.5844C43.0709 11.3752 43.2738 11.2674 43.521 11.2674C44.0028 11.2611 44.4846 11.2611 44.9664 11.2674C45.1882 11.2738 45.3911 11.3562 45.5559 11.5147C45.7017 11.6541 45.7841 11.819 45.7841 12.0282C45.7841 12.4909 45.7778 12.9474 45.7841 13.4101C45.7905 13.8348 45.3721 14.2406 44.96 14.2406C44.7128 14.2469 44.4782 14.2469 44.2374 14.2469Z" fill="#B8916D"/>
<path d="M14.9208 23.8632C14.9208 23.6223 14.9208 23.3878 14.9208 23.1469C14.9208 22.944 14.9905 22.7602 15.1173 22.6017C15.2631 22.4242 15.4469 22.3291 15.6815 22.3291C16.1379 22.3291 16.5943 22.3291 17.0508 22.3291C17.4882 22.3291 17.8812 22.7095 17.8939 23.1469C17.9066 23.6223 17.9002 24.0978 17.8939 24.5732C17.8939 24.8204 17.7671 25.0043 17.5706 25.1437C17.4185 25.2515 17.241 25.3022 17.0571 25.3086C16.5943 25.3086 16.1379 25.3149 15.6752 25.3086C15.2314 25.3022 14.9271 24.9979 14.9208 24.5478C14.9144 24.3196 14.9208 24.0914 14.9208 23.8632Z" fill="#B8916D"/>
<path d="M44.2338 17.8601C43.9993 17.8601 43.7647 17.8601 43.5365 17.8601C43.0991 17.8537 42.8075 17.5748 42.8075 17.1374C42.8012 16.6746 42.8075 16.2055 42.8075 15.7428C42.8075 15.5589 42.8582 15.3814 42.9596 15.2293C43.1055 15.0074 43.3146 14.887 43.5872 14.887C44.0246 14.887 44.4557 14.8933 44.8931 14.887C45.3749 14.8743 45.7996 15.3434 45.787 15.7745C45.7743 16.1992 45.787 16.6239 45.7806 17.0487C45.7806 17.5178 45.47 17.8411 45.0009 17.8537C44.741 17.8664 44.4874 17.8601 44.2338 17.8601Z" fill="#B8916D"/>
<path d="M20.454 20.1549C20.454 19.9394 20.4603 19.7175 20.454 19.502C20.435 19.0899 20.7329 18.7349 21.1893 18.7223C21.6901 18.7033 22.1909 18.7033 22.6917 18.7223C23.1418 18.7413 23.4398 19.0773 23.4334 19.502C23.4271 19.9394 23.4334 20.3832 23.4334 20.8206C23.4334 21.1502 23.2876 21.4038 23.0087 21.5813C22.8883 21.6573 22.7488 21.689 22.603 21.689C22.1656 21.689 21.7345 21.6764 21.2971 21.689C20.8153 21.7017 20.4603 21.2643 20.4603 20.8649C20.454 20.6304 20.454 20.3958 20.454 20.1549Z" fill="#B8916D"/>
<path d="M6.61867 23.8694C6.61867 24.085 6.61867 24.3068 6.61867 24.5224C6.61867 24.6048 6.61233 24.6872 6.59331 24.7633C6.51724 25.0929 6.27635 25.3021 5.93403 25.3084C5.45225 25.3148 4.97046 25.3148 4.48868 25.3084C4.27948 25.3021 4.08931 25.2324 3.92448 25.0992C3.73431 24.9471 3.63288 24.7569 3.63288 24.5097C3.63922 24.0723 3.63922 23.6412 3.63288 23.2038C3.62654 22.741 4.07663 22.3353 4.50136 22.329C4.97046 22.3227 5.44591 22.329 5.91501 22.329C6.13055 22.329 6.30171 22.4304 6.43483 22.6016C6.54894 22.7537 6.60599 22.9249 6.61233 23.1087C6.61867 23.3623 6.61233 23.6159 6.61867 23.8694C6.61233 23.8694 6.61233 23.8694 6.61867 23.8694Z" fill="#B8916D"/>
<path d="M51.6637 14.2474C51.4418 14.2474 51.2199 14.2474 50.998 14.2474C50.6874 14.2474 50.4782 14.0953 50.3451 13.8353C50.2754 13.7022 50.25 13.5564 50.25 13.4106C50.25 12.9542 50.25 12.4978 50.25 12.0413C50.25 11.9589 50.2627 11.8702 50.288 11.7878C50.3704 11.4771 50.6304 11.2806 50.979 11.2743C51.4418 11.2679 51.8982 11.2679 52.361 11.2743C52.5955 11.2743 52.8111 11.3567 52.9822 11.5152C53.1407 11.6546 53.2295 11.8321 53.2295 12.0477C53.2295 12.4978 53.2231 12.9478 53.2295 13.3979C53.2358 13.8417 52.7984 14.2411 52.399 14.2474C52.1518 14.2474 51.9045 14.2474 51.6637 14.2474Z" fill="#B8916D"/>
<path d="M20.4559 12.7316C20.4559 12.516 20.4623 12.2942 20.4559 12.0786C20.4369 11.6856 20.7159 11.2989 21.2103 11.2799C21.6984 11.2609 22.1802 11.2609 22.6683 11.2799C23.1374 11.2926 23.4417 11.6539 23.4354 12.0913C23.4291 12.5287 23.4354 12.9725 23.4354 13.4099C23.4291 13.7966 23.1818 14.1262 22.8268 14.2213C22.7634 14.2403 22.7 14.2467 22.6303 14.2467C22.1739 14.2467 21.7175 14.2403 21.261 14.2467C20.8236 14.253 20.4623 13.8536 20.4559 13.4543C20.4496 13.2134 20.4559 12.9725 20.4559 12.7316Z" fill="#B8916D"/>
<path d="M55.7828 20.1547C55.7828 19.9328 55.7828 19.711 55.7828 19.4891C55.7892 19.0263 56.0871 18.722 56.5562 18.7157C57.019 18.7094 57.4754 18.7157 57.9382 18.7157C58.122 18.7157 58.2868 18.7664 58.439 18.8678C58.6418 19.0073 58.7623 19.2038 58.7623 19.4574C58.7623 19.9202 58.7623 20.3893 58.7623 20.852C58.7623 21.2831 58.3629 21.7015 57.9128 21.6888C57.4881 21.6825 57.0634 21.6698 56.6386 21.6888C56.1188 21.7142 55.8019 21.2768 55.7892 20.8647C55.7765 20.6302 55.7828 20.3956 55.7828 20.1547Z" fill="#B8916D"/>
<path d="M1.49986 10.4185C1.25263 10.4185 1.0054 10.4185 0.758166 10.4185C0.682095 10.4185 0.606024 10.4058 0.536292 10.3805C0.219329 10.2854 0.0228124 10.0381 0.0164732 9.70849C0.0101339 9.24573 0.0101339 8.77662 0.0164732 8.31385C0.0228124 8.08564 0.105223 7.88278 0.263704 7.70529C0.415846 7.53413 0.606024 7.44538 0.840576 7.44538C1.27799 7.44538 1.70905 7.45172 2.14646 7.44538C2.65994 7.43904 2.98324 7.90814 2.98958 8.24412C3.00226 8.7576 3.00226 9.26474 2.98958 9.77822C2.98324 10.1205 2.67262 10.3868 2.29227 10.4121C2.26057 10.4121 2.22887 10.4185 2.20352 10.4185C1.96262 10.4185 1.73441 10.4185 1.49986 10.4185Z" fill="#B8916D"/>
<path d="M21.9404 10.4178C21.6742 10.4178 21.4143 10.4242 21.148 10.4178C20.8184 10.4052 20.5521 10.1896 20.476 9.89801C20.457 9.83462 20.457 9.77123 20.457 9.7015C20.457 9.24507 20.457 8.78864 20.457 8.33222C20.457 8.06597 20.5648 7.84409 20.755 7.66026C20.8944 7.52713 21.0656 7.45106 21.2621 7.45106C21.7122 7.45106 22.1623 7.44472 22.6124 7.45106C22.9864 7.4574 23.316 7.74267 23.4048 8.12936C23.4238 8.20543 23.4301 8.28784 23.4301 8.37025C23.4301 8.80766 23.4301 9.23873 23.4301 9.67614C23.4301 10.0945 23.1512 10.3988 22.7265 10.4178C22.4666 10.4242 22.2003 10.4178 21.9404 10.4178Z" fill="#B8916D"/>
<path d="M33.0766 14.2473C32.8547 14.2473 32.6328 14.2473 32.4109 14.2473C31.9101 14.241 31.5298 13.8606 31.5234 13.3598C31.5234 12.9605 31.5234 12.5611 31.5234 12.1617C31.5234 11.6482 31.8341 11.2996 32.3602 11.2806C32.8483 11.2615 33.3301 11.2679 33.8182 11.2806C34.1923 11.2932 34.4395 11.5341 34.4902 11.9018C34.4965 11.9652 34.5029 12.0349 34.5029 12.0983C34.5029 12.5167 34.5092 12.9414 34.5029 13.3598C34.5029 13.4993 34.4775 13.6451 34.4332 13.7782C34.3571 14.0191 34.1225 14.2727 33.7485 14.2537C33.7422 14.2537 33.7358 14.2537 33.7358 14.2537C33.5076 14.2473 33.2921 14.2473 33.0766 14.2473Z" fill="#B8916D"/>
<path d="M29.3693 14.2468C29.1474 14.2468 28.9255 14.2405 28.6973 14.2468C28.2409 14.2595 27.9239 13.8601 27.9049 13.4988C27.9049 13.4608 27.8986 13.4291 27.8986 13.391C27.8986 12.9473 27.9049 12.4972 27.8986 12.0534C27.8922 11.6794 28.1458 11.2864 28.6402 11.2737C29.1284 11.2547 29.6165 11.2674 30.0983 11.2737C30.168 11.2737 30.2377 11.2927 30.3075 11.3118C30.6498 11.4132 30.8717 11.6858 30.878 12.0534C30.8843 12.5035 30.8843 12.9536 30.878 13.4037C30.8717 13.7967 30.6244 14.1137 30.2631 14.2151C30.1934 14.2341 30.111 14.2405 30.0412 14.2405C29.8193 14.2468 29.5975 14.2468 29.3693 14.2468Z" fill="#B8916D"/>
<path d="M8.93069 14.2469C8.72149 14.2469 8.51229 14.2342 8.30944 14.2469C7.79596 14.2786 7.47266 13.8412 7.47266 13.4228C7.47266 13.0932 7.47266 12.7635 7.47266 12.4339C7.47266 12.3071 7.47266 12.1803 7.47266 12.0535C7.479 11.5908 7.77694 11.2865 8.23971 11.2675C8.49328 11.2611 8.74685 11.2675 9.00042 11.2675C9.19693 11.2675 9.39345 11.2675 9.58997 11.2675C9.76747 11.2675 9.94497 11.3055 10.0971 11.4069C10.319 11.5527 10.4458 11.7556 10.4458 12.0282C10.4458 12.4909 10.4458 12.96 10.4458 13.4228C10.4458 13.8602 10.0401 14.2533 9.61532 14.2406C9.38711 14.2406 9.1589 14.2469 8.93069 14.2469Z" fill="#B8916D"/>
<path d="M6.61426 12.726C6.61426 12.9732 6.61426 13.2204 6.61426 13.4677C6.61426 13.6198 6.56988 13.7656 6.49381 13.8987C6.36069 14.1206 6.17051 14.2411 5.9106 14.2411C5.44783 14.2411 4.99141 14.2347 4.52864 14.2411C4.12927 14.2474 3.62213 13.8607 3.64114 13.3472C3.65382 12.9415 3.64114 12.5358 3.64114 12.1301C3.64114 11.6863 3.90105 11.3694 4.33846 11.287C4.41453 11.2743 4.49694 11.2616 4.57935 11.2616C5.00408 11.2616 5.42881 11.2553 5.85354 11.2616C5.95497 11.2616 6.0564 11.2743 6.15149 11.306C6.42408 11.3884 6.59524 11.642 6.61426 11.9589C6.61426 11.9779 6.61426 11.997 6.61426 12.0223C6.61426 12.2569 6.61426 12.4914 6.61426 12.726Z" fill="#B8916D"/>
<path d="M59.0928 10.4187C58.8519 10.4187 58.6046 10.425 58.3638 10.4187C57.958 10.406 57.7045 10.1461 57.6981 9.74036C57.6918 9.25858 57.6981 8.77679 57.6981 8.29501C57.6981 8.13653 57.7425 7.98439 57.8122 7.84492C57.9517 7.58501 58.1609 7.44555 58.4588 7.44555C58.8836 7.45189 59.3083 7.45189 59.7394 7.44555C60.2529 7.43287 60.7029 7.93367 60.6776 8.38376C60.6586 8.78313 60.6712 9.1825 60.6712 9.58188C60.6712 10.0637 60.3796 10.3806 59.8915 10.4123C59.6316 10.425 59.359 10.4187 59.0928 10.4187Z" fill="#B8916D"/>
<path d="M2.9936 23.8705C2.9936 24.0861 2.98092 24.2952 2.9936 24.5108C3.01896 24.9038 2.73369 25.2905 2.22021 25.3095C1.73843 25.3285 1.25665 25.3222 0.774862 25.3095C0.324775 25.2968 0.0141518 24.9672 0.0078125 24.5108C0.0078125 24.0734 0.0078125 23.6423 0.0078125 23.2049C0.0078125 22.945 0.0965621 22.7231 0.293079 22.5393C0.438882 22.3998 0.610042 22.3301 0.812898 22.3301C1.26299 22.3301 1.71307 22.3301 2.16316 22.3301C2.59423 22.3301 2.96825 22.6914 2.98726 23.1225C2.99994 23.3761 2.9936 23.6233 2.9936 23.8705Z" fill="#B8916D"/>
<path d="M27.9033 23.851C27.9033 23.6038 27.897 23.3566 27.9033 23.1093C27.916 22.748 28.1759 22.431 28.5182 22.355C28.5689 22.3423 28.626 22.3359 28.683 22.3359C29.1331 22.3359 29.5832 22.3359 30.0333 22.3359C30.42 22.3359 30.7686 22.6212 30.8511 23.0016C30.8701 23.084 30.8764 23.1727 30.8764 23.2551C30.8764 23.6608 30.8764 24.0666 30.8764 24.4723C30.8764 24.9731 30.5468 25.309 30.0396 25.3154C29.5832 25.3217 29.1268 25.3217 28.6704 25.3154C28.309 25.309 28.0174 25.0999 27.9223 24.7766C27.9033 24.7005 27.897 24.6181 27.8906 24.5357C27.9033 24.3074 27.9033 24.0792 27.9033 23.851Z" fill="#B8916D"/>
<path d="M21.9369 17.86C21.6897 17.86 21.4424 17.8663 21.1952 17.86C20.8465 17.8536 20.5549 17.6318 20.4789 17.3085C20.4662 17.2577 20.4598 17.207 20.4598 17.1563C20.4598 16.6745 20.4535 16.1927 20.4598 15.7173C20.4662 15.3116 20.7641 14.9629 21.1445 14.8995C21.2015 14.8869 21.2523 14.8869 21.3093 14.8869C21.7277 14.8869 22.1398 14.8995 22.5581 14.8805C23.0463 14.8615 23.4266 15.2736 23.4393 15.7236C23.452 16.1991 23.4456 16.6745 23.4393 17.15C23.433 17.5493 23.1097 17.8473 22.6913 17.86C22.4314 17.8663 22.1841 17.86 21.9369 17.86Z" fill="#B8916D"/>
<path d="M2.99145 20.1487C2.99145 20.3769 2.98511 20.6051 2.99145 20.8334C3.01047 21.2327 2.64279 21.7082 2.13565 21.6892C1.71726 21.6765 1.29253 21.6701 0.874141 21.6892C0.430394 21.7082 0.0310205 21.3532 0.0120027 20.8524C-0.00701508 20.3833 -0.000675822 19.9142 0.0120027 19.4387C0.0183419 19.0267 0.335305 18.7224 0.760035 18.7097C1.24816 18.697 1.74262 18.697 2.23074 18.7097C2.50967 18.716 2.73788 18.8365 2.89002 19.0837C2.95976 19.1915 2.99145 19.3119 2.98511 19.4451C2.99145 19.6859 2.99145 19.9205 2.99145 20.1487Z" fill="#B8916D"/>
<path d="M21.9405 6.80466C21.7186 6.80466 21.4968 6.79832 21.2685 6.80466C20.8058 6.81734 20.4508 6.40529 20.4571 5.99958C20.4635 5.53681 20.4571 5.06771 20.4571 4.60494C20.4635 4.20557 20.7487 3.89494 21.1481 3.84423C21.1861 3.83789 21.2305 3.83789 21.2685 3.83789C21.7123 3.83789 22.1624 3.83789 22.6061 3.83789C22.7646 3.83789 22.9167 3.86959 23.0562 3.95834C23.2908 4.10414 23.4239 4.31967 23.4302 4.5986C23.4366 5.07405 23.4429 5.54949 23.4302 6.02493C23.4175 6.50038 23.0118 6.82368 22.6251 6.811C22.3969 6.79832 22.1687 6.80466 21.9405 6.80466Z" fill="#B8916D"/>
<path d="M2.99145 5.31468C2.99145 5.54289 2.99145 5.77111 2.99145 5.99932C2.98511 6.44941 2.64279 6.79807 2.19271 6.80441C1.74262 6.81074 1.29253 6.79807 0.836106 6.81074C0.436733 6.82342 0.0310205 6.51914 0.0120027 6.012C-0.00701508 5.54289 -0.000675822 5.06745 0.0120027 4.59834C0.0246812 4.17361 0.341644 3.85031 0.760035 3.83763C1.2545 3.82496 1.74262 3.82496 2.23708 3.83763C2.69351 3.85031 3.01681 4.24335 2.99779 4.64272C2.98511 4.86459 2.99145 5.09281 2.99145 5.31468Z" fill="#B8916D"/>
<path d="M45.7728 23.8632C45.7728 24.0787 45.7665 24.3006 45.7728 24.5161C45.7791 24.8394 45.6207 25.055 45.3544 25.2008C45.2213 25.2769 45.0691 25.3086 44.917 25.3086C44.4606 25.3086 44.0042 25.3149 43.5477 25.3086C43.104 25.3022 42.806 25.0043 42.7997 24.5605C42.7934 24.0978 42.7997 23.6286 42.7997 23.1659C42.7997 22.9503 42.8631 22.7538 43.0025 22.589C43.142 22.4179 43.3195 22.3291 43.5477 22.3291C44.0105 22.3291 44.4669 22.3291 44.9297 22.3291C45.3734 22.3354 45.7665 22.7221 45.7728 23.1595C45.7728 23.4004 45.7728 23.6286 45.7728 23.8632Z" fill="#B8916D"/>
<path d="M55.3808 17.8601C55.1399 17.8601 54.8927 17.8601 54.6518 17.8601C54.4553 17.8601 54.2714 17.7967 54.1193 17.6699C53.9545 17.5368 53.8594 17.3593 53.8594 17.1438C53.8594 16.681 53.8594 16.2119 53.8594 15.7491C53.8594 15.3244 54.2461 14.8807 54.7279 14.887C55.1526 14.8933 55.5773 14.8997 56.002 14.887C56.5028 14.8743 56.8198 15.299 56.8261 15.6667C56.8388 16.1802 56.8388 16.6873 56.8261 17.2008C56.8198 17.5685 56.5028 17.8474 56.1225 17.8601C55.8816 17.8664 55.6344 17.8601 55.3808 17.8601Z" fill="#B8916D"/>
<path d="M49.3867 12.7387C49.3867 12.9796 49.3867 13.2141 49.3867 13.455C49.3867 13.6642 49.3106 13.8544 49.1711 14.0065C49.0317 14.1587 48.8605 14.2474 48.6513 14.2474C48.1822 14.2474 47.7068 14.2538 47.2377 14.2474C46.8003 14.2411 46.4199 13.8671 46.4136 13.436C46.4009 12.9669 46.4072 12.4978 46.4136 12.0223C46.4199 11.6737 46.6862 11.3821 47.0475 11.2997C47.1299 11.2806 47.2187 11.2743 47.3011 11.2743C47.7321 11.2743 48.1632 11.268 48.5943 11.2743C48.6894 11.2743 48.7845 11.287 48.8795 11.3123C49.1775 11.3947 49.3803 11.6673 49.3867 11.978C49.393 12.2315 49.3867 12.4851 49.3867 12.7387Z" fill="#B8916D"/>
<path d="M44.2348 18.7164C44.4693 18.7164 44.7039 18.7164 44.9321 18.7164C45.1603 18.7228 45.3632 18.7925 45.5343 18.9383C45.6928 19.0714 45.7752 19.2426 45.7752 19.4581C45.7752 19.9209 45.7816 20.39 45.7752 20.8528C45.7689 21.2965 45.3759 21.6832 44.9321 21.6895C44.4884 21.6959 44.051 21.6769 43.6072 21.6959C43.1698 21.7086 42.8972 21.3916 42.8211 21.0556C42.8085 20.9859 42.8021 20.9162 42.7958 20.8464C42.7958 20.3837 42.7894 19.9272 42.7958 19.4645C42.7958 19.1221 42.9669 18.8686 43.2586 18.7735C43.3536 18.7418 43.4551 18.7291 43.5565 18.7228C43.7847 18.7101 44.0129 18.7164 44.2348 18.7164Z" fill="#B8916D"/>
<path d="M33.0892 22.3294C33.2984 22.3294 33.5076 22.3358 33.7105 22.3294C34.1606 22.3041 34.4205 22.6527 34.4775 22.9824C34.4902 23.0648 34.4965 23.1535 34.4965 23.2423C34.4965 23.6543 34.4965 24.0727 34.4965 24.4848C34.4965 24.5482 34.4902 24.6179 34.4839 24.6813C34.4332 25.049 34.1732 25.3025 33.7992 25.3025C33.3238 25.3089 32.8483 25.3089 32.3729 25.3025C32.1637 25.3025 31.9735 25.2265 31.8087 25.0997C31.6312 24.9602 31.5234 24.7827 31.5234 24.5545C31.5234 24.0917 31.5234 23.6226 31.5234 23.1599C31.5234 22.7034 31.9925 22.3231 32.3919 22.3294C32.6201 22.3358 32.8547 22.3294 33.0892 22.3294Z" fill="#B8916D"/>
<path d="M44.226 10.4178C43.9788 10.4178 43.7316 10.4242 43.4843 10.4178C43.0723 10.3988 42.806 10.1326 42.7997 9.71417C42.7934 9.25141 42.7997 8.7823 42.7997 8.31954C42.7997 8.09766 42.8694 7.90115 43.0025 7.72999C43.1484 7.54615 43.3322 7.45106 43.5667 7.45106C44.0105 7.45106 44.4606 7.44472 44.9043 7.45106C45.3671 7.4574 45.7665 7.85677 45.7728 8.31954C45.7791 8.7823 45.7728 9.25141 45.7728 9.71417C45.7728 9.93605 45.6777 10.1009 45.5066 10.234C45.3608 10.3481 45.1896 10.4115 44.9994 10.4178C44.7458 10.4178 44.4859 10.4178 44.226 10.4178Z" fill="#B8916D"/>
<path d="M44.2415 6.80514C44.0323 6.80514 43.8231 6.79246 43.6202 6.80514C43.1194 6.83684 42.8152 6.4438 42.8025 6.03175C42.7898 5.54363 42.7898 5.04917 42.8025 4.56105C42.8152 4.12998 43.1385 3.83203 43.5569 3.83203C44.0069 3.83837 44.457 3.83203 44.9134 3.83203C45.1797 3.83203 45.4079 3.93346 45.5854 4.12998C45.6995 4.25676 45.7692 4.4089 45.7692 4.5864C45.7692 5.06185 45.7756 5.53729 45.7692 6.01274C45.7629 6.42479 45.3952 6.78612 44.9705 6.7988C44.7296 6.81148 44.4887 6.80514 44.2415 6.80514Z" fill="#B8916D"/>
<path d="M14.0673 1.59963C14.0673 1.82784 14.0673 2.05606 14.0673 2.28427C14.0673 2.68998 13.8327 2.93721 13.4333 2.97525C13.3826 2.98159 13.3319 2.98159 13.2812 2.98159C12.8628 2.98159 12.4381 2.98159 12.0197 2.98159C11.8168 2.98159 11.6266 2.94989 11.4491 2.84846C11.2146 2.71534 11.0878 2.51882 11.0941 2.23989C11.1005 1.80249 11.1068 1.37142 11.0941 0.934007C11.0815 0.572669 11.3794 0.154279 11.7534 0.0401719C11.8422 0.0148149 11.9309 0.00847561 12.026 0.00847561C12.4444 0.00213635 12.8691 0.0148149 13.2875 0.00213635C13.6108 -0.00420291 13.8264 0.154279 13.9658 0.426867C14.0356 0.56633 14.0736 0.718472 14.0736 0.876954C14.0673 1.12418 14.0673 1.36508 14.0673 1.59963Z" fill="#B8916D"/>
<path d="M35.354 20.1557C35.354 19.9275 35.3603 19.6993 35.354 19.4711C35.3477 19.04 35.6519 18.7167 36.1084 18.7167C36.5711 18.7103 37.0402 18.7167 37.503 18.7167C37.7249 18.7167 37.9214 18.7864 38.0862 18.9386C38.232 19.0717 38.3208 19.2302 38.3208 19.4267C38.3208 19.9148 38.3334 20.3966 38.3208 20.8847C38.3081 21.3221 37.9214 21.6835 37.484 21.6898C37.0466 21.6961 36.6028 21.6898 36.1591 21.6898C35.728 21.6898 35.392 21.3919 35.3603 20.9608C35.3413 20.7199 35.354 20.4727 35.3477 20.2318C35.354 20.2064 35.354 20.1811 35.354 20.1557Z" fill="#B8916D"/>
<path d="M27.9078 1.58129C27.9078 1.34674 27.9078 1.11853 27.9078 0.883974C27.9078 0.6621 27.9839 0.465583 28.1234 0.294423C28.2692 0.110585 28.4593 0.00281745 28.7002 0.00281745C29.1503 0.00281745 29.6004 -0.00352181 30.0505 0.00281745C30.4435 0.0091567 30.7859 0.313441 30.8619 0.719153C30.8809 0.801564 30.8873 0.890313 30.8873 0.972724C30.8873 1.37844 30.8873 1.78415 30.8873 2.18986C30.8873 2.64629 30.6274 2.92521 30.1709 2.96325C30.1139 2.96959 30.0568 2.96959 30.0061 2.96959C29.5877 2.96959 29.163 2.96959 28.7446 2.96959C28.5925 2.96959 28.4403 2.95691 28.3009 2.88718C28.06 2.77307 27.9269 2.58289 27.9142 2.31665C27.9015 2.08209 27.9078 1.83486 27.9078 1.58129Z" fill="#B8916D"/>
<path d="M51.6689 2.9819C51.466 2.9819 51.2632 2.9819 51.0603 2.9819C51.0096 2.9819 50.9589 2.9819 50.9082 2.97556C50.4898 2.94386 50.2489 2.69663 50.2489 2.2719C50.2426 1.81548 50.2489 1.35905 50.2489 0.902624C50.2489 0.674411 50.3123 0.465215 50.4518 0.281377C50.5786 0.110217 50.7497 0.00878906 50.9716 0.00878906C51.4407 0.00878906 51.9035 0.00878906 52.3726 0.00878906C52.829 0.00878906 53.2347 0.503251 53.2284 0.896285C53.222 1.35271 53.222 1.80914 53.2284 2.26556C53.2284 2.50012 53.1269 2.67128 52.9431 2.8044C52.7593 2.93753 52.5501 2.9819 52.3218 2.9819C52.1 2.9819 51.8844 2.9819 51.6689 2.9819Z" fill="#B8916D"/>
<path d="M6.61253 1.58749C6.61253 1.83472 6.61887 2.08195 6.60619 2.32918C6.59985 2.43695 6.56816 2.55106 6.52378 2.64615C6.43503 2.83632 6.27021 2.93141 6.06736 2.96311C5.99128 2.97579 5.91521 2.97579 5.83914 2.97579C5.42075 2.97579 4.99602 2.97579 4.57763 2.97579C4.37477 2.97579 4.1846 2.94409 4.0071 2.849C3.75987 2.70954 3.62674 2.51302 3.63308 2.22142C3.63942 1.79669 3.64576 1.37196 3.63308 0.947226C3.6204 0.516157 4.05781 -0.00366199 4.55861 0.00901652C5.00236 0.021695 5.43977 0.0153558 5.88352 0.00901652C6.14977 0.00901652 6.33361 0.135802 6.46673 0.351336C6.55548 0.503478 6.60619 0.66196 6.61253 0.839459C6.61887 1.09303 6.61253 1.34026 6.61253 1.58749Z" fill="#B8916D"/>
<path d="M49.39 1.58142C49.39 1.82231 49.39 2.05687 49.39 2.29776C49.39 2.67177 49.1554 2.93168 48.7814 2.97606C48.718 2.9824 48.6483 2.98874 48.5849 2.98874C48.1602 2.98874 47.7354 2.98874 47.3107 2.98874C47.1396 2.98874 46.9747 2.96972 46.8226 2.89365C46.5563 2.76052 46.4169 2.55767 46.4169 2.25338C46.4169 1.81597 46.4105 1.37223 46.4169 0.934817C46.4232 0.560801 46.6071 0.294552 46.9177 0.104375C47.0255 0.040982 47.1459 0.015625 47.2663 0.015625C47.7164 0.015625 48.1665 0.015625 48.6166 0.015625C48.8638 0.015625 49.054 0.129732 49.1935 0.319909C49.3139 0.48473 49.3837 0.674908 49.3837 0.884103C49.39 1.11232 49.39 1.34687 49.39 1.58142Z" fill="#B8916D"/>
<path d="M36.8046 17.8603C36.5637 17.8603 36.3291 17.8603 36.0883 17.8603C35.6508 17.854 35.3529 17.5687 35.3466 17.125C35.3402 16.6622 35.3466 16.2058 35.3466 15.743C35.3466 15.5338 35.41 15.3436 35.5367 15.1788C35.6825 14.9886 35.8791 14.8809 36.1263 14.8809C36.57 14.8809 37.0201 14.8809 37.4639 14.8809C37.9013 14.8809 38.3007 15.2485 38.3133 15.6923C38.326 16.1804 38.3197 16.6749 38.3133 17.163C38.3133 17.3532 38.2309 17.5053 38.0915 17.6321C37.933 17.7779 37.7428 17.854 37.5273 17.854C37.2927 17.8603 37.0518 17.8603 36.8046 17.8603Z" fill="#B8916D"/>
<path d="M8.93263 2.9819C8.71709 2.9819 8.5079 2.98824 8.29236 2.9819C8.17192 2.97556 8.04513 2.96922 7.93102 2.93119C7.6521 2.84878 7.4746 2.62056 7.46826 2.3353C7.46192 1.83449 7.45558 1.33369 7.46826 0.832892C7.4746 0.592001 7.58236 0.382805 7.75352 0.211645C7.87397 0.0911994 8.01977 0.0151283 8.19727 0.00878906C8.67906 0.00878906 9.16084 0.00878906 9.64262 0.00878906C9.98494 0.00878906 10.3019 0.319413 10.397 0.655393C10.4224 0.744143 10.435 0.845571 10.435 0.94066C10.4414 1.36539 10.435 1.79012 10.435 2.21485C10.435 2.63958 10.1815 2.92485 9.75673 2.95654C9.4778 2.97556 9.19887 2.96288 8.91995 2.96288C8.93263 2.97556 8.93263 2.97556 8.93263 2.9819Z" fill="#B8916D"/>
<path d="M56.8388 1.58092C56.8388 1.81548 56.8388 2.04369 56.8388 2.27824C56.8388 2.65226 56.5979 2.91851 56.2239 2.96288C56.1605 2.96922 56.0908 2.97556 56.0274 2.97556C55.5963 2.97556 55.1653 2.97556 54.7342 2.97556C54.5694 2.97556 54.4109 2.95654 54.2587 2.88047C53.9988 2.75369 53.8594 2.54449 53.8594 2.25289C53.8594 1.80914 53.8594 1.35905 53.8594 0.915303C53.8594 0.585661 54.0052 0.332091 54.2651 0.141913C54.3792 0.0595031 54.506 0.00878906 54.6454 0.00878906C55.1336 0.00878906 55.6154 0.00878906 56.1035 0.00878906C56.2746 0.00878906 56.4141 0.0848601 56.5345 0.198967C56.7247 0.382805 56.8261 0.611018 56.8325 0.877267C56.8388 1.11816 56.8388 1.34637 56.8388 1.58092Z" fill="#B8916D"/>
<path d="M14.9196 1.5875C14.9196 1.35295 14.9196 1.12473 14.9196 0.890182C14.9196 0.700004 14.9766 0.522505 15.078 0.357684C15.2238 0.129471 15.4267 0.00268581 15.712 0.00902507C16.143 0.0153643 16.5741 0.0217036 17.0052 0.00902507C17.525 -0.00365344 17.8927 0.497148 17.8927 0.871164C17.899 1.34661 17.899 1.82205 17.8927 2.2975C17.8927 2.53839 17.7659 2.71589 17.563 2.84267C17.4045 2.9441 17.227 2.9758 17.0432 2.9758C16.5931 2.9758 16.143 2.98214 15.6929 2.9758C15.5852 2.9758 15.4774 2.95678 15.3823 2.93142C15.1097 2.84901 14.9386 2.6208 14.9259 2.32919C14.9132 2.08196 14.9196 1.83473 14.9196 1.5875Z" fill="#B8916D"/>
<path d="M35.354 5.30263C35.354 5.06174 35.3477 4.82718 35.354 4.58629C35.3603 4.23763 35.5632 3.9587 35.8802 3.86362C35.9626 3.83826 36.0513 3.83192 36.1337 3.83192C36.5775 3.82558 37.0276 3.83192 37.4713 3.83192C37.6805 3.83192 37.8707 3.88897 38.0355 4.0221C38.2193 4.1679 38.3208 4.35808 38.3208 4.59897C38.3208 5.06173 38.3271 5.53084 38.3208 5.99361C38.3144 6.41834 37.9658 6.78601 37.541 6.79235C37.0466 6.80503 36.5585 6.80503 36.064 6.79235C35.709 6.78601 35.411 6.49441 35.3603 6.13307C35.354 6.06968 35.3477 5.99995 35.3477 5.93655C35.354 5.72736 35.354 5.51816 35.354 5.30263Z" fill="#B8916D"/>
<path d="M33.0652 2.98179C32.8497 2.98179 32.6405 2.98179 32.425 2.98179C32.2411 2.98179 32.0636 2.95009 31.8988 2.86134C31.6579 2.72822 31.5184 2.53804 31.5184 2.25277C31.5184 1.80903 31.5121 1.35894 31.5184 0.91519C31.5248 0.528496 31.7974 0.167158 32.165 0.0467124C32.2601 0.0150161 32.3616 0.00867682 32.463 0.00867682C32.856 0.00233757 33.2554 0.00867682 33.6484 0.00867682C34.1112 0.00867682 34.4091 0.262247 34.4725 0.725013C34.4852 0.807423 34.4916 0.883494 34.4916 0.965904C34.4916 1.37796 34.4916 1.79635 34.4916 2.2084C34.4916 2.72822 34.2507 2.96911 33.7308 2.97545C33.5153 2.98179 33.2871 2.98179 33.0652 2.98179Z" fill="#B8916D"/>
<path d="M44.2305 2.98196C44.0277 2.98196 43.8248 2.98196 43.622 2.98196C43.5586 2.98196 43.4888 2.97562 43.4254 2.96928C43.0578 2.93125 42.8105 2.69035 42.8042 2.32268C42.7915 1.83455 42.7979 1.34009 42.8042 0.85197C42.8042 0.649114 42.8739 0.465275 43.0007 0.300454C43.1402 0.116616 43.3177 0.00884865 43.5522 0.00884865C44.0087 0.00884865 44.4651 0.0151879 44.9215 0.00884865C45.397 0.0025094 45.7773 0.503311 45.7773 0.864648C45.7773 1.34643 45.7773 1.82821 45.7773 2.31C45.7773 2.55089 45.6505 2.72205 45.454 2.8425C45.2828 2.95026 45.099 2.98196 44.9025 2.98196C44.6806 2.98196 44.4587 2.98196 44.2305 2.98196Z" fill="#B8916D"/>
<path d="M2.99117 1.58748C2.99117 1.80935 2.98483 2.03123 2.99117 2.2531C3.01019 2.61444 2.75028 2.89971 2.36358 2.9631C2.3509 2.9631 2.33189 2.96944 2.31921 2.96944C1.77403 2.96944 1.22252 2.98846 0.677341 2.9631C0.271628 2.94408 0.0117188 2.64614 0.0117188 2.24042C0.0117188 1.80302 0.0117188 1.37195 0.0117188 0.934537C0.0117188 0.725342 0.0687721 0.535164 0.189218 0.364004C0.347699 0.135791 0.563234 0.00266644 0.85484 0.0090057C1.27957 0.015345 1.7043 0.0090057 2.12903 0.0090057C2.5918 0.0090057 2.97215 0.383022 2.98483 0.852127C2.99751 1.09936 2.99117 1.34025 2.99117 1.58748Z" fill="#B8916D"/>
<path d="M25.6508 2.9819C25.4353 2.9819 25.2134 2.9819 24.9979 2.9819C24.7887 2.9819 24.5858 2.93753 24.402 2.82342C24.1928 2.69029 24.0724 2.50646 24.0787 2.24655C24.085 1.80914 24.0914 1.36539 24.0787 0.921642C24.0597 0.496912 24.5161 0.0151283 24.9345 0.00878906C25.4163 0.00878906 25.8981 0.00878906 26.3798 0.00878906C26.57 0.00878906 26.7158 0.0975387 26.8363 0.243342C26.9884 0.42718 27.0518 0.642715 27.0518 0.877267C27.0582 1.34637 27.0582 1.82182 27.0518 2.29092C27.0455 2.70931 26.8109 2.9502 26.3925 2.96922C26.1453 2.98824 25.8981 2.97556 25.6508 2.9819Z" fill="#B8916D"/>
<path d="M35.3556 12.7192C35.3556 12.4973 35.3556 12.2754 35.3556 12.0535C35.3619 11.5971 35.6535 11.2865 36.1163 11.2801C36.5791 11.2738 37.0418 11.2738 37.4982 11.2801C37.7328 11.2801 37.942 11.3626 38.1132 11.5337C38.2463 11.6668 38.3224 11.8317 38.3224 12.0218C38.3224 12.4909 38.3287 12.9664 38.3224 13.4355C38.316 13.8856 37.942 14.2469 37.4856 14.2533C37.0418 14.2596 36.5917 14.2469 36.148 14.2596C35.6662 14.2723 35.3746 13.8602 35.3556 13.5306C35.3429 13.296 35.3492 13.0678 35.3492 12.8333C35.3556 12.7889 35.3556 12.7509 35.3556 12.7192Z" fill="#B8916D"/>
<path d="M68.8853 24.9984C68.7268 24.9984 68.5874 24.9984 68.4352 24.9984C68.207 24.1679 67.9788 23.3375 67.7569 22.5134C67.7442 22.5134 67.7379 22.5134 67.7252 22.5071C67.5984 22.9191 67.497 23.3375 67.3766 23.7495C67.2624 24.1616 67.1483 24.58 67.0342 24.9984C66.8884 24.9984 66.749 24.9984 66.5905 24.9984C66.2672 23.9904 65.9375 22.9762 65.6016 21.9365C65.684 21.9365 65.7474 21.9365 65.8108 21.9365C65.8742 21.9365 65.9439 21.9365 66.0136 21.9365C66.2799 22.786 66.5461 23.6291 66.806 24.4722C66.8187 24.4722 66.8314 24.4722 66.8377 24.4722C66.9645 24.0602 67.0659 23.6354 67.18 23.2171C67.2941 22.7923 67.4083 22.3676 67.5224 21.9429C67.6745 21.9429 67.814 21.9429 67.9724 21.9429C68.1943 22.786 68.4225 23.6291 68.6507 24.4722C68.7839 24.206 68.8599 23.9207 68.9487 23.6418C69.0438 23.3629 69.1262 23.0839 69.2149 22.805C69.3037 22.5197 69.3924 22.2345 69.4875 21.9492C69.6143 21.9492 69.7348 21.9492 69.8742 21.9492C69.5446 22.9635 69.2149 23.9778 68.8853 24.9984Z" fill="#B8916D"/>
<path d="M75.8906 24.9865C75.8906 23.9722 75.8906 22.9642 75.8906 21.95C75.9287 21.9436 75.9604 21.9373 75.9921 21.9373C76.3407 21.9373 76.6894 21.9246 77.038 21.9373C77.5452 21.9563 77.9636 22.1465 78.2425 22.5902C78.6165 23.1861 78.5278 24.0673 78.046 24.5617C77.7734 24.8407 77.4374 24.9801 77.057 24.9928C76.6894 25.0055 76.3154 24.9991 75.9477 24.9991C75.935 24.9991 75.9223 24.9928 75.8906 24.9865ZM76.2773 24.6632C76.5689 24.6632 76.8415 24.6885 77.1078 24.6568C77.5642 24.6061 77.8685 24.3462 78.0079 23.9088C78.103 23.6299 78.103 23.3446 78.027 23.0593C77.9002 22.5839 77.5452 22.2923 77.057 22.2669C76.8225 22.2542 76.5816 22.2606 76.3407 22.2606C76.3154 22.2606 76.2963 22.2733 76.271 22.2796C76.2773 23.072 76.2773 23.8644 76.2773 24.6632Z" fill="#B8916D"/>
<path d="M74.6333 23.6734C74.7474 23.8952 74.8615 24.1108 74.9693 24.3263C75.077 24.5418 75.1911 24.7574 75.3053 24.9919C75.1721 24.9919 75.0453 24.9919 74.8995 24.9919C74.6903 24.5862 74.4748 24.1678 74.2593 23.7368C74.0247 23.7368 73.7902 23.7368 73.5303 23.7368C73.5303 24.1615 73.5303 24.5735 73.5303 24.9983C73.3971 24.9983 73.283 24.9983 73.1562 24.9983C73.1562 23.984 73.1562 22.9697 73.1562 21.9491C73.1943 21.9427 73.2323 21.9364 73.2767 21.9364C73.5937 21.9364 73.917 21.9301 74.2339 21.9364C74.3861 21.9428 74.5382 21.9618 74.684 22.0061C75.0263 22.1076 75.2292 22.3421 75.2672 22.7035C75.2989 23.0521 75.1848 23.3437 74.8805 23.5402C74.8108 23.591 74.7284 23.6227 74.6333 23.6734ZM73.5429 23.4008C73.7141 23.4325 74.272 23.4261 74.4178 23.3944C74.4621 23.3818 74.5065 23.3691 74.5445 23.3501C74.9249 23.1916 74.9439 22.7161 74.7918 22.5006C74.7474 22.4309 74.6713 22.3738 74.5953 22.3358C74.5128 22.2977 74.4114 22.2661 74.3163 22.2661C74.0754 22.2534 73.8282 22.2597 73.5873 22.2597C73.5746 22.2597 73.562 22.2661 73.5366 22.2724C73.5429 22.6464 73.5429 23.0204 73.5429 23.4008Z" fill="#B8916D"/>
<path d="M78.9102 24.1113C79.0433 24.1113 79.1574 24.1113 79.2778 24.1113C79.2842 24.1367 79.2905 24.1557 79.2968 24.1747C79.3412 24.4854 79.5314 24.6629 79.8293 24.7199C80.0639 24.7706 80.3048 24.7643 80.533 24.6755C80.7549 24.5868 80.8626 24.422 80.85 24.1938C80.8436 24.0353 80.7739 23.9085 80.6408 23.8261C80.5203 23.7563 80.3935 23.7056 80.2668 23.6676C80.0829 23.6105 79.8927 23.5725 79.7089 23.5091C79.5885 23.4711 79.4743 23.4204 79.3602 23.357C78.9038 23.1097 78.8785 22.3617 79.3476 22.0828C79.5948 21.9306 79.8674 21.8799 80.1463 21.8863C80.3365 21.8863 80.5203 21.918 80.6915 21.994C81.0148 22.1335 81.205 22.4124 81.205 22.7611C81.0909 22.7611 80.9768 22.7611 80.8563 22.7611C80.85 22.7421 80.831 22.7167 80.831 22.6913C80.7866 22.4251 80.6218 22.2666 80.3682 22.2159C80.14 22.1652 79.9118 22.1652 79.6962 22.2603C79.4617 22.3617 79.3602 22.5646 79.4236 22.8055C79.4553 22.9322 79.5314 23.0273 79.6455 23.0844C79.766 23.1478 79.8927 23.1985 80.0259 23.2365C80.178 23.2872 80.3428 23.3189 80.495 23.3633C80.6218 23.4013 80.7422 23.4521 80.8627 23.5091C81.3888 23.7754 81.3444 24.479 81.0021 24.7706C80.9514 24.815 80.9007 24.8594 80.8436 24.8847C80.3555 25.1129 79.861 25.1256 79.3793 24.8784C79.0623 24.7263 78.9292 24.4537 78.9102 24.1113Z" fill="#B8916D"/>
<path d="M72.6285 24.9925C72.4827 24.9925 72.3623 24.9925 72.2165 24.9925C72.1024 24.7073 71.9883 24.4157 71.8742 24.124C71.4114 24.124 70.9613 24.124 70.4985 24.124C70.3908 24.4093 70.283 24.6946 70.1689 24.9862C70.0421 24.9862 69.9153 24.9862 69.7695 24.9862C70.1689 23.9656 70.5683 22.9513 70.9677 21.9307C71.1198 21.9307 71.2656 21.9307 71.4304 21.9307C71.8298 22.9513 72.2228 23.9656 72.6285 24.9925ZM71.7601 23.8007C71.5699 23.2999 71.386 22.8245 71.2022 22.3427C71.1895 22.3427 71.1832 22.3427 71.1705 22.3427C70.9867 22.8245 70.8028 23.2999 70.619 23.8007C71.0057 23.8007 71.367 23.8007 71.7601 23.8007Z" fill="#B8916D"/>
<path d="M65.2844 24.9862C65.1703 24.7009 65.0625 24.4157 64.9484 24.1241C64.4856 24.1241 64.0355 24.1241 63.5728 24.1241C63.465 24.4093 63.3572 24.6946 63.2431 24.9925C63.1163 24.9925 62.9896 24.9925 62.8438 24.9925C63.2431 23.9719 63.6362 22.964 64.0355 21.9434C64.1877 21.9434 64.3398 21.9434 64.5046 21.9434C64.8977 22.945 65.297 23.9592 65.6964 24.9862C65.5569 24.9862 65.4302 24.9862 65.2844 24.9862ZM64.8343 23.8008C64.6441 23.3 64.4666 22.8182 64.2701 22.3301C64.1306 22.59 63.7312 23.6867 63.7312 23.8008C64.0862 23.8008 64.4412 23.8008 64.8343 23.8008Z" fill="#B8916D"/>
<path d="M29.4426 33.9178H30.8332V39.4805H29.3631V36.5243L28.1711 38.352H27.3288L26.1368 36.5164V39.4805H24.6666V33.9178H26.0573L27.7499 36.5243L29.4426 33.9178ZM35.2611 39.4805H33.7513L35.9366 33.9178H37.5259L39.7112 39.4805H38.2014L37.8835 38.6063H35.579L35.2611 39.4805ZM36.5882 35.8091L36.0161 37.4143H37.4465L36.8743 35.8091C36.8266 35.674 36.7789 35.5389 36.7313 35.2449C36.6836 35.5389 36.6359 35.674 36.5882 35.8091ZM44.0974 39.4805H42.6273V33.9178H44.9716C46.1 33.9178 47.2522 34.3231 47.2522 35.7932C47.2522 36.715 46.7993 37.2157 46.1874 37.462L47.7211 39.4805H46.0602L44.7332 37.6686H44.0974V39.4805ZM44.0974 35.1893V36.4766H45.0351C45.4563 36.4766 45.7424 36.2621 45.7424 35.833C45.7424 35.4038 45.4563 35.1893 45.0351 35.1893H44.0974ZM52.131 39.4805H50.6609V33.9178H52.131V36.0237H52.8303L54.0938 33.9178H55.7229L53.9746 36.6276L55.8023 39.4805H54.1733L52.8223 37.3349H52.131V39.4805ZM58.6556 33.9178H62.6607V35.1893H60.1257V36.0396H62.4223V37.3031H60.1257V38.209H62.7084V39.4805H58.6556V33.9178ZM65.523 33.9178H70.1321V35.229H68.5666V39.4805H67.0964V35.229H65.523V33.9178ZM73.1474 33.9178H74.6175V39.4805H73.1474V33.9178ZM79.5236 39.4805H78.0535V33.9178H79.4442L81.6215 37.1124C81.5977 36.8501 81.5898 36.5005 81.5898 36.1906V33.9178H83.0599V39.4805H81.6692L79.4918 36.2939C79.5157 36.5561 79.5236 36.9058 79.5236 37.2077V39.4805ZM86.2204 36.6991C86.2204 34.6251 87.7382 33.7986 89.2878 33.7986C89.8838 33.7986 90.4878 33.9258 91.0122 34.1483V35.5389C90.599 35.2529 90.0348 35.0939 89.4785 35.0939C88.5806 35.0939 87.7303 35.5548 87.7303 36.6991C87.7303 38.0739 88.7395 38.3362 89.3752 38.3362C89.5342 38.3362 89.6613 38.3203 89.7567 38.2964V36.421H91.1473V39.2262C90.5752 39.4646 89.9315 39.5997 89.3037 39.5997C87.7223 39.5997 86.2204 38.7176 86.2204 36.6991ZM28.0989 46.7786C28.0989 44.6807 29.6088 43.7986 31.1107 43.7986C31.6749 43.7986 32.2391 43.9178 32.7239 44.1483V45.5389C32.3822 45.2529 31.8736 45.086 31.365 45.086C30.4829 45.086 29.6088 45.5707 29.6088 46.7786C29.6088 47.8594 30.4829 48.3044 31.3491 48.3044C31.9213 48.3044 32.4457 48.1295 32.7636 47.8196V49.25C32.2789 49.4805 31.7305 49.5997 31.1425 49.5997C29.6167 49.5997 28.0989 48.7653 28.0989 46.7786ZM36.9537 49.4805H35.4438L37.6291 43.9178H39.2185L41.4038 49.4805H39.8939L39.5761 48.6063H37.2715L36.9537 49.4805ZM38.2808 45.8091L37.7086 47.4143H39.139L38.5668 45.8091C38.5192 45.674 38.4715 45.5389 38.4238 45.2449C38.3761 45.5389 38.3284 45.674 38.2808 45.8091ZM49.0958 43.9178H50.4864V49.4805H49.0163V46.5243L47.8243 48.352H46.982L45.79 46.5164V49.4805H44.3198V43.9178H45.7105L47.4031 46.5243L49.0958 43.9178ZM53.921 43.9178H56.1222C57.497 43.9178 58.5459 44.3628 58.5459 45.825C58.5459 47.2872 57.497 47.7243 56.1222 47.7322H55.3911V49.4805H53.921V43.9178ZM57.0361 45.825C57.0361 45.3244 56.6387 45.1893 56.1937 45.1893H55.3911V46.4607H56.1937C56.6387 46.4607 57.0361 46.3257 57.0361 45.825ZM62.0787 49.4805H60.5689L62.7542 43.9178H64.3435L66.5288 49.4805H65.019L64.7011 48.6063H62.3966L62.0787 49.4805ZM63.4058 45.8091L62.8337 47.4143H64.264L63.6919 45.8091C63.6442 45.674 63.5965 45.5389 63.5489 45.2449C63.5012 45.5389 63.4535 45.674 63.4058 45.8091ZM69.4449 43.9178H70.915V49.4805H69.4449V43.9178ZM74.0808 46.6991C74.0808 44.6251 75.5986 43.7986 77.1482 43.7986C77.7442 43.7986 78.3482 43.9258 78.8727 44.1483V45.5389C78.4594 45.2529 77.8952 45.0939 77.339 45.0939C76.441 45.0939 75.5907 45.5548 75.5907 46.6991C75.5907 48.0739 76.5999 48.3362 77.2356 48.3362C77.3946 48.3362 77.5217 48.3203 77.6171 48.2964V46.421H79.0078V49.2262C78.4356 49.4646 77.7919 49.5997 77.1641 49.5997C75.5827 49.5997 74.0808 48.7176 74.0808 46.6991ZM83.7616 49.4805H82.2914V43.9178H83.6821L85.8595 47.1124C85.8357 46.8501 85.8277 46.5005 85.8277 46.1906V43.9178H87.2978V49.4805H85.9072L83.7298 46.2939C83.7536 46.5561 83.7616 46.9058 83.7616 47.2077V49.4805Z" fill="#221E26"/>
<path d="M25.6543 72.419C25.6543 71.159 26.7343 70.565 28.0303 70.565C28.8133 70.565 29.5963 70.754 30.1453 71.069V72.599C29.6053 72.194 28.8943 71.996 28.1653 72.005C27.5533 72.014 27.3643 72.176 27.3643 72.41C27.3643 73.229 30.6403 72.977 30.6403 75.209C30.6403 76.703 29.4973 77.135 28.1203 77.135C27.2113 77.135 26.3653 76.928 25.6993 76.559V74.984C26.4463 75.497 27.2743 75.695 27.9943 75.695C28.6513 75.695 28.9303 75.587 28.9303 75.272C28.9303 74.363 25.6543 74.669 25.6543 72.419ZM37.2741 70.7H38.9391V77H37.2741V74.597H34.9341V77H33.2691V70.7H34.9341V73.112H37.2741V70.7ZM41.6096 73.85C41.6096 72.095 42.7346 70.565 44.9846 70.565C47.2346 70.565 48.3596 72.095 48.3596 73.85C48.3596 75.605 47.2346 77.135 44.9846 77.135C42.7346 77.135 41.6096 75.605 41.6096 73.85ZM46.6496 73.85C46.6496 72.842 46.0736 72.095 44.9846 72.095C43.8956 72.095 43.3196 72.842 43.3196 73.85C43.3196 74.858 43.8956 75.605 44.9846 75.605C46.0736 75.605 46.6496 74.858 46.6496 73.85ZM52.6933 77H51.0283V70.7H53.6833C54.9613 70.7 56.2663 71.159 56.2663 72.824C56.2663 73.868 55.7533 74.435 55.0603 74.714L56.7973 77H54.9163L53.4133 74.948H52.6933V77ZM52.6933 72.14V73.598H53.7553C54.2323 73.598 54.5563 73.355 54.5563 72.869C54.5563 72.383 54.2323 72.14 53.7553 72.14H52.6933ZM58.5827 70.7H63.8027V72.185H62.0297V77H60.3647V72.185H58.5827V70.7ZM66.3177 70.7H67.9827V75.515H70.8627V77H66.3177V70.7ZM73.3736 70.7H75.0386V77H73.3736V70.7ZM77.805 72.419C77.805 71.159 78.885 70.565 80.181 70.565C80.964 70.565 81.747 70.754 82.296 71.069V72.599C81.756 72.194 81.045 71.996 80.316 72.005C79.704 72.014 79.515 72.176 79.515 72.41C79.515 73.229 82.791 72.977 82.791 75.209C82.791 76.703 81.648 77.135 80.271 77.135C79.362 77.135 78.516 76.928 77.85 76.559V74.984C78.597 75.497 79.425 75.695 80.145 75.695C80.802 75.695 81.081 75.587 81.081 75.272C81.081 74.363 77.805 74.669 77.805 72.419ZM84.8286 70.7H90.0486V72.185H88.2756V77H86.6106V72.185H84.8286V70.7ZM43.9111 81.7H49.1311V83.185H47.3581V88H45.6931V83.185H43.9111V81.7ZM51.1378 84.85C51.1378 83.095 52.2628 81.565 54.5128 81.565C56.7628 81.565 57.8878 83.095 57.8878 84.85C57.8878 86.605 56.7628 88.135 54.5128 88.135C52.2628 88.135 51.1378 86.605 51.1378 84.85ZM56.1778 84.85C56.1778 83.842 55.6018 83.095 54.5128 83.095C53.4238 83.095 52.8478 83.842 52.8478 84.85C52.8478 85.858 53.4238 86.605 54.5128 86.605C55.6018 86.605 56.1778 85.858 56.1778 84.85ZM60.5565 81.7H63.0495C64.6065 81.7 65.7945 82.204 65.7945 83.86C65.7945 85.516 64.6065 86.011 63.0495 86.02H62.2215V88H60.5565V81.7ZM64.0845 83.86C64.0845 83.293 63.6345 83.14 63.1305 83.14H62.2215V84.58H63.1305C63.6345 84.58 64.0845 84.427 64.0845 83.86ZM72.6162 83.446C72.6162 84.085 72.2742 84.535 71.6712 84.742C72.3462 84.949 72.8682 85.444 72.8682 86.326C72.8682 87.667 71.5902 88.135 70.3032 88.135C69.5652 88.135 68.9352 88.018 68.1882 87.721V86.191C68.9262 86.614 69.5292 86.704 70.1682 86.695C70.7622 86.686 71.2842 86.506 71.2842 86.056C71.2842 85.696 70.9512 85.552 70.4472 85.552H69.4032L69.4122 84.157L70.2582 84.166C70.6992 84.175 71.0412 84.058 71.0412 83.707C71.0412 83.365 70.7172 83.185 70.0962 83.185C69.5922 83.185 68.8992 83.374 68.2962 83.779V82.249C68.8452 81.934 69.5832 81.745 70.3212 81.745C71.6082 81.745 72.6162 82.267 72.6162 83.446Z" fill="#B8916D"/>
</svg>
