<svg width="524" height="31" viewBox="0 0 524 31" fill="none" xmlns="http://www.w3.org/2000/svg">
<g clip-path="url(#clip0_737_244)">
<path d="M11.52 24.24C7.904 24.24 5.24 23.472 3.528 21.936C1.816 20.4 0.96 18.208 0.96 15.36C0.96 12.496 1.816 10.232 3.528 8.568C5.24 6.904 7.904 6.072 11.52 6.072C16.576 6.072 19.96 7.808 21.672 11.28C20.232 11.776 18.544 12.52 16.608 13.512C16.144 12.616 15.408 11.952 14.4 11.52C13.408 11.088 12.392 10.872 11.352 10.872C9.816 10.872 8.672 11.28 7.92 12.096C7.168 12.896 6.792 13.888 6.792 15.072C6.792 16.352 7.192 17.4 7.992 18.216C8.808 19.016 10.048 19.416 11.712 19.416C13.04 19.416 14.096 19.2 14.88 18.768C15.664 18.32 16.24 17.616 16.608 16.656C17.92 17.36 19.6 18.152 21.648 19.032C20.848 20.968 19.512 22.32 17.64 23.088C15.768 23.856 13.728 24.24 11.52 24.24ZM34.4966 6.6C37.6806 6.6 39.8966 7.168 41.1446 8.304C42.3926 9.424 43.0166 11.008 43.0166 13.056C43.0166 14.464 42.7686 15.664 42.2726 16.656C41.7766 17.632 40.9046 18.4 39.6566 18.96C38.4086 19.504 36.6886 19.776 34.4966 19.776H29.5046V24H23.6006C23.7286 20.896 23.7926 17.992 23.7926 15.288C23.7926 12.584 23.7286 9.68 23.6006 6.576H29.5046V6.6H34.4966ZM32.8166 15.144C34.1446 15.144 35.1366 15.096 35.7926 15C36.4646 14.888 36.9286 14.696 37.1846 14.424C37.4566 14.152 37.5926 13.752 37.5926 13.224C37.5926 12.696 37.4646 12.304 37.2086 12.048C36.9686 11.776 36.5126 11.592 35.8406 11.496C35.1846 11.4 34.1766 11.352 32.8166 11.352H29.5046V15.144H32.8166ZM57.6821 24C57.3781 23.088 56.9701 21.944 56.4581 20.568H48.8021L47.6021 24H41.5781L48.2981 6.576H57.1301L63.8981 24H57.6821ZM55.0901 16.824C54.4821 15.144 53.8581 13.464 53.2181 11.784L52.6421 10.224C52.0821 11.68 51.2581 13.88 50.1701 16.824H55.0901ZM85.3481 24.24C81.7321 24.24 79.0681 23.472 77.3561 21.936C75.6441 20.4 74.7881 18.208 74.7881 15.36C74.7881 12.496 75.6441 10.232 77.3561 8.568C79.0681 6.904 81.7321 6.072 85.3481 6.072C90.4041 6.072 93.7881 7.808 95.5001 11.28C94.0601 11.776 92.3721 12.52 90.4361 13.512C89.9721 12.616 89.2361 11.952 88.2281 11.52C87.2361 11.088 86.2201 10.872 85.1801 10.872C83.6441 10.872 82.5001 11.28 81.7481 12.096C80.9961 12.896 80.6201 13.888 80.6201 15.072C80.6201 16.352 81.0201 17.4 81.8201 18.216C82.6361 19.016 83.8761 19.416 85.5401 19.416C86.8681 19.416 87.9241 19.2 88.7081 18.768C89.4921 18.32 90.0681 17.616 90.4361 16.656C91.7481 17.36 93.4281 18.152 95.4761 19.032C94.6761 20.968 93.3401 22.32 91.4681 23.088C89.5961 23.856 87.5561 24.24 85.3481 24.24ZM108.325 6.6C111.509 6.6 113.725 7.168 114.973 8.304C116.221 9.424 116.845 11.008 116.845 13.056C116.845 14.464 116.597 15.664 116.101 16.656C115.605 17.632 114.733 18.4 113.485 18.96C112.237 19.504 110.517 19.776 108.325 19.776H103.333V24H97.4288C97.5568 20.896 97.6208 17.992 97.6208 15.288C97.6208 12.584 97.5568 9.68 97.4288 6.576H103.333V6.6H108.325ZM106.645 15.144C107.973 15.144 108.965 15.096 109.621 15C110.293 14.888 110.757 14.696 111.013 14.424C111.285 14.152 111.421 13.752 111.421 13.224C111.421 12.696 111.293 12.304 111.037 12.048C110.797 11.776 110.341 11.592 109.669 11.496C109.013 11.4 108.005 11.352 106.645 11.352H103.333V15.144H106.645ZM131.51 24C131.206 23.088 130.798 21.944 130.286 20.568H122.63L121.43 24H115.406L122.126 6.576H130.958L137.726 24H131.51ZM128.918 16.824C128.31 15.144 127.686 13.464 127.046 11.784L126.47 10.224C125.91 11.68 125.086 13.88 123.998 16.824H128.918ZM159.176 24.24C155.56 24.24 152.896 23.472 151.184 21.936C149.472 20.4 148.616 18.208 148.616 15.36C148.616 12.496 149.472 10.232 151.184 8.568C152.896 6.904 155.56 6.072 159.176 6.072C164.232 6.072 167.616 7.808 169.328 11.28C167.888 11.776 166.2 12.52 164.264 13.512C163.8 12.616 163.064 11.952 162.056 11.52C161.064 11.088 160.048 10.872 159.008 10.872C157.472 10.872 156.328 11.28 155.576 12.096C154.824 12.896 154.448 13.888 154.448 15.072C154.448 16.352 154.848 17.4 155.648 18.216C156.464 19.016 157.704 19.416 159.368 19.416C160.696 19.416 161.752 19.2 162.536 18.768C163.32 18.32 163.896 17.616 164.264 16.656C165.576 17.36 167.256 18.152 169.304 19.032C168.504 20.968 167.168 22.32 165.296 23.088C163.424 23.856 161.384 24.24 159.176 24.24ZM182.153 6.6C185.337 6.6 187.553 7.168 188.801 8.304C190.049 9.424 190.673 11.008 190.673 13.056C190.673 14.464 190.425 15.664 189.929 16.656C189.433 17.632 188.561 18.4 187.313 18.96C186.065 19.504 184.345 19.776 182.153 19.776H177.161V24H171.257C171.385 20.896 171.449 17.992 171.449 15.288C171.449 12.584 171.385 9.68 171.257 6.576H177.161V6.6H182.153ZM180.473 15.144C181.801 15.144 182.793 15.096 183.449 15C184.121 14.888 184.585 14.696 184.841 14.424C185.113 14.152 185.249 13.752 185.249 13.224C185.249 12.696 185.121 12.304 184.865 12.048C184.625 11.776 184.169 11.592 183.497 11.496C182.841 11.4 181.833 11.352 180.473 11.352H177.161V15.144H180.473ZM205.338 24C205.034 23.088 204.626 21.944 204.114 20.568H196.458L195.258 24H189.234L195.954 6.576H204.786L211.554 24H205.338ZM202.746 16.824C202.138 15.144 201.514 13.464 200.874 11.784L200.298 10.224C199.738 11.68 198.914 13.88 197.826 16.824H202.746ZM233.004 24.24C229.388 24.24 226.724 23.472 225.012 21.936C223.3 20.4 222.444 18.208 222.444 15.36C222.444 12.496 223.3 10.232 225.012 8.568C226.724 6.904 229.388 6.072 233.004 6.072C238.06 6.072 241.444 7.808 243.156 11.28C241.716 11.776 240.028 12.52 238.092 13.512C237.628 12.616 236.892 11.952 235.884 11.52C234.892 11.088 233.876 10.872 232.836 10.872C231.3 10.872 230.156 11.28 229.404 12.096C228.652 12.896 228.276 13.888 228.276 15.072C228.276 16.352 228.676 17.4 229.476 18.216C230.292 19.016 231.532 19.416 233.196 19.416C234.524 19.416 235.58 19.2 236.364 18.768C237.148 18.32 237.724 17.616 238.092 16.656C239.404 17.36 241.084 18.152 243.132 19.032C242.332 20.968 240.996 22.32 239.124 23.088C237.252 23.856 235.212 24.24 233.004 24.24ZM255.981 6.6C259.165 6.6 261.381 7.168 262.629 8.304C263.877 9.424 264.501 11.008 264.501 13.056C264.501 14.464 264.253 15.664 263.757 16.656C263.261 17.632 262.389 18.4 261.141 18.96C259.893 19.504 258.173 19.776 255.981 19.776H250.989V24H245.085C245.213 20.896 245.277 17.992 245.277 15.288C245.277 12.584 245.213 9.68 245.085 6.576H250.989V6.6H255.981ZM254.301 15.144C255.629 15.144 256.621 15.096 257.277 15C257.949 14.888 258.413 14.696 258.669 14.424C258.941 14.152 259.077 13.752 259.077 13.224C259.077 12.696 258.949 12.304 258.693 12.048C258.453 11.776 257.997 11.592 257.325 11.496C256.669 11.4 255.661 11.352 254.301 11.352H250.989V15.144H254.301ZM279.167 24C278.863 23.088 278.455 21.944 277.943 20.568H270.287L269.087 24H263.062L269.783 6.576H278.615L285.383 24H279.167ZM276.575 16.824C275.967 15.144 275.343 13.464 274.703 11.784L274.127 10.224C273.567 11.68 272.743 13.88 271.655 16.824H276.575ZM306.833 24.24C303.217 24.24 300.553 23.472 298.84 21.936C297.129 20.4 296.273 18.208 296.273 15.36C296.273 12.496 297.129 10.232 298.84 8.568C300.553 6.904 303.217 6.072 306.833 6.072C311.889 6.072 315.273 7.808 316.985 11.28C315.545 11.776 313.857 12.52 311.921 13.512C311.457 12.616 310.721 11.952 309.713 11.52C308.721 11.088 307.705 10.872 306.665 10.872C305.129 10.872 303.985 11.28 303.233 12.096C302.481 12.896 302.105 13.888 302.105 15.072C302.105 16.352 302.505 17.4 303.305 18.216C304.121 19.016 305.361 19.416 307.025 19.416C308.353 19.416 309.409 19.2 310.193 18.768C310.977 18.32 311.553 17.616 311.921 16.656C313.233 17.36 314.913 18.152 316.961 19.032C316.161 20.968 314.825 22.32 312.953 23.088C311.081 23.856 309.041 24.24 306.833 24.24ZM329.809 6.6C332.993 6.6 335.209 7.168 336.457 8.304C337.705 9.424 338.329 11.008 338.329 13.056C338.329 14.464 338.081 15.664 337.585 16.656C337.089 17.632 336.217 18.4 334.969 18.96C333.721 19.504 332.001 19.776 329.809 19.776H324.817V24H318.913C319.041 20.896 319.105 17.992 319.105 15.288C319.105 12.584 319.041 9.68 318.913 6.576H324.817V6.6H329.809ZM328.129 15.144C329.457 15.144 330.449 15.096 331.105 15C331.777 14.888 332.241 14.696 332.497 14.424C332.769 14.152 332.905 13.752 332.905 13.224C332.905 12.696 332.777 12.304 332.521 12.048C332.281 11.776 331.825 11.592 331.153 11.496C330.497 11.4 329.489 11.352 328.129 11.352H324.817V15.144H328.129ZM352.995 24C352.691 23.088 352.283 21.944 351.771 20.568H344.115L342.915 24H336.891L343.611 6.576H352.443L359.211 24H352.995ZM350.403 16.824C349.795 15.144 349.171 13.464 348.531 11.784L347.955 10.224C347.395 11.68 346.571 13.88 345.483 16.824H350.403ZM380.661 24.24C377.045 24.24 374.381 23.472 372.669 21.936C370.957 20.4 370.101 18.208 370.101 15.36C370.101 12.496 370.957 10.232 372.669 8.568C374.381 6.904 377.045 6.072 380.661 6.072C385.717 6.072 389.101 7.808 390.813 11.28C389.373 11.776 387.685 12.52 385.749 13.512C385.285 12.616 384.549 11.952 383.541 11.52C382.549 11.088 381.533 10.872 380.493 10.872C378.957 10.872 377.813 11.28 377.061 12.096C376.309 12.896 375.933 13.888 375.933 15.072C375.933 16.352 376.333 17.4 377.133 18.216C377.949 19.016 379.189 19.416 380.853 19.416C382.181 19.416 383.237 19.2 384.021 18.768C384.805 18.32 385.381 17.616 385.749 16.656C387.061 17.36 388.741 18.152 390.789 19.032C389.989 20.968 388.653 22.32 386.781 23.088C384.909 23.856 382.869 24.24 380.661 24.24ZM403.637 6.6C406.821 6.6 409.037 7.168 410.285 8.304C411.533 9.424 412.157 11.008 412.157 13.056C412.157 14.464 411.909 15.664 411.413 16.656C410.917 17.632 410.045 18.4 408.797 18.96C407.549 19.504 405.829 19.776 403.637 19.776H398.645V24H392.741C392.869 20.896 392.933 17.992 392.933 15.288C392.933 12.584 392.869 9.68 392.741 6.576H398.645V6.6H403.637ZM401.957 15.144C403.285 15.144 404.277 15.096 404.933 15C405.605 14.888 406.069 14.696 406.325 14.424C406.597 14.152 406.733 13.752 406.733 13.224C406.733 12.696 406.605 12.304 406.349 12.048C406.109 11.776 405.653 11.592 404.981 11.496C404.325 11.4 403.317 11.352 401.957 11.352H398.645V15.144H401.957ZM426.823 24C426.519 23.088 426.111 21.944 425.599 20.568H417.943L416.743 24H410.719L417.439 6.576H426.271L433.039 24H426.823ZM424.231 16.824C423.623 15.144 422.999 13.464 422.359 11.784L421.783 10.224C421.223 11.68 420.399 13.88 419.311 16.824H424.231ZM454.489 24.24C450.873 24.24 448.209 23.472 446.497 21.936C444.785 20.4 443.929 18.208 443.929 15.36C443.929 12.496 444.785 10.232 446.497 8.568C448.209 6.904 450.873 6.072 454.489 6.072C459.545 6.072 462.929 7.808 464.641 11.28C463.201 11.776 461.513 12.52 459.577 13.512C459.113 12.616 458.377 11.952 457.369 11.52C456.377 11.088 455.361 10.872 454.321 10.872C452.785 10.872 451.641 11.28 450.889 12.096C450.137 12.896 449.761 13.888 449.761 15.072C449.761 16.352 450.161 17.4 450.961 18.216C451.777 19.016 453.017 19.416 454.681 19.416C456.009 19.416 457.065 19.2 457.849 18.768C458.633 18.32 459.209 17.616 459.577 16.656C460.889 17.36 462.569 18.152 464.617 19.032C463.817 20.968 462.481 22.32 460.609 23.088C458.737 23.856 456.697 24.24 454.489 24.24ZM477.465 6.6C480.649 6.6 482.865 7.168 484.113 8.304C485.361 9.424 485.985 11.008 485.985 13.056C485.985 14.464 485.737 15.664 485.241 16.656C484.745 17.632 483.873 18.4 482.625 18.96C481.377 19.504 479.657 19.776 477.465 19.776H472.473V24H466.569C466.697 20.896 466.761 17.992 466.761 15.288C466.761 12.584 466.697 9.68 466.569 6.576H472.473V6.6H477.465ZM475.785 15.144C477.113 15.144 478.105 15.096 478.761 15C479.433 14.888 479.897 14.696 480.153 14.424C480.425 14.152 480.561 13.752 480.561 13.224C480.561 12.696 480.433 12.304 480.177 12.048C479.937 11.776 479.481 11.592 478.809 11.496C478.153 11.4 477.145 11.352 475.785 11.352H472.473V15.144H475.785ZM500.651 24C500.347 23.088 499.939 21.944 499.427 20.568H491.771L490.571 24H484.547L491.267 6.576H500.099L506.867 24H500.651ZM498.059 16.824C497.451 15.144 496.827 13.464 496.187 11.784L495.611 10.224C495.051 11.68 494.227 13.88 493.139 16.824H498.059Z" fill="#0E0E0E"/>
</g>
<defs>
<clipPath id="clip0_737_244">
<rect width="524" height="31" fill="white"/>
</clipPath>
</defs>
</svg>
