<svg width="441" height="31" viewBox="0 0 441 31" fill="none" xmlns="http://www.w3.org/2000/svg">
<g clip-path="url(#clip0_737_246)">
<path d="M11.52 24.24C7.904 24.24 5.24 23.472 3.528 21.936C1.816 20.4 0.96 18.208 0.96 15.36C0.96 12.496 1.816 10.232 3.528 8.568C5.24 6.904 7.904 6.072 11.52 6.072C16.576 6.072 19.96 7.808 21.672 11.28C20.232 11.776 18.544 12.52 16.608 13.512C16.144 12.616 15.408 11.952 14.4 11.52C13.408 11.088 12.392 10.872 11.352 10.872C9.816 10.872 8.672 11.28 7.92 12.096C7.168 12.896 6.792 13.888 6.792 15.072C6.792 16.352 7.192 17.4 7.992 18.216C8.808 19.016 10.048 19.416 11.712 19.416C13.04 19.416 14.096 19.2 14.88 18.768C15.664 18.32 16.24 17.616 16.608 16.656C17.92 17.36 19.6 18.152 21.648 19.032C20.848 20.968 19.512 22.32 17.64 23.088C15.768 23.856 13.728 24.24 11.52 24.24ZM34.4966 6.6C37.6806 6.6 39.8966 7.168 41.1446 8.304C42.3926 9.424 43.0166 11.008 43.0166 13.056C43.0166 14.464 42.7686 15.664 42.2726 16.656C41.7766 17.632 40.9046 18.4 39.6566 18.96C38.4086 19.504 36.6886 19.776 34.4966 19.776H29.5046V24H23.6006C23.7286 20.896 23.7926 17.992 23.7926 15.288C23.7926 12.584 23.7286 9.68 23.6006 6.576H29.5046V6.6H34.4966ZM32.8166 15.144C34.1446 15.144 35.1366 15.096 35.7926 15C36.4646 14.888 36.9286 14.696 37.1846 14.424C37.4566 14.152 37.5926 13.752 37.5926 13.224C37.5926 12.696 37.4646 12.304 37.2086 12.048C36.9686 11.776 36.5126 11.592 35.8406 11.496C35.1846 11.4 34.1766 11.352 32.8166 11.352H29.5046V15.144H32.8166ZM58.8728 11.352C56.9688 11.256 55.5608 11.2 54.6488 11.184V19.392C55.5768 19.376 56.9848 19.32 58.8728 19.224V24H44.9288V19.224C46.7688 19.32 48.1688 19.376 49.1288 19.392V11.184C48.1688 11.2 46.7688 11.256 44.9288 11.352V6.576H58.8728V11.352ZM69.0519 13.488H73.3239V18.168H69.0519V22.464H64.3719V18.168H60.0759V13.488H64.3719V9.192H69.0519V13.488ZM87.0583 24C86.3063 22.64 85.0583 20.56 83.3143 17.76L80.5063 20.544V24H74.5303C74.6583 20.896 74.7223 17.992 74.7223 15.288C74.7223 12.584 74.6583 9.68 74.5303 6.576H80.5063V13.608C83.4503 10.696 85.5463 8.352 86.7943 6.576H94.5703L87.0103 14.064C88.1303 15.632 89.3863 17.336 90.7783 19.176C92.1863 21.016 93.4583 22.624 94.5943 24H87.0583ZM107.411 6.6C110.595 6.6 112.811 7.168 114.059 8.304C115.307 9.424 115.931 11.008 115.931 13.056C115.931 14.464 115.683 15.664 115.187 16.656C114.691 17.632 113.819 18.4 112.571 18.96C111.323 19.504 109.603 19.776 107.411 19.776H102.419V24H96.5147C96.6427 20.896 96.7067 17.992 96.7067 15.288C96.7067 12.584 96.6427 9.68 96.5147 6.576H102.419V6.6H107.411ZM105.731 15.144C107.059 15.144 108.051 15.096 108.707 15C109.379 14.888 109.843 14.696 110.099 14.424C110.371 14.152 110.507 13.752 110.507 13.224C110.507 12.696 110.379 12.304 110.123 12.048C109.883 11.776 109.427 11.592 108.755 11.496C108.099 11.4 107.091 11.352 105.731 11.352H102.419V15.144H105.731ZM131.787 11.352C129.883 11.256 128.475 11.2 127.563 11.184V19.392C128.491 19.376 129.899 19.32 131.787 19.224V24H117.843V19.224C119.683 19.32 121.083 19.376 122.043 19.392V11.184C121.083 11.2 119.683 11.256 117.843 11.352V6.576H131.787V11.352ZM158.684 24.24C155.068 24.24 152.404 23.472 150.692 21.936C148.98 20.4 148.124 18.208 148.124 15.36C148.124 12.496 148.98 10.232 150.692 8.568C152.404 6.904 155.068 6.072 158.684 6.072C163.74 6.072 167.124 7.808 168.836 11.28C167.396 11.776 165.708 12.52 163.772 13.512C163.308 12.616 162.572 11.952 161.564 11.52C160.572 11.088 159.556 10.872 158.516 10.872C156.98 10.872 155.836 11.28 155.084 12.096C154.332 12.896 153.956 13.888 153.956 15.072C153.956 16.352 154.356 17.4 155.156 18.216C155.972 19.016 157.212 19.416 158.876 19.416C160.204 19.416 161.26 19.2 162.044 18.768C162.828 18.32 163.404 17.616 163.772 16.656C165.084 17.36 166.764 18.152 168.812 19.032C168.012 20.968 166.676 22.32 164.804 23.088C162.932 23.856 160.892 24.24 158.684 24.24ZM181.661 6.6C184.845 6.6 187.061 7.168 188.309 8.304C189.557 9.424 190.181 11.008 190.181 13.056C190.181 14.464 189.933 15.664 189.437 16.656C188.941 17.632 188.069 18.4 186.821 18.96C185.573 19.504 183.853 19.776 181.661 19.776H176.669V24H170.765C170.893 20.896 170.957 17.992 170.957 15.288C170.957 12.584 170.893 9.68 170.765 6.576H176.669V6.6H181.661ZM179.981 15.144C181.309 15.144 182.301 15.096 182.957 15C183.629 14.888 184.093 14.696 184.349 14.424C184.621 14.152 184.757 13.752 184.757 13.224C184.757 12.696 184.629 12.304 184.373 12.048C184.133 11.776 183.677 11.592 183.005 11.496C182.349 11.4 181.341 11.352 179.981 11.352H176.669V15.144H179.981ZM206.037 11.352C204.133 11.256 202.725 11.2 201.813 11.184V19.392C202.741 19.376 204.149 19.32 206.037 19.224V24H192.093V19.224C193.933 19.32 195.333 19.376 196.293 19.392V11.184C195.333 11.2 193.933 11.256 192.093 11.352V6.576H206.037V11.352ZM216.216 13.488H220.488V18.168H216.216V22.464H211.536V18.168H207.24V13.488H211.536V9.192H216.216V13.488ZM234.222 24C233.47 22.64 232.222 20.56 230.478 17.76L227.67 20.544V24H221.694C221.822 20.896 221.886 17.992 221.886 15.288C221.886 12.584 221.822 9.68 221.694 6.576H227.67V13.608C230.614 10.696 232.71 8.352 233.958 6.576H241.734L234.174 14.064C235.294 15.632 236.55 17.336 237.942 19.176C239.35 21.016 240.622 22.624 241.758 24H234.222ZM254.575 6.6C257.759 6.6 259.975 7.168 261.223 8.304C262.471 9.424 263.095 11.008 263.095 13.056C263.095 14.464 262.847 15.664 262.351 16.656C261.855 17.632 260.983 18.4 259.735 18.96C258.487 19.504 256.767 19.776 254.575 19.776H249.583V24H243.679C243.807 20.896 243.871 17.992 243.871 15.288C243.871 12.584 243.807 9.68 243.679 6.576H249.583V6.6H254.575ZM252.895 15.144C254.223 15.144 255.215 15.096 255.871 15C256.543 14.888 257.007 14.696 257.263 14.424C257.535 14.152 257.671 13.752 257.671 13.224C257.671 12.696 257.543 12.304 257.287 12.048C257.047 11.776 256.591 11.592 255.919 11.496C255.263 11.4 254.255 11.352 252.895 11.352H249.583V15.144H252.895ZM278.951 11.352C277.047 11.256 275.639 11.2 274.727 11.184V19.392C275.655 19.376 277.063 19.32 278.951 19.224V24H265.007V19.224C266.847 19.32 268.247 19.376 269.207 19.392V11.184C268.247 11.2 266.847 11.256 265.007 11.352V6.576H278.951V11.352ZM305.848 24.24C302.232 24.24 299.568 23.472 297.856 21.936C296.144 20.4 295.288 18.208 295.288 15.36C295.288 12.496 296.144 10.232 297.856 8.568C299.568 6.904 302.232 6.072 305.848 6.072C310.904 6.072 314.288 7.808 316 11.28C314.56 11.776 312.872 12.52 310.936 13.512C310.472 12.616 309.736 11.952 308.728 11.52C307.736 11.088 306.72 10.872 305.68 10.872C304.144 10.872 303 11.28 302.248 12.096C301.496 12.896 301.12 13.888 301.12 15.072C301.12 16.352 301.52 17.4 302.32 18.216C303.136 19.016 304.376 19.416 306.04 19.416C307.368 19.416 308.424 19.2 309.208 18.768C309.992 18.32 310.568 17.616 310.936 16.656C312.248 17.36 313.928 18.152 315.976 19.032C315.176 20.968 313.84 22.32 311.968 23.088C310.096 23.856 308.056 24.24 305.848 24.24ZM328.825 6.6C332.009 6.6 334.225 7.168 335.473 8.304C336.721 9.424 337.345 11.008 337.345 13.056C337.345 14.464 337.097 15.664 336.601 16.656C336.105 17.632 335.233 18.4 333.985 18.96C332.737 19.504 331.017 19.776 328.825 19.776H323.833V24H317.929C318.057 20.896 318.121 17.992 318.121 15.288C318.121 12.584 318.057 9.68 317.929 6.576H323.833V6.6H328.825ZM327.145 15.144C328.473 15.144 329.465 15.096 330.121 15C330.793 14.888 331.257 14.696 331.513 14.424C331.785 14.152 331.921 13.752 331.921 13.224C331.921 12.696 331.793 12.304 331.537 12.048C331.297 11.776 330.841 11.592 330.169 11.496C329.513 11.4 328.505 11.352 327.145 11.352H323.833V15.144H327.145ZM353.201 11.352C351.297 11.256 349.889 11.2 348.977 11.184V19.392C349.905 19.376 351.313 19.32 353.201 19.224V24H339.257V19.224C341.097 19.32 342.497 19.376 343.457 19.392V11.184C342.497 11.2 341.097 11.256 339.257 11.352V6.576H353.201V11.352ZM363.38 13.488H367.652V18.168H363.38V22.464H358.7V18.168H354.404V13.488H358.7V9.192H363.38V13.488ZM381.386 24C380.634 22.64 379.386 20.56 377.642 17.76L374.834 20.544V24H368.858C368.986 20.896 369.05 17.992 369.05 15.288C369.05 12.584 368.986 9.68 368.858 6.576H374.834V13.608C377.778 10.696 379.874 8.352 381.122 6.576H388.898L381.338 14.064C382.458 15.632 383.714 17.336 385.106 19.176C386.514 21.016 387.786 22.624 388.922 24H381.386ZM401.739 6.6C404.923 6.6 407.139 7.168 408.387 8.304C409.635 9.424 410.259 11.008 410.259 13.056C410.259 14.464 410.011 15.664 409.515 16.656C409.019 17.632 408.147 18.4 406.899 18.96C405.651 19.504 403.931 19.776 401.739 19.776H396.747V24H390.843C390.971 20.896 391.035 17.992 391.035 15.288C391.035 12.584 390.971 9.68 390.843 6.576H396.747V6.6H401.739ZM400.059 15.144C401.387 15.144 402.379 15.096 403.035 15C403.707 14.888 404.171 14.696 404.427 14.424C404.699 14.152 404.835 13.752 404.835 13.224C404.835 12.696 404.707 12.304 404.451 12.048C404.211 11.776 403.755 11.592 403.083 11.496C402.427 11.4 401.419 11.352 400.059 11.352H396.747V15.144H400.059ZM426.115 11.352C424.211 11.256 422.803 11.2 421.891 11.184V19.392C422.819 19.376 424.227 19.32 426.115 19.224V24H412.171V19.224C414.011 19.32 415.411 19.376 416.371 19.392V11.184C415.411 11.2 414.011 11.256 412.171 11.352V6.576H426.115V11.352Z" fill="#0E0E0E"/>
</g>
<defs>
<clipPath id="clip0_737_246">
<rect width="441" height="31" fill="white"/>
</clipPath>
</defs>
</svg>
