<svg width="485" height="31" viewBox="0 0 485 31" fill="none" xmlns="http://www.w3.org/2000/svg">
<g clip-path="url(#clip0_737_242)">
<path d="M12.0161 24.24C8.40009 24.24 5.73609 23.472 4.02409 21.936C2.31209 20.4 1.45609 18.208 1.45609 15.36C1.45609 12.496 2.31209 10.232 4.02409 8.568C5.73609 6.904 8.40009 6.072 12.0161 6.072C17.0721 6.072 20.4561 7.808 22.1681 11.28C20.7281 11.776 19.0401 12.52 17.1041 13.512C16.6401 12.616 15.9041 11.952 14.8961 11.52C13.9041 11.088 12.8881 10.872 11.8481 10.872C10.3121 10.872 9.16809 11.28 8.41609 12.096C7.66409 12.896 7.28809 13.888 7.28809 15.072C7.28809 16.352 7.68809 17.4 8.48809 18.216C9.30409 19.016 10.5441 19.416 12.2081 19.416C13.5361 19.416 14.5921 19.2 15.3761 18.768C16.1601 18.32 16.7361 17.616 17.1041 16.656C18.4161 17.36 20.0961 18.152 22.1441 19.032C21.3441 20.968 20.0081 22.32 18.1361 23.088C16.2641 23.856 14.2241 24.24 12.0161 24.24ZM34.9927 6.6C38.1767 6.6 40.3927 7.168 41.6407 8.304C42.8887 9.424 43.5127 11.008 43.5127 13.056C43.5127 14.464 43.2647 15.664 42.7687 16.656C42.2727 17.632 41.4007 18.4 40.1527 18.96C38.9047 19.504 37.1847 19.776 34.9927 19.776H30.0007V24H24.0967C24.2247 20.896 24.2887 17.992 24.2887 15.288C24.2887 12.584 24.2247 9.68 24.0967 6.576H30.0007V6.6H34.9927ZM33.3127 15.144C34.6407 15.144 35.6327 15.096 36.2887 15C36.9607 14.888 37.4247 14.696 37.6807 14.424C37.9527 14.152 38.0887 13.752 38.0887 13.224C38.0887 12.696 37.9607 12.304 37.7047 12.048C37.4647 11.776 37.0087 11.592 36.3367 11.496C35.6807 11.4 34.6727 11.352 33.3127 11.352H30.0007V15.144H33.3127ZM64.6968 12.384C64.6968 13.776 64.3528 14.952 63.6648 15.912C62.9928 16.872 61.8328 17.568 60.1848 18C60.3768 18.256 60.5128 18.456 60.5928 18.6L64.4808 24H57.9528C57.2488 22.688 56.1368 20.832 54.6168 18.432H51.0888V24H45.4248C45.5528 20.896 45.6168 17.992 45.6168 15.288C45.6168 12.584 45.5528 9.68 45.4248 6.576H51.0888V6.6H56.0088C59.2408 6.6 61.4968 7.12 62.7768 8.16C64.0568 9.2 64.6968 10.608 64.6968 12.384ZM51.0888 11.208V13.944H54.3288C55.6888 13.944 56.7128 13.904 57.4008 13.824C58.1048 13.728 58.5928 13.584 58.8648 13.392C59.1368 13.2 59.2728 12.92 59.2728 12.552C59.2728 12.2 59.1448 11.928 58.8888 11.736C58.6328 11.544 58.1528 11.408 57.4488 11.328C56.7448 11.248 55.7048 11.208 54.3288 11.208H51.0888ZM91.5864 24.24C87.9704 24.24 85.3064 23.472 83.5944 21.936C81.8824 20.4 81.0264 18.208 81.0264 15.36C81.0264 12.496 81.8824 10.232 83.5944 8.568C85.3064 6.904 87.9704 6.072 91.5864 6.072C96.6424 6.072 100.026 7.808 101.738 11.28C100.298 11.776 98.6104 12.52 96.6744 13.512C96.2104 12.616 95.4744 11.952 94.4664 11.52C93.4744 11.088 92.4584 10.872 91.4184 10.872C89.8824 10.872 88.7384 11.28 87.9864 12.096C87.2344 12.896 86.8584 13.888 86.8584 15.072C86.8584 16.352 87.2584 17.4 88.0584 18.216C88.8744 19.016 90.1144 19.416 91.7784 19.416C93.1064 19.416 94.1624 19.2 94.9464 18.768C95.7304 18.32 96.3064 17.616 96.6744 16.656C97.9864 17.36 99.6664 18.152 101.714 19.032C100.914 20.968 99.5784 22.32 97.7064 23.088C95.8344 23.856 93.7944 24.24 91.5864 24.24ZM114.563 6.6C117.747 6.6 119.963 7.168 121.211 8.304C122.459 9.424 123.083 11.008 123.083 13.056C123.083 14.464 122.835 15.664 122.339 16.656C121.843 17.632 120.971 18.4 119.723 18.96C118.475 19.504 116.755 19.776 114.563 19.776H109.571V24H103.667C103.795 20.896 103.859 17.992 103.859 15.288C103.859 12.584 103.795 9.68 103.667 6.576H109.571V6.6H114.563ZM112.883 15.144C114.211 15.144 115.203 15.096 115.859 15C116.531 14.888 116.995 14.696 117.251 14.424C117.523 14.152 117.659 13.752 117.659 13.224C117.659 12.696 117.531 12.304 117.275 12.048C117.035 11.776 116.579 11.592 115.907 11.496C115.251 11.4 114.243 11.352 112.883 11.352H109.571V15.144H112.883ZM144.267 12.384C144.267 13.776 143.923 14.952 143.235 15.912C142.563 16.872 141.403 17.568 139.755 18C139.947 18.256 140.083 18.456 140.163 18.6L144.051 24H137.523C136.819 22.688 135.707 20.832 134.187 18.432H130.659V24H124.995C125.123 20.896 125.187 17.992 125.187 15.288C125.187 12.584 125.123 9.68 124.995 6.576H130.659V6.6H135.579C138.811 6.6 141.067 7.12 142.347 8.16C143.627 9.2 144.267 10.608 144.267 12.384ZM130.659 11.208V13.944H133.899C135.259 13.944 136.283 13.904 136.971 13.824C137.675 13.728 138.163 13.584 138.435 13.392C138.707 13.2 138.843 12.92 138.843 12.552C138.843 12.2 138.715 11.928 138.459 11.736C138.203 11.544 137.723 11.408 137.019 11.328C136.315 11.248 135.275 11.208 133.899 11.208H130.659ZM171.157 24.24C167.541 24.24 164.877 23.472 163.165 21.936C161.453 20.4 160.597 18.208 160.597 15.36C160.597 12.496 161.453 10.232 163.165 8.568C164.877 6.904 167.541 6.072 171.157 6.072C176.213 6.072 179.597 7.808 181.309 11.28C179.869 11.776 178.181 12.52 176.245 13.512C175.781 12.616 175.045 11.952 174.037 11.52C173.045 11.088 172.029 10.872 170.989 10.872C169.453 10.872 168.309 11.28 167.557 12.096C166.805 12.896 166.429 13.888 166.429 15.072C166.429 16.352 166.829 17.4 167.629 18.216C168.445 19.016 169.685 19.416 171.349 19.416C172.677 19.416 173.733 19.2 174.517 18.768C175.301 18.32 175.877 17.616 176.245 16.656C177.557 17.36 179.237 18.152 181.285 19.032C180.485 20.968 179.149 22.32 177.277 23.088C175.405 23.856 173.365 24.24 171.157 24.24ZM194.133 6.6C197.317 6.6 199.533 7.168 200.781 8.304C202.029 9.424 202.653 11.008 202.653 13.056C202.653 14.464 202.405 15.664 201.909 16.656C201.413 17.632 200.541 18.4 199.293 18.96C198.045 19.504 196.325 19.776 194.133 19.776H189.141V24H183.237C183.365 20.896 183.429 17.992 183.429 15.288C183.429 12.584 183.365 9.68 183.237 6.576H189.141V6.6H194.133ZM192.453 15.144C193.781 15.144 194.773 15.096 195.429 15C196.101 14.888 196.565 14.696 196.821 14.424C197.093 14.152 197.229 13.752 197.229 13.224C197.229 12.696 197.101 12.304 196.845 12.048C196.605 11.776 196.149 11.592 195.477 11.496C194.821 11.4 193.813 11.352 192.453 11.352H189.141V15.144H192.453ZM223.837 12.384C223.837 13.776 223.493 14.952 222.805 15.912C222.133 16.872 220.973 17.568 219.325 18C219.517 18.256 219.653 18.456 219.733 18.6L223.621 24H217.093C216.389 22.688 215.277 20.832 213.757 18.432H210.229V24H204.565C204.693 20.896 204.757 17.992 204.757 15.288C204.757 12.584 204.693 9.68 204.565 6.576H210.229V6.6H215.149C218.381 6.6 220.637 7.12 221.917 8.16C223.197 9.2 223.837 10.608 223.837 12.384ZM210.229 11.208V13.944H213.469C214.829 13.944 215.853 13.904 216.541 13.824C217.245 13.728 217.733 13.584 218.005 13.392C218.277 13.2 218.413 12.92 218.413 12.552C218.413 12.2 218.285 11.928 218.029 11.736C217.773 11.544 217.293 11.408 216.589 11.328C215.885 11.248 214.845 11.208 213.469 11.208H210.229ZM250.727 24.24C247.111 24.24 244.447 23.472 242.735 21.936C241.023 20.4 240.167 18.208 240.167 15.36C240.167 12.496 241.023 10.232 242.735 8.568C244.447 6.904 247.111 6.072 250.727 6.072C255.783 6.072 259.167 7.808 260.879 11.28C259.439 11.776 257.751 12.52 255.815 13.512C255.351 12.616 254.615 11.952 253.607 11.52C252.615 11.088 251.599 10.872 250.559 10.872C249.023 10.872 247.879 11.28 247.127 12.096C246.375 12.896 245.999 13.888 245.999 15.072C245.999 16.352 246.399 17.4 247.199 18.216C248.015 19.016 249.255 19.416 250.919 19.416C252.247 19.416 253.303 19.2 254.087 18.768C254.871 18.32 255.447 17.616 255.815 16.656C257.127 17.36 258.807 18.152 260.855 19.032C260.055 20.968 258.719 22.32 256.847 23.088C254.975 23.856 252.935 24.24 250.727 24.24ZM273.704 6.6C276.888 6.6 279.104 7.168 280.352 8.304C281.6 9.424 282.224 11.008 282.224 13.056C282.224 14.464 281.976 15.664 281.48 16.656C280.984 17.632 280.112 18.4 278.864 18.96C277.616 19.504 275.896 19.776 273.704 19.776H268.712V24H262.808C262.936 20.896 263 17.992 263 15.288C263 12.584 262.936 9.68 262.808 6.576H268.712V6.6H273.704ZM272.024 15.144C273.352 15.144 274.344 15.096 275 15C275.672 14.888 276.136 14.696 276.392 14.424C276.664 14.152 276.8 13.752 276.8 13.224C276.8 12.696 276.672 12.304 276.416 12.048C276.176 11.776 275.72 11.592 275.048 11.496C274.392 11.4 273.384 11.352 272.024 11.352H268.712V15.144H272.024ZM303.408 12.384C303.408 13.776 303.064 14.952 302.376 15.912C301.704 16.872 300.544 17.568 298.896 18C299.088 18.256 299.224 18.456 299.304 18.6L303.192 24H296.664C295.96 22.688 294.848 20.832 293.328 18.432H289.8V24H284.136C284.264 20.896 284.328 17.992 284.328 15.288C284.328 12.584 284.264 9.68 284.136 6.576H289.8V6.6H294.72C297.952 6.6 300.208 7.12 301.488 8.16C302.768 9.2 303.408 10.608 303.408 12.384ZM289.8 11.208V13.944H293.04C294.4 13.944 295.424 13.904 296.112 13.824C296.816 13.728 297.304 13.584 297.576 13.392C297.848 13.2 297.984 12.92 297.984 12.552C297.984 12.2 297.856 11.928 297.6 11.736C297.344 11.544 296.864 11.408 296.16 11.328C295.456 11.248 294.416 11.208 293.04 11.208H289.8ZM330.297 24.24C326.681 24.24 324.017 23.472 322.305 21.936C320.593 20.4 319.737 18.208 319.737 15.36C319.737 12.496 320.593 10.232 322.305 8.568C324.017 6.904 326.681 6.072 330.297 6.072C335.353 6.072 338.737 7.808 340.449 11.28C339.009 11.776 337.321 12.52 335.385 13.512C334.921 12.616 334.185 11.952 333.177 11.52C332.185 11.088 331.169 10.872 330.129 10.872C328.593 10.872 327.449 11.28 326.697 12.096C325.945 12.896 325.569 13.888 325.569 15.072C325.569 16.352 325.969 17.4 326.769 18.216C327.585 19.016 328.825 19.416 330.489 19.416C331.817 19.416 332.873 19.2 333.657 18.768C334.441 18.32 335.017 17.616 335.385 16.656C336.697 17.36 338.377 18.152 340.425 19.032C339.625 20.968 338.289 22.32 336.417 23.088C334.545 23.856 332.505 24.24 330.297 24.24ZM353.274 6.6C356.458 6.6 358.674 7.168 359.922 8.304C361.17 9.424 361.794 11.008 361.794 13.056C361.794 14.464 361.546 15.664 361.05 16.656C360.554 17.632 359.682 18.4 358.434 18.96C357.186 19.504 355.466 19.776 353.274 19.776H348.282V24H342.378C342.506 20.896 342.57 17.992 342.57 15.288C342.57 12.584 342.506 9.68 342.378 6.576H348.282V6.6H353.274ZM351.594 15.144C352.922 15.144 353.914 15.096 354.57 15C355.242 14.888 355.706 14.696 355.962 14.424C356.234 14.152 356.37 13.752 356.37 13.224C356.37 12.696 356.242 12.304 355.986 12.048C355.746 11.776 355.29 11.592 354.618 11.496C353.962 11.4 352.954 11.352 351.594 11.352H348.282V15.144H351.594ZM382.978 12.384C382.978 13.776 382.634 14.952 381.946 15.912C381.274 16.872 380.114 17.568 378.466 18C378.658 18.256 378.794 18.456 378.874 18.6L382.762 24H376.234C375.53 22.688 374.418 20.832 372.898 18.432H369.37V24H363.706C363.834 20.896 363.898 17.992 363.898 15.288C363.898 12.584 363.834 9.68 363.706 6.576H369.37V6.6H374.29C377.522 6.6 379.778 7.12 381.058 8.16C382.338 9.2 382.978 10.608 382.978 12.384ZM369.37 11.208V13.944H372.61C373.97 13.944 374.994 13.904 375.682 13.824C376.386 13.728 376.874 13.584 377.146 13.392C377.418 13.2 377.554 12.92 377.554 12.552C377.554 12.2 377.426 11.928 377.17 11.736C376.914 11.544 376.434 11.408 375.73 11.328C375.026 11.248 373.986 11.208 372.61 11.208H369.37ZM409.868 24.24C406.252 24.24 403.588 23.472 401.876 21.936C400.164 20.4 399.308 18.208 399.308 15.36C399.308 12.496 400.164 10.232 401.876 8.568C403.588 6.904 406.252 6.072 409.868 6.072C414.924 6.072 418.308 7.808 420.02 11.28C418.58 11.776 416.892 12.52 414.956 13.512C414.492 12.616 413.756 11.952 412.748 11.52C411.756 11.088 410.74 10.872 409.7 10.872C408.164 10.872 407.02 11.28 406.268 12.096C405.516 12.896 405.14 13.888 405.14 15.072C405.14 16.352 405.54 17.4 406.34 18.216C407.156 19.016 408.396 19.416 410.06 19.416C411.388 19.416 412.444 19.2 413.228 18.768C414.012 18.32 414.588 17.616 414.956 16.656C416.268 17.36 417.948 18.152 419.996 19.032C419.196 20.968 417.86 22.32 415.988 23.088C414.116 23.856 412.076 24.24 409.868 24.24ZM432.844 6.6C436.028 6.6 438.244 7.168 439.492 8.304C440.74 9.424 441.364 11.008 441.364 13.056C441.364 14.464 441.116 15.664 440.62 16.656C440.124 17.632 439.252 18.4 438.004 18.96C436.756 19.504 435.036 19.776 432.844 19.776H427.852V24H421.948C422.076 20.896 422.14 17.992 422.14 15.288C422.14 12.584 422.076 9.68 421.948 6.576H427.852V6.6H432.844ZM431.164 15.144C432.492 15.144 433.484 15.096 434.14 15C434.812 14.888 435.276 14.696 435.532 14.424C435.804 14.152 435.94 13.752 435.94 13.224C435.94 12.696 435.812 12.304 435.556 12.048C435.316 11.776 434.86 11.592 434.188 11.496C433.532 11.4 432.524 11.352 431.164 11.352H427.852V15.144H431.164ZM462.548 12.384C462.548 13.776 462.204 14.952 461.516 15.912C460.844 16.872 459.684 17.568 458.036 18C458.228 18.256 458.364 18.456 458.444 18.6L462.332 24H455.804C455.1 22.688 453.988 20.832 452.468 18.432H448.94V24H443.276C443.404 20.896 443.468 17.992 443.468 15.288C443.468 12.584 443.404 9.68 443.276 6.576H448.94V6.6H453.86C457.092 6.6 459.348 7.12 460.628 8.16C461.908 9.2 462.548 10.608 462.548 12.384ZM448.94 11.208V13.944H452.18C453.54 13.944 454.564 13.904 455.252 13.824C455.956 13.728 456.444 13.584 456.716 13.392C456.988 13.2 457.124 12.92 457.124 12.552C457.124 12.2 456.996 11.928 456.74 11.736C456.484 11.544 456.004 11.408 455.3 11.328C454.596 11.248 453.556 11.208 452.18 11.208H448.94Z" fill="#0E0E0E"/>
</g>
<defs>
<clipPath id="clip0_737_242">
<rect width="485" height="31" fill="white"/>
</clipPath>
</defs>
</svg>
