<svg width="151" height="30" viewBox="0 0 151 30" fill="none" xmlns="http://www.w3.org/2000/svg">
<g clip-path="url(#clip0_949_326)">
<path d="M11.7772 4.8653C10.005 4.8653 9.49265 5.65616 9.49265 7.40048V10.2941H14.2197L13.7459 14.9691H9.49448V29.1565H3.82167V14.9691H0V10.2941H3.82167V7.47994C3.82167 2.76435 5.71138 0.273511 10.9838 0.273511C12.0887 0.270924 13.1927 0.336889 14.2895 0.471224V4.87084L11.7772 4.8653Z" fill="#221E26"/>
<path d="M14.6133 19.1306C14.6133 13.8607 17.0943 9.8916 22.2933 9.8916C25.1288 9.8916 26.8606 11.3588 27.6889 13.1807V10.2944H33.1229V29.1568H27.6889V26.3038C26.901 28.1276 25.1288 29.5541 22.2933 29.5541C17.0943 29.5541 14.6133 25.5905 14.6133 20.3151V19.1306ZM20.2843 20.4001C20.2843 23.2124 21.3072 25.075 23.9462 25.075C26.2711 25.075 27.452 23.3713 27.452 20.6772V18.7832C27.452 16.0891 26.2711 14.3855 23.9462 14.3855C21.3072 14.3855 20.2843 16.248 20.2843 19.0604V20.4001Z" fill="#221E26"/>
<path d="M44.9391 9.89746C47.1429 9.89746 49.231 10.3742 50.3732 11.1651L49.1134 15.208C47.9318 14.6419 46.6408 14.344 45.3321 14.3359C42.2598 14.3359 40.9247 16.119 40.9247 19.1716V20.2803C40.9247 23.3328 42.2634 25.116 45.3321 25.116C46.6408 25.1076 47.9318 24.81 49.1134 24.2438L50.3732 28.2849C49.231 29.0776 47.1447 29.5544 44.9391 29.5544C38.282 29.5544 35.25 25.9475 35.25 20.162V19.2898C35.25 13.5044 38.282 9.89746 44.9391 9.89746Z" fill="#221E26"/>
<path d="M51.1191 20.4465V18.7835C51.1191 13.4341 54.1511 9.91406 60.3363 9.91406C66.1652 9.91406 68.7253 13.4803 68.7253 18.7114V21.7234H56.7883C56.9077 24.2992 58.0499 25.4485 61.1958 25.4485C63.3242 25.4485 65.5684 25.0125 67.223 24.2992L68.2606 28.2073C66.7639 29.0019 63.6915 29.595 60.9754 29.595C53.7967 29.5932 51.1191 25.9899 51.1191 20.4465ZM56.7901 17.989H63.6438V17.5141C63.6438 15.4538 62.8174 13.8185 60.3382 13.8185C57.7763 13.8203 56.7901 15.4464 56.7901 17.9816V17.989Z" fill="#221E26"/>
<path d="M89.7501 20.3201C89.7501 25.59 87.2305 29.5591 82.037 29.5591C79.2015 29.5591 77.2328 28.1326 76.4449 26.3088V29.1618H71.0898V0.822073L76.7608 0.304688V12.9067C77.5872 11.2437 79.3998 9.89478 82.0388 9.89478C87.2378 9.89478 89.7519 13.8583 89.7519 19.1338L89.7501 20.3201ZM84.0791 19.0118C84.0791 16.3565 83.0562 14.3757 80.3382 14.3757C78.0133 14.3757 76.7535 16.0387 76.7535 18.7347V20.7155C76.7535 23.4096 78.0133 25.0745 80.3382 25.0745C83.0562 25.0745 84.0791 23.0936 84.0791 20.4383V19.0118Z" fill="#221E26"/>
<path d="M91.6445 20.2008V19.251C91.6445 13.8203 94.7169 9.89746 100.979 9.89746C107.242 9.89746 110.316 13.8203 110.316 19.251V20.2008C110.316 25.6296 107.243 29.5544 100.981 29.5544C94.7188 29.5544 91.6445 25.6296 91.6445 20.2008ZM104.643 18.8538C104.643 16.3574 103.618 14.3765 100.97 14.3765C98.3219 14.3765 97.3063 16.3574 97.3063 18.8538V20.5981C97.3063 23.0945 98.3311 25.0753 100.97 25.0753C103.609 25.0753 104.643 23.0945 104.643 20.5981V18.8538Z" fill="#221E26"/>
<path d="M112.203 20.2008V19.251C112.203 13.8203 115.276 9.89746 121.538 9.89746C127.8 9.89746 130.873 13.8203 130.873 19.251V20.2008C130.873 25.6296 127.8 29.5544 121.538 29.5544C115.276 29.5544 112.203 25.6296 112.203 20.2008ZM125.202 18.8538C125.202 16.3574 124.177 14.3765 121.538 14.3765C118.899 14.3765 117.876 16.3574 117.876 18.8538V20.5981C117.876 23.0945 118.899 25.0753 121.538 25.0753C124.177 25.0753 125.202 23.0945 125.202 20.5981V18.8538Z" fill="#221E26"/>
<path d="M138.669 19.289L144.261 10.2939H150.286L144.419 19.6068L150.523 29.1563H144.498L138.669 19.9173V29.1563H132.996V0.822073L138.669 0.304688V19.289Z" fill="#221E26"/>
</g>
<defs>
<clipPath id="clip0_949_326">
<rect width="150.524" height="29.3126" fill="white" transform="translate(0 0.273438)"/>
</clipPath>
</defs>
</svg>
