<svg width="168" height="46" viewBox="0 0 168 46" fill="none" xmlns="http://www.w3.org/2000/svg">
<g clip-path="url(#clip0_949_336)">
<path d="M21.2447 6.58891C22.7994 6.29453 24.4767 6.82486 25.5875 7.95741C26.7363 9.08996 27.2671 10.8158 26.9504 12.4022C26.647 14.1483 25.3266 15.6583 23.6514 16.1976C22.0254 16.7482 20.1227 16.3684 18.8468 15.2067C17.5531 14.0786 16.9263 12.2404 17.2654 10.5506C17.6067 8.56863 19.2729 6.908 21.2447 6.58891ZM9.33134 17.265C10.7923 14.2629 13.3307 11.7955 16.3843 10.4787C14.9456 12.1303 13.6251 13.9258 12.8311 15.9909C11.7492 18.6493 11.3901 21.5907 11.7582 24.4356C10.4221 24.3772 9.10829 24.7592 7.98632 25.485C7.62498 22.6896 8.08893 19.7908 9.33134 17.265ZM27.8917 10.4832C30.8494 11.8247 33.352 14.182 34.8064 17.1122C36.109 19.6739 36.593 22.6334 36.2294 25.485C35.4376 22.8402 34.1863 20.2986 32.2814 18.2807C30.865 16.7122 29.1229 15.4718 27.2515 14.5168C27.1868 14.2044 27.4768 13.9168 27.5549 13.6157C27.9675 12.6314 28.0277 11.5348 27.8917 10.4832ZM10.1366 25.539C11.5931 25.1637 13.2147 25.494 14.3924 26.4423C15.7018 27.4603 16.4289 29.1771 16.2505 30.8354C16.1055 32.4444 15.1151 33.9432 13.701 34.7028C12.1351 35.5769 10.0986 35.4848 8.62203 34.4668C7.14764 33.496 6.27996 31.6826 6.45617 29.9164C6.59224 27.8625 8.15585 26.0221 10.1366 25.539ZM31.949 25.4828C33.4033 25.1862 34.9848 25.5816 36.1112 26.5636C37.4406 27.6782 38.0942 29.5321 37.7618 31.2422C37.4696 32.9635 36.1893 34.4623 34.5498 35.0241C33.0844 35.5522 31.378 35.314 30.1088 34.4084C28.5519 33.3387 27.7266 31.3208 28.0857 29.4557C28.4069 27.4985 30.0174 25.8536 31.949 25.4828ZM14.1738 35.5207C18.7665 36.4847 23.7362 35.4668 27.5103 32.6376C28.0389 33.8421 28.9423 34.8511 30.0642 35.523C25.4091 38.7476 18.8223 38.7723 14.1738 35.5207Z" fill="#ECECF0"/>
<path d="M9.01548 0.800309C17.612 0.757613 26.2107 0.784579 34.8095 0.786826C39.7077 0.813791 44.0461 5.20918 44.1599 10.1214C44.1755 18.7391 44.1867 27.3569 44.1755 35.9769C43.977 40.77 39.8059 45.0193 35.0348 45.1924C26.3312 45.1834 17.6254 45.1991 8.92179 45.1834C4.16851 44.8553 0.128996 40.5475 0.017469 35.7567C-0.000375367 27.4423 0.017469 19.1257 0.0241606 10.8113C0.0130079 9.74613 0.149071 8.67875 0.476961 7.66304C1.61008 3.93056 5.12318 1.01828 9.01548 0.800309ZM21.2433 6.58892C19.2715 6.90801 17.6053 8.56864 17.264 10.5506C16.925 12.2404 17.5518 14.0786 18.8455 15.2067C20.1213 16.3684 22.024 16.7482 23.6501 16.1976C25.3252 15.6583 26.6457 14.1483 26.949 12.4022C27.2658 10.8158 26.7349 9.08997 25.5862 7.95742C24.4754 6.82486 22.798 6.29454 21.2433 6.58892ZM9.32998 17.265C8.08757 19.7908 7.62362 22.6896 7.98497 25.485C9.10693 24.7592 10.4207 24.3772 11.7568 24.4356C11.3888 21.5908 11.7479 18.6493 12.8297 15.9909C13.6238 13.9258 14.9443 12.1303 16.383 10.4787C13.3293 11.7955 10.791 14.2629 9.32998 17.265ZM27.8903 10.4832C28.0264 11.5348 27.9662 12.6314 27.5535 13.6157C27.4754 13.9168 27.1855 14.2044 27.2502 14.5168C29.1216 15.4718 30.8636 16.7122 32.28 18.2807C34.1849 20.2987 35.4362 22.8402 36.2281 25.485C36.5917 22.6334 36.1076 19.674 34.805 17.1122C33.3507 14.182 30.848 11.8247 27.8903 10.4832ZM10.1352 25.539C8.15449 26.0221 6.59088 27.8625 6.45481 29.9164C6.2786 31.6826 7.14628 33.4961 8.62067 34.4668C10.0973 35.4848 12.1338 35.5769 13.6996 34.7028C15.1138 33.9432 16.1041 32.4444 16.2491 30.8354C16.4276 29.1771 15.7004 27.4603 14.3911 26.4423C13.2134 25.494 11.5918 25.1637 10.1352 25.539ZM31.9477 25.4828C30.016 25.8536 28.4056 27.4985 28.0844 29.4557C27.7253 31.3208 28.5506 33.3388 30.1075 34.4084C31.3767 35.314 33.083 35.5522 34.5485 35.0241C36.1879 34.4623 37.4683 32.9635 37.7605 31.2422C38.0928 29.5321 37.4393 27.6782 36.1099 26.5637C34.9834 25.5817 33.402 25.1862 31.9477 25.4828ZM14.1725 35.5207C18.8209 38.7723 25.4077 38.7476 30.0629 35.523C28.9409 34.8511 28.0375 33.8421 27.5089 32.6376C23.7348 35.4668 18.7652 36.4847 14.1725 35.5207Z" fill="#221E26"/>
<path d="M149.772 12.049C151.231 11.5838 152.912 12.6579 153.111 14.186C153.385 15.6219 152.275 17.1162 150.834 17.2623C149.48 17.4735 148.097 16.4466 147.892 15.0848C147.626 13.7792 148.496 12.3883 149.772 12.049Z" fill="#221E26"/>
<path d="M161.994 12.1934H162.712C162.719 14.0001 162.71 15.809 162.717 17.6157C163.975 17.6247 165.235 17.5955 166.493 17.6314C166.669 18.7437 166.658 19.8785 166.48 20.9886C165.224 20.9864 163.968 20.9864 162.715 20.9886C162.721 23.2155 162.697 25.4402 162.726 27.6671C162.766 28.557 162.893 29.6311 163.73 30.1344C164.684 30.5704 165.775 30.3659 166.765 30.1704C167.176 31.2558 167.189 32.5052 167.015 33.6152C164.845 34.0714 162.38 34.213 160.404 33.0265C158.954 32.1681 158.423 30.3861 158.383 28.7839C158.338 26.1907 158.381 23.5953 158.361 20.9999C157.689 21.0021 157.02 21.0021 156.351 20.9999C156.297 20.7864 156.248 20.5729 156.199 20.3617C158.135 17.6404 160.058 14.9124 161.994 12.1934ZM52.4523 14.6607C54.4062 13.027 57.0695 12.4877 59.5521 12.7394C61.709 12.9843 63.8972 13.9034 65.2801 15.6427C64.5463 16.791 63.5202 17.6943 62.4295 18.4853C60.944 16.7123 58.3208 16.3977 56.2398 17.1258C55.0553 17.5101 54.288 19.2831 55.3364 20.2021C56.9156 21.4515 59.0658 21.1796 60.8659 21.8717C62.5053 22.483 64.2541 23.3841 65.0013 25.0762C65.7798 26.9278 65.8222 29.2446 64.5976 30.9164C63.3909 32.5569 61.5128 33.6445 59.541 34.0445C55.9386 34.6332 51.9593 33.7411 49.3496 31.0513C50.1303 29.9457 51.0181 28.885 52.1913 28.1839C53.427 29.5727 55.3319 30.067 57.1141 30.1771C58.1714 30.1682 59.3313 30.085 60.199 29.4064C61.1514 28.5817 61.138 26.948 60.2057 26.1121C59.3536 25.393 58.2093 25.2065 57.1409 25.0694C55.2985 24.8739 53.4739 24.2739 51.9437 23.2065C50.6812 22.2807 50.2151 20.6403 50.2195 19.1325C50.1593 17.3775 51.1251 15.7348 52.4523 14.6607ZM69.1434 13.0136C70.658 12.7866 72.1993 12.8023 73.716 13.0113C73.7138 15.7214 73.7183 18.4291 73.7138 21.1369C76.2009 21.1482 78.6879 21.1392 81.175 21.1414C81.1728 18.4314 81.1728 15.7214 81.175 13.0136C82.6895 12.7844 84.2308 12.8046 85.7454 13.0136C85.7476 19.937 85.7476 26.8581 85.7476 33.7815C84.2308 33.995 82.6895 34.0107 81.175 33.786C81.1728 30.7929 81.175 27.7997 81.1728 24.8065C78.6879 24.8087 76.2009 24.8065 73.716 24.8087V33.7815C72.1993 33.9928 70.6557 34.0152 69.1434 33.7838C69.1457 26.8604 69.1412 19.937 69.1434 13.0136ZM97.0118 12.89C98.3412 12.8158 99.6818 12.8226 100.998 13.045C103.282 19.9684 105.646 26.8671 107.948 33.786C106.36 33.995 104.75 34.0152 103.164 33.7905C102.954 33.2512 102.747 32.7119 102.55 32.1703C99.8245 32.1614 97.0966 32.1681 94.3709 32.1658C94.7121 30.9951 95.0601 29.8288 95.3991 28.6581C97.4267 28.6513 99.4543 28.6536 101.484 28.6558C100.005 23.3975 98.4929 18.1483 97.0118 12.89ZM111.16 13.1192C114.127 12.8091 117.14 12.5686 120.107 13.0001C121.987 13.2855 123.941 13.9686 125.213 15.4629C126.607 17.0382 126.794 19.4022 126.178 21.3504C125.643 23.0313 124.274 24.2604 122.777 25.0874C124.601 27.9974 126.395 30.9277 128.201 33.8467C126.531 34.0265 124.84 34.1006 123.172 33.8579C121.218 30.6445 119.275 27.4244 117.337 24.1998C118.624 23.5773 120.053 23.0515 120.966 21.8807C122.168 20.4426 121.936 17.8449 120.238 16.8921C118.871 16.0786 117.221 16.2786 115.708 16.3595C115.704 22.1976 115.708 28.0356 115.706 33.8759C114.196 34.0512 112.668 34.0759 111.16 33.8804V13.1192Z" fill="#221E26"/>
<path d="M95.9185 13.0134C96.0791 12.9977 96.4048 12.964 96.5676 12.9482C97.0382 14.6493 97.5423 16.3414 97.9929 18.0492C96.5029 23.3098 94.8523 28.5343 93.2976 33.7814C91.8344 33.9971 90.3421 34.0039 88.8789 33.7836C91.2187 26.858 93.5697 19.9368 95.9185 13.0134ZM131.351 13.0246C135.575 13.0224 139.8 13.0224 144.027 13.0246C144.252 14.2066 144.245 15.4223 144.025 16.6043C141.31 16.6088 138.595 16.6021 135.881 16.6066C135.879 18.1032 135.879 19.602 135.881 21.0986H142.341C142.574 22.2954 142.574 23.5264 142.341 24.7232C140.186 24.7232 138.033 24.721 135.881 24.7232C135.879 26.5434 135.879 28.3636 135.881 30.186C138.665 30.1882 141.451 30.1815 144.237 30.1882C144.457 31.3747 144.471 32.6016 144.223 33.7859C139.932 33.7769 135.64 33.7859 131.351 33.7814C131.348 26.8625 131.348 19.9436 131.351 13.0246ZM146.746 19.1728C148.883 19.1773 151.017 19.1728 153.152 19.175C153.152 24.0468 153.156 28.9163 153.152 33.7881C151.72 34.0196 150.259 34.0263 148.829 33.7881C148.838 30.0444 148.811 26.3029 148.814 22.5592C148.122 22.5615 147.433 22.5592 146.741 22.5615C146.516 21.4446 146.501 20.2874 146.746 19.1728Z" fill="#221E26"/>
</g>
<defs>
<clipPath id="clip0_949_336">
<rect width="167.19" height="45.4097" fill="white" transform="translate(0 0.273438)"/>
</clipPath>
</defs>
</svg>
