<svg width="163" height="47" viewBox="0 0 163 47" fill="none" xmlns="http://www.w3.org/2000/svg">
<g clip-path="url(#clip0_949_196)">
<path d="M4.24647 22.2147C4.12866 16.9031 4.85606 12.9402 7.09848 8.91254C10.2117 3.27383 16.2641 0.247649 22.6866 1.18381C27.6722 1.90225 32.1352 3.75279 36.0758 6.88783C41.9975 11.5904 43.6304 20.0811 39.7551 26.46C39.4285 27.0043 39.4721 27.3744 39.7551 27.9187C40.8437 29.9869 42.1499 32.0117 42.8248 34.2105C44.0658 38.2817 41.2355 41.8086 36.9684 42.0481C34.0511 42.2005 31.6563 40.8507 29.2397 39.5662C29.022 39.4574 28.7879 39.3283 28.6083 39.1526C26.5836 37.1714 24.3412 37.3238 21.794 38.064C18.0493 39.1308 14.3265 38.8042 10.9084 36.6924C6.94609 34.2323 5.2044 30.4224 4.57304 25.9811C4.3771 24.5877 4.27921 23.6907 4.24647 22.2147ZM9.73279 22.5412C9.87846 24.6354 10.2335 25.8504 10.7996 27.8098C11.801 31.2279 14.5007 33.2091 18.0276 32.9478C24.4936 32.4906 29.9799 29.791 34.0946 24.7837C37.578 20.5383 36.9249 15.0738 32.7448 11.438C29.6533 8.76014 25.9958 7.23617 21.9681 6.7572C17.135 6.16938 13.8257 7.99815 11.6269 12.3524C10.1682 15.2915 9.45194 18.5038 9.73279 22.5412Z" fill="#221E26"/>
<path d="M101.781 14.7036C103.392 13.1578 105.33 12.2217 107.638 12.0257C113.037 11.5903 117.63 15.618 117.718 21.0172C117.783 25.502 117.739 29.9869 117.718 34.4499C117.718 36.1481 116.629 37.2802 115.105 37.2802C113.538 37.2802 112.449 36.1263 112.449 34.3629C112.427 30.0304 112.471 25.698 112.427 21.3437C112.405 19.2537 110.947 17.5773 109.031 17.3161C106.549 16.9895 104.437 18.7965 104.415 21.322C104.394 25.6326 104.415 29.9216 104.415 34.2322C104.415 35.3426 104.132 36.3005 103.109 36.9101C101.476 37.868 99.4081 36.8883 99.1686 34.9942C99.1033 34.4282 99.1251 33.8403 99.1251 33.2525C99.1251 29.2684 99.1468 25.3061 99.1251 21.322C99.1251 19.515 98.1889 18.2087 96.5343 17.5338C95.0757 16.946 93.6823 17.229 92.4849 18.2523C91.4399 19.1449 91.0915 20.3205 91.0915 21.6485C91.0915 25.8068 91.1351 29.9651 91.048 34.1234C91.0262 34.9724 90.6344 35.9739 90.0683 36.6053C89.3063 37.4761 88.1307 37.5632 87.0421 37.0625C85.9536 36.5617 85.4746 35.6256 85.4746 34.4282C85.4746 28.2452 85.4746 22.0622 85.4746 15.8792C85.4746 15.7268 85.4746 15.5962 85.4964 15.4438C85.6706 13.5497 87.434 12.5047 89.2192 13.2014C89.5458 13.332 90.0248 13.3755 90.3078 13.2231C94.4225 11.1113 98.1889 11.6556 101.781 14.7036Z" fill="#221E26"/>
<path d="M126.12 26.8739C126.338 29.4647 128.58 31.5982 131.258 31.8377C133.217 32.0337 135.133 31.9466 136.918 30.8798C138.246 30.0743 139.923 30.6621 140.576 31.903C141.229 33.144 140.772 34.6897 139.509 35.4735C134.916 38.4126 127.666 37.803 123.899 33.9495C120.721 30.7056 119.893 26.6127 120.525 22.2149C121.069 18.4267 122.745 15.2699 126.185 13.3105C130.452 10.8722 138.051 11.3076 140.924 17.8171C141.882 19.9943 142.274 22.2149 142.231 24.5444C142.209 25.6112 141.817 26.395 140.685 26.5473C139.618 26.6997 138.53 26.8304 137.463 26.8521C134.132 26.8957 130.801 26.8739 127.47 26.8739C127.034 26.8739 126.621 26.8739 126.12 26.8739ZM126.316 21.4529C129.712 21.4529 133.109 21.4529 136.505 21.4529C136.091 18.8186 134.132 17.3164 131.432 17.2729C129.386 17.2511 126.686 18.9057 126.316 21.4529Z" fill="#221E26"/>
<path d="M63.5719 2.6206C65.7473 2.63766 67.1424 3.12133 68.9929 3.73092C70.6257 4.2752 71.2353 5.79918 70.6693 7.19252C70.0597 8.67296 68.6228 9.23901 66.99 8.60765C64.8129 7.78034 62.614 7.69326 60.3933 8.34639C58.5863 8.89067 57.4107 10.5235 57.4107 12.4176C57.4107 13.7238 58.1074 14.6382 59.1306 15.2478C60.8723 16.2711 62.7011 17.1201 64.4645 18.1216C66.4021 19.2319 68.4922 20.1899 70.125 21.6485C74.2615 25.3714 73.456 32.4905 68.7534 35.4296C64.0073 38.4123 59.0653 38.1292 54.1015 36.0392C52.5775 35.3861 52.0332 33.8621 52.6428 32.447C53.2306 31.0754 54.7328 30.5311 56.3221 31.206C58.8476 32.2728 61.3948 32.5558 64.0509 31.8374C66.6852 31.1189 67.9914 28.9636 67.1859 26.6123C66.6852 25.1754 65.3789 24.5658 64.1815 23.9345C62.0697 22.8242 59.8926 21.8445 57.8026 20.7341C54.3627 18.9054 52.0332 16.3146 52.0768 12.1563C52.1203 7.97628 55.0594 4.23166 59.1306 3.20842C60.4586 2.88185 61.7978 2.60668 63.5719 2.6206Z" fill="#221E26"/>
<path d="M81.9047 24.6314C81.9047 27.8535 81.9047 31.0538 81.9047 34.276C81.9047 35.7999 81.1863 36.8885 80.0106 37.2368C78.2472 37.7593 76.6361 36.5401 76.549 34.559C76.5055 33.2963 76.5273 32.0335 76.5273 30.7708C76.5273 25.5022 76.5055 20.2336 76.5273 14.965C76.5273 12.6355 78.552 11.3292 80.5114 12.3743C81.5564 12.9403 81.8612 13.8982 81.8612 15.0086C81.8612 18.2307 81.8612 21.431 81.8612 24.6531C81.8829 24.6314 81.8829 24.6314 81.9047 24.6314Z" fill="#221E26"/>
<path d="M155.185 24.61C155.185 21.3225 155.185 18.0351 155.185 14.7477C155.185 13.7027 155.533 12.8536 156.535 12.3311C157.536 11.8086 158.581 11.8086 159.387 12.5488C159.909 13.0278 160.432 13.8551 160.432 14.53C160.497 21.2355 160.476 27.9627 160.454 34.69C160.454 36.214 159.191 37.3896 157.754 37.3461C156.295 37.3243 155.229 36.214 155.207 34.6682C155.163 31.3155 155.185 27.9627 155.185 24.61Z" fill="#221E26"/>
<ellipse cx="79.2463" cy="5.88676" rx="2.83024" ry="3.26566" fill="#221E26"/>
<ellipse cx="148.914" cy="5.88676" rx="2.83024" ry="3.26566" fill="#221E26"/>
<ellipse cx="157.84" cy="5.88676" rx="2.83024" ry="3.26566" fill="#221E26"/>
<path d="M151.331 26.4162C151.331 30.4656 151.462 34.4933 151.288 38.5427C151.157 41.6995 149.524 44.2032 146.955 46.0755C145.714 46.9899 144.169 46.8157 143.254 45.7054C142.34 44.5951 142.405 42.9405 143.603 42.0261C145.41 40.6327 146.063 38.8257 146.063 36.6486C146.085 29.5295 146.128 22.4321 146.15 15.313C146.15 14.2244 146.259 13.1794 147.238 12.5263C148.131 11.9167 149.132 11.8078 150.112 12.3303C151.07 12.831 151.506 13.6583 151.506 14.7251C151.506 18.6222 151.506 26.4162 151.506 26.4162C151.506 26.4162 151.397 26.4162 151.331 26.4162Z" fill="#221E26"/>
<rect x="146.086" y="11.9824" width="5.44277" height="28.0847" rx="2.72139" fill="#221E26"/>
<path d="M151.528 36.9098C151.637 37.3452 151.274 39.1958 151.092 40.0666L150.548 40.1755L150.004 39.5223L150.33 36.8009C150.693 36.6558 151.42 36.479 151.528 36.9098Z" fill="#221E26"/>
</g>
<defs>
<clipPath id="clip0_949_196">
<rect width="162.848" height="46.683" fill="white"/>
</clipPath>
</defs>
</svg>
