<svg width="169" height="57" viewBox="0 0 169 57" fill="none" xmlns="http://www.w3.org/2000/svg">
<g clip-path="url(#clip0_949_343)">
<path d="M54.1967 17.7455L53.3126 18.0299C52.9668 18.1462 52.5903 17.9652 52.4722 17.6249L52.1832 16.7549C52.0651 16.4145 52.2489 16.0441 52.5947 15.9278L53.4789 15.6436C53.8247 15.5273 54.2011 15.7082 54.3193 16.0484L54.6081 16.9186C54.7263 17.2588 54.5425 17.6292 54.1967 17.7455ZM55.9431 21.3034L55.755 20.6057C55.698 20.3946 55.4791 20.2653 55.2647 20.3214L54.5556 20.5066C54.3412 20.5626 54.2098 20.7779 54.2668 20.989L54.455 21.6869C54.5118 21.8979 54.7307 22.0271 54.9452 21.9711L55.6543 21.7902C55.8688 21.7342 56 21.5188 55.9431 21.3078V21.3034ZM52.6822 19.2058C52.5947 18.9301 52.2971 18.7751 52.017 18.8612L51.2203 19.0937C50.9402 19.1799 50.7826 19.4728 50.8701 19.7485L51.1065 20.5325C51.194 20.8082 51.4917 20.9632 51.7718 20.877L52.5684 20.6401C52.8486 20.554 53.0062 20.2611 52.9186 19.9854L52.6822 19.2015V19.2058ZM49.8941 18.6242L49.6052 17.7542C49.487 17.4139 49.1106 17.233 48.7647 17.3493L47.8806 17.6336C47.5348 17.7499 47.351 18.1203 47.4692 18.4606L47.758 19.3307C47.8762 19.671 48.2526 19.8519 48.5985 19.7356L49.4826 19.4513C49.8284 19.335 50.0123 18.9646 49.8941 18.6242ZM45.4513 15.6867L44.4796 16.0226C44.0682 16.1691 43.8538 16.617 44.0069 17.0219L44.3484 17.9781C44.4971 18.3831 44.9523 18.5941 45.3638 18.4476L46.3355 18.1074C46.747 17.9609 46.9614 17.5129 46.8082 17.1081L46.4668 16.1518C46.318 15.747 45.8627 15.5402 45.4513 15.6867ZM51.0409 22.3114C50.984 22.1004 50.7651 21.9711 50.5507 22.0271L49.8415 22.2123C49.6271 22.2683 49.4958 22.4837 49.5527 22.6947L49.7365 23.3925C49.7934 23.6037 50.0123 23.7285 50.2267 23.6769L50.9358 23.4916C51.1502 23.4356 51.2816 23.2202 51.2247 23.0092L51.0365 22.3114H51.0409ZM47.9638 20.9158C47.8762 20.6401 47.5786 20.485 47.2984 20.5712L46.5018 20.8038C46.2217 20.8899 46.0641 21.1828 46.1517 21.4585L46.388 22.2425C46.4756 22.5181 46.7733 22.6732 47.0534 22.5871L47.8499 22.3545C48.1301 22.2683 48.2876 21.9754 48.2002 21.6997L47.9594 20.9158H47.9638ZM45.18 20.3343L44.891 19.4642C44.7729 19.1239 44.3965 18.943 44.0507 19.0593L43.1665 19.3436C42.8208 19.4599 42.6369 19.8304 42.7551 20.1706L43.0439 21.0407C43.1621 21.381 43.5385 21.5619 43.8844 21.4456L44.7686 21.1614C45.1143 21.0451 45.2982 20.6745 45.18 20.3343ZM40.7372 17.3966L39.7655 17.7326C39.3541 17.879 39.1396 18.3271 39.2928 18.732L39.6342 19.6882C39.7831 20.0931 40.2383 20.3041 40.6497 20.1534L41.6214 19.8174C42.0328 19.671 42.2473 19.223 42.0941 18.8181L41.7527 17.8618C41.6039 17.457 41.1487 17.2502 40.7372 17.3966ZM46.3267 24.0214C46.2699 23.8104 46.051 23.6812 45.8365 23.7372L45.1275 23.9223C44.9129 23.9784 44.7817 24.1937 44.8386 24.4048L45.0224 25.1026C45.0793 25.3136 45.2982 25.4429 45.5126 25.3868L46.2217 25.2017C46.4362 25.1457 46.5675 24.9303 46.5106 24.7193L46.3223 24.0214H46.3267ZM43.2497 22.6259C43.1621 22.3502 42.8645 22.1951 42.5844 22.2812L41.7878 22.5181C41.5076 22.6043 41.3501 22.8972 41.4376 23.1729L41.6739 23.9569C41.7615 24.2325 42.0591 24.3876 42.3393 24.3014L43.1359 24.0688C43.416 23.9826 43.5736 23.6897 43.486 23.4141L43.2453 22.6301L43.2497 22.6259ZM40.4659 22.0443L40.177 21.1743C40.0588 20.8339 39.6824 20.6531 39.3366 20.7694L38.4524 21.0536C38.1067 21.1699 37.9228 21.5404 38.041 21.8807L38.3299 22.7507C38.4481 23.0911 38.8245 23.272 39.1702 23.1557L40.0545 22.8714C40.4002 22.7551 40.584 22.3846 40.4659 22.0443ZM37.38 20.5281L37.0387 19.5719C36.8898 19.167 36.4346 18.9559 36.0232 19.1067L35.0515 19.4427C34.64 19.5891 34.4255 20.0371 34.5787 20.442L34.9201 21.3982C35.069 21.8032 35.5242 22.0142 35.9356 21.8635L36.9073 21.5275C37.3188 21.381 37.5333 20.933 37.38 20.5281ZM41.6126 25.7272C41.5557 25.5161 41.3369 25.3912 41.1224 25.4429L40.4134 25.6281C40.1989 25.6841 40.0676 25.8994 40.1244 26.1105L40.3083 26.8084C40.3652 27.0194 40.584 27.1486 40.7985 27.0926L41.5076 26.9074C41.7221 26.8514 41.8534 26.6361 41.7965 26.4249L41.6083 25.7272H41.6126ZM38.5356 24.3315C38.4481 24.0559 38.1505 23.9008 37.8703 23.987L37.0737 24.2239C36.7935 24.3101 36.636 24.603 36.7235 24.8786L36.9599 25.6625C37.0474 25.9382 37.345 26.0933 37.6252 26.0072L38.4218 25.7746C38.7019 25.6884 38.8595 25.3955 38.7719 25.1198L38.5313 24.3359L38.5356 24.3315ZM50.161 13.9938L49.1894 14.3341C48.7779 14.4805 48.5635 14.9285 48.7166 15.3334L49.0581 16.2897C49.2068 16.6945 49.6621 16.9013 50.0736 16.7549L51.0453 16.4189C51.4567 16.2725 51.6711 15.8245 51.518 15.4195L51.1765 14.4633C51.0278 14.0584 50.5725 13.8516 50.161 13.9981V13.9938ZM34.2374 18.6415C34.3642 18.9689 34.2943 19.3221 34.0885 19.5762C33.9397 19.7571 33.6508 19.7356 33.5107 19.5504C33.4275 19.4384 33.1256 19.0895 33.1256 19.0895C30.6306 16.5179 26.932 15.0621 21.6752 15.0621C13.013 15.0621 6.29421 20.5798 0.472723 28.0057L0.442083 28.0446C0.407066 28.0876 0.354541 28.1135 0.302017 28.1135H0.140066C0.0612787 28.1135 0 28.0488 0 27.9713L0.00875412 27.6353C0.498984 12.1891 13.5207 -0.0267691 29.2519 0.279057C37.7696 0.442738 45.3463 4.24186 50.485 10.143C51.0453 10.7891 51.483 11.3448 51.9601 12.0512C52.0389 12.1675 52.1395 12.3268 52.2314 12.4862L52.3496 12.7102C52.4415 12.8825 52.3584 13.0979 52.1745 13.1668L51.4173 13.4424C50.9183 13.6277 50.358 13.3822 50.1654 12.8912C50.1654 12.8912 49.9904 12.3958 49.8503 11.9823C49.7583 11.7022 49.4388 11.5558 49.1631 11.6678C48.9005 11.7755 48.5897 11.8962 48.3314 11.9951C48.0601 12.0985 47.9244 12.3958 48.0338 12.6628C48.1914 13.0462 48.3752 13.5157 48.3752 13.5157C48.5635 14.0068 48.3139 14.5581 47.8149 14.7476L46.7032 15.1568C46.2042 15.342 45.6439 15.0965 45.4513 14.6055C45.4513 14.6055 45.2763 14.1144 45.1362 13.6966C45.0443 13.4166 44.7248 13.2702 44.449 13.3822C44.1864 13.4899 43.8757 13.6105 43.6174 13.7095C43.346 13.8086 43.2103 14.1101 43.3198 14.3772C43.4773 14.7605 43.6611 15.23 43.6611 15.23C43.8494 15.7211 43.5998 16.2725 43.1009 16.4576L41.9891 16.8668C41.4902 17.0521 40.9299 16.8065 40.7372 16.3155C40.7372 16.3155 40.5621 15.8245 40.4221 15.4066C40.3302 15.1223 40.0107 14.9802 39.7305 15.0922C39.4723 15.1999 39.1615 15.3205 38.9033 15.4153C38.6319 15.5143 38.4962 15.8202 38.6057 16.0829C38.7632 16.4663 38.9471 16.9358 38.9471 16.9358C39.1352 17.4268 38.8858 17.9781 38.3868 18.1634L37.275 18.5726C36.776 18.7578 36.2158 18.5123 36.0232 18.0212C36.0232 18.0212 35.8481 17.5259 35.7081 17.1124C35.6161 16.8281 35.2922 16.686 35.0164 16.8023C34.7582 16.9099 34.4474 17.0305 34.1892 17.1253C33.9178 17.2244 33.7822 17.5259 33.8915 17.793C34.0491 18.1763 34.233 18.6458 34.233 18.6458L34.2374 18.6415ZM44.8474 11.1466C44.9523 11.4137 45.0749 11.7453 45.1537 11.9909C45.2369 12.2407 45.5126 12.3657 45.7622 12.2708C46.0028 12.1761 46.2962 12.0641 46.5369 11.9779C46.782 11.8875 46.9045 11.6161 46.7994 11.3792C46.6988 11.1552 46.5675 10.8279 46.4668 10.5522C46.3705 10.298 46.086 10.1689 45.8278 10.2679C45.6133 10.3498 45.3638 10.4402 45.145 10.5177C44.8867 10.6125 44.751 10.8968 44.8517 11.151L44.8474 11.1466ZM40.1332 12.8524C40.2383 13.1194 40.3608 13.4511 40.4396 13.6966C40.5228 13.9465 40.7985 14.0757 41.048 13.9766C41.2888 13.8818 41.582 13.7699 41.8228 13.6837C42.0679 13.5933 42.1904 13.3219 42.0854 13.085C41.9848 12.861 41.8534 12.5336 41.7527 12.2579C41.6564 12.0038 41.372 11.8746 41.1137 11.9737C40.8992 12.0555 40.6497 12.146 40.4309 12.2235C40.1726 12.3139 40.037 12.6025 40.1376 12.8566L40.1332 12.8524ZM35.4191 14.5581C35.5242 14.8252 35.6468 15.1568 35.7256 15.4023C35.8087 15.6521 36.0845 15.7814 36.3339 15.6823C36.5747 15.5876 36.8679 15.4755 37.1087 15.3894C37.3538 15.2989 37.4764 15.0276 37.3713 14.7906C37.2706 14.5667 37.1394 14.2394 37.0387 13.9637C36.9424 13.7095 36.6579 13.5803 36.3996 13.6793C36.1852 13.7612 35.9356 13.8516 35.7168 13.9292C35.4585 14.0197 35.3228 14.3039 35.4235 14.5624L35.4191 14.5581ZM2.60435 39.2223L3.48851 38.9379C3.8343 38.8216 4.21073 39.0026 4.32891 39.3429L4.6178 40.2129C4.73597 40.5533 4.55214 40.9237 4.20635 41.04L3.32219 41.3242C2.9764 41.4405 2.59997 41.2597 2.48179 40.9194L2.1929 40.0492C2.07473 39.709 2.25856 39.3386 2.60435 39.2223ZM0.857903 35.6644L1.04611 36.3621C1.10302 36.5732 1.32187 36.7025 1.53635 36.6465L2.24543 36.4612C2.45991 36.4052 2.59122 36.1899 2.53431 35.9788L2.3461 35.2809C2.2892 35.0699 2.07035 34.9407 1.85587 34.9967L1.14679 35.1776C0.932313 35.2336 0.801001 35.449 0.857903 35.66V35.6644ZM4.11881 37.762C4.20635 38.0377 4.50399 38.1927 4.78412 38.1067L5.58075 37.8741C5.86088 37.7879 6.01846 37.495 5.93091 37.2193L5.69455 36.4353C5.60701 36.1596 5.30937 36.0046 5.02924 36.0908L4.23262 36.3277C3.95249 36.4138 3.79491 36.7067 3.88245 36.9824L4.11881 37.7663V37.762ZM6.90699 38.3436L7.19588 39.2136C7.31406 39.5539 7.69049 39.7349 8.03628 39.6186L8.92044 39.3342C9.26623 39.2179 9.45006 38.8475 9.33189 38.5072L9.043 37.6371C8.92482 37.2968 8.54839 37.116 8.2026 37.2323L7.31844 37.5165C6.97265 37.6328 6.78882 38.0032 6.90699 38.3436ZM11.3497 41.2811L12.3214 40.9452C12.7328 40.7987 12.9473 40.3508 12.7941 39.9459L12.4527 38.9897C12.3039 38.5847 11.8487 38.3737 11.4372 38.5202L10.4655 38.8604C10.0541 39.0069 9.83965 39.4549 9.99282 39.8597L10.3342 40.816C10.483 41.2209 10.9382 41.4276 11.3497 41.2811ZM5.76021 34.6564C5.81711 34.8675 6.03596 34.9967 6.25044 34.9407L6.95952 34.7555C7.174 34.6995 7.30531 34.4841 7.2484 34.2731L7.06457 33.5753C7.00767 33.3641 6.78882 33.2393 6.57434 33.2909L5.86526 33.4762C5.65078 33.5322 5.51947 33.7476 5.57637 33.9586L5.76458 34.6564H5.76021ZM8.83728 36.052C8.92482 36.3277 9.22246 36.4828 9.50259 36.3966L10.2993 36.164C10.5793 36.0779 10.737 35.785 10.6494 35.5093L10.413 34.7253C10.3254 34.4497 10.0278 34.2946 9.74767 34.3807L8.95109 34.6134C8.67095 34.6995 8.51338 34.9924 8.60092 35.2681L8.84166 36.052H8.83728ZM11.6211 36.6335L11.91 37.5036C12.0282 37.8439 12.4046 38.0248 12.7503 37.9085L13.6346 37.6242C13.9803 37.5079 14.1641 37.1374 14.046 36.7972L13.7571 35.9271C13.6389 35.5868 13.2624 35.4059 12.9167 35.5222L12.0325 35.8064C11.6868 35.9228 11.5029 36.2933 11.6211 36.6335ZM16.0638 39.5712L17.0355 39.2352C17.447 39.0888 17.6614 38.6408 17.5082 38.2358L17.1668 37.2796C17.018 36.8747 16.5627 36.6637 16.1513 36.8144L15.1796 37.1504C14.7682 37.2968 14.5537 37.7448 14.7069 38.1497L15.0484 39.106C15.1971 39.5108 15.6523 39.7176 16.0638 39.5712ZM10.4743 32.9464C10.5312 33.1574 10.7501 33.2866 10.9645 33.2306L11.6736 33.0455C11.8881 32.9895 12.0194 32.7741 11.9625 32.563L11.7786 31.8652C11.7218 31.6542 11.5029 31.525 11.2884 31.581L10.5793 31.7661C10.3648 31.8221 10.2336 32.0375 10.2905 32.2486L10.4787 32.9464H10.4743ZM13.5514 34.3419C13.6389 34.6176 13.9366 34.7727 14.2166 34.6866L15.0133 34.4497C15.2934 34.3635 15.451 34.0706 15.3635 33.7949L15.1271 33.0109C15.0396 32.7353 14.7419 32.5803 14.4618 32.6664L13.6652 32.899C13.385 32.9852 13.2274 33.2781 13.315 33.5537L13.5558 34.3377L13.5514 34.3419ZM16.3352 34.9235L16.624 35.7935C16.7422 36.1339 17.1186 36.3148 17.4645 36.1984L18.3486 35.9142C18.6944 35.7979 18.8783 35.4274 18.7601 35.0871L18.4712 34.2171C18.353 33.8768 17.9766 33.6958 17.6308 33.8122L16.7466 34.0965C16.4008 34.2127 16.217 34.5832 16.3352 34.9235ZM19.421 36.4397L19.7624 37.3959C19.9113 37.8008 20.3665 38.0119 20.7779 37.8611L21.7496 37.5252C22.1611 37.3787 22.3755 36.9307 22.2223 36.5258L21.8809 35.5696C21.7321 35.1647 21.2769 34.9536 20.8655 35.1043L19.8938 35.4403C19.4822 35.5868 19.2678 36.0348 19.421 36.4397ZM15.1883 31.2406C15.2453 31.4517 15.4642 31.5766 15.6786 31.525L16.3877 31.3397C16.6021 31.2837 16.7335 31.0684 16.6766 30.8573L16.4928 30.1595C16.4359 29.9484 16.217 29.8192 16.0026 29.8752L15.2934 30.0604C15.079 30.1165 14.9477 30.3318 15.0046 30.5429L15.1927 31.2406H15.1883ZM18.2655 32.6363C18.353 32.912 18.6506 33.067 18.9308 32.9808L19.7274 32.7439C20.0075 32.6578 20.1651 32.3649 20.0775 32.0892L19.8412 31.3053C19.7537 31.0296 19.456 30.8745 19.1759 30.9606L18.3793 31.1932C18.0991 31.2794 17.9416 31.5723 18.0291 31.848L18.2698 32.6319L18.2655 32.6363ZM6.64 42.974L7.6117 42.6337C8.02315 42.4873 8.23762 42.0393 8.08443 41.6344L7.74302 40.6781C7.59419 40.2733 7.13898 40.0665 6.72754 40.2129L5.75583 40.5489C5.34439 40.6953 5.12991 41.1434 5.28311 41.5483L5.62452 42.5045C5.77334 42.9094 6.22855 43.1162 6.64 42.9697V42.974ZM22.5637 38.3263C22.4368 37.9989 22.5068 37.6457 22.7126 37.3916C22.8613 37.2107 23.1503 37.2323 23.2903 37.4174C23.3734 37.5294 23.6755 37.8784 23.6755 37.8784C26.1704 40.4499 29.8691 41.9058 35.1259 41.9058C43.7881 41.9058 50.5069 36.388 56.3284 28.9621L56.359 28.9233C56.394 28.8802 56.4465 28.8543 56.499 28.8543H56.661C56.7398 28.8543 56.8011 28.919 56.8011 28.9965L56.7923 29.3325C56.3021 44.7659 43.276 56.9816 27.5449 56.6758C19.027 56.5121 11.4504 52.7131 6.31171 46.8119C5.75145 46.1658 5.31374 45.6101 4.83664 44.9037C4.75786 44.7874 4.65719 44.628 4.56527 44.4686L4.44709 44.2447C4.35517 44.0724 4.43834 43.857 4.62217 43.7881L5.3794 43.5124C5.87839 43.3272 6.43865 43.5727 6.63124 44.0638C6.63124 44.0638 6.80632 44.5591 6.94639 44.9727C7.0383 45.2526 7.35783 45.3991 7.63359 45.2871C7.8962 45.1794 8.20698 45.0588 8.46523 44.9597C8.7366 44.8564 8.87229 44.5591 8.76286 44.292C8.6053 43.9087 8.42146 43.4392 8.42146 43.4392C8.23324 42.9481 8.48273 42.3968 8.98172 42.2073L10.0935 41.7981C10.5925 41.6129 11.1528 41.8584 11.3453 42.3494C11.3453 42.3494 11.5204 42.8405 11.6605 43.2583C11.7524 43.5383 12.0719 43.6848 12.3476 43.5727C12.6103 43.4651 12.9211 43.3444 13.1794 43.2454C13.4507 43.1463 13.5864 42.8447 13.477 42.5777C13.3194 42.1944 13.1356 41.7249 13.1356 41.7249C12.9473 41.2338 13.1968 40.6824 13.6958 40.4973L14.8076 40.0881C15.3066 39.9028 15.8668 40.1483 16.0595 40.6394C16.0595 40.6394 16.2345 41.1304 16.3746 41.5483C16.4665 41.8325 16.786 41.9747 17.0661 41.8627C17.3244 41.755 17.6351 41.6344 17.8934 41.5396C18.1648 41.4405 18.3005 41.1347 18.191 40.8719C18.0334 40.4886 17.8497 40.0191 17.8497 40.0191C17.6614 39.5281 17.9109 38.9767 18.4099 38.7915L19.5216 38.3823C20.0206 38.1971 20.5809 38.4426 20.7735 38.9337C20.7735 38.9337 20.9486 39.429 21.0887 39.8425C21.1806 40.1269 21.5045 40.2689 21.7803 40.1526C22.0385 40.045 22.3492 39.9244 22.6075 39.8296C22.8788 39.7305 23.0146 39.429 22.9051 39.162C22.7476 38.7785 22.5637 38.3091 22.5637 38.3091V38.3263ZM11.9537 45.8212C11.8487 45.5541 11.7262 45.2225 11.6474 44.9769C11.5642 44.7271 11.2884 44.6022 11.0389 44.697C10.7982 44.7917 10.5049 44.9037 10.2642 44.9899C10.0191 45.0803 9.89654 45.3517 10.0016 45.5886C10.1023 45.8126 10.2336 46.1399 10.3342 46.4156C10.4305 46.6698 10.7151 46.7989 10.9733 46.6999C11.1878 46.618 11.4372 46.5276 11.6561 46.4501C11.9143 46.3553 12.05 46.071 11.9494 45.8168L11.9537 45.8212ZM16.6678 44.1154C16.5627 43.8484 16.4402 43.5167 16.3614 43.2712C16.2783 43.0213 16.0026 42.8922 15.753 42.9912C15.5123 43.086 15.219 43.1979 14.9783 43.2841C14.7331 43.3745 14.6107 43.646 14.7156 43.8828C14.8163 44.1068 14.9477 44.4342 15.0484 44.7099C15.1446 44.964 15.4291 45.0932 15.6873 44.9942C15.9019 44.9123 16.1513 44.8218 16.3702 44.7443C16.6284 44.6539 16.7641 44.3653 16.6634 44.1112L16.6678 44.1154ZM21.3819 42.4098C21.2769 42.1426 21.1543 41.811 21.0755 41.5655C20.9923 41.3157 20.7166 41.1864 20.4671 41.2855C20.2264 41.3802 19.9331 41.4923 19.6924 41.5784C19.4472 41.6689 19.3247 41.9402 19.4298 42.1772C19.5304 42.4011 19.6617 42.7284 19.7624 43.0041C19.8587 43.2583 20.1432 43.3875 20.4014 43.2885C20.6159 43.2066 20.8654 43.1162 21.0843 43.0386C21.3426 42.9481 21.4782 42.6639 21.3775 42.4054L21.3819 42.4098Z" fill="#221E26"/>
<path d="M68.6367 25.7743V5.27539H76.5505C83.2955 5.27539 87.2479 9.99203 87.2479 15.527C87.2479 21.062 83.3218 25.7786 76.5505 25.7786H68.6367V25.7743ZM73.4909 21.7899H76.0996C80.2359 21.7899 82.245 18.7747 82.245 15.5227C82.245 12.2706 80.2359 9.25543 76.0996 9.25543H73.4909V21.7899Z" fill="#221E26"/>
<path d="M88.9551 7.70458C88.9551 6.17976 90.1237 4.95215 91.7739 4.95215C93.424 4.95215 94.619 6.18407 94.619 7.70458C94.619 9.22508 93.4196 10.4268 91.7739 10.4268C90.1281 10.4268 88.9551 9.19494 88.9551 7.70458ZM89.4935 25.7741V11.6587H94.0499V25.7741H89.4935Z" fill="#221E26"/>
<path d="M107.684 11.6587H112.267V24.8696C112.236 27.5918 111.247 29.612 109.479 30.8138C108.161 31.7226 106.393 32.0715 104.322 32.0715C102.252 32.0715 100.514 31.7485 99.1096 30.9301C97.643 30.0514 96.5931 28.5266 96.531 27.006H101.206C101.416 28.1174 102.405 28.7936 104.261 28.7936C106.389 28.7936 107.68 27.8847 107.68 25.3649V23.4912C106.962 24.8954 105.04 25.7741 103.154 25.7741C98.8687 25.7741 96.291 22.7287 96.291 18.5678C96.291 14.4069 99.0485 11.2754 103.215 11.2754C105.193 11.2754 106.962 12.2144 107.68 13.6789V11.6587H107.684ZM107.894 18.6281C107.894 16.5778 106.607 14.9367 104.419 14.9367C102.353 14.9367 101.001 16.4873 101.001 18.6281C101.001 20.7689 102.349 22.3196 104.419 22.3196C106.607 22.3196 107.894 20.6784 107.894 18.6281Z" fill="#221E26"/>
<path d="M114.543 7.70555C114.543 6.18073 115.711 4.95312 117.362 4.95312C119.012 4.95312 120.207 6.18504 120.207 7.70555C120.207 9.22606 119.007 10.4278 117.362 10.4278C115.716 10.4278 114.543 9.19591 114.543 7.70555ZM115.081 25.7751V11.6597H119.638V25.7751H115.081Z" fill="#221E26"/>
<path d="M132.195 22.2034V25.7742C131.534 25.8906 130.457 26.0069 129.14 26.0069C126.982 26.0069 124.014 25.5374 124.014 20.8207V15.1995H121.738V11.6546H124.014V7.46777H128.597V11.6546H131.863V15.1995H128.597V19.886C128.597 21.9665 129.468 22.2896 130.606 22.2896C131.114 22.2896 131.775 22.2594 132.195 22.2034Z" fill="#221E26"/>
<path d="M133.543 18.7181C133.543 14.5012 136.209 11.2793 140.406 11.2793C142.503 11.2793 144.153 12.2441 144.932 13.6828V11.6626H149.488V25.7736H144.932V23.7836C144.153 25.1878 142.354 26.1571 140.345 26.1571C136.029 26.1571 133.543 22.9652 133.543 18.7181ZM145.111 18.7181C145.111 16.698 143.943 15.0267 141.667 15.0267C139.54 15.0267 138.222 16.5774 138.222 18.7181C138.222 20.859 139.54 22.4398 141.667 22.4398C143.943 22.4398 145.111 20.7684 145.111 18.7181Z" fill="#221E26"/>
<path d="M152.299 25.7743V5.27539H156.886V25.7743H152.299Z" fill="#221E26"/>
<path d="M74.2128 51.8348V35.5529H68.457V31.3359H84.8184V35.5529H79.0363V51.8348H74.2128Z" fill="#221E26"/>
<path d="M82.0293 46.4456V37.7188H86.6733V45.4506C86.6733 47.3846 87.3342 48.4399 89.0719 48.4399C91.0197 48.4399 91.8601 47.208 91.8601 45.3041V37.7188H96.4162V51.8341H91.8601V49.814C91.0503 51.3086 89.5534 52.2175 87.3649 52.2175C83.8895 52.2175 82.0293 50.1069 82.0293 46.4499V46.4456Z" fill="#221E26"/>
<path d="M99.2012 51.8344V37.719H103.789V40.6781C104.296 38.5675 106.008 37.4863 107.776 37.4863C108.314 37.4863 108.616 37.5165 108.976 37.6027V41.7636C108.437 41.7033 108.166 41.6775 107.597 41.6775C105.11 41.6775 103.789 43.2583 103.789 46.3941V51.8429H99.2012V51.8344Z" fill="#221E26"/>
<path d="M126.773 44.7787C126.773 49.2025 123.984 52.2177 120.002 52.2177C117.875 52.2177 116.137 51.1624 115.388 49.8443V51.8342H110.832V31.3311H115.388V39.7348C116.167 38.3866 117.967 37.3313 120.124 37.3313C124.081 37.3313 126.777 40.3163 126.777 44.7702L126.773 44.7787ZM122.098 44.7787C122.098 42.6121 120.689 41.0873 118.685 41.0873C116.68 41.0873 115.209 42.582 115.209 44.7787C115.209 46.9755 116.649 48.5004 118.685 48.5004C120.719 48.5004 122.098 46.9755 122.098 44.7787Z" fill="#221E26"/>
<path d="M128.387 33.7642C128.387 32.2394 129.555 31.0117 131.205 31.0117C132.856 31.0117 134.051 32.2436 134.051 33.7642C134.051 35.2847 132.852 36.4864 131.205 36.4864C129.56 36.4864 128.387 35.2545 128.387 33.7642ZM128.925 51.8337V37.7183H133.482V51.8337H128.925Z" fill="#221E26"/>
<path d="M136.326 51.8342V37.7188H140.914V39.7692C141.754 38.1883 143.399 37.3398 145.588 37.3398C149.094 37.3398 150.863 39.2739 150.863 43.1075V51.8342H146.25V44.572C146.25 42.1985 145.562 41.1175 143.702 41.1175C141.842 41.1175 140.914 42.2891 140.914 44.4557V51.8342H136.326Z" fill="#221E26"/>
<path d="M168.153 46.0067H157.486C157.577 47.8503 158.834 48.8453 160.874 48.8453C162.283 48.8453 163.18 48.4663 163.57 47.5876H168.065C167.615 50.3701 164.708 52.2137 160.874 52.2137C155.958 52.2137 152.934 49.4914 152.934 44.7749C152.934 40.0582 156.02 37.3359 160.725 37.3359C165.43 37.3359 168.275 40.0582 168.275 44.0426C168.275 44.7749 168.245 45.2142 168.157 46.0067H168.153ZM163.749 43.2242C163.719 41.3505 162.642 40.3555 160.694 40.3555C158.747 40.3555 157.516 41.4969 157.486 43.2242H163.749Z" fill="#221E26"/>
</g>
<defs>
<clipPath id="clip0_949_343">
<rect width="168.276" height="56.4539" fill="white" transform="translate(0 0.273438)"/>
</clipPath>
</defs>
</svg>
