<svg width="245" height="37" viewBox="0 0 245 37" fill="none" xmlns="http://www.w3.org/2000/svg">
<path d="M20.419 27.697C21.9997 28.4497 23.5051 29.2025 25.0105 29.9175C23.1664 34.5844 17.3705 37.2942 11.4993 36.3156C4.83774 35.1866 0.32144 30.2563 0.0203539 23.67C-0.318368 16.8579 3.59576 11.3631 9.88094 9.70711C16.4296 8.01349 22.3384 10.2716 25.1234 15.6536C23.5804 16.4063 22.0373 17.159 20.419 17.987C18.7254 15.6159 16.6177 14.0352 13.6069 14.2234C11.3864 14.3739 9.50458 15.2019 8.03678 16.8579C4.8001 20.4709 5.2141 26.5303 8.86477 29.6541C12.4025 32.665 16.8059 31.9499 20.419 27.697Z" fill="#221E26"/>
<path d="M103.744 9.70703C105.362 9.70703 106.943 9.70703 108.674 9.70703C108.674 12.7932 108.674 15.804 108.674 18.5891C110.293 17.874 111.761 16.8578 113.379 16.5191C117.03 15.804 120.379 17.5729 121.922 20.9978C123.691 24.9495 123.653 28.9389 121.471 32.7402C119.024 36.9177 113.304 37.7457 109.653 34.5843C109.427 34.3961 109.164 34.2079 108.75 33.8692C108.712 34.6596 108.674 35.2241 108.637 35.9016C107.018 35.9016 105.438 35.9016 103.744 35.9016C103.744 27.2453 103.744 18.5514 103.744 9.70703ZM108.674 26.5679C108.674 27.3959 108.637 28.2615 108.674 29.0895C108.712 29.4658 108.825 29.9551 109.051 30.2186C111.045 32.7402 115.449 32.5143 117.03 29.7293C118.234 27.584 118.234 25.3259 117.03 23.143C116.013 21.2989 113.868 20.4332 111.798 21.1107C109.088 22.0139 108.411 22.6914 108.674 25.2883C108.712 25.7023 108.674 26.1539 108.674 26.5679Z" fill="#221E26"/>
<path d="M33.5173 35.9396C31.786 35.9396 30.2053 35.9396 28.5117 35.9396C28.5117 27.2458 28.5117 18.5519 28.5117 9.74512C30.0924 9.74512 31.7108 9.74512 33.5173 9.74512C33.5173 12.756 33.5173 15.7668 33.5173 19.1164C35.8883 17.0088 38.4099 16.2185 41.2326 16.4443C44.0929 16.7077 46.1629 18.439 46.2758 21.1864C46.4264 26.0414 46.3135 30.8964 46.3135 35.902C44.6951 35.902 43.1144 35.902 41.3832 35.902C41.3455 35.4127 41.3079 34.9235 41.3079 34.4342C41.3079 31.1223 41.3079 27.7727 41.3079 24.4607C41.3079 21.8638 40.1412 20.81 37.5443 20.923C34.9474 21.0359 33.5549 22.5037 33.5549 25.0253C33.5549 28.1114 33.5549 31.1975 33.5549 34.2837C33.5173 34.8106 33.5173 35.3375 33.5173 35.9396Z" fill="#221E26"/>
<path d="M158.58 16.4436C164.526 16.4436 168.741 20.5836 168.704 26.4924C168.704 32.4012 164.526 36.5035 158.542 36.5035C152.596 36.5035 148.418 32.3636 148.418 26.4547C148.418 20.5459 152.596 16.406 158.58 16.4436ZM163.435 26.2666C163.397 26.0031 163.397 25.5515 163.322 25.0999C162.908 22.6912 161.139 21.0728 158.843 20.9599C156.397 20.847 154.402 22.1643 153.988 24.7235C153.725 26.1913 153.875 27.9225 154.402 29.3527C155.23 31.6485 157.789 32.5517 160.123 31.7614C162.193 31.0087 163.397 29.0516 163.435 26.2666Z" fill="#221E26"/>
<path d="M67.951 35.9388C66.1445 35.9388 64.5638 35.9388 62.9454 35.9388C62.9078 35.4119 62.8701 34.9603 62.7949 34.3204C62.3809 34.5839 62.0798 34.8097 61.7411 35.0355C59.5958 36.5033 57.2248 36.8421 54.7408 36.1646C51.5041 35.299 49.8482 32.6645 50.2245 29.202C50.5256 26.304 52.7837 24.2717 55.9452 24.0082C58.4291 23.8201 60.6873 24.347 62.682 25.9277C63.397 22.3146 61.4776 20.1694 57.9399 20.7716C56.2839 21.0726 54.7032 21.9006 52.8967 22.5781C52.445 21.7501 51.8052 20.621 51.1278 19.4167C53.0096 17.6478 55.1924 16.7822 57.6011 16.4811C58.8431 16.3305 60.1604 16.3305 61.4023 16.4811C65.6552 16.9703 67.8757 19.4543 67.951 23.7071C67.9886 27.7718 67.951 31.7612 67.951 35.9388ZM63.2089 30.444C62.7949 29.616 62.6443 28.8256 62.1551 28.4869C60.6496 27.2826 58.9184 27.0567 57.1119 27.6965C55.9075 28.1105 55.1924 28.9762 55.2301 30.3311C55.2677 31.6483 56.0204 32.3634 57.1871 32.7774C58.7302 33.3043 60.2733 33.1537 61.6658 32.2881C62.3056 31.9494 62.682 31.159 63.2089 30.444Z" fill="#221E26"/>
<path d="M135.773 16.4436C141.757 16.4436 145.897 20.5083 145.897 26.4547C145.897 32.4388 141.757 36.5035 135.66 36.4659C129.826 36.4659 125.649 32.2883 125.649 26.4547C125.611 20.5836 129.826 16.406 135.773 16.4436ZM135.697 20.9223C132.837 20.9599 130.88 23.2557 130.918 26.53C130.955 29.7291 132.988 31.9496 135.773 31.9496C138.633 31.9496 140.665 29.6538 140.628 26.3795C140.628 23.1428 138.633 20.9223 135.697 20.9223Z" fill="#221E26"/>
<path d="M172.919 29.8793C175.027 31.4224 177.21 32.5138 179.769 32.4762C180.032 32.4762 180.333 32.4762 180.597 32.4386C181.613 32.2128 182.629 31.874 182.705 30.7073C182.817 29.4653 181.726 29.2395 180.823 28.9761C178.79 28.4115 176.683 28.0728 174.726 27.3201C171.564 26.1158 170.398 22.578 172.167 19.7929C172.806 18.8144 173.785 17.9111 174.801 17.3842C178.339 15.5401 183.796 16.3304 186.957 19.1155C186.355 20.2069 185.715 21.336 185.189 22.3145C183.57 21.6747 182.102 20.9596 180.559 20.5833C179.581 20.3575 178.414 20.5833 177.398 20.8844C176.946 20.9973 176.382 21.75 176.419 22.2016C176.419 22.6156 177.059 23.2178 177.548 23.406C178.828 23.82 180.183 24.0081 181.5 24.3845C182.629 24.6856 183.796 25.0243 184.812 25.5512C188.388 27.433 188.726 32.4009 185.49 34.8473C182.102 37.4065 174.312 36.9549 171.301 34.0193C171.075 33.7935 171.037 33.1537 171.188 32.8526C171.677 31.8364 172.279 30.9708 172.919 29.8793Z" fill="#221E26"/>
<path d="M89.6334 21.2988C88.6172 21.2988 87.714 21.2988 86.6602 21.2988C86.6602 19.7933 86.6602 18.4384 86.6602 16.933C87.6763 16.8954 88.6172 16.8201 89.7463 16.7825C89.7463 15.0512 89.7463 13.4329 89.7463 11.7393C91.4775 11.7393 93.0206 11.7393 94.7519 11.7393C94.7519 13.4329 94.7519 15.0512 94.7519 16.8201C96.1067 16.8201 97.3111 16.8201 98.5907 16.8201C98.5907 18.3632 98.5907 19.718 98.5907 21.2611C97.3487 21.2611 96.1444 21.2611 94.8271 21.2611C94.8271 24.3849 94.7142 27.3958 94.8648 30.369C94.94 31.8744 95.9562 32.2131 98.2896 31.611C98.5907 32.6271 98.9294 33.6057 99.1176 34.6595C99.1929 34.9982 98.8542 35.6004 98.5907 35.7133C96.4078 36.7294 94.112 36.8423 91.9292 35.7509C89.9721 34.7347 89.671 32.7777 89.7087 30.783C89.7087 28.1108 89.7087 25.4387 89.7087 22.7666C89.7087 22.3526 89.671 21.9009 89.6334 21.2988Z" fill="#221E26"/>
<path d="M189.291 21.2982C189.291 19.7552 189.291 18.4379 189.291 16.9701C190.307 16.9325 191.286 16.8572 192.377 16.8196C192.377 15.0883 192.377 13.47 192.377 11.7764C194.108 11.7764 195.651 11.7764 197.383 11.7764C197.383 13.47 197.383 15.0883 197.383 16.8572C198.738 16.8572 199.942 16.8572 201.222 16.8572C201.222 18.3626 201.222 19.6799 201.222 21.2606C200.017 21.2606 198.775 21.2606 197.458 21.2606C197.458 24.4596 197.345 27.4329 197.496 30.4061C197.571 31.9115 198.587 32.2126 200.92 31.6481C201.109 32.3255 201.334 33.0406 201.523 33.7557C202.012 35.5622 201.974 35.8257 200.168 36.1644C198.775 36.4278 197.27 36.5031 195.84 36.2773C193.582 35.9009 192.34 34.1697 192.302 31.6857C192.264 28.7878 192.227 25.8898 192.34 22.9918C192.377 21.637 192.001 21.1101 190.608 21.2982C190.27 21.3359 189.856 21.2982 189.291 21.2982Z" fill="#221E26"/>
<path d="M83.0454 20.8478C81.5776 21.3747 80.1851 21.6382 79.056 22.3156C78.4538 22.692 78.0022 23.7458 77.9645 24.5361C77.8516 27.8104 77.9269 31.0848 77.9269 34.3591C77.9269 34.8483 77.9269 35.3752 77.9269 35.9774C76.1957 35.9774 74.6526 35.9774 72.959 35.9774C72.959 29.6546 72.959 23.4447 72.959 17.0466C74.5773 17.0466 76.158 17.0466 77.8516 17.0466C77.8893 17.6864 77.9269 18.2886 78.0022 19.0789C79.5829 17.837 80.8249 16.2186 83.0454 16.5573C83.0454 18.1004 83.0454 19.6058 83.0454 20.8478Z" fill="#221E26"/>
<path d="M241.616 36.3619H207.373C214.222 35.1708 226.02 24.8236 233.613 18.124C238.675 13.6576 242.05 15.3945 243.104 16.8213C245.784 19.0545 243.228 30.7788 241.616 36.3619Z" fill="#221E26"/>
<path d="M228.217 5.58301C222.858 18.5356 212.709 29.3418 208.305 33.1259C219.322 29.4039 232.001 15.0741 236.964 8.37452C237.411 7.92788 237.398 7.31995 237.336 7.07182C237.039 6.32741 235.848 2.0471 235.289 0C234.843 0.297761 231.257 2.72947 229.52 3.90811C228.903 4.3269 228.404 5.08674 228.217 5.58301Z" fill="#221E26"/>
</svg>
