<svg width="215" height="42" viewBox="0 0 215 42" fill="none" xmlns="http://www.w3.org/2000/svg">
<g clip-path="url(#clip0_949_298)">
<path d="M6.28042 32.4672C3.22325 30.62 0 27.1879 0 20.9441C0 9.07692 11.6037 7.28613 11.6037 7.28613C11.6037 7.28613 1.94521 10.5406 1.94521 20.9441C1.94521 26.1021 4.33239 29.4778 6.73646 31.576" fill="#221E26"/>
<path d="M21.6291 10.9872C20.8634 10.9872 20.2441 11.6076 20.2441 12.3747C20.2441 13.1361 20.8634 13.7565 21.6291 13.7565C22.3948 13.7565 23.017 13.1361 23.017 12.3747C23.017 11.6076 22.3948 10.9872 21.6291 10.9872ZM23.7967 12.3747C23.7967 13.5704 22.8255 14.5405 21.6291 14.5405C20.4327 14.5405 19.4615 13.5704 19.4615 12.3747C19.4615 11.1761 20.4327 10.206 21.6291 10.206C22.8255 10.206 23.7967 11.1761 23.7967 12.3747ZM9.73828 28.1505L10.0648 28.4382C10.0648 28.4382 14.3325 24.7748 15.4303 21.213C15.4303 21.213 19.5516 16.8418 20.5763 14.9777C20.5763 14.9777 22.5243 15.6771 23.7686 13.8722C24.8608 12.2872 24.3147 11.0774 23.4983 10.0509C23.4983 10.0509 25.8855 5.23971 26.0741 3.45174C26.0741 3.45174 16.3593 10.6798 11.889 23.7793C11.889 23.7793 14.6449 20.4628 15.3628 19.8875C15.3628 19.8875 13.8736 24.3434 9.73828 28.1505ZM10.2281 25.7055C10.2281 25.7055 14.6844 7.5071 29.2636 0.273438C29.2636 0.273438 28.7118 14.831 12.3197 27.155L10.2281 25.7055Z" fill="#221E26"/>
<path d="M18.7232 26.3856C18.7232 26.3856 20.2068 24.9473 20.5812 24.7443C20.9556 24.5384 18.4642 30.9965 14.6836 33.7433L14.236 33.5516C14.236 33.5516 14.8384 31.9666 15.1199 31.4365L14.084 25.9287L17.9097 22.1074L18.7232 26.3856Z" fill="#221E26"/>
<path d="M8.81033 19.366C8.81033 19.366 9.64077 17.4737 9.7027 17.0507C9.76745 16.6277 4.57928 21.2019 3.3125 25.7085L3.64749 26.0639C3.64749 26.0639 4.92553 24.9471 5.32527 24.4987L10.84 23.568L13.0949 18.6497L8.81033 19.366Z" fill="#221E26"/>
<path d="M6.98225 32.8647C7.18493 32.6955 7.39044 32.4924 7.59312 32.2724L6.98225 32.8647ZM7.59312 32.2724C8.5981 31.1867 9.53552 29.6666 9.72413 29.331C9.96059 28.9165 9.76917 28.7783 9.76917 28.7783C9.76917 28.7783 9.34972 28.5075 9.16111 28.437C8.98095 28.3609 7.71417 29.5707 6.52058 31.9989C5.32136 34.427 3.11435 37.7463 3.11435 37.7463C4.03769 36.7339 5.61413 33.9335 6.85276 32.969C6.89498 32.9352 6.94002 32.9013 6.98225 32.8647M11.2471 26.9452C11.4357 27.2357 11.4075 28.1578 11.4075 28.1578C11.309 28.9616 10.6447 31.1049 8.8599 33.0705C8.55024 33.4118 8.2068 33.7474 7.82677 34.0717C5.25661 36.2545 2.0784 38.677 0.40625 41.5281C0.40625 41.5281 3.53379 36.9905 4.51625 33.0931C5.49589 29.1928 9.36943 26.2091 10.1154 26.3896C10.1154 26.3896 11.0585 26.6491 11.2471 26.9452Z" fill="#221E26"/>
<path d="M21.618 13.1417C21.618 13.1417 20.5482 13.1953 20.6721 12.1688C20.8016 11.1479 21.9248 11.4919 21.9304 11.5173L21.9417 11.5455C21.9417 11.5455 21.0944 11.4891 21.0071 12.2111C20.9198 12.933 21.618 13.1417 21.618 13.1417Z" fill="#221E26"/>
<path d="M43.8465 20.8956L41.7071 15.4556L39.5395 20.8956H43.8465ZM39.182 9.13281H44.3138L52.486 28.5072H46.7826L45.4089 25.0441H37.9771L36.6062 28.5072H31.0352L39.182 9.13281Z" fill="#221E26"/>
<path d="M61.0451 13.9718V23.7831H63.2127C66.4219 23.7831 68.5332 22.0233 68.5332 18.9183V18.8619C68.5332 15.7851 66.4219 13.9718 63.2127 13.9718H61.0451ZM55.7246 9.27344H63.1564C69.9886 9.27344 73.9634 13.2301 73.9634 18.7801V18.8365C73.9634 24.3866 69.9323 28.5096 63.0466 28.5096H55.7246V9.27344Z" fill="#221E26"/>
<path d="M122.925 18.9453V18.8889C122.925 16.0885 120.952 13.697 118.016 13.697C115.079 13.697 113.131 16.0603 113.131 18.8353V18.8889C113.131 21.6667 115.136 24.0836 118.069 24.0836C120.977 24.0836 122.925 21.7203 122.925 18.9453ZM107.701 18.9453V18.8889C107.701 13.3671 112.146 8.88867 118.069 8.88867C123.995 8.88867 128.383 13.3107 128.383 18.8353V18.8889C128.383 24.4136 123.941 28.8919 118.016 28.8919C112.09 28.8919 107.701 24.47 107.701 18.9453Z" fill="#221E26"/>
<path d="M132.5 9.27246H137.82V23.8357H147.121V28.5087H132.5V9.27246Z" fill="#221E26"/>
<path d="M164.294 18.9453V18.8889C164.294 16.0885 162.318 13.697 159.385 13.697C156.449 13.697 154.501 16.0603 154.501 18.8353V18.8889C154.501 21.6667 156.505 24.0836 159.438 24.0836C162.346 24.0836 164.294 21.7203 164.294 18.9453ZM149.07 18.9453V18.8889C149.07 13.3671 153.515 8.88867 159.438 8.88867C165.364 8.88867 169.753 13.3107 169.753 18.8353V18.8889C169.753 24.4136 165.31 28.8919 159.385 28.8919C153.459 28.8919 149.07 24.47 149.07 18.9453Z" fill="#221E26"/>
<path d="M173.865 9.27246H178.831L186.73 19.4391V9.27246H191.997V28.5087H187.361L179.132 17.9557V28.5087H173.865V9.27246Z" fill="#221E26"/>
<path d="M202.342 21.3079L195.018 9.27148H201.081L205.031 16.2795L209.008 9.27148H214.96L207.663 21.2261V28.5077H202.342V21.3079Z" fill="#221E26"/>
<path d="M78.7441 19.0139V18.9377C78.7441 11.0498 84.7628 4.86523 92.9433 4.86523C98.4637 4.86523 102.014 7.18621 104.406 10.4717L98.7705 14.8401C97.2279 12.9449 95.4516 11.6702 92.8673 11.6702C89.0867 11.6702 86.4237 14.9162 86.4237 18.8588V18.9377C86.4237 22.9959 89.0867 26.1658 92.8673 26.1658C95.6852 26.1658 97.3433 24.8516 98.9648 22.8803L104.598 26.899C102.05 30.4186 98.6157 33.0074 92.6731 33.0074C84.957 33.0074 78.7441 27.0936 78.7441 19.0139Z" fill="#221E26"/>
</g>
<defs>
<clipPath id="clip0_949_298">
<rect width="214.959" height="41.2547" fill="white" transform="translate(0 0.273438)"/>
</clipPath>
</defs>
</svg>
