<svg width="211" height="57" viewBox="0 0 211 57" fill="none" xmlns="http://www.w3.org/2000/svg">
<g clip-path="url(#clip0_949_189)">
<path d="M47.2423 44.9196L38.064 29.6802H31.9682V49.1798H17.6986C11.6374 49.1798 6.75385 44.2616 6.75385 38.2351C6.75385 32.1739 11.672 27.2903 17.6986 27.2903C18.5991 27.2903 19.4996 27.3943 20.3308 27.6021C18.703 25.4547 17.7332 22.7878 17.7332 19.8784C17.7332 12.8129 23.4826 7.06342 30.5482 7.06342C37.6138 7.06342 43.3632 12.8129 43.3632 19.8784C43.3632 20.7097 43.2939 21.5409 43.1208 22.3375C44.5062 21.0907 46.3765 20.2941 48.4199 20.2941C51.641 20.2941 54.4464 22.2336 55.6587 25.0391H61.9623C60.5769 19.1857 55.5201 14.7178 49.3204 14.3368C46.9306 6.23218 39.4494 0.30957 30.5482 0.30957C19.742 0.30957 10.9793 9.07226 10.9793 19.8784C10.9793 20.5019 11.014 21.1599 11.0832 21.7834C4.57184 24.4503 0 30.8231 0 38.3043C0 48.1753 8.00072 56.1414 17.8371 56.1414H38.7914V42.4605L45.4759 53.4745H48.7663L55.4855 42.0796L55.5548 56.1414H62.3433L62.274 29.6802H56.1782L47.2423 44.9196Z" fill="#221E26"/>
<path d="M91.2641 32.4504C89.948 31.2035 88.3894 30.2337 86.623 29.541C84.822 28.8483 82.8824 28.502 80.735 28.502C78.6223 28.502 76.6481 28.8483 74.8471 29.541C73.046 30.2337 71.4875 31.2035 70.1713 32.4504C68.8552 33.6972 67.8161 35.1519 67.0888 36.849C66.3615 38.5115 65.9805 40.3472 65.9805 42.356C65.9805 44.3649 66.3615 46.2005 67.0888 47.863C67.8161 49.5255 68.8552 50.9802 70.1713 52.2617C71.4875 53.5085 73.046 54.4783 74.8471 55.171C76.6481 55.8637 78.5877 56.2101 80.735 56.2101C82.8824 56.2101 84.8566 55.8637 86.623 55.171C88.424 54.4783 89.948 53.5432 91.2641 52.2963C92.5803 51.0494 93.6193 49.5948 94.3467 47.8976C95.1086 46.2005 95.455 44.3649 95.455 42.3906C95.455 40.3818 95.074 38.5461 94.3467 36.8837C93.6193 35.1519 92.5803 33.6972 91.2641 32.4504ZM87.3504 45.4385C86.9694 46.3737 86.4845 47.1703 85.8264 47.863C85.1683 48.5211 84.4064 49.0406 83.5405 49.3869C82.6746 49.7333 81.7395 49.9065 80.7004 49.9065C79.696 49.9065 78.7608 49.7333 77.8603 49.3869C76.9944 49.0406 76.2325 48.5211 75.5744 47.863C74.9163 47.2049 74.4314 46.3737 74.0505 45.4385C73.6695 44.5034 73.4963 43.4643 73.4963 42.3214C73.4963 41.1438 73.6695 40.1047 74.0505 39.2042C74.4314 38.2691 74.9163 37.4725 75.5744 36.8144C76.2325 36.1563 76.9944 35.6368 77.8603 35.2904C78.7262 34.9441 79.6614 34.7709 80.7004 34.7709C81.7048 34.7709 82.64 34.9441 83.5405 35.2904C84.4064 35.6368 85.1683 36.1563 85.8264 36.8144C86.4845 37.4725 86.9694 38.2691 87.3504 39.2042C87.7313 40.1394 87.9045 41.1784 87.9045 42.3214C87.9045 43.4643 87.7313 44.5034 87.3504 45.4385Z" fill="#221E26"/>
<path d="M106.85 29.5762H99.334V56.1413H119.526V50.1841H106.85V29.5762Z" fill="#221E26"/>
<path d="M146.403 32.4513C145.087 31.2045 143.528 30.2347 141.762 29.542C139.961 28.8493 138.021 28.5029 135.874 28.5029C133.761 28.5029 131.787 28.8493 129.986 29.542C128.185 30.2347 126.626 31.2045 125.31 32.4513C123.994 33.6982 122.955 35.1529 122.227 36.85C121.5 38.5125 121.119 40.3482 121.119 42.357C121.119 44.3658 121.5 46.2015 122.227 47.864C122.955 49.5265 123.994 50.9811 125.31 52.2626C126.626 53.5095 128.185 54.4793 129.986 55.172C131.787 55.8647 133.726 56.211 135.874 56.211C138.021 56.211 139.995 55.8647 141.762 55.172C143.563 54.4793 145.087 53.5441 146.403 52.2973C147.719 51.0504 148.758 49.5957 149.485 47.8986C150.247 46.2015 150.594 44.3658 150.594 42.3916C150.594 40.3828 150.213 38.5471 149.485 36.8846C148.758 35.1529 147.719 33.6982 146.403 32.4513ZM142.489 45.4395C142.108 46.3747 141.623 47.1713 140.965 47.864C140.307 48.522 139.545 49.0416 138.679 49.3879C137.813 49.7343 136.878 49.9074 135.839 49.9074C134.835 49.9074 133.9 49.7343 132.999 49.3879C132.133 49.0416 131.371 48.522 130.713 47.864C130.055 47.2059 129.57 46.3747 129.189 45.4395C128.808 44.5044 128.635 43.4653 128.635 42.3224C128.635 41.1448 128.808 40.1057 129.189 39.2052C129.57 38.27 130.055 37.4734 130.713 36.8154C131.371 36.1573 132.133 35.6378 132.999 35.2914C133.865 34.9451 134.8 34.7719 135.839 34.7719C136.843 34.7719 137.779 34.9451 138.679 35.2914C139.545 35.6378 140.307 36.1573 140.965 36.8154C141.623 37.4734 142.108 38.27 142.489 39.2052C142.87 40.1403 143.043 41.1794 143.043 42.3224C143.009 43.4653 142.835 44.5044 142.489 45.4395Z" fill="#221E26"/>
<path d="M163.306 36.8154C163.964 36.1574 164.726 35.6378 165.626 35.2915C166.527 34.9451 167.531 34.772 168.64 34.772C169.921 34.772 171.064 35.049 172.068 35.5686C173.108 36.0881 174.043 36.8847 174.909 37.8891L179.688 33.5597C178.407 31.9319 176.779 30.685 174.839 29.8538C172.9 28.9879 170.718 28.5723 168.259 28.5723C166.146 28.5723 164.206 28.9186 162.44 29.5767C160.674 30.2348 159.115 31.2045 157.799 32.4514C156.483 33.6983 155.478 35.1529 154.751 36.8501C154.024 38.5472 153.643 40.3828 153.643 42.4263C153.643 44.4352 154.024 46.3055 154.751 48.0026C155.478 49.6997 156.517 51.1544 157.799 52.4012C159.115 53.6481 160.639 54.5833 162.44 55.276C164.241 55.934 166.18 56.2804 168.259 56.2804C170.718 56.2804 172.9 55.8301 174.839 54.9642C176.779 54.0984 178.372 52.8515 179.688 51.2583L174.909 46.825C174.043 47.8294 173.108 48.626 172.068 49.1455C171.029 49.6651 169.886 49.9422 168.64 49.9422C167.566 49.9422 166.561 49.769 165.626 49.4226C164.726 49.0763 163.929 48.5567 163.306 47.8987C162.648 47.2406 162.163 46.4094 161.782 45.4742C161.401 44.5391 161.228 43.5 161.228 42.3571C161.228 41.2141 161.401 40.175 161.782 39.2399C162.163 38.2701 162.648 37.4735 163.306 36.8154Z" fill="#221E26"/>
<path d="M209.509 36.8148C208.747 35.1524 207.742 33.6977 206.426 32.4162C205.11 31.1347 203.552 30.1995 201.785 29.5068C199.984 28.8141 198.045 28.4678 195.897 28.4678C193.784 28.4678 191.81 28.8141 190.009 29.5068C188.208 30.1995 186.65 31.1693 185.333 32.4162C184.017 33.663 182.978 35.1177 182.251 36.8148C181.524 38.4773 181.143 40.313 181.143 42.3218C181.143 44.3307 181.524 46.1663 182.251 47.8288C182.978 49.4913 184.017 50.946 185.333 52.2275C186.65 53.4743 188.208 54.4441 190.009 55.1368C191.81 55.8295 193.75 56.1759 195.897 56.1759C198.045 56.1759 200.019 55.8295 201.785 55.1368C203.586 54.4441 205.11 53.509 206.426 52.2621C207.742 51.0153 208.781 49.5606 209.509 47.8635C210.271 46.1663 210.617 44.3307 210.617 42.3565C210.617 40.3476 210.236 38.512 209.509 36.8148ZM202.478 45.439C202.097 46.3741 201.612 47.1708 200.954 47.8635C200.296 48.5215 199.534 49.041 198.668 49.3874C197.802 49.7337 196.867 49.9069 195.828 49.9069C194.823 49.9069 193.888 49.7337 192.988 49.3874C192.122 49.041 191.36 48.5215 190.702 47.8635C190.044 47.2054 189.559 46.3741 189.178 45.439C188.797 44.5038 188.624 43.4648 188.624 42.3218C188.624 41.1442 188.797 40.1052 189.178 39.2047C189.559 38.2695 190.044 37.4729 190.702 36.8148C191.36 36.1568 192.122 35.6372 192.988 35.2909C193.854 34.9445 194.789 34.7714 195.828 34.7714C196.832 34.7714 197.767 34.9445 198.668 35.2909C199.534 35.6372 200.296 36.1568 200.954 36.8148C201.612 37.4729 202.097 38.2695 202.478 39.2047C202.859 40.1398 203.032 41.1789 203.032 42.3218C203.032 43.4648 202.859 44.5038 202.478 45.439Z" fill="#221E26"/>
</g>
<defs>
<clipPath id="clip0_949_189">
<rect width="210.616" height="55.8319" fill="white" transform="translate(0 0.30957)"/>
</clipPath>
</defs>
</svg>
