<svg width="126" height="29" viewBox="0 0 126 29" fill="none" xmlns="http://www.w3.org/2000/svg">
<g clip-path="url(#clip0_949_314)">
<path d="M0.996094 0.709961H21.8583L19.9429 6.68894H14.5332V28.5007H7.76466V6.68894H1.00904L0.996094 0.709961Z" fill="#221E26"/>
<path d="M56.0254 0.709961H77.3664L75.451 6.68894H69.5755V28.5007H62.8198V6.68894H56.0383L56.0254 0.709961Z" fill="#221E26"/>
<path d="M23.125 9.5498H29.8159V28.5003H23.1768L23.125 9.5498Z" fill="#221E26"/>
<path d="M32.4707 0.632812H39.1487V13.5787L45.7749 7.1635H53.747L45.3737 15.221L54.7565 28.5005H47.3926L41.1288 19.2754L39.1487 21.1743V28.5005H32.4707V0.632812Z" fill="#221E26"/>
<path d="M103.25 0.632812H110.006V13.5787L116.619 7.1635H124.591L116.218 15.221L125.536 28.5005H118.172L111.921 19.2754L110.006 21.1743V28.5005H103.315L103.25 0.632812Z" fill="#221E26"/>
<path d="M26.4762 7.38178C28.3346 7.38178 29.8411 5.88824 29.8411 4.04587C29.8411 2.2035 28.3346 0.709961 26.4762 0.709961C24.6178 0.709961 23.1113 2.2035 23.1113 4.04587C23.1113 5.88824 24.6178 7.38178 26.4762 7.38178Z" fill="#221E26"/>
<path d="M76.4453 17.159C76.4473 11.5726 80.5148 6.86965 85.9617 5.92691C79.996 6.3251 75.3522 11.2401 75.3522 17.1783C75.3522 23.1165 79.9959 28.0315 85.9616 28.4297C80.5006 27.4845 76.4281 22.7602 76.4453 17.159ZM76.4453 17.159C76.4453 17.1589 76.4453 17.1589 76.4453 17.1589L76.5104 17.1591L76.4453 17.159C76.4453 17.159 76.4453 17.159 76.4453 17.159Z" stroke="#221E26" stroke-width="0.130207"/>
<path d="M89.723 5.80552C95.9761 5.84026 101.033 10.8763 101.033 17.0823C101.033 23.3021 95.9537 28.3466 89.6816 28.3593C95.1395 27.4215 99.2124 22.7115 99.2124 17.1208C99.2124 11.5301 95.1395 6.82001 89.6815 5.88232H89.723V5.81722V5.80552Z" stroke="#221E26" stroke-width="0.130207"/>
<path d="M87.8468 22.6756C84.7734 22.6756 82.2818 20.2055 82.2818 17.1585C82.2818 14.1115 84.7734 11.6414 87.8468 11.6414C90.9203 11.6414 93.4118 14.1115 93.4118 17.1585C93.4047 20.2026 90.9173 22.6685 87.8468 22.6756ZM87.8468 5.81641C81.5284 5.81641 76.4062 10.8944 76.4062 17.1585C76.4062 23.4226 81.5284 28.5006 87.8468 28.5006C94.1653 28.5006 99.2874 23.4226 99.2874 17.1585C99.2874 14.1504 98.082 11.2655 95.9365 9.13843C93.791 7.01137 90.881 5.81641 87.8468 5.81641Z" fill="#221E26"/>
</g>
<defs>
<clipPath id="clip0_949_314">
<rect width="125.536" height="28.2269" fill="white" transform="translate(0 0.273438)"/>
</clipPath>
</defs>
</svg>
