<svg width="171" height="56" viewBox="0 0 171 56" fill="none" xmlns="http://www.w3.org/2000/svg">
<path d="M66.2717 29.1082C72.2127 27.8184 71.4017 20.6359 71.2277 19.0665C70.9348 16.6457 68.1192 12.4184 64.2985 12.7562C59.4881 13.1892 58.786 20.2106 58.786 20.2106C58.1344 23.4618 60.3406 30.4011 66.2717 29.1082ZM77.3044 17.0679C80.5839 17.0679 83.2347 13.2488 83.2347 8.53122C83.2347 3.81282 80.5839 0 77.3044 0C74.0234 0 71.3657 3.81282 71.3657 8.53122C71.3657 13.2488 74.0226 17.0679 77.3044 17.0679ZM91.4433 17.6295C95.8336 18.2105 98.6462 13.4781 99.2089 9.89227C99.7838 6.31107 96.9474 2.14578 93.8466 1.43078C90.7319 0.707255 86.8438 5.74558 86.4935 9.03241C86.0665 13.0528 87.0577 17.0617 91.4433 17.6295ZM108.829 23.6539C108.829 21.9389 107.424 16.7688 102.191 16.7688C96.9474 16.7688 96.2544 21.6476 96.2544 25.0948C96.2544 28.3847 96.5258 32.9737 103.037 32.8312C109.542 32.6856 108.829 25.3806 108.829 23.6539ZM102.191 38.71C102.191 38.71 95.4043 33.4052 91.4433 27.6697C86.065 19.2129 78.4343 22.657 75.8831 26.9516C73.3396 31.2571 69.3856 33.9761 68.8198 34.6981C68.2487 35.4054 60.6235 39.5691 62.3153 47.1723C64.011 54.7693 69.9574 54.6252 69.9574 54.6252C69.9574 54.6252 74.34 55.0582 79.4225 53.9094C84.5157 52.7637 88.8975 54.1906 88.8975 54.1906C88.8975 54.1906 100.778 58.2165 104.025 50.47C107.275 42.7297 102.191 38.71 102.191 38.71Z" fill="#221E26"/>
<path d="M78.3598 31.3145V36.4178H74.2448C74.2448 36.4178 70.1321 36.7626 68.6924 41.4732C68.1903 44.6183 69.1355 46.4705 69.3003 46.8663C69.4667 47.2614 70.7959 49.5621 74.1336 50.2376H81.8555V31.3702L78.3598 31.3145ZM78.2977 47.1405H75.1869C75.1869 47.1405 73.0198 47.0267 72.3598 44.5052C72.0194 43.3881 72.4103 42.0976 72.5821 41.5902C72.7392 41.082 73.4667 39.9076 74.9669 39.4552H78.297L78.2977 47.1405Z" fill="white"/>
<path d="M83.7461 36.8753V46.8094C83.7461 46.8094 83.9071 49.2813 87.3567 50.1822H96.243V36.8737H92.4078V46.8644H88.7481C88.7481 46.8644 87.5783 46.6924 87.3583 45.7427V36.8164L83.7461 36.8753Z" fill="white"/>
<path d="M138.583 30.3528V26.165H111.283L111.248 30.4148H122.984L121.884 32.9564H111.903V53.9719H135.612C138.091 53.9719 137.871 51.4419 137.871 51.4419V32.9572H127.875L128.754 30.3551H138.582V30.3528H138.583ZM133.281 49.4851C133.281 49.4851 132.994 50.1831 132.588 50.1831H116.855V45.2811H133.284L133.281 49.4851ZM133.254 41.2327H116.853V36.636H133.254V41.2327Z" fill="#221E26"/>
<path d="M169.776 26.2774H159.064V24.1572H154.041V26.1729H141.754V53.9293H146.175V29.7533H169.776V26.2774ZM166.886 32.0222V30.4156H162.568V32.0222H153.684V30.4729H149.594V32.0222H146.83L146.885 35.1665H149.594V41.0717H164.536C166.61 41.0717 166.884 38.8609 166.884 38.8609V35.165H170.046V32.0199H166.885L166.886 32.0222ZM162.568 37.3131C162.568 37.3131 162.183 38.0289 161.69 38.0289H153.637V35.1046H162.566V37.3147H162.568V37.3131ZM147.434 45.3749L154.312 49.4062C153.767 50.0112 151.418 50.7796 151.418 50.7796H146.833V53.8782H153.059C154.917 53.494 158.356 51.7278 158.356 51.7278C159.779 53.0486 162.515 53.5986 162.515 53.5986H169.612V50.5077H164.262C162.82 50.29 161.525 49.4588 161.525 49.4588L169.613 44.766V42.2252H147.436V45.3733L147.434 45.3749ZM161.746 45.323L157.812 47.42L154.206 45.323H161.746Z" fill="#221E26"/>
<path d="M50.5391 30.6974H56.4977V25.3926H50.5391V30.6974ZM50.5391 53.8168H56.4977V33.0082H50.5391V53.8168Z" fill="#221E26"/>
<path d="M40.8529 33.0255L28.1398 32.9922V37.3666H39.2875C39.2875 37.3666 41.9407 38.0282 41.9407 39.7293V41.2701H31.8532C31.8532 41.2701 27.8861 41.6404 26.612 46.4285C26.3928 48.6719 26.6848 49.7734 26.8343 50.1824C26.9777 50.5876 28.1398 53.233 31.5994 53.8938H47.6617V38.9872C47.6617 38.9872 46.8967 33.8722 40.8529 33.0255ZM41.9407 49.7757H33.8225C32.7317 49.3311 32.3683 48.5975 32.2917 48.4116C32.2165 48.2311 31.9636 47.5719 32.2579 46.9057C32.9149 45.6213 34.0035 45.3246 34.0035 45.3246H41.9407V49.7757Z" fill="#221E26"/>
<path d="M25.3004 46.518C25.476 41.451 20.9777 39.6988 20.9777 39.6988C24.7853 37.6862 24.3016 32.6138 24.3016 32.6138C23.8892 24.851 14.5031 25.2136 14.5031 25.2136H0V54.1444H16.3758C25.9927 54.1057 25.3004 46.518 25.3004 46.518ZM16.047 48.7668V48.78H6.23695V42.5378H15.9987L16.3291 42.6052C16.3291 42.6052 18.1865 42.9484 18.8596 44.6364C18.8596 44.6364 19.249 46.2229 18.4081 47.4011C18.4081 47.4011 17.7894 48.4903 16.047 48.7668ZM18.1267 35.353C18.1267 35.353 17.4675 36.5769 15.7181 36.8418H6.23695V30.8546H15.6775C15.6775 30.8546 17.7289 30.7593 18.4081 32.4054C18.4081 32.4054 18.8159 34.1554 18.1267 35.353Z" fill="#221E26"/>
</svg>
