<svg width="215" height="42" viewBox="0 0 215 42" fill="none" xmlns="http://www.w3.org/2000/svg">
<g clip-path="url(#clip0_949_282)">
<path d="M6.28042 32.1938C3.22325 30.3466 0 26.9144 0 20.6706C0 8.80349 11.6037 7.0127 11.6037 7.0127C11.6037 7.0127 1.94521 10.2671 1.94521 20.6706C1.94521 25.8287 4.33239 29.2044 6.73646 31.3026" fill="#221E26"/>
<path d="M21.6291 10.7137C20.8634 10.7137 20.2441 11.3342 20.2441 12.1012C20.2441 12.8627 20.8634 13.4831 21.6291 13.4831C22.3948 13.4831 23.017 12.8627 23.017 12.1012C23.017 11.3342 22.3948 10.7137 21.6291 10.7137ZM23.7967 12.1012C23.7967 13.297 22.8255 14.2671 21.6291 14.2671C20.4327 14.2671 19.4615 13.297 19.4615 12.1012C19.4615 10.9027 20.4327 9.93254 21.6291 9.93254C22.8255 9.93254 23.7967 10.9027 23.7967 12.1012ZM9.73828 27.8771L10.0648 28.1648C10.0648 28.1648 14.3325 24.5014 15.4303 20.9396C15.4303 20.9396 19.5516 16.5683 20.5763 14.7042C20.5763 14.7042 22.5243 15.4036 23.7686 13.5987C24.8608 12.0138 24.3147 10.804 23.4983 9.77743C23.4983 9.77743 25.8855 4.96627 26.0741 3.1783C26.0741 3.1783 16.3593 10.4063 11.889 23.5059C11.889 23.5059 14.6449 20.1894 15.3628 19.6141C15.3628 19.6141 13.8736 24.0699 9.73828 27.8771ZM10.2281 25.432C10.2281 25.432 14.6844 7.23367 29.2636 0C29.2636 0 28.7118 14.5576 12.3197 26.8816L10.2281 25.432Z" fill="#221E26"/>
<path d="M18.7232 26.1121C18.7232 26.1121 20.2068 24.6739 20.5812 24.4708C20.9556 24.2649 18.4642 30.7231 14.6836 33.4699L14.236 33.2781C14.236 33.2781 14.8384 31.6932 15.1199 31.163L14.084 25.6553L17.9097 21.834L18.7232 26.1121Z" fill="#221E26"/>
<path d="M8.81033 19.0916C8.81033 19.0916 9.64077 17.1993 9.7027 16.7763C9.76745 16.3533 4.57928 20.9275 3.3125 25.4341L3.64749 25.7895C3.64749 25.7895 4.92553 24.6727 5.32527 24.2243L10.84 23.2936L13.0949 18.3753L8.81033 19.0916Z" fill="#221E26"/>
<path d="M6.9842 32.5912C7.18689 32.422 7.39239 32.219 7.59507 31.999L6.9842 32.5912ZM7.59507 31.999C8.60005 30.9132 9.53747 29.3932 9.72608 29.0576C9.96255 28.643 9.77112 28.5048 9.77112 28.5048C9.77112 28.5048 9.35168 28.2341 9.16307 28.1636C8.9829 28.0875 7.71612 29.2973 6.52253 31.7254C5.32331 34.1536 3.1163 37.4729 3.1163 37.4729C4.03964 36.4605 5.61608 33.6601 6.85471 32.6956C6.89694 32.6617 6.94198 32.6279 6.9842 32.5912M11.249 26.6717C11.4376 26.9622 11.4095 27.8844 11.4095 27.8844C11.311 28.6881 10.6466 30.8315 8.86185 32.7971C8.5522 33.1383 8.20876 33.4739 7.82872 33.7982C5.25857 35.981 2.08035 38.4035 0.408203 41.2547C0.408203 41.2547 3.53574 36.7171 4.5182 32.8197C5.49785 28.9194 9.37138 25.9357 10.1174 26.1162C10.1174 26.1162 11.0604 26.3756 11.249 26.6717Z" fill="#221E26"/>
<path d="M21.618 12.8683C21.618 12.8683 20.5482 12.9219 20.6721 11.8953C20.8016 10.8744 21.9248 11.2185 21.9304 11.2439L21.9417 11.2721C21.9417 11.2721 21.0944 11.2157 21.0071 11.9376C20.9198 12.6596 21.618 12.8683 21.618 12.8683Z" fill="#221E26"/>
<path d="M43.8465 20.6222L41.7071 15.1821L39.5395 20.6222H43.8465ZM39.182 8.85938H44.3138L52.486 28.2338H46.7826L45.4089 24.7706H37.9771L36.6062 28.2338H31.0352L39.182 8.85938Z" fill="#221E26"/>
<path d="M61.0451 13.6974V23.5087H63.2127C66.4219 23.5087 68.5332 21.7489 68.5332 18.6439V18.5875C68.5332 15.5107 66.4219 13.6974 63.2127 13.6974H61.0451ZM55.7246 8.99902H63.1564C69.9886 8.99902 73.9634 12.9557 73.9634 18.5057V18.5621C73.9634 24.1122 69.9323 28.2352 63.0466 28.2352H55.7246V8.99902Z" fill="#221E26"/>
<path d="M122.925 18.6719V18.6155C122.925 15.8151 120.952 13.4236 118.016 13.4236C115.079 13.4236 113.131 15.7869 113.131 18.5619V18.6155C113.131 21.3933 115.136 23.8102 118.069 23.8102C120.977 23.8102 122.925 21.4469 122.925 18.6719ZM107.701 18.6719V18.6155C107.701 13.0936 112.146 8.61523 118.069 8.61523C123.995 8.61523 128.383 13.0372 128.383 18.5619V18.6155C128.383 24.1401 123.941 28.6185 118.016 28.6185C112.09 28.6185 107.701 24.1965 107.701 18.6719Z" fill="#221E26"/>
<path d="M132.5 8.99902H137.82V23.5622H147.121V28.2352H132.5V8.99902Z" fill="#221E26"/>
<path d="M164.292 18.6719V18.6155C164.292 15.8151 162.316 13.4236 159.383 13.4236C156.447 13.4236 154.499 15.7869 154.499 18.5619V18.6155C154.499 21.3933 156.503 23.8102 159.436 23.8102C162.344 23.8102 164.292 21.4469 164.292 18.6719ZM149.068 18.6719V18.6155C149.068 13.0936 153.513 8.61523 159.436 8.61523C165.362 8.61523 169.751 13.0372 169.751 18.5619V18.6155C169.751 24.1401 165.308 28.6185 159.383 28.6185C153.457 28.6185 149.068 24.1965 149.068 18.6719Z" fill="#221E26"/>
<path d="M173.865 8.99902H178.831L186.73 19.1656V8.99902H191.997V28.2352H187.361L179.132 17.6822V28.2352H173.865V8.99902Z" fill="#221E26"/>
<path d="M202.342 21.0344L195.018 8.99805H201.081L205.031 16.0061L209.008 8.99805H214.96L207.663 20.9526V28.2342H202.342V21.0344Z" fill="#221E26"/>
<path d="M78.7441 18.7405V18.6643C78.7441 10.7764 84.7628 4.5918 92.9433 4.5918C98.4637 4.5918 102.014 6.91277 104.406 10.1982L98.7705 14.5666C97.2279 12.6715 95.4516 11.3968 92.8673 11.3968C89.0867 11.3968 86.4237 14.6428 86.4237 18.5853V18.6643C86.4237 22.7225 89.0867 25.8923 92.8673 25.8923C95.6852 25.8923 97.3433 24.5782 98.9648 22.6069L104.598 26.6256C102.05 30.1451 98.6157 32.734 92.6731 32.734C84.957 32.734 78.7441 26.8202 78.7441 18.7405Z" fill="#221E26"/>
</g>
<defs>
<clipPath id="clip0_949_282">
<rect width="214.959" height="41.2547" fill="white"/>
</clipPath>
</defs>
</svg>
