<svg width="170" height="65" viewBox="0 0 170 65" fill="none" xmlns="http://www.w3.org/2000/svg">
<path d="M69.6914 34.8286V16.6801H77.0888V35.0955C77.0888 38.1647 78.6462 40.1663 82.28 40.1663C85.6542 40.1663 87.3413 38.0312 87.3413 34.962V16.6801H94.7387V34.8286C94.7387 41.9011 90.5858 46.1714 82.28 46.1714C73.8443 46.3048 69.6914 42.0346 69.6914 34.8286ZM98.113 23.6192H104.732V26.6884H104.862C106.419 24.2864 108.495 23.0854 111.48 23.0854C116.152 23.0854 118.878 26.555 118.878 31.4924V45.771H111.999V32.8269C111.999 30.5583 110.831 28.957 108.625 28.957C106.419 28.957 104.862 30.9587 104.862 33.6276V45.771H97.9832V23.6192H98.113ZM122.382 14.9453H129.26V20.6834H122.382V14.9453ZM122.382 23.6192H129.26V45.6376H122.382V23.6192ZM134.581 39.8995V29.3573H131.726V23.6192H134.581V16.6801H141.2V23.6192H145.093V29.3573H141.2V38.4316C141.2 40.1663 142.108 40.5667 143.536 40.5667H145.093V45.6376C144.444 45.771 143.146 46.0379 141.329 46.0379C137.436 46.0379 134.581 44.7035 134.581 39.8995ZM149.376 47.5058H151.712C153.658 47.5058 154.567 46.7051 154.567 45.2372C154.567 44.3031 154.178 42.9687 153.269 40.7001L146.91 23.7527H154.048L156.903 33.0938C157.552 35.2289 158.201 38.1647 158.201 38.1647H158.33C158.33 38.1647 158.979 35.2289 159.628 33.0938L162.483 23.7527H169.362L161.964 46.0379C160.277 51.2422 158.201 52.977 153.918 52.977H149.505L149.376 47.5058Z" fill="black"/>
<path d="M55.1561 44.8374V14.9458L29.979 0V11.4762L39.8422 17.3478C40.2315 17.6147 40.2315 18.1485 39.8422 18.2819L28.162 25.221C27.7727 25.4879 27.3834 25.3545 27.1238 25.221L15.4437 18.2819C15.0544 18.1485 15.0544 17.4812 15.4437 17.3478L25.3069 11.4762V0L0 14.9458V44.8374L9.60365 39.0993V27.3561C9.60365 26.9558 10.1228 26.6889 10.3823 26.8224L22.0624 33.7615C22.4518 34.0284 22.5815 34.2953 22.5815 34.6956V48.5738C22.5815 48.9742 22.0624 49.2411 21.8029 49.1076L11.9397 43.2361L2.33602 48.9742L27.5132 64.0534L52.6903 49.1076L43.0866 43.3695L33.2234 49.2411C32.8341 49.508 32.4448 49.2411 32.4448 48.7073V34.829C32.4448 34.4287 32.7043 34.0284 32.9639 33.8949L44.644 26.9558C45.0333 26.6889 45.4227 26.9558 45.4227 27.4896V39.2327L55.1561 44.8374Z" fill="#4C4C4C"/>
<path d="M27.5117 64.0529L52.6888 49.1071L43.0852 43.369L33.222 49.2406C32.8327 49.5075 32.4433 49.2406 32.4433 48.7068V34.8286C32.4433 34.4282 32.7029 34.0279 32.9624 33.8944L44.6425 26.9553C45.0319 26.6884 45.4212 26.9553 45.4212 27.4891V39.2322L55.0249 44.9704V14.9453L27.5117 31.359V64.0529Z" fill="black"/>
<path d="M29.979 0V11.4762L39.8422 17.3478C40.2315 17.6147 40.2315 18.1485 39.8422 18.2819L28.162 25.221C27.7727 25.4879 27.3834 25.3545 27.1238 25.221L15.4437 18.2819C15.0544 18.1485 15.0544 17.4812 15.4437 17.3478L25.3069 11.4762V0L0 14.9458L27.5131 31.3595L55.0263 14.9458L29.979 0Z" fill="#808080"/>
<path d="M21.9327 49.2406L12.0694 43.369L2.4658 49.1071L27.6429 64.0529V31.359L0 14.9453V44.8369L9.60365 39.0988V27.3557C9.60365 26.9553 10.1228 26.6884 10.3823 26.8219L22.0624 33.761C22.4518 34.0279 22.5815 34.2948 22.5815 34.6951V48.5734C22.7113 49.1071 22.322 49.5075 21.9327 49.2406Z" fill="#4C4C4C"/>
</svg>
