<svg width="190" height="30" viewBox="0 0 190 30" fill="none" xmlns="http://www.w3.org/2000/svg">
<path d="M71.1384 23.5051C67.9744 23.6467 65.6371 23.5235 64.133 22.8087C63.1262 22.3401 62.3925 21.2555 62.3303 20.0164C62.2745 18.9689 62.293 18.4262 62.7903 17.8039C63.9029 16.417 66.8122 16.1146 69.8082 16.0038C71.8281 15.9301 74.9176 16.1517 77.1861 16.4107C77.1676 18.5128 77.0244 20.6208 76.5645 21.5392C75.7568 23.1782 72.86 23.4306 71.1384 23.5051ZM82.1716 4.63992C79.337 0.89513 74.2154 -0.232783 68.9006 0.0383709C63.5114 0.315763 59.7507 1.40662 58.7934 1.75519C58.1966 1.968 58.2773 2.46078 58.2714 2.75652C58.2466 3.74903 58.1655 6.3039 58.1655 7.33935C58.1718 7.80167 58.7624 8.01411 59.2534 7.8446C61.2177 7.18194 64.8475 6.11567 67.7632 5.88781C70.9082 5.64748 75.1911 5.88781 76.3658 7.60463C76.9312 8.41809 76.9564 9.66342 77.0248 10.9333C75.0604 10.7609 72.1515 10.5205 69.2613 10.6743C67.0113 10.7913 62.7033 10.9704 60.1614 12.2678C58.0915 13.3154 56.8857 14.2774 56.2389 16.0585C55.7168 17.4884 55.5803 19.2147 55.7416 20.6138C56.1209 23.8188 57.2831 25.4219 58.856 26.5315C61.3298 28.282 64.4564 29.2129 70.9208 29.0709C79.5176 28.8985 81.7861 26.2354 82.9235 24.3369C84.8631 21.119 84.5271 16.0405 84.4712 12.9213C84.4468 11.6272 84.2477 7.37054 82.1716 4.63992Z" fill="#221E26"/>
<path d="M113.225 21.6492C111.696 23.3198 108.924 23.6152 106.649 23.6152C104.374 23.6152 101.611 23.3257 100.082 21.6614C98.5526 19.9849 98.4535 17.692 98.4535 14.7823C98.4535 11.898 98.553 9.6539 100.076 7.98037C101.605 6.31015 104.063 6.02359 106.65 6.02359C109.247 6.02359 111.697 6.31015 113.226 7.98037C114.743 9.65426 114.854 11.898 114.854 14.7823C114.854 17.6799 114.742 19.9849 113.225 21.6492ZM106.649 0.451172C102.31 0.451172 97.981 0.975134 95.2396 3.56376C92.4923 6.14357 91.4355 10.0271 91.4355 14.7823C91.4355 19.5413 92.3802 23.3565 95.1278 25.9396C97.8752 28.5158 102.323 29.1447 106.649 29.1447C110.988 29.1447 115.302 28.6145 118.049 26.038C120.784 23.4486 121.866 19.5409 121.866 14.782C121.866 10.0267 120.908 6.23273 118.16 3.64998C115.426 1.07053 110.988 0.451172 106.649 0.451172Z" fill="#221E26"/>
<path d="M188.979 0.960938H182.837C182.576 0.960938 182.377 1.16458 182.377 1.41115V28.2095C182.377 28.4499 182.576 28.6535 182.837 28.6535H188.979C189.239 28.6535 189.451 28.4499 189.451 28.2095V1.41078C189.451 1.16421 189.239 0.960938 188.979 0.960938Z" fill="#221E26"/>
<path d="M160.444 0.500977C156.242 0.500977 153.569 1.36104 151.953 2.15615H150.834C149.255 1.31774 146.459 0.500977 142.07 0.500977C138.825 0.500977 134.847 0.729201 132.386 2.7047C130.359 4.33493 129.887 6.50453 129.887 10.9677V28.1965C129.887 28.4431 130.098 28.6401 130.359 28.6401H136.488C136.749 28.6401 136.973 28.4431 136.973 28.1965V28.1348C136.973 28.1348 136.973 17.2487 136.973 14.0191C136.973 11.4609 136.861 8.79484 137.433 7.79939C137.893 7.02885 138.589 6.16292 141.92 6.16292C145.899 6.16292 146.831 6.42784 147.452 8.11384C147.602 8.51121 147.676 9.08177 147.713 9.77525V15.4926V28.1968C147.713 28.4434 147.925 28.6405 148.186 28.6405H154.315H154.327C154.588 28.6405 154.799 28.4434 154.799 28.1968V15.4922V9.77489C154.837 9.08141 154.899 8.51121 155.048 8.11347C155.682 6.42747 156.614 6.16256 160.593 6.16256C163.912 6.16256 164.62 7.02849 165.068 7.79902C165.652 8.79447 165.54 11.4605 165.54 14.0187C165.54 17.2483 165.54 28.1345 165.54 28.1345V28.1961C165.54 28.4427 165.752 28.6397 166.012 28.6397H172.141C172.402 28.6397 172.626 28.4427 172.626 28.1961V12.0219C172.626 7.38954 172.464 5.0163 170.202 2.99457C167.692 0.775433 163.688 0.500977 160.444 0.500977Z" fill="#221E26"/>
<path d="M46.6095 0.960938H40.4741C40.2129 0.960938 40.002 1.16458 40.002 1.41115V28.2095C40.002 28.4499 40.2132 28.6535 40.4741 28.6535H46.6095C46.8708 28.6535 47.0817 28.4499 47.0817 28.2095V1.41078C47.0817 1.16421 46.8708 0.960938 46.6095 0.960938Z" fill="#221E26"/>
<path d="M20.8215 14.5793L31.7182 1.6593C31.9543 1.38191 31.743 0.96582 31.37 0.96582H23.5133C23.3268 0.96582 23.1525 1.04581 23.0345 1.19074L15.8368 10.3326L8.81883 1.19111C8.7008 1.04618 8.52653 0.966187 8.33375 0.966187H0.452224C0.0792568 0.966187 -0.132017 1.38227 0.104417 1.65967L11.1314 14.82L0.091837 27.9616C-0.132017 28.2449 0.0792568 28.6521 0.446304 28.6521H8.32154C8.51432 28.6521 8.69451 28.5659 8.80625 28.4177L16.1598 19.3071L23.1278 28.4177C23.2399 28.5656 23.4201 28.6521 23.6065 28.6521H31.3885C31.7615 28.6521 31.9728 28.2452 31.743 27.9616L20.8215 14.5793Z" fill="#221E26"/>
</svg>
