<svg width="192" height="54" viewBox="0 0 192 54" fill="none" xmlns="http://www.w3.org/2000/svg">
<path d="M5.2168 25.9423L5.25354 32.9238C5.27191 34.853 6.83358 36.3963 8.74433 36.3779L15.6892 36.3411L10.453 31.1417L5.2168 25.9423ZM37.7546 13.8899L37.7178 6.9083C37.6995 4.97919 36.1378 3.43589 34.2271 3.45426L27.2639 3.49101L32.5184 8.69044L37.7546 13.8899Z" fill="#221E26"/>
<path d="M34.43 36.231C36.3407 36.2126 37.884 34.6509 37.8657 32.7218L37.8289 25.7402L27.4668 36.2861L34.43 36.231Z" fill="#221E26"/>
<path d="M4.6664 17.5639C3.3252 18.9419 3.34357 21.1282 4.70314 22.4878L9.64536 27.3932L9.5535 12.585L4.6664 17.5639Z" fill="#221E26"/>
<path d="M14.1813 31.9133L19.1236 36.8188C20.4831 38.16 22.6695 38.16 24.029 36.782L28.9161 31.803L21.5487 31.8582L14.1813 31.9133ZM28.7692 7.9371L23.8269 3.03162C22.4674 1.69043 20.2627 1.69043 18.9215 3.06837L14.0527 8.02896L21.4201 7.97384L28.7692 7.9371Z" fill="#221E26"/>
<path d="M38.2684 17.3439L33.3262 12.4385L33.418 27.2468L38.3051 22.2678C39.628 20.9082 39.628 18.7035 38.2684 17.3439Z" fill="#221E26"/>
<path d="M8.54325 3.60102C6.63251 3.61939 5.08921 5.18106 5.10758 7.11017L5.14433 14.0917L15.5065 3.5459L8.54325 3.60102Z" fill="#221E26"/>
<path d="M71.8741 36.1943L71.7271 11.079L76.0631 11.0423L76.0814 13.8717L76.5408 13.2837C77.8452 11.5567 79.8662 10.5462 82.0158 10.5462C86.8294 10.5095 89.9527 14.2207 89.9895 19.953C90.0262 25.7036 86.9396 29.47 82.126 29.5067C79.958 29.5251 78.0657 28.5881 76.6142 26.7876L76.1549 26.218L76.21 36.1392L71.8741 36.1943ZM80.4909 14.3861C78.8373 14.3861 77.0001 15.3415 76.1366 16.6459L76.0998 16.7194L76.1366 23.407L76.1733 23.4805C77.0552 24.7666 78.9476 25.7403 80.5643 25.722C83.4856 25.7036 85.5066 23.3519 85.4882 20.0081C85.4698 16.6459 83.4121 14.3677 80.4909 14.3861ZM56.4228 29.6721C51.4438 29.7088 47.9531 25.8138 47.9163 20.2286C47.8796 14.6433 51.3336 10.7483 56.3126 10.7116C58.4622 10.6932 60.5015 11.667 61.8243 13.3756L62.2836 13.9635V11.0974L66.7298 11.0607L66.84 29.1209L62.3939 29.1576L62.3755 26.2915L61.9162 26.8794C60.4831 28.6983 58.5908 29.6721 56.4228 29.6721ZM57.8559 14.5331C54.7693 14.5515 52.3808 17.0501 52.3992 20.2102C52.4176 23.3703 54.8428 25.8689 57.9293 25.8506C59.5461 25.8506 61.4385 24.8585 62.2836 23.554L62.3204 23.4805L62.2836 16.7929L62.2469 16.7194C61.365 15.4333 59.5278 14.5147 57.8559 14.5331ZM93.8477 36.0473L93.7007 10.9504L98.0366 10.9321L98.055 13.7614L98.5143 13.1735C99.8188 11.4465 101.84 10.436 103.989 10.436C108.803 10.3993 111.926 14.0921 111.963 19.8427C112 25.5934 108.913 29.3597 104.1 29.3965C101.932 29.4148 100.039 28.4778 98.5878 26.6773L98.1285 26.1078L98.1836 36.029L93.8477 36.0473ZM102.464 14.2575C100.811 14.2575 98.9736 15.2129 98.1101 16.5173L98.055 16.5908L98.0918 23.2784L98.1285 23.3519C99.0104 24.638 100.903 25.5934 102.52 25.5934C105.441 25.575 107.462 23.2233 107.443 19.8795C107.443 16.5173 105.404 14.2391 102.464 14.2575ZM128.241 28.7718L128.186 17.8218C128.168 15.3231 126.973 14.1105 124.511 14.1289C122.123 14.1473 120.635 15.7273 120.12 16.4071L120.065 16.4806L120.139 28.8453L115.803 28.8637L115.693 10.8218L120.029 10.7851L120.047 13.6144L120.506 13.0816C121.645 11.7404 123.868 10.3074 126.753 10.289C130.446 10.2706 132.522 12.2549 132.559 15.911L132.632 28.7534L128.241 28.7718ZM145.732 29.1209C140.073 29.1576 136.105 25.281 136.068 19.6774C136.031 14.2759 140 10.1972 145.309 10.1604C150.692 10.1237 154.33 14.0921 154.367 20.0265V20.9267L140.606 21.0186L140.661 21.3126C141.084 23.9582 143.27 25.6668 146.246 25.6485C147.716 25.6485 149.792 25.0606 151.078 23.9398L152.971 26.7141C151.28 28.2206 148.58 29.1025 145.732 29.1209ZM145.328 13.6328C142.131 13.6512 140.771 15.9294 140.587 17.8585L140.551 18.1525L150.215 18.0974L150.178 17.8218C150.013 15.8743 148.635 13.6328 145.328 13.6328Z" fill="#221E26"/>
<path d="M168.843 28.5327L164.452 22.0839L160.116 28.5878L155.357 28.6062L161.696 19.2913L155.633 10.5643L160.428 10.546L164.415 16.4068L168.31 10.4908L173.105 10.4541L167.189 19.2729L173.638 28.496L168.843 28.5327Z" fill="#221E26"/>
<path d="M183.652 28.9003C180.382 28.9187 178.71 27.3019 178.692 24.0867L178.637 14.1839L175.587 14.2023L175.568 10.4543L178.618 10.4359L178.581 5.36505L182.917 5.34668L182.954 10.4175L186.702 10.3991L186.721 14.1471H182.954L183.009 22.7455C183.009 24.1234 183.799 25.0788 184.957 25.0604C185.49 25.0604 186.022 24.9318 186.5 24.6562L187.4 27.8347C186.592 28.5145 185.269 28.8819 183.652 28.9003Z" fill="#221E26"/>
<path d="M128.807 38.3622C128.587 38.399 128.44 38.6011 128.476 38.8215C128.513 39.042 128.697 39.2073 128.917 39.189C129.248 39.1339 129.579 39.2441 129.854 39.4646C130.13 39.685 130.295 40.0157 130.35 40.3648C130.387 40.5853 130.571 40.7506 130.791 40.7323C130.993 40.6955 131.159 40.4934 131.122 40.2546C131.048 39.6667 130.773 39.1522 130.332 38.7848C129.873 38.4357 129.34 38.2887 128.807 38.3622Z" fill="#221E26"/>
<path d="M128.973 36.525C128.753 36.5618 128.606 36.7639 128.642 37.0027C128.679 37.2232 128.863 37.3885 129.083 37.3518C130.48 37.1497 131.766 38.2153 131.949 39.7218C131.986 39.9423 132.17 40.1077 132.39 40.0709C132.592 40.0342 132.758 39.8321 132.721 39.6116C132.464 37.6457 130.774 36.2678 128.973 36.525Z" fill="#221E26"/>
<path d="M130.002 49.2759C128.863 49.2759 128.109 48.3389 128.109 47.2733V41.2287C128.109 41.0634 128.201 40.9531 128.367 40.9531H128.752C128.918 40.9531 129.01 41.045 129.01 41.2287V47.2733C129.01 47.8245 129.377 48.4124 130.02 48.4124C130.369 48.4124 130.553 48.247 130.718 48.1C130.884 47.9531 130.994 47.9347 131.141 48.0449L131.361 48.2287C131.49 48.3205 131.508 48.5042 131.416 48.6145C131.104 48.9636 130.645 49.2759 130.002 49.2759Z" fill="#221E26"/>
<path d="M120.246 41.5587C119.952 41.1912 119.493 40.8789 118.85 40.8789C118.299 40.8789 117.839 41.0994 117.509 41.4485C117.16 41.8159 116.958 42.3303 116.958 42.8815V43.2857C116.921 43.3592 116.847 43.4143 116.737 43.4143H116.48C116.315 43.4143 116.223 43.5062 116.223 43.6899V43.9655C116.223 44.1308 116.315 44.2411 116.48 44.2411H116.737C116.847 44.2411 116.921 44.2962 116.958 44.3697V48.9261C116.958 49.1098 117.049 49.2017 117.215 49.2017H117.601C117.692 49.2017 117.748 49.1649 117.803 49.1098C117.858 49.0731 117.895 48.9812 117.895 48.8893V44.5167C117.895 44.3329 117.986 44.2411 118.152 44.2411H119.107C119.273 44.2411 119.364 44.1492 119.364 43.9655V43.6899C119.364 43.5246 119.273 43.4143 119.107 43.4143H118.152C117.986 43.4143 117.895 43.3041 117.895 43.1387V42.8448C117.895 42.5324 118.005 42.2385 118.207 42.018C118.372 41.8527 118.593 41.7424 118.868 41.7424C119.217 41.7424 119.401 41.9078 119.566 42.0547C119.732 42.2017 119.842 42.2201 119.989 42.1099L120.007 42.0915L120.21 41.9445C120.32 41.8343 120.338 41.6689 120.246 41.5587Z" fill="#221E26"/>
<path d="M125.924 41.5587C125.63 41.1912 125.171 40.8789 124.528 40.8789C123.976 40.8789 123.517 41.0994 123.186 41.4485C122.837 41.8159 122.635 42.3303 122.635 42.8815V43.2857C122.599 43.3592 122.525 43.4143 122.415 43.4143H122.158C121.992 43.4143 121.9 43.5062 121.9 43.6899V43.9655C121.9 44.1308 121.992 44.2411 122.158 44.2411H122.415C122.525 44.2411 122.599 44.2962 122.635 44.3697V48.9261C122.635 49.1098 122.727 49.2017 122.893 49.2017H123.278C123.37 49.2017 123.425 49.1649 123.48 49.1098C123.536 49.0731 123.572 48.9812 123.572 48.8893V44.5167C123.572 44.3329 123.664 44.2411 123.83 44.2411H124.675C124.84 44.2411 124.932 44.1492 124.932 43.9655V43.6899C124.932 43.5246 124.84 43.4143 124.675 43.4143H123.83C123.664 43.4143 123.572 43.3041 123.572 43.1387V42.8448C123.572 42.5324 123.683 42.2385 123.885 42.018C124.05 41.8527 124.27 41.7424 124.546 41.7424C124.895 41.7424 125.079 41.9078 125.244 42.0547C125.41 42.2017 125.52 42.2201 125.667 42.1099L125.685 42.0915L125.887 41.9445C126.016 41.8343 126.016 41.6689 125.924 41.5587Z" fill="#221E26"/>
<path d="M112.603 43.2861C112.566 43.2861 112.53 43.2861 112.493 43.2861C111.978 43.2861 111.556 43.4147 111.188 43.6536C111.115 43.6903 111.041 43.8006 111.041 43.9108C111.041 43.9475 111.041 43.9843 111.078 44.0394L111.225 44.3334C111.299 44.4803 111.39 44.5538 111.556 44.462C111.776 44.3334 112.107 44.2048 112.493 44.2048C113.136 44.2048 113.503 44.7743 113.503 45.3255V45.6194C113.503 45.7848 113.411 45.895 113.246 45.895H111.096C110.766 45.895 110.582 46.0971 110.582 46.4462V47.2913C110.582 48.2835 111.243 49.1837 112.272 49.294C112.291 49.294 112.291 49.294 112.309 49.294C112.364 49.294 112.419 49.294 112.493 49.294C112.566 49.294 112.621 49.294 112.695 49.2756C112.713 49.2756 112.713 49.2756 112.732 49.2756C112.787 49.2756 112.842 49.2572 112.897 49.2572H112.915C113.173 49.2021 113.375 49.1102 113.503 49.0184C113.558 48.9816 113.614 48.9816 113.669 49.0735C113.705 49.1286 113.76 49.1837 113.852 49.1837H114.146C114.312 49.1837 114.404 49.0919 114.404 48.9081V45.3255C114.404 44.2599 113.687 43.3596 112.603 43.2861ZM113.448 47.6772V47.6955C113.448 47.7139 113.43 47.7139 113.43 47.7323C113.338 48.0079 113.136 48.2467 112.86 48.357C112.75 48.3937 112.64 48.4304 112.511 48.4304C111.868 48.4304 111.501 47.8609 111.501 47.3097C111.501 47.126 111.537 46.9423 111.629 46.7769C111.666 46.7585 111.703 46.7402 111.758 46.7402H113.283C113.338 46.7402 113.375 46.7585 113.411 46.7769C113.485 46.9423 113.54 47.126 113.54 47.3281C113.503 47.4016 113.485 47.5486 113.448 47.6772Z" fill="#221E26"/>
<path d="M135.016 49.2752C135.053 49.2752 135.09 49.2752 135.126 49.2752C135.641 49.2752 136.063 49.1466 136.431 48.9078C136.504 48.871 136.578 48.7608 136.596 48.6506C136.596 48.6138 136.596 48.5771 136.559 48.5219L136.412 48.228C136.339 48.081 136.247 48.0259 136.1 48.0994C135.88 48.228 135.549 48.3566 135.145 48.3566C134.502 48.3566 134.134 47.787 134.134 47.2175V46.9235C134.134 46.7582 134.226 46.6479 134.391 46.6479H136.504C136.817 46.6479 137.019 46.4458 137.019 46.0968V45.2516C137.019 44.2595 136.357 43.3593 135.328 43.249C135.31 43.249 135.31 43.249 135.292 43.249C135.237 43.249 135.182 43.249 135.108 43.249C135.035 43.249 134.979 43.249 134.906 43.2674C134.888 43.2674 134.888 43.2674 134.869 43.2674C134.814 43.2674 134.759 43.2858 134.704 43.2858H134.685C134.428 43.3409 134.245 43.4327 134.098 43.5246C134.042 43.5614 133.987 43.5614 133.932 43.4695C133.895 43.4144 133.84 43.3593 133.748 43.3593H133.454C133.289 43.3593 133.197 43.4511 133.197 43.6348V47.2175C133.216 48.3015 133.932 49.2201 135.016 49.2752ZM134.171 44.9026V44.8842C134.171 44.8658 134.189 44.8658 134.189 44.8474C134.3 44.5718 134.483 44.333 134.777 44.2228C134.888 44.186 134.998 44.1493 135.126 44.1493C135.769 44.1493 136.137 44.7188 136.137 45.27C136.137 45.4537 136.1 45.6375 136.008 45.8028C135.972 45.8212 135.935 45.8396 135.88 45.8396H134.355C134.3 45.8396 134.263 45.8212 134.226 45.8028C134.153 45.6375 134.116 45.4537 134.116 45.27C134.116 45.1598 134.134 45.0128 134.171 44.9026Z" fill="#221E26"/>
<path d="M97.4114 49.1105C97.3563 49.0003 97.3196 48.8166 97.2828 48.5593C96.8603 49.0003 96.3642 49.2208 95.7763 49.2208C95.2618 49.2208 94.8209 49.0738 94.4902 48.7798C94.1595 48.4859 93.9941 48.1 93.9941 47.6591C93.9941 47.1079 94.1962 46.6853 94.6188 46.373C95.0414 46.0607 95.6293 45.9137 96.4009 45.9137H97.2828V45.4911C97.2828 45.1788 97.191 44.9216 97.0072 44.7378C96.8235 44.5541 96.5296 44.4623 96.1621 44.4623C95.8314 44.4623 95.5742 44.5358 95.3537 44.7011C95.1332 44.8665 95.023 45.0686 95.023 45.289H94.1044C94.1044 45.0318 94.1962 44.7746 94.38 44.5174C94.5637 44.2785 94.8209 44.0764 95.1516 43.9295C95.4823 43.7825 95.8314 43.709 96.2172 43.709C96.8235 43.709 97.3012 43.856 97.6503 44.1683C97.9994 44.4806 98.1831 44.9032 98.1831 45.436V47.8796C98.1831 48.3756 98.2382 48.7614 98.3668 49.037V49.1105H97.4114ZM95.9049 48.4307C96.1805 48.4307 96.4561 48.3572 96.7133 48.2103C96.9705 48.0633 97.1542 47.8796 97.2645 47.6407V46.5567H96.5479C95.4272 46.5567 94.876 46.8874 94.876 47.5305C94.876 47.8061 94.9679 48.0449 95.1516 48.1919C95.3537 48.3389 95.6109 48.4307 95.9049 48.4307Z" fill="#221E26"/>
<path d="M100.958 43.8007L100.994 44.4621C101.399 43.9476 101.931 43.6904 102.593 43.6904C103.714 43.6904 104.283 44.3151 104.283 45.5828V49.092H103.383V45.5828C103.383 45.197 103.291 44.9214 103.126 44.7377C102.96 44.5539 102.685 44.4621 102.317 44.4621C102.023 44.4621 101.766 44.5356 101.546 44.7009C101.325 44.8663 101.141 45.0684 101.031 45.3256V49.1103H100.131V43.8007H100.958Z" fill="#221E26"/>
<path d="M145.474 48.4675C145.804 48.4675 146.08 48.3756 146.319 48.1735C146.558 47.9714 146.686 47.7326 146.723 47.4386H147.586C147.568 47.751 147.458 48.0265 147.274 48.3021C147.072 48.5777 146.815 48.7982 146.502 48.9635C146.172 49.1289 145.841 49.2024 145.474 49.2024C144.757 49.2024 144.169 48.9635 143.747 48.4858C143.324 48.0082 143.104 47.3468 143.104 46.5016V46.3546C143.104 45.8402 143.195 45.3809 143.379 44.9767C143.563 44.5725 143.838 44.2602 144.187 44.0397C144.537 43.8192 144.959 43.709 145.455 43.709C146.043 43.709 146.539 43.8927 146.943 44.2418C147.329 44.5909 147.55 45.0686 147.568 45.6381H146.705C146.686 45.289 146.539 45.0134 146.319 44.793C146.08 44.5725 145.804 44.4623 145.455 44.4623C144.996 44.4623 144.628 44.6276 144.39 44.9583C144.132 45.289 144.004 45.7667 144.004 46.3914V46.5567C144.004 47.163 144.132 47.6407 144.39 47.9714C144.647 48.3021 145.014 48.4675 145.474 48.4675Z" fill="#221E26"/>
<path d="M148.873 46.409C148.873 45.8945 148.983 45.4168 149.185 45.0126C149.387 44.5901 149.681 44.2777 150.049 44.0573C150.416 43.8368 150.839 43.7266 151.298 43.7266C152.015 43.7266 152.603 43.9838 153.062 44.4798C153.503 44.9759 153.723 45.6373 153.723 46.4824V46.5376C153.723 47.052 153.632 47.5113 153.429 47.9339C153.227 48.3381 152.952 48.6688 152.584 48.8893C152.217 49.1097 151.794 49.2383 151.317 49.2383C150.6 49.2383 150.012 48.9811 149.571 48.4851C149.13 47.989 148.91 47.3276 148.91 46.5008V46.409H148.873ZM149.792 46.5192C149.792 47.1071 149.92 47.5848 150.196 47.9339C150.471 48.283 150.839 48.4667 151.298 48.4667C151.758 48.4667 152.125 48.283 152.401 47.9155C152.676 47.5481 152.805 47.052 152.805 46.3906C152.805 45.8027 152.658 45.3433 152.382 44.9759C152.107 44.6084 151.739 44.4247 151.28 44.4247C150.839 44.4247 150.471 44.6084 150.196 44.9575C149.92 45.3433 149.792 45.8578 149.792 46.5192Z" fill="#221E26"/>
<path d="M156.203 43.8007L156.221 44.3886C156.607 43.9293 157.14 43.7088 157.801 43.7088C158.536 43.7088 159.05 43.9844 159.326 44.5539C159.51 44.2967 159.73 44.0946 160.024 43.9293C160.3 43.7639 160.649 43.6904 161.035 43.6904C162.192 43.6904 162.798 44.3151 162.817 45.5461V49.1103H161.916V45.6012C161.916 45.2154 161.825 44.9398 161.659 44.756C161.494 44.5723 161.2 44.4805 160.777 44.4805C160.447 44.4805 160.153 44.5723 159.932 44.7744C159.712 44.9765 159.583 45.2521 159.546 45.5828V49.1103H158.628V45.6379C158.628 44.8663 158.242 44.4805 157.489 44.4805C156.901 44.4805 156.478 44.7377 156.258 45.2337V49.1103H155.357V43.8007H156.203Z" fill="#221E26"/>
<path d="M169.157 46.52C169.157 47.3284 168.973 47.9714 168.606 48.4675C168.238 48.9635 167.742 49.2024 167.099 49.2024C166.456 49.2024 165.942 49.0003 165.574 48.5961V51.1499H164.674V43.8008H165.501L165.537 44.3888C165.905 43.9295 166.419 43.709 167.081 43.709C167.724 43.709 168.22 43.9478 168.587 44.4255C168.955 44.9032 169.138 45.583 169.138 46.4281V46.52H169.157ZM168.238 46.4281C168.238 45.8218 168.109 45.3625 167.852 45.0134C167.595 44.6644 167.246 44.499 166.805 44.499C166.254 44.499 165.85 44.7378 165.574 45.2339V47.7693C165.85 48.247 166.254 48.5042 166.823 48.5042C167.264 48.5042 167.613 48.3389 167.871 47.9898C168.11 47.604 168.238 47.1079 168.238 46.4281Z" fill="#221E26"/>
<path d="M174.079 49.1105C174.024 49.0003 173.988 48.8166 173.951 48.5593C173.528 49.0003 173.032 49.2208 172.444 49.2208C171.93 49.2208 171.489 49.0738 171.158 48.7798C170.827 48.4859 170.662 48.1 170.662 47.6591C170.662 47.1079 170.864 46.6853 171.287 46.373C171.709 46.0607 172.297 45.9137 173.069 45.9137H173.951V45.4911C173.951 45.1788 173.859 44.9216 173.675 44.7378C173.491 44.5541 173.198 44.4623 172.83 44.4623C172.499 44.4623 172.242 44.5358 172.022 44.7011C171.801 44.8665 171.691 45.0686 171.691 45.289H170.772C170.772 45.0318 170.864 44.7746 171.048 44.5174C171.232 44.2785 171.489 44.0764 171.82 43.9295C172.15 43.7825 172.499 43.709 172.885 43.709C173.491 43.709 173.969 43.856 174.318 44.1683C174.667 44.4806 174.851 44.9032 174.851 45.436V47.8796C174.851 48.3756 174.906 48.7614 175.035 49.037V49.1105H174.079ZM172.573 48.4307C172.848 48.4307 173.124 48.3572 173.381 48.2103C173.638 48.0633 173.822 47.8796 173.932 47.6407V46.5567H173.216C172.095 46.5567 171.544 46.8874 171.544 47.5305C171.544 47.8061 171.636 48.0449 171.838 48.1919C172.04 48.3389 172.279 48.4307 172.573 48.4307Z" fill="#221E26"/>
<path d="M177.644 43.8007L177.681 44.4621C178.085 43.9476 178.618 43.6904 179.279 43.6904C180.4 43.6904 180.969 44.3151 180.969 45.5828V49.092H180.051V45.5828C180.051 45.197 179.959 44.9214 179.794 44.7377C179.628 44.5539 179.353 44.4621 178.985 44.4621C178.691 44.4621 178.434 44.5356 178.214 44.7009C177.993 44.8663 177.809 45.0684 177.699 45.3256V49.1103H176.799V43.8007H177.644Z" fill="#221E26"/>
<path d="M184.571 47.7876L185.802 43.8008H186.776L184.644 49.9188C184.314 50.8007 183.781 51.2417 183.064 51.2417L182.899 51.2233L182.568 51.1682V50.4333L182.807 50.4516C183.119 50.4516 183.358 50.3965 183.524 50.2679C183.689 50.1393 183.836 49.9188 183.946 49.5881L184.148 49.0553L182.256 43.8008H183.248L184.571 47.7876Z" fill="#221E26"/>
</svg>
