<svg width="211" height="53" viewBox="0 0 211 53" fill="none" xmlns="http://www.w3.org/2000/svg">
<g clip-path="url(#clip0_949_387)">
<path fill-rule="evenodd" clip-rule="evenodd" d="M63.9397 15.7019V19.778H58.3684V15.7019H63.9397ZM63.9397 21.5449L63.9183 36.0826L58.3535 36.0743L58.3733 21.5367L63.9397 21.5449ZM71.3264 23.7503C71.937 22.8394 72.6104 22.1938 73.3464 21.8136C74.1375 21.4223 75.0118 21.2283 75.8944 21.2482C76.2054 21.2306 76.5165 21.2795 76.807 21.3916V25.9804H76.6899C75.0396 25.7123 73.7628 25.9243 72.8595 26.6166C71.9563 27.3089 71.5036 28.4813 71.5014 30.134L71.475 36.0957L65.9085 36.0875L65.93 21.5515H71.2291V23.7503H71.3264ZM82.1886 35.9787C81.2272 35.6181 80.3475 35.0695 79.601 34.3651C78.883 33.6764 78.317 32.8455 77.9391 31.9256C77.1567 29.9564 77.1603 27.7625 77.949 25.7958C78.33 24.874 78.8974 24.0407 79.6158 23.3481C80.3593 22.6386 81.239 22.0869 82.2018 21.7262C84.4032 20.9492 86.8052 20.9527 89.0043 21.7361C89.9654 22.0957 90.8418 22.6496 91.5788 23.363C92.2859 24.06 92.8411 24.8956 93.2092 25.8172C93.9735 27.7892 93.9706 29.9755 93.201 31.9454C92.8318 32.8623 92.2741 33.6917 91.5639 34.3799C90.8223 35.085 89.9447 35.6318 88.9845 35.9869C86.7841 36.7661 84.3824 36.7661 82.182 35.9869L82.1886 35.9787ZM87.4811 31.8581C87.9135 31.1087 88.1308 30.1159 88.133 28.8797C88.1352 27.6435 87.9184 26.6485 87.4827 25.8947C87.299 25.5424 87.019 25.2494 86.6751 25.0499C86.3313 24.8503 85.9378 24.7523 85.5404 24.7673C85.1466 24.7497 84.7561 24.8463 84.4161 25.0454C84.0761 25.2446 83.8011 25.5379 83.6244 25.8897C83.2118 26.6391 83.0044 27.6319 83.0022 28.8681C83 30.1043 83.2047 31.0971 83.6161 31.8465C83.7917 32.1991 84.0658 32.4933 84.4052 32.6937C84.7446 32.8941 85.1349 32.992 85.5288 32.9756C85.9259 32.9907 86.3191 32.8934 86.6631 32.6948C87.0071 32.4961 87.2878 32.2043 87.4728 31.8531L87.4811 31.8581ZM100.565 23.5937C101.12 22.8454 101.829 22.2244 102.644 21.7724C103.495 21.3376 104.442 21.1233 105.398 21.1494C107.145 21.1494 108.46 21.6642 109.342 22.6938C110.225 23.7234 110.665 25.0733 110.663 26.7435L110.649 36.1501L105.085 36.1419L105.096 28.0473C105.096 27.288 104.931 26.6798 104.601 26.2227C104.271 25.7656 103.736 25.5348 102.995 25.5304C102.675 25.5166 102.356 25.5806 102.066 25.7169C101.776 25.8533 101.524 26.058 101.33 26.3133C100.911 26.8858 100.697 27.5825 100.723 28.2912L100.713 36.1303L95.1483 36.1221L95.1681 21.5861H100.469V23.5805L100.565 23.5937ZM117.602 36.2111C116.516 35.9576 115.483 35.5176 114.547 34.9106C113.698 34.3548 112.993 33.6065 112.488 32.7267C111.971 31.783 111.704 30.7233 111.712 29.6478L118.015 29.656C118.11 30.4735 118.467 31.0779 119.086 31.4691C119.704 31.8603 120.524 32.0564 121.545 32.0575C121.855 32.0563 122.164 32.0288 122.469 31.9751C122.771 31.9252 123.064 31.829 123.337 31.6899C123.585 31.5637 123.802 31.3841 123.972 31.1642C124.142 30.9388 124.23 30.663 124.223 30.3812C124.232 30.1006 124.138 29.8263 123.959 29.6098C123.747 29.3754 123.486 29.1903 123.195 29.0676C122.79 28.8911 122.371 28.7478 121.942 28.639C121.443 28.505 120.869 28.3616 120.221 28.2088C119.341 27.9979 118.438 27.7495 117.513 27.4638C116.63 27.1952 115.785 26.8158 114.998 26.3348C114.257 25.8824 113.625 25.2737 113.145 24.5514C112.664 23.8283 112.425 22.9251 112.427 21.8416C112.427 20.6823 112.659 19.6934 113.123 18.8748C113.577 18.0687 114.219 17.3848 114.996 16.882C115.845 16.3455 116.783 15.9653 117.766 15.7596C118.868 15.5195 119.994 15.4017 121.122 15.4085C122.177 15.4073 123.229 15.5233 124.258 15.7546C125.213 15.9609 126.125 16.3336 126.951 16.8556C127.722 17.3463 128.367 18.0114 128.832 18.7973C129.323 19.6617 129.576 20.6404 129.565 21.6339H123.471C123.389 21.1091 123.11 20.6348 122.692 20.3071C122.269 19.9774 121.636 19.8126 120.792 19.8126C120.106 19.8126 119.551 19.945 119.129 20.2098C118.706 20.4747 118.494 20.8164 118.493 21.2351C118.49 21.3754 118.517 21.5148 118.574 21.6431C118.632 21.7714 118.717 21.8854 118.823 21.9768C119.108 22.2011 119.433 22.369 119.781 22.4713C120.291 22.638 120.812 22.7718 121.34 22.8718C121.957 22.997 122.66 23.1536 123.444 23.3448C124.32 23.5531 125.185 23.8068 126.035 24.1047C126.846 24.3829 127.61 24.7825 128.301 25.2898C128.958 25.7782 129.502 26.4029 129.895 27.121C130.296 27.8528 130.495 28.7604 130.494 29.8439C130.515 30.8734 130.265 31.8903 129.768 32.7926C129.285 33.6396 128.614 34.3652 127.808 34.9139C126.927 35.5082 125.95 35.9459 124.92 36.2078C123.775 36.5057 122.597 36.6526 121.414 36.6446C120.131 36.653 118.851 36.5075 117.602 36.2111ZM136.27 36.0463C135.308 35.6859 134.428 35.1373 133.681 34.4326C132.963 33.7438 132.398 32.913 132.021 31.9932C131.236 30.0256 131.236 27.8326 132.021 25.865C132.404 24.9446 132.972 24.1126 133.691 23.4206C134.436 22.7102 135.318 22.1584 136.283 21.7988C138.485 21.024 140.886 21.0275 143.086 21.8087C144.047 22.1688 144.923 22.7232 145.66 23.4371C146.367 24.1342 146.922 24.9698 147.291 25.8914C148.053 27.8638 148.05 30.0493 147.283 32.0196C146.914 32.9338 146.358 33.7608 145.65 34.4475C144.909 35.1518 144.032 35.6985 143.073 36.0545C140.871 36.8315 138.469 36.828 136.27 36.0446V36.0463ZM141.561 31.9256C141.994 31.1762 142.212 30.1834 142.213 28.9472C142.214 27.7111 141.999 26.7183 141.569 25.9689C141.386 25.6172 141.107 25.3245 140.764 25.1247C140.421 24.9249 140.029 24.8261 139.632 24.8398C139.238 24.8217 138.847 24.9183 138.507 25.1178C138.167 25.3174 137.892 25.6113 137.716 25.9639C137.302 26.7144 137.095 27.7067 137.094 28.9407C137.093 30.1746 137.297 31.168 137.708 31.9207C137.883 32.2731 138.157 32.5673 138.497 32.7676C138.836 32.9679 139.226 33.0659 139.62 33.0498C140.017 33.0641 140.41 32.9662 140.753 32.7673C141.096 32.5684 141.376 32.2767 141.561 31.9256ZM159.254 34.3288H159.166C158.641 35.0488 157.961 35.6424 157.176 36.0661C156.341 36.4815 155.417 36.6858 154.484 36.6611C153.68 36.6776 152.879 36.5359 152.129 36.2441C151.495 35.9906 150.927 35.596 150.468 35.0903C150.018 34.5759 149.681 33.9736 149.477 33.3217C149.246 32.5838 149.135 31.8136 149.147 31.0405L149.161 21.6636H154.727L154.715 29.7598C154.715 31.2982 155.382 32.0674 156.714 32.0674C157.44 32.0674 158.005 31.8405 158.409 31.3867C158.813 30.9328 159.014 30.306 159.014 29.506L159.026 21.6669L164.591 21.6751L164.571 36.2128L159.27 36.2045L159.254 34.3288ZM171.961 23.8855C172.572 22.9745 173.245 22.3295 173.981 21.9504C174.772 21.5587 175.646 21.3641 176.529 21.3834C176.84 21.3666 177.151 21.4155 177.442 21.5268V26.1172H177.324C175.674 25.8491 174.398 26.0606 173.496 26.7518C172.594 27.4429 172.14 28.616 172.136 30.2708L172.128 36.2276H166.561L166.583 21.69L171.883 21.6982V23.892L171.961 23.8855ZM182.853 36.1155C181.888 35.7521 181.004 35.2033 180.25 34.5002C179.524 33.8155 178.953 32.9838 178.575 32.0608C177.789 30.0936 177.789 27.8998 178.575 25.9326C178.959 25.0079 179.531 24.1736 180.257 23.4833C181.01 22.7748 181.897 22.224 182.866 21.863C184.887 21.144 187.085 21.092 189.137 21.7147C189.96 21.973 190.727 22.3797 191.403 22.9146C192.034 23.4208 192.558 24.0465 192.946 24.7557C193.342 25.4842 193.591 26.2834 193.679 27.1078H188.32C188.164 26.4419 187.919 25.9331 187.586 25.5815C187.253 25.2299 186.782 25.0535 186.173 25.0524C185.31 25.0524 184.671 25.403 184.257 26.104C183.844 26.8051 183.638 27.7731 183.642 29.0082C183.642 30.2246 183.856 31.1801 184.285 31.8746C184.714 32.569 185.362 32.9168 186.228 32.9179C186.914 32.9179 187.43 32.7047 187.774 32.2784C188.118 31.852 188.331 31.2202 188.411 30.3829L193.77 30.3911C193.775 31.2522 193.588 32.1036 193.222 32.8833C192.857 33.6528 192.334 34.3369 191.687 34.8909C190.985 35.4855 190.175 35.9393 189.301 36.2276C187.198 36.9042 184.93 36.8665 182.851 36.1205L182.853 36.1155ZM199.298 36.0941C198.338 35.7372 197.458 35.1938 196.709 34.4953C195.984 33.8095 195.413 32.9781 195.034 32.0559C194.249 30.078 194.249 27.8758 195.034 25.898C195.413 24.9791 195.975 24.1461 196.684 23.4487C197.411 22.7438 198.273 22.1927 199.219 21.8284C201.273 21.0721 203.528 21.0546 205.594 21.779C206.473 22.1121 207.286 22.6007 207.992 23.2212C208.923 24.0557 209.622 25.1179 210.018 26.3034C210.458 27.5965 210.656 28.9591 210.602 30.3235L199.884 30.3087C200.039 31.1647 200.357 31.83 200.838 32.3047C201.318 32.7794 201.979 33.0179 202.818 33.0201C203.798 33.0201 204.495 32.6602 204.909 31.9405H210.299C210.121 32.6446 209.782 33.2979 209.309 33.8492C208.242 35.0853 206.823 35.9682 205.242 36.3809C204.388 36.5792 203.512 36.6738 202.635 36.6627C201.497 36.6781 200.365 36.4859 199.296 36.0957L199.298 36.0941ZM200.783 25.5634C200.316 26.1 200.009 26.7567 199.897 27.4589H205.081C204.964 26.6413 204.685 26.0046 204.244 25.5485C204.03 25.3242 203.772 25.1471 203.485 25.0287C203.199 24.9104 202.89 24.8533 202.58 24.8612C201.815 24.8645 201.216 25.0986 200.783 25.5634Z" fill="black"/>
<path fill-rule="evenodd" clip-rule="evenodd" d="M26.0911 -0.00195292C20.9313 -0.0026049 15.8873 1.52494 11.5968 4.3875C7.30625 7.25006 3.962 11.3191 1.98693 16.08C0.0118541 20.8408 -0.505338 26.0798 0.500758 31.1343C1.50685 36.1887 3.99105 40.8317 7.63919 44.476C11.2873 48.1204 15.9356 50.6024 20.9961 51.6082C26.0566 52.614 31.3021 52.0985 36.0692 50.1267C40.8363 48.155 44.911 44.8156 47.7779 40.531C50.6448 36.2463 52.1752 31.2087 52.1755 26.0553C52.1759 22.6337 51.5016 19.2456 50.1909 16.0843C48.8803 12.923 46.959 10.0505 44.5368 7.63083C42.1146 5.21117 39.239 3.29172 36.074 1.98208C32.9091 0.672439 29.5169 -0.00173648 26.0911 -0.00195292ZM13.4317 13.4017H20.556V19.0519L13.4301 19.042L13.4317 13.4017ZM11.2154 27.6673C12.1923 27.3492 13.3756 27.0426 13.3772 26.1954L13.3855 20.5254L20.556 20.537V25.3301C20.556 27.7003 19.754 29.0337 17.9997 29.5167C19.8365 30.2518 20.5477 31.5589 20.5444 34.3576V38.4601L13.3574 38.4024V33.0406C13.3574 31.9709 12.1758 31.8391 11.2005 31.5078L11.2154 27.6673ZM31.3324 39.1969C24.8715 39.187 21.7805 35.7438 21.7871 31.4006V30.082L29.0269 30.0919V30.6638C29.0269 32.0813 29.7596 33.0555 31.1723 33.0571C32.4694 33.0571 33.1064 32.4604 33.1081 31.4501C33.1081 28.5805 22.0396 29.0469 22.0512 21.0067C22.0512 16.6718 24.8104 12.8956 31.6558 12.9055C37.8081 12.9138 40.8595 16.3669 40.8529 20.6968V22.1094L33.6164 22.0995V21.2902C33.6164 20.1249 33.0157 18.9596 31.6476 18.9579C30.5584 18.9579 29.928 19.5612 29.9263 20.532C29.9263 23.7049 40.9833 22.9055 40.9833 30.9424C40.9618 35.2872 38.0788 39.2068 31.3291 39.1985L31.3324 39.1969Z" fill="black"/>
</g>
<defs>
<clipPath id="clip0_949_387">
<rect width="210.616" height="52.1113" fill="white"/>
</clipPath>
</defs>
</svg>
