<svg width="200" height="36" viewBox="0 0 200 36" fill="none" xmlns="http://www.w3.org/2000/svg">
<path d="M68.8298 28.9803L67.2854 24.4183H58.7593C58.5245 25.1229 58.2754 25.8915 58.0192 26.7171L57.3146 28.9803H53.1797L60.8161 7.83594H65.25L72.6871 28.9803H68.8298ZM63.0081 12.4335C62.4957 13.8711 61.9975 15.2589 61.5278 16.6111C61.0581 17.9633 60.5386 19.3938 59.9834 20.9168H66.0613L63.0081 12.4335Z" fill="#221E26"/>
<path d="M85.0893 7.90723H77.3105V29.0302H80.9046V21.835H85.0893C89.3524 21.835 91.4234 20.0415 91.4234 16.3479V13.3588C91.4234 9.68645 89.3524 7.90723 85.0893 7.90723ZM80.9046 11.2308H85.0039C87.4379 11.2308 87.8293 11.8713 87.8293 13.3944V16.355C87.8293 17.8495 87.4237 18.5185 85.0039 18.5185H80.9046V11.2308Z" fill="#221E26"/>
<path d="M103.359 7.90723H95.5801V29.0302H99.1741V21.835H103.359C107.622 21.835 109.693 20.0415 109.693 16.3479V13.3588C109.693 9.68645 107.622 7.90723 103.359 7.90723ZM99.1741 11.2308H103.273C105.707 11.2308 106.099 11.8713 106.099 13.3944V16.355C106.099 17.8495 105.693 18.5185 103.273 18.5185H99.1741V11.2308Z" fill="#221E26"/>
<path d="M120.323 26.9156H130.081V29.0294H118.195V7.92773H120.323V26.9156Z" fill="#221E26"/>
<path d="M148.771 22.889C148.771 26.4047 146.586 29.2942 141.134 29.2942C135.683 29.2942 133.498 26.4118 133.498 22.889V13.9501C133.498 10.4344 135.683 7.54492 141.134 7.54492C146.586 7.54492 148.771 10.4273 148.771 13.9501V22.889ZM135.477 22.9174C135.477 25.9492 137.327 27.6502 141.213 27.6502C145.099 27.6502 146.942 25.9492 146.942 22.9174V13.9217C146.942 10.8899 145.091 9.18893 141.213 9.18893C137.327 9.18893 135.477 10.8899 135.477 13.9217V22.9174Z" fill="#221E26"/>
<path d="M152.01 7.92773H154.123L160.949 26.9156L167.788 7.92773H169.951L162.365 29.0365H159.561L152.01 7.92773Z" fill="#221E26"/>
<path d="M176.503 29.0365H174.375V7.92773H176.503V29.0365Z" fill="#221E26"/>
<path d="M186.697 10.4694V29.0374H184.697V7.92871H187.836L197.024 25.9914V7.92871H199.024V29.0374H196.483L186.697 10.4694Z" fill="#221E26"/>
<path d="M37.2369 26.2461C34.5966 26.2461 32.4473 28.3954 32.4473 31.0358C32.4473 33.6761 34.5966 35.8254 37.2369 35.8254C39.8773 35.8254 42.0266 33.6761 42.0266 31.0358C42.0266 28.4025 39.8773 26.2461 37.2369 26.2461ZM40.0695 31.0429C40.0695 32.6086 38.7955 33.8754 37.2369 33.8754C35.6712 33.8754 34.4044 32.6015 34.4044 31.0429C34.4044 29.4772 35.6783 28.2104 37.2369 28.2104C38.7955 28.2104 40.0695 29.4772 40.0695 31.0429Z" fill="#221E26"/>
<path d="M4.78968 26.2461C2.14931 26.2461 0 28.3954 0 31.0358C0 33.6761 2.14931 35.8254 4.78968 35.8254C7.43005 35.8254 9.57935 33.6761 9.57935 31.0358C9.57935 28.4025 7.43005 26.2461 4.78968 26.2461ZM7.6222 31.0429C7.6222 32.6086 6.34828 33.8754 4.78968 33.8754C3.22396 33.8754 1.95715 32.6015 1.95715 31.0429C1.95715 29.4772 3.23108 28.2104 4.78968 28.2104C6.34828 28.2104 7.6222 29.4772 7.6222 31.0429Z" fill="#221E26"/>
<path d="M21.0065 0C18.3661 0 16.2168 2.1493 16.2168 4.78967C16.2168 7.43005 18.3661 9.57935 21.0065 9.57935C23.6468 9.57935 25.7961 7.43005 25.7961 4.78967C25.7961 2.1493 23.6468 0 21.0065 0ZM23.839 4.79679C23.839 6.36251 22.5651 7.62932 21.0065 7.62932C19.4408 7.62932 18.1739 6.35539 18.1739 4.79679C18.1739 3.23107 19.4479 1.96426 21.0065 1.96426C22.5722 1.95715 23.839 3.23107 23.839 4.79679Z" fill="#221E26"/>
<path d="M35.4653 26.7819L24.8824 7.72996L24.7828 7.54492L24.6476 7.70861C24.2846 8.16409 23.8362 8.52705 23.3309 8.80461L23.2028 8.87578L23.274 9.00389L32.6399 25.8709C29.3732 25.1379 25.3094 24.7394 21.1461 24.7394C16.5556 24.7394 12.4777 25.1308 9.31776 25.8638L18.6836 9.00389L18.7548 8.87578L18.6267 8.80461C18.1143 8.53417 17.673 8.16409 17.31 7.70861L17.1748 7.54492L17.0752 7.72996L6.49946 26.7819L6.41406 26.9314L6.57064 26.9883C7.09017 27.1662 7.567 27.8139 7.9869 28.1839L8.05807 28.248L8.14347 28.2053L8.17905 28.1982C11.5525 27.2659 16.0432 26.7677 21.1532 26.7677C25.7507 26.7677 30.213 27.273 33.7287 28.1911L33.7999 28.3263L33.9351 28.2195L33.9636 28.1982C34.3906 27.821 34.8674 27.1733 35.387 26.9954L35.5435 26.9385L35.4653 26.7819Z" fill="#221E26"/>
</svg>
