<svg width="54" height="50" viewBox="0 0 54 50" fill="none" xmlns="http://www.w3.org/2000/svg">
<path d="M26.9181 49.3779C26.7709 49.3779 26.6304 49.3725 26.5236 49.3674C26.4389 49.3747 26.3514 49.3779 26.2637 49.3779C23.1716 49.3779 21.1041 47.9161 19.2796 46.6253C17.9719 45.7016 16.7386 44.8295 15.2937 44.5891C14.5841 44.4714 13.8782 44.4118 13.1962 44.4118C11.9673 44.4118 10.9961 44.6024 10.287 44.741C9.85073 44.826 9.47449 44.8992 9.1837 44.8992C8.87913 44.8992 8.5091 44.8317 8.35489 44.3051C8.23265 43.8897 8.145 43.4873 8.06038 43.0998C7.8487 42.1313 7.69517 41.5403 7.33258 41.4842C3.45435 40.8858 1.16291 40.0043 0.706469 38.9368C0.658647 38.8246 0.631912 38.7118 0.625986 38.6001C0.608207 38.2819 0.832844 38.0028 1.14651 37.9509C4.22638 37.4437 6.96489 35.8159 9.28637 33.111C11.0847 31.0169 11.9678 29.0161 12.0626 28.7952C12.0668 28.7853 12.0716 28.7748 12.0766 28.7653C12.524 27.8574 12.6131 27.0728 12.342 26.434C11.8423 25.2556 10.1873 24.7305 9.09233 24.3831C8.82001 24.2969 8.56244 24.2153 8.35723 24.1339C7.38661 23.7505 5.7903 22.9404 6.00295 21.8223C6.15785 21.007 7.23625 20.4392 8.10779 20.4392C8.34979 20.4392 8.56423 20.4817 8.74477 20.5664C9.72959 21.0278 10.6156 21.2617 11.3776 21.2617C12.3252 21.2617 12.7829 20.9009 12.8935 20.7984C12.8662 20.2929 12.8329 19.7584 12.8006 19.2529C12.8006 19.2524 12.8 19.2463 12.8 19.2463C12.5775 15.7079 12.3001 11.3045 13.4265 8.77931C16.7977 1.22061 23.9471 0.632832 26.0573 0.632832C26.1135 0.632832 26.977 0.624287 26.977 0.624287C27.0161 0.623597 27.0584 0.623047 27.1022 0.623047C29.2182 0.623047 36.3825 1.21151 39.7557 8.77476C40.8821 11.3016 40.6044 15.7088 40.3813 19.2509L40.3708 19.4204C40.3402 19.9013 40.312 20.3565 40.2881 20.7978C40.3923 20.8937 40.8111 21.2245 41.6632 21.258C42.3897 21.2301 43.2244 20.9974 44.1436 20.567C44.4278 20.4336 44.7424 20.4059 44.956 20.4059C45.2789 20.4059 45.6075 20.4687 45.8813 20.583L45.8959 20.5886C46.6759 20.8655 47.1868 21.4188 47.1979 22.0001C47.2076 22.542 46.805 23.3519 44.8243 24.1342C44.6214 24.2145 44.3626 24.2966 44.0892 24.3833C42.9933 24.7312 41.3396 25.256 40.8399 26.4337C40.5684 27.0725 40.6577 27.8568 41.1054 28.7645C41.1103 28.7744 41.1146 28.7844 41.1194 28.7949C41.2572 29.1179 44.593 36.7241 52.0356 37.9502C52.3491 38.0024 52.5741 38.2818 52.5562 38.5994C52.5496 38.7135 52.522 38.8277 52.4738 38.9391C52.0205 40.0007 49.7292 40.881 45.8499 41.4802C45.4858 41.5364 45.3324 42.1249 45.1227 43.0882C45.0358 43.4861 44.9475 43.8761 44.8269 44.2859C44.714 44.6714 44.4629 44.8598 44.0597 44.8598H43.9989C43.7364 44.8598 43.3644 44.8121 42.8953 44.7203C42.0753 44.5607 41.1557 44.4122 39.9862 44.4122C39.3043 44.4122 38.5985 44.472 37.8881 44.5895C36.4448 44.8299 35.2116 45.7006 33.9062 46.6234C32.0781 47.916 30.0099 49.3779 26.9181 49.3779Z" fill="#ECECF0"/>
<path d="M27.1005 1.24557C29.0926 1.24557 35.9524 1.7807 39.1851 9.02822C40.2496 11.4147 39.9767 15.7378 39.7579 19.2106C39.7237 19.7617 39.6898 20.2959 39.6623 20.806L39.6507 21.0252L39.797 21.1885C39.8562 21.2541 40.4095 21.8324 41.6402 21.88L41.66 21.8811L41.6807 21.8806C42.4943 21.8496 43.4108 21.5969 44.4061 21.1307C44.5527 21.062 44.7479 21.0285 44.9543 21.0285C45.1896 21.0285 45.4396 21.0728 45.6457 21.1596L45.6769 21.172C46.1988 21.3549 46.5677 21.6997 46.5734 22.0117C46.5764 22.1881 46.4445 22.8236 44.5945 23.5544C44.4137 23.6258 44.1757 23.7017 43.8998 23.7887C42.6958 24.171 40.877 24.7479 40.2648 26.1904C39.9201 27.0029 40.0145 27.9618 40.5451 29.0401C40.7634 29.5496 44.1999 37.2904 51.9328 38.5646C51.9313 38.6012 51.9219 38.6413 51.9013 38.6886C51.7702 38.9973 50.9371 40.0639 45.7531 40.8637C44.9419 40.988 44.7432 41.8973 44.5128 42.9544C44.4295 43.3328 44.3449 43.7148 44.2286 44.1094C44.193 44.2286 44.1864 44.2354 44.0587 44.2354C44.041 44.2354 44.0204 44.2354 43.9978 44.2354C43.7679 44.2354 43.4189 44.1877 43.0145 44.1083C42.2778 43.9648 41.2715 43.7888 39.985 43.7888C39.267 43.7888 38.5274 43.8513 37.7852 43.9752C36.1988 44.2389 34.9088 45.1514 33.5425 46.1172C31.7076 47.4138 29.8112 48.7554 26.9176 48.7554C26.7912 48.7554 26.6679 48.7511 26.5443 48.7449L26.5117 48.7435L26.4791 48.746C26.4081 48.7522 26.3366 48.7554 26.2635 48.7554C23.3704 48.7554 21.4731 47.4142 19.6391 46.1172C18.2725 45.1514 16.9817 44.2389 15.3956 43.9752C14.6542 43.8517 13.9139 43.7888 13.1963 43.7888C11.91 43.7888 10.9025 43.9856 10.1674 44.1294C9.76289 44.2085 9.4127 44.2763 9.18352 44.2763C8.99581 44.2763 8.99223 44.2653 8.95254 44.1297C8.83623 43.7348 8.75119 43.3437 8.66837 42.9658C8.43739 41.9077 8.23853 40.9934 7.42777 40.869C2.24416 40.0684 1.41093 39.0001 1.27945 38.6922C1.25892 38.6437 1.24969 38.6023 1.24762 38.5657C8.98038 37.2926 12.4162 29.5515 12.6352 29.0401C13.1668 27.9627 13.261 27.0039 12.9153 26.1904C12.3031 24.7487 10.4845 24.171 9.28136 23.7894C9.00477 23.7019 8.76663 23.6258 8.58568 23.5544C7.02342 22.9371 6.54286 22.3153 6.61425 21.9385C6.69707 21.504 7.45037 21.0622 8.10774 21.0622C8.25548 21.0622 8.38502 21.086 8.4808 21.1308C9.54845 21.6312 10.5231 21.8849 11.3779 21.8849C12.7218 21.8849 13.3199 21.2596 13.3841 21.1883L13.5298 21.0254L13.5181 20.8072C13.4909 20.2974 13.4574 19.7634 13.4221 19.2134C13.204 15.7398 12.9311 11.4196 13.9952 9.0329C17.2159 1.81198 24.0422 1.25535 26.0574 1.25535C26.107 1.25535 26.9831 1.24639 26.9831 1.24639C27.0189 1.24612 27.0587 1.24557 27.1005 1.24557ZM27.1005 0H27.0981C27.0522 0 27.0091 -3.02841e-07 26.968 0.000550954C26.6406 0.0038585 26.1023 0.0090957 26.0539 0.00964696C24.8734 0.00964696 22.5114 0.176402 19.9742 1.29628C18.5236 1.93615 17.2188 2.80135 16.0961 3.8679C14.7577 5.13868 13.6673 6.70549 12.8559 8.52547C11.6675 11.1902 11.9496 15.6787 12.1762 19.2857L12.177 19.2914C12.2012 19.6777 12.2267 20.0811 12.25 20.4741C12.0757 20.5542 11.793 20.6387 11.3764 20.6387C10.7061 20.6387 9.90897 20.4244 9.00781 20.0021C8.74265 19.8786 8.44001 19.8162 8.10609 19.8162C7.56958 19.8162 7.00398 19.9741 6.51337 20.2626C5.8961 20.625 5.49726 21.1373 5.38894 21.7052C5.31755 22.0809 5.321 22.8234 6.14582 23.5764C6.5995 23.991 7.26597 24.3733 8.12621 24.7133C8.35195 24.8022 8.61986 24.8871 8.90362 24.9771C9.8883 25.29 11.3786 25.7629 11.7673 26.6775C11.9642 27.1413 11.8794 27.7515 11.516 28.4891C11.5065 28.5092 11.497 28.5289 11.4883 28.5496C11.3975 28.7617 10.5502 30.6809 8.81225 32.705C7.82467 33.856 6.7369 34.818 5.58091 35.5649C4.16997 36.4768 2.64327 37.073 1.04365 37.3365C0.415497 37.4396 -0.0330898 37.9993 0.00191504 38.6353C0.0126646 38.8186 0.0556626 39.0013 0.13022 39.1781C0.130771 39.1792 0.131461 39.1803 0.132012 39.1813C0.386004 39.7754 0.974885 40.2801 1.93228 40.7252C3.10219 41.2686 4.85188 41.7258 7.13229 42.0834C7.2475 42.3025 7.36712 42.8532 7.44995 43.2303C7.53664 43.631 7.62704 44.0431 7.7559 44.4808C7.89495 44.955 8.25561 45.5217 9.18214 45.5217C9.53329 45.5217 9.93709 45.4426 10.4047 45.3519C11.0895 45.2176 12.0259 45.0343 13.1947 45.0343C13.8427 45.0343 14.5143 45.0913 15.1903 45.2036C16.4933 45.4206 17.6166 46.2141 18.9164 47.133C20.8188 48.4778 22.9721 50 26.2622 50C26.3519 50 26.4419 49.9971 26.5308 49.9909C26.6395 49.996 26.7743 50 26.9165 50C30.2075 50 32.3603 48.4773 34.2606 47.1336L34.2637 47.1308C35.5637 46.213 36.6857 45.4206 37.9884 45.2036C38.6641 45.0915 39.3355 45.0343 39.9838 45.0343C41.1003 45.0343 41.9844 45.1766 42.7738 45.3306C43.289 45.432 43.6893 45.4808 43.9965 45.4808L44.0266 45.4813H44.0577C44.7353 45.4813 45.2333 45.1094 45.4233 44.4585C45.5495 44.03 45.6397 43.6276 45.7286 43.2201C45.806 42.8667 45.9298 42.3003 46.045 42.0788C48.3269 41.7205 50.0759 41.2644 51.246 40.7211C52.2012 40.278 52.7893 39.7739 53.0448 39.1823C53.1215 39.0049 53.1663 38.8211 53.1763 38.6339C53.2123 37.999 52.763 37.4382 52.1345 37.3351C45.0253 36.1634 41.8226 28.8587 41.6902 28.5484C41.6816 28.528 41.672 28.5077 41.6619 28.488C41.2985 27.7502 41.2146 27.1406 41.4117 26.676C41.7995 25.7622 43.2888 25.2893 44.2742 24.9765C44.5595 24.8866 44.8284 24.8012 45.0523 24.7127C46.0224 24.3296 46.7157 23.914 47.1731 23.4419C47.7194 22.8792 47.8258 22.3401 47.8192 21.9873C47.8025 21.1337 47.15 20.3752 46.112 20.0037C45.7614 19.8588 45.3616 19.7823 44.9545 19.7823C44.6773 19.7823 44.2669 19.8203 43.8784 20.0017C43.0467 20.3909 42.3017 20.6037 41.6621 20.634C41.322 20.6167 41.0834 20.543 40.9289 20.4726C40.9483 20.1396 40.9698 19.7976 40.992 19.4409L41.0013 19.2882C41.2291 15.6789 41.5121 11.1869 40.3232 8.52023C39.5083 6.69378 38.4141 5.12297 37.0702 3.84943C35.9432 2.7822 34.634 1.91714 33.1781 1.27768C30.6445 0.166067 28.2827 0 27.1005 0Z" fill="#221E26"/>
</svg>
