<svg width="143" height="22" viewBox="0 0 143 22" fill="none" xmlns="http://www.w3.org/2000/svg">
<g clip-path="url(#clip0_182_183)">
<path d="M53.6938 17.7426C51.3055 17.8495 49.5412 17.7565 48.4058 17.2169C47.6459 16.8633 47.092 16.0445 47.0451 15.1092C47.0029 14.3185 47.0169 13.9089 47.3923 13.4391C48.2321 12.3922 50.4282 12.164 52.6897 12.0803C54.2144 12.0247 56.5465 12.1919 58.2589 12.3875C58.2449 13.9742 58.1368 15.5654 57.7896 16.2586C57.1799 17.4959 54.9933 17.6864 53.6938 17.7426ZM62.0221 3.5024C59.8824 0.675681 56.0164 -0.175714 52.0046 0.0289639C47.9366 0.238351 45.0978 1.06177 44.3753 1.32489C43.9248 1.48553 43.9857 1.8575 43.9812 2.08073C43.9625 2.82993 43.9013 4.75844 43.9013 5.54004C43.9061 5.88902 44.3518 6.04938 44.7225 5.92143C46.2053 5.42122 48.9452 4.61636 51.146 4.44436C53.52 4.26295 56.7529 4.44436 57.6397 5.74029C58.0664 6.35432 58.0854 7.29435 58.1371 8.25293C56.6543 8.12276 54.4585 7.94134 52.2769 8.05739C50.5785 8.14574 47.3266 8.2809 45.4079 9.26026C43.8455 10.051 42.9352 10.7772 42.447 12.1216C42.0529 13.2009 41.9499 14.5041 42.0717 15.5601C42.3579 17.9794 43.2352 19.1895 44.4225 20.027C46.2899 21.3485 48.6499 22.0511 53.5295 21.9439C60.0187 21.8138 61.7311 19.8035 62.5896 18.3705C64.0537 15.9415 63.8001 12.108 63.7579 9.75353C63.7395 8.77667 63.5892 5.56358 62.0221 3.5024Z" fill="#221E26"/>
<path d="M85.4673 16.342C84.313 17.603 82.2205 17.826 80.5034 17.826C78.786 17.826 76.7005 17.6075 75.5461 16.3511C74.3918 15.0857 74.317 13.3549 74.317 11.1586C74.317 8.98134 74.3921 7.28742 75.5414 6.02417C76.6957 4.76342 78.5514 4.54711 80.5037 4.54711C82.4646 4.54711 84.3135 4.76342 85.4676 6.02417C86.6127 7.28769 86.6968 8.98134 86.6968 11.1586C86.6968 13.3458 86.6124 15.0857 85.4673 16.342ZM80.5034 0.34082C77.2281 0.34082 73.9603 0.736328 71.891 2.69033C69.8172 4.63768 69.0195 7.56909 69.0195 11.1586C69.0195 14.7508 69.7326 17.6307 71.8066 19.5806C73.8804 21.5252 77.2378 21.9999 80.5034 21.9999C83.7787 21.9999 87.0347 21.5997 89.1085 19.6548C91.1731 17.7002 91.9895 14.7506 91.9895 11.1583C91.9895 7.56881 91.2666 4.70498 89.1926 2.75541C87.1286 0.80834 83.7784 0.34082 80.5034 0.34082Z" fill="#221E26"/>
<path d="M142.643 0.724609H138.008C137.81 0.724609 137.66 0.878326 137.66 1.06445V21.293C137.66 21.4744 137.81 21.6281 138.008 21.6281H142.643C142.84 21.6281 143 21.4744 143 21.293V1.06417C143 0.878049 142.84 0.724609 142.643 0.724609Z" fill="#221E26"/>
<path d="M121.109 0.37793C117.937 0.37793 115.92 1.02714 114.7 1.62733H113.855C112.663 0.994457 110.552 0.37793 107.239 0.37793C104.79 0.37793 101.787 0.550203 99.9293 2.04139C98.3996 3.27195 98.043 4.90966 98.043 8.27868V21.2836C98.043 21.4698 98.2024 21.6185 98.3996 21.6185H103.026C103.223 21.6185 103.392 21.4698 103.392 21.2836V21.2371C103.392 21.2371 103.392 13.0198 103.392 10.5819C103.392 8.65092 103.307 6.63848 103.739 5.88707C104.086 5.30544 104.612 4.6518 107.127 4.6518C110.13 4.6518 110.833 4.85177 111.302 6.12443C111.415 6.42438 111.471 6.85507 111.499 7.37853V11.6942V21.2839C111.499 21.47 111.659 21.6188 111.856 21.6188H116.482H116.492C116.689 21.6188 116.848 21.47 116.848 21.2839V11.6939V7.37826C116.876 6.85479 116.923 6.42439 117.036 6.12415C117.514 4.85149 118.218 4.65152 121.221 4.65152C123.727 4.65152 124.261 5.30516 124.599 5.88679C125.04 6.6382 124.956 8.65064 124.956 10.5817C124.956 13.0195 124.956 21.2368 124.956 21.2368V21.2834C124.956 21.4695 125.115 21.6182 125.312 21.6182H129.938C130.135 21.6182 130.305 21.4695 130.305 21.2834V9.0744C130.305 5.5777 130.182 3.78628 128.474 2.26019C126.58 0.585101 123.558 0.37793 121.109 0.37793Z" fill="#221E26"/>
<path d="M35.1791 0.724609H30.5478C30.3506 0.724609 30.1914 0.878326 30.1914 1.06445V21.293C30.1914 21.4744 30.3509 21.6281 30.5478 21.6281H35.1791C35.3763 21.6281 35.5355 21.4744 35.5355 21.293V1.06417C35.5355 0.878049 35.3763 0.724609 35.1791 0.724609Z" fill="#221E26"/>
<path d="M15.7169 11.0045L23.9422 1.25198C24.1204 1.0426 23.9609 0.728516 23.6794 0.728516H17.7488C17.608 0.728516 17.4765 0.788894 17.3874 0.898296L11.9542 7.79892L6.65682 0.898573C6.56772 0.789171 6.43617 0.728793 6.29066 0.728793H0.341357C0.0598263 0.728793 -0.0996522 1.04287 0.0788185 1.25226L8.40242 11.1862L0.0693224 21.106C-0.0996522 21.3199 0.0598263 21.6273 0.336889 21.6273H6.28144C6.42696 21.6273 6.56297 21.5622 6.64732 21.4503L12.1981 14.5732L17.4578 21.4503C17.5424 21.5619 17.6784 21.6273 17.8192 21.6273H23.6934C23.9749 21.6273 24.1344 21.3201 23.9609 21.106L15.7169 11.0045Z" fill="#221E26"/>
</g>
<defs>
<clipPath id="clip0_182_183">
<rect width="143" height="22" fill="white"/>
</clipPath>
</defs>
</svg>
