<svg width="154" height="42" viewBox="0 0 154 42" fill="none" xmlns="http://www.w3.org/2000/svg">
<g clip-path="url(#clip0_182_240)">
<path d="M19.5684 5.81696C21.0004 5.54581 22.5454 6.0343 23.5686 7.0775C24.6267 8.1207 25.1157 9.71034 24.8239 11.1717C24.5445 12.7799 23.3282 14.1709 21.7852 14.6676C20.2875 15.1747 18.5349 14.8249 17.3597 13.7548C16.168 12.7158 15.5907 11.0226 15.903 9.4661C16.2174 7.6405 17.7521 6.11088 19.5684 5.81696ZM8.59491 15.6508C9.94066 12.8855 12.2788 10.6128 15.0915 9.39987C13.7663 10.9212 12.55 12.575 11.8185 14.4772C10.8221 16.9258 10.4913 19.6353 10.8303 22.2557C9.5996 22.2019 8.38946 22.5537 7.35601 23.2223C7.02317 20.6474 7.45052 17.9773 8.59491 15.6508ZM25.691 9.404C28.4153 10.6397 30.7205 12.811 32.0601 15.51C33.26 17.8697 33.7058 20.5957 33.3709 23.2223C32.6416 20.7861 31.4889 18.4451 29.7343 16.5864C28.4297 15.1416 26.8251 13.9991 25.1013 13.1194C25.0417 12.8317 25.3088 12.5667 25.3807 12.2894C25.7608 11.3828 25.8163 10.3727 25.691 9.404ZM9.33661 23.272C10.6782 22.9263 12.1719 23.2306 13.2567 24.104C14.4628 25.0417 15.1325 26.623 14.9682 28.1506C14.8346 29.6326 13.9224 31.0132 12.6198 31.7128C11.1775 32.518 9.30169 32.4331 7.94156 31.4955C6.58349 30.6013 5.78427 28.9309 5.94658 27.304C6.07191 25.4122 7.51216 23.717 9.33661 23.272ZM29.4282 23.2202C30.7678 22.947 32.2245 23.3113 33.262 24.2158C34.4866 25.2425 35.0885 26.9501 34.7824 28.5252C34.5133 30.1107 33.3339 31.4913 31.8238 32.0088C30.474 32.4952 28.9022 32.2758 27.7332 31.4416C26.2991 30.4564 25.5389 28.5977 25.8697 26.8797C26.1656 25.0769 27.649 23.5617 29.4282 23.2202ZM13.0554 32.4662C17.2857 33.3542 21.8633 32.4165 25.3396 29.8106C25.8266 30.92 26.6587 31.8494 27.6921 32.4683C23.4042 35.4385 17.3371 35.4613 13.0554 32.4662Z" fill="#ECECF0"/>
<path d="M8.30303 0.484943C16.2213 0.445616 24.1417 0.470454 32.062 0.472524C36.5739 0.497362 40.57 4.54598 40.6748 9.07066C40.6891 17.0085 40.6994 24.9464 40.6892 32.8863C40.5063 37.3013 36.6643 41.2154 32.2695 41.3747C24.2526 41.3665 16.2337 41.3809 8.21674 41.3665C3.83846 41.0643 0.117636 37.0964 0.0149081 32.6835C-0.00152843 25.025 0.0149081 17.3645 0.0210718 9.7061C0.010799 8.725 0.136128 7.74182 0.438149 6.80625C1.48187 3.36824 4.71781 0.685718 8.30303 0.484943ZM19.5662 5.81686C17.7499 6.11078 16.2152 7.6404 15.9008 9.466C15.5885 11.0225 16.1659 12.7157 17.3575 13.7547C18.5327 14.8248 20.2853 15.1746 21.783 14.6675C23.326 14.1708 24.5423 12.7798 24.8217 11.1716C25.1135 9.71024 24.6245 8.1206 23.5664 7.0774C22.5432 6.0342 20.9982 5.54572 19.5662 5.81686ZM8.59272 15.6507C7.44833 17.9772 7.02098 20.6473 7.35382 23.2222C8.38726 22.5536 9.5974 22.2018 10.8281 22.2556C10.4891 19.6352 10.8199 16.9257 11.8163 14.4771C12.5478 12.5749 13.7641 10.9211 15.0893 9.39977C12.2766 10.6127 9.93846 12.8854 8.59272 15.6507ZM25.6888 9.40391C25.8141 10.3726 25.7586 11.3827 25.3785 12.2893C25.3066 12.5666 25.0395 12.8316 25.0991 13.1193C26.8229 13.999 28.4275 15.1415 29.7321 16.5863C31.4867 18.445 32.6394 20.786 33.3687 23.2222C33.7036 20.5956 33.2578 17.8696 32.0579 15.51C30.7183 12.8109 28.4131 10.6396 25.6888 9.40391ZM9.33442 23.2719C7.50996 23.7169 6.06971 25.4121 5.94439 27.3039C5.78207 28.9308 6.5813 30.6012 7.93937 31.4954C9.29949 32.433 11.1753 32.5179 12.6176 31.7127C13.9202 31.0131 14.8324 29.6325 14.966 28.1505C15.1304 26.6229 14.4606 25.0416 13.2545 24.1039C12.1697 23.2305 10.6761 22.9262 9.33442 23.2719ZM29.426 23.2201C27.6468 23.5616 26.1634 25.0768 25.8675 26.8796C25.5367 28.5976 26.2969 30.4563 27.731 31.4415C28.9 32.2757 30.4718 32.4951 31.8216 32.0087C33.3317 31.4912 34.5111 30.1106 34.7802 28.5251C35.0863 26.95 34.4844 25.2424 33.2598 24.2157C32.2223 23.3112 30.7656 22.9469 29.426 23.2201ZM13.0532 32.4661C17.3349 35.4612 23.402 35.4384 27.6899 32.4682C26.6565 31.8493 25.8244 30.92 25.3374 29.8105C21.8611 32.4164 17.2835 33.3541 13.0532 32.4661Z" fill="#221E26"/>
<path d="M137.956 10.847C139.299 10.4185 140.849 11.4079 141.031 12.8154C141.284 14.138 140.261 15.5145 138.934 15.649C137.687 15.8436 136.413 14.8976 136.224 13.6433C135.979 12.4407 136.78 11.1595 137.956 10.847Z" fill="#221E26"/>
<path d="M149.215 10.9795H149.876C149.882 12.6436 149.874 14.3099 149.88 15.974C151.039 15.9823 152.2 15.9554 153.359 15.9885C153.521 17.0131 153.511 18.0584 153.346 19.0809C152.19 19.0788 151.033 19.0788 149.878 19.0809C149.884 21.1321 149.862 23.1812 149.889 25.2324C149.926 26.0521 150.043 27.0415 150.813 27.5051C151.692 27.9067 152.697 27.7183 153.609 27.5383C153.987 28.538 154 29.6888 153.839 30.7113C151.84 31.1315 149.57 31.2619 147.75 30.169C146.414 29.3783 145.925 27.737 145.888 26.2612C145.847 23.8726 145.886 21.4819 145.868 19.0912C145.249 19.0933 144.633 19.0933 144.017 19.0912C143.967 18.8946 143.922 18.6979 143.877 18.5034C145.66 15.9968 147.431 13.484 149.215 10.9795ZM48.3149 13.2522C50.1147 11.7474 52.5679 11.2506 54.8546 11.4825C56.8414 11.7081 58.8569 12.5546 60.1307 14.1567C59.4548 15.2144 58.5097 16.0465 57.505 16.7751C56.1367 15.142 53.7205 14.8522 51.8036 15.5228C50.7126 15.8767 50.0058 17.5099 50.9715 18.3564C52.4261 19.5073 54.4067 19.2568 56.0648 19.8943C57.5749 20.4573 59.1856 21.2873 59.8739 22.8459C60.591 24.5515 60.63 26.6855 59.502 28.2254C58.3905 29.7364 56.6606 30.7382 54.8443 31.1067C51.5262 31.649 47.8609 30.8272 45.457 28.3496C46.1761 27.3313 46.9938 26.3543 48.0745 25.7085C49.2128 26.9877 50.9674 27.443 52.609 27.5445C53.5828 27.5362 54.6512 27.4596 55.4504 26.8345C56.3277 26.0749 56.3154 24.5701 55.4566 23.8001C54.6718 23.1378 53.6178 22.966 52.6336 22.8397C50.9366 22.6596 49.2559 22.107 47.8465 21.1238C46.6836 20.271 46.2542 18.76 46.2583 17.3712C46.2028 15.7546 47.0925 14.2416 48.3149 13.2522ZM63.6893 11.735C65.0843 11.5259 66.504 11.5404 67.9011 11.7329C67.8991 14.2291 67.9032 16.7233 67.8991 19.2175C70.1899 19.2278 72.4807 19.2195 74.7716 19.2216C74.7695 16.7254 74.7695 14.2291 74.7716 11.735C76.1666 11.5239 77.5863 11.5425 78.9814 11.735C78.9834 18.1122 78.9834 24.4873 78.9834 30.8645C77.5863 31.0611 76.1666 31.0756 74.7716 30.8686C74.7695 28.1116 74.7716 25.3546 74.7695 22.5975C72.4807 22.5996 70.1899 22.5975 67.9011 22.5996V30.8645C66.504 31.0591 65.0822 31.0798 63.6893 30.8666C63.6913 24.4894 63.6872 18.1122 63.6893 11.735ZM89.359 11.6211C90.5835 11.5528 91.8183 11.559 93.0305 11.764C95.1344 18.1412 97.3122 24.4956 99.4325 30.8686C97.9697 31.0611 96.4863 31.0798 95.0255 30.8728C94.8324 30.376 94.6413 29.8792 94.4605 29.3804C91.9498 29.3721 89.4371 29.3783 86.9264 29.3763C87.2407 28.2979 87.5613 27.2236 87.8736 26.1452C89.7411 26.139 91.6087 26.1411 93.4784 26.1432C92.1162 21.2997 90.7232 16.4646 89.359 11.6211ZM102.391 11.8323C105.124 11.5466 107.899 11.3252 110.632 11.7226C112.364 11.9854 114.164 12.6147 115.335 13.9911C116.619 15.4421 116.792 17.6196 116.225 19.4141C115.731 20.9624 114.47 22.0946 113.091 22.8563C114.772 25.5367 116.424 28.2358 118.088 30.9245C116.549 31.0901 114.992 31.1584 113.455 30.9349C111.655 27.975 109.866 25.0089 108.08 22.0387C109.266 21.4653 110.583 20.981 111.423 19.9026C112.53 18.5779 112.317 16.1852 110.753 15.3075C109.494 14.5583 107.973 14.7425 106.58 14.817C106.576 20.1944 106.58 25.5719 106.578 30.9514C105.187 31.1129 103.78 31.1356 102.391 30.9556V11.8323Z" fill="#221E26"/>
<path d="M88.3514 11.7348C88.4993 11.7203 88.7993 11.6893 88.9493 11.6748C89.3828 13.2417 89.8471 14.8003 90.2621 16.3734C88.8897 21.2189 87.3693 26.0313 85.9373 30.8643C84.5895 31.063 83.215 31.0693 81.8672 30.8664C84.0224 24.4871 86.1879 18.112 88.3514 11.7348ZM120.988 11.7452C124.88 11.7431 128.771 11.7431 132.664 11.7452C132.872 12.8339 132.866 13.9537 132.662 15.0424C130.162 15.0466 127.661 15.0404 125.161 15.0445C125.159 16.423 125.159 17.8036 125.161 19.1821H131.111C131.326 20.2845 131.326 21.4184 131.111 22.5208C129.126 22.5208 127.144 22.5187 125.161 22.5208C125.159 24.1974 125.159 25.8739 125.161 27.5526C127.725 27.5547 130.291 27.5484 132.857 27.5547C133.061 28.6475 133.073 29.7777 132.845 30.8685C128.892 30.8602 124.939 30.8685 120.988 30.8643C120.986 24.4913 120.986 18.1182 120.988 11.7452ZM135.169 17.4083C137.137 17.4124 139.103 17.4083 141.07 17.4103C141.07 21.8978 141.074 26.3831 141.07 30.8706C139.75 31.0837 138.405 31.09 137.088 30.8706C137.096 27.4222 137.071 23.9759 137.073 20.5275C136.436 20.5296 135.802 20.5275 135.165 20.5296C134.957 19.5009 134.943 18.4349 135.169 17.4083Z" fill="#221E26"/>
</g>
<defs>
<clipPath id="clip0_182_240">
<rect width="154" height="41.8272" fill="white"/>
</clipPath>
</defs>
</svg>
