<svg width="139" height="27" viewBox="0 0 139 27" fill="none" xmlns="http://www.w3.org/2000/svg">
<g clip-path="url(#clip0_182_158)">
<path d="M10.8481 4.22959C9.21569 4.22959 8.74374 4.95806 8.74374 6.56477V9.23013H13.0978L12.6614 13.5362H8.74543V26.6044H3.52016V13.5362H0V9.23013H3.52016V6.63795C3.52016 2.29439 5.26079 6.74412e-05 10.1173 6.74412e-05C11.1349 -0.00231539 12.1519 0.0584455 13.1621 0.182182V4.2347L10.8481 4.22959Z" fill="#221E26"/>
<path d="M13.4609 17.3695C13.4609 12.5153 15.7463 8.85938 20.5351 8.85938C23.1469 8.85938 24.742 10.2108 25.5049 11.889V9.23041H30.5103V26.6047H25.5049V23.9767C24.7792 25.6566 23.1469 26.9706 20.5351 26.9706C15.7463 26.9706 13.4609 23.3198 13.4609 18.4605V17.3695ZM18.6845 18.5388C18.6845 21.1293 19.6267 22.8449 22.0575 22.8449C24.199 22.8449 25.2867 21.2756 25.2867 18.7941V17.0495C25.2867 14.568 24.199 12.9987 22.0575 12.9987C19.6267 12.9987 18.6845 14.7143 18.6845 17.3048V18.5388Z" fill="#221E26"/>
<path d="M41.3935 8.86426C43.4234 8.86426 45.3467 9.30338 46.3988 10.0318L45.2384 13.7559C44.1501 13.2344 42.9609 12.96 41.7555 12.9525C38.9255 12.9525 37.6957 14.595 37.6957 17.4067V18.4279C37.6957 21.2397 38.9289 22.8821 41.7555 22.8821C42.9609 22.8745 44.1501 22.6003 45.2384 22.0788L46.3988 25.8011C45.3467 26.5312 43.4251 26.9704 41.3935 26.9704C35.2615 26.9704 32.4688 23.648 32.4688 18.319V17.5156C32.4688 12.1866 35.2615 8.86426 41.3935 8.86426Z" fill="#221E26"/>
<path d="M47.0859 18.5804V17.0486C47.0859 12.1213 49.8787 8.87891 55.5759 8.87891C60.945 8.87891 63.303 12.1638 63.303 16.9822V19.7565H52.3078C52.4178 22.1292 53.4699 23.1878 56.3676 23.1878C58.3281 23.1878 60.3952 22.7861 61.9193 22.1292L62.8751 25.7289C61.4964 26.4608 58.6664 27.0071 56.1646 27.0071C49.5523 27.0054 47.0859 23.6865 47.0859 18.5804ZM52.3095 16.3167H58.6225V15.8793C58.6225 13.9816 57.8613 12.4753 55.5776 12.4753C53.2179 12.477 52.3095 13.9748 52.3095 16.3099V16.3167Z" fill="#221E26"/>
<path d="M82.6685 18.4656C82.6685 23.3198 80.3477 26.9757 75.5639 26.9757C72.9521 26.9757 71.1388 25.6618 70.4131 23.9819V26.6098H65.4805V0.505864L70.704 0.0292969V11.6371C71.4653 10.1053 73.1348 8.86279 75.5656 8.86279C80.3545 8.86279 82.6702 12.5136 82.6702 17.3729L82.6685 18.4656ZM77.445 17.2606C77.445 14.8148 76.5028 12.9902 73.9992 12.9902C71.8577 12.9902 70.6973 14.522 70.6973 17.0053V18.8298C70.6973 21.3114 71.8577 22.8449 73.9992 22.8449C76.5028 22.8449 77.445 21.0203 77.445 18.5745V17.2606Z" fill="#221E26"/>
<path d="M84.4141 18.3547V17.4799C84.4141 12.4777 87.2441 8.86426 93.0123 8.86426C98.7806 8.86426 101.612 12.4777 101.612 17.4799V18.3547C101.612 23.3553 98.7823 26.9704 93.014 26.9704C87.2458 26.9704 84.4141 23.3553 84.4141 18.3547ZM96.387 17.114C96.387 14.8145 95.4431 12.99 93.0039 12.99C90.5646 12.99 89.6292 14.8145 89.6292 17.114V18.7207C89.6292 21.0201 90.5731 22.8447 93.0039 22.8447C95.4347 22.8447 96.387 21.0201 96.387 18.7207V17.114Z" fill="#221E26"/>
<path d="M103.352 18.3547V17.4799C103.352 12.4777 106.182 8.86426 111.95 8.86426C117.718 8.86426 120.548 12.4777 120.548 17.4799V18.3547C120.548 23.3553 117.718 26.9704 111.95 26.9704C106.182 26.9704 103.352 23.3553 103.352 18.3547ZM115.325 17.114C115.325 14.8145 114.381 12.99 111.95 12.99C109.519 12.99 108.577 14.8145 108.577 17.114V18.7207C108.577 21.0201 109.519 22.8447 111.95 22.8447C114.381 22.8447 115.325 21.0201 115.325 18.7207V17.114Z" fill="#221E26"/>
<path d="M127.729 17.5159L132.88 9.23043H138.43L133.025 17.8086L138.648 26.6047H133.098L127.729 18.0946V26.6047H122.504V0.505864L127.729 0.0292969V17.5159Z" fill="#221E26"/>
</g>
<defs>
<clipPath id="clip0_182_158">
<rect width="138.649" height="27" fill="white"/>
</clipPath>
</defs>
</svg>
