<svg width="116" height="48" viewBox="0 0 116 48" fill="none" xmlns="http://www.w3.org/2000/svg">
<path d="M46.8652 11.097C46.8652 11.097 47.3093 10.444 47.6821 9.94709C48.3617 9.0436 49.5901 7.79102 50.5137 7.01484C50.7985 6.77869 51.1305 6.50867 51.1305 6.50867C51.1305 6.50867 50.608 6.56206 50.3137 6.62161C49.6121 6.75611 48.5827 7.42654 48.0674 7.85981C47.2192 8.57029 46.2872 9.7284 46.7071 10.7551C46.77 10.903 46.8652 11.097 46.8652 11.097ZM51.5819 12.3342C52.9223 12.2459 54.1789 11.865 55.3466 11.2315C56.4932 10.6032 58.1782 9.37727 58.0065 7.93373C57.951 7.46864 57.641 7.11545 57.2472 6.95015C56.7341 6.73147 56.4681 6.77048 55.8136 6.95837C55.3403 7.09594 55.1277 7.17809 54.6805 7.42963C53.3632 8.17912 51.5002 9.7818 50.4875 11.0621C50.253 11.3619 50.0163 11.6997 49.833 11.9297C49.7136 12.0703 49.6246 12.2028 49.6351 12.2387C49.6749 12.3855 51.0572 12.3711 51.5819 12.3342ZM48.1669 14.7931C48.0297 14.9338 47.8842 15.2829 47.7313 15.5344C47.6507 15.6679 47.4999 15.8404 47.4014 15.9081C47.0527 16.1597 46.7584 16.1709 46.4191 15.8804C45.9479 15.4738 45.6756 14.8383 45.6557 14.2223C45.6453 13.9522 45.6903 13.6576 45.6411 13.4276C45.5541 13.0457 45.1625 12.6535 44.9531 12.2869C44.7059 11.8526 44.5059 11.1021 44.4818 10.6175C44.3949 9.10417 45.2096 7.71197 46.2673 6.61134C47.3313 5.49943 48.723 4.5754 50.2383 3.94808C51.6688 3.35465 53.7674 2.95219 55.3392 3.4871C55.8492 3.65958 56.5634 4.08669 56.9215 4.53125C56.9969 4.62571 57.0598 4.72837 57.1383 4.77663C57.2064 4.81975 57.3896 4.83721 57.5352 4.86288C58.0379 4.94809 58.7604 5.31976 59.0547 5.56719C59.6443 6.06924 59.971 6.54871 60.1208 7.24379C60.4223 8.64113 59.6013 10.176 58.6662 11.1083C57.0629 12.7171 55.4806 13.8455 53.4302 14.634C52.5317 14.979 51.1295 15.3003 50.1074 15.21C49.7911 15.1843 49.4634 15.1032 49.1555 15.0806C48.9994 15.0672 48.4224 14.9245 48.3617 14.8794C48.2853 14.8249 48.1879 14.7736 48.1669 14.7931ZM49.9985 17.8937C50.0603 17.905 50.1577 17.9328 50.2404 17.9615C50.9588 18.2305 51.2541 18.8835 51.4311 19.5981C51.8416 21.2613 52.0175 24.9379 52.0845 26.3805C52.1348 27.4585 52.162 28.5252 52.2081 29.592C52.2468 30.4965 52.3201 31.6998 52.1295 32.5489C52.0594 32.8538 51.852 33.2049 51.5536 33.3887C51.2111 33.6023 50.4352 33.6187 50.009 33.5324C48.9565 33.3189 48.6141 32.6556 48.4654 31.6361C48.1083 29.2018 48.279 24.4246 48.4905 22.4082C48.5586 21.7459 48.8162 19.6124 49.1712 18.7192C49.2906 18.4153 49.5492 17.8075 49.9985 17.8937ZM17.5854 21.5467C17.5854 21.5467 16.0272 21.6546 14.957 21.7716C13.5924 21.9143 11.0299 22.3486 9.55338 22.8691C9.10832 23.0211 8.20668 23.3917 8.12814 23.8373C8.04855 24.3034 8.33967 24.6638 8.66745 25.0406C8.85594 25.2572 9.92409 26.2644 10.2225 26.5098C11.4781 27.5355 14.0229 29.1217 15.9005 29.8918C16.5414 30.1536 17.6074 30.5273 17.6074 30.5273C17.6074 30.5273 17.5278 27.5529 17.5435 24.6238C17.5498 23.0755 17.5854 21.5467 17.5854 21.5467ZM46.1333 22.7305C46.2233 23.5293 46.0118 25.0406 45.9772 25.2398C45.9102 25.6987 45.5562 26.7573 45.4997 26.8876C45.2138 27.5293 44.9342 28.0601 44.6347 28.5848C44.1237 29.4862 42.911 30.9144 42.1884 31.5252C39.5097 33.7963 35.3607 35.0899 31.8002 35.516C29.3864 35.8025 26.6113 35.7583 24.0509 35.2953C23.1712 35.1362 21.8622 34.8425 21.8622 34.8425C21.8622 34.8425 21.8654 35.3559 21.8224 35.7183C21.8025 35.8805 21.6748 36.3158 21.6046 36.4565C21.4172 36.8333 21.1124 37.0273 20.6695 37.1095C20.1333 37.2101 19.5646 37.2399 19.0683 37.0345C18.2556 36.6967 17.9624 35.9493 17.8221 35.093C17.7069 34.4031 17.5865 33.2049 17.5865 33.2049C17.5865 33.2049 16.9791 32.9236 16.4712 32.6752C14.913 31.9216 13.4312 31.0119 12.1379 30.0714C11.7797 29.8117 10.2383 28.5447 9.89687 28.2285C8.94286 27.3445 8.08521 26.4595 7.43176 25.326C6.92386 24.441 6.7783 23.6535 7.16367 22.7162C7.69774 21.4092 9.60888 20.4225 10.9179 19.8609C11.8803 19.4451 14.8659 18.4892 16.1078 18.3126C16.6932 18.2305 17.6022 18.0724 17.6577 18.0354C17.6807 18.019 17.6975 18.0046 17.7132 17.9851C17.7415 17.9451 17.7896 16.6494 17.7802 16.1771C17.7697 15.711 18.1321 12.6545 18.2483 12.0087C18.3111 11.6565 18.5813 10.3105 18.8578 9.95839C19.0369 9.72019 19.3563 9.73662 19.616 9.89576C21.0391 10.7613 21.4706 13.7715 21.5763 15.3034C21.6402 16.2356 21.6716 17.6391 21.6716 17.6391C21.6716 17.6391 23.3042 17.5929 24.3095 17.6186C25.2845 17.6422 26.36 17.7942 27.3736 17.9523C28.6711 18.1535 31.1991 18.6946 32.6484 19.4163C33.8433 20.0088 34.9596 21.0098 35.3209 22.0683C35.6581 23.0385 35.6068 23.708 35.0947 24.5837C34.5198 25.5735 33.4296 26.3065 32.3248 26.3671C31.995 26.3887 30.7582 26.2264 30.3781 25.9379C30.2273 25.8209 30.2357 25.6135 30.3446 25.4728C30.3854 25.4215 30.9624 25.1248 31.3048 24.9462C31.4755 24.8548 31.618 24.7572 31.7499 24.6381C32.0348 24.3907 32.2892 24.1217 32.2609 23.8075C32.2211 23.3969 31.7803 23.1433 31.3572 22.981C29.378 22.211 25.4258 21.5693 23.5137 21.4585C22.7659 21.4153 21.7041 21.3784 21.7041 21.3784L21.9282 31.7193C21.9282 31.7193 22.8078 31.8846 23.5 31.9955C23.899 32.053 25.5829 32.2018 26.0301 32.2131C29.4387 32.3014 33.2432 32.0037 36.3712 30.553C37.7441 29.9195 39.0039 29.132 39.9568 28.0653C41.2156 26.6494 41.8743 24.7172 41.6994 22.6987C41.5078 20.4892 39.9233 17.8732 38.6604 16.2787C35.3188 12.0641 29.5916 8.60109 24.5546 6.57028C19.4097 4.49737 14.3265 3.3023 8.86537 3.10312C7.45898 3.05383 4.38857 3.12365 2.83976 3.54459C2.61566 3.60517 2.39365 3.67909 2.18735 3.72221C2.02399 3.76123 1.77056 3.86698 1.69935 3.92139C1.66165 3.95527 1.62081 3.99532 1.62081 3.99532C1.62081 3.99532 1.71716 4.04665 1.80827 4.08669C1.97268 4.15753 2.66487 4.19757 3.02302 4.26123C3.34137 4.32078 3.67752 4.48813 3.80738 4.71914C3.93304 4.93679 3.95085 5.10825 3.799 5.28998C3.44714 5.71195 2.12348 5.63803 1.54228 5.54974C0.936995 5.45323 0.184055 5.27356 0.0447764 4.7561C-0.114399 4.14727 0.177767 3.55075 0.497164 2.99839C1.13805 1.89468 2.05331 1.31973 3.39792 0.961411C5.30383 0.448063 7.71136 0.0876884 9.51255 0.019928C13.5893 -0.128944 17.4462 0.567162 21.3941 1.74479C23.654 2.41317 26.6155 3.5374 28.78 4.56102C30.332 5.29409 32.7825 6.64728 34.1585 7.53127C34.592 7.81156 37.1315 9.64011 37.5252 9.96147C38.3483 10.6206 39.4259 11.5682 40.2029 12.327C41.7109 13.7921 43.5865 16.0365 44.4996 17.8167C44.7164 18.2459 44.8881 18.6658 45.1688 19.1597C45.2662 19.3281 45.684 20.3424 45.7531 20.6361C45.8212 20.9256 45.9217 21.3517 45.9364 21.3671C45.9573 21.5242 46.1479 22.3927 46.1333 22.7305ZM63.6949 23.4821C63.7713 23.4893 63.7902 23.4923 63.8603 23.5026C65.1086 23.6689 66.3317 23.8887 67.2669 24.2993C68.135 24.6772 68.646 25.1515 69.1099 26.0006C69.8168 27.287 69.8639 29.0868 69.2251 30.4503C68.7466 31.4636 67.6994 32.3148 66.7443 32.7665C65.7484 33.2388 64.7735 33.4626 63.6509 33.5879C61.6926 33.7984 59.571 33.4021 57.8054 32.5643C56.7613 32.0643 55.4858 31.2039 54.8418 30.094C54.3685 29.2788 54.3831 28.2224 54.9601 27.4503C55.8764 26.2203 57.8399 25.9492 59.3217 26.0006C60.4506 26.0416 62.4801 26.3856 63.5535 26.7573C63.8519 26.863 64.9463 27.2819 65.1369 27.4708C65.2709 27.6063 65.3599 27.7983 65.2992 27.9801C65.052 28.7141 63.2351 29.1012 62.7105 29.1782C61.302 29.3887 60.5731 28.8681 58.9741 28.249C58.5772 28.0971 58.0483 27.9287 57.642 27.8918C56.9174 27.824 56.0409 28.0201 55.9037 28.7994C55.8325 29.2008 56.3121 29.5745 56.6775 29.7295C57.5352 30.094 58.2326 30.2224 59.0788 30.2357C61.5701 30.2727 64.3714 29.8712 66.4124 28.4544C66.6941 28.2603 66.9663 27.9729 66.9705 27.6125C66.9705 27.5663 66.9035 27.1782 66.7757 27.1382C66.7569 27.1299 66.737 27.1392 66.7223 27.1361C66.6752 27.1228 66.5967 26.9965 66.5307 26.9133C66.3841 26.7377 65.7924 26.4883 65.6762 26.44C64.3022 25.8784 61.7638 25.6053 60.4538 25.4995C59.0819 25.3846 56.9236 25.2059 56.4042 25.132C55.8712 25.0581 55.291 24.9544 54.8271 24.7501C54.3653 24.5447 53.9108 24.0847 53.7747 23.5765C53.5359 22.6587 53.8428 21.5313 54.3622 20.7962C55.7256 18.8742 58.9154 18.1463 61.302 17.8568C63.6111 17.5744 67.3433 17.5775 69.6105 18.7593C69.9613 18.942 70.1414 19.1135 70.0661 19.481C69.9194 20.1699 69.3875 20.6135 68.7497 20.8086C68.0795 21.018 66.6899 21.0991 66.0804 21.1361C63.3461 21.287 60.0422 21.2079 57.4399 21.9051C57.2357 21.9626 56.8839 22.0519 56.7676 22.1792C56.3602 22.6125 57.5247 22.7357 57.775 22.7891C57.8483 22.8034 57.864 22.8065 57.9405 22.8137L63.6949 23.4821ZM72.2243 33.5078C71.1206 33.1105 70.8703 31.363 70.819 30.479C70.6441 27.6012 71.4201 23.5971 72.4055 20.8999C72.6872 20.132 73.0925 18.8773 73.969 18.9482C74.5722 19.0005 75.0026 19.4564 75.3408 19.9246C76.2058 21.1207 77.3431 22.7418 78.0971 23.8702C78.9401 25.1351 79.7495 26.4092 80.5454 27.5622C80.6428 27.7018 80.735 27.8373 80.8418 27.9236C80.9863 28.0375 81.1161 28.0437 81.1748 27.938C81.202 27.8969 81.1497 26.4431 81.113 26.1515C81.0512 25.6874 81.0229 25.3117 80.9695 24.9112C80.8229 23.748 80.4449 22.1114 80.1485 21.0047C79.8218 19.7665 79.4228 18.4759 79.1244 17.2777C79.0291 16.8886 78.9401 16.4954 78.9432 16.1247C78.9463 15.5888 79.2972 15.2921 79.8668 15.4923C80.9894 15.8804 82.4775 18.2695 82.9111 19.0991C83.0587 19.3794 83.6431 20.8044 83.774 21.2038C84.24 22.5724 84.5217 23.8702 84.6505 25.362C84.774 26.8117 84.6704 28.9236 84.0452 30.3528C83.8158 30.8784 83.3446 31.5858 82.9529 31.9421C82.3382 32.5006 81.113 32.937 80.269 32.4647C79.3453 31.9513 77.8279 29.3743 77.5693 28.9339C76.6886 27.4267 75.1732 24.479 74.9387 24.1484C74.8874 24.0755 74.8204 24.0057 74.7031 23.9708C74.6141 23.9451 74.5784 24.1268 74.5554 24.2449C74.4046 25.1032 74.3009 29.1176 74.2988 29.2295C74.2737 29.9051 74.2402 31.5622 74.0412 32.3784C73.9114 32.9113 73.7794 33.3487 73.2799 33.5725C72.9249 33.7296 72.6547 33.6639 72.2243 33.5078ZM87.4402 33.2511C87.3208 33.1618 87.1282 32.9688 86.9878 32.8138C86.9658 32.7922 86.5689 32.209 86.4904 32.0294C86.4213 31.8743 86.3689 31.7624 86.3186 31.6331C85.9574 30.7183 85.9668 29.8178 86.1668 28.8353C86.3522 27.9184 86.5281 27.8784 87.0077 26.6197C87.0381 26.5509 87.0527 26.4913 87.0632 26.4154C87.0831 26.2429 86.7983 25.0827 86.7815 24.71C86.7616 24.1412 87.2119 23.7377 87.9659 23.6597C88.035 23.6535 88.0863 23.6546 88.1366 23.6402C88.4372 23.5683 88.6298 23.0036 88.7942 22.5509C89.0236 21.9143 89.3817 20.9441 89.3817 20.9441C89.3817 20.9441 88.4288 20.7285 87.9188 20.5396C87.3491 20.3291 86.9187 20.057 86.6611 19.5447C86.3522 18.9451 86.5553 18.6124 87.1941 18.4184C87.4287 18.3445 89.2781 17.9964 89.8624 17.9153C90.5912 17.8106 91.2772 17.7213 91.9704 17.6371C92.5736 17.5652 95.3403 17.251 96.221 17.2736C97.5635 17.3116 98.4348 17.8537 99.2192 18.9677C99.6412 19.5621 99.9292 20.2685 99.2925 20.6515C98.3144 21.2336 95.1455 21.2778 94.5644 21.2839C93.6397 21.2932 92.361 21.2778 92.361 21.2778L91.716 23.3917C91.716 23.3917 93.9863 23.3681 95.2618 23.363C95.5718 23.363 95.8817 23.3794 96.0556 23.4153C96.7069 23.557 96.9321 24.0478 96.9583 24.7552C96.9939 25.5827 96.8347 25.9636 96.1624 26.0745C95.8147 26.1289 91.9149 26.1515 91.3861 26.2121C91.0562 26.247 90.7075 26.2983 90.7075 26.2983C90.7075 26.2983 90.4258 27.0191 90.1807 27.747C89.9336 28.5057 89.7221 29.2788 89.7221 29.2788C89.7221 29.2788 89.92 29.287 90.0844 29.287C90.3588 29.2891 90.6373 29.2501 90.8551 29.2131C92.0448 28.9996 93.8135 28.7429 95.2649 28.5191C96.0451 28.3969 96.4378 28.3425 96.8483 28.8497C97.2033 29.2983 97.3876 29.6741 97.4127 30.2162C97.4347 30.7265 97.0378 31.0643 96.553 31.4277C95.0188 32.5776 92.3966 33.824 90.4425 34.0376C89.5398 34.1372 89.3199 34.0386 88.5293 33.8363C88.3785 33.7984 87.8319 33.5478 87.8371 33.5212C87.8371 33.5212 87.5407 33.3281 87.4402 33.2511ZM112.096 22.6268C111.09 23.4523 109.792 25.1351 109.172 26.0088C108.343 27.1669 107.564 28.4934 106.819 29.5211C106.659 29.7521 106.178 30.5786 106.195 30.6063C106.228 30.6649 106.712 30.6464 107.209 30.5643C108.268 30.3897 109.708 29.6608 110.477 29.0591C111.648 28.1382 112.464 26.8733 112.85 25.3938C113.02 24.7213 113.107 23.3116 112.621 22.6843C112.526 22.5642 112.283 22.4698 112.096 22.6268ZM104.112 34.7132C104.112 34.7132 103.793 35.629 103.56 36.3477C103.157 37.5879 102.27 40.9278 102.064 41.9658C101.755 43.5058 100.876 47.5418 100.831 47.628C100.769 47.7451 100.728 47.782 100.579 47.8754C100.217 48.0839 100.072 48.0151 99.6328 47.7851C99.0631 47.4915 98.5626 47.1917 98.1353 46.6383C97.2766 45.5448 97.4819 43.4873 97.6494 42.2799C98.239 38.0571 98.8348 36.1998 100.474 31.9965C100.501 31.9246 100.501 31.9082 100.467 31.8446C99.9564 30.7778 99.681 29.4893 99.681 28.4482C99.6852 25.1535 101.616 21.8938 103.782 19.2757C103.945 19.0765 105.008 17.828 105.491 17.8527C105.975 17.8753 106.053 18.4287 105.981 18.8907C105.738 20.4122 104.646 21.9626 103.899 23.2459C103.059 24.6802 102.877 25.2706 102.467 26.5858C102.401 26.7911 102.236 27.7521 102.243 27.8753C102.26 28.2285 102.339 28.6741 102.339 28.6741C102.339 28.6741 103.704 26.7993 104.606 25.6423C105.098 25.0067 105.452 24.5868 105.863 24.134C106.278 23.6741 107.88 22.0426 108.34 21.6125C109.309 20.7059 109.738 20.3291 110.786 19.7962C111.616 19.3753 112.362 19.2706 113.171 19.7952C114.455 20.6217 115.014 22.3702 115.159 23.788C115.327 25.4821 114.974 27.3876 114.212 28.8384C113.308 30.5694 112.074 31.8158 110.395 32.9062C108.679 34.0212 106.665 34.7799 104.69 34.7347C104.423 34.7286 104.112 34.7132 104.112 34.7132Z" fill="#221E26"/>
</svg>
