<svg width="116" height="26" viewBox="0 0 116 26" fill="none" xmlns="http://www.w3.org/2000/svg">
<g clip-path="url(#clip0_182_169)">
<path d="M0.917969 0.402344H20.1343L18.37 5.90962H13.3871V26.0005H7.15253V5.90962H0.92989L0.917969 0.402344Z" fill="#221E26"/>
<path d="M51.6055 0.402344H71.2628L69.4986 5.90962H64.0865V26.0005H57.8639V5.90962H51.6174L51.6055 0.402344Z" fill="#221E26"/>
<path d="M21.3008 8.54492H27.4638V26.0004H21.3485L21.3008 8.54492Z" fill="#221E26"/>
<path d="M29.9102 0.331055H36.0613V12.2556L42.1647 6.34651H49.5079L41.7952 13.7683L50.4377 26.0001H43.6548L37.8852 17.5029L36.0613 19.252V26.0001H29.9102V0.331055Z" fill="#221E26"/>
<path d="M95.1055 0.331055H101.328V12.2556L107.42 6.34651H114.763L107.05 13.7683L115.633 26.0001H108.85L103.092 17.5029L101.328 19.252V26.0001H95.1651L95.1055 0.331055Z" fill="#221E26"/>
<path d="M24.3885 6.5478C26.1002 6.5478 27.4879 5.17209 27.4879 3.47507C27.4879 1.77805 26.1002 0.402344 24.3885 0.402344C22.6767 0.402344 21.2891 1.77805 21.2891 3.47507C21.2891 5.17209 22.6767 6.5478 24.3885 6.5478Z" fill="#221E26"/>
<path d="M70.4245 15.5533C70.4085 20.7605 74.2334 25.1443 79.3365 25.9507H79.3362H79.3345H79.3329H79.3312H79.3295H79.3278H79.3261H79.3245H79.3228H79.3211H79.3195H79.3178H79.3161H79.3145H79.3128H79.3112H79.3095H79.3079H79.3062H79.3046H79.3029H79.3013H79.2996H79.298H79.2963H79.2947H79.2931H79.2914H79.2898H79.2882H79.2865H79.2849H79.2833H79.2817H79.2801H79.2784H79.2768H79.2752H79.2736H79.2735C73.7281 25.6293 69.3977 21.0774 69.3977 15.5711C69.3977 10.0649 73.7281 5.51302 79.2734 5.1916H79.2736H79.2752H79.2768H79.2784H79.2801H79.2817H79.2833H79.2849H79.2865H79.2882H79.2898H79.2914H79.2931H79.2947H79.2963H79.298H79.2996H79.3013H79.3029H79.3046H79.3062H79.3079H79.3095H79.3112H79.3128H79.3145H79.3161H79.3178H79.3195H79.3211H79.3228H79.3245H79.3261H79.3278H79.3295H79.3312H79.3329H79.3345H79.3362H79.3366C74.2466 5.99599 70.4263 10.3598 70.4245 15.5533ZM70.4245 15.5533C70.4245 15.5533 70.4245 15.5533 70.4245 15.5533L70.4745 15.5534L70.4245 15.5534C70.4245 15.5534 70.4245 15.5534 70.4245 15.5533Z" stroke="#221E26" stroke-width="0.1"/>
<path d="M82.5861 5.15607H82.6361V5.10607V5.08527C88.4058 5.11197 93.074 9.75711 93.074 15.4824C93.074 21.2243 88.3788 25.8797 82.5861 25.8797H82.5844H82.5827H82.581H82.5793H82.5777H82.576H82.5743H82.5726H82.5709H82.5692H82.5675H82.5658H82.5641H82.5624H82.5607H82.559H82.5573H82.5556H82.5539H82.5522H82.5505H82.5487H82.547H82.5453H82.5436H82.5419H82.5401H82.5384H82.5367H82.535H82.5332H82.5315H82.5298H82.528H82.5263H82.5245H82.5228H82.5211H82.5193H82.5176H82.5158H82.5141H82.5123H82.5106H82.5088H82.5071H82.5053H82.5036H82.5018H82.5H82.4983H82.4965H82.4947H82.493H82.4912H82.4894H82.4877H82.4869C87.5694 25.0654 91.3768 20.7032 91.3768 15.5179C91.3768 10.3325 87.5694 5.97036 82.4869 5.15607H82.4877H82.4894H82.4912H82.493H82.4947H82.4965H82.4983H82.5H82.5018H82.5036H82.5053H82.5071H82.5088H82.5106H82.5123H82.5141H82.5158H82.5176H82.5193H82.5211H82.5228H82.5245H82.5263H82.528H82.5298H82.5315H82.5332H82.535H82.5367H82.5384H82.5401H82.5419H82.5436H82.5453H82.547H82.5487H82.5505H82.5522H82.5539H82.5556H82.5573H82.559H82.5607H82.5624H82.5641H82.5658H82.5675H82.5692H82.5709H82.5726H82.5743H82.576H82.5777H82.5793H82.581H82.5827H82.5844H82.5861Z" stroke="#221E26" stroke-width="0.1"/>
<path d="M80.9169 20.6346C78.0859 20.6346 75.7909 18.3594 75.7909 15.5527C75.7909 12.7461 78.0859 10.4709 80.9169 10.4709C83.7479 10.4709 86.0428 12.7461 86.0428 15.5527C86.0363 18.3567 83.7451 20.6281 80.9169 20.6346ZM80.9169 5.10547C75.0969 5.10547 70.3789 9.78287 70.3789 15.5527C70.3789 21.3226 75.0969 26 80.9169 26C86.7368 26 91.4548 21.3226 91.4548 15.5527C91.4548 12.782 90.3446 10.1246 88.3683 8.1654C86.3921 6.20616 83.7117 5.10547 80.9169 5.10547Z" fill="#221E26"/>
</g>
<defs>
<clipPath id="clip0_182_169">
<rect width="115.632" height="26" fill="white"/>
</clipPath>
</defs>
</svg>
