<svg width="151" height="35" viewBox="0 0 151 35" fill="none" xmlns="http://www.w3.org/2000/svg">
<g clip-path="url(#clip0_182_136)">
<path d="M37.5742 26.0772V2.90527H51.276V5.81041H40.4115V12.9349H50.1688V15.8401H40.4115V23.1029H52.0372V26.008H37.5742V26.0772Z" fill="#221E26"/>
<path d="M66.4305 26.077L61.7249 19.9209L57.0192 26.077H53.6976L60.1333 17.8458L53.3516 9.33789H57.0884L61.7249 15.7015L66.4305 9.33789H70.0982L63.6625 17.8458L69.7522 26.077H66.4305Z" fill="#221E26"/>
<path d="M74.3216 23.5879V35.0009H71.4844V17.9159C71.4844 13.5582 74.806 8.92383 79.9961 8.92383C85.2554 8.92383 89.1998 12.244 89.1998 17.7084C89.1998 23.0345 85.1862 26.7005 80.6189 26.7005C78.4045 26.7005 75.4288 25.7321 74.3216 23.5879ZM86.2242 17.7084C86.2242 13.9732 83.8022 11.7598 79.5117 11.9673C77.4357 12.0365 74.2524 13.5582 74.5292 18.8843C74.5984 20.6135 76.3976 23.8645 80.3421 23.8645C83.7329 23.8645 86.2242 21.9278 86.2242 17.7084Z" fill="#221E26"/>
<path d="M91.6211 26.0772V9.33804H94.4583V11.1365C95.8424 9.54554 97.9876 8.99219 100.271 8.99219V12.0357C99.9252 11.9665 96.5344 11.5515 94.4583 15.9783V26.1463H91.6211V26.0772Z" fill="#221E26"/>
<path d="M101.031 17.7084C101.031 12.8665 104.491 8.92383 109.266 8.92383C115.217 8.92383 117.432 12.8665 117.432 17.9159V19.2993H104.145C104.353 22.4811 107.19 24.1412 109.82 24.072C111.757 24.0029 113.072 23.4495 114.456 22.0661L116.325 24.0029C114.595 25.6629 112.38 26.7697 109.681 26.7697C104.63 26.7005 101.031 22.9653 101.031 17.7084ZM109.059 11.7598C106.36 11.7598 104.284 14.1116 104.145 16.6709H114.456C114.456 14.1807 112.657 11.7598 109.059 11.7598Z" fill="#221E26"/>
<path d="M118.883 23.7248L120.959 21.8572C120.89 21.8572 121.997 22.9639 122.135 23.0331C122.62 23.4481 123.104 23.7248 123.727 23.8632C125.526 24.3474 128.779 24.209 129.055 21.7189C129.194 20.3355 128.156 19.5746 126.979 19.0904C125.457 18.5371 123.796 18.3296 122.274 17.6379C120.544 16.877 119.436 15.5628 119.436 13.626C119.436 8.5766 126.633 7.74656 129.886 10.0983C130.024 10.2367 131.616 11.6892 131.547 11.6892L129.471 13.3493C128.433 12.1043 127.464 11.4817 125.249 11.4817C124.142 11.4817 122.62 11.9659 122.343 13.1418C121.928 14.8019 123.796 15.4244 125.042 15.7703C126.703 16.1853 128.502 16.462 129.955 17.3612C131.962 18.6062 132.446 21.3039 131.685 23.379C130.855 25.6616 128.363 26.5608 126.149 26.63C123.519 26.7683 121.236 25.9383 119.367 24.0707C119.229 24.0707 118.883 23.7248 118.883 23.7248Z" fill="#221E26"/>
<path d="M133.484 23.7248L135.56 21.8572C135.491 21.8572 136.598 22.9639 136.737 23.0331C137.221 23.4481 137.706 23.7248 138.328 23.8632C140.128 24.3474 143.38 24.209 143.657 21.7189C143.795 20.3355 142.757 19.5746 141.581 19.0904C140.058 18.5371 138.398 18.3296 136.875 17.6379C135.145 16.877 134.038 15.5628 134.038 13.626C134.038 8.5766 141.235 7.74656 144.487 10.0983C144.626 10.2367 146.217 11.6892 146.148 11.6892L144.072 13.3493C143.034 12.1043 142.065 11.4817 139.851 11.4817C138.744 11.4817 137.221 11.9659 136.944 13.1418C136.529 14.8019 138.398 15.4244 139.643 15.7703C141.304 16.1853 143.103 16.462 144.557 17.3612C146.563 18.6062 147.048 21.3039 146.287 23.379C145.456 25.6616 142.965 26.5608 140.75 26.63C138.121 26.7683 135.837 25.9383 133.969 24.0707C133.83 24.0707 133.484 23.7248 133.484 23.7248Z" fill="#221E26"/>
<path d="M146.982 9.33763V7.53921H146.359V7.19336H148.02V7.53921H147.397V9.33763H146.982Z" fill="#221E26"/>
<path d="M150.097 9.33763V7.67755L149.474 9.33763H149.336L148.713 7.67755V9.33763H148.367V7.19336H148.921L149.474 8.64593L150.028 7.19336H150.582V9.33763H150.097Z" fill="#221E26"/>
<path d="M18.3383 26.0772L16.2622 20.5436H5.05168L2.97565 26.0772H0L8.99613 2.90527H12.2486L21.1755 26.0772H18.3383ZM10.5186 6.22543L6.2973 17.7076H15.0858L10.5186 6.22543Z" fill="#221E26"/>
<path d="M23.043 26.0772V2.90527H25.9494V26.0772H23.043Z" fill="#221E26"/>
<path d="M30.3086 26.0769V9.68359H33.215V26.0769H30.3086Z" fill="#221E26"/>
<path d="M35.9833 4.3577C35.9833 4.28853 35.9833 4.28853 35.9833 4.21936C35.9833 4.15019 35.9833 4.15019 35.9833 4.08102C33.7688 4.01185 31.9696 2.21344 31.9004 0C31.8312 0 31.762 0 31.6928 0C31.6236 0 31.5544 0 31.4852 0C31.416 2.21344 29.6168 4.01185 27.4023 4.08102C27.4023 4.15019 27.4023 4.15019 27.4023 4.21936C27.4023 4.28853 27.4023 4.28853 27.4023 4.3577C29.6168 4.42687 31.416 6.22529 31.4852 8.43873C31.5544 8.43873 31.6236 8.43873 31.6928 8.43873C31.762 8.43873 31.8312 8.43873 31.9004 8.43873C31.9696 6.22529 33.7688 4.42687 35.9833 4.3577Z" fill="#221E26"/>
</g>
<defs>
<clipPath id="clip0_182_136">
<rect width="150.581" height="35" fill="white"/>
</clipPath>
</defs>
</svg>
