<svg width="184" height="33" viewBox="0 0 184 33" fill="none" xmlns="http://www.w3.org/2000/svg">
<path d="M63.3997 26.6939L61.9772 22.4919H54.1238C53.9075 23.1409 53.6781 23.8489 53.4421 24.6093L52.7931 26.6939H48.9844L56.0183 7.21777H60.1024L66.9528 26.6939H63.3997ZM58.0374 11.4526C57.5654 12.7768 57.1065 14.0551 56.6739 15.3006C56.2412 16.5461 55.7627 17.8638 55.2514 19.2666H60.8497L58.0374 11.4526Z" fill="#221E26"/>
<path d="M78.376 7.2832H71.2109V26.7397H74.5214V20.1122H78.376C82.3027 20.1122 84.2103 18.4602 84.2103 15.0579V12.3047C84.2103 8.92206 82.3027 7.2832 78.376 7.2832ZM74.5214 10.3446H78.2973C80.5393 10.3446 80.8999 10.9346 80.8999 12.3374V15.0645C80.8999 16.4411 80.5262 17.0573 78.2973 17.0573H74.5214V10.3446Z" fill="#221E26"/>
<path d="M95.2041 7.2832H88.0391V26.7397H91.3496V20.1122H95.2041C99.1308 20.1122 101.038 18.4602 101.038 15.0579V12.3047C101.038 8.92206 99.1308 7.2832 95.2041 7.2832ZM91.3496 10.3446H95.1255C97.3674 10.3446 97.728 10.9346 97.728 12.3374V15.0645C97.728 16.4411 97.3543 17.0573 95.1255 17.0573H91.3496V10.3446Z" fill="#221E26"/>
<path d="M110.831 24.7936H119.819V26.7405H108.871V7.30371H110.831V24.7936Z" fill="#221E26"/>
<path d="M137.033 21.0837C137.033 24.3221 135.02 26.9836 129.999 26.9836C124.977 26.9836 122.965 24.3286 122.965 21.0837V12.8501C122.965 9.6117 124.977 6.9502 129.999 6.9502C135.02 6.9502 137.033 9.60514 137.033 12.8501V21.0837ZM124.787 21.1099C124.787 23.9025 126.492 25.4693 130.071 25.4693C133.65 25.4693 135.348 23.9025 135.348 21.1099V12.8239C135.348 10.0312 133.644 8.4645 130.071 8.4645C126.492 8.4645 124.787 10.0312 124.787 12.8239V21.1099Z" fill="#221E26"/>
<path d="M140.016 7.30371H141.963L148.249 24.7936L154.549 7.30371H156.542L149.554 26.7471H146.971L140.016 7.30371Z" fill="#221E26"/>
<path d="M162.577 26.7471H160.617V7.30371H162.577V26.7471Z" fill="#221E26"/>
<path d="M171.967 9.644V26.7471H170.125V7.30371H173.016L181.479 23.9414V7.30371H183.321V26.7471H180.981L171.967 9.644Z" fill="#221E26"/>
<path d="M34.2985 24.1758C31.8665 24.1758 29.8867 26.1555 29.8867 28.5876C29.8867 31.0196 31.8665 32.9994 34.2985 32.9994C36.7306 32.9994 38.7103 31.0196 38.7103 28.5876C38.7103 26.1621 36.7306 24.1758 34.2985 24.1758ZM36.9076 28.5941C36.9076 30.0363 35.7342 31.2032 34.2985 31.2032C32.8563 31.2032 31.6895 30.0298 31.6895 28.5941C31.6895 27.1519 32.8629 25.9851 34.2985 25.9851C35.7342 25.9851 36.9076 27.1519 36.9076 28.5941Z" fill="#221E26"/>
<path d="M4.4118 24.1758C1.97974 24.1758 0 26.1555 0 28.5876C0 31.0196 1.97974 32.9994 4.4118 32.9994C6.84386 32.9994 8.8236 31.0196 8.8236 28.5876C8.8236 26.1621 6.84386 24.1758 4.4118 24.1758ZM7.02086 28.5941C7.02086 30.0363 5.84744 31.2032 4.4118 31.2032C2.96961 31.2032 1.80274 30.0298 1.80274 28.5941C1.80274 27.1519 2.97616 25.9851 4.4118 25.9851C5.84744 25.9851 7.02086 27.1519 7.02086 28.5941Z" fill="#221E26"/>
<path d="M19.3493 0C16.9172 0 14.9375 1.97974 14.9375 4.4118C14.9375 6.84386 16.9172 8.8236 19.3493 8.8236C21.7814 8.8236 23.7611 6.84386 23.7611 4.4118C23.7611 1.97974 21.7814 0 19.3493 0ZM21.9584 4.41835C21.9584 5.86055 20.7849 7.02741 19.3493 7.02741C17.9071 7.02741 16.7402 5.85399 16.7402 4.41835C16.7402 2.97616 17.9137 1.8093 19.3493 1.8093C20.7915 1.80274 21.9584 2.97616 21.9584 4.41835Z" fill="#221E26"/>
<path d="M32.6655 24.6695L22.9176 7.12064L22.8258 6.9502L22.7012 7.10097C22.3669 7.52052 21.9539 7.85484 21.4885 8.11051L21.3705 8.17606L21.436 8.29406L30.063 23.8304C27.054 23.1552 23.3109 22.7881 19.476 22.7881C15.2477 22.7881 11.4915 23.1486 8.58086 23.8239L17.2078 8.29406L17.2734 8.17606L17.1554 8.11051C16.6834 7.8614 16.2769 7.52052 15.9426 7.10097L15.8181 6.9502L15.7263 7.12064L5.98491 24.6695L5.90625 24.8072L6.05047 24.8596C6.52902 25.0235 6.96823 25.62 7.355 25.9609L7.42055 26.0199L7.49922 25.9806L7.53199 25.974C10.6393 25.1153 14.7757 24.6564 19.4825 24.6564C23.7173 24.6564 27.8276 25.1218 31.066 25.9675L31.1315 26.092L31.2561 25.9937L31.2823 25.974C31.6756 25.6266 32.1148 25.0301 32.5934 24.8662L32.7376 24.8137L32.6655 24.6695Z" fill="#221E26"/>
</svg>
