<svg width="48" height="59" viewBox="0 0 48 59" fill="none" xmlns="http://www.w3.org/2000/svg">
<path d="M46.206 20.1151C45.8659 20.3806 39.8623 23.7853 39.8623 31.3557C39.8623 40.1122 47.5017 43.21 47.7303 43.2867C47.6952 43.4755 46.5167 47.5293 43.7025 51.6597C41.1931 55.2944 38.5724 58.9233 34.5856 58.9233C30.5988 58.9233 29.5728 56.5926 24.9703 56.5926C20.4852 56.5926 18.8904 59 15.2437 59C11.5969 59 9.05241 55.6367 6.12679 51.5062C2.738 46.656 0 39.1209 0 31.9694C0 20.4986 7.41078 14.4151 14.7043 14.4151C18.5797 14.4151 21.8102 16.976 24.2433 16.976C26.5592 16.976 30.1708 14.2617 34.5797 14.2617C36.2507 14.2617 42.2543 14.4151 46.206 20.1151ZM32.4866 9.40554C34.31 7.22822 35.5999 4.20712 35.5999 1.18602C35.5999 0.767077 35.5647 0.342234 35.4885 0C32.5218 0.112111 28.9923 1.9885 26.8641 4.47265C25.1931 6.38444 23.6336 9.40554 23.6336 12.4679C23.6336 12.9282 23.7098 13.3884 23.745 13.536C23.9326 13.5714 24.2375 13.6127 24.5423 13.6127C27.2041 13.6127 30.5519 11.8189 32.4866 9.40554Z" fill="#221E26"/>
</svg>
