<svg width="62" height="50" viewBox="0 0 62 50" fill="none" xmlns="http://www.w3.org/2000/svg">
<g clip-path="url(#clip0_182_181)">
<path d="M55.2779 12.5713C55.3152 13.1031 55.3152 13.635 55.3152 14.1718C55.3152 30.5271 42.6634 49.3899 19.5291 49.3899V49.3801C12.6951 49.3899 6.00308 47.4634 0.25 43.8311C1.24371 43.9487 2.24241 44.0075 3.2436 44.01C8.90702 44.0149 14.4086 42.1448 18.8641 38.7012C13.4821 38.6007 8.76257 35.1472 7.11385 30.1056C8.99917 30.4634 10.9418 30.3899 12.7922 29.8923C6.92457 28.7257 2.70316 23.6521 2.70316 17.76V17.6031C4.45149 18.5615 6.40904 19.0933 8.41141 19.1521C2.88496 15.5173 1.18145 8.28205 4.51874 2.62518C10.9044 10.358 20.326 15.059 30.44 15.5566C29.4264 11.2575 30.8111 6.75264 34.0786 3.73058C39.1443 -0.955699 47.1115 -0.715503 51.8733 4.26734C54.6901 3.72077 57.3898 2.70362 59.8604 1.26244C58.9215 4.12763 56.9565 6.56146 54.3315 8.10803C56.8245 7.81881 59.2602 7.16195 61.554 6.1595C59.8654 8.64969 57.7385 10.8188 55.2779 12.5713Z" fill="#221E26"/>
</g>
<defs>
<clipPath id="clip0_182_181">
<rect width="61.7647" height="50" fill="white"/>
</clipPath>
</defs>
</svg>
