<svg width="49" height="62" viewBox="0 0 49 62" fill="none" xmlns="http://www.w3.org/2000/svg">
<g clip-path="url(#clip0_182_229)">
<path d="M16.7843 5.66911C17.2532 4.42039 17.898 3.27077 18.8553 2.33918C22.6847 -1.44662 29.0148 -0.495215 31.6133 4.26182C33.567 7.86924 35.638 11.3974 37.6504 14.9651C41.0108 20.8916 44.4103 26.8181 47.7317 32.7644C50.5256 37.7394 47.4973 44.0227 41.9486 44.875C38.5491 45.3903 35.3645 43.8047 33.6061 40.7126C30.656 35.4997 27.6863 30.2868 24.7361 25.0937C24.6775 24.9747 24.5993 24.8756 24.5212 24.7765C24.2086 24.5189 24.0718 24.1423 23.8764 23.8053C22.5674 21.4664 21.2193 19.1474 19.9103 16.8283C19.0702 15.3219 18.191 13.8354 17.3509 12.329C16.589 10.9811 16.2373 9.51438 16.2764 7.96834C16.335 7.1755 16.4327 6.38266 16.7843 5.66911Z" fill="#221E26"/>
<path d="M3.75416 29.576C3.85573 29.3961 3.95723 29.2161 4.0587 29.0363L4.05898 29.0358C4.52309 28.213 4.98655 27.3914 5.4548 26.57L5.45531 26.5691L5.45559 26.5686C8.93439 20.437 12.4128 14.306 15.9053 8.18959C15.9103 9.81741 16.3439 11.3357 17.1481 12.7538L17.1493 12.756C19.2981 16.5015 21.4467 20.2666 23.5756 24.0314L23.5756 24.0314L23.5783 24.0361C23.6592 24.1757 23.733 24.3152 23.8111 24.4629C23.8215 24.4825 23.832 24.5023 23.8425 24.5223C23.8868 24.6059 23.9327 24.692 23.9811 24.7791C22.8569 26.7545 21.7319 28.7133 20.5888 30.6904L20.5874 30.6927C20.1469 31.4642 19.7065 32.2368 19.2659 33.0099C18.4623 34.4198 17.6578 35.8313 16.8498 37.2403C17.0117 34.8667 16.2174 32.7127 14.5374 30.8262L14.5356 30.8242C13.2198 29.3622 11.5468 28.5383 9.64379 28.2655C7.47358 27.9536 5.51705 28.4142 3.75416 29.576Z" fill="#221E26" stroke="#ECECF0"/>
<path d="M2.3049 31.3176C2.67612 30.9807 3.02779 30.6239 3.41854 30.3067C8.16615 26.5011 15.2973 29.2562 16.3328 35.2818C16.5868 36.7287 16.45 38.1162 16.0202 39.5037C16.0007 39.6226 15.9811 39.7217 15.9421 39.8406C15.7662 40.1578 15.6099 40.4947 15.4146 40.8119C13.6757 43.7255 11.1163 45.1725 7.75586 44.9544C3.90698 44.6769 0.878667 41.7434 0.351155 37.8585C0.0971676 35.9755 0.46838 34.2115 1.42572 32.5861C1.62109 32.2294 1.85554 31.9122 2.07045 31.5555C2.16814 31.4762 2.12907 31.3176 2.3049 31.3176Z" fill="#221E26"/>
<path d="M2.30389 31.3176C2.22574 31.3968 2.22574 31.5356 2.08897 31.5554C2.06944 31.4167 2.14759 31.3374 2.22574 31.2383L2.30389 31.3176Z" fill="#FABC04"/>
<path d="M15.9386 39.8409C15.8605 39.7021 15.9386 39.603 16.0168 39.5039C16.0363 39.5237 16.0754 39.5634 16.0949 39.5832L15.9386 39.8409Z" fill="#E1C025"/>
<path d="M4.04426 51.6143C1.83652 51.6143 0 53.418 0 55.6379C0 57.8579 1.83652 59.6418 4.04426 59.6418C5.23604 59.6418 6.11523 59.2453 6.81858 58.512C7.54147 57.7786 7.75638 56.7677 7.75638 55.955C7.75638 55.6974 7.73684 55.4595 7.69777 55.2613H4.04426V56.3515H6.64274C6.56459 56.9659 6.36922 57.4218 6.05662 57.7389C5.68541 58.1155 5.07974 58.5516 4.04426 58.5516C2.44219 58.5516 1.19179 57.2434 1.19179 55.6379C1.19179 54.0324 2.44219 52.7242 4.04426 52.7242C4.90391 52.7242 5.54864 53.0612 5.99801 53.5171L6.75997 52.7441C6.11523 52.1098 5.25558 51.6143 4.04426 51.6143ZM10.6675 54.4883C9.2803 54.4883 8.12759 55.5785 8.12759 57.1047C8.12759 58.6111 9.26077 59.721 10.6675 59.721C12.0742 59.721 13.2073 58.6111 13.2073 57.1047C13.2073 55.5983 12.0546 54.4883 10.6675 54.4883ZM10.6675 58.6903C9.9055 58.6903 9.24123 58.0363 9.24123 57.1047C9.24123 56.1731 9.9055 55.519 10.6675 55.519C11.4294 55.519 12.0937 56.1533 12.0937 57.1047C12.0937 58.0363 11.4294 58.6903 10.6675 58.6903ZM16.177 54.4883C14.7703 54.4883 13.6372 55.5785 13.6372 57.1047C13.6372 58.6111 14.7703 59.721 16.177 59.721C17.5642 59.721 18.7169 58.6111 18.7169 57.1047C18.7169 55.5983 17.5837 54.4883 16.177 54.4883ZM16.177 58.6903C15.4151 58.6903 14.7508 58.0363 14.7508 57.1047C14.7508 56.1731 15.4151 55.519 16.177 55.519C16.939 55.519 17.6033 56.1533 17.6033 57.1047C17.6033 58.0363 16.9585 58.6903 16.177 58.6903ZM21.6671 54.4883C20.3971 54.4883 19.2444 55.6181 19.2444 57.0848C19.2444 58.5318 20.3971 59.6616 21.6671 59.6616C22.2727 59.6616 22.7416 59.3841 22.9956 59.0669H23.0347V59.4435C23.0347 60.4346 22.5267 60.9698 21.6866 60.9698C21.0028 60.9698 20.5925 60.4742 20.4167 60.058L19.4398 60.4742C19.7133 61.168 20.4557 62.0004 21.6866 62.0004C22.9956 62.0004 24.0897 61.2076 24.0897 59.3048V54.6667H23.0347V55.0829H22.9956C22.7416 54.7658 22.2727 54.4883 21.6671 54.4883ZM21.7648 58.6507C21.0028 58.6507 20.3581 57.9966 20.3581 57.0848C20.3581 56.1731 21.0028 55.4992 21.7648 55.4992C22.5267 55.4992 23.1128 56.1731 23.1128 57.0848C23.1128 57.9966 22.5267 58.6507 21.7648 58.6507ZM24.9103 51.9314H26.0239V59.5823H24.9103V51.9314ZM29.0132 54.4883C27.6846 54.4883 26.571 55.5388 26.571 57.1047C26.571 58.5714 27.6651 59.721 29.1304 59.721C30.3222 59.721 31.006 58.9877 31.2795 58.5714L30.4003 57.9768C30.1073 58.4129 29.697 58.6903 29.1304 58.6903C28.5443 58.6903 28.134 58.4327 27.88 57.8975L31.3381 56.4506L31.2209 56.1533C31.006 55.5785 30.3417 54.4883 29.0132 54.4883ZM27.6846 57.0254C27.6455 56.0145 28.4661 55.4992 29.0327 55.4992C29.4821 55.4992 29.8728 55.7172 29.99 56.0542L27.6846 57.0254Z" fill="#221E26"/>
<path d="M33.2891 59.463L35.868 52.5059H36.8644L39.4434 59.463H38.4665L37.8022 57.58H34.9302L34.2659 59.463H33.2891ZM35.2233 56.7475H37.5092L36.3955 53.6158H36.3564L35.2233 56.7475Z" fill="#221E26"/>
<path d="M40.344 58.8882C39.9141 58.3927 39.6992 57.7981 39.6992 57.0845C39.6992 56.3908 39.9141 55.7961 40.344 55.2808C40.7933 54.7853 41.3013 54.5474 41.9265 54.5474C42.2782 54.5474 42.5908 54.6267 42.8643 54.7654C43.1574 54.924 43.3723 55.1024 43.5286 55.3601H43.5676L43.5286 54.706V52.5059H44.4078V59.463H43.5676V58.8089H43.5286C43.3723 59.0468 43.1574 59.245 42.8643 59.4036C42.5712 59.5621 42.2586 59.6216 41.9265 59.6216C41.3013 59.6216 40.7738 59.3837 40.344 58.8882ZM43.1183 58.3332C43.4113 58.0161 43.5481 57.5999 43.5481 57.0845C43.5481 56.589 43.4113 56.1727 43.1183 55.8556C42.8448 55.5385 42.4931 55.3799 42.0633 55.3799C41.6334 55.3799 41.2818 55.5385 41.0082 55.8556C40.7152 56.1727 40.5784 56.589 40.5784 57.0845C40.5784 57.58 40.7152 57.9963 41.0082 58.3134C41.3013 58.6305 41.653 58.7891 42.0633 58.7891C42.4931 58.8089 42.8448 58.6504 43.1183 58.3332Z" fill="#221E26"/>
<path d="M48.4737 59.186C48.1221 59.4635 47.6727 59.622 47.1256 59.622C46.6567 59.622 46.2465 59.5031 45.8752 59.2454C45.5236 58.9877 45.2696 58.6706 45.1133 58.2544L45.8948 57.9174C46.012 58.1949 46.1683 58.4328 46.4028 58.5913C46.6177 58.7499 46.8717 58.8292 47.1256 58.8292C47.3992 58.8292 47.6336 58.7697 47.829 58.6508C48.0244 58.5319 48.1025 58.3733 48.1025 58.2147C48.1025 57.9174 47.8681 57.6796 47.4187 57.5408L46.6177 57.3426C45.6994 57.1048 45.25 56.6687 45.25 55.9948C45.25 55.5587 45.4259 55.2218 45.7776 54.9443C46.1292 54.6866 46.5786 54.5479 47.1061 54.5479C47.5164 54.5479 47.8876 54.647 48.2393 54.8452C48.5714 55.0434 48.8059 55.3209 48.9426 55.6578L48.1611 55.9948C48.0634 55.7966 47.9267 55.638 47.7313 55.5191C47.5359 55.4002 47.3015 55.3407 47.0475 55.3407C46.813 55.3407 46.6177 55.4002 46.4223 55.5191C46.2465 55.638 46.1488 55.7767 46.1488 55.9551C46.1488 56.2326 46.4028 56.4308 46.9107 56.5299L47.6141 56.7083C48.5519 56.9462 49.0012 57.4219 49.0012 58.1354C49.0208 58.5517 48.8254 58.9085 48.4737 59.186Z" fill="#221E26"/>
</g>
<defs>
<clipPath id="clip0_182_229">
<rect width="49" height="62" fill="white"/>
</clipPath>
</defs>
</svg>
