<svg width="282" height="33" viewBox="0 0 282 33" fill="none" xmlns="http://www.w3.org/2000/svg">
<g clip-path="url(#clip0_182_251)">
<path d="M29.9927 18.9283V5.44365H32.1026H34.2124V6.33501C34.2124 6.82525 34.22 7.22636 34.2292 7.22636C34.2384 7.22636 34.5047 7.06479 34.821 6.86731C38.553 4.5377 43.9781 3.8362 48.8439 5.05406C53.2276 6.15125 56.4055 8.75582 57.5352 12.1774C58.1954 14.1768 58.159 16.4003 57.4344 18.3341C56.5331 20.7395 54.6802 22.6735 52.0077 23.9983C49.6689 25.1577 46.9987 25.7382 44.005 25.7382C41.5231 25.7382 39.2085 25.3258 37.1709 24.5206C36.3623 24.2011 35.326 23.6766 34.6973 23.2687L34.2124 22.9542V27.6836V32.4129H32.1026H29.9927V18.9283ZM46.046 22.1533C48.4195 21.8178 50.261 21.0673 51.6418 19.8729C52.6869 18.9687 53.4148 17.7129 53.6906 16.3383C53.8034 15.7761 53.8037 14.4483 53.6918 13.8878C53.3671 12.27 52.4369 10.8568 51.0444 9.86583C50.483 9.46636 49.3429 8.89726 48.6152 8.65329C46.56 7.96434 44.0683 7.76031 41.7861 8.09413C37.8237 8.67371 35.1455 10.6322 34.427 13.4758C34.11 14.7303 34.1666 16.0847 34.5855 17.2685C35.5371 19.9573 38.3431 21.7466 42.3085 22.1932C43.1057 22.2829 45.2946 22.2596 46.0466 22.1533H46.046ZM60.0354 18.9283V5.44365H62.1452H64.2551V6.33501C64.2551 6.82525 64.2643 7.22636 64.2754 7.22636C64.2866 7.22636 64.5188 7.08146 64.7914 6.90435C65.4222 6.49454 66.6674 5.88163 67.4657 5.58794C70.9122 4.32012 75.1203 4.11566 78.8029 5.03709C84.806 6.5391 88.3411 10.6541 88.0073 15.7514C87.7526 19.6423 85.1548 22.8383 80.8817 24.5179C79.4878 25.0657 78.0594 25.4112 76.2717 25.6329C75.3281 25.7498 72.7851 25.7497 71.8001 25.6326C69.0123 25.3012 66.5647 24.4761 64.6564 23.2247L64.2551 22.9615V27.6872V32.413H62.1452H60.0354V18.9283ZM76.1907 22.1335C79.478 21.6442 81.7945 20.3244 83.0118 18.2473C83.7187 17.0409 83.9835 15.4359 83.7213 13.9458C83.1763 10.8485 80.4449 8.70522 76.2632 8.09356C73.5031 7.68984 70.3868 8.09197 68.2684 9.12521C66.1059 10.1799 64.8045 11.7548 64.3602 13.8544C64.2436 14.4056 64.2439 15.8225 64.3614 16.3628C64.676 17.817 65.3872 19.0203 66.4666 19.9246C67.9528 21.1698 69.887 21.9112 72.397 22.1978C73.2272 22.2926 75.3657 22.2564 76.1913 22.1335H76.1907ZM12.5634 25.7104C10.3251 25.5134 8.41455 25.0739 6.78993 24.3823C3.09474 22.8094 0.760827 20.1546 0.127436 16.8039C0.00646538 16.1639 -0.0396818 14.7221 0.0387636 14.0331C0.496153 10.0159 3.46554 6.83398 8.16022 5.33035C10.6585 4.53018 13.7338 4.2688 16.494 4.622C21.5511 5.26912 25.3764 7.60616 27.0578 11.0758C28.4268 13.9009 28.2531 17.3325 26.6075 19.9706C25.8662 21.1591 24.6456 22.3855 23.3879 23.2058C21.4312 24.482 19.0941 25.2759 16.2557 25.6287C15.6871 25.6994 13.0908 25.7568 12.5634 25.7104ZM15.5567 22.1974C17.7579 21.9646 19.6096 21.3384 21.0029 20.3556C22.1419 19.5521 23.0432 18.368 23.4476 17.1437C23.6843 16.4271 23.7313 16.0907 23.7313 15.1115C23.7313 14.1351 23.685 13.8015 23.4501 13.0844C22.6781 10.7274 20.42 8.97413 17.2647 8.28199C14.4984 7.67515 11.2723 7.88607 8.88199 8.83004C7.15756 9.51106 5.79641 10.6135 4.9982 11.9756C4.14941 13.4239 3.95685 15.3967 4.49832 17.0968C5.08172 18.9286 6.6186 20.4616 8.73356 21.3215C9.88553 21.7898 11.3119 22.1162 12.724 22.2344C13.2658 22.2798 14.9909 22.2573 15.5567 22.1974ZM102.6 25.7119C102.511 25.7019 102.202 25.6713 101.912 25.6439C99.5822 25.4239 97.1334 24.6908 95.3382 23.6761C92.9112 22.3043 91.2207 20.3545 90.449 18.0369C89.9268 16.4685 89.8376 14.7059 90.1985 13.0843C90.7442 10.6322 92.2419 8.55006 94.5677 7.0101C97.6349 4.97929 102.145 4.07734 106.498 4.62402C110.115 5.0782 113.095 6.39656 115.168 8.45991C116.748 10.0313 117.655 11.8726 117.918 14.0361C117.986 14.5983 117.975 15.7353 117.896 16.3319C117.327 20.628 113.91 23.9114 108.677 25.1906C107.09 25.5785 106.094 25.6959 104.228 25.7151C103.421 25.7234 102.688 25.722 102.6 25.7119ZM105.374 22.2188C108.161 21.9634 110.432 21.0483 111.889 19.5936C112.876 18.6086 113.449 17.5243 113.675 16.2139C113.768 15.6739 113.767 14.5483 113.673 13.9882C113.165 10.9729 110.497 8.78726 106.544 8.14773C105.595 7.99418 104.964 7.94416 103.976 7.94416C99.5437 7.94416 96.105 9.60951 94.7824 12.3963C94.3882 13.227 94.2063 14.0842 94.2063 15.1115C94.2063 16.4669 94.5233 17.5418 95.2388 18.613C96.5524 20.5794 99.0435 21.8356 102.341 22.1944C103.021 22.2684 104.688 22.2818 105.374 22.2188Z" fill="#221E26"/>
</g>
<path d="M139.092 6.57635H145.474C152.328 6.57635 155.741 10.6831 155.741 16.2882C155.741 21.8933 152.328 26 145.474 26H139.092V6.57635ZM153.382 16.2882C153.382 11.6265 150.718 8.7962 145.474 8.7962H141.423V23.7802H145.474C150.718 23.7802 153.382 20.9499 153.382 16.2882ZM165.574 26.271C164.553 26.271 163.627 26.0994 162.796 25.7561C161.974 25.4039 161.265 24.9116 160.669 24.2793C160.082 23.647 159.63 22.8973 159.314 22.0302C158.998 21.1631 158.84 20.2146 158.84 19.1849V18.6159C158.84 17.4236 159.016 16.3622 159.368 15.4319C159.721 14.4925 160.199 13.6976 160.805 13.0473C161.41 12.3969 162.096 11.9047 162.864 11.5705C163.632 11.2363 164.427 11.0692 165.249 11.0692C166.296 11.0692 167.2 11.2498 167.958 11.6111C168.726 11.9724 169.354 12.4782 169.842 13.1286C170.329 13.7699 170.691 14.5286 170.926 15.4048C171.16 16.2719 171.278 17.2203 171.278 18.2501V19.3746H160.33V17.3287H168.771V17.139C168.735 16.4887 168.6 15.8564 168.365 15.2422C168.139 14.628 167.778 14.1222 167.281 13.7247C166.784 13.3273 166.107 13.1286 165.249 13.1286C164.68 13.1286 164.156 13.2505 163.677 13.4944C163.198 13.7292 162.787 14.0815 162.444 14.5512C162.101 15.0209 161.834 15.5945 161.645 16.2719C161.455 16.9494 161.36 17.7307 161.36 18.6159V19.1849C161.36 19.8804 161.455 20.5353 161.645 21.1495C161.843 21.7547 162.128 22.2876 162.498 22.7483C162.878 23.2089 163.334 23.5702 163.867 23.8322C164.409 24.0941 165.023 24.2251 165.709 24.2251C166.594 24.2251 167.344 24.0444 167.958 23.6831C168.573 23.3218 169.11 22.8386 169.571 22.2334L171.088 23.4393C170.772 23.918 170.37 24.3741 169.882 24.8077C169.395 25.2413 168.794 25.5935 168.08 25.8645C167.376 26.1355 166.54 26.271 165.574 26.271ZM179.027 23.7373L183.038 11.3401H185.598L180.328 26H178.648L179.027 23.7373ZM175.681 11.3401L179.813 23.8051L180.098 26H178.418L173.106 11.3401H175.681ZM194.459 26.271C193.438 26.271 192.512 26.0994 191.681 25.7561C190.859 25.4039 190.15 24.9116 189.554 24.2793C188.967 23.647 188.515 22.8973 188.199 22.0302C187.883 21.1631 187.725 20.2146 187.725 19.1849V18.6159C187.725 17.4236 187.901 16.3622 188.253 15.4319C188.606 14.4925 189.084 13.6976 189.69 13.0473C190.295 12.3969 190.981 11.9047 191.749 11.5705C192.517 11.2363 193.312 11.0692 194.134 11.0692C195.181 11.0692 196.085 11.2498 196.843 11.6111C197.611 11.9724 198.239 12.4782 198.727 13.1286C199.214 13.7699 199.576 14.5286 199.811 15.4048C200.045 16.2719 200.163 17.2203 200.163 18.2501V19.3746H189.215V17.3287H197.656V17.139C197.62 16.4887 197.485 15.8564 197.25 15.2422C197.024 14.628 196.663 14.1222 196.166 13.7247C195.669 13.3273 194.992 13.1286 194.134 13.1286C193.565 13.1286 193.041 13.2505 192.562 13.4944C192.083 13.7292 191.672 14.0815 191.329 14.5512C190.986 15.0209 190.719 15.5945 190.53 16.2719C190.34 16.9494 190.245 17.7307 190.245 18.6159V19.1849C190.245 19.8804 190.34 20.5353 190.53 21.1495C190.728 21.7547 191.013 22.2876 191.383 22.7483C191.763 23.2089 192.219 23.5702 192.752 23.8322C193.294 24.0941 193.908 24.2251 194.594 24.2251C195.48 24.2251 196.229 24.0444 196.843 23.6831C197.458 23.3218 197.995 22.8386 198.456 22.2334L199.973 23.4393C199.657 23.918 199.255 24.3741 198.767 24.8077C198.28 25.2413 197.679 25.5935 196.965 25.8645C196.261 26.1355 195.425 26.271 194.459 26.271ZM206.368 5.18895V26H203.848V5.18895H206.368ZM210.283 18.8327V18.521C210.283 17.4642 210.436 16.4842 210.743 15.5809C211.051 14.6686 211.493 13.8783 212.071 13.2099C212.649 12.5324 213.349 12.0085 214.171 11.6382C214.993 11.2588 215.915 11.0692 216.935 11.0692C217.965 11.0692 218.891 11.2588 219.713 11.6382C220.544 12.0085 221.248 12.5324 221.826 13.2099C222.414 13.8783 222.861 14.6686 223.168 15.5809C223.475 16.4842 223.628 17.4642 223.628 18.521V18.8327C223.628 19.8895 223.475 20.8695 223.168 21.7728C222.861 22.676 222.414 23.4664 221.826 24.1438C221.248 24.8122 220.548 25.3361 219.726 25.7155C218.913 26.0858 217.992 26.271 216.962 26.271C215.933 26.271 215.007 26.0858 214.185 25.7155C213.363 25.3361 212.658 24.8122 212.071 24.1438C211.493 23.4664 211.051 22.676 210.743 21.7728C210.436 20.8695 210.283 19.8895 210.283 18.8327ZM212.789 18.521V18.8327C212.789 19.5643 212.875 20.2553 213.047 20.9056C213.218 21.5469 213.476 22.116 213.819 22.6128C214.171 23.1096 214.609 23.5025 215.133 23.7915C215.657 24.0715 216.267 24.2116 216.962 24.2116C217.649 24.2116 218.25 24.0715 218.764 23.7915C219.288 23.5025 219.722 23.1096 220.065 22.6128C220.408 22.116 220.666 21.5469 220.837 20.9056C221.018 20.2553 221.108 19.5643 221.108 18.8327V18.521C221.108 17.7984 221.018 17.1165 220.837 16.4751C220.666 15.8248 220.404 15.2512 220.052 14.7544C219.708 14.2486 219.275 13.8512 218.751 13.5621C218.236 13.2731 217.631 13.1286 216.935 13.1286C216.249 13.1286 215.644 13.2731 215.12 13.5621C214.605 13.8512 214.171 14.2486 213.819 14.7544C213.476 15.2512 213.218 15.8248 213.047 16.4751C212.875 17.1165 212.789 17.7984 212.789 18.521ZM229.833 14.1583V31.6363H227.313V11.3401H229.616L229.833 14.1583ZM239.71 18.5481V18.8327C239.71 19.8985 239.584 20.8876 239.331 21.7999C239.078 22.7031 238.708 23.4889 238.22 24.1574C237.741 24.8258 237.15 25.3451 236.445 25.7155C235.741 26.0858 234.932 26.271 234.02 26.271C233.09 26.271 232.268 26.1174 231.554 25.8103C230.84 25.5032 230.235 25.0561 229.738 24.469C229.242 23.8819 228.844 23.1773 228.546 22.3554C228.257 21.5334 228.058 20.6076 227.95 19.5778V18.0604C228.058 16.9765 228.262 16.0055 228.56 15.1474C228.858 14.2893 229.251 13.5576 229.738 12.9524C230.235 12.3382 230.836 11.8731 231.54 11.5569C232.245 11.2317 233.058 11.0692 233.979 11.0692C234.901 11.0692 235.718 11.2498 236.432 11.6111C237.145 11.9634 237.746 12.4692 238.234 13.1286C238.721 13.788 239.087 14.5783 239.331 15.4996C239.584 16.4119 239.71 17.4281 239.71 18.5481ZM237.19 18.8327V18.5481C237.19 17.8165 237.114 17.13 236.96 16.4887C236.806 15.8384 236.567 15.2693 236.242 14.7815C235.926 14.2848 235.519 13.8963 235.022 13.6163C234.526 13.3273 233.934 13.1828 233.248 13.1828C232.615 13.1828 232.064 13.2912 231.595 13.5079C231.134 13.7247 230.741 14.0183 230.416 14.3886C230.091 14.7499 229.824 15.1654 229.616 15.6351C229.418 16.0958 229.269 16.5745 229.169 17.0713V20.5805C229.35 21.2127 229.603 21.8089 229.928 22.3689C230.253 22.9199 230.687 23.367 231.229 23.7102C231.771 24.0444 232.453 24.2116 233.275 24.2116C233.952 24.2116 234.535 24.0715 235.022 23.7915C235.519 23.5025 235.926 23.1096 236.242 22.6128C236.567 22.116 236.806 21.5469 236.96 20.9056C237.114 20.2553 237.19 19.5643 237.19 18.8327ZM249.546 26.271C248.526 26.271 247.6 26.0994 246.769 25.7561C245.947 25.4039 245.238 24.9116 244.642 24.2793C244.055 23.647 243.603 22.8973 243.287 22.0302C242.971 21.1631 242.813 20.2146 242.813 19.1849V18.6159C242.813 17.4236 242.989 16.3622 243.341 15.4319C243.693 14.4925 244.172 13.6976 244.777 13.0473C245.382 12.3969 246.069 11.9047 246.837 11.5705C247.604 11.2363 248.399 11.0692 249.221 11.0692C250.269 11.0692 251.172 11.2498 251.931 11.6111C252.699 11.9724 253.326 12.4782 253.814 13.1286C254.302 13.7699 254.663 14.5286 254.898 15.4048C255.133 16.2719 255.25 17.2203 255.25 18.2501V19.3746H244.303V17.3287H252.744V17.139C252.708 16.4887 252.572 15.8564 252.337 15.2422C252.112 14.628 251.75 14.1222 251.253 13.7247C250.757 13.3273 250.079 13.1286 249.221 13.1286C248.652 13.1286 248.128 13.2505 247.649 13.4944C247.171 13.7292 246.76 14.0815 246.417 14.5512C246.073 15.0209 245.807 15.5945 245.617 16.2719C245.427 16.9494 245.333 17.7307 245.333 18.6159V19.1849C245.333 19.8804 245.427 20.5353 245.617 21.1495C245.816 21.7547 246.1 22.2876 246.471 22.7483C246.85 23.2089 247.306 23.5702 247.839 23.8322C248.381 24.0941 248.995 24.2251 249.682 24.2251C250.567 24.2251 251.317 24.0444 251.931 23.6831C252.545 23.3218 253.083 22.8386 253.543 22.2334L255.061 23.4393C254.745 23.918 254.343 24.3741 253.855 24.8077C253.367 25.2413 252.766 25.5935 252.053 25.8645C251.348 26.1355 250.513 26.271 249.546 26.271ZM261.238 13.6434V26H258.732V11.3401H261.171L261.238 13.6434ZM265.818 11.2588L265.804 13.5892C265.597 13.5441 265.398 13.517 265.208 13.5079C265.028 13.4899 264.82 13.4809 264.585 13.4809C264.007 13.4809 263.497 13.5712 263.054 13.7518C262.611 13.9325 262.237 14.1854 261.929 14.5106C261.622 14.8357 261.378 15.2241 261.198 15.6758C261.026 16.1184 260.913 16.6061 260.859 17.139L260.155 17.5455C260.155 16.6603 260.24 15.8293 260.412 15.0525C260.593 14.2757 260.868 13.5892 261.238 12.9931C261.609 12.3879 262.078 11.9182 262.648 11.584C263.226 11.2408 263.912 11.0692 264.707 11.0692C264.888 11.0692 265.095 11.0917 265.33 11.1369C265.565 11.173 265.728 11.2137 265.818 11.2588ZM277.226 22.1115C277.226 21.7502 277.144 21.416 276.982 21.1089C276.828 20.7927 276.507 20.5082 276.02 20.2553C275.541 19.9933 274.818 19.7675 273.852 19.5778C273.039 19.4062 272.303 19.203 271.643 18.9681C270.993 18.7333 270.438 18.4488 269.977 18.1146C269.525 17.7804 269.178 17.3874 268.934 16.9358C268.69 16.4842 268.568 15.9558 268.568 15.3506C268.568 14.7725 268.694 14.226 268.947 13.7112C269.209 13.1963 269.575 12.7402 270.045 12.3427C270.523 11.9453 271.097 11.6337 271.765 11.4079C272.434 11.1821 273.179 11.0692 274.001 11.0692C275.175 11.0692 276.178 11.2769 277.009 11.6924C277.84 12.1079 278.477 12.6634 278.919 13.3589C279.362 14.0454 279.583 14.8086 279.583 15.6487H277.077C277.077 15.2422 276.955 14.8493 276.711 14.4699C276.476 14.0815 276.128 13.7609 275.667 13.5079C275.216 13.255 274.66 13.1286 274.001 13.1286C273.305 13.1286 272.741 13.237 272.307 13.4538C271.883 13.6615 271.571 13.928 271.372 14.2531C271.183 14.5783 271.088 14.9215 271.088 15.2829C271.088 15.5538 271.133 15.7977 271.223 16.0145C271.323 16.2222 271.494 16.4164 271.738 16.5971C271.982 16.7687 272.325 16.9313 272.768 17.0848C273.211 17.2384 273.775 17.392 274.462 17.5455C275.663 17.8165 276.652 18.1417 277.429 18.521C278.206 18.9004 278.784 19.3656 279.163 19.9166C279.542 20.4675 279.732 21.136 279.732 21.9218C279.732 22.5631 279.597 23.1502 279.326 23.6831C279.064 24.2161 278.68 24.6767 278.174 25.0651C277.677 25.4445 277.081 25.7426 276.386 25.9594C275.699 26.1671 274.927 26.271 274.069 26.271C272.777 26.271 271.684 26.0406 270.79 25.58C269.896 25.1193 269.218 24.5232 268.758 23.7915C268.297 23.0599 268.067 22.2876 268.067 21.4747H270.587C270.623 22.1612 270.821 22.7076 271.183 23.1141C271.544 23.5115 271.987 23.7961 272.511 23.9677C273.034 24.1303 273.554 24.2116 274.069 24.2116C274.755 24.2116 275.329 24.1212 275.789 23.9406C276.259 23.7599 276.616 23.5115 276.86 23.1954C277.104 22.8792 277.226 22.5179 277.226 22.1115Z" fill="#221E26"/>
<defs>
<clipPath id="clip0_182_251">
<rect width="117.963" height="27.9482" fill="white" transform="translate(0 4.46484)"/>
</clipPath>
</defs>
</svg>
