<svg width="178" height="27" viewBox="0 0 178 27" fill="none" xmlns="http://www.w3.org/2000/svg">
<path d="M168.186 11.8941V15.561H170.782V19.1991C170.79 19.5242 170.772 19.8748 170.715 20.1554C170.612 20.834 169.963 21.9895 168.121 21.9895C166.289 21.9895 165.652 20.834 165.541 20.1554C165.494 19.8748 165.475 19.5242 165.475 19.1991V7.70811C165.475 7.30165 165.502 6.85677 165.589 6.52005C165.715 5.90761 166.262 4.69985 168.107 4.69985C170.044 4.69985 170.528 5.97315 170.638 6.52005C170.711 6.88228 170.715 7.48987 170.715 7.48987V8.8852H177.093V8.06034C177.093 8.06034 177.122 7.19963 177.045 6.3964C176.565 1.67996 172.651 0.187777 168.163 0.187777C163.667 0.187777 159.832 1.69385 159.273 6.3964C159.223 6.82643 159.146 7.59996 159.146 8.06034V18.6309C159.146 19.0913 159.161 19.4477 159.247 20.289C159.663 24.8757 163.667 26.5015 168.145 26.5015C172.651 26.5015 176.628 24.8757 177.051 20.289C177.126 19.4477 177.134 19.0913 177.144 18.6309V11.8941H168.186ZM124.211 0.864136H117.806V19.4642C117.816 19.7883 117.806 20.1525 117.75 20.4195C117.616 21.0438 117.083 22.2455 115.316 22.2455C113.572 22.2455 113.025 21.0438 112.901 20.4195C112.837 20.1525 112.829 19.7883 112.837 19.4642V0.864136H106.434V18.8869C106.426 19.3515 106.463 20.3007 106.491 20.5492C106.933 25.2457 110.661 26.7705 115.316 26.7705C119.98 26.7705 123.706 25.2457 124.156 20.5492C124.192 20.3007 124.238 19.3515 124.211 18.8869V0.864136ZM65.363 0.864136L62.1682 20.5176L58.9752 0.864136H48.644L48.0961 26.0066H54.4254L54.5967 2.73147L58.9515 26.0066H65.3731L69.7318 2.73147L69.9038 26.0066H76.249L75.6826 0.864136H65.363ZM27.112 0.864136L22.421 26.0066H29.2618L32.7968 2.73147L36.2469 26.0066H43.0402L38.3687 0.864136H27.112ZM146.594 21.1068L140.63 0.864136H131.232V25.7445H137.449L137.088 4.85417L143.493 25.7445H152.506V0.864136H146.248L146.594 21.1068ZM89.09 7.40755C88.9775 6.91101 89.01 6.38348 89.0682 6.10777C89.2493 5.30292 89.794 4.42511 91.3633 4.42511C92.826 4.42511 93.6834 5.33036 93.6834 6.68889V8.22628H99.9269V6.47388C99.9269 1.05655 95.0349 0.205532 91.493 0.205532C87.0323 0.205532 83.3893 1.66544 82.724 5.74167C82.548 6.85096 82.5045 7.83564 82.7845 9.09215C83.8692 14.1747 92.7814 15.6491 94.075 18.8634C94.3032 19.4722 94.2379 20.2487 94.1215 20.7061C93.9277 21.5426 93.3609 22.384 91.6807 22.384C90.1049 22.384 89.1563 21.4845 89.1563 20.1289L89.1544 17.716H82.4342V19.634C82.4342 25.1917 86.8189 26.8686 91.5415 26.8686C96.0644 26.8686 99.8 25.3341 100.399 21.1746C100.685 19.0254 100.47 17.6256 100.355 17.0984C99.3077 11.8854 89.8089 10.3173 89.09 7.40755ZM6.73118 7.34588C6.60859 6.83902 6.6372 6.30406 6.70549 6.02513C6.87848 5.22415 7.4264 4.33084 9.02335 4.33084C10.5045 4.33084 11.3767 5.24481 11.3767 6.61432V8.17043H17.6933V6.40415C17.6933 0.934839 12.7265 0.063158 9.14595 0.063158C4.64776 0.063158 0.972281 1.54566 0.299813 5.65127C0.115762 6.77832 0.0842098 7.76978 0.350205 9.04017C1.44671 14.1805 10.447 15.6669 11.7565 18.9195C12.0017 19.5242 11.9275 20.3007 11.8059 20.7759C11.5981 21.6211 11.0268 22.4744 9.3326 22.4744C7.75061 22.4744 6.80435 21.5594 6.80435 20.1851L6.79556 17.7657H0V19.6882C0 25.3096 4.4468 27 9.20611 27C13.7817 27 17.5391 25.452 18.1521 21.2443C18.4568 19.0755 18.2282 17.664 18.1254 17.1287C17.0566 11.8518 7.4521 10.2889 6.73118 7.34588Z" fill="#221E26"/>
</svg>
