<svg width="175" height="27" viewBox="0 0 175 27" fill="none" xmlns="http://www.w3.org/2000/svg">
<path d="M65.526 21.6507C62.6117 21.7812 60.4588 21.6676 59.0734 21.0092C58.146 20.5776 57.4702 19.5786 57.4129 18.4373C57.3614 17.4724 57.3785 16.9725 57.8366 16.3993C58.8614 15.1218 61.5412 14.8433 64.3008 14.7412C66.1613 14.6733 69.0071 14.8774 71.0967 15.116C71.0796 17.0523 70.9477 18.9939 70.5241 19.8399C69.7801 21.3496 67.1119 21.5821 65.526 21.6507ZM75.6888 4.27386C73.0778 0.82451 68.3603 -0.214418 63.4648 0.0353437C58.5008 0.290851 55.0367 1.29564 54.1551 1.61672C53.6053 1.81274 53.6796 2.26664 53.6742 2.53904C53.6513 3.45326 53.5767 5.80656 53.5767 6.76032C53.5825 7.18617 54.1264 7.38185 54.5787 7.22571C56.3881 6.61533 59.7315 5.63318 62.4171 5.4233C65.3141 5.20193 69.259 5.4233 70.3411 7.00467C70.8619 7.75396 70.885 8.90104 70.9481 10.0708C69.1387 9.91191 66.4592 9.69054 63.7971 9.83215C61.7246 9.93996 57.7565 10.1049 55.415 11.3C53.5085 12.2649 52.3978 13.151 51.8021 14.7916C51.3212 16.1086 51.1954 17.6988 51.344 18.9875C51.6933 21.9397 52.7638 23.4163 54.2126 24.4383C56.4913 26.0508 59.3712 26.9082 65.3256 26.7774C73.2442 26.6186 75.3337 24.1656 76.3814 22.4169C78.1679 19.4529 77.8585 14.775 77.807 11.9019C77.7845 10.7099 77.6012 6.78905 75.6888 4.27386Z" fill="#221E26"/>
<path d="M104.293 19.9417C102.885 21.4805 100.331 21.7526 98.236 21.7526C96.1403 21.7526 93.5954 21.4859 92.1868 19.9528C90.7783 18.4087 90.6869 16.2967 90.6869 13.6165C90.6869 10.9597 90.7786 8.8927 92.1811 7.35121C93.5896 5.81276 95.854 5.5488 98.2363 5.5488C100.629 5.5488 102.885 5.81276 104.294 7.35121C105.691 8.89304 105.794 10.9597 105.794 13.6165C105.794 16.2855 105.691 18.4087 104.293 19.9417ZM98.236 0.416016C94.2392 0.416016 90.2517 0.89864 87.7266 3.28304C85.196 5.65932 84.2227 9.23642 84.2227 13.6165C84.2227 18 85.0928 21.5143 87.6237 23.8936C90.1542 26.2665 94.2512 26.8458 98.236 26.8458C102.233 26.8458 106.206 26.3574 108.737 23.9842C111.256 21.5991 112.252 17.9997 112.252 13.6162C112.252 9.23608 111.37 5.74145 108.839 3.36246C106.32 0.986513 102.232 0.416016 98.236 0.416016Z" fill="#221E26"/>
<path d="M174.069 0.884766H168.412C168.172 0.884766 167.988 1.07234 167.988 1.29946V25.9836C167.988 26.205 168.172 26.3926 168.412 26.3926H174.069C174.309 26.3926 174.504 26.205 174.504 25.9836V1.29912C174.504 1.072 174.309 0.884766 174.069 0.884766Z" fill="#221E26"/>
<path d="M147.787 0.461914C143.917 0.461914 141.455 1.25412 139.966 1.98651H138.936C137.481 1.21424 134.905 0.461914 130.863 0.461914C127.874 0.461914 124.21 0.672133 121.942 2.49178C120.076 3.99339 119.641 5.99182 119.641 10.1029V25.9724C119.641 26.1995 119.835 26.381 120.076 26.381H125.721C125.961 26.381 126.168 26.1995 126.168 25.9724V25.9156C126.168 25.9156 126.168 15.8883 126.168 12.9135C126.168 10.5572 126.065 8.10144 126.591 7.18452C127.015 6.47478 127.656 5.67717 130.725 5.67717C134.389 5.67717 135.248 5.92118 135.821 7.47417C135.958 7.84019 136.027 8.36574 136.061 9.00451V14.2708V25.9728C136.061 26.1999 136.256 26.3814 136.496 26.3814H142.142H142.153C142.393 26.3814 142.588 26.1999 142.588 25.9728V14.2705V9.00417C142.622 8.3654 142.679 7.84019 142.817 7.47383C143.401 5.92085 144.259 5.67683 147.924 5.67683C150.981 5.67683 151.634 6.47444 152.046 7.18419C152.584 8.10111 152.481 10.5568 152.481 12.9132C152.481 15.888 152.481 25.9153 152.481 25.9153V25.9721C152.481 26.1992 152.676 26.3807 152.916 26.3807H158.561C158.802 26.3807 159.008 26.1992 159.008 25.9721V11.0739C159.008 6.80701 158.859 4.621 156.775 2.75878C154.463 0.714718 150.776 0.461914 147.787 0.461914Z" fill="#221E26"/>
<path d="M42.93 0.884766H37.2786C37.038 0.884766 36.8438 1.07234 36.8438 1.29946V25.9836C36.8438 26.205 37.0384 26.3926 37.2786 26.3926H42.93C43.1707 26.3926 43.3649 26.205 43.3649 25.9836V1.29912C43.3649 1.072 43.1707 0.884766 42.93 0.884766Z" fill="#221E26"/>
<path d="M19.1788 13.4291L29.2158 1.52842C29.4333 1.27291 29.2387 0.889648 28.8951 0.889648H21.6583C21.4865 0.889648 21.326 0.963326 21.2172 1.09683L14.5873 9.51741L8.12308 1.09716C8.01436 0.963664 7.85384 0.889986 7.67627 0.889986H0.416547C0.0730039 0.889986 -0.121602 1.27325 0.0961794 1.52875L10.2532 13.6508L0.0845917 25.7556C-0.121602 26.0165 0.0730039 26.3917 0.411094 26.3917H7.66502C7.84259 26.3917 8.00857 26.3123 8.11149 26.1757L14.8849 17.7839L21.3031 26.1757C21.4064 26.3119 21.5724 26.3917 21.7441 26.3917H28.9122C29.2557 26.3917 29.4503 26.0169 29.2387 25.7556L19.1788 13.4291Z" fill="#221E26"/>
</svg>
