<svg width="154" height="40" viewBox="0 0 154 40" fill="none" xmlns="http://www.w3.org/2000/svg">
<mask id="mask0_182_255" style="mask-type:luminance" maskUnits="userSpaceOnUse" x="0" y="0" width="154" height="40">
<path d="M153.304 0H0V39.0947H153.304V0Z" fill="white"/>
</mask>
<g mask="url(#mask0_182_255)">
<path d="M138.413 10.7451H125.25C111.543 10.7451 110.355 21.5861 110.355 24.896C110.355 28.2059 111.593 39.0468 125.25 39.0468H138.413C152.121 39.0468 153.309 28.2059 153.309 24.896C153.309 21.5861 152.071 10.7451 138.413 10.7451ZM138.413 32.6189H125.25C117.828 32.6189 117.184 26.7188 117.184 24.9439C117.184 23.169 117.828 17.2689 125.25 17.2689H138.413C145.836 17.2689 146.479 23.169 146.479 24.9439C146.479 26.7188 145.786 32.6189 138.413 32.6189Z" fill="#221E26"/>
<path d="M107.685 11.417H103.429C101.598 11.417 101.202 11.7048 100.51 12.7122C99.8168 13.7195 87.594 31.8038 87.594 31.8038C87.1982 32.3794 86.8023 32.5714 86.2579 32.5714C85.7631 32.5714 85.3177 32.3315 84.9218 31.8038C84.9218 31.8038 72.6991 13.7195 72.0063 12.7122C71.3135 11.7048 70.9176 11.417 69.0867 11.417H64.831C63.8414 11.417 63.3959 12.1845 64.0392 13.0479C64.6331 13.9593 78.6373 34.4901 78.6373 34.4901C80.9136 37.704 82.5466 38.9991 86.2579 38.9991C89.9693 38.9991 91.6518 37.704 93.8786 34.4901C93.8786 34.4901 107.833 13.9113 108.477 13.0479C109.12 12.1845 108.675 11.417 107.685 11.417Z" fill="#221E26"/>
<path d="M50.9727 13.1919C50.9727 11.9446 51.4675 11.417 52.8036 11.417H56.0201C57.3067 11.417 57.8511 11.8966 57.8511 13.1919V37.3203C57.8511 38.5674 57.3561 39.0951 56.0201 39.0951H52.8036C51.517 39.0951 50.9727 38.6154 50.9727 37.3203V13.1919Z" fill="#221E26"/>
<path d="M50.6778 5.80483C49.6386 4.79748 49.6386 3.98201 50.6778 2.97466L52.9046 0.816059C53.9438 -0.19129 54.7851 -0.19129 55.8242 0.816059L58.051 2.97466C59.0902 3.98201 59.0902 4.79748 58.051 5.80483L55.8242 7.96344C54.7851 8.97078 53.9438 8.97078 52.9046 7.96344L50.6778 5.80483Z" fill="#221E26"/>
<path d="M43.9461 11.417H39.6905C37.8595 11.417 37.4636 11.7048 36.7709 12.7122C36.0781 13.7195 23.8553 31.8038 23.8553 31.8038C23.4594 32.3794 23.0635 32.5714 22.5193 32.5714C21.9749 32.5714 21.579 32.3315 21.1832 31.8038C21.1832 31.8038 8.96037 13.7195 8.26759 12.7122C7.57479 11.7048 7.17892 11.417 5.34798 11.417H1.14177C0.0531027 11.417 -0.293292 12.1845 0.350012 13.0479C0.943829 14.0073 14.8985 34.5381 14.8985 34.5381C17.1749 37.752 18.8079 39.0471 22.5193 39.0471C26.2305 39.0471 27.9131 37.752 30.1893 34.5381C30.1893 34.5381 44.1441 13.9593 44.7874 13.0959C45.3813 12.1845 45.0348 11.417 43.9461 11.417Z" fill="#221E26"/>
</g>
</svg>
