<svg width="108" height="46" viewBox="0 0 108 46" fill="none" xmlns="http://www.w3.org/2000/svg">
<path d="M44.1938 10.8712C44.1938 10.8712 44.6033 10.2574 44.947 9.79033C45.5737 8.94104 46.7064 7.76362 47.5581 7.034C47.8208 6.81203 48.1269 6.55821 48.1269 6.55821C48.1269 6.55821 47.645 6.60839 47.3737 6.66437C46.7267 6.7908 45.7775 7.42101 45.3024 7.82828C44.5202 8.49613 43.6608 9.58476 44.048 10.5499C44.1059 10.6888 44.1938 10.8712 44.1938 10.8712ZM48.5431 12.0342C49.7791 11.9512 50.9379 11.5931 52.0146 10.9977C53.072 10.407 54.6257 9.25469 54.4673 7.89777C54.4162 7.46058 54.1303 7.12858 53.7672 6.9732C53.2941 6.76764 53.0488 6.80431 52.4453 6.98092C52.0088 7.11024 51.8128 7.18746 51.4004 7.4239C50.1857 8.12843 48.4678 9.63494 47.534 10.8384C47.3177 11.1202 47.0994 11.4377 46.9305 11.6539C46.8204 11.7861 46.7383 11.9106 46.748 11.9444C46.7846 12.0824 48.0593 12.0689 48.5431 12.0342ZM45.3941 14.3456C45.2676 14.4778 45.1334 14.8059 44.9924 15.0424C44.9181 15.1679 44.779 15.33 44.6882 15.3937C44.3667 15.6301 44.0953 15.6407 43.7825 15.3676C43.3479 14.9854 43.0968 14.388 43.0785 13.809C43.0688 13.5552 43.1104 13.2782 43.065 13.062C42.9848 12.703 42.6237 12.3343 42.4306 11.9898C42.2027 11.5815 42.0182 10.8761 41.996 10.4205C41.9159 8.99798 42.6671 7.6893 43.6424 6.65472C44.6235 5.60952 45.9069 4.74093 47.3042 4.15125C48.6232 3.59343 50.5584 3.21511 52.0078 3.71793C52.4781 3.88007 53.1367 4.28154 53.4669 4.69943C53.5364 4.78822 53.5944 4.88473 53.6668 4.93009C53.7296 4.97062 53.8986 4.98703 54.0328 5.01116C54.4963 5.09126 55.1626 5.44062 55.4339 5.67321C55.9776 6.14515 56.2789 6.59585 56.417 7.24922C56.6951 8.56272 55.938 10.0055 55.0757 10.8818C53.5973 12.3942 52.1382 13.4548 50.2475 14.196C49.4189 14.5203 48.1259 14.8223 47.1835 14.7374C46.8918 14.7133 46.5896 14.637 46.3057 14.6158C46.1618 14.6033 45.6297 14.4691 45.5737 14.4267C45.5032 14.3755 45.4134 14.3272 45.3941 14.3456ZM47.083 17.2602C47.14 17.2708 47.2298 17.2969 47.3061 17.3239C47.9685 17.5767 48.2408 18.1905 48.404 18.8622C48.7826 20.4257 48.9448 23.8817 49.0066 25.2377C49.053 26.251 49.0781 27.2538 49.1206 28.2565C49.1563 29.1068 49.2239 30.2379 49.0481 31.036C48.9834 31.3226 48.7922 31.6527 48.517 31.8254C48.2013 32.0262 47.4857 32.0416 47.0927 31.9606C46.1222 31.7598 45.8064 31.1364 45.6693 30.178C45.34 27.8898 45.4974 23.3992 45.6925 21.5037C45.7553 20.8812 45.9928 18.8758 46.3202 18.0361C46.4303 17.7505 46.6688 17.1791 47.083 17.2602ZM17.1944 20.694C17.1944 20.694 15.7575 20.7953 14.7706 20.9054C13.5124 21.0395 11.1494 21.4477 9.78786 21.937C9.37746 22.0799 8.54604 22.4283 8.47362 22.8471C8.40023 23.2853 8.66868 23.624 8.97093 23.9782C9.14474 24.1819 10.1297 25.1286 10.4049 25.3593C11.5627 26.3234 13.9092 27.8145 15.6406 28.5383C16.2316 28.7844 17.2146 29.1357 17.2146 29.1357C17.2146 29.1357 17.1413 26.3398 17.1557 23.5864C17.1615 22.131 17.1944 20.694 17.1944 20.694ZM43.5188 21.8068C43.6019 22.5576 43.4068 23.9782 43.375 24.1655C43.3132 24.5969 42.9868 25.5919 42.9346 25.7144C42.671 26.3176 42.4132 26.8166 42.137 27.3097C41.6658 28.1571 40.5475 29.4996 39.8812 30.0738C37.4111 32.2086 33.5852 33.4246 30.302 33.8251C28.0762 34.0944 25.5173 34.0529 23.1563 33.6176C22.3451 33.468 21.1381 33.192 21.1381 33.192C21.1381 33.192 21.141 33.6746 21.1014 34.0153C21.083 34.1677 20.9652 34.5769 20.9005 34.7092C20.7277 35.0633 20.4467 35.2458 20.0382 35.323C19.5438 35.4175 19.0194 35.4455 18.5617 35.2525C17.8124 34.935 17.542 34.2324 17.4126 33.4275C17.3064 32.779 17.1953 31.6527 17.1953 31.6527C17.1953 31.6527 16.6353 31.3883 16.1669 31.1547C14.73 30.4463 13.3637 29.5912 12.1711 28.7072C11.8408 28.463 10.4194 27.2721 10.1046 26.9749C9.2249 26.1439 8.43404 25.312 7.83147 24.2465C7.36313 23.4146 7.22891 22.6744 7.58426 21.7932C8.07674 20.5647 9.83904 19.6372 11.0461 19.1093C11.9335 18.7184 14.6866 17.8199 15.8318 17.6539C16.3716 17.5767 17.2098 17.4281 17.261 17.3934C17.2822 17.3779 17.2977 17.3644 17.3122 17.3461C17.3382 17.3084 17.3827 16.0905 17.374 15.6465C17.3643 15.2084 17.6984 12.3353 17.8056 11.7282C17.8636 11.3972 18.1127 10.132 18.3676 9.80094C18.5328 9.57704 18.8273 9.59248 19.0668 9.74207C20.3791 10.5556 20.7769 13.3853 20.8744 14.8252C20.9334 15.7015 20.9623 17.0208 20.9623 17.0208C20.9623 17.0208 22.4678 16.9774 23.3948 17.0015C24.2938 17.0237 25.2855 17.1666 26.2203 17.3152C27.4167 17.5044 29.7478 18.013 31.0842 18.6914C32.186 19.2483 33.2154 20.1893 33.5485 21.1843C33.8595 22.0963 33.8122 22.7255 33.34 23.5488C32.8098 24.4791 31.8046 25.1682 30.7858 25.2251C30.4817 25.2454 29.3412 25.0929 28.9907 24.8217C28.8516 24.7117 28.8594 24.5168 28.9598 24.3845C28.9975 24.3363 29.5295 24.0574 29.8453 23.8894C30.0027 23.8035 30.134 23.7119 30.2557 23.5999C30.5183 23.3673 30.753 23.1145 30.7269 22.8191C30.6902 22.4331 30.2837 22.1947 29.8936 22.0422C28.0685 21.3184 24.4242 20.7152 22.6609 20.611C21.9714 20.5705 20.9923 20.5357 20.9923 20.5357L21.1989 30.2562C21.1989 30.2562 22.01 30.4116 22.6483 30.5158C23.0162 30.5698 24.569 30.7098 24.9813 30.7204C28.1245 30.8034 31.6327 30.5235 34.5171 29.1598C35.783 28.5644 36.9447 27.8241 37.8235 26.8214C38.9842 25.4905 39.5916 23.6742 39.4303 21.7768C39.2536 19.7 37.7926 17.2409 36.628 15.7421C33.5466 11.7804 28.2655 8.52508 23.6207 6.61612C18.8765 4.66758 14.1893 3.54421 9.15344 3.35698C7.85658 3.31066 5.0253 3.37629 3.59711 3.77198C3.39046 3.82891 3.18574 3.8984 2.99551 3.93894C2.84487 3.97561 2.61118 4.07502 2.54552 4.12617C2.51076 4.15801 2.4731 4.19565 2.4731 4.19565C2.4731 4.19565 2.56194 4.24391 2.64595 4.28154C2.79756 4.34814 3.43585 4.38578 3.7661 4.44561C4.05965 4.50159 4.36963 4.6589 4.48937 4.87604C4.60525 5.08064 4.62167 5.24181 4.48165 5.41264C4.15719 5.80929 2.93661 5.73981 2.40068 5.65681C1.84254 5.56609 1.14824 5.3972 1.0198 4.91079C0.873027 4.33849 1.14244 3.77776 1.43696 3.25854C2.02794 2.22106 2.87191 1.6806 4.1118 1.34378C5.86927 0.861233 8.0893 0.522484 9.75021 0.45879C13.5095 0.318848 17.0659 0.97319 20.7064 2.08016C22.7903 2.70844 25.5211 3.76522 27.5171 4.72742C28.9482 5.4165 31.2078 6.6885 32.4767 7.51945C32.8765 7.78292 35.2181 9.50176 35.5812 9.80384C36.3402 10.4234 37.3339 11.3142 38.0504 12.0274C39.4409 13.4046 41.1704 15.5143 42.0124 17.1878C42.2123 17.5912 42.3707 17.9859 42.6295 18.4501C42.7193 18.6084 43.1046 19.5619 43.1683 19.838C43.2311 20.1101 43.3238 20.5106 43.3373 20.5251C43.3566 20.6728 43.5324 21.4892 43.5188 21.8068ZM59.7127 22.5132C59.7832 22.52 59.8006 22.5229 59.8653 22.5325C61.0163 22.6889 62.1442 22.8954 63.0065 23.2814C63.807 23.6366 64.2783 24.0825 64.7061 24.8806C65.3579 26.0899 65.4013 27.7817 64.8123 29.0633C64.371 30.0159 63.4053 30.816 62.5247 31.2406C61.6063 31.6845 60.7073 31.8949 59.6722 32.0127C57.8664 32.2105 55.91 31.838 54.2819 31.0505C53.3192 30.5805 52.143 29.7717 51.5491 28.7284C51.1127 27.9622 51.1262 26.9691 51.6583 26.2433C52.5032 25.0871 54.3138 24.8323 55.6802 24.8806C56.7211 24.9192 58.5926 25.2425 59.5824 25.5919C59.8576 25.6913 60.8667 26.085 61.0424 26.2626C61.166 26.39 61.2481 26.5705 61.1921 26.7413C60.9642 27.4314 59.2888 27.7952 58.805 27.8676C57.5062 28.0654 56.8341 27.5761 55.3596 26.9942C54.9936 26.8513 54.506 26.6931 54.1313 26.6583C53.4631 26.5946 52.6548 26.7789 52.5283 27.5115C52.4627 27.8888 52.9049 28.2401 53.2419 28.3858C54.0328 28.7284 54.6759 28.8491 55.4561 28.8616C57.7534 28.8964 60.3365 28.519 62.2186 27.1872C62.4783 27.0048 62.7294 26.7346 62.7333 26.3958C62.7333 26.3524 62.6715 25.9876 62.5536 25.9499C62.5363 25.9422 62.5179 25.9509 62.5044 25.948C62.4609 25.9354 62.3885 25.8167 62.3277 25.7386C62.1925 25.5735 61.6469 25.339 61.5397 25.2937C60.2728 24.7658 57.9321 24.509 56.724 24.4096C55.459 24.3015 53.4688 24.1336 52.9899 24.0641C52.4984 23.9946 51.9634 23.8972 51.5356 23.7051C51.1098 23.5121 50.6907 23.0797 50.5652 22.602C50.345 21.7392 50.6279 20.6795 51.1069 19.9885C52.3642 18.1819 55.3055 17.4976 57.5062 17.2254C59.6355 16.96 63.077 16.9629 65.1676 18.0738C65.4911 18.2455 65.6572 18.4067 65.5877 18.7522C65.4525 19.3998 64.962 19.8167 64.3739 20.0001C63.7559 20.197 62.4745 20.2732 61.9125 20.308C59.3912 20.4498 56.3445 20.3755 53.9449 21.0308C53.7566 21.0849 53.4322 21.1688 53.325 21.2885C52.9493 21.6958 54.0231 21.8116 54.2539 21.8618C54.3215 21.8753 54.336 21.8782 54.4065 21.8849L59.7127 22.5132ZM67.5779 31.9374C66.5601 31.5639 66.3293 29.9213 66.282 29.0904C66.1208 26.3852 66.8363 22.6213 67.745 20.086C68.0047 19.3641 68.3784 18.1847 69.1867 18.2513C69.7429 18.3006 70.1398 18.7291 70.4517 19.1691C71.2493 20.2935 72.298 21.8174 72.9932 22.878C73.7706 24.067 74.517 25.2647 75.2509 26.3485C75.3407 26.4798 75.4257 26.6072 75.5242 26.6882C75.6575 26.7954 75.7772 26.8011 75.8313 26.7017C75.8564 26.6631 75.8081 25.2966 75.7743 25.0225C75.7173 24.5862 75.6913 24.233 75.642 23.8566C75.5068 22.7632 75.1582 21.2248 74.8849 20.1844C74.5837 19.0205 74.2158 17.8074 73.9405 16.6811C73.8527 16.3154 73.7706 15.9457 73.7735 15.5973C73.7764 15.0935 74.0999 14.8146 74.6252 15.0028C75.6604 15.3676 77.0325 17.6134 77.4323 18.3932C77.5685 18.6567 78.1073 19.9962 78.228 20.3717C78.6577 21.6581 78.9175 22.878 79.0363 24.2803C79.1502 25.643 79.0546 27.6282 78.4781 28.9716C78.2666 29.4658 77.8321 30.1307 77.4709 30.4656C76.9041 30.9906 75.7743 31.4008 74.996 30.9569C74.1443 30.4743 72.7451 28.0519 72.5066 27.6379C71.6945 26.2211 70.2971 23.4503 70.0808 23.1396C70.0335 23.071 69.9717 23.0054 69.8636 22.9726C69.7815 22.9485 69.7487 23.1193 69.7274 23.2303C69.5884 24.0371 69.4928 27.8106 69.4908 27.9158C69.4677 28.5509 69.4368 30.1085 69.2533 30.8758C69.1336 31.3767 69.0119 31.7878 68.5513 31.9982C68.2239 32.1459 67.9748 32.0841 67.5779 31.9374ZM81.6087 31.6961C81.4986 31.6122 81.321 31.4307 81.1916 31.285C81.1713 31.2647 80.8053 30.7165 80.7329 30.5477C80.6692 30.4019 80.6209 30.2967 80.5745 30.1751C80.2414 29.3152 80.2501 28.4688 80.4345 27.5452C80.6054 26.6834 80.7677 26.6458 81.2099 25.4626C81.2379 25.3979 81.2514 25.3419 81.2611 25.2705C81.2794 25.1084 81.0168 24.0178 81.0014 23.6675C80.983 23.1328 81.3982 22.7535 82.0935 22.6802C82.1572 22.6744 82.2046 22.6753 82.2509 22.6618C82.528 22.5943 82.7057 22.0635 82.8573 21.6379C83.0688 21.0395 83.399 20.1275 83.399 20.1275C83.399 20.1275 82.5203 19.9248 82.05 19.7472C81.5247 19.5494 81.1278 19.2936 80.8903 18.8121C80.6054 18.2484 80.7928 17.9358 81.3818 17.7533C81.5981 17.6839 83.3035 17.3567 83.8423 17.2804C84.5144 17.182 85.1469 17.098 85.7861 17.0189C86.3423 16.9513 88.8936 16.656 89.7057 16.6773C90.9436 16.713 91.7471 17.2225 92.4703 18.2697C92.8595 18.8285 93.125 19.4925 92.5379 19.8524C91.636 20.3996 88.714 20.4411 88.178 20.4469C87.3254 20.4556 86.1463 20.4411 86.1463 20.4411L85.5515 22.4283C85.5515 22.4283 87.645 22.4061 88.8212 22.4013C89.107 22.4013 89.3928 22.4167 89.5531 22.4505C90.1537 22.5837 90.3614 23.045 90.3855 23.7099C90.4183 24.4878 90.2716 24.8459 89.6516 24.9501C89.331 25.0012 85.7349 25.0225 85.2473 25.0794C84.9431 25.1122 84.6216 25.1605 84.6216 25.1605C84.6216 25.1605 84.3618 25.838 84.1358 26.5222C83.9079 27.2354 83.7129 27.9622 83.7129 27.9622C83.7129 27.9622 83.8954 27.9699 84.047 27.9699C84.3 27.9718 84.5569 27.9351 84.7577 27.9004C85.8547 27.6996 87.4857 27.4584 88.824 27.248C89.5434 27.1331 89.9056 27.082 90.2841 27.5587C90.6115 27.9805 90.7814 28.3337 90.8046 28.8433C90.8249 29.3229 90.4589 29.6405 90.0118 29.9821C88.5971 31.063 86.1791 32.2346 84.3772 32.4354C83.5449 32.529 83.3421 32.4363 82.613 32.2462C82.474 32.2105 81.9699 31.975 81.9747 31.9499C81.9747 31.9499 81.7014 31.7685 81.6087 31.6961ZM104.344 21.7093C103.417 22.4852 102.219 24.067 101.648 24.8883C100.884 25.9769 100.166 27.2239 99.478 28.1899C99.3303 28.4071 98.887 29.184 98.9025 29.21C98.9334 29.265 99.3795 29.2477 99.8382 29.1705C100.814 29.0064 102.142 28.3212 102.851 27.7556C103.932 26.8899 104.684 25.7009 105.039 24.3102C105.197 23.6781 105.277 22.353 104.829 21.7633C104.741 21.6504 104.517 21.5616 104.344 21.7093ZM96.9818 33.0704C96.9818 33.0704 96.6883 33.9313 96.4729 34.6069C96.1012 35.7727 95.2832 38.9122 95.094 39.8879C94.8091 41.3355 93.998 45.1293 93.9565 45.2104C93.8995 45.3204 93.8618 45.3551 93.7247 45.443C93.3906 45.6389 93.2564 45.5742 92.8518 45.358C92.3264 45.082 91.8649 44.8002 91.4709 44.28C90.679 43.2522 90.8683 41.3181 91.0228 40.1832C91.5665 36.2137 92.1159 34.4679 93.6272 30.5168C93.6523 30.4492 93.6523 30.4338 93.6214 30.3739C93.1501 29.3712 92.8962 28.16 92.8962 27.1814C92.9 24.0844 94.6807 21.0202 96.6777 18.5592C96.8283 18.372 97.8084 17.1984 98.2536 17.2216C98.6997 17.2428 98.7721 17.763 98.7055 18.1973C98.4815 19.6276 97.4743 21.0849 96.7858 22.2912C96.0114 23.6395 95.8433 24.1944 95.4648 25.4307C95.404 25.6237 95.2524 26.5271 95.2591 26.6429C95.2746 26.9749 95.347 27.3937 95.347 27.3937C95.347 27.3937 96.6062 25.6314 97.4376 24.5438C97.8915 23.9464 98.2178 23.5517 98.5964 23.126C98.9797 22.6937 100.456 21.1601 100.881 20.7558C101.774 19.9036 102.17 19.5494 103.136 19.0485C103.902 18.6528 104.589 18.5544 105.336 19.0475C106.519 19.8244 107.035 21.468 107.168 22.8008C107.324 24.3932 106.998 26.1844 106.295 27.5481C105.462 29.1753 104.324 30.3469 102.776 31.3718C101.193 32.4199 99.3361 33.1332 97.5149 33.0907C97.2686 33.0849 96.9818 33.0704 96.9818 33.0704Z" fill="#FF5252"/>
</svg>
