<svg width="198" height="38" viewBox="0 0 198 38" fill="none" xmlns="http://www.w3.org/2000/svg">
<g id="AdColony_2008 1" clip-path="url(#clip0_681_3615)">
<g id="g15912">
<path id="path334" d="M5.78493 29.6539C2.96896 27.9524 0 24.7911 0 19.0399C0 8.10898 10.6883 6.45947 10.6883 6.45947C10.6883 6.45947 1.79175 9.45716 1.79175 19.0399C1.79175 23.791 3.99059 26.9004 6.20499 28.833" fill="#FF5252"/>
<path id="path338" d="M19.9215 9.86848C19.2162 9.86848 18.6457 10.44 18.6457 11.1465C18.6457 11.8479 19.2162 12.4194 19.9215 12.4194C20.6268 12.4194 21.1998 11.8479 21.1998 11.1465C21.1998 10.44 20.6268 9.86848 19.9215 9.86848ZM21.9181 11.1465C21.9181 12.2479 21.0235 13.1415 19.9215 13.1415C18.8195 13.1415 17.9249 12.2479 17.9249 11.1465C17.9249 10.0425 18.8195 9.14893 19.9215 9.14893C21.0235 9.14893 21.9181 10.0425 21.9181 11.1465ZM8.96875 25.6778L9.26953 25.9427C9.26953 25.9427 13.2005 22.5684 14.2117 19.2876C14.2117 19.2876 18.0079 15.2612 18.9517 13.5442C18.9517 13.5442 20.7461 14.1884 21.8921 12.5259C22.8982 11.066 22.3952 9.9516 21.6432 9.00606C21.6432 9.00606 23.8421 4.57446 24.0158 2.92755C24.0158 2.92755 15.0674 9.58533 10.9498 21.6514C10.9498 21.6514 13.4883 18.5966 14.1495 18.0667C14.1495 18.0667 12.7778 22.1709 8.96875 25.6778ZM9.41993 23.4256C9.41993 23.4256 13.5246 6.66298 26.9536 0C26.9536 0 26.4454 13.4091 11.3465 24.7608L9.41993 23.4256Z" fill="#FF5252"/>
<path id="path342" d="M17.2459 24.0529C17.2459 24.0529 18.6124 22.7281 18.9572 22.5411C19.3021 22.3515 17.0073 28.3001 13.525 30.8302L13.1127 30.6536C13.1127 30.6536 13.6676 29.1937 13.9269 28.7053L12.9727 23.6321L16.4965 20.1123L17.2459 24.0529Z" fill="#FF5252"/>
<path id="path346" d="M8.11487 17.5855C8.11487 17.5855 8.87979 15.8425 8.93684 15.4528C8.99648 15.0632 4.21762 19.2766 3.05078 23.4276L3.35935 23.7549C3.35935 23.7549 4.53656 22.7263 4.90476 22.3132L9.9844 21.456L12.0614 16.9257L8.11487 17.5855Z" fill="#FF5252"/>
<path id="path350" d="M6.43219 30.0202C6.61889 29.8643 6.80818 29.6773 6.99487 29.4747L6.43219 30.0202ZM6.99487 29.4747C7.92056 28.4746 8.78403 27.0745 8.95775 26.7653C9.17556 26.3835 8.99924 26.2562 8.99924 26.2562C8.99924 26.2562 8.61289 26.0068 8.43916 25.9419C8.27321 25.8717 7.10637 26.9861 6.00695 29.2227C4.90234 31.4593 2.86944 34.5167 2.86944 34.5167C3.71994 33.5842 5.17201 31.0047 6.31292 30.1163C6.35181 30.0851 6.3933 30.054 6.43219 30.0202M10.3606 24.5677C10.5343 24.8353 10.5084 25.6847 10.5084 25.6847C10.4176 26.425 9.80566 28.3993 8.16171 30.2098C7.87648 30.5241 7.56014 30.8333 7.21009 31.132C4.8427 33.1426 1.91523 35.374 0.375 38.0002C0.375 38.0002 3.2558 33.8206 4.16075 30.2306C5.0631 26.6381 8.63104 23.8897 9.31818 24.056C9.31818 24.056 10.1868 24.295 10.3606 24.5677Z" fill="#FF5252"/>
<path id="path354" d="M19.9117 11.8528C19.9117 11.8528 18.9264 11.9022 19.0404 10.9566C19.1597 10.0163 20.1943 10.3332 20.1995 10.3565L20.2099 10.3825C20.2099 10.3825 19.4294 10.3306 19.349 10.9956C19.2686 11.6606 19.9117 11.8528 19.9117 11.8528Z" fill="#FF5252"/>
<path id="path358" d="M40.3866 18.9959L38.4159 13.9851L36.4193 18.9959H40.3866ZM36.09 8.16113H40.817L48.3444 26.007H43.091L41.8257 22.8171H34.9802L33.7174 26.007H28.5859L36.09 8.16113Z" fill="#FF5252"/>
<path id="path362" d="M56.2288 12.6172V21.6545H58.2254C61.1814 21.6545 63.1262 20.0335 63.1262 17.1735V17.1216C63.1262 14.2875 61.1814 12.6172 58.2254 12.6172H56.2288ZM51.3281 8.28955H58.1736C64.4667 8.28955 68.128 11.9341 68.128 17.0462V17.0982C68.128 22.2104 64.4149 26.0081 58.0725 26.0081H51.3281V8.28955Z" fill="#FF5252"/>
<path id="path366" d="M113.226 17.1988V17.1468C113.226 14.5674 111.408 12.3645 108.704 12.3645C105.999 12.3645 104.205 14.5414 104.205 17.0975V17.1468C104.205 19.7055 106.051 21.9317 108.753 21.9317C111.432 21.9317 113.226 19.7549 113.226 17.1988ZM99.2031 17.1988V17.1468C99.2031 12.0606 103.297 7.93555 108.753 7.93555C114.211 7.93555 118.254 12.0087 118.254 17.0975V17.1468C118.254 22.2356 114.162 26.3607 108.704 26.3607C103.246 26.3607 99.2031 22.2876 99.2031 17.1988Z" fill="#FF5252"/>
<path id="path370" d="M122.047 8.28906H126.948V21.7033H135.515V26.0076H122.047V8.28906Z" fill="#FF5252"/>
<path id="path374" d="M151.331 17.1988V17.1468C151.331 14.5674 149.511 12.3645 146.809 12.3645C144.105 12.3645 142.31 14.5414 142.31 17.0975V17.1468C142.31 19.7055 144.157 21.9317 146.859 21.9317C149.537 21.9317 151.331 19.7549 151.331 17.1988ZM137.309 17.1988V17.1468C137.309 12.0606 141.403 7.93555 146.859 7.93555C152.317 7.93555 156.359 12.0087 156.359 17.0975V17.1468C156.359 22.2356 152.267 26.3607 146.809 26.3607C141.351 26.3607 137.309 22.2876 137.309 17.1988Z" fill="#FF5252"/>
<path id="path378" d="M160.148 8.28906H164.722L171.998 17.6536V8.28906H176.85V26.0076H172.579L165 16.2872V26.0076H160.148V8.28906Z" fill="#FF5252"/>
<path id="path382" d="M186.38 19.3753L179.633 8.28857H185.218L188.856 14.7437L192.52 8.28857H198.001L191.28 19.3V26.0072H186.38V19.3753Z" fill="#FF5252"/>
<path id="path386" d="M72.5312 17.2624V17.1923C72.5312 9.92663 78.075 4.22998 85.6102 4.22998C90.6951 4.22998 93.9648 6.36785 96.1688 9.39411L90.9777 13.4179C89.5567 11.6723 87.9206 10.4981 85.5402 10.4981C82.0579 10.4981 79.6049 13.488 79.6049 17.1195V17.1923C79.6049 20.9303 82.0579 23.85 85.5402 23.85C88.1358 23.85 89.6631 22.6395 91.1566 20.8238L96.3452 24.5254C93.9985 27.7673 90.8351 30.1519 85.3613 30.1519C78.254 30.1519 72.5312 24.7047 72.5312 17.2624Z" fill="#FF5252"/>
</g>
</g>
<defs>
<clipPath id="clip0_681_3615">
<rect width="198" height="38" fill="white"/>
</clipPath>
</defs>
</svg>
