<svg width="67" height="50" viewBox="0 0 67 50" fill="none" xmlns="http://www.w3.org/2000/svg">
<g id="Plarium_logo_2015 2" clip-path="url(#clip0_681_3608)">
<path id="Vector" d="M2.12583 43.8496C3.40321 43.802 4.41546 43.7639 6.10881 43.7663H6.13238C7.39563 43.7687 8.68244 43.8306 9.93154 43.983C9.83137 44.6282 9.65579 45.2806 9.42247 45.9258C9.19857 46.5711 8.92401 47.2151 8.55517 47.8782C7.22829 47.983 5.89199 48.033 4.62168 48.0294C4.06547 48.0294 3.35254 48.0175 2.39215 47.9996L1.73224 49.8842H0L2.12583 43.8496ZM7.24361 46.8258C7.3968 46.5163 7.51936 46.2306 7.63013 45.9235C7.73972 45.6223 7.81396 45.3282 7.8823 45.027C7.35674 44.9758 6.34685 44.9485 5.70816 44.9485C4.86914 44.9485 4.19274 44.9723 3.45742 45.002H3.45271L2.80459 46.8449L2.81401 46.8365C3.52105 46.8877 4.17624 46.8961 5.01408 46.8984C5.83661 46.9008 6.51065 46.877 7.24125 46.827M11.652 43.8496H13.4314L13.0307 44.9687C12.6242 46.133 12.1893 47.4389 11.8335 48.6032C12.458 48.6961 13.1533 48.7151 13.8108 48.7151C14.4672 48.7175 15.1742 48.7032 15.8612 48.6115C15.9861 48.3687 16.0946 48.127 16.1865 47.8925H17.9388C17.6913 48.5306 17.4238 49.1246 17.0856 49.8032C15.8011 49.9425 14.5756 49.9818 13.3619 49.9794C12.1245 49.977 10.9615 49.9318 9.76774 49.7889C10.1979 48.2294 10.7387 46.5234 11.2843 44.9651L11.6496 43.8508L11.652 43.8496ZM23.317 43.8806C23.3959 43.8651 24.1159 43.7854 25.2024 43.7854H25.4616C26.1687 43.7877 26.805 43.8056 27.5333 43.8746L28.2238 49.883H26.4798L26.3207 48.6139L21.1982 48.6044L20.1553 49.883H18.4113L22.7219 44.602L23.3193 43.8818L23.317 43.8806ZM24.1218 45.083L22.1892 47.4104L26.1663 47.4175L25.8835 45.0889C25.6867 45.0723 25.2908 45.0532 25.0162 45.0532C24.7405 45.0532 24.3469 45.0687 24.1206 45.0854M31.6341 43.8377L35.7938 43.8473C37.0488 43.8496 38.6338 43.8711 39.8546 44.0306C39.7462 44.6258 39.6331 45.1854 39.4245 45.7806C39.177 46.477 38.8989 47.1973 38.4794 47.9354C37.8525 47.9663 37.1455 48.0234 36.462 48.0473L38.1117 49.8854H35.8964L33.3663 47.1032L33.4253 46.9282H34.3444C35.3755 46.9306 36.2734 46.9246 37.1761 46.883C37.3293 46.5568 37.4672 46.2401 37.5803 45.9127C37.6899 45.5949 37.7688 45.327 37.8395 45.0163C37.0382 44.9806 36.2911 44.9806 35.3861 44.9806L32.994 44.9746L31.2617 49.8842H29.5248L31.6341 43.8377ZM42.0122 43.8496H43.7445L41.6163 49.8854H39.8723L42.0122 43.8496ZM45.9127 43.8758H47.6686L47.295 44.9473C46.8708 46.1377 46.4642 47.452 46.1095 48.6258C46.8755 48.7246 47.6945 48.7425 48.4923 48.7413C49.2818 48.7413 50.122 48.7223 50.941 48.6223C51.4276 47.4484 51.919 46.1342 52.3433 44.9437L52.7145 43.8758H54.4915L54.1191 44.9413C53.5711 46.4937 52.8346 48.152 52.236 49.6949C50.7925 49.9211 49.4032 49.9985 48.0504 49.9996C46.6881 49.9996 45.3542 49.9258 44.0556 49.702C44.4621 48.1592 44.9771 46.4913 45.5239 44.9485L45.9104 43.877L45.9127 43.8758ZM56.3816 43.8984C57.5188 43.8389 58.7243 43.7889 60.5767 43.7699C60.6439 43.7699 60.7299 43.7615 60.7947 43.7615H61.2366C62.8557 43.7615 64.4572 43.8258 66.0268 43.9996C65.4612 45.8615 64.7541 48.0234 64.1037 49.8854H62.3596C62.8734 48.4008 63.4791 46.6092 63.9187 45.1235C63.1881 45.0758 62.4292 45.0425 61.675 45.0258L59.9781 49.883H58.2246L59.9215 45.0258C59.1473 45.0449 58.3613 45.0782 57.6001 45.1294C57.0026 46.6115 56.3545 48.3985 55.8407 49.8818H54.0967C54.6105 48.3973 55.2421 46.7068 55.8643 45.1484C55.9892 44.8354 56.3816 43.8984 56.3816 43.8984ZM60.4695 9.42107C60.6863 9.76393 60.6816 9.9925 60.651 10.1449H60.6462C60.6392 10.1806 60.6286 10.2163 60.618 10.252C60.4648 10.6806 59.9581 11.152 59.2004 11.5592C56.985 12.7437 54.0684 13.9282 50.5073 15.0877V15.0556C50.4896 13.9127 49.3996 13.0532 46.872 12.2008C30.3508 6.6175 16.7757 11.5556 11.9301 14.4675C13.4432 10.0651 15.4629 5.26869 16.7238 4.54845C23.4195 0.72226 32.5568 -0.793216 41.7907 0.394879C50.4755 1.51155 57.6343 4.97107 60.4695 9.42107ZM59.7412 13.3056C58.4898 17.4746 56.8341 22.3294 55.9032 23.3723C52.8394 26.808 23.5562 33.5723 7.31196 25.658C16.6001 24.4556 46.6469 20.1496 59.7412 13.3056Z" fill="#FF5252"/>
<path id="Vector_2" d="M31.2602 11.4526L28.0514 20.5395C27.4539 20.6514 26.8541 20.7634 26.2461 20.8729C23.1752 21.436 20.2245 21.9324 17.533 22.3574C14.7461 21.1669 11.0365 18.9014 10.9375 17.555L10.9493 17.5157C11.4254 16.7086 15.1467 14.1669 21.5702 12.6264C24.1603 12.0038 27.4469 11.4836 31.2602 11.4526ZM24.5504 31.0836L22.4728 37.1669H13.788L16.1861 30.2538C19.0001 30.7538 21.8459 31.0038 24.5504 31.0872" fill="#FF5252"/>
</g>
<defs>
<clipPath id="clip0_681_3608">
<rect width="66.0256" height="50" fill="white"/>
</clipPath>
</defs>
</svg>
