<?xml version="1.0" standalone="no"?>
<!DOCTYPE svg PUBLIC "-//W3C//DTD SVG 20010904//EN"
 "http://www.w3.org/TR/2001/REC-SVG-20010904/DTD/svg10.dtd">
<svg version="1.0" xmlns="http://www.w3.org/2000/svg"
 width="148.000000pt" height="148.000000pt" viewBox="0 0 148.000000 148.000000"
 preserveAspectRatio="xMidYMid meet">
<metadata>
Created by potrace 1.14, written by Peter Selinger 2001-2017
</metadata>
<g transform="translate(0.000000,148.000000) scale(0.100000,-0.100000)"
fill="#000000" stroke="none">
<path d="M590 1243 c0 -5 36 -7 80 -5 140 6 250 -31 334 -113 170 -165 159
-430 -25 -613 l-61 -61 37 -45 c21 -26 38 -57 38 -71 0 -14 3 -25 7 -25 5 0
35 26 67 59 106 106 159 240 150 386 -6 107 -11 128 -53 212 -61 123 -169 216
-302 262 -48 16 -86 21 -167 21 -58 0 -105 -3 -105 -7z"/>
<path d="M548 1233 c6 -2 18 -2 25 0 6 3 1 5 -13 5 -14 0 -19 -2 -12 -5z"/>
<path d="M830 1179 c0 -5 -4 -8 -9 -4 -5 3 -12 2 -14 -3 -8 -12 -156 -13 -178
-1 -24 12 -55 4 -63 -18 -10 -26 4 -30 24 -5 18 21 32 29 27 15 -1 -5 3 -10 8
-11 6 -2 18 -9 29 -14 15 -8 16 -12 5 -19 -8 -5 -9 -9 -3 -9 18 0 24 13 13 27
-9 11 2 13 65 13 42 0 76 4 76 9 0 6 9 8 20 6 11 -2 18 0 15 6 -4 5 -1 9 5 9
7 0 14 -9 17 -20 3 -11 9 -20 14 -20 5 0 3 11 -3 25 -11 24 -48 35 -48 14z"/>
<path d="M336 1108 c-117 -116 -166 -236 -160 -393 7 -188 119 -361 287 -444
88 -43 136 -52 245 -50 83 1 191 23 179 35 -2 2 -17 0 -33 -6 -39 -14 -178
-18 -234 -8 -166 31 -318 183 -348 348 -30 166 36 317 180 414 l46 32 -38 57
c-22 32 -37 64 -33 72 12 32 -21 11 -91 -57z"/>
<path d="M710 1128 c0 -6 3 -8 7 -5 3 4 11 2 18 -3 8 -7 12 -6 12 3 0 7 -9 14
-19 14 -10 1 -18 -3 -18 -9z"/>
<path d="M794 1128 c-4 -6 -2 -14 4 -16 7 -2 10 -8 6 -13 -3 -5 -14 -5 -26 2
-16 9 -19 8 -13 -2 6 -9 3 -11 -8 -6 -18 7 -31 -21 -21 -47 8 -20 24 -21 24
-1 0 8 -6 15 -12 15 -9 0 -8 3 2 9 8 6 18 7 24 4 5 -3 6 -1 2 5 -4 7 -2 12 3
12 6 0 11 -6 11 -12 0 -9 3 -8 10 2 5 8 14 16 20 16 5 1 16 2 23 3 8 0 14 8
14 16 0 19 -16 19 -23 0 -4 -8 -10 -12 -15 -9 -5 3 -7 9 -4 14 3 5 1 11 -4 14
-5 4 -13 1 -17 -6z"/>
<path d="M590 1121 c0 -15 18 -23 25 -11 4 6 12 7 18 4 7 -4 9 -3 4 1 -11 13
-47 17 -47 6z"/>
<path d="M691 1114 c0 -11 3 -14 6 -6 3 7 2 16 -1 19 -3 4 -6 -2 -5 -13z"/>
<path d="M875 1120 c-3 -5 -1 -10 4 -10 6 0 11 5 11 10 0 6 -2 10 -4 10 -3 0
-8 -4 -11 -10z"/>
<path d="M715 1100 c3 -5 8 -10 11 -10 2 0 4 5 4 10 0 6 -5 10 -11 10 -5 0 -7
-4 -4 -10z"/>
<path d="M582 1078 c3 -16 1 -28 -3 -28 -8 0 22 -62 43 -87 6 -7 5 -14 -2 -18
-6 -3 -8 -10 -5 -15 3 -4 -2 -13 -10 -20 -13 -11 -15 -10 -10 6 4 10 -3 3 -13
-16 -19 -33 -19 -60 -1 -60 4 0 5 8 2 17 -5 12 0 10 16 -6 13 -13 25 -20 28
-17 3 3 -2 12 -11 21 -30 30 -15 50 29 39 19 -5 23 -10 16 -17 -6 -6 -11 -16
-11 -22 0 -5 9 1 20 15 15 19 22 22 29 12 6 -11 10 -9 14 7 5 21 27 30 27 10
0 -5 -5 -7 -11 -3 -7 4 -10 1 -7 -7 3 -8 11 -13 17 -12 6 2 11 -2 11 -8 0 -5
4 -8 9 -5 5 3 7 14 5 24 -3 11 4 21 22 29 23 11 27 10 31 -7 3 -11 11 -16 19
-13 12 4 12 7 -2 18 -19 13 -3 32 18 19 6 -4 8 -3 5 3 -13 20 -46 21 -66 1
-19 -17 -22 -18 -28 -2 -3 9 -1 25 6 35 7 12 7 19 1 19 -5 0 -10 -4 -10 -10 0
-17 -70 -12 -77 5 -7 19 -1 26 25 28 12 1 18 6 15 15 -5 10 -8 11 -13 2 -4 -7
-12 -10 -18 -6 -8 5 -23 -16 -23 -34 -1 -9 -21 -30 -29 -30 -15 0 -41 52 -46
93 -3 23 -8 44 -11 47 -3 3 -3 -7 -1 -22z m146 -121 c15 0 15 -3 2 -28 -8 -14
-21 -19 -50 -19 -47 0 -58 14 -34 41 13 15 25 18 44 13 14 -3 31 -7 38 -7z"/>
<path d="M631 1084 c13 -16 29 -19 29 -5 0 5 -9 11 -21 14 -16 4 -18 3 -8 -9z"/>
<path d="M854 1078 c-12 -20 -15 -68 -3 -68 5 0 8 4 5 8 -2 4 -1 14 3 21 12
18 20 -29 10 -55 -4 -10 -8 -14 -8 -8 -1 7 -10 14 -20 17 -15 3 -19 13 -19 36
1 17 -2 34 -5 38 -4 3 -7 -1 -7 -10 0 -9 -10 -21 -22 -27 -22 -11 -22 -10 -4
4 15 12 16 16 5 16 -8 0 -20 -9 -27 -21 -8 -12 -9 -18 -3 -14 6 3 11 1 11 -5
0 -6 5 -8 11 -4 8 5 10 -2 6 -22 -5 -25 -4 -27 8 -11 8 12 15 14 20 8 3 -6 15
-11 26 -11 10 0 19 -6 20 -12 0 -7 7 1 14 17 8 17 12 41 9 55 -2 14 -1 19 2
13 3 -7 10 -13 16 -13 6 0 6 6 -2 15 -6 8 -15 14 -18 13 -20 -2 -32 3 -27 12
4 6 11 8 16 5 5 -4 9 -1 9 4 0 15 -17 14 -26 -1z"/>
<path d="M600 1077 c0 -9 40 -35 44 -28 3 4 -6 13 -19 19 -14 7 -25 10 -25 9z"/>
<path d="M600 1040 c0 -5 5 -10 10 -10 6 0 10 5 10 10 0 6 -4 10 -10 10 -5 0
-10 -4 -10 -10z"/>
<path d="M556 1022 c-3 -5 1 -9 9 -9 8 0 12 4 9 9 -3 4 -7 8 -9 8 -2 0 -6 -4
-9 -8z"/>
<path d="M620 1020 c-12 -7 -10 -9 8 -7 12 0 22 5 22 9 0 11 -12 10 -30 -2z"/>
<path d="M898 1010 c-3 -8 -1 -26 4 -40 15 -39 0 -131 -25 -158 l-21 -23 24 9
c18 7 26 18 28 41 2 17 7 29 11 26 8 -5 5 46 -8 120 -4 23 -9 33 -13 25z"/>
<path d="M867 926 c-18 -38 -10 -47 15 -18 9 10 13 25 9 35 -6 15 -10 12 -24
-17z"/>
<path d="M550 895 c0 -8 2 -15 4 -15 2 0 6 7 10 15 3 8 1 15 -4 15 -6 0 -10
-7 -10 -15z"/>
<path d="M793 886 c26 -27 21 -43 -13 -41 -23 1 -27 -1 -19 -11 6 -7 8 -18 4
-23 -7 -13 -77 -11 -73 1 2 5 7 9 12 8 9 -2 26 19 26 33 0 15 -16 5 -38 -23
-21 -27 -22 -32 -9 -51 9 -13 17 -16 22 -10 8 14 45 14 45 0 0 -5 5 -7 10 -4
6 4 8 10 5 15 -6 10 49 42 58 34 3 -3 19 8 35 24 33 32 29 40 -23 47 -11 2
-29 7 -40 11 -19 8 -19 7 -2 -10z m67 -26 c-20 -13 -33 -13 -25 0 3 6 14 10
23 10 15 0 15 -2 2 -10z"/>
<path d="M920 831 c0 -12 4 -19 10 -16 6 3 10 -1 10 -9 0 -11 9 -16 29 -16 17
0 33 -4 36 -10 3 -5 11 -10 18 -10 18 0 -31 31 -52 33 -11 1 -18 4 -16 8 3 3
-4 14 -15 24 -19 18 -20 17 -20 -4z"/>
<path d="M530 818 c-1 -10 -3 -34 -4 -53 0 -19 -5 -35 -9 -35 -5 0 -6 -4 -2
-9 3 -5 1 -12 -5 -16 -5 -3 -15 -16 -20 -28 -11 -21 -10 -21 4 -3 9 11 22 16
31 13 21 -9 25 -8 25 1 0 4 -4 7 -9 7 -5 0 -13 3 -17 8 -4 4 -2 7 5 7 7 0 9 5
5 12 -5 8 -1 9 12 5 18 -7 18 -6 2 7 -21 15 -24 40 -5 34 15 -6 57 -78 57
-100 0 -10 -7 -18 -15 -18 -8 0 -15 4 -15 10 0 5 -6 7 -13 4 -8 -3 -14 -11
-14 -19 0 -8 4 -12 8 -10 4 3 6 -6 5 -19 0 -13 -6 -22 -12 -19 -15 5 -25 -20
-14 -37 10 -16 1 -50 -13 -50 -5 0 -3 -8 6 -18 20 -22 18 -62 -3 -62 -12 -1
-12 -3 3 -11 20 -11 23 -49 5 -49 -9 0 -8 -4 2 -10 11 -7 11 -10 2 -10 -7 0
-10 -5 -7 -10 4 -7 -7 -10 -29 -8 -33 2 -39 7 -62 53 -14 27 -23 42 -20 32 3
-10 6 -24 6 -31 0 -26 47 -68 76 -68 37 0 54 26 54 83 0 67 7 80 39 73 20 -5
23 -4 15 5 -6 7 -20 14 -30 16 -11 2 -21 4 -23 4 -2 1 3 9 10 18 10 12 11 15
1 9 -10 -6 -11 -1 -6 21 9 37 13 43 27 43 7 0 27 16 45 35 19 19 50 39 72 45
27 7 49 23 72 53 18 23 36 43 39 45 3 1 15 9 25 17 17 13 15 13 -13 3 -18 -7
-33 -16 -33 -20 0 -12 -54 -45 -88 -53 -24 -5 -32 -3 -30 6 2 7 -5 15 -16 17
-13 3 -16 0 -11 -9 5 -8 4 -10 -3 -5 -9 5 -9 13 -2 27 6 10 8 19 6 19 -3 0 -2
11 3 23 8 22 7 24 -20 22 -16 -1 -29 2 -29 7 0 4 -5 8 -11 8 -8 0 -8 -4 1 -14
6 -8 17 -13 24 -10 18 7 25 -16 14 -41 -8 -18 -8 -18 -4 3 3 14 -1 22 -10 22
-8 0 -23 9 -35 21 -38 38 -33 10 8 -43 42 -55 62 -111 36 -101 -7 3 -13 12
-13 21 0 14 -44 80 -61 92 -4 3 -9 16 -12 30 -3 17 -5 19 -7 8z"/>
<path d="M915 791 c-4 -7 -17 -16 -29 -21 -20 -9 -20 -9 0 -9 11 -1 26 5 33
12 10 10 12 7 10 -13 -2 -14 0 -31 4 -37 5 -8 3 -13 -3 -13 -6 0 -8 -4 -5 -10
3 -5 2 -10 -2 -10 -5 0 -9 -9 -10 -20 -2 -29 10 -24 26 10 7 17 25 45 40 63
14 17 19 27 11 22 -25 -15 -39 -14 -33 3 4 10 2 13 -5 8 -6 -3 -15 1 -20 10
-7 12 -11 13 -17 5z"/>
<path d="M823 725 c-20 -31 -20 -34 -3 -32 10 1 17 4 15 7 -2 4 2 18 10 33 20
38 4 33 -22 -8z"/>
<path d="M571 690 c14 -31 19 -36 19 -24 0 6 -7 19 -16 30 -14 18 -14 18 -3
-6z"/>
<path d="M765 699 c-11 -17 1 -21 15 -4 8 9 8 15 2 15 -6 0 -14 -5 -17 -11z"/>
<path d="M736 661 c-3 -5 1 -11 9 -15 16 -6 20 -32 6 -38 -5 -1 -3 -9 5 -16
12 -11 14 -10 15 5 1 10 0 24 -1 32 -2 20 -28 43 -34 32z"/>
<path d="M782 643 c7 -18 16 -33 20 -33 13 0 9 13 -12 40 l-20 25 12 -32z"/>
<path d="M900 586 c0 -17 -7 -27 -22 -32 -38 -12 -100 -8 -109 7 -6 9 -12 10
-16 4 -5 -6 -20 -16 -35 -22 -16 -7 -28 -17 -28 -23 0 -6 -5 -8 -12 -4 -6 4
-8 3 -5 -3 7 -10 -20 -28 -35 -25 -5 1 -8 -3 -8 -8 0 -6 2 -10 5 -10 12 0 72
34 98 56 20 17 33 21 45 15 20 -10 87 -5 112 9 18 10 34 60 19 60 -5 0 -9 -11
-9 -24z"/>
<path d="M445 589 c-4 -6 -5 -12 -2 -15 2 -3 7 2 10 11 7 17 1 20 -8 4z"/>
<path d="M580 521 c0 -10 19 -25 25 -20 1 2 -3 10 -11 17 -8 7 -14 8 -14 3z"/>
<path d="M470 441 c0 -6 4 -13 10 -16 6 -3 7 1 4 9 -7 18 -14 21 -14 7z"/>
<path d="M500 400 c0 -5 7 -10 16 -10 8 0 12 5 9 10 -3 6 -10 10 -16 10 -5 0
-9 -4 -9 -10z"/>
</g>
</svg>
